<svg width="48" height="48" fill="none" xmlns="http://www.w3.org/2000/svg"><g clip-path="url(#clip0_33465_3051)"><path d="M38.807 33.133H13.683a1.019 1.019 0 01-1.019-1.019V20.378c0-.562.456-1.018 1.019-1.018h25.124c.563 0 1.019.456 1.019 1.018v11.736c0 .563-.456 1.019-1.019 1.019z" fill="url(#paint0_linear_33465_3051)"/><path d="M12.692 31.69l1.442 1.443h24.673c.563 0 1.019-.456 1.019-1.019V20.378c0-.562-.456-1.018-1.019-1.018H13.683c-.563 0-1.019.456-1.019 1.018v11.254l.028.059z" fill="url(#paint1_linear_33465_3051)"/><path d="M37.28 31.605H12.155a1.019 1.019 0 01-1.018-1.018V18.85c0-.563.456-1.019 1.018-1.019H37.28c.563 0 1.018.456 1.018 1.019v11.736c0 .562-.456 1.018-1.018 1.018z" fill="url(#paint2_linear_33465_3051)"/><path d="M11.164 30.163l1.442 1.442H37.28c.562 0 1.018-.456 1.018-1.018V18.85c0-.563-.456-1.019-1.018-1.019H12.155c-.562 0-1.018.456-1.018 1.018v11.254l.027.06z" fill="url(#paint3_linear_33465_3051)"/><path d="M35.753 30.077H10.628a1.019 1.019 0 01-1.019-1.018V17.323c0-.563.456-1.019 1.019-1.019h25.125c.562 0 1.018.456 1.018 1.019v11.736c0 .562-.456 1.018-1.018 1.018z" fill="url(#paint4_linear_33465_3051)"/><path d="M9.637 28.635l1.442 1.442h24.674c.562 0 1.018-.456 1.018-1.018V17.323c0-.563-.456-1.019-1.018-1.019H10.628c-.563 0-1.019.456-1.019 1.019v11.253l.028.06z" fill="url(#paint5_linear_33465_3051)"/><path d="M34.315 28.64H9.19a1.018 1.018 0 01-1.018-1.018V15.886c0-.563.456-1.019 1.018-1.019h25.125c.563 0 1.019.456 1.019 1.019v11.736c0 .562-.456 1.018-1.019 1.018z" fill="url(#paint6_linear_33465_3051)"/><path d="M33.799 17.779a1.467 1.467 0 01-1.378-1.379 1.46 1.46 0 01.052-.468H11.031c.042.148.06.305.052.468a1.467 1.467 0 01-1.377 1.379 1.453 1.453 0 01-.702-.139v8.227c.211-.1.45-.152.702-.139a1.467 1.467 0 011.377 1.38c.009.162-.01.32-.052.468h21.442a1.462 1.462 0 01-.052-.468 1.468 1.468 0 011.377-1.38c.253-.013.492.038.703.139V17.64c-.211.1-.45.152-.702.139z" fill="url(#paint7_linear_33465_3051)"/><path d="M21.753 25.28a3.527 3.527 0 100-7.053 3.527 3.527 0 000 7.053z" fill="url(#paint8_linear_33465_3051)"/><path d="M16.905 17.227h-5.417v1.558h5.417v-1.558z" fill="url(#paint9_linear_33465_3051)"/><path d="M32.018 24.722h-5.416v1.558h5.416v-1.558z" fill="url(#paint10_linear_33465_3051)"/><path d="M46.619 10.88a2.106 2.106 0 00-2.539.91 23.534 23.534 0 00-6.227-6.786A23.367 23.367 0 0023.937.454a23.367 23.367 0 00-13.917 4.55A23.445 23.445 0 001.584 16.58a2.106 2.106 0 103.999 1.327 19.255 19.255 0 016.93-9.505 19.181 19.181 0 0111.424-3.735A19.18 19.18 0 0135.36 8.4a19.356 19.356 0 014.855 5.153 2.107 2.107 0 00-1.035 4.062l4.386 1.605.031.01c.037.013.074.024.112.035l.06.017c.038.01.076.018.114.025l.059.012c.04.007.082.012.123.016l.05.006a2.106 2.106 0 00.337.001c.013 0 .026-.003.039-.004.042-.004.083-.008.124-.015l.048-.01c.038-.006.077-.013.114-.022l.053-.015.107-.03.016-.005.03-.012a2.179 2.179 0 00.325-.145l.041-.021c.051-.03.1-.063.15-.097l.055-.041a2.153 2.153 0 00.249-.22c.01-.01.02-.018.028-.028.044-.047.085-.095.124-.146l.008-.011a2.09 2.09 0 00.1-.143l.024-.04a2.148 2.148 0 00.149-.295l.023-.056.008-.02 1.605-4.386a2.107 2.107 0 00-1.254-2.702z" fill="url(#paint11_linear_33465_3051)"/><path d="M1.383 37.12a2.106 2.106 0 002.539-.911 23.533 23.533 0 006.227 6.786 23.367 23.367 0 0013.916 4.552 23.37 23.37 0 0013.917-4.551 23.446 23.446 0 008.436-11.576 2.106 2.106 0 00-3.998-1.326 19.254 19.254 0 01-6.93 9.505 19.181 19.181 0 01-11.425 3.735A19.18 19.18 0 0112.641 39.6a19.358 19.358 0 01-4.854-5.153 2.107 2.107 0 001.034-4.062L4.436 28.78l-.032-.01a2.07 2.07 0 00-.112-.035l-.06-.017a2.11 2.11 0 00-.114-.025l-.059-.012a2.187 2.187 0 00-.123-.016l-.05-.006a2.105 2.105 0 00-.337-.001c-.013 0-.026.003-.039.004a1.982 1.982 0 00-.124.015l-.048.01a2.09 2.09 0 00-.114.022l-.053.015c-.036.01-.072.019-.107.03l-.015.005-.031.012a2.175 2.175 0 00-.325.145l-.04.021c-.052.03-.102.063-.15.097-.02.013-.037.027-.056.041a2.148 2.148 0 00-.249.22l-.028.028a2.068 2.068 0 00-.124.146l-.008.01a2.082 2.082 0 00-.1.144l-.024.04c-.024.04-.047.08-.07.123l-.025.051c-.02.04-.037.08-.054.12l-.023.057-.008.02L.129 34.42a2.106 2.106 0 001.254 2.702z" fill="url(#paint12_radial_33465_3051)"/></g><defs><linearGradient id="paint0_linear_33465_3051" x1="12.664" y1="26.247" x2="39.825" y2="26.247" gradientUnits="userSpaceOnUse"><stop stop-color="#61DB99"/><stop offset="1" stop-color="#009E74"/></linearGradient><linearGradient id="paint1_linear_33465_3051" x1="27.472" y1="30.398" x2="26.047" y2="25.219" gradientUnits="userSpaceOnUse"><stop stop-color="#009E74" stop-opacity="0"/><stop offset="1" stop-color="#009E74"/></linearGradient><linearGradient id="paint2_linear_33465_3051" x1="11.136" y1="24.719" x2="38.298" y2="24.719" gradientUnits="userSpaceOnUse"><stop stop-color="#61DB99"/><stop offset="1" stop-color="#009E74"/></linearGradient><linearGradient id="paint3_linear_33465_3051" x1="25.776" y1="29.496" x2="24.837" y2="24.997" gradientUnits="userSpaceOnUse"><stop stop-color="#009E74" stop-opacity="0"/><stop offset="1" stop-color="#009E74"/></linearGradient><linearGradient id="paint4_linear_33465_3051" x1="9.609" y1="23.191" x2="36.77" y2="23.191" gradientUnits="userSpaceOnUse"><stop stop-color="#61DB99"/><stop offset="1" stop-color="#009E74"/></linearGradient><linearGradient id="paint5_linear_33465_3051" x1="25.234" y1="30.979" x2="20.866" y2="13.684" gradientUnits="userSpaceOnUse"><stop stop-color="#009E74" stop-opacity="0"/><stop offset="1" stop-color="#009E74"/></linearGradient><linearGradient id="paint6_linear_33465_3051" x1="8.172" y1="21.754" x2="35.333" y2="21.754" gradientUnits="userSpaceOnUse"><stop stop-color="#A7F3CE"/><stop offset="1" stop-color="#61DB99"/></linearGradient><linearGradient id="paint7_linear_33465_3051" x1="14.657" y1="14.659" x2="31.941" y2="31.943" gradientUnits="userSpaceOnUse"><stop stop-color="#61DB99"/><stop offset="1" stop-color="#009E74"/></linearGradient><linearGradient id="paint8_linear_33465_3051" x1="19.654" y1="19.655" x2="24.767" y2="24.768" gradientUnits="userSpaceOnUse"><stop stop-color="#A7F3CE"/><stop offset="1" stop-color="#61DB99"/></linearGradient><linearGradient id="paint9_linear_33465_3051" x1="12.729" y1="16.54" x2="16.304" y2="20.115" gradientUnits="userSpaceOnUse"><stop stop-color="#A7F3CE"/><stop offset="1" stop-color="#61DB99"/></linearGradient><linearGradient id="paint10_linear_33465_3051" x1="27.842" y1="24.034" x2="31.416" y2="27.608" gradientUnits="userSpaceOnUse"><stop stop-color="#A7F3CE"/><stop offset="1" stop-color="#61DB99"/></linearGradient><linearGradient id="paint11_linear_33465_3051" x1="1.477" y1="9.902" x2="48.001" y2="9.902" gradientUnits="userSpaceOnUse"><stop stop-color="#FFB92D"/><stop offset="1" stop-color="#F59500"/></linearGradient><radialGradient id="paint12_radial_33465_3051" cx="0" cy="0" r="1" gradientUnits="userSpaceOnUse" gradientTransform="rotate(180 12.155 12.075) scale(23.846)"><stop stop-color="#BE3F45"/><stop offset=".317" stop-color="#C14046"/><stop offset=".538" stop-color="#CA4148"/><stop offset=".729" stop-color="#D9444B"/><stop offset=".902" stop-color="#EF4950"/><stop offset="1" stop-color="#FF4C54"/></radialGradient><clipPath id="clip0_33465_3051"><path fill="#fff" d="M0 0h48v48H0z"/></clipPath></defs></svg>