<svg width="48" height="48" fill="none" xmlns="http://www.w3.org/2000/svg"><path d="M44.25 6.75H3.75A3.754 3.754 0 000 10.5v27a3.754 3.754 0 003.75 3.75h40.5A3.754 3.754 0 0048 37.5v-27a3.754 3.754 0 00-3.75-3.75z" fill="#5D647F"/><path d="M16.5 21.75h-9a1.5 1.5 0 01-1.5-1.5v-6a1.5 1.5 0 011.5-1.5h9a1.5 1.5 0 011.5 1.5v6a1.5 1.5 0 01-1.5 1.5z" fill="#FFD100"/><path d="M11.25 31.5H7.5A1.5 1.5 0 016 30v-.75a1.5 1.5 0 011.5-1.5h3.75a1.5 1.5 0 011.5 1.5V30a1.5 1.5 0 01-1.5 1.5zm9.75 0h-3.75a1.5 1.5 0 01-1.5-1.5v-.75a1.5 1.5 0 011.5-1.5H21a1.5 1.5 0 011.5 1.5V30a1.5 1.5 0 01-1.5 1.5zm9.75 0H27a1.5 1.5 0 01-1.5-1.5v-.75a1.5 1.5 0 011.5-1.5h3.75a1.5 1.5 0 011.5 1.5V30a1.5 1.5 0 01-1.5 1.5zm9.75 0h-3.75a1.5 1.5 0 01-1.5-1.5v-.75a1.5 1.5 0 011.5-1.5h3.75a1.5 1.5 0 011.5 1.5V30a1.5 1.5 0 01-1.5 1.5z" fill="#B8BAC0"/><path d="M21.75 36h-15a.75.75 0 110-1.5h15a.75.75 0 110 1.5zm9.75 0h-6.75a.75.75 0 110-1.5h6.75a.75.75 0 110 1.5z" fill="#8A8895"/><path d="M34.498 20.25a4.5 4.5 0 110-6" fill="#FF4F19"/><path d="M18 18h-7.5v-1.5H18V15h-7.5v-2.25H9v9h1.5V19.5H18V18z" fill="#FF9500"/><path d="M37.5 21.75a4.5 4.5 0 100-9 4.5 4.5 0 000 9z" fill="#FFD100"/></svg>