<svg width="20" height="20" fill="none" xmlns="http://www.w3.org/2000/svg"><g clip-path="url(#clip0_33465_2967)"><path d="M10 20c5.523 0 10-4.477 10-10S15.523 0 10 0 0 4.477 0 10s4.477 10 10 10z" fill="#338AF3"/><path d="M15.652 10.109H4.348c0 .78.68 1.413 1.46 1.413H5.76c0 .78.632 1.413 1.413 1.413 0 .78.632 1.413 1.413 1.413h2.826c.78 0 1.413-.633 1.413-1.413.78 0 1.413-.633 1.413-1.413h-.047c.78 0 1.46-.633 1.46-1.413z" fill="#FFDA44"/><path d="M13.912 8.26a3.913 3.913 0 11-7.826 0" fill="#338AF3"/><path d="M12.99 8.26l-1.222.575.65 1.183-1.326-.254-.168 1.34-.923-.985-.924.985-.168-1.34-1.326.254.65-1.183-1.221-.574 1.221-.575-.65-1.182 1.326.253.168-1.34.924.986.923-.985.168 1.34 1.327-.254-.65 1.182 1.22.575z" fill="#FFDA44"/></g><defs><clipPath id="clip0_33465_2967"><path fill="#fff" d="M0 0h20v20H0z"/></clipPath></defs></svg>