<svg width="24" height="24" fill="none" xmlns="http://www.w3.org/2000/svg"><g clip-path="url(#clip0_33447_861)"><path d="M12 24c6.627 0 12-5.373 12-12S18.627 0 12 0 0 5.373 0 12s5.373 12 12 12z" fill="url(#paint0_linear_33447_861)"/><path d="M12 24c6.627 0 12-5.373 12-12S18.627 0 12 0 0 5.373 0 12s5.373 12 12 12z" fill="url(#paint1_radial_33447_861)"/><path d="M19.47 4.512a11.296 11.296 0 00-3.469-2.383c-1.045 1.064-2.105 2.14-3.18 3.227a883.406 883.406 0 005.804 5.812c1.083-1.074 2.158-2.135 3.224-3.184a11.31 11.31 0 00-2.38-3.469l.001-.003z" fill="url(#paint2_linear_33447_861)"/><path d="M4.51 4.512A11.311 11.311 0 002.129 7.98a1397.98 1397.98 0 013.224 3.185 859.275 859.275 0 005.805-5.813c-1.074-1.085-2.134-2.16-3.181-3.227A11.297 11.297 0 004.51 4.512z" fill="url(#paint3_linear_33447_861)"/><path d="M4.508 19.488a11.288 11.288 0 003.469 2.383c1.045-1.064 2.105-2.14 3.18-3.227a913.788 913.788 0 00-5.804-5.812 1117.738 1117.738 0 01-3.224 3.184 11.303 11.303 0 002.379 3.472z" fill="url(#paint4_linear_33447_861)"/><path d="M19.468 19.488a11.31 11.31 0 002.38-3.468 1282.289 1282.289 0 01-3.223-3.185 862.066 862.066 0 00-5.805 5.813c1.074 1.085 2.134 2.16 3.181 3.227a11.296 11.296 0 003.467-2.387z" fill="url(#paint5_linear_33447_861)"/><path d="M16.003 2.129a9.914 9.914 0 00-8.026 0 332.73 332.73 0 001.836 4.583 421.4 421.4 0 014.354 0 397.96 397.96 0 001.836-4.583z" fill="url(#paint6_linear_33447_861)"/><path d="M2.13 7.982a9.942 9.942 0 000 8.036 349.97 349.97 0 004.578-1.838 422.322 422.322 0 010-4.36 422.894 422.894 0 00-4.579-1.838z" fill="url(#paint7_linear_33447_861)"/><path d="M7.977 21.871a9.914 9.914 0 008.026 0 330.94 330.94 0 00-1.836-4.583 421.4 421.4 0 01-4.354 0 408.242 408.242 0 00-1.836 4.583z" fill="url(#paint8_linear_33447_861)"/><path d="M21.848 16.018a9.946 9.946 0 000-8.036c-1.52.597-3.046 1.21-4.578 1.838.007 1.453.007 2.906 0 4.36 1.531.625 3.057 1.238 4.578 1.838z" fill="url(#paint9_linear_33447_861)"/><path d="M12.002 20.752a8.752 8.752 0 100-17.503 8.752 8.752 0 000 17.503z" fill="url(#paint10_linear_33447_861)"/><path d="M12.002 4.514C7.923 4.522 4.524 7.922 4.516 12c.008 4.078 3.407 7.478 7.486 7.486 4.078-.008 7.478-3.408 7.486-7.486-.008-4.078-3.408-7.478-7.486-7.486z" fill="url(#paint11_linear_33447_861)"/><path d="M11.998 5.896C8.652 5.9 5.898 8.654 5.895 12c-.004 3.346 2.757 6.1 6.103 6.104 3.346.003 6.1-2.758 6.104-6.104.003-3.346-2.758-6.1-6.104-6.104z" fill="url(#paint12_linear_33447_861)"/><path d="M13.002 16.09c-3.358 0-6.107-2.742-6.099-6.093a6.074 6.074 0 01.239-1.668A6.04 6.04 0 005.895 12c.003 3.346 2.757 6.1 6.103 6.104 2.772 0 5.132-1.895 5.87-4.439a6.135 6.135 0 01-4.866 2.426z" fill="url(#paint13_linear_33447_861)"/><path d="M6.691 13.792l.792-3.594H9.38a1.046 1.046 0 011.056 1.061c0 .523-.345 1.401-1.59 1.401h-.819l-.248 1.132H6.691zm2.21-2.08c.198 0 .409-.119.409-.328 0-.162-.114-.238-.297-.238h-.651l-.125.566H8.9zm1.263 1.443l.646-.775c.248.323.755.55 1.24.55.204 0 .285-.094.285-.157 0-.301-1.719-.29-1.719-1.342 0-.624.516-1.287 1.541-1.287.588 0 1.175.205 1.568.598l-.652.754c-.296-.296-.754-.436-1.094-.436-.14 0-.22.064-.22.146 0 .285 1.724.3 1.724 1.341 0 .754-.593 1.31-1.52 1.31-.765 0-1.444-.276-1.799-.701zm3.399.637l.792-3.594h1.896a1.045 1.045 0 011.056 1.061c0 .523-.345 1.401-1.59 1.401H14.9l-.248 1.132h-1.088zm2.209-2.08c.199 0 .409-.119.409-.328 0-.162-.113-.238-.296-.238h-.65l-.124.566h.66z" fill="#000"/></g><defs><linearGradient id="paint0_linear_33447_861" x1="3.515" y1="20.485" x2="20.485" y2="3.515" gradientUnits="userSpaceOnUse"><stop stop-color="#689171"/><stop offset="1" stop-color="#C9DDCF"/></linearGradient><linearGradient id="paint2_linear_33447_861" x1="12.201" y1="11.794" x2="20.977" y2="3.018" gradientUnits="userSpaceOnUse"><stop stop-color="#B0CDB7"/><stop offset=".82" stop-color="#C9DDCF"/><stop offset="1" stop-color="#E5EFE7"/></linearGradient><linearGradient id="paint3_linear_33447_861" x1="1.238" y1="-72.048" x2="12" y2="-61.286" gradientUnits="userSpaceOnUse"><stop stop-color="#B0CDB7"/><stop offset=".82" stop-color="#C9DDCF"/><stop offset="1" stop-color="#E5EFE7"/></linearGradient><linearGradient id="paint4_linear_33447_861" x1="4.354" y1="-80.144" x2="8.453" y2="-76.045" gradientUnits="userSpaceOnUse"><stop stop-color="#B0CDB7"/><stop offset=".82" stop-color="#C9DDCF"/><stop offset="1" stop-color="#E5EFE7"/></linearGradient><linearGradient id="paint5_linear_33447_861" x1="11.735" y1="-83.978" x2="24.546" y2="-71.167" gradientUnits="userSpaceOnUse"><stop stop-color="#B0CDB7"/><stop offset=".82" stop-color="#C9DDCF"/><stop offset="1" stop-color="#E5EFE7"/></linearGradient><linearGradient id="paint6_linear_33447_861" x1="12.013" y1="4.803" x2="12.002" y2="3.031" gradientUnits="userSpaceOnUse"><stop offset=".28" stop-color="#689171"/><stop offset="1" stop-color="#95BCA0"/></linearGradient><linearGradient id="paint7_linear_33447_861" x1="8.405" y1="-72.497" x2="1.213" y2="-72.497" gradientUnits="userSpaceOnUse"><stop offset=".28" stop-color="#689171"/><stop offset="1" stop-color="#95BCA0"/></linearGradient><linearGradient id="paint8_linear_33447_861" x1="11.99" y1="-77.603" x2="11.99" y2="-83.279" gradientUnits="userSpaceOnUse"><stop offset=".28" stop-color="#689171"/><stop offset="1" stop-color="#95BCA0"/></linearGradient><linearGradient id="paint9_linear_33447_861" x1="18.911" y1="-72.235" x2="21.172" y2="-72.376" gradientUnits="userSpaceOnUse"><stop offset=".28" stop-color="#689171"/><stop offset="1" stop-color="#95BCA0"/></linearGradient><linearGradient id="paint10_linear_33447_861" x1="-5.109" y1="-89.608" x2="20.828" y2="-63.671" gradientUnits="userSpaceOnUse"><stop stop-color="#689171"/><stop offset="1" stop-color="#C9DDCF"/></linearGradient><linearGradient id="paint11_linear_33447_861" x1="4.822" y1="-79.677" x2="15.197" y2="-69.302" gradientUnits="userSpaceOnUse"><stop offset=".28" stop-color="#689171"/><stop offset="1" stop-color="#95BCA0"/></linearGradient><linearGradient id="paint12_linear_33447_861" x1="1.219" y1="22.779" x2="22.616" y2="1.382" gradientUnits="userSpaceOnUse"><stop stop-color="#B0CDB7"/><stop offset=".17" stop-color="#E5EFE7"/><stop offset="1" stop-color="#fff"/></linearGradient><linearGradient id="paint13_linear_33447_861" x1="6.293" y1="16.235" x2="19.56" y2="2.968" gradientUnits="userSpaceOnUse"><stop stop-color="#C9DDCF"/><stop offset=".17" stop-color="#C9DDCF"/><stop offset="1" stop-color="#fff"/></linearGradient><radialGradient id="paint1_radial_33447_861" cx="0" cy="0" r="1" gradientUnits="userSpaceOnUse" gradientTransform="matrix(12 0 0 12 12 12)"><stop stop-color="#606060"/><stop offset=".13" stop-color="#689171" stop-opacity=".87"/><stop offset=".37" stop-color="#B0CDB7" stop-opacity=".63"/><stop offset=".67" stop-color="#C9DDCF" stop-opacity=".33"/><stop offset="1" stop-color="#E5EFE7" stop-opacity="0"/></radialGradient><clipPath id="clip0_33447_861"><path fill="#fff" d="M0 0h24v24H0z"/></clipPath></defs></svg>