<svg width="56" height="56" fill="none" xmlns="http://www.w3.org/2000/svg"><circle cx="28" cy="28" r="26.5" stroke="#E2E4E8" stroke-width="3"/><mask id="a" fill="#fff"><path d="M28 0a28 28 0 0126.63 19.348l-2.663.865A25.2 25.2 0 0028 2.8V0z"/></mask><path d="M28 0a28 28 0 0126.63 19.348l-2.663.865A25.2 25.2 0 0028 2.8V0z" stroke="#D00500" stroke-width="6" mask="url(#a)"/><path d="M20.535 33v-1.875h-4.08c2.595-1.89 4.005-3.375 4.005-5.085 0-1.995-1.695-3.195-3.825-3.195-1.395 0-2.88.51-3.855 1.635l1.215 1.41c.675-.705 1.545-1.155 2.685-1.155.825 0 1.62.435 1.62 1.305 0 1.23-1.2 2.265-5.295 5.295V33h7.53zm3.14.3l3.554-10.605h-1.38L22.294 33.3h1.38zm9.731-.3V22.995h-1.86l-3.15 3.165 1.215 1.275 1.665-1.695V33h2.13zm6.642.18c2.85 0 4.14-2.595 4.14-5.175 0-2.58-1.29-5.16-4.14-5.16-2.865 0-4.14 2.58-4.14 5.16s1.275 5.175 4.14 5.175zm0-1.89c-1.44 0-1.98-1.44-1.98-3.285 0-1.845.54-3.27 1.98-3.27 1.425 0 1.965 1.425 1.965 3.27s-.54 3.285-1.965 3.285z" fill="#28282C"/></svg>