<svg width="48" height="48" fill="none" xmlns="http://www.w3.org/2000/svg"><path d="M40.73 10.374C37.612 4.3 31.349 0 24 0v9.5c5.201 0 9.43 4.094 9.43 9.295 0 5.138-4.264 9.567-9.43 9.567V48c6.623-6.902 14.246-14.488 17.58-23.571 1.669-4.543 1.357-9.757-.85-14.055z" fill="#B3B3B3"/><path d="M6.42 24.429C9.755 33.512 17.378 41.099 24 48V28.362c-5.166 0-9.43-4.429-9.43-9.567C14.57 13.594 18.8 9.5 24 9.5V0C16.652 0 10.388 4.3 7.27 10.374c-2.207 4.298-2.518 9.512-.85 14.055z" fill="#979797"/><path d="M24 33.635c8.284 0 15-6.716 15-15 0-8.284-6.716-15-15-15-8.284 0-15 6.716-15 15 0 8.284 6.716 15 15 15z" fill="#F0F0F0"/><path d="M38.067 23.852c.603-1.625.933-3.382.933-5.217 0-1.835-.33-3.592-.933-5.217H9.933A14.968 14.968 0 009 18.635c0 1.835.33 3.592.933 5.217L24 25.157l14.067-1.305z" fill="#0052B4"/><path d="M24 33.635c6.45 0 11.948-4.07 14.068-9.783H9.934c2.119 5.712 7.617 9.783 14.067 9.783z" fill="#D80027"/><path d="M23.992 2.035c-6.914 0-13.261 4.458-15.62 10.95-2.376 6.542-.295 14.048 5.06 18.476 5.366 4.438 13.16 5.027 19.123 1.42 5.965-3.608 9.115-10.751 7.713-17.585-1.374-6.693-6.94-12.003-13.694-13.06a16.71 16.71 0 00-2.582-.201zm13.374 22.639c-2.835 6.282-9.912 9.825-16.638 8.287-5.177-1.183-9.411-5.228-10.855-10.33-1.476-5.219.125-10.951 4.07-14.666 4.27-4.018 10.705-5.116 16.062-2.7 6.396 2.885 9.935 10.139 8.217 16.955a14.96 14.96 0 01-.856 2.454c-.195.433.145-.323 0 0z" fill="#C7C7C7"/></svg>