<svg width="42" height="42" fill="none" xmlns="http://www.w3.org/2000/svg"><rect width="42" height="42" rx="4" fill="#5AA5D8"/><path d="M32.009 23.515c.166-.777.249-1.57.247-2.364a11.055 11.055 0 00-11.13-10.993c-.636-.002-1.27.053-1.896.165a6.458 6.458 0 00-9.894 5.387c0 1.131.304 2.241.88 3.215-.144.725-.217 1.46-.221 2.199a10.895 10.895 0 0011.13 10.8 9.99 9.99 0 002.033-.193 6.51 6.51 0 003.051.936 6.338 6.338 0 005.8-9.152zm-5.828 2.144a4.237 4.237 0 01-1.895 1.428 7.397 7.397 0 01-2.94.522 7.253 7.253 0 01-3.381-.714 4.357 4.357 0 01-1.54-1.374 3.004 3.004 0 01-.576-1.649 1.026 1.026 0 01.357-.797c.247-.225.573-.343.906-.33a1.1 1.1 0 01.743.248c.23.214.408.477.522.769.141.366.336.709.578 1.017.221.29.514.518.85.66.462.194.958.287 1.458.274a3.408 3.408 0 002.006-.521 1.553 1.553 0 00.77-1.32 1.325 1.325 0 00-.412-1.016 2.55 2.55 0 00-1.073-.606c-.439-.137-1.044-.275-1.786-.439a16.324 16.324 0 01-2.5-.742 3.906 3.906 0 01-1.595-1.182 2.886 2.886 0 01-.577-1.84 3.068 3.068 0 01.632-1.87 3.98 3.98 0 011.787-1.264 7.762 7.762 0 012.776-.44 7.471 7.471 0 012.198.302 4.74 4.74 0 011.538.77 3.4 3.4 0 01.908 1.016c.176.31.27.66.274 1.017a1.123 1.123 0 01-.357.825 1.158 1.158 0 01-.88.357 1.136 1.136 0 01-.74-.22 2.78 2.78 0 01-.55-.714 3.427 3.427 0 00-.908-1.127 2.772 2.772 0 00-1.703-.412 3.153 3.153 0 00-1.76.44 1.255 1.255 0 00-.66 1.045c.002.237.08.468.221.659.17.204.387.364.632.466.25.137.519.239.797.303.275.083.715.192 1.346.33.77.165 1.485.357 2.117.55a6.36 6.36 0 011.621.741c.428.282.785.658 1.045 1.1.264.498.397 1.057.384 1.622a3.372 3.372 0 01-.633 2.116z" fill="#fff"/></svg>