<svg width="20" height="20" fill="none" xmlns="http://www.w3.org/2000/svg"><path d="M9.999 10.833a.833.833 0 00-.834.834v2.5a.833.833 0 001.667 0v-2.5a.834.834 0 00-.833-.834zM14.165 7.5V5.833a4.167 4.167 0 00-8.333 0V7.5a2.5 2.5 0 00-2.5 2.5v5.833a2.5 2.5 0 002.5 2.5h8.333a2.5 2.5 0 002.5-2.5V10a2.5 2.5 0 00-2.5-2.5zM7.5 5.833a2.5 2.5 0 015 0V7.5h-5V5.833zm7.5 10a.833.833 0 01-.834.834H5.832a.833.833 0 01-.833-.834V10a.833.833 0 01.833-.833h8.333A.833.833 0 0115 10v5.833z" fill="#28282C"/></svg>