<svg width="42" height="42" fill="none" xmlns="http://www.w3.org/2000/svg"><rect width="42" height="42" rx="4" fill="#5AA5D8"/><path d="M20.995 9.333a11.667 11.667 0 100 23.335 11.667 11.667 0 000-23.335zm3.71 17.678a.823.823 0 01-1.17.41l-3.167-2.46-2.033 1.875a.35.35 0 01-.332.045l.39-3.486.012.01.008-.07s5.7-5.188 5.931-5.41c.235-.22.158-.268.158-.268.013-.268-.422 0-.422 0l-7.551 4.858-3.145-1.07s-.483-.174-.528-.555c-.048-.378.544-.583.544-.583l12.503-4.967s1.028-.458 1.028.3l-2.227 11.371z" fill="#fff"/></svg>