<svg width="26" height="20" fill="#5AA5D8" xmlns="http://www.w3.org/2000/svg"><path d="M23.894.34l-.414.15L1.03 8.58a.752.752 0 00.066 1.454l5.811 1.591 1.084 3.182 1.084 3.182a1.032 1.032 0 001.664.37l3.002-2.836 5.896 3.997c.72.491 1.748.128 1.932-.681l3.904-17.253c.191-.854-.709-1.556-1.58-1.245zm-2.866 3.83l-10.143 8.291-.478.391a.516.516 0 00-.19.337l-.107.881-.294 2.478a.114.114 0 01-.227.018l-.825-2.475-.852-2.534a.513.513 0 01.245-.607L18.712 4.9l1.986-1.136c.289-.169.584.197.33.406z"/></svg>