<svg width="20" height="20" fill="none" xmlns="http://www.w3.org/2000/svg"><path d="M11.53 2.635l-.353.353.354-.353a2.167 2.167 0 00-3.699 1.532v5a2.167 2.167 0 104.333 0v-5c0-.575-.228-1.126-.634-1.532zm4.066 6.296l-.353-.354.353.354a.333.333 0 01.57.236h.5-.5a6.167 6.167 0 01-5.396 6.112l-.438.055V18h2.167a.333.333 0 110 .667h-5a.333.333 0 110-.667h2.166v-2.665l-.437-.056a6.167 6.167 0 01-5.396-6.113h-.5.5a.333.333 0 01.667 0 5.5 5.5 0 0011 0c0-.088.035-.173.097-.235zm-3.594 2.24a2.833 2.833 0 01-4.837-2.004v-5a2.833 2.833 0 015.667 0v5c0 .751-.299 1.472-.83 2.003z" fill="#28282C" stroke="#28282C"/></svg>