<svg width="20" height="20" fill="none" xmlns="http://www.w3.org/2000/svg"><path fill-rule="evenodd" clip-rule="evenodd" d="M14.5 3.889h.75c.597 0 1.168.242 1.59.672.422.43.66 1.012.66 1.62v10.694c0 .608-.238 1.19-.66 1.62a2.23 2.23 0 01-1.59.672h-7.5a2.232 2.232 0 01-1.59-.672 2.316 2.316 0 01-.66-1.62v-.764h-.75a2.232 2.232 0 01-1.59-.672 2.316 2.316 0 01-.66-1.62V3.125c0-.608.238-1.19.66-1.62A2.23 2.23 0 014.75.833h7.5a2.235 2.235 0 011.59.672c.422.43.66 1.012.66 1.62v.764zM4 3.125v10.694c0 .203.08.397.22.54.14.144.331.224.53.224h7.5c.199 0 .39-.08.53-.224a.772.772 0 00.22-.54V3.125a.772.772 0 00-.22-.54.744.744 0 00-.53-.224h-7.5c-.199 0-.39.08-.53.224a.772.772 0 00-.22.54zm11.78 14.29a.772.772 0 00.22-.54V6.181a.772.772 0 00-.22-.54.744.744 0 00-.53-.224h-.75v8.402c0 .608-.238 1.19-.66 1.62a2.23 2.23 0 01-1.59.672H7v.764c0 .203.08.397.22.54.14.143.331.224.53.224h7.5c.199 0 .39-.08.53-.224zM9.17 4.31c.256.52.798.984 1.323 1.434.824.705 1.757 1.504 1.757 2.727 0 .994-.399 1.792-1.123 2.248-.41.25-.879.38-1.356.373a3.04 3.04 0 01-.521-.046v2.009h-1.5v-2.009c-.686.116-1.346.007-1.877-.327-.724-.456-1.123-1.254-1.123-2.248 0-1.223.933-2.022 1.757-2.727l.006-.006c.523-.448 1.062-.91 1.316-1.428a.759.759 0 01.277-.308.74.74 0 011.065.308zm-.335 5.006c.569.29 1.145.33 1.503.104.34-.215.412-.634.412-.949 0-.511-.566-.996-1.222-1.558a11.222 11.222 0 01-1.028-.96 11.23 11.23 0 01-1.028.96C6.816 7.475 6.25 7.96 6.25 8.471c0 .315.071.734.412.949.359.225.934.185 1.503-.104a.739.739 0 01.67 0z" fill="#28282C"/></svg>