<svg width="18" height="18" fill="none" xmlns="http://www.w3.org/2000/svg"><path d="M14.04 11.06l-8.908 5.182-.005.003h0a1.94 1.94 0 01-1.913 0l-.004-.002a1.92 1.92 0 01-.96-1.663l11.79-3.52zm0 0v.036l.75-.433a1.92 1.92 0 000-3.326s0 0 0 0l-9.66-5.58h0l-.009-.005a2.04 2.04 0 00-.94-.252h-.019a2.01 2.01 0 00-.945.253h0l-.007.004a1.92 1.92 0 00-.96 1.663s0 0 0 0v11.16l11.79-3.52zM5.63.892h.001l9.41 5.397v.078l.249.145a2.92 2.92 0 010 5.054s0 0 0 0l-9.659 5.54h0a2.92 2.92 0 01-4.38-2.527V3.46h0v-.006A2.92 2.92 0 015.63.893z" fill="#28282C" stroke="#A9A9AB"/></svg>