<svg width="20" height="20" fill="none" xmlns="http://www.w3.org/2000/svg"><path d="M10.001 9.167a.833.833 0 00-.833.833v3.333a.833.833 0 001.667 0V10A.834.834 0 0010 9.167zm.317-3.267a.833.833 0 00-.633 0 .833.833 0 00-.275.175.958.958 0 00-.175.275.833.833 0 00.175.908.958.958 0 00.275.175.833.833 0 001.15-.766.874.874 0 00-.242-.592.834.834 0 00-.275-.175zm-.317-4.233a8.333 8.333 0 100 16.666 8.333 8.333 0 000-16.666zm0 15a6.666 6.666 0 110-13.333 6.666 6.666 0 010 13.333z" fill="#EBC029"/></svg>