<svg xmlns="http://www.w3.org/2000/svg" viewBox="0 0 14.97 10"><path d="M11.6 9a2.73 2.73 0 00.89-.14 1.94 1.94 0 001.17-1.07 2 2 0 00.18-.79 1.77 1.77 0 00-.59-1.46A2.49 2.49 0 0011.63 5h-1v-.37l2-3.12.64-.61-.92.1h-2.8V0h5v.41l-2.2 3.35-.49.41.48-.1a3 3 0 011 .2 2.39 2.39 0 01.83.55 2.54 2.54 0 01.55.86A3 3 0 0115 6.84a3.22 3.22 0 01-.27 1.35 2.87 2.87 0 01-.73 1 3.18 3.18 0 01-1.08.61 4.07 4.07 0 01-1.31.21 6.06 6.06 0 01-1.14-.1 4.82 4.82 0 01-.89-.25l.3-1a3.89 3.89 0 00.77.26 4.34 4.34 0 00.95.08zM5.92 5.32H1.17v4.51H0V0h1.17v4.28h4.75V0H7.1v9.83H5.92z" fill="#231f20" fill-rule="evenodd"/></svg>