<svg xmlns="http://www.w3.org/2000/svg" viewBox="0 0 10 14"><path d="M2.31 1.87H4.6a3.1 3.1 0 011.92.51 1.83 1.83 0 01.66 1.54 1.78 1.78 0 01-.62 1.46 2.58 2.58 0 01-1.7.51H2.31zm3.16 5.76a2.14 2.14 0 011.69.61A2.53 2.53 0 017.7 10a2 2 0 01-.65 1.6 2.76 2.76 0 01-1.84.55h-2.9V7.63zM5.21 14a5.46 5.46 0 003.51-1A3.62 3.62 0 0010 10a3.58 3.58 0 00-.66-2.14 3.08 3.08 0 00-1.9-1.2 3.2 3.2 0 001.5-1.12 2.84 2.84 0 00.54-1.7A3.33 3.33 0 008.19 1 5.92 5.92 0 004.6 0H0v14z" fill="#231f20" fill-rule="evenodd"/></svg>