<svg xmlns="http://www.w3.org/2000/svg" viewBox="0 0 16 16"><path d="M14 13.33h-1.33v1.33H14zm0-12h-1.33v1.34H14zm-2.67 12H10v1.33h1.33zm0-12H10v1.34h1.33zm-2.67 0H7.33v1.34h1.34zM6 1.33H4.67v1.34H6zm-2.67 12H2v1.33h1.33zm0-12H2v1.34h1.33zm1.34 13.34H6v-1.34H4.67zm6.47-6.36a.37.37 0 000-.65L5.92 4.72a.39.39 0 00-.39 0 .36.36 0 00-.2.33v5.89a.37.37 0 00.2.33.39.39 0 00.39 0zm-3.81 6.36h1.34v-1.34H7.33zM15 16H1a1 1 0 01-1-1V1a1 1 0 011-1h14a1 1 0 011 1v14a1 1 0 01-1 1z" fill="#231f20" fill-rule="evenodd"/></svg>