<svg xmlns="http://www.w3.org/2000/svg" viewBox="0 0 17 14"><path d="M.77 9.33a.78.78 0 00-.55.23.78.78 0 000 1.1.77.77 0 001.09 0 .78.78 0 000-1.1.78.78 0 00-.54-.23zm0 3.11a.78.78 0 00-.55.23.78.78 0 000 1.1.77.77 0 001.09 0 .78.78 0 000-1.1.78.78 0 00-.54-.23zm0-6.22a.78.78 0 00-.55.23.78.78 0 000 1.1.77.77 0 001.09 0 .78.78 0 000-1.1.78.78 0 00-.54-.23zm0-3.11a.78.78 0 00-.55.23.78.78 0 000 1.1.77.77 0 001.09 0 .78.78 0 000-1.1.78.78 0 00-.54-.23zM.77 0a.78.78 0 00-.54.23.78.78 0 000 1.1.77.77 0 001.09 0 .78.78 0 000-1.1A.78.78 0 00.77 0zm15.46 9.33H3.86a.78.78 0 000 1.56h12.37a.78.78 0 000-1.56zm0 3.11H3.86a.78.78 0 000 1.56h12.37a.78.78 0 000-1.56zm0-6.22H3.86a.78.78 0 000 1.56h12.37a.78.78 0 000-1.56zm0-3.11H3.86a.78.78 0 000 1.56h12.37a.78.78 0 000-1.56zM3.86 1.56h12.37a.78.78 0 000-1.56H3.86a.78.78 0 000 1.56z" fill="#231f20" fill-rule="evenodd"/></svg>