<svg xmlns="http://www.w3.org/2000/svg" viewBox="0 0 16 16"><path d="M3.94 9.19L2 11.11A1.35 1.35 0 002 13l1 1a1.35 1.35 0 001.91 0l1.91-1.91a1.35 1.35 0 00.35-1.3l1.07-1.12a2 2 0 010 2.87l-2.87 2.87a2 2 0 01-2.87 0L.59 13.49a2 2 0 010-2.87l2.87-2.86a2 2 0 012.87 0L5.24 8.85a1.35 1.35 0 00-1.3.34zm1.43 1.43a.68.68 0 010-1l4.3-4.3a.68.68 0 011 1l-4.3 4.3a.68.68 0 01-1 .01zm10-5.26l-2.83 2.88a2 2 0 01-2.87 0l1.09-1.09a1.35 1.35 0 001.3-.35L14 4.89A1.35 1.35 0 0014 3l-1-1a1.35 1.35 0 00-1.91 0l-1.9 1.94a1.35 1.35 0 00-.35 1.3L7.76 6.33a2 2 0 010-2.87L10.63.59a2 2 0 012.87 0l1.91 1.91a2 2 0 010 2.87z" fill="#231f20" fill-rule="evenodd"/></svg>