<svg xmlns="http://www.w3.org/2000/svg" viewBox="0 0 17 14"><path d="M2.28 11.36a1 1 0 00-1.07-1 1 1 0 00-1.13.94.38.38 0 00.42.42.38.38 0 00.41-.39c0-.09 0-.19.29-.19s.26 0 .26.29-.06.28-.28.28a.38.38 0 100 .76c.3 0 .36.12.36.31v.08c0 .32-.13.38-.36.38S.82 13.06.82 13a.38.38 0 00-.42-.38.37.37 0 00-.4.38 1.06 1.06 0 001.18 1 1.08 1.08 0 001.19-1.15v-.08a1 1 0 00-.29-.77 1.17 1.17 0 00.2-.64zM.41 8.82H2A.39.39 0 002 8H.84c0-.12.28-.3.5-.46.44-.3 1-.67 1-1.32a1.09 1.09 0 00-1.16-1.04 1 1 0 00-1.1 1 .39.39 0 00.4.43.4.4 0 00.42-.4c0-.11 0-.25.27-.25a.3.3 0 01.33.31c0 .25-.33.48-.65.7S0 7.55 0 8v.41a.4.4 0 00.41.41zM1 1.33v1.94a.39.39 0 00.41.37.39.39 0 00.41-.37V.37A.38.38 0 001.39 0a.4.4 0 00-.33.17L.71.65a.46.46 0 00-.13.3.38.38 0 00.42.38zm15.24 8H5.47a.78.78 0 100 1.55H16.2a.78.78 0 100-1.55zm0 3.11H5.47a.78.78 0 100 1.55H16.2a.78.78 0 100-1.55zm0-6.21H5.47a.78.78 0 100 1.55H16.2a.78.78 0 100-1.55zm0-3.11H5.47a.78.78 0 100 1.55H16.2a.78.78 0 100-1.55zM5.47 1.56H16.2a.79.79 0 00.8-.77.79.79 0 00-.8-.79H5.47a.79.79 0 00-.8.78.79.79 0 00.8.78z" fill="#231f20" fill-rule="evenodd"/></svg>