<svg xmlns="http://www.w3.org/2000/svg" viewBox="0 0 10.85 14"><path d="M10.57 5.69A2.25 2.25 0 007.79 4.5l-.67.25a7.18 7.18 0 00.57-1.41A2.67 2.67 0 006.6.29a1.92 1.92 0 00-1-.29 2.2 2.2 0 00-1.09.3 2.67 2.67 0 00-1.09 3 9.38 9.38 0 00.54 1.49c-.32-.14-.63-.26-.89-.35A2.25 2.25 0 00.28 5.69 2.79 2.79 0 000 6.88 2.43 2.43 0 00.26 8 2.25 2.25 0 003 9.19a5.72 5.72 0 001.54-.81L4 14h2.84l-.58-5.62a5.71 5.71 0 001.54.81A2.25 2.25 0 0010.58 8a2.43 2.43 0 00.26-1.11 2.79 2.79 0 00-.27-1.2z" fill="#424447" fill-rule="evenodd"/></svg>