<svg xmlns="http://www.w3.org/2000/svg" viewBox="0 0 17.65 12"><path d="M17.41 2.88a5.5 5.5 0 01-.33 1.83 11.85 11.85 0 01-.86 1.88A18.68 18.68 0 0115 8.44q-.66.9-1.31 1.71l-.83.72v.07l1.14-.19h3.67V12h-6.73v-.49l.89-1q.52-.57 1.09-1.27T14 7.79a17.79 17.79 0 001-1.59 10 10 0 00.72-1.6A4.66 4.66 0 0016 3.1a2 2 0 00-.47-1.37 1.79 1.79 0 00-1.43-.55 3.12 3.12 0 00-1.25.26 4.86 4.86 0 00-1 .6l-.56-1a4.36 4.36 0 011.4-.79 5.16 5.16 0 011.7-.25 3.6 3.6 0 011.28.21 2.63 2.63 0 01.94.6 2.58 2.58 0 01.59.92 3.22 3.22 0 01.21 1.15zM7.06 6.59H1.4V12H0V.2h1.4v5.14h5.66V.2h1.4V12h-1.4z" fill="#231f20" fill-rule="evenodd"/></svg>