<svg xmlns="http://www.w3.org/2000/svg" width="37" height="23"><g transform="translate(.5 .5)"><rect width="36" height="22" rx="2" fill="none" stroke="#e9ebee"/><path d="M31.818 11.517A3.571 3.571 0 0028.3 8.004a3.526 3.526 0 00.035-.491 3.562 3.562 0 00-3.6-3.514 3.562 3.562 0 00-3.6 3.514 3.474 3.474 0 00.069.686A3.576 3.576 0 0018 11.691a3.563 3.563 0 003.6 3.514 3.658 3.658 0 002.8-1.295 4.5 4.5 0 01-3.514 3.5l-.1.026.05.38h8.213l.044-.383-.1-.023a5.041 5.041 0 01-3.421-3.51 3.689 3.689 0 002.648 1.131 3.562 3.562 0 003.598-3.514zM13.735 16v-1.875h-4.08c2.595-1.89 4.005-3.375 4.005-5.085 0-1.995-1.7-3.195-3.825-3.195A5.1 5.1 0 005.98 7.48l1.215 1.41A3.577 3.577 0 019.88 7.735c.825 0 1.62.435 1.62 1.305 0 1.23-1.2 2.265-5.3 5.3V16z" fill="#00662b"/></g></svg>