<svg xmlns="http://www.w3.org/2000/svg" width="37" height="23"><defs><style>.b{fill:#005f93}</style></defs><g transform="translate(.5 .5)"><rect width="36" height="22" rx="2" fill="none" stroke="#e9ebee"/><path class="b" d="M23.859 4.506l-4.473 5.67a1.33 1.33 0 000 1.648l4.473 5.67a1.328 1.328 0 002.086 0l4.473-5.67a1.33 1.33 0 000-1.648l-4.473-5.67a1.328 1.328 0 00-2.086 0z"/><path class="b" d="M25.945 4.506a1.318 1.318 0 00-.707-.463.845.845 0 00.044.986l4.473 5.67a.483.483 0 010 .6l-4.473 5.67a.845.845 0 00-.044.986 1.318 1.318 0 00.707-.463l4.473-5.67a1.33 1.33 0 000-1.648zM13.735 16v-1.875h-4.08c2.595-1.89 4.005-3.375 4.005-5.085 0-1.995-1.7-3.195-3.825-3.195A5.1 5.1 0 005.98 7.48l1.215 1.41A3.577 3.577 0 019.88 7.735c.825 0 1.62.435 1.62 1.305 0 1.23-1.2 2.265-5.3 5.3V16z"/></g></svg>