<svg xmlns="http://www.w3.org/2000/svg" width="37" height="23"><defs><style>.b{fill:#d00500}</style></defs><g transform="translate(.5 .5)"><rect width="36" height="22" rx="2" fill="none" stroke="#e9ebee"/><path class="b" d="M30.88 6.361a3.989 3.989 0 00-5.9-.112 3.989 3.989 0 00-5.9.112 4.466 4.466 0 00.173 6l3.547 3.7a2.99 2.99 0 004.349 0l3.555-3.7a4.466 4.466 0 00.176-6z"/><path class="b" d="M30.879 6.362a4.145 4.145 0 00-.99-.813 4.506 4.506 0 01-.653 5.343l-3.555 3.7a2.986 2.986 0 01-3.965.34l1.085 1.129a2.99 2.99 0 004.349 0l3.555-3.7a4.466 4.466 0 00.174-5.999zM13.735 16v-1.875h-4.08c2.595-1.89 4.005-3.375 4.005-5.085 0-1.995-1.7-3.195-3.825-3.195A5.1 5.1 0 005.98 7.48l1.215 1.41A3.577 3.577 0 019.88 7.735c.825 0 1.62.435 1.62 1.305 0 1.23-1.2 2.265-5.3 5.3V16z"/></g></svg>