<svg xmlns="http://www.w3.org/2000/svg" width="37" height="23"><g transform="translate(.5 .5)"><rect width="36" height="22" rx="2" fill="none" stroke="#e9ebee"/><path d="M13.735 16v-1.875h-4.08c2.595-1.89 4.005-3.375 4.005-5.085 0-1.995-1.7-3.195-3.825-3.195A5.1 5.1 0 005.98 7.48l1.215 1.41A3.577 3.577 0 019.88 7.735c.825 0 1.62.435 1.62 1.305 0 1.23-1.2 2.265-5.3 5.3V16z" fill="#28282c"/><path d="M31.055 16l-3.63-5.145 3.405-4.86h-2.565L26 9.415l-2.3-3.42h-2.53l3.4 4.875L20.945 16h2.535L26 12.34 28.5 16z" fill="#d00500"/></g></svg>