<svg xmlns="http://www.w3.org/2000/svg" width="37" height="23"><g transform="translate(.5 .5)"><rect width="36" height="22" rx="2" fill="none" stroke="#e9ebee"/><path d="M31.818 11.517A3.571 3.571 0 0028.3 8.004a3.526 3.526 0 00.035-.491 3.562 3.562 0 00-3.6-3.514 3.562 3.562 0 00-3.6 3.514 3.474 3.474 0 00.069.686A3.576 3.576 0 0018 11.691a3.563 3.563 0 003.6 3.514 3.658 3.658 0 002.8-1.295 4.5 4.5 0 01-3.514 3.5l-.1.026.05.38h8.213l.044-.383-.1-.023a5.041 5.041 0 01-3.421-3.51 3.689 3.689 0 002.648 1.131 3.562 3.562 0 003.598-3.514zM9.842 16.18c2.4 0 3.945-1.215 3.945-2.94a2.51 2.51 0 00-2.34-2.4 2.454 2.454 0 002.19-2.28c0-1.665-1.44-2.715-3.78-2.715a4.924 4.924 0 00-3.825 1.59L7.1 8.77a3.6 3.6 0 012.532-1.035c1.05 0 1.86.39 1.86 1.185 0 .735-.735 1.065-1.845 1.065-.375 0-1.065 0-1.245-.015v1.92c.15-.015.825-.03 1.245-.03 1.395 0 2.01.36 2.01 1.155 0 .75-.675 1.275-1.89 1.275a3.984 3.984 0 01-2.76-1.14L5.9 14.575a5 5 0 003.942 1.605z" fill="#00662b"/></g></svg>