<svg xmlns="http://www.w3.org/2000/svg" width="37" height="23"><defs><style>.b{fill:#005f93}</style></defs><g transform="translate(.5 .5)"><rect width="36" height="22" rx="2" fill="none" stroke="#e9ebee"/><path class="b" d="M23.859 4.506l-4.473 5.67a1.33 1.33 0 000 1.648l4.473 5.67a1.328 1.328 0 002.086 0l4.473-5.67a1.33 1.33 0 000-1.648l-4.473-5.67a1.328 1.328 0 00-2.086 0z"/><path class="b" d="M25.945 4.506a1.318 1.318 0 00-.707-.463.845.845 0 00.044.986l4.473 5.67a.483.483 0 010 .6l-4.473 5.67a.845.845 0 00-.044.986 1.318 1.318 0 00.707-.463l4.473-5.67a1.33 1.33 0 000-1.648zM9.842 16.18c2.4 0 3.945-1.215 3.945-2.94a2.51 2.51 0 00-2.34-2.4 2.454 2.454 0 002.19-2.28c0-1.665-1.44-2.715-3.78-2.715a4.924 4.924 0 00-3.825 1.59L7.1 8.77a3.6 3.6 0 012.532-1.035c1.05 0 1.86.39 1.86 1.185 0 .735-.735 1.065-1.845 1.065-.375 0-1.065 0-1.245-.015v1.92c.15-.015.825-.03 1.245-.03 1.395 0 2.01.36 2.01 1.155 0 .75-.675 1.275-1.89 1.275a3.984 3.984 0 01-2.76-1.14L5.9 14.575a5 5 0 003.942 1.605z"/></g></svg>