<svg xmlns="http://www.w3.org/2000/svg" width="37" height="23"><defs><style>.b{fill:#28282c}</style></defs><g transform="translate(.5 .5)"><rect width="36" height="22" rx="2" fill="none" stroke="#e9ebee"/><path class="b" d="M19.063 14.412a3.982 3.982 0 005.846.11 3.982 3.982 0 005.846-.11 4.334 4.334 0 00-.175-5.871l-3.518-3.623a2.985 2.985 0 00-4.307 0l-3.52 3.623a4.334 4.334 0 00-.172 5.871z"/><path class="b" d="M30.583 8.541c-3.822-3.933-3.694-3.858-4.187-4.143a.845.845 0 00.06 1.109l3.521 3.623a3.5 3.5 0 01.151 4.715 3.135 3.135 0 01-4.613.088.845.845 0 00-1.212 0 3.129 3.129 0 01-4.058.4.938.938 0 00-1.181.076 3.979 3.979 0 005.206.647l-1.35 1.711a.76.76 0 00.6 1.231h2.782a.76.76 0 00.6-1.231l-1.35-1.709a3.979 3.979 0 005.206-.647 4.334 4.334 0 00-.175-5.87zM9.842 16.18c2.4 0 3.945-1.215 3.945-2.94a2.51 2.51 0 00-2.34-2.4 2.454 2.454 0 002.19-2.28c0-1.665-1.44-2.715-3.78-2.715a4.924 4.924 0 00-3.825 1.59L7.1 8.77a3.6 3.6 0 012.532-1.035c1.05 0 1.86.39 1.86 1.185 0 .735-.735 1.065-1.845 1.065-.375 0-1.065 0-1.245-.015v1.92c.15-.015.825-.03 1.245-.03 1.395 0 2.01.36 2.01 1.155 0 .75-.675 1.275-1.89 1.275a3.984 3.984 0 01-2.76-1.14L5.9 14.575a5 5 0 003.942 1.605z"/></g></svg>