<svg xmlns="http://www.w3.org/2000/svg" width="37" height="23"><g transform="translate(.5 .5)"><rect width="36" height="22" rx="2" fill="none" stroke="#e9ebee"/><path d="M31.818 11.517A3.571 3.571 0 0028.3 8.004a3.526 3.526 0 00.035-.491 3.562 3.562 0 00-3.6-3.514 3.562 3.562 0 00-3.6 3.514 3.474 3.474 0 00.069.686A3.576 3.576 0 0018 11.691a3.563 3.563 0 003.6 3.514 3.658 3.658 0 002.8-1.295 4.5 4.5 0 01-3.514 3.5l-.1.026.05.38h8.213l.044-.383-.1-.023a5.041 5.041 0 01-3.421-3.51 3.689 3.689 0 002.648 1.131 3.562 3.562 0 003.598-3.514zM12.813 16v-2.07H14.1v-1.875h-1.287v-6.06H9.872L5.9 12.25v1.68h4.783V16zm-2.13-3.945h-2.7l2.7-4.17z" fill="#00662b"/></g></svg>