<svg xmlns="http://www.w3.org/2000/svg" width="37" height="23"><g transform="translate(.5 .5)"><rect width="36" height="22" rx="2" fill="none" stroke="#e9ebee"/><path d="M31.818 11.517A3.571 3.571 0 0028.3 8.004a3.526 3.526 0 00.035-.491 3.562 3.562 0 00-3.6-3.514 3.562 3.562 0 00-3.6 3.514 3.474 3.474 0 00.069.686A3.576 3.576 0 0018 11.691a3.563 3.563 0 003.6 3.514 3.658 3.658 0 002.8-1.295 4.5 4.5 0 01-3.514 3.5l-.1.026.05.38h8.213l.044-.383-.1-.023a5.041 5.041 0 01-3.421-3.51 3.689 3.689 0 002.648 1.131 3.562 3.562 0 003.598-3.514zM10.03 16.18c2.415 0 4-1.335 4-3.465a3.127 3.127 0 00-3.21-3.24 3.173 3.173 0 00-2.2.84V7.87h4.74V5.995H6.49v5.745l1.485.39a2.871 2.871 0 012.1-.81c1.14 0 1.8.6 1.8 1.485 0 .81-.675 1.485-1.86 1.485a3.607 3.607 0 01-2.655-1.1l-1.185 1.49a4.991 4.991 0 003.855 1.5z" fill="#00662b"/></g></svg>