<svg xmlns="http://www.w3.org/2000/svg" width="37" height="23"><defs><style>.b{fill:#005f93}</style></defs><g transform="translate(.5 .5)"><rect width="36" height="22" rx="2" fill="none" stroke="#e9ebee"/><path class="b" d="M23.859 4.506l-4.473 5.67a1.33 1.33 0 000 1.648l4.473 5.67a1.328 1.328 0 002.086 0l4.473-5.67a1.33 1.33 0 000-1.648l-4.473-5.67a1.328 1.328 0 00-2.086 0z"/><path class="b" d="M25.945 4.506a1.318 1.318 0 00-.707-.463.845.845 0 00.044.986l4.473 5.67a.483.483 0 010 .6l-4.473 5.67a.845.845 0 00-.044.986 1.318 1.318 0 00.707-.463l4.473-5.67a1.33 1.33 0 000-1.648zM10.03 16.18c2.415 0 4-1.335 4-3.465a3.127 3.127 0 00-3.21-3.24 3.173 3.173 0 00-2.2.84V7.87h4.74V5.995H6.49v5.745l1.485.39a2.871 2.871 0 012.1-.81c1.14 0 1.8.6 1.8 1.485 0 .81-.675 1.485-1.86 1.485a3.607 3.607 0 01-2.655-1.1l-1.185 1.49a4.991 4.991 0 003.855 1.5z"/></g></svg>