<svg xmlns="http://www.w3.org/2000/svg" width="37" height="23"><defs><style>.b{fill:#d00500}</style></defs><g transform="translate(.5 .5)"><rect width="36" height="22" rx="2" fill="none" stroke="#e9ebee"/><path class="b" d="M30.88 6.361a3.989 3.989 0 00-5.9-.112 3.989 3.989 0 00-5.9.112 4.466 4.466 0 00.173 6l3.547 3.7a2.99 2.99 0 004.349 0l3.555-3.7a4.466 4.466 0 00.176-6z"/><path class="b" d="M30.879 6.362a4.145 4.145 0 00-.99-.813 4.506 4.506 0 01-.653 5.343l-3.555 3.7a2.986 2.986 0 01-3.965.34l1.085 1.129a2.99 2.99 0 004.349 0l3.555-3.7a4.466 4.466 0 00.174-5.999zM10.03 16.18c2.415 0 4-1.335 4-3.465a3.127 3.127 0 00-3.21-3.24 3.173 3.173 0 00-2.2.84V7.87h4.74V5.995H6.49v5.745l1.485.39a2.871 2.871 0 012.1-.81c1.14 0 1.8.6 1.8 1.485 0 .81-.675 1.485-1.86 1.485a3.607 3.607 0 01-2.655-1.1l-1.185 1.49a4.991 4.991 0 003.855 1.5z"/></g></svg>