<svg xmlns="http://www.w3.org/2000/svg" width="37" height="23"><g transform="translate(.5 .5)"><rect width="36" height="22" rx="2" fill="none" stroke="#e9ebee"/><path d="M10.03 16.18c2.415 0 4-1.335 4-3.465a3.127 3.127 0 00-3.21-3.24 3.173 3.173 0 00-2.2.84V7.87h4.74V5.995H6.49v5.745l1.485.39a2.871 2.871 0 012.1-.81c1.14 0 1.8.6 1.8 1.485 0 .81-.675 1.485-1.86 1.485a3.607 3.607 0 01-2.655-1.1l-1.185 1.49a4.991 4.991 0 003.855 1.5z" fill="#28282c"/><path d="M31.055 16l-3.63-5.145 3.405-4.86h-2.565L26 9.415l-2.3-3.42h-2.53l3.4 4.875L20.945 16h2.535L26 12.34 28.5 16z" fill="#d00500"/></g></svg>