<svg xmlns="http://www.w3.org/2000/svg" width="37" height="23"><defs><style>.b{fill:#28282c}</style></defs><g transform="translate(.5 .5)"><rect width="36" height="22" rx="2" fill="none" stroke="#e9ebee"/><path class="b" d="M19.063 14.412a3.982 3.982 0 005.846.11 3.982 3.982 0 005.846-.11 4.334 4.334 0 00-.175-5.871l-3.518-3.623a2.985 2.985 0 00-4.307 0l-3.52 3.623a4.334 4.334 0 00-.172 5.871z"/><path class="b" d="M30.583 8.541c-3.822-3.933-3.694-3.858-4.187-4.143a.845.845 0 00.06 1.109l3.521 3.623a3.5 3.5 0 01.151 4.715 3.135 3.135 0 01-4.613.088.845.845 0 00-1.212 0 3.129 3.129 0 01-4.058.4.938.938 0 00-1.181.076 3.979 3.979 0 005.206.647l-1.35 1.711a.76.76 0 00.6 1.231h2.782a.76.76 0 00.6-1.231l-1.35-1.709a3.979 3.979 0 005.206-.647 4.334 4.334 0 00-.175-5.87zM10.03 16.18c2.415 0 4-1.335 4-3.465a3.127 3.127 0 00-3.21-3.24 3.173 3.173 0 00-2.2.84V7.87h4.74V5.995H6.49v5.745l1.485.39a2.871 2.871 0 012.1-.81c1.14 0 1.8.6 1.8 1.485 0 .81-.675 1.485-1.86 1.485a3.607 3.607 0 01-2.655-1.1l-1.185 1.49a4.991 4.991 0 003.855 1.5z"/></g></svg>