<svg xmlns="http://www.w3.org/2000/svg" width="37" height="23"><g transform="translate(.5 .5)"><rect width="36" height="22" rx="2" fill="none" stroke="#e9ebee"/><path d="M31.818 11.517A3.571 3.571 0 0028.3 8.004a3.526 3.526 0 00.035-.491 3.562 3.562 0 00-3.6-3.514 3.562 3.562 0 00-3.6 3.514 3.474 3.474 0 00.069.686A3.576 3.576 0 0018 11.691a3.563 3.563 0 003.6 3.514 3.658 3.658 0 002.8-1.295 4.5 4.5 0 01-3.514 3.5l-.1.026.05.38h8.213l.044-.383-.1-.023a5.041 5.041 0 01-3.421-3.51 3.689 3.689 0 002.648 1.131 3.562 3.562 0 003.598-3.514zM10.27 16.18a3.513 3.513 0 003.83-3.435 3.178 3.178 0 00-3.41-3.255 3.254 3.254 0 00-2.565 1.29.99.99 0 01-.015-.21 2.616 2.616 0 012.505-2.835 2.654 2.654 0 011.995.78l.96-1.635a4.515 4.515 0 00-2.955-1.035C7.66 5.845 5.95 7.99 5.95 11.02c0 2.82 1.275 5.16 4.32 5.16zm-.12-1.89a2 2 0 01-2.025-2.025 2.5 2.5 0 011.95-.945c.96 0 1.86.45 1.86 1.5a1.614 1.614 0 01-1.785 1.47z" fill="#00662b"/></g></svg>