<svg xmlns="http://www.w3.org/2000/svg" width="37" height="23"><defs><style>.b{fill:#005f93}</style></defs><g transform="translate(.5 .5)"><rect width="36" height="22" rx="2" fill="none" stroke="#e9ebee"/><path class="b" d="M23.859 4.506l-4.473 5.67a1.33 1.33 0 000 1.648l4.473 5.67a1.328 1.328 0 002.086 0l4.473-5.67a1.33 1.33 0 000-1.648l-4.473-5.67a1.328 1.328 0 00-2.086 0z"/><path class="b" d="M25.945 4.506a1.318 1.318 0 00-.707-.463.845.845 0 00.044.986l4.473 5.67a.483.483 0 010 .6l-4.473 5.67a.845.845 0 00-.044.986 1.318 1.318 0 00.707-.463l4.473-5.67a1.33 1.33 0 000-1.648zM10.27 16.18a3.513 3.513 0 003.83-3.435 3.178 3.178 0 00-3.41-3.255 3.254 3.254 0 00-2.565 1.29.99.99 0 01-.015-.21 2.616 2.616 0 012.505-2.835 2.654 2.654 0 011.995.78l.96-1.635a4.515 4.515 0 00-2.955-1.035C7.66 5.845 5.95 7.99 5.95 11.02c0 2.82 1.275 5.16 4.32 5.16zm-.12-1.89a2 2 0 01-2.025-2.025 2.5 2.5 0 011.95-.945c.96 0 1.86.45 1.86 1.5a1.614 1.614 0 01-1.785 1.47z"/></g></svg>