<svg xmlns="http://www.w3.org/2000/svg" width="37" height="23"><defs><style>.b{fill:#d00500}</style></defs><g transform="translate(.5 .5)"><rect width="36" height="22" rx="2" fill="none" stroke="#e9ebee"/><path class="b" d="M30.88 6.361a3.989 3.989 0 00-5.9-.112 3.989 3.989 0 00-5.9.112 4.466 4.466 0 00.173 6l3.547 3.7a2.99 2.99 0 004.349 0l3.555-3.7a4.466 4.466 0 00.176-6z"/><path class="b" d="M30.879 6.362a4.145 4.145 0 00-.99-.813 4.506 4.506 0 01-.653 5.343l-3.555 3.7a2.986 2.986 0 01-3.965.34l1.085 1.129a2.99 2.99 0 004.349 0l3.555-3.7a4.466 4.466 0 00.174-5.999zM10.27 16.18a3.513 3.513 0 003.83-3.435 3.178 3.178 0 00-3.41-3.255 3.254 3.254 0 00-2.565 1.29.99.99 0 01-.015-.21 2.616 2.616 0 012.505-2.835 2.654 2.654 0 011.995.78l.96-1.635a4.515 4.515 0 00-2.955-1.035C7.66 5.845 5.95 7.99 5.95 11.02c0 2.82 1.275 5.16 4.32 5.16zm-.12-1.89a2 2 0 01-2.025-2.025 2.5 2.5 0 011.95-.945c.96 0 1.86.45 1.86 1.5a1.614 1.614 0 01-1.785 1.47z"/></g></svg>