<svg xmlns="http://www.w3.org/2000/svg" width="37" height="23"><g transform="translate(.5 .5)"><rect width="36" height="22" rx="2" fill="none" stroke="#e9ebee"/><path d="M10.27 16.18a3.513 3.513 0 003.83-3.435 3.178 3.178 0 00-3.41-3.255 3.254 3.254 0 00-2.565 1.29.99.99 0 01-.015-.21 2.616 2.616 0 012.505-2.835 2.654 2.654 0 011.995.78l.96-1.635a4.515 4.515 0 00-2.955-1.035C7.66 5.845 5.95 7.99 5.95 11.02c0 2.82 1.275 5.16 4.32 5.16zm-.12-1.89a2 2 0 01-2.025-2.025 2.5 2.5 0 011.95-.945c.96 0 1.86.45 1.86 1.5a1.614 1.614 0 01-1.785 1.47z" fill="#28282c"/><path d="M31.055 16l-3.63-5.145 3.405-4.86h-2.565L26 9.415l-2.3-3.42h-2.53l3.4 4.875L20.945 16h2.535L26 12.34 28.5 16z" fill="#d00500"/></g></svg>