<svg xmlns="http://www.w3.org/2000/svg" width="37" height="23"><defs><style>.b{fill:#28282c}</style></defs><g transform="translate(.5 .5)"><rect width="36" height="22" rx="2" fill="none" stroke="#e9ebee"/><path class="b" d="M19.063 14.412a3.982 3.982 0 005.846.11 3.982 3.982 0 005.846-.11 4.334 4.334 0 00-.175-5.871l-3.518-3.623a2.985 2.985 0 00-4.307 0l-3.52 3.623a4.334 4.334 0 00-.172 5.871z"/><path class="b" d="M30.583 8.541c-3.822-3.933-3.694-3.858-4.187-4.143a.845.845 0 00.06 1.109l3.521 3.623a3.5 3.5 0 01.151 4.715 3.135 3.135 0 01-4.613.088.845.845 0 00-1.212 0 3.129 3.129 0 01-4.058.4.938.938 0 00-1.181.076 3.979 3.979 0 005.206.647l-1.35 1.711a.76.76 0 00.6 1.231h2.782a.76.76 0 00.6-1.231l-1.35-1.709a3.979 3.979 0 005.206-.647 4.334 4.334 0 00-.175-5.87zM10.27 16.18a3.513 3.513 0 003.83-3.435 3.178 3.178 0 00-3.41-3.255 3.254 3.254 0 00-2.565 1.29.99.99 0 01-.015-.21 2.616 2.616 0 012.505-2.835 2.654 2.654 0 011.995.78l.96-1.635a4.515 4.515 0 00-2.955-1.035C7.66 5.845 5.95 7.99 5.95 11.02c0 2.82 1.275 5.16 4.32 5.16zm-.12-1.89a2 2 0 01-2.025-2.025 2.5 2.5 0 011.95-.945c.96 0 1.86.45 1.86 1.5a1.614 1.614 0 01-1.785 1.47z"/></g></svg>