<svg xmlns="http://www.w3.org/2000/svg" width="37" height="23"><g transform="translate(.5 .5)"><rect width="36" height="22" rx="2" fill="none" stroke="#e9ebee"/><path d="M31.818 11.517A3.571 3.571 0 0028.3 8.004a3.526 3.526 0 00.035-.491 3.562 3.562 0 00-3.6-3.514 3.562 3.562 0 00-3.6 3.514 3.474 3.474 0 00.069.686A3.576 3.576 0 0018 11.691a3.563 3.563 0 003.6 3.514 3.658 3.658 0 002.8-1.295 4.5 4.5 0 01-3.514 3.5l-.1.026.05.38h8.213l.044-.383-.1-.023a5.041 5.041 0 01-3.421-3.51 3.689 3.689 0 002.648 1.131 3.562 3.562 0 003.598-3.514zM10 16.18c2.1 0 4.02-.915 4.02-2.775a2.886 2.886 0 00-2.16-2.565 2.531 2.531 0 001.995-2.355c0-1.875-2.01-2.64-3.855-2.64s-3.855.765-3.855 2.64a2.516 2.516 0 001.98 2.355 2.871 2.871 0 00-2.145 2.565c0 1.875 1.92 2.775 4.02 2.775zM10 10c-.615-.09-1.7-.435-1.7-1.185 0-.72.705-1.14 1.7-1.14s1.68.42 1.68 1.14c0 .75-1.065 1.095-1.68 1.185zm0 4.35c-1.05 0-1.86-.48-1.86-1.215 0-.835 1.23-1.245 1.86-1.335.615.09 1.86.495 1.86 1.335 0 .735-.84 1.215-1.86 1.215z" fill="#00662b"/></g></svg>