<svg xmlns="http://www.w3.org/2000/svg" width="37" height="23"><defs><style>.b{fill:#d00500}</style></defs><g transform="translate(.5 .5)"><rect width="36" height="22" rx="2" fill="none" stroke="#e9ebee"/><path class="b" d="M30.88 6.361a3.989 3.989 0 00-5.9-.112 3.989 3.989 0 00-5.9.112 4.466 4.466 0 00.173 6l3.547 3.7a2.99 2.99 0 004.349 0l3.555-3.7a4.466 4.466 0 00.176-6z"/><path class="b" d="M30.879 6.362a4.145 4.145 0 00-.99-.813 4.506 4.506 0 01-.653 5.343l-3.555 3.7a2.986 2.986 0 01-3.965.34l1.085 1.129a2.99 2.99 0 004.349 0l3.555-3.7a4.466 4.466 0 00.174-5.999zM10 16.18c2.1 0 4.02-.915 4.02-2.775a2.886 2.886 0 00-2.16-2.565 2.531 2.531 0 001.995-2.355c0-1.875-2.01-2.64-3.855-2.64s-3.855.765-3.855 2.64a2.516 2.516 0 001.98 2.355 2.871 2.871 0 00-2.145 2.565c0 1.875 1.92 2.775 4.02 2.775zM10 10c-.615-.09-1.7-.435-1.7-1.185 0-.72.705-1.14 1.7-1.14s1.68.42 1.68 1.14c0 .75-1.065 1.095-1.68 1.185zm0 4.35c-1.05 0-1.86-.48-1.86-1.215 0-.835 1.23-1.245 1.86-1.335.615.09 1.86.495 1.86 1.335 0 .735-.84 1.215-1.86 1.215z"/></g></svg>