<svg xmlns="http://www.w3.org/2000/svg" width="37" height="23"><g transform="translate(.5 .5)"><rect width="36" height="22" rx="2" fill="none" stroke="#e9ebee"/><path d="M10 16.18c2.1 0 4.02-.915 4.02-2.775a2.886 2.886 0 00-2.16-2.565 2.531 2.531 0 001.995-2.355c0-1.875-2.01-2.64-3.855-2.64s-3.855.765-3.855 2.64a2.516 2.516 0 001.98 2.355 2.871 2.871 0 00-2.145 2.565c0 1.875 1.92 2.775 4.02 2.775zM10 10c-.615-.09-1.7-.435-1.7-1.185 0-.72.705-1.14 1.7-1.14s1.68.42 1.68 1.14c0 .75-1.065 1.095-1.68 1.185zm0 4.35c-1.05 0-1.86-.48-1.86-1.215 0-.835 1.23-1.245 1.86-1.335.615.09 1.86.495 1.86 1.335 0 .735-.84 1.215-1.86 1.215z" fill="#28282c"/><path d="M31.055 16l-3.63-5.145 3.405-4.86h-2.565L26 9.415l-2.3-3.42h-2.53l3.4 4.875L20.945 16h2.535L26 12.34 28.5 16z" fill="#d00500"/></g></svg>