<svg xmlns="http://www.w3.org/2000/svg" width="37" height="23"><defs><style>.b{fill:#28282c}</style></defs><g transform="translate(.5 .5)"><rect width="36" height="22" rx="2" fill="none" stroke="#e9ebee"/><path class="b" d="M19.063 14.412a3.982 3.982 0 005.846.11 3.982 3.982 0 005.846-.11 4.334 4.334 0 00-.175-5.871l-3.518-3.623a2.985 2.985 0 00-4.307 0l-3.52 3.623a4.334 4.334 0 00-.172 5.871z"/><path class="b" d="M30.583 8.541c-3.822-3.933-3.694-3.858-4.187-4.143a.845.845 0 00.06 1.109l3.521 3.623a3.5 3.5 0 01.151 4.715 3.135 3.135 0 01-4.613.088.845.845 0 00-1.212 0 3.129 3.129 0 01-4.058.4.938.938 0 00-1.181.076 3.979 3.979 0 005.206.647l-1.35 1.711a.76.76 0 00.6 1.231h2.782a.76.76 0 00.6-1.231l-1.35-1.709a3.979 3.979 0 005.206-.647 4.334 4.334 0 00-.175-5.87zM10 16.18c2.1 0 4.02-.915 4.02-2.775a2.886 2.886 0 00-2.16-2.565 2.531 2.531 0 001.995-2.355c0-1.875-2.01-2.64-3.855-2.64s-3.855.765-3.855 2.64a2.516 2.516 0 001.98 2.355 2.871 2.871 0 00-2.145 2.565c0 1.875 1.92 2.775 4.02 2.775zM10 10c-.615-.09-1.7-.435-1.7-1.185 0-.72.705-1.14 1.7-1.14s1.68.42 1.68 1.14c0 .75-1.065 1.095-1.68 1.185zm0 4.35c-1.05 0-1.86-.48-1.86-1.215 0-.835 1.23-1.245 1.86-1.335.615.09 1.86.495 1.86 1.335 0 .735-.84 1.215-1.86 1.215z"/></g></svg>