<svg xmlns="http://www.w3.org/2000/svg" width="37" height="23"><g transform="translate(.5 .5)"><rect width="36" height="22" rx="2" fill="none" stroke="#e9ebee"/><path d="M31.818 11.517A3.571 3.571 0 0028.3 8.004a3.526 3.526 0 00.035-.491 3.562 3.562 0 00-3.6-3.514 3.562 3.562 0 00-3.6 3.514 3.474 3.474 0 00.069.686A3.576 3.576 0 0018 11.691a3.563 3.563 0 003.6 3.514 3.658 3.658 0 002.8-1.295 4.5 4.5 0 01-3.514 3.5l-.1.026.05.38h8.213l.044-.383-.1-.023a5.041 5.041 0 01-3.421-3.51 3.689 3.689 0 002.648 1.131 3.562 3.562 0 003.598-3.514zM9.385 16.165c2.955 0 4.65-2.145 4.65-5.16 0-2.835-1.275-5.175-4.3-5.175A3.526 3.526 0 005.89 9.265a3.19 3.19 0 003.42 3.255 3.309 3.309 0 002.58-1.29v.225a2.576 2.576 0 01-2.505 2.82 2.654 2.654 0 01-2-.78l-.94 1.635a4.367 4.367 0 002.94 1.035zm.525-5.475c-.93 0-1.845-.45-1.845-1.5a1.617 1.617 0 011.77-1.47 2.018 2.018 0 012.04 2.04 2.566 2.566 0 01-1.965.93z" fill="#00662b"/></g></svg>