<svg xmlns="http://www.w3.org/2000/svg" width="37" height="23"><defs><style>.b{fill:#d00500}</style></defs><g transform="translate(.5 .5)"><rect width="36" height="22" rx="2" fill="none" stroke="#e9ebee"/><path class="b" d="M30.88 6.361a3.989 3.989 0 00-5.9-.112 3.989 3.989 0 00-5.9.112 4.466 4.466 0 00.173 6l3.547 3.7a2.99 2.99 0 004.349 0l3.555-3.7a4.466 4.466 0 00.176-6z"/><path class="b" d="M30.879 6.362a4.145 4.145 0 00-.99-.813 4.506 4.506 0 01-.653 5.343l-3.555 3.7a2.986 2.986 0 01-3.965.34l1.085 1.129a2.99 2.99 0 004.349 0l3.555-3.7a4.466 4.466 0 00.174-5.999zM9.385 16.165c2.955 0 4.65-2.145 4.65-5.16 0-2.835-1.275-5.175-4.3-5.175A3.526 3.526 0 005.89 9.265a3.19 3.19 0 003.42 3.255 3.309 3.309 0 002.58-1.29v.225a2.576 2.576 0 01-2.505 2.82 2.654 2.654 0 01-2-.78l-.94 1.635a4.367 4.367 0 002.94 1.035zm.525-5.475c-.93 0-1.845-.45-1.845-1.5a1.617 1.617 0 011.77-1.47 2.018 2.018 0 012.04 2.04 2.566 2.566 0 01-1.965.93z"/></g></svg>