<svg xmlns="http://www.w3.org/2000/svg" width="37" height="23"><g transform="translate(.5 .5)"><rect width="36" height="22" rx="2" fill="none" stroke="#e9ebee"/><path d="M9.385 16.165c2.955 0 4.65-2.145 4.65-5.16 0-2.835-1.275-5.175-4.3-5.175A3.526 3.526 0 005.89 9.265a3.19 3.19 0 003.42 3.255 3.309 3.309 0 002.58-1.29v.225a2.576 2.576 0 01-2.505 2.82 2.654 2.654 0 01-2-.78l-.94 1.635a4.367 4.367 0 002.94 1.035zm.525-5.475c-.93 0-1.845-.45-1.845-1.5a1.617 1.617 0 011.77-1.47 2.018 2.018 0 012.04 2.04 2.566 2.566 0 01-1.965.93z" fill="#28282c"/><path d="M31.055 16l-3.63-5.145 3.405-4.86h-2.565L26 9.415l-2.3-3.42h-2.53l3.4 4.875L20.945 16h2.535L26 12.34 28.5 16z" fill="#d00500"/></g></svg>