<svg xmlns="http://www.w3.org/2000/svg" width="37" height="23"><defs><style>.b{fill:#28282c}</style></defs><g transform="translate(.5 .5)"><rect width="36" height="22" rx="2" fill="none" stroke="#e9ebee"/><path class="b" d="M19.063 14.412a3.982 3.982 0 005.846.11 3.982 3.982 0 005.846-.11 4.334 4.334 0 00-.175-5.871l-3.518-3.623a2.985 2.985 0 00-4.307 0l-3.52 3.623a4.334 4.334 0 00-.172 5.871z"/><path class="b" d="M30.583 8.541c-3.822-3.933-3.694-3.858-4.187-4.143a.845.845 0 00.06 1.109l3.521 3.623a3.5 3.5 0 01.151 4.715 3.135 3.135 0 01-4.613.088.845.845 0 00-1.212 0 3.129 3.129 0 01-4.058.4.938.938 0 00-1.181.076 3.979 3.979 0 005.206.647l-1.35 1.711a.76.76 0 00.6 1.231h2.782a.76.76 0 00.6-1.231l-1.35-1.709a3.979 3.979 0 005.206-.647 4.334 4.334 0 00-.175-5.87zM9.385 16.165c2.955 0 4.65-2.145 4.65-5.16 0-2.835-1.275-5.175-4.3-5.175A3.526 3.526 0 005.89 9.265a3.19 3.19 0 003.42 3.255 3.309 3.309 0 002.58-1.29v.225a2.576 2.576 0 01-2.505 2.82 2.654 2.654 0 01-2-.78l-.94 1.635a4.367 4.367 0 002.94 1.035zm.525-5.475c-.93 0-1.845-.45-1.845-1.5a1.617 1.617 0 011.77-1.47 2.018 2.018 0 012.04 2.04 2.566 2.566 0 01-1.965.93z"/></g></svg>