<svg xmlns="http://www.w3.org/2000/svg" width="37" height="23"><defs><style>.b{fill:#d00500}</style></defs><g transform="translate(.5 .5)"><rect width="36" height="22" rx="2" fill="none" stroke="#e9ebee"/><path class="b" d="M30.88 6.361a3.989 3.989 0 00-5.9-.112 3.989 3.989 0 00-5.9.112 4.466 4.466 0 00.173 6l3.547 3.7a2.99 2.99 0 004.349 0l3.555-3.7a4.466 4.466 0 00.176-6z"/><path class="b" d="M30.879 6.362a4.145 4.145 0 00-.99-.813 4.506 4.506 0 01-.653 5.343l-3.555 3.7a2.986 2.986 0 01-3.965.34l1.085 1.129a2.99 2.99 0 004.349 0l3.555-3.7a4.466 4.466 0 00.174-5.999zM9.13 16.18a3.187 3.187 0 003.525-3.465v-6.72h-2.13v6.69a1.485 1.485 0 01-1.56 1.605 2.264 2.264 0 01-1.59-.72l-.93 1.63a3.721 3.721 0 002.685.98z"/></g></svg>