<svg xmlns="http://www.w3.org/2000/svg" width="37" height="23"><g transform="translate(.5 .5)"><rect width="36" height="22" rx="2" fill="none" stroke="#e9ebee"/><path d="M31.818 11.517A3.571 3.571 0 0028.3 8.004a3.526 3.526 0 00.035-.491 3.562 3.562 0 00-3.6-3.514 3.562 3.562 0 00-3.6 3.514 3.474 3.474 0 00.069.686A3.576 3.576 0 0018 11.691a3.563 3.563 0 003.6 3.514 3.658 3.658 0 002.8-1.295 4.5 4.5 0 01-3.514 3.5l-.1.026.05.38h8.213l.044-.383-.1-.023a5.041 5.041 0 01-3.421-3.51 3.689 3.689 0 002.648 1.131 3.562 3.562 0 003.598-3.514zM9.992 16.18a5.771 5.771 0 002.37-.495l.81.93 1.486-1.215-.735-.855a5.163 5.163 0 001.305-3.54A5.027 5.027 0 009.992 5.83a5.023 5.023 0 00-5.22 5.175 5.023 5.023 0 005.22 5.175zm0-1.89a3.034 3.034 0 01-3.03-3.285 3.047 3.047 0 116.075 0 3.667 3.667 0 01-.51 1.92l-1.11-1.305-1.47 1.215 1.095 1.29a3.421 3.421 0 01-1.05.165z" fill="#00662b"/></g></svg>