<svg xmlns="http://www.w3.org/2000/svg" width="37" height="23"><defs><style>.b{fill:#005f93}</style></defs><g transform="translate(.5 .5)"><rect width="36" height="22" rx="2" fill="none" stroke="#e9ebee"/><path class="b" d="M23.859 4.506l-4.473 5.67a1.33 1.33 0 000 1.648l4.473 5.67a1.328 1.328 0 002.086 0l4.473-5.67a1.33 1.33 0 000-1.648l-4.473-5.67a1.328 1.328 0 00-2.086 0z"/><path class="b" d="M25.945 4.506a1.318 1.318 0 00-.707-.463.845.845 0 00.044.986l4.473 5.67a.483.483 0 010 .6l-4.473 5.67a.845.845 0 00-.044.986 1.318 1.318 0 00.707-.463l4.473-5.67a1.33 1.33 0 000-1.648zM9.992 16.18a5.771 5.771 0 002.37-.495l.81.93 1.486-1.215-.735-.855a5.163 5.163 0 001.305-3.54A5.027 5.027 0 009.992 5.83a5.023 5.023 0 00-5.22 5.175 5.023 5.023 0 005.22 5.175zm0-1.89a3.034 3.034 0 01-3.03-3.285 3.047 3.047 0 116.075 0 3.667 3.667 0 01-.51 1.92l-1.11-1.305-1.47 1.215 1.095 1.29a3.421 3.421 0 01-1.05.165z"/></g></svg>