<svg xmlns="http://www.w3.org/2000/svg" width="37" height="23"><defs><style>.b{fill:#d00500}</style></defs><g transform="translate(.5 .5)"><rect width="36" height="22" rx="2" fill="none" stroke="#e9ebee"/><path class="b" d="M30.88 6.361a3.989 3.989 0 00-5.9-.112 3.989 3.989 0 00-5.9.112 4.466 4.466 0 00.173 6l3.547 3.7a2.99 2.99 0 004.349 0l3.555-3.7a4.466 4.466 0 00.176-6z"/><path class="b" d="M30.879 6.362a4.145 4.145 0 00-.99-.813 4.506 4.506 0 01-.653 5.343l-3.555 3.7a2.986 2.986 0 01-3.965.34l1.085 1.129a2.99 2.99 0 004.349 0l3.555-3.7a4.466 4.466 0 00.174-5.999zM9.992 16.18a5.771 5.771 0 002.37-.495l.81.93 1.486-1.215-.735-.855a5.163 5.163 0 001.305-3.54A5.027 5.027 0 009.992 5.83a5.023 5.023 0 00-5.22 5.175 5.023 5.023 0 005.22 5.175zm0-1.89a3.034 3.034 0 01-3.03-3.285 3.047 3.047 0 116.075 0 3.667 3.667 0 01-.51 1.92l-1.11-1.305-1.47 1.215 1.095 1.29a3.421 3.421 0 01-1.05.165z"/></g></svg>