<svg xmlns="http://www.w3.org/2000/svg" width="37" height="23"><g transform="translate(.5 .5)"><rect width="36" height="22" rx="2" fill="none" stroke="#e9ebee"/><path d="M9.992 16.18a5.771 5.771 0 002.37-.495l.81.93 1.486-1.215-.735-.855a5.163 5.163 0 001.305-3.54A5.027 5.027 0 009.992 5.83a5.023 5.023 0 00-5.22 5.175 5.023 5.023 0 005.22 5.175zm0-1.89a3.034 3.034 0 01-3.03-3.285 3.047 3.047 0 116.075 0 3.667 3.667 0 01-.51 1.92l-1.11-1.305-1.47 1.215 1.095 1.29a3.421 3.421 0 01-1.05.165z" fill="#28282c"/><path d="M31.055 16l-3.63-5.145 3.405-4.86h-2.565L26 9.415l-2.3-3.42h-2.53l3.4 4.875L20.945 16h2.535L26 12.34 28.5 16z" fill="#d00500"/></g></svg>