<svg xmlns="http://www.w3.org/2000/svg" width="37" height="23"><defs><style>.b{fill:#28282c}</style></defs><g transform="translate(.5 .5)"><rect width="36" height="22" rx="2" fill="none" stroke="#e9ebee"/><path class="b" d="M19.063 14.412a3.982 3.982 0 005.846.11 3.982 3.982 0 005.846-.11 4.334 4.334 0 00-.175-5.871l-3.518-3.623a2.985 2.985 0 00-4.307 0l-3.52 3.623a4.334 4.334 0 00-.172 5.871z"/><path class="b" d="M30.583 8.541c-3.822-3.933-3.694-3.858-4.187-4.143a.845.845 0 00.06 1.109l3.521 3.623a3.5 3.5 0 01.151 4.715 3.135 3.135 0 01-4.613.088.845.845 0 00-1.212 0 3.129 3.129 0 01-4.058.4.938.938 0 00-1.181.076 3.979 3.979 0 005.206.647l-1.35 1.711a.76.76 0 00.6 1.231h2.782a.76.76 0 00.6-1.231l-1.35-1.709a3.979 3.979 0 005.206-.647 4.334 4.334 0 00-.175-5.87zM9.992 16.18a5.771 5.771 0 002.37-.495l.81.93 1.486-1.215-.735-.855a5.163 5.163 0 001.305-3.54A5.027 5.027 0 009.992 5.83a5.023 5.023 0 00-5.22 5.175 5.023 5.023 0 005.22 5.175zm0-1.89a3.034 3.034 0 01-3.03-3.285 3.047 3.047 0 116.075 0 3.667 3.667 0 01-.51 1.92l-1.11-1.305-1.47 1.215 1.095 1.29a3.421 3.421 0 01-1.05.165z"/></g></svg>