<svg xmlns="http://www.w3.org/2000/svg" width="37" height="23"><defs><style>.b{fill:#005f93}</style></defs><g transform="translate(.5 .5)"><rect width="36" height="22" rx="2" fill="none" stroke="#e9ebee"/><path class="b" d="M23.859 4.506l-4.473 5.67a1.33 1.33 0 000 1.648l4.473 5.67a1.328 1.328 0 002.086 0l4.473-5.67a1.33 1.33 0 000-1.648l-4.473-5.67a1.328 1.328 0 00-2.086 0z"/><path class="b" d="M25.945 4.506a1.318 1.318 0 00-.707-.463.845.845 0 00.044.986l4.473 5.67a.483.483 0 010 .6l-4.473 5.67a.845.845 0 00-.044.986 1.318 1.318 0 00.707-.463l4.473-5.67a1.33 1.33 0 000-1.648zM11.08 16V7.87h2.91V5.995H6.01V7.87h2.925V16z"/></g></svg>