<svg width="40" height="40" fill="none" xmlns="http://www.w3.org/2000/svg"><path d="M33.332 13.633V5a1.667 1.667 0 10-3.333 0v8.633a5 5 0 000 9.4V35a1.666 1.666 0 103.333 0V23.033a5 5 0 000-9.4zM31.665 20a1.666 1.666 0 110-3.332 1.666 1.666 0 010 3.332zm-10 3.633V5a1.667 1.667 0 00-3.333 0v18.633a5 5 0 000 9.4V35a1.667 1.667 0 003.333 0v-1.967a5 5 0 000-9.4zM20 30a1.666 1.666 0 110-3.332A1.666 1.666 0 0120 30zM10 10.3V5a1.667 1.667 0 10-3.334 0v5.3a5 5 0 000 9.4V35A1.667 1.667 0 1010 35V19.7a5 5 0 000-9.4zm-1.667 6.367a1.667 1.667 0 110-3.334 1.667 1.667 0 010 3.334z" fill="#E65A40"/></svg>