<svg width="20" height="20" fill="none" xmlns="http://www.w3.org/2000/svg"><path d="M12.562 1.667H7.45c-4.67 0-5.781 1.11-5.781 5.772v5.113c0 4.67 1.102 5.781 5.773 5.781h5.112c4.67 0 5.782-1.102 5.782-5.772V7.448c0-4.67-1.103-5.781-5.773-5.781zm2.56 11.892h-1.214c-.46 0-.6-.373-1.424-1.198-.72-.694-1.024-.781-1.207-.781-.251 0-.32.07-.32.416v1.094c0 .295-.096.469-.869.469a4.743 4.743 0 01-3.706-2.222 9.689 9.689 0 01-1.919-4.028c0-.182.07-.347.417-.347h1.215c.313 0 .425.139.547.46.59 1.736 1.597 3.246 2.005 3.246.156 0 .226-.069.226-.46V8.42c-.052-.816-.486-.885-.486-1.18a.3.3 0 01.312-.278h1.91c.26 0 .347.13.347.442v2.414c0 .26.113.347.191.347.156 0 .278-.087.564-.373a10 10 0 001.493-2.483.524.524 0 01.53-.347h1.215c.365 0 .443.182.365.442-.442.99-.99 1.93-1.632 2.804-.13.2-.182.304 0 .538.121.183.547.539.833.877.417.416.763.897 1.024 1.424.105.338-.069.512-.416.512z" fill="#fff"/></svg>