<svg width="20" height="20" fill="none" xmlns="http://www.w3.org/2000/svg"><g clip-path="url(#clip0_33455_1226)"><path d="M14.582 11.984c-.248-.124-1.472-.724-1.7-.806-.228-.083-.394-.124-.56.124-.166.247-.643.806-.789.971-.144.165-.29.185-.538.061a6.802 6.802 0 01-2-1.228A7.464 7.464 0 017.61 9.39c-.145-.248-.016-.382.109-.505.112-.111.25-.29.373-.434.102-.126.186-.265.249-.414a.454.454 0 00-.021-.434c-.062-.124-.56-1.343-.767-1.84-.202-.481-.407-.416-.56-.424-.145-.007-.31-.01-.477-.01a.918.918 0 00-.663.312 2.777 2.777 0 00-.871 2.065 4.8 4.8 0 001.016 2.563 11.071 11.071 0 004.25 3.74c.464.198.937.372 1.419.522a3.421 3.421 0 001.568.097 2.563 2.563 0 001.679-1.176c.163-.37.213-.78.144-1.179-.061-.104-.227-.165-.476-.289zm2.504-9.08a9.992 9.992 0 00-13.102-.857A9.909 9.909 0 00.276 7.973a9.876 9.876 0 001.137 6.89L0 20l5.28-1.377a9.988 9.988 0 004.758 1.206h.004a9.996 9.996 0 005.532-1.673 9.928 9.928 0 003.667-4.449 9.875 9.875 0 00.568-5.727 9.903 9.903 0 00-2.723-5.077zm-2.646 13.99a8.313 8.313 0 01-4.398 1.26h-.004a8.292 8.292 0 01-4.212-1.15l-.302-.178-3.134.818.836-3.04-.195-.312a8.21 8.21 0 01.266-9.15 8.272 8.272 0 013.8-2.927 8.312 8.312 0 014.794-.33 8.286 8.286 0 014.17 2.375 8.204 8.204 0 011.533 9.026 8.25 8.25 0 01-3.154 3.608z" fill="#fff"/></g><defs><clipPath id="clip0_33455_1226"><path fill="#fff" d="M0 0h20v20H0z"/></clipPath></defs></svg>