<svg width="14" height="16" fill="none" xmlns="http://www.w3.org/2000/svg"><path d="M13 5L8.5 1.055a2.25 2.25 0 00-3 0L1 5a2.25 2.25 0 00-.75 1.695v6.555A2.25 2.25 0 002.5 15.5h9a2.25 2.25 0 002.25-2.25V6.687A2.251 2.251 0 0013 5zm-4.5 9h-3v-3.75a.75.75 0 01.75-.75h1.5a.75.75 0 01.75.75V14zm3.75-.75a.75.75 0 01-.75.75H10v-3.75A2.25 2.25 0 007.75 8h-1.5A2.25 2.25 0 004 10.25V14H2.5a.75.75 0 01-.75-.75V6.687a.75.75 0 01.255-.562l4.5-3.938a.75.75 0 01.99 0l4.5 3.938a.75.75 0 01.255.563v6.562z" fill="#5AA5D8"/></svg>