<svg width="18" height="18" fill="none" xmlns="http://www.w3.org/2000/svg"><path d="M11.305 1.5H6.703C2.5 1.5 1.5 2.5 1.5 6.695v4.602c0 4.203.992 5.203 5.195 5.203h4.602c4.203 0 5.203-.992 5.203-5.195V6.703c0-4.203-.992-5.203-5.195-5.203zm2.304 10.703h-1.093c-.414 0-.54-.336-1.282-1.078-.648-.625-.921-.703-1.086-.703-.226 0-.289.062-.289.375v.984c0 .266-.086.422-.78.422a4.269 4.269 0 01-3.337-2 8.72 8.72 0 01-1.726-3.625c0-.164.062-.312.375-.312h1.093c.282 0 .383.125.493.414.53 1.562 1.437 2.922 1.804 2.922.14 0 .203-.063.203-.415V7.579c-.047-.734-.437-.797-.437-1.062a.27.27 0 01.281-.25h1.719c.234 0 .312.117.312.398v2.172c0 .234.102.312.172.312.14 0 .25-.078.508-.335a8.997 8.997 0 001.344-2.235.471.471 0 01.476-.312h1.094c.328 0 .399.164.328.398-.398.891-.89 1.737-1.469 2.524-.117.18-.163.273 0 .484.11.164.493.484.75.789.376.374.687.807.922 1.281.094.305-.062.461-.375.461z" fill="#5AA5D8"/></svg>