<svg width="16" height="16" fill="none" xmlns="http://www.w3.org/2000/svg"><path d="M8 6.14a1.86 1.86 0 100 3.72 1.86 1.86 0 000-3.72zm7.447-1.837a4.897 4.897 0 00-.314-1.696 3 3 0 00-1.74-1.74 4.897 4.897 0 00-1.696-.315C10.73.5 10.445.5 8 .5 5.555.5 5.27.5 4.303.552a4.888 4.888 0 00-1.696.316 3 3 0 00-1.74 1.74 4.898 4.898 0 00-.315 1.695C.5 5.27.5 5.554.5 8c0 2.445 0 2.73.052 3.697.009.582.115 1.157.316 1.703.15.395.382.753.682 1.05.299.302.66.535 1.057.683a4.897 4.897 0 001.696.315C5.27 15.5 5.554 15.5 8 15.5c2.445 0 2.73 0 3.697-.053a4.896 4.896 0 001.696-.314 2.926 2.926 0 001.057-.683c.3-.297.533-.655.683-1.05.204-.545.31-1.12.315-1.703.052-.967.052-1.252.052-3.697 0-2.445 0-2.73-.053-3.697zm-1.904 6a4.297 4.297 0 01-.293 1.35 2.895 2.895 0 01-1.598 1.597c-.435.16-.893.249-1.357.262h-4.59a4.299 4.299 0 01-1.357-.262 2.632 2.632 0 01-.983-.645 2.633 2.633 0 01-.615-.953 4.118 4.118 0 01-.255-1.357v-4.59c.008-.464.094-.923.255-1.357.138-.372.359-.708.645-.983.27-.27.595-.48.953-.615.435-.16.893-.249 1.357-.263h4.59c.464.014.922.103 1.357.263.372.138.708.359.983.645.272.27.482.594.615.953.16.435.249.893.262 1.357V8c0 1.545.053 1.703.03 2.295v.008zm-1.2-5.58a1.785 1.785 0 00-1.058-1.058A3 3 0 0010.25 3.5h-4.5a3 3 0 00-1.035.195 1.785 1.785 0 00-1.057 1.02A3.202 3.202 0 003.5 5.75v4.5c.007.353.073.703.195 1.035a1.784 1.784 0 001.058 1.057c.32.118.656.184.997.195h4.5a2.978 2.978 0 001.035-.195 1.784 1.784 0 001.057-1.057c.126-.33.192-.681.195-1.035v-4.5c0-.354-.065-.705-.195-1.035v.008zM8 10.864A2.859 2.859 0 015.143 8 2.865 2.865 0 118 10.865zm3-5.168a.675.675 0 010-1.342.675.675 0 010 1.342z" fill="#5AA5D8"/></svg>