<svg width="24" height="24" fill="none" xmlns="http://www.w3.org/2000/svg"><path d="M20.727 0H3.273A3.273 3.273 0 000 3.273v17.454A3.273 3.273 0 003.273 24h17.454A3.273 3.273 0 0024 20.727V3.273A3.273 3.273 0 0020.727 0z" fill="#DEEDF7"/><path d="M18.537 6.205l-.248.09-13.47 4.853a.451.451 0 00.04.873l3.486.954.65 1.91.651 1.908a.619.619 0 00.998.223l1.802-1.702 3.537 2.398c.432.295 1.049.077 1.16-.409l2.342-10.351c.114-.513-.425-.934-.948-.747zm-1.72 2.297l-6.085 4.975-.287.234a.31.31 0 00-.114.202l-.064.53-.176 1.486a.068.068 0 01-.063.073.069.069 0 01-.074-.062l-.495-1.486-.51-1.52a.308.308 0 01.146-.364l6.333-3.63 1.192-.682c.173-.1.35.119.198.244z" fill="#5AA5D8"/></svg>