<svg width="216" height="55" fill="none" xmlns="http://www.w3.org/2000/svg"><g clip-path="url(#clip0_225_25291)"><path d="M137.724 0h-32.879c-1.614 0-2.923 1.29-2.923 2.88v49.24c0 1.59 1.309 2.88 2.923 2.88h32.879c1.615 0 2.924-1.29 2.924-2.88V2.88c0-1.59-1.309-2.88-2.924-2.88z" fill="#D00500"/><path d="M129.707 24.66v-3.47l1.877-.819 1.556-.976 1.179-1.56.411-1.671-.237-1.602-.244-1.691-.733-1.134-.97-1.018-1.611-.701-1.836-.57-2.344.37-1.158-1.43-2.666-.749-2.044-.406-1.947.124-2.205.818-1.605.695-1.353 1.072-1.822-.24-2.156.474-1.786 1.141-1.095 2.283-.363 2.385.907 2.571 1.842 1.795 1.807.777v3.534l.056.783.056 12.657-1.682 1.815-.705 1.128.245 1.925 1.067 1.1 1.075.756.007 1.856 1.814.68 3.565.4h2.673l2.337-.4 1.542-1.34.88-2.083 1.946.887 2.491.062 2.673-.818 2.463-1.822.795-2.028.14-4.194-.768-4.462-2.204-.399-1.417-1.877-.453-2.234-.091-1.609.091-.784z" fill="#fff"/><path d="M121.781 34.52c.632 0 1.144-.505 1.144-1.128 0-.623-.512-1.128-1.144-1.128-.632 0-1.144.505-1.144 1.128 0 .623.512 1.127 1.144 1.127zm-7.426 0c.632 0 1.145-.505 1.145-1.128 0-.623-.513-1.128-1.145-1.128s-1.144.505-1.144 1.128c0 .623.512 1.127 1.144 1.127z" fill="#D00500"/><path d="M112.809 30.759c.171.248.402.451.671.591a1.89 1.89 0 002.42-.591 5.081 5.081 0 01-3.091 0zm7.429 0a1.881 1.881 0 003.084 0 4.828 4.828 0 01-1.542.24 4.768 4.768 0 01-1.542-.24z" fill="#000"/><path d="M134.291 31.55l-.168-.42h-.46c-2.024-.151-3.133-1.086-3.224-5.617v-3.671a6.558 6.558 0 003.901-2.976 6.392 6.392 0 00.7-4.813 6.48 6.48 0 00-2.895-3.937 6.657 6.657 0 00-4.86-.842c-1.535-1.574-4.494-2.502-6.664-2.502s-5.01.894-6.566 2.413l-.076.069a6.656 6.656 0 00-4.876.826 6.484 6.484 0 00-2.91 3.943 6.391 6.391 0 00.705 4.824 6.559 6.559 0 003.92 2.974v5.115c-.3-.075-.586-.158-.852-.247l-.46 1.375c.398.13.837.247 1.312.357v7.563a4.952 4.952 0 01-.635-.406l-.9 1.128c.468.36.985.653 1.535.873v.426c-.75.36-1.379.927-1.811 1.63a4.22 4.22 0 00-.624 2.337 3.65 3.65 0 00.674 2.092 3.74 3.74 0 001.761 1.346v1.423l.139.192c.098.124.998 1.238 3.433 1.238h5.324a5.563 5.563 0 003.629-1.313 4.106 4.106 0 001.193-2.152 3.71 3.71 0 002.351.838h.272a8.499 8.499 0 002.031-.227 7.378 7.378 0 002.811-.982 7.266 7.266 0 002.178-2.008c2.749-4.118.223-10.594.112-10.87zm-7.376-1.28c.698 2.386 2.093 3.892 4.089 4.38.426 1.286 1.682 5.624 0 7.982a3.46 3.46 0 01-.363.42 8.98 8.98 0 00.196-4.126 18.24 18.24 0 00-.698-3.059l-.14-.406-.425-.075c-3.594-.64-4.187-7.274-4.124-9.948l1.012.123a15.13 15.13 0 00.453 4.71zm-6.231-6.482a40.171 40.171 0 00-8.478.797v-1.107a37.108 37.108 0 018.478-.845 36.84 36.84 0 018.248.832v1.1a39.112 39.112 0 00-8.248-.777zm-13.453-8.25c0-.728.161-1.448.47-2.109a5.04 5.04 0 011.322-1.722 5.133 5.133 0 011.931-1.018 5.188 5.188 0 012.187-.129 6.213 6.213 0 00-.495 4.125l1.395-.31a5.067 5.067 0 011.061-4.269 9.05 9.05 0 015.477-1.932 9.41 9.41 0 015.234 1.72 4.695 4.695 0 00-1.703 2.137 4.241 4.241 0 00-.045 2.824c.308.92.921 1.71 1.741 2.243l.802-1.203a2.851 2.851 0 01-1.116-1.375 2.84 2.84 0 010-1.994 3.389 3.389 0 011.765-1.787 5.271 5.271 0 011.57-.24c1.232 0 2.422.44 3.351 1.237a5.012 5.012 0 011.704 3.1 4.976 4.976 0 01-.779 3.442 5.106 5.106 0 01-2.88 2.093l.041-.825a46.5 46.5 0 00-4.695-.57 60.928 60.928 0 00-4.096-.138v1.436c1.395 0 2.707.049 3.998.131 1.291.083 2.407.193 3.524.344v1.224a38.454 38.454 0 00-8.311-.77 39.58 39.58 0 00-8.464.797v-1.375h-.035a12.389 12.389 0 007.997-3.802l-1.054-.99a10.752 10.752 0 01-3.712 2.558 10.895 10.895 0 01-4.452.825l-.049 1.134a5.141 5.141 0 01-2.634-1.813 5.016 5.016 0 01-1.029-3h-.021zm2.547 26.427c-.016-.426.063-.85.232-1.242s.423-.742.745-1.027v4.125a2.26 2.26 0 01-.71-.816 2.231 2.231 0 01-.246-1.047l-.021.007zm12.504 3.946a3.254 3.254 0 01-1.395.736 9.565 9.565 0 00.439-3.3v-3.561c-.465.239-.954.43-1.458.57v3.032c.042 1.059-.14 2.798-.698 3.328a.306.306 0 01-.237.117h-.789v-6.188h-1.437v6.188h-1.605v-6.477a7.727 7.727 0 01-1.458-.57v6.998c-.5-.04-.98-.205-1.396-.48v-8.32c.445.08.895.121 1.347.124a7.278 7.278 0 003.921-1.1 7.231 7.231 0 003.887 1.1 7.046 7.046 0 004.368-1.437l-.9-1.127a5.878 5.878 0 01-3.451 1.117 5.878 5.878 0 01-3.45-1.117l-.454-.35-.453.357a5.59 5.59 0 01-3.489 1.107 6.216 6.216 0 01-1.347-.152V28.69c.377.062.761.11 1.152.159a1.119 1.119 0 00-.03 1.146c.098.176.243.323.419.427a1.164 1.164 0 001.54-.338c.105-.155.17-.333.188-.52a1.117 1.117 0 00-.087-.543h.551a.526.526 0 01.251.123 1.676 1.676 0 01.363 1.265v4.125h2.868v-1.43h-1.395v-2.75a2.95 2.95 0 00-.866-2.351 2.034 2.034 0 00-1.395-.481 29.392 29.392 0 01-3.531-.372v-1.168a37.18 37.18 0 018.429-.757c1.124 0 2.226 0 3.273.11v1.582c-1.647.394-3.33.625-5.024.687l.07 1.43c.586 0 1.165-.069 1.723-.123a1.112 1.112 0 00-.147.536 1.131 1.131 0 00.502.945 1.158 1.158 0 001.075.118 1.146 1.146 0 00.7-.814 1.123 1.123 0 00-.295-1.026 17.75 17.75 0 001.507-.303c.328 3.06 1.396 7.419 4.745 8.353.475 1.61 1.158 5.054 0 6.628a1.98 1.98 0 01-.991.688c.977-1.94.203-5.46.105-5.892l-.133-.557h-.579a4.216 4.216 0 00-2.895 1.205 4.095 4.095 0 00-1.229 2.851v1.884c.042.428-.006.86-.142 1.27a3.13 3.13 0 01-.646 1.108l-.021.007zm3.489-1.966a2.257 2.257 0 01-.818-.736 2.214 2.214 0 01-.368-1.03v-.351c-.011-.618.19-1.22.57-1.712a2.791 2.791 0 011.523-.997c.272 1.54.398 3.72-.265 4.53a.767.767 0 01-.621.29l-.021.006zm7.298-2.571c.761-3.328-.767-7.384-.851-7.563l-.146-.385-.412-.068c-1.647-.275-2.791-1.43-3.363-3.438a13.4 13.4 0 01-.419-4.056c.384.075.747.151 1.096.234.062 2.317.411 5.878 4.082 6.428.488 1.313 1.807 5.85.034 8.841l-.021.007z" fill="#000"/><path d="M115.102 38.032a2.76 2.76 0 001.029 1.195 2.82 2.82 0 003.049 0 2.76 2.76 0 001.029-1.194 6.74 6.74 0 01-5.107 0zM12.881 20.605v3.547c0 4.359-2.135 6.738-6.482 6.738H4.348v10.236H-.027V13.867H6.37c4.375 0 6.51 2.358 6.51 6.738zm-8.533-2.84v9.226h2.051c1.396 0 2.135-.618 2.135-2.57v-4.07c0-1.953-.746-2.572-2.135-2.572l-2.051-.014zm20.116 7.563h5.973v3.96h-5.973v7.982h7.508v3.89H20.11V13.868h11.862v3.898h-7.508v7.563zm21.094 4.908l-1.347 2.496v8.367h-4.347V13.867h4.347v11.88l5.694-11.88h4.347l-6.05 12.155 6.05 15.125h-4.466l-4.228-10.91zm29.773 10.89h-4.403l-.746-4.963h-5.317l-.754 4.943H60.1l4.43-27.26h6.364l4.438 27.28zm-9.936-8.642h4.187l-2.094-13.75-2.093 13.75zm25.182 8.656v-7.645c0-2.53-.872-3.437-2.846-3.437h-1.5v11.096h-4.348V13.867h6.56c4.507 0 6.44 2.063 6.44 6.27v2.145c0 2.805-.907 4.634-2.84 5.5 2.17.894 2.881 2.963 2.881 5.802v7.563l-4.347-.007zM86.23 17.765v8.374h1.696c1.626 0 2.61-.688 2.61-2.88V20.57c0-1.952-.698-2.805-2.212-2.805H86.23zm67.949-4.207c4.228 0 6.405 2.495 6.405 6.875v.859h-4.11v-1.134c0-1.946-.795-2.682-2.177-2.682-1.381 0-2.17.736-2.17 2.682 0 5.61 8.492 6.662 8.492 14.437 0 4.359-2.212 6.875-6.482 6.875-4.271 0-6.476-2.495-6.476-6.875v-1.677h4.11v1.945c0 1.953.866 2.654 2.247 2.654 1.382 0 2.254-.688 2.254-2.654 0-5.603-8.499-6.655-8.499-14.437-.014-4.373 2.163-6.868 6.406-6.868zm11.443.309h13.439v3.898h-4.55V41.14h-4.347V17.765h-4.542v-3.898zm32.39 27.26h-4.389l-.76-4.964h-5.338l-.754 4.943h-3.984l4.431-27.26h6.363l4.431 27.28zm-9.922-8.643h4.187l-2.094-13.75-2.093 13.75zm21.477-18.926c4.229 0 6.406 2.495 6.406 6.875v.859h-4.11v-1.134c0-1.946-.789-2.682-2.177-2.682-1.389 0-2.17.736-2.17 2.682 0 5.61 8.498 6.662 8.498 14.437 0 4.359-2.218 6.875-6.482 6.875-4.263 0-6.482-2.495-6.482-6.875v-1.677h4.11v1.945c0 1.953.865 2.654 2.254 2.654 1.388 0 2.253-.688 2.253-2.654 0-5.603-8.498-6.655-8.498-14.437-.014-4.373 2.156-6.868 6.384-6.868h.014z" fill="#000"/></g><defs><clipPath id="clip0_225_25291"><path fill="#fff" d="M0 0h216v55H0z"/></clipPath></defs></svg>