<svg width="24" height="24" fill="none" xmlns="http://www.w3.org/2000/svg"><path d="M8.429 18.816l-3.58 1.953c-.211.115-.4.256-.576.409A11.945 11.945 0 0012 24c2.923 0 5.6-1.046 7.682-2.782a3.175 3.175 0 00-.631-.423l-3.834-1.917a1.462 1.462 0 01-.809-1.308v-1.504a5.77 5.77 0 00.363-.466 8.822 8.822 0 001.192-2.402c.492-.152.854-.606.854-1.146v-1.606c0-.353-.157-.668-.401-.89v-2.32S16.892 3.622 12 3.622 7.584 7.234 7.584 7.234v2.322a1.197 1.197 0 00-.4.89v1.605c0 .423.222.795.554 1.01a7.969 7.969 0 001.452 3.004v1.467c0 .534-.293 1.027-.762 1.283z" fill="#fff"/><path d="M12.205.002C5.58-.111.115 5.169.002 11.795a11.964 11.964 0 004.276 9.38 3.16 3.16 0 01.57-.405l3.58-1.953c.47-.257.762-.749.762-1.284v-1.468s-1.05-1.257-1.452-3.003a1.204 1.204 0 01-.555-1.01v-1.606a1.2 1.2 0 01.401-.89V7.235S7.108 3.623 12 3.623s4.416 3.612 4.416 3.612v2.321c.244.221.4.537.4.89v1.606c0 .54-.361.994-.853 1.145A8.822 8.822 0 0114.77 15.6a5.767 5.767 0 01-.363.466v1.505c0 .554.313 1.06.809 1.308l3.834 1.916c.23.116.438.26.63.422a11.97 11.97 0 004.317-9.01C24.111 5.578 18.832.114 12.205.001z" fill="#A9A9AB"/></svg>