<svg width="24" height="24" fill="none" xmlns="http://www.w3.org/2000/svg"><g clip-path="url(#clip0_231_24926)" fill="#28282C"><path d="M11.966 24a3.384 3.384 0 003.36-2.88H8.595A3.432 3.432 0 0011.967 24zm8.82-8.16h-.12a1.2 1.2 0 01-1.2-1.2v-4.416a7.476 7.476 0 00-3.876-6.54.552.552 0 01-.312-.456A3.288 3.288 0 0011.966 0a3.348 3.348 0 00-3.312 3.288.576.576 0 01-.288.456 7.464 7.464 0 00-3.935 6.54v4.488a1.2 1.2 0 01-1.2 1.2 2.004 2.004 0 00-1.98 2.04 2.04 2.04 0 002.064 2.016h17.34c1.12.037 2.057-.974 2.093-2.094a2.029 2.029 0 00-1.962-2.094z"/></g><defs><clipPath id="clip0_231_24926"><path fill="#fff" d="M0 0h24v24H0z"/></clipPath></defs></svg>