<svg width="24" height="24" fill="none" xmlns="http://www.w3.org/2000/svg"><path d="M12 24c6.627 0 12-5.373 12-12S18.627 0 12 0 0 5.373 0 12s5.373 12 12 12z" fill="url(#paint0_linear_356_37975)"/><path d="M12 24c6.627 0 12-5.373 12-12S18.627 0 12 0 0 5.373 0 12s5.373 12 12 12z" fill="url(#paint1_radial_356_37975)"/><path d="M19.469 4.512A11.296 11.296 0 0016 2.129a1088.55 1088.55 0 01-3.18 3.227 883.406 883.406 0 005.804 5.812c1.083-1.074 2.158-2.135 3.224-3.184a11.31 11.31 0 00-2.38-3.469l.001-.003z" fill="url(#paint2_linear_356_37975)"/><path d="M4.508 4.512a11.311 11.311 0 00-2.38 3.468 1397.98 1397.98 0 013.224 3.185 859.743 859.743 0 005.804-5.813 1098.82 1098.82 0 01-3.18-3.227 11.297 11.297 0 00-3.468 2.387z" fill="url(#paint3_linear_356_37975)"/><path d="M4.509 19.488a11.288 11.288 0 003.468 2.383c1.045-1.064 2.106-2.14 3.181-3.227a912.734 912.734 0 00-5.804-5.812 1129.566 1129.566 0 01-3.224 3.184 11.303 11.303 0 002.379 3.472z" fill="url(#paint4_linear_356_37975)"/><path d="M19.47 19.488a11.312 11.312 0 002.38-3.468 1282.289 1282.289 0 01-3.224-3.185 859.734 859.734 0 00-5.805 5.813c1.074 1.085 2.134 2.16 3.181 3.227a11.298 11.298 0 003.467-2.387z" fill="url(#paint5_linear_356_37975)"/><path d="M16.002 2.129a9.914 9.914 0 00-8.027 0 332.73 332.73 0 001.836 4.583c1.452-.007 2.903-.007 4.355 0a397.96 397.96 0 001.836-4.583z" fill="url(#paint6_linear_356_37975)"/><path d="M2.128 7.982a9.942 9.942 0 000 8.036c1.519-.597 3.045-1.21 4.579-1.838a422.32 422.32 0 010-4.36 422.893 422.893 0 00-4.58-1.838z" fill="url(#paint7_linear_356_37975)"/><path d="M7.975 21.871a9.914 9.914 0 008.027 0 332.196 332.196 0 00-1.836-4.583c-1.451.008-2.903.008-4.355 0a408.052 408.052 0 00-1.836 4.583z" fill="url(#paint8_linear_356_37975)"/><path d="M21.85 16.018a9.945 9.945 0 000-8.036c-1.52.597-3.046 1.21-4.579 1.838.007 1.453.007 2.907 0 4.36 1.532.625 3.058 1.238 4.579 1.838z" fill="url(#paint9_linear_356_37975)"/><path d="M12 20.752a8.752 8.752 0 100-17.504 8.752 8.752 0 000 17.504z" fill="url(#paint10_linear_356_37975)"/><path d="M12 4.514C7.922 4.522 4.522 7.922 4.514 12c.008 4.078 3.408 7.478 7.486 7.486 4.078-.008 7.478-3.408 7.486-7.486-.008-4.078-3.408-7.478-7.486-7.486z" fill="url(#paint11_linear_356_37975)"/><path d="M12 5.896C8.654 5.9 5.9 8.654 5.896 12c-.003 3.346 2.758 6.1 6.104 6.104 3.346.003 6.1-2.758 6.104-6.104.003-3.346-2.758-6.1-6.104-6.104z" fill="url(#paint12_linear_356_37975)"/><path d="M13.004 16.09c-3.358 0-6.107-2.742-6.099-6.093a6.075 6.075 0 01.239-1.668A6.04 6.04 0 005.896 12C5.9 15.346 8.654 18.1 12 18.104c2.772 0 5.132-1.895 5.87-4.439a6.135 6.135 0 01-4.866 2.426z" fill="url(#paint13_linear_356_37975)"/><path d="M6.693 13.792l.792-3.594h1.897a1.045 1.045 0 011.056 1.061c0 .523-.345 1.401-1.59 1.401H8.03l-.248 1.132H6.693zm2.21-2.08c.198 0 .409-.119.409-.328 0-.162-.114-.238-.297-.238h-.651l-.125.566h.663zm1.26 1.443l.646-.775c.248.323.755.55 1.24.55.204 0 .285-.094.285-.157 0-.301-1.719-.29-1.719-1.342 0-.624.516-1.287 1.541-1.287.588 0 1.175.205 1.568.598l-.652.754c-.296-.296-.754-.436-1.093-.436-.141 0-.221.064-.221.146 0 .285 1.724.3 1.724 1.341 0 .754-.593 1.31-1.52 1.31-.765 0-1.444-.276-1.799-.701zm3.399.637l.792-3.594h1.897a1.045 1.045 0 011.056 1.061c0 .523-.345 1.401-1.59 1.401H14.9l-.248 1.132h-1.089zm2.21-2.08c.199 0 .409-.119.409-.328 0-.162-.113-.238-.297-.238h-.65l-.123.566h.66z" fill="#000"/><defs><linearGradient id="paint0_linear_356_37975" x1="3.515" y1="20.485" x2="20.485" y2="3.515" gradientUnits="userSpaceOnUse"><stop stop-color="#689171"/><stop offset="1" stop-color="#C9DDCF"/></linearGradient><linearGradient id="paint2_linear_356_37975" x1="12.2" y1="11.794" x2="20.976" y2="3.018" gradientUnits="userSpaceOnUse"><stop stop-color="#B0CDB7"/><stop offset=".82" stop-color="#C9DDCF"/><stop offset="1" stop-color="#E5EFE7"/></linearGradient><linearGradient id="paint3_linear_356_37975" x1="1.237" y1="-72.048" x2="11.999" y2="-61.286" gradientUnits="userSpaceOnUse"><stop stop-color="#B0CDB7"/><stop offset=".82" stop-color="#C9DDCF"/><stop offset="1" stop-color="#E5EFE7"/></linearGradient><linearGradient id="paint4_linear_356_37975" x1="4.355" y1="-80.144" x2="8.454" y2="-76.045" gradientUnits="userSpaceOnUse"><stop stop-color="#B0CDB7"/><stop offset=".82" stop-color="#C9DDCF"/><stop offset="1" stop-color="#E5EFE7"/></linearGradient><linearGradient id="paint5_linear_356_37975" x1="11.736" y1="-83.978" x2="24.547" y2="-71.167" gradientUnits="userSpaceOnUse"><stop stop-color="#B0CDB7"/><stop offset=".82" stop-color="#C9DDCF"/><stop offset="1" stop-color="#E5EFE7"/></linearGradient><linearGradient id="paint6_linear_356_37975" x1="12.012" y1="4.803" x2="12.001" y2="3.031" gradientUnits="userSpaceOnUse"><stop offset=".28" stop-color="#689171"/><stop offset="1" stop-color="#95BCA0"/></linearGradient><linearGradient id="paint7_linear_356_37975" x1="8.403" y1="-72.497" x2="1.212" y2="-72.497" gradientUnits="userSpaceOnUse"><stop offset=".28" stop-color="#689171"/><stop offset="1" stop-color="#95BCA0"/></linearGradient><linearGradient id="paint8_linear_356_37975" x1="11.989" y1="-77.603" x2="11.989" y2="-83.279" gradientUnits="userSpaceOnUse"><stop offset=".28" stop-color="#689171"/><stop offset="1" stop-color="#95BCA0"/></linearGradient><linearGradient id="paint9_linear_356_37975" x1="18.912" y1="-72.235" x2="21.174" y2="-72.376" gradientUnits="userSpaceOnUse"><stop offset=".28" stop-color="#689171"/><stop offset="1" stop-color="#95BCA0"/></linearGradient><linearGradient id="paint10_linear_356_37975" x1="-5.111" y1="-89.608" x2="20.826" y2="-63.671" gradientUnits="userSpaceOnUse"><stop stop-color="#689171"/><stop offset="1" stop-color="#C9DDCF"/></linearGradient><linearGradient id="paint11_linear_356_37975" x1="4.82" y1="-79.677" x2="15.196" y2="-69.302" gradientUnits="userSpaceOnUse"><stop offset=".28" stop-color="#689171"/><stop offset="1" stop-color="#95BCA0"/></linearGradient><linearGradient id="paint12_linear_356_37975" x1="1.221" y1="22.779" x2="22.618" y2="1.382" gradientUnits="userSpaceOnUse"><stop stop-color="#B0CDB7"/><stop offset=".17" stop-color="#E5EFE7"/><stop offset="1" stop-color="#fff"/></linearGradient><linearGradient id="paint13_linear_356_37975" x1="6.294" y1="16.235" x2="19.562" y2="2.968" gradientUnits="userSpaceOnUse"><stop stop-color="#C9DDCF"/><stop offset=".17" stop-color="#C9DDCF"/><stop offset="1" stop-color="#fff"/></linearGradient><radialGradient id="paint1_radial_356_37975" cx="0" cy="0" r="1" gradientUnits="userSpaceOnUse" gradientTransform="matrix(12 0 0 12 12 12)"><stop stop-color="#606060"/><stop offset=".13" stop-color="#689171" stop-opacity=".87"/><stop offset=".37" stop-color="#B0CDB7" stop-opacity=".63"/><stop offset=".67" stop-color="#C9DDCF" stop-opacity=".33"/><stop offset="1" stop-color="#E5EFE7" stop-opacity="0"/></radialGradient></defs></svg>