<svg width="20" height="20" fill="none" xmlns="http://www.w3.org/2000/svg"><path d="M16.727 8.214l.106.053h0a2 2 0 01-.098 3.52s0 0 0 0L5.07 17.618a2.116 2.116 0 01-.906.215A2 2 0 012.34 15.02s0 0 0 0l2-4.474h0l.004-.011a1.383 1.383 0 000-1.07h0l-.004-.01-2-4.474s0 0 0 0a2 2 0 012.72-2.6s0 0 0 0l11.666 5.833zm-.294 2.975h0l.004-.002a1.334 1.334 0 00.53-1.882l-.382.233.382-.233a1.333 1.333 0 00-.53-.492h0l-.004-.002L4.766 2.978h0l-.007-.004a1.333 1.333 0 00-1.8 1.734h0l.002.004 1.99 4.472c.018.04.033.083.046.126l.106.357h6.114a.333.333 0 010 .666H5.103l-.106.357a1.16 1.16 0 01-.046.126l-1.99 4.472h0l-.002.004a1.333 1.333 0 001.8 1.734h0l.007-.004 11.667-5.833z" fill="#28282C" stroke="#28282C"/></svg>