<svg width="20" height="20" fill="none" xmlns="http://www.w3.org/2000/svg"><path d="M10 7a1.333 1.333 0 00-1.159.667l-.005.009-.005.009a.333.333 0 01-.084.103l.317.388-.317-.388a.333.333 0 01-.478-.058l-.4.3.4-.3a.333.333 0 01-.014-.378l.005-.01.006-.009a2 2 0 011.731-1 2 2 0 01.665 3.88l-.33.12v.5a.333.333 0 01-.097.236l.354.354-.354-.354a.334.334 0 01-.569-.236V10a.333.333 0 01.333-.333A1.333 1.333 0 0010 7zm0 0s0 0 0 0v.5V7s0 0 0 0zm.333 7.1a.75.75 0 00.45-.45.833.833 0 00.05-.317.833.833 0 00-.242-.591l-.258 1.358zm-.652-.803a.632.632 0 01-.001-.056l.014-.029.012-.033a.132.132 0 01.014-.029.83.83 0 01.05-.063.333.333 0 01.101-.066l-.192-.462.192.462a.334.334 0 01.256 0l.193-.462-.193.462a.337.337 0 01.109.073h0a.332.332 0 01.097.237v.02a.334.334 0 01-.02.128h0a.249.249 0 01-.15.15l-.017.007-.015.007a.284.284 0 01-.23 0l-.015-.007-.016-.006a.25.25 0 01-.15-.15l-.008-.022-.01-.021a.2.2 0 01-.02-.09l.001-.026-.002-.024zm-4.034-9.81a7.833 7.833 0 118.704 13.026A7.833 7.833 0 015.647 3.487zm.37 12.472A7.167 7.167 0 1013.982 4.04a7.167 7.167 0 00-7.964 11.92z" fill="#28282C" stroke="#28282C"/></svg>