<svg width="20" height="20" fill="none" xmlns="http://www.w3.org/2000/svg"><path d="M4.667 17.5v.002a.333.333 0 00.5.29l-.5-.292zm0 0V4.167a2 2 0 012-2h6.667a2 2 0 012 2v13.335a.333.333 0 01-.165.289.334.334 0 01-.165.042v0h-.007a.334.334 0 01-.165-.042l-.002-.001-4.58-2.648-.25-.145-.25.145-4.583 2.65-.5-.292zm9.25-1.009l.75.434V4.167a1.334 1.334 0 00-1.333-1.334H6.667a1.333 1.333 0 00-1.333 1.334v12.758l.75-.434 3.75-2.166s0 0 0 0a.333.333 0 01.333 0s0 0 0 0l3.75 2.166z" fill="#28282C" stroke="#28282C"/></svg>