<svg width="24" height="24" fill="none" xmlns="http://www.w3.org/2000/svg"><path d="M18.3 4.667h-.9V3.75c0-.73-.285-1.428-.792-1.944A2.679 2.679 0 0014.7 1h-9c-.716 0-1.402.29-1.908.806A2.78 2.78 0 003 3.75v12.833c0 .73.286 1.428.792 1.944a2.678 2.678 0 001.908.806h.9v.917c0 .73.286 1.428.792 1.944A2.678 2.678 0 009.3 23h9c.716 0 1.402-.29 1.908-.806A2.778 2.778 0 0021 20.25V7.417c0-.73-.285-1.428-.792-1.944a2.679 2.679 0 00-1.908-.806zM4.8 16.583V3.75c0-.243.095-.476.264-.648a.893.893 0 01.636-.269h9c.239 0 .467.097.636.27a.927.927 0 01.264.647v12.833a.926.926 0 01-.264.648.893.893 0 01-.636.269h-9a.893.893 0 01-.636-.269.926.926 0 01-.264-.648zm14.4 3.667a.927.927 0 01-.264.648.893.893 0 01-.636.269h-9a.893.893 0 01-.636-.27.927.927 0 01-.264-.647v-.917h6.3c.716 0 1.402-.29 1.908-.806a2.78 2.78 0 00.792-1.944V6.5h.9a.89.89 0 01.636.269.927.927 0 01.264.648V20.25z" fill="#28282C"/><path d="M12.592 6.893c-.63-.54-1.281-1.097-1.587-1.72a.911.911 0 00-.332-.37.888.888 0 00-1.278.37c-.306.623-.957 1.18-1.586 1.72C6.82 7.74 5.7 8.7 5.7 10.167c0 1.192.479 2.15 1.348 2.697.637.401 1.429.531 2.252.393v2.41h1.8v-2.41c.207.035.416.053.626.054a3.03 3.03 0 001.626-.447c.87-.547 1.348-1.505 1.348-2.697 0-1.468-1.12-2.427-2.108-3.274zm-.186 4.412c-.43.27-1.121.223-1.804-.125a.886.886 0 00-.805 0c-.682.348-1.372.396-1.803.125-.408-.258-.494-.761-.494-1.138 0-.614.68-1.196 1.467-1.87.434-.358.846-.742 1.233-1.152.387.41.799.794 1.233 1.152.787.674 1.467 1.256 1.467 1.87 0 .377-.086.88-.494 1.138z" fill="#28282C"/></svg>