<svg width="29" height="26" fill="none" xmlns="http://www.w3.org/2000/svg"><path d="M27.96 22.093l-1.333-5.146-4.2-15.454A1.333 1.333 0 0020.8.547L15.64 1.88a1.333 1.333 0 00-.973-.44H1.333A1.333 1.333 0 000 2.773v21.334a1.333 1.333 0 001.333 1.333h13.334A1.334 1.334 0 0016 24.107V13.44l2.933 10.96a1.334 1.334 0 001.334.987c.115.013.231.013.346 0l6.44-1.72a1.335 1.335 0 00.814-.627 1.4 1.4 0 00.093-.947zm-21.333.734h-4V20.16h4v2.667zm0-5.334h-4v-8h4v8zm0-10.666h-4V4.16h4v2.667zm6.666 16h-4V20.16h4v2.667zm0-5.334h-4v-8h4v8zm0-10.666h-4V4.16h4v2.667zm3-2.32l3.867-1.04.693 2.573-3.866 1.04-.694-2.573zm3.454 12.88L17.68 9.653l3.867-1.04 2.066 7.734-3.866 1.04zm1.333 5.146l-.693-2.573 3.866-1.04.694 2.573-3.867 1.04z" fill="#28282C"/></svg>