<svg version="1.0" xmlns="http://www.w3.org/2000/svg" width="682.667" height="682.667" viewBox="0 0 512 512"><path d="M129 32.5V65H64v447h319v-65h65V0H129v32.5zm289 191V417h-35V65H159V30h259v193.5zm-65 65V482H94V95h259v193.5z"/><path d="M124 140v15h30v-30h-30v15zm52 82.1c-26.1 34.1-48.2 63-49.1 64.2-1.6 2.2-.6 3.6 47 65.6 26.8 34.9 49.1 63.6 49.6 63.7.8.2 68.4-87.1 95.2-122.9l3.2-4.3-48.9-63.9c-26.9-35.1-49.1-63.9-49.2-64-.2-.2-21.7 27.6-47.8 61.6zm78 26.6c16.2 21.3 29.6 39 29.8 39.3.3.7-55.2 73.6-58.8 77.3-1.7 1.8-2.8.5-31.5-37-16.4-21.3-29.8-39.3-29.8-39.9 0-.6 11.1-15.7 24.8-33.5 31.3-40.8 34.5-44.9 35.3-44.8.4 0 14 17.4 30.2 38.6zM293 437v15h30v-30h-30v15z"/></svg>