<svg width="37" height="23" xmlns="http://www.w3.org/2000/svg"><g fill="#fff" fill-rule="evenodd"><path d="M6.484 15.91c.089.05.352-.23.782-.76.43-.53 1.03-1.31 1.826-2.238a35.796 35.796 0 012.995-3.109 31.776 31.776 0 014.252-3.286 30.16 30.16 0 013.098-1.744 31.893 31.893 0 016.248-2.266 34.36 34.36 0 015.391-.885c1.558-.132 2.831-.143 3.718-.16.444-.009.79-.02 1.03-.044.238-.024.368-.062.376-.12.008-.058-.106-.133-.333-.218a7.24 7.24 0 00-1.012-.274C33.967.62 32.66.444 31.031.426a26.863 26.863 0 00-5.696.559A28.262 28.262 0 0018.69 3.25a27.405 27.405 0 00-3.266 1.882 27.35 27.35 0 00-4.348 3.636 25.373 25.373 0 00-2.84 3.494c-.707 1.053-1.182 1.948-1.465 2.585-.282.636-.375 1.012-.286 1.062z"/><path d="M15.429 15.814c-.046-.1-.489-.01-1.24.25-.752.26-1.813.692-3.106 1.27a134.072 134.072 0 00-4.506 2.135c-1.69.834-3.544 1.778-5.508 2.787a25.3 25.3 0 00.658-1.773c.729-2.205 1.124-4.363 1.332-6.35a40.06 40.06 0 00.19-5.358c-.208-3.603-.464-5.865-.713-5.862-.25.003-.44 2.27-.544 5.878.001 1.624.01 3.533-.088 5.606-.099 2.073-.307 4.306-.808 6.547a25.479 25.479 0 01-.468 1.793c2.13-.868 4.146-1.697 5.958-2.468a145.664 145.664 0 004.75-2.107c1.329-.624 2.378-1.159 3.08-1.565.702-.406 1.059-.683 1.013-.783z"/></g></svg>