<svg width="395" height="29" xmlns="http://www.w3.org/2000/svg"><path d="M18.764 23.44l-3.893 5.067a20.03 20.03 0 01-4.05-4.839c-1.088-1.818-1.912-3.889-2.473-6.212l-1.053.317c0 .047-.006.3-.017.757a23.38 23.38 0 01-.158 1.918 27.66 27.66 0 01-.438 2.622c-.2.927-.48 1.883-.842 2.868a11.554 11.554 0 01-1.386 2.675L.526 23.404c.678-1.009 1.216-1.924 1.613-2.745a19.22 19.22 0 001.053-2.71 31.977 31.977 0 01-.667-.14 5.883 5.883 0 01-.666-.194 19.412 19.412 0 01-.79-.3A32.7 32.7 0 010 16.858l.491-1.337c1.193.54 2.221.81 3.087.81.28-1.69.327-3.432.14-5.227-.187-1.795-.842-3.549-1.964-5.262l1.262-.844A24.187 24.187 0 014.49 7.356c.421.774.79 1.572 1.105 2.393.316.821.59 1.683.824 2.587.234.903.433 1.894.597 2.973l.298-.14c.199-.094.392-.223.579-.387-.07-.564-.129-1.08-.176-1.549-.047-.47-.07-.938-.07-1.408 0-.492.018-1.02.053-1.583.035-.564.1-1.232.193-2.007l1.227.282-.017.58c-.012.388-.006.845.017 1.373.024.528.064 1.068.123 1.62.058.55.158 1.002.298 1.354 1.31-1.243 2.32-2.604 3.034-4.082.713-1.479 1.163-3.133 1.35-4.963l4.314 3.907c-1.239 3.167-3.764 5.854-7.576 8.06.96 1.83 2.081 3.308 3.367 4.434 1.287 1.126 2.865 2.006 4.735 2.64zm18.765.738l-4.104 4.505c-1.496-3.026-2.21-5.96-2.14-8.798a30.534 30.534 0 01-2.788 2.727c-.97.833-2.11 1.684-3.42 2.552-.35.727-.648 1.314-.894 1.76-.245.445-.555.926-.93 1.443l-.981-.845c.187-.258.31-.434.368-.528a6.57 6.57 0 00.263-.493c-.187.118-.339.211-.456.282-.117.07-.24.14-.368.21a17.49 17.49 0 00-.403.23c-.14.082-.316.182-.527.299l-.49-1.056.894-.704a26.583 26.583 0 001.42-1.196c.234-.212.48-.446.737-.704a17.25 17.25 0 00.052-3.872 16.966 16.966 0 00-.754-3.537 18.838 18.838 0 00-1.455-3.308 34.335 34.335 0 00-2.052-3.22l3.753-4.681c1.38 2.722 2.32 5.408 2.823 8.06.503 2.65.485 5.337-.052 8.059.888-1.08 1.7-2.2 2.437-3.361a35.764 35.764 0 002.035-3.678 43.445 43.445 0 001.718-4.135 64.314 64.314 0 001.49-4.77l1.193 1.62.877-1.338.877.704-.877 1.795 1.578 2.147a45.033 45.033 0 01-1.49 2.939 41.038 41.038 0 01-1.631 2.657c.234.915.462 1.748.684 2.499.222.75.462 1.449.719 2.094.257.645.538 1.267.842 1.865.304.598.654 1.19 1.052 1.777zM57.66 5.666c-.444.61-.883 1.138-1.315 1.584-.433.446-.93.868-1.49 1.267a17.89 17.89 0 01-1.93 1.179c-.725.387-1.613.815-2.665 1.285.63 1.689 1.034 3.302 1.21 4.839a15.69 15.69 0 01-.106 4.452 16.554 16.554 0 01-1.35 4.24 26.951 26.951 0 01-2.49 4.206l-3.963-4.188a11.656 11.656 0 002.21-2.692 16.311 16.311 0 001.525-3.308 15.46 15.46 0 00.736-3.52c.106-1.185.053-2.293-.157-3.326-1.076.141-2.064.17-2.964.088-.9-.082-1.742-.24-2.525-.475a14.875 14.875 0 01-2.228-.862 59.34 59.34 0 01-2.104-1.073l3.086-3.837c.562.329 1.07.605 1.526.828.456.222.9.41 1.333.563a15.3 15.3 0 001.35.404 19.5 19.5 0 001.544.317c-.07-.164-.135-.31-.193-.44a11.085 11.085 0 00-.176-.37 14.548 14.548 0 01-.193-.404c-.07-.153-.163-.346-.28-.58l1.157-.6c.374.564.66 1.01.86 1.338.198.329.426.716.683 1.162.795 0 1.596-.07 2.403-.211a16.169 16.169 0 002.28-.564c.713-.234 1.362-.51 1.946-.827a6.295 6.295 0 001.473-1.073l.807.598zm18.31 18.055l-3.508 5.138a23.28 23.28 0 01-1.876-3.308 26.275 26.275 0 01-1.42-3.73l-3.017-2.675a24.923 24.923 0 01-.86 3.625c-.362 1.126-.8 2.111-1.315 2.956-.514.845-1.093 1.507-1.736 1.988a3.514 3.514 0 01-2.157.722c-1.052 0-1.9-.317-2.543-.95-.643-.634-.964-1.443-.964-2.429 0-.938.275-1.73.824-2.375.55-.646 1.222-.968 2.017-.968.467 0 .906.1 1.315.299.41.2.871.557 1.386 1.073.28-.352.531-.75.754-1.196.222-.446.42-.921.596-1.426.175-.504.321-1.02.438-1.548.117-.528.222-1.05.316-1.566l-3.367-3.027 1.087-1.549 2.63 2.288c.024-.54.042-1.026.053-1.46a14.68 14.68 0 00-.017-1.25 18.612 18.612 0 00-.316-2.57 5.549 5.549 0 01-.79-.404 6.158 6.158 0 01-.806-.616c-.292-.258-.631-.58-1.017-.967a49.643 49.643 0 01-1.385-1.461l.56-.458 1.281.528c.34.141.742.258 1.21.352a2.915 2.915 0 00-.316-.844 4.13 4.13 0 00-.56-.81l1.122-.845c.304.4.555.786.754 1.162.198.375.415.821.649 1.337.42-.023.812-.088 1.175-.193a4.618 4.618 0 001.052-.458c.339-.2.69-.451 1.052-.756.362-.306.766-.68 1.21-1.127l3.262 4.012c-.374.352-.649.593-.824.722l-.65.475.632.246c-.538 1.502-.818 2.898-.842 4.189-.023 1.29.158 2.51.544 3.66a11.87 11.87 0 001.701 3.255c.748 1.02 1.637 2 2.666 2.939zM70.323 9.89c-.374.14-.72.252-1.035.334a6.332 6.332 0 01-2.034.193 30.167 30.167 0 01-1.21-.105 25.92 25.92 0 01.438 3.044c.082.997.064 2.13-.052 3.396l2.069 1.795c0-.868.017-1.677.053-2.428.035-.75.11-1.472.228-2.165.116-.692.298-1.372.543-2.04.246-.67.579-1.344 1-2.024zm16.905-5.667c0 .704-.082 1.437-.245 2.2-.164.762-.444 1.754-.842 2.974l-1.333-.634c.024-.352.041-.657.053-.915.012-.258.017-.48.017-.668 0-.845-.064-1.62-.193-2.323a15.846 15.846 0 00-.648-2.358L86.14 0c.725 1.22 1.087 2.628 1.087 4.223zm7.26 19.955l-4.103 4.505c-1.497-3.026-2.21-5.96-2.14-8.798a30.534 30.534 0 01-2.788 2.727c-.97.833-2.11 1.684-3.42 2.552-.35.727-.648 1.314-.894 1.76-.246.445-.555.926-.93 1.443l-.982-.845c.188-.258.31-.434.369-.528.058-.094.146-.258.263-.493-.187.118-.34.211-.456.282-.117.07-.24.14-.368.21-.129.071-.263.148-.404.23-.14.082-.315.182-.526.299l-.49-1.056.893-.704a26.583 26.583 0 001.421-1.196c.234-.212.48-.446.737-.704a17.25 17.25 0 00.052-3.872 16.966 16.966 0 00-.754-3.537 18.838 18.838 0 00-1.456-3.308 34.335 34.335 0 00-2.051-3.22l3.753-4.681c1.38 2.722 2.32 5.408 2.823 8.06.503 2.65.485 5.337-.053 8.059.889-1.08 1.701-2.2 2.438-3.361a35.764 35.764 0 002.034-3.678 43.445 43.445 0 001.719-4.135 64.314 64.314 0 001.49-4.77l1.193 1.62.877-1.338.877.704-.877 1.795 1.578 2.147a45.033 45.033 0 01-1.49 2.939 41.038 41.038 0 01-1.631 2.657c.233.915.461 1.748.684 2.499.222.75.461 1.449.719 2.094.257.645.537 1.267.841 1.865.304.598.655 1.19 1.053 1.777zm20.624-15.555l-.509.281a4.629 4.629 0 00-.684.458 19.12 19.12 0 01-.456.352c.117.164.21.299.281.404.07.106.14.206.21.3.07.093.14.193.21.299.071.105.165.24.281.404l-1.157.81a16.622 16.622 0 01-.596-.74 11.51 11.51 0 00-.561-.704c-.304.33-.556.617-.754.863a4.807 4.807 0 00-.527.81c-.152.293-.298.639-.438 1.038s-.292.903-.456 1.513c-.725-1.009-1.163-2.088-1.315-3.238-.152-1.15.123-2.452.824-3.906-.795-.4-1.438-.663-1.929-.792a6.19 6.19 0 00-1.578-.194c-.959 0-1.848.217-2.666.651a6.697 6.697 0 00-2.14 1.813c-.607.774-1.087 1.677-1.437 2.71-.351 1.032-.527 2.147-.527 3.343 0 1.244.21 2.388.632 3.432a8.197 8.197 0 001.753 2.71 7.88 7.88 0 002.666 1.777c1.029.422 2.151.633 3.367.633.655 0 1.257-.058 1.806-.175a6.117 6.117 0 001.614-.599 8.571 8.571 0 001.56-1.09 15.582 15.582 0 001.614-1.655l.701.563-6.102 7.743-1.228.123c-.35.035-.62.053-.807.053-1.496 0-2.887-.293-4.173-.88a10.103 10.103 0 01-3.332-2.428c-.936-1.033-1.666-2.247-2.193-3.643-.526-1.396-.789-2.915-.789-4.558 0-1.665.252-3.226.754-4.68.503-1.455 1.181-2.722 2.035-3.801a9.637 9.637 0 013.016-2.552 7.773 7.773 0 013.735-.933 8.9 8.9 0 011.017.053c.304.035.626.1.965.194.34.094.701.217 1.087.37.386.152.848.345 1.386.58.327-.329.62-.598.877-.81.257-.21.62-.48 1.087-.809l2.876 3.907zm19.992 14.816l-3.893 5.068a20.03 20.03 0 01-4.051-4.839c-1.088-1.818-1.912-3.889-2.473-6.212l-1.052.317c0 .047-.006.3-.018.757a23.38 23.38 0 01-.158 1.918c-.093.821-.24 1.695-.438 2.622-.199.927-.48 1.883-.842 2.868a11.554 11.554 0 01-1.385 2.675l-3.928-5.209c.678-1.009 1.215-1.924 1.613-2.745a19.22 19.22 0 001.052-2.71 31.978 31.978 0 01-.666-.14 5.883 5.883 0 01-.667-.194 19.412 19.412 0 01-.789-.3 31.62 31.62 0 01-1.07-.457l.491-1.337c1.193.54 2.222.81 3.087.81.28-1.69.327-3.432.14-5.227-.187-1.795-.841-3.549-1.964-5.262l1.263-.844a24.187 24.187 0 011.473 2.358c.42.774.79 1.572 1.105 2.393.315.821.59 1.683.824 2.587.234.903.433 1.894.596 2.973l.298-.14c.2-.094.392-.223.579-.387a63.75 63.75 0 01-.175-1.549c-.047-.47-.07-.938-.07-1.408 0-.492.017-1.02.052-1.583.035-.564.1-1.232.193-2.007l1.228.282-.018.58c-.012.388-.006.845.018 1.373.023.528.064 1.068.122 1.62.059.55.158 1.002.299 1.354 1.309-1.243 2.32-2.604 3.033-4.082.714-1.479 1.164-3.133 1.35-4.963l4.315 3.907c-1.24 3.167-3.765 5.854-7.576 8.06.959 1.83 2.08 3.308 3.367 4.434 1.286 1.126 2.864 2.006 4.735 2.64zm18.764.74l-4.103 4.504c-1.497-3.026-2.21-5.96-2.14-8.798a30.534 30.534 0 01-2.788 2.727c-.97.833-2.11 1.684-3.42 2.552a38.12 38.12 0 01-.894 1.76 14.29 14.29 0 01-.93 1.443l-.982-.845c.187-.258.31-.434.369-.528.058-.094.146-.258.263-.493-.187.118-.34.211-.456.282-.117.07-.24.14-.369.21-.128.071-.263.148-.403.23-.14.082-.316.182-.526.299l-.491-1.056.894-.704a26.583 26.583 0 001.42-1.196c.235-.212.48-.446.737-.704a17.25 17.25 0 00.053-3.872 17.03 17.03 0 00-.754-3.537 18.839 18.839 0 00-1.456-3.308 34.336 34.336 0 00-2.052-3.22l3.753-4.681c1.38 2.722 2.321 5.408 2.824 8.06.502 2.65.485 5.337-.053 8.059.889-1.08 1.701-2.2 2.438-3.361a35.764 35.764 0 002.034-3.678 43.445 43.445 0 001.719-4.135 64.314 64.314 0 001.49-4.77l1.193 1.62.877-1.338.876.704-.876 1.795 1.578 2.147a45.034 45.034 0 01-1.49 2.939 41.038 41.038 0 01-1.632 2.657c.234.915.462 1.748.684 2.499.222.75.462 1.449.72 2.094.257.645.537 1.267.841 1.865.304.598.655 1.19 1.052 1.777zm21.395-1.901l-3.928 5.807c-.678.117-1.222.2-1.63.246-.41.047-.813.07-1.21.07-1.801 0-3.368-.257-4.7-.774-1.334-.516-2.444-1.249-3.333-2.2-.888-.95-1.549-2.1-1.981-3.448-.433-1.35-.65-2.857-.65-4.523v-.704c-.49.352-.882.722-1.174 1.109l-.439.58-.982-.562a9.58 9.58 0 01.561-.88c.187-.258.386-.51.597-.757.21-.246.444-.487.701-.721.257-.235.561-.493.912-.775.047-.445.111-.856.193-1.231.082-.376.193-.78.333-1.215.14-.434.322-.92.544-1.46.222-.54.508-1.197.86-1.971a11.23 11.23 0 01-.773-.422 138.8 138.8 0 01-.754-.458 21.763 21.763 0 01-.894-.58l-1.157-.792.736-.81a9.23 9.23 0 001.666.774c.269.094.567.176.894.247.328.07.725.152 1.193.246.164-.258.31-.475.438-.651.129-.176.322-.428.58-.757l.84.669c-.163.235-.274.399-.332.493l-.263.422a27.12 27.12 0 002.963.106 12.96 12.96 0 002.35-.264 8.56 8.56 0 002-.687c.62-.305 1.256-.692 1.911-1.161l3.507 3.871c-2.127 1.267-4.296 1.924-6.506 1.971-2.21.047-4.635-.504-7.278-1.654a13.04 13.04 0 00-.578 2.094 14.423 14.423 0 00-.228 2.2c1.029-.258 1.935-.423 2.718-.493a7.466 7.466 0 012.192.106c.678.14 1.333.387 1.964.739.632.352 1.31.833 2.034 1.443l-3.612 3.8c-.889-.891-1.725-1.56-2.508-2.005a7.95 7.95 0 00-2.543-.916c.304 1.267.73 2.358 1.28 3.274.55.915 1.199 1.665 1.947 2.252a7.357 7.357 0 002.525 1.285c.936.27 1.93.404 2.982.404.42 0 .841-.023 1.262-.07.421-.047.871-.123 1.35-.229a23.877 23.877 0 003.42-1.038zm27.814-15.31a28.23 28.23 0 01-.754.722c-.316.293-.684.604-1.105.933l.947.985a12.59 12.59 0 00-2.122 4.223 18.1 18.1 0 00-.72 4.804 18.406 18.406 0 00.544 4.752c.386 1.536.953 2.88 1.702 4.03l-.702.95c-1.31-1.361-2.362-2.822-3.157-4.382-.795-1.56-1.286-3.42-1.473-5.578a53.629 53.629 0 01-.193-4.03 26.024 26.024 0 01.193-3.572c-.444.07-.923.123-1.438.158a9.92 9.92 0 01-1.56-.018 9.03 9.03 0 01-1.614-.299 6.562 6.562 0 01-1.596-.686c.421 1.197.784 2.47 1.088 3.819a30.19 30.19 0 01.63 4.1c.188 2.064.124 3.977-.192 5.736-.316 1.76-.824 3.344-1.526 4.752l-4.49-4.224c.539-.915 1.036-2.076 1.492-3.484a26.297 26.297 0 001.017-4.558 28.76 28.76 0 00.228-5.05 19.087 19.087 0 00-.877-5.033l.631-.387c.491.75.935 1.596 1.333 2.534l2.385-3.238a6.993 6.993 0 001.982 2.587c.853.692 1.911.98 3.174.862.163-.54.333-1.073.508-1.601a20.22 20.22 0 01.579-1.531l2.175 2.288a11.94 11.94 0 001.157-.704c.374-.258.748-.528 1.122-.81l.632.95zm21.009 4.998c0 1.314-.515 2.587-1.543 3.819-1.03 1.231-2.467 2.246-4.314 3.044l-5.191-2.71c.49 2.323.537 4.517.14 6.581-.398 2.065-1.333 3.965-2.806 5.702l-3.507-4.012c.725-.986 1.344-2.1 1.859-3.344a15.283 15.283 0 001.034-3.906 16.398 16.398 0 000-4.153 12.357 12.357 0 00-1.21-4.012c-.21.21-.391.404-.543.58-.152.176-.316.376-.491.599-.176.222-.363.48-.562.774-.198.293-.438.663-.719 1.108l-1.052-.563a45.3 45.3 0 01.702-1.179c.21-.34.415-.645.613-.915.2-.27.398-.528.597-.774.198-.246.426-.499.684-.757l-1.509-1.83.772-.915c.187.211.345.387.474.528.128.14.245.276.35.405l.333.405c.117.14.27.328.456.563.983-.751 2.005-1.308 3.07-1.672 1.063-.364 2.262-.546 3.594-.546 1.216 0 2.362.2 3.438.599 1.075.399 2.005.932 2.788 1.601a7.845 7.845 0 011.859 2.288 5.65 5.65 0 01.684 2.692zm-5.226-1.549c0-1.173-.439-2.105-1.315-2.797-.877-.693-2.052-1.039-3.525-1.039-.819 0-1.573.123-2.263.37-.69.246-1.443.65-2.262 1.214a27.302 27.302 0 011.912 3.343 21.655 21.655 0 011.315 3.555c1.122-.211 2.075-.446 2.858-.704.784-.258 1.415-.575 1.894-.95.48-.375.83-.81 1.053-1.302.222-.493.333-1.056.333-1.69zm24.481 13.761l-4.103 4.505c-1.497-3.026-2.21-5.96-2.14-8.798a30.534 30.534 0 01-2.788 2.727c-.97.833-2.11 1.684-3.42 2.552a38.12 38.12 0 01-.894 1.76 14.29 14.29 0 01-.93 1.443l-.982-.845c.187-.258.31-.434.369-.528.058-.094.146-.258.263-.493a30.73 30.73 0 01-.456.282c-.117.07-.24.14-.369.21-.128.071-.263.148-.403.23-.14.082-.316.182-.526.299l-.491-1.056.894-.704a26.583 26.583 0 001.42-1.196c.235-.212.48-.446.737-.704a17.25 17.25 0 00.053-3.872 17.03 17.03 0 00-.754-3.537 18.838 18.838 0 00-1.456-3.308 34.335 34.335 0 00-2.052-3.22l3.753-4.681c1.38 2.722 2.321 5.408 2.824 8.06.502 2.65.485 5.337-.053 8.059.889-1.08 1.701-2.2 2.438-3.361a35.764 35.764 0 002.034-3.678 43.445 43.445 0 001.719-4.135 64.314 64.314 0 001.49-4.77l1.193 1.62.877-1.338.876.704-.876 1.795 1.578 2.147a45.033 45.033 0 01-1.49 2.939 41.038 41.038 0 01-1.632 2.657c.234.915.462 1.748.684 2.499.222.75.462 1.449.72 2.094.257.645.537 1.267.841 1.865.304.598.655 1.19 1.052 1.777zm20.448-.528l-4.7 4.928a54.661 54.661 0 00-.456-4.77 34.409 34.409 0 00-.841-4.134 28.045 28.045 0 00-1.263-3.66 28.682 28.682 0 00-1.719-3.38c-.046 2.722-.602 5.409-1.666 8.06-1.063 2.651-2.577 5.338-4.542 8.06l-3.823-5.033a25.318 25.318 0 002.841-2.622 23.118 23.118 0 002.543-3.256 21.012 21.012 0 001.912-3.713c.514-1.302.83-2.633.947-3.994a17.77 17.77 0 00-1.158-1.302 42.97 42.97 0 00-1.368-1.302l.737-1.056c.374.258.643.434.807.528.163.093.409.258.736.492a28.6 28.6 0 01-.193-.492 9.297 9.297 0 00-.228-.528l1.158-.845c.257.54.502 1.038.736 1.496.234.457.374 1.026.421 1.707 2.596 2.135 4.642 4.428 6.138 6.88a22.439 22.439 0 012.981 7.936zm21.536-7.18c0 4.647-2.49 8.225-7.471 10.735l.596 1.162a41.47 41.47 0 01-1.368.246c-.304.047-.561.07-.771.07-.21 0-.415-.023-.614-.07a68.5 68.5 0 01-.86-.211c-.327.117-.625.21-.894.281-.269.07-.695.176-1.28.317l-.386-.774.912-.387c-1.263-.587-2.367-1.297-3.314-2.13a13.122 13.122 0 01-2.368-2.71 11.648 11.648 0 01-1.894-6.317c0-.938.105-1.83.316-2.675.21-.844.561-1.66 1.052-2.446.491-.786 1.14-1.554 1.947-2.305.806-.75 1.806-1.513 2.998-2.288l-1.332-1.935c.912-.07 1.654-.112 2.227-.123.573-.012 1.064 0 1.473.035.41.035.795.1 1.157.193l1.35.352a19.21 19.21 0 011.123-.246c.374-.07.9-.164 1.578-.282l.176.81-1.123.387c4.513 2.58 6.77 6.018 6.77 10.312zm-3.368 1.655c0-2.135-.66-3.824-1.981-5.068-1.321-1.243-3.08-1.947-5.279-2.112l-2.174-3.097a23.45 23.45 0 00-1.719 1.971c-.468.61-.848 1.203-1.14 1.777a7.339 7.339 0 00-.631 1.725 8.281 8.281 0 00-.193 1.812c0 .916.123 1.784.368 2.605a6.297 6.297 0 001.158 2.2c.526.645 1.21 1.202 2.051 1.671.842.47 1.86.81 3.052 1.02l1.894 3.661c.888-.774 1.625-1.496 2.21-2.164.584-.67 1.052-1.32 1.402-1.954a7.46 7.46 0 00.754-1.935 9.354 9.354 0 00.228-2.112zm33.145 5.314l-3.893 5.068a20.03 20.03 0 01-4.051-4.839c-1.087-1.818-1.912-3.889-2.473-6.212l-.298.159c-.199.105-.45.158-.754.158a14.6 14.6 0 01-.175 2.13 26.51 26.51 0 01-1.157 4.68c-.258.74-.539 1.367-.843 1.883l-1.157-.704c.444-1.455.713-2.845.807-4.17a17.168 17.168 0 00-.14-3.819c-.234 0-.544-.03-.93-.088a26.24 26.24 0 01-.947-.158 3.912 3.912 0 00-.438-.07 16.181 16.181 0 01-1.21 3.325 19.887 19.887 0 01-1.842 3.027 19.14 19.14 0 01-2.332 2.622 17.712 17.712 0 01-2.683 2.076l-3.894-5.068c1.965-.469 3.8-1.308 5.507-2.516a12.782 12.782 0 003.998-4.558c-.748-.328-1.531-.786-2.35-1.372a20.528 20.528 0 01-2.35-1.971 17.924 17.924 0 01-2.016-2.323c-.596-.821-1.047-1.619-1.35-2.393l4.314-3.907c.093.915.344 1.93.754 3.045a16.852 16.852 0 001.666 3.308 18.057 18.057 0 002.49 3.062 12.04 12.04 0 003.262 2.305c-.14-.892-.515-1.918-1.123-3.08a12.28 12.28 0 00-2.42-3.185l3.543-3.8a11.12 11.12 0 011.42 2.322c.386.845.696 1.701.93 2.57.233.868.403 1.724.508 2.569.105.844.158 1.595.158 2.252l.719-.616c.48-.41 1.023-1.073 1.631-1.988.608-.915 1.192-2.094 1.754-3.537.56-1.443.935-3.185 1.122-5.227l4.314 3.907c-.304.774-.678 1.56-1.122 2.358a19.842 19.842 0 01-1.473 2.27 17.559 17.559 0 01-1.719 1.97A9.841 9.841 0 01307 16.366c.959 1.83 2.081 3.309 3.367 4.435 1.286 1.126 2.865 2.006 4.735 2.64zm21.15-1.161l-3.929 5.807c-.678.117-1.221.2-1.63.246-.41.047-.813.07-1.21.07-1.801 0-3.368-.257-4.7-.774-1.333-.516-2.444-1.249-3.333-2.2-.888-.95-1.549-2.1-1.981-3.448-.433-1.35-.65-2.857-.65-4.523v-.704c-.49.352-.882.722-1.174 1.109l-.438.58-.983-.562a9.58 9.58 0 01.562-.88c.187-.258.385-.51.596-.757.21-.246.444-.487.701-.721.258-.235.562-.493.912-.775.047-.445.111-.856.193-1.231.082-.376.193-.78.333-1.215.14-.434.322-.92.544-1.46.222-.54.509-1.197.86-1.971-.281-.14-.538-.282-.772-.422a138.8 138.8 0 01-.754-.458 21.763 21.763 0 01-.895-.58l-1.157-.792.736-.81a9.23 9.23 0 001.666.774c.27.094.567.176.895.247.327.07.725.152 1.192.246.164-.258.31-.475.439-.651.128-.176.321-.428.578-.757l.842.669a12.58 12.58 0 00-.333.493l-.263.422a27.12 27.12 0 002.964.106 12.96 12.96 0 002.35-.264 8.56 8.56 0 001.999-.687c.62-.305 1.257-.692 1.911-1.161l3.508 3.871c-2.128 1.267-4.297 1.924-6.507 1.971-2.21.047-4.635-.504-7.277-1.654a13.04 13.04 0 00-.579 2.094 14.423 14.423 0 00-.228 2.2c1.029-.258 1.935-.423 2.718-.493a7.466 7.466 0 012.192.106c.678.14 1.333.387 1.964.739.632.352 1.31.833 2.035 1.443l-3.613 3.8c-.888-.891-1.724-1.56-2.508-2.005a7.95 7.95 0 00-2.542-.916c.303 1.267.73 2.358 1.28 3.274.55.915 1.198 1.665 1.946 2.252a7.357 7.357 0 002.526 1.285c.935.27 1.929.404 2.98.404.422 0 .843-.023 1.264-.07.42-.047.87-.123 1.35-.229a23.877 23.877 0 003.42-1.038zm19.606-5.56a7.796 7.796 0 01-.947.861c-.374.294-.778.581-1.21.863a13.898 13.898 0 01-2.718 1.372c.093 1.01.192 1.86.298 2.552.105.692.24 1.308.403 1.848.164.54.368 1.055.614 1.548.245.493.567 1.044.964 1.654l-.701.95a23.06 23.06 0 01-1.684-1.935c-.467-.61-.877-1.22-1.227-1.83a11.63 11.63 0 01-.877-1.9 16.72 16.72 0 01-.596-2.148l-.456.018a6.4 6.4 0 01-1.158-.088c-.467-.07-.982-.2-1.543-.387a5.019 5.019 0 01-1.578-.88c.093.634.122 1.332.087 2.094a17.017 17.017 0 01-.28 2.358c-.152.81-.357 1.619-.614 2.428-.257.81-.561 1.567-.912 2.27l-4.49-4.223a32.286 32.286 0 001.491-3.871 27.483 27.483 0 001.017-4.505c.223-1.572.299-3.185.228-4.84a18.775 18.775 0 00-.876-4.909l.63-.387c.445.68.843 1.373 1.193 2.077.351.703.66 1.46.93 2.27.269.809.508 1.689.719 2.64.21.95.397 2 .561 3.149l1.543-2.252c.164.492.415.92.754 1.284.34.364.678.669 1.017.915.34.247.638.428.895.546l.386.176c0-1.173.029-2.247.087-3.22.059-.974.164-1.901.316-2.78.152-.88.357-1.743.614-2.588a27.36 27.36 0 01.947-2.604l4.454 4.646c-.748 1.267-1.35 2.48-1.806 3.642a22.746 22.746 0 00-1.07 3.537 50.5 50.5 0 001.07-.264c.316-.082.625-.17.93-.264a14.019 14.019 0 001.963-.774l.632.95zm18.554 7.46l-4.104 4.505c-1.496-3.026-2.21-5.96-2.14-8.798a30.534 30.534 0 01-2.788 2.727c-.97.833-2.11 1.684-3.42 2.552-.35.727-.648 1.314-.894 1.76-.245.445-.555.926-.93 1.443l-.981-.845c.187-.258.31-.434.368-.528.058-.094.146-.258.263-.493-.187.118-.339.211-.456.282-.117.07-.24.14-.368.21-.129.071-.263.148-.404.23-.14.082-.315.182-.526.299l-.49-1.056.894-.704a26.583 26.583 0 001.42-1.196c.234-.212.48-.446.737-.704a17.25 17.25 0 00.052-3.872 16.966 16.966 0 00-.754-3.537 18.838 18.838 0 00-1.455-3.308 34.336 34.336 0 00-2.052-3.22l3.753-4.681c1.38 2.722 2.32 5.408 2.823 8.06.503 2.65.485 5.337-.052 8.059.888-1.08 1.7-2.2 2.437-3.361a35.764 35.764 0 002.034-3.678 43.445 43.445 0 001.72-4.135 64.314 64.314 0 001.49-4.77l1.192 1.62.877-1.338.877.704-.877 1.795 1.578 2.147a45.033 45.033 0 01-1.49 2.939 41.038 41.038 0 01-1.631 2.657c.234.915.462 1.748.684 2.499.222.75.462 1.449.719 2.094.257.645.538 1.267.842 1.865.304.598.654 1.19 1.052 1.777zM395 10.03l-.701.845a65.092 65.092 0 01-.877-.774 12.21 12.21 0 00-.667-.563c-.21-.165-.432-.34-.666-.528a38.239 38.239 0 00-.912-.704c-.35 1.76-.497 3.396-.438 4.91.058 1.513.25 2.903.578 4.17a18.033 18.033 0 001.263 3.467c.514 1.044 1.04 2 1.578 2.868l-3.402 4.786c-.795-1.032-1.438-2.03-1.929-2.991a13.12 13.12 0 01-1.087-2.904 13.72 13.72 0 01-.369-3.062 28.284 28.284 0 01.193-3.466l-1.894.21c-.49 5.538-2.408 9.597-5.752 12.178l-3.963-5.35c3.765-1.947 6.29-4.082 7.576-6.405-.468.305-.918.61-1.35.915l-.65.458a23.107 23.107 0 01-2.244-1.725c-.608-.54-1.099-1.073-1.473-1.601a5.518 5.518 0 01-.807-1.619 6.349 6.349 0 01-.245-1.812c0-.892.21-1.737.631-2.534.42-.798 1-1.496 1.736-2.095a8.813 8.813 0 012.543-1.425 8.886 8.886 0 013.086-.528c.468 0 .912.03 1.333.088.421.059.854.153 1.298.282.444.129.912.305 1.403.528.491.223 1.04.498 1.648.827a9.79 9.79 0 01.299-.563l.245-.423c.082-.14.175-.281.28-.422.106-.14.229-.329.369-.563l.807.563c-.117.235-.217.428-.299.58-.081.153-.151.3-.21.44a9.52 9.52 0 00-.175.458l-.228.634c.327.21.625.422.894.633l.807.634c.269.21.543.445.824.703.28.259.596.552.947.88zm-5.05-2.534a10.672 10.672 0 00-2.123-.65 10.98 10.98 0 00-2.157-.23c-1.332 0-2.396.323-3.191.968-.795.646-1.193 1.52-1.193 2.622 0 .822.28 1.59.842 2.306.561.715 1.356 1.343 2.385 1.882 0-.047.018-.246.053-.598s.052-.88.052-1.584c0-.704-.058-1.443-.175-2.217l.982-.281c.093.492.17 1.044.228 1.654.058.61.093 1.173.105 1.689.012.516.018.95.018 1.302v.528a31.425 31.425 0 001.894.282 39.7 39.7 0 01.368-1.989c.128-.598.28-1.185.456-1.76.175-.574.38-1.173.614-1.794.233-.622.514-1.332.841-2.13z" fill="#E65A40"/></svg>