<svg width="36" height="39" xmlns="http://www.w3.org/2000/svg"><g fill="none" fill-rule="evenodd"><path fill="#E4EAF6" d="M19.018 23.735v-6.38H17.66v6.38l-6.614 4.513.768 1.11 6.524-4.451 6.524 4.452.769-1.11z"/><path fill="#E6AF78" d="M21.158 12.744V10.57H15.52v2.175l2.818 2.487z"/><path d="M25.516 13.762l-3.875-.905a.624.624 0 01-.163-.065l-3.139 1.817-3.016-1.905a.625.625 0 01-.285.153l-3.875.905a1.245 1.245 0 00-.966 1.21v2.435c0 .343.28.621.626.621h15.032a.624.624 0 00.626-.621v-2.434c0-.577-.4-1.079-.965-1.21z" fill="#707487"/><path d="M15.52 10.569v2.295c3.551 1.27 5.638-1.908 5.638-1.908v-.387H15.52z" fill="#D29B6E"/><path d="M14.268 3.42l.273 5.959c.026.556.3 1.073.75 1.407l1.295.964c.325.242.72.373 1.127.373h1.253c.406 0 .802-.131 1.127-.373l1.295-.964c.449-.334.724-.85.75-1.407l.272-5.96h-8.142z" fill="#F6CBAD"/><path d="M17.4 4.663c1.252 0 3.131-.31 3.577-1.243h-6.709l.273 5.959c.026.556.3 1.073.75 1.407l1.295.964c.325.242.72.373 1.127.373h.626c-.626 0-1.879-1.243-1.879-2.798v-3.73c0-.31.313-.932.94-.932z" fill="#DBB59A"/><path d="M24.182 16.011l2.03-1.81c.17.215.27.484.27.771v2.435a.624.624 0 01-.627.621h-2.192v-.86c0-.442.189-.862.52-1.157zm-11.686 0l-2.03-1.81a1.24 1.24 0 00-.269.771v2.435c0 .343.28.621.626.621h2.193v-.86c0-.442-.19-.862-.52-1.157zm6.626 2.017h-1.566l.196-2.797h1.175z" fill="#5B5D6E"/><path d="M19.122 14.61h-1.566v.179c0 .416.34.753.759.753h.049a.756.756 0 00.758-.753v-.18z" fill="#515262"/><path d="M15.477 12.052l2.862 2.557s-.801.402-1.79 1.212a.403.403 0 01-.623-.14l-1.345-2.937.426-.633a.315.315 0 01.47-.059zm5.725 0l-2.863 2.557s.802.402 1.791 1.212a.403.403 0 00.622-.14l1.345-2.937-.425-.633a.315.315 0 00-.47-.059z" fill="#5B5D6E"/><path d="M20.238 1.36l.293 2.06c1.34.266 1.534 2.353 1.562 2.95a.61.61 0 00.098.303l.512.788s-.175-1.302.626-2.176c0 0 .275-5.168-3.091-3.924z" fill="#785550"/><path d="M23.017 7.328l-.354 1.404a.376.376 0 01-.365.283c-.19 0-.35-.14-.373-.328l-.181-1.436a.645.645 0 01.643-.723h.001c.422 0 .731.393.63.8z" fill="#F6CBAD"/><path d="M14.568.804l.464.314c-2.095 1.535-1.703 4.167-1.703 4.167.626.621.626 2.176.626 2.176l.626-.622s-.241-1.796.94-2.487c1.096-.64 2.055-.31 3.034-.31 2.622 0 3.356-.981 3.23-2.176-.067-.618-1.02-1.906-3.446-1.865-.979.016-2.818.31-3.77.803z" fill="#694B4B"/><path d="M14.386 3.77s-.333-1.302.646-2.652c-2.095 1.535-1.703 4.167-1.703 4.167.626.621.626 2.176.626 2.176l.626-.622s-.241-1.796.94-2.487c1.096-.64 2.055-.31 3.034-.31.426 0 .798-.029 1.129-.077-2.02.067-3.21-1.452-5.298-.195z" fill="#5A4146"/><path d="M13.662 7.328l.353 1.404a.376.376 0 00.365.283c.19 0 .35-.14.374-.328l.18-1.436a.645.645 0 00-.642-.723h-.002a.644.644 0 00-.628.8z" fill="#DBB59A"/><path d="M22.097 17.407h-1.566a.624.624 0 00-.626.621h2.819a.624.624 0 00-.627-.621z" fill="#5B5D6E"/><path fill="#E6AF78" d="M10.98 33.621v-2.176H5.343v2.176l2.819 2.487z"/><path d="M15.338 34.639l-3.875-.905a.622.622 0 01-.163-.065l-3.138 1.817-3.017-1.905a.625.625 0 01-.285.153l-3.875.905a1.245 1.245 0 00-.966 1.21v2.435c0 .343.28.621.627.621h15.031a.624.624 0 00.627-.621v-2.435c0-.577-.4-1.078-.966-1.21z" fill="#EFF2FA"/><path d="M5.343 31.445v2.296c3.55 1.27 5.637-1.908 5.637-1.908v-.388H5.343z" fill="#D29B6E"/><path d="M4.09 24.297l.273 5.959c.026.556.3 1.072.75 1.407l1.295.964c.325.242.72.373 1.127.373h1.253c.406 0 .802-.131 1.127-.373l1.295-.964c.45-.335.724-.85.75-1.407l.273-5.96H4.09z" fill="#F6CBAD"/><path d="M7.222 25.54c1.253 0 3.132-.31 3.577-1.243H4.091l.272 5.958c.026.557.3 1.073.75 1.408l1.295.964c.325.242.72.373 1.127.373h.627c-.627 0-1.88-1.244-1.88-2.798v-3.73c0-.31.314-.932.94-.932z" fill="#DBB59A"/><path d="M14.005 36.888l2.029-1.81c.17.214.27.483.27.771v2.434c0 .344-.28.622-.627.622h-2.192v-.861c0-.441.19-.861.52-1.156zm-11.687 0L.29 35.078c-.17.214-.27.483-.27.771v2.434c0 .344.28.622.627.622h2.192v-.861c0-.441-.189-.861-.52-1.156z" fill="#E4EAF6"/><path fill="#5B5D6E" d="M8.945 38.905H7.379l.195-2.797H8.75z"/><path d="M8.945 35.486H7.379v.18c0 .416.34.753.758.753h.049a.756.756 0 00.758-.753v-.18z" fill="#515262"/><path d="M5.3 32.93l2.862 2.556s-.802.402-1.791 1.211a.403.403 0 01-.623-.14l-1.344-2.936.425-.633a.315.315 0 01.47-.059zm5.724 0l-2.862 2.556s.801.402 1.79 1.211c.205.167.513.1.623-.14l1.345-2.936-.426-.633a.315.315 0 00-.47-.059z" fill="#E4EAF6"/><path d="M10.06 22.237l.294 2.06c1.34.266 1.533 2.353 1.56 2.95a.61.61 0 00.1.303l.511.787s-.175-1.301.626-2.175c0 0 .276-5.168-3.09-3.925z" fill="#785550"/><path d="M12.84 28.204l-.354 1.404a.376.376 0 01-.366.283c-.19 0-.35-.14-.373-.327l-.181-1.436a.645.645 0 01.643-.723h.002c.421 0 .73.393.628.8z" fill="#F6CBAD"/><path d="M4.39 21.68l.464.315C2.76 23.529 3.15 26.162 3.15 26.162c.626.621.626 2.175.626 2.175l.627-.621s-.242-1.796.94-2.487c1.095-.64 2.054-.31 3.033-.31 2.623 0 3.357-.982 3.23-2.176-.066-.619-1.019-1.906-3.445-1.865-.98.016-2.819.31-3.771.803z" fill="#694B4B"/><path d="M4.208 24.646s-.333-1.301.646-2.651C2.76 23.529 3.15 26.16 3.15 26.16c.626.622.626 2.176.626 2.176l.627-.621s-.242-1.796.94-2.487c1.095-.641 2.054-.31 3.033-.31.427 0 .798-.03 1.13-.078-2.02.068-3.211-1.451-5.299-.195z" fill="#5A4146"/><path d="M3.484 28.204l.354 1.404a.376.376 0 00.365.283c.19 0 .35-.14.373-.327l.181-1.436a.645.645 0 00-.643-.723h-.001a.644.644 0 00-.63.8z" fill="#DBB59A"/><path d="M11.92 38.283h-1.566a.624.624 0 00-.627.622h2.819a.624.624 0 00-.626-.622z" fill="#E4EAF6"/><path d="M29.196 21.097c-6.318 0-5.617 7.626-5.589 13.151a.589.589 0 00.292.505c.7.419 2.622 1.398 5.297 1.398 2.674 0 4.596-.98 5.296-1.398a.59.59 0 00.292-.505c.029-5.525.729-13.15-5.588-13.15z" fill="#694B4B"/><path d="M28.789 21.113c-5.876.327-5.21 7.733-5.182 13.135a.589.589 0 00.292.505c.7.419 2.622 1.398 5.297 1.398l1.596-11.092" fill="#5A4146"/><path d="M29.196 21.097c-3.593 0-3.842 4.308-3.842 4.308 2.07-.346 3.343.52 5.438-.346L29.196 36.15c2.674 0 4.596-.98 5.296-1.398a.59.59 0 00.292-.505c.029-5.525.729-13.15-5.588-13.15z" fill="#694B4B"/><path d="M34.784 34.248c.024-4.748.54-11.042-3.321-12.72-.068.347-.19 1.317.127 1.946.799 1.585 1.597 1.585 2.395 2.773.798 4.358-1.525 8.983-2.297 9.613a10.08 10.08 0 002.804-1.107.59.59 0 00.292-.505z" fill="#785550"/><path d="M35.244 35.45l-3.562-1.473a.792.792 0 01-.49-.731v-.957H27.2v.957c0 .32-.194.608-.491.731l-3.562 1.473a1.188 1.188 0 00-.737 1.097v1.585c0 .437.358.792.799.792h11.973a.796.796 0 00.799-.792v-1.585c0-.48-.291-.912-.737-1.097z" fill="#E6AF78"/><path d="M35.244 35.45L31.8 34.026l-2.604 1.116-2.605-1.116-3.444 1.424a1.188 1.188 0 00-.737 1.097v1.585c0 .437.358.792.799.792h11.973a.796.796 0 00.799-.792v-1.585c0-.48-.291-.912-.737-1.097z" fill="#EFF2FA"/><path d="M31.191 32.289H27.2v.957c0 .32-.194.608-.491.731l-.557.23c4.257 1.077 5.04-1.918 5.04-1.918z" fill="#D29B6E"/><path d="M24.356 36.982l-1.602-1.264a1.181 1.181 0 00-.344.829v1.585c0 .437.358.792.799.792h1.596v-1.013c0-.362-.165-.703-.45-.929zm11.624 1.15v-1.585c0-.314-.126-.607-.338-.824l-1.607 1.26c-.284.225-.45.566-.45.927v1.014h1.597a.796.796 0 00.799-.792zm-6.725 0h-.12a.338.338 0 01-.339-.337v-2.652h.799v2.652a.338.338 0 01-.34.337z" fill="#E4EAF6"/><path d="M29.196 35.142l-2.285-1.7a.32.32 0 00-.457.077l-.451.672 1.4 1.946a.321.321 0 00.46.064l1.333-1.06zm0 0l2.284-1.7a.32.32 0 01.457.077l.452.672-1.401 1.946a.321.321 0 01-.46.064l-1.332-1.06z" fill="#E4EAF6"/><path d="M31.191 24.663c-1.996 1.98-5.912.396-5.912 3.565l.248 2.334c.048.523.353.987.814 1.242l2.273 1.253c.362.2.801.2 1.163 0l2.272-1.253c.462-.255.767-.72.815-1.242l.286-2.772c.02-.197.025-.395.018-.593-.15-1.009-1.578-1.742-1.977-2.534z" fill="#F6CBAD"/><path d="M25.279 28.228l.248 2.334c.048.523.353.987.814 1.242l2.273 1.253a1.2 1.2 0 00.813.12s-1.146-.344-1.828-2.176c-.209-.561-.499-3.532-.25-3.895.494-.718 3.243-.793 4.056-2.124a2.21 2.21 0 01-.111-.149l-.009-.012a1.51 1.51 0 01-.094-.158c-1.995 1.98-5.912.396-5.912 3.565z" fill="#DBB59A"/><path d="M32.11 38.132h-1.04a.676.676 0 00-.678.673v.119h2.395v-.119a.676.676 0 00-.679-.673z" fill="#E4EAF6"/></g></svg>