<svg width="44" height="44" xmlns="http://www.w3.org/2000/svg"><g fill="none" fill-rule="evenodd"><path d="M22 0C9.85 0 0 9.85 0 21.999c0 12.15 9.85 22 22 22s22-9.85 22-22S34.15 0 22 0zm0 41.25c-10.632 0-19.25-8.62-19.25-19.251 0-10.632 8.618-19.25 19.25-19.25S41.25 11.367 41.25 22 32.632 41.249 22 41.249z" fill="#D8D9DD"/><path d="M25.988 20.28A5.476 5.476 0 0027.5 16.5a5.5 5.5 0 00-11 0c0 1.466.577 2.793 1.512 3.78a8.244 8.244 0 00-4.262 7.22v1.374c0 .76.616 1.376 1.375 1.376h13.75c.759 0 1.375-.616 1.375-1.376V27.5a8.244 8.244 0 00-4.262-7.22zM22 13.75a2.75 2.75 0 110 5.5 2.75 2.75 0 010-5.5zM16.5 27.5a5.5 5.5 0 0111 0h-11z" fill="#AFB0B5"/></g></svg>