<svg width="15" height="8" fill="none" xmlns="http://www.w3.org/2000/svg"><path d="M5.743 2.905l.725.724 1.15 1.15.267.267c.126.127.36.137.484 0a.35.35 0 000-.485l-.724-.725-1.15-1.149-.267-.267c-.126-.127-.36-.137-.485 0a.346.346 0 000 .485zm3.813 2.129l1.028-1.028 1.63-1.629.373-.373c.126-.127.137-.36 0-.485a.35.35 0 00-.485 0l-1.028 1.028-1.629 1.629-.373.373c-.127.127-.137.36 0 .485a.35.35 0 00.484 0zM4.568 2.411l-1.03 1.03-1.64 1.64-.377.378c-.127.126-.137.36 0 .484a.35.35 0 00.485 0l1.03-1.03 1.64-1.64.377-.377c.127-.127.137-.36 0-.485a.35.35 0 00-.485 0z" fill="#8C8C8C"/><path d="M1.524 5.941c.014.016.027.031.043.047.036.034-.043-.069-.002-.002.019.03.04.06.056.092l.006.01a.398.398 0 00-.006-.016c.007.006.014.039.016.044.012.038.02.075.029.113.017.076-.002-.06-.002-.01 0 .019.004.04.004.058v.046c0 .009 0 .016-.002.024-.003.031-.003.031.002.002.001-.007.001-.015.003-.022a.438.438 0 01-.008.046l-.01.046a.337.337 0 01-.014.045l-.016.044c.019-.04.022-.051.01-.027-.017.03-.032.063-.053.094-.007.01-.017.031-.027.04.056-.05.015-.021-.002-.004-.003.005-.082.074-.08.077-.004-.01.058-.04.001-.001l-.061.037c-.01.005-.043.03-.053.028a.747.747 0 01-.086.022c-.009.002-.053.015-.058.01-.002-.003.077-.005.022-.005-.043 0-.086 0-.128-.002-.05 0 .085.02.01.002l-.046-.01c-.024-.005-.095-.017-.112-.036.002.001.074.037.017.005l-.042-.022a.854.854 0 01-.052-.033l-.029-.02c.034.025.041.03.022.015l-.08-.079c-.057-.055.025.043 0 .002-.01-.017-.022-.033-.034-.05-.01-.017-.05-.065-.045-.084l.015.038c-.005-.01-.008-.022-.012-.033-.008-.025-.017-.051-.024-.078l-.01-.047c-.014-.066.005.023.002.023-.007-.002-.004-.108-.004-.117 0-.014.006-.034.004-.046.012.06-.009.051 0 .01.008-.043.022-.082.034-.125.012-.041.019-.003-.007.016.007-.006.017-.035.02-.043.018-.031.039-.08.066-.101-.055.05-.02.025-.007.012.015-.014.03-.031.043-.045.01-.01.032-.04.046-.041l-.03.024a.544.544 0 01.039-.027c.025-.018.087-.035.104-.059-.024.033-.055.02-.005.004.022-.009.045-.014.067-.02a.661.661 0 01.056-.013c.067-.015-.072.002.002 0h.117c.077 0-.059-.014-.01-.003l.068.013a.71.71 0 01.056.018l.023.008a.706.706 0 00-.017-.007c.022-.005.083.045.104.059.005.003.063.053.024.015-.036-.036.036.033.043.04.128.124.358.136.485 0 .123-.136.137-.352 0-.485a1.192 1.192 0 00-1.357-.22c-.416.199-.69.674-.648 1.134.043.499.388.94.884 1.06.49.119.984-.082 1.268-.491.319-.457.23-1.093-.15-1.483-.124-.129-.36-.136-.484 0a.35.35 0 00.002.484zM5.75 1.716l.043.046c.034.034-.043-.068 0-.002.019.031.04.06.057.093l.005.01c.015.034.013.03-.005-.017a.173.173 0 01.015.045c.005.013.038.11.029.114.007-.003-.007-.08-.002-.008.002.019.002.04.002.058 0 .015 0 .03-.002.046v.024c.002-.058-.003.014-.005.024a.458.458 0 01-.012.047.475.475 0 01-.02.062c-.02.03-.035.063-.053.093-.007.01-.018.031-.028.04.057-.052.014-.02-.002-.002-.005.007-.082.07-.08.077-.002-.015.056-.04.002-.003a.738.738 0 01-.062.037c-.01.006-.043.03-.053.028.002 0 .08-.03.017-.009l-.101.03c-.03.006-.069-.002.01.001-.014 0-.03.004-.046.004-.043.001-.084 0-.127-.002-.05-.002.086.02.01 0l-.046-.01c-.019-.006-.037-.01-.056-.018-.03-.01-.067-.003.005.006-.028-.004-.06-.03-.086-.043a.849.849 0 01-.08-.053c.034.025.04.03.022.015l-.08-.079c-.057-.055.025.043 0 .002-.01-.017-.025-.033-.035-.05-.01-.017-.05-.067-.046-.084l.015.038c-.005-.01-.008-.022-.012-.033-.008-.025-.017-.05-.024-.078l-.01-.047c-.014-.066.005.023.002.023-.007-.002-.004-.108-.004-.117 0-.012.006-.036.004-.046.012.056-.009.053 0 .01.008-.043.022-.082.034-.125.012-.04.019-.003-.007.016.007-.006.017-.035.02-.043.018-.031.038-.079.066-.103-.055.05-.02.026-.007.012L5.06 1.7c.01-.01.032-.039.046-.04-.01.006-.02.015-.03.022a.547.547 0 01.039-.028c.025-.017.087-.034.104-.058-.024.033-.053.02-.005.003.022-.008.045-.013.067-.02a.669.669 0 01.056-.012c.067-.016-.072 0 .002 0h.117c.077 0-.059-.014-.01-.002.022.005.045.009.068.016a.71.71 0 01.056.017l.023.008-.016-.007c.022-.005.086.047.105.059.005.003.063.053.024.017-.035-.034.037.034.044.04.129.126.358.138.485 0 .123-.134.137-.35 0-.484a1.2 1.2 0 00-1.358-.223c-.418.2-.69.675-.648 1.136.046.499.39.939.886 1.062a1.18 1.18 0 001.264-.485c.32-.457.238-1.098-.144-1.49-.125-.128-.362-.135-.485 0a.35.35 0 000 .485zm7.531-.891l.043.046c.036.034-.043-.068-.002-.001.019.03.04.06.057.092l.005.01c.015.035.014.03-.005-.017.007.005.013.04.015.045.012.037.02.075.03.113.016.075-.002-.06-.002-.01l.003.058v.046l-.002.024c-.003.03-.003.03.002 0 .002-.007.002-.015.003-.022-.001.015-.005.03-.008.046l-.01.046a.325.325 0 01-.014.045l-.016.044c.02-.04.023-.051.01-.027-.018.03-.032.063-.052.094-.007.01-.018.03-.028.04.057-.05.016-.021-.002-.004-.003.005-.082.074-.08.077-.003-.01.058-.041.002-.002-.02.014-.041.026-.062.038-.01.005-.043.03-.053.027a.744.744 0 01-.086.022c-.008.002-.053.016-.058.011-.002-.002.077-.005.022-.005-.043 0-.085 0-.128-.002-.05-.002.085.019.01.002l-.046-.01c-.024-.006-.094-.018-.112-.036.002.001.074.037.018.005l-.043-.022-.052-.033-.029-.02c.034.025.041.03.023.015a3.585 3.585 0 00-.081-.079c-.057-.055.026.043 0 .002-.01-.017-.022-.033-.034-.05-.01-.017-.05-.065-.045-.084l.016.038a1.019 1.019 0 01-.036-.111l-.01-.047c-.014-.067.004.023.003.023-.007 0-.004-.108-.004-.117 0-.014.005-.034.004-.046.012.061-.009.051 0 .01.008-.043.022-.082.034-.123.012-.041.019-.004-.007.017a.142.142 0 00.02-.043c.018-.03.039-.077.066-.101-.055.05-.02.026-.007.012a.605.605 0 00.043-.045c.01-.01.032-.039.046-.04l-.03.023a.546.546 0 01.039-.027c.025-.017.087-.034.104-.058-.024.032-.055.02-.005.003.022-.009.045-.014.067-.02a.666.666 0 01.056-.012c.067-.016-.072 0 .002 0h.117c.077 0-.059-.014-.01-.002l.068.013c.019.006.037.01.056.018l.023.008a.97.97 0 00-.018-.007c.023-.005.084.045.105.059.005.003.063.053.024.015-.038-.04.034.03.041.036.128.125.358.137.485 0 .123-.135.137-.351 0-.485a1.195 1.195 0 00-1.357-.22c-.416.198-.69.672-.65 1.132.046.498.39.94.886 1.06.49.118.984-.082 1.27-.492.319-.455.23-1.091-.15-1.482-.124-.128-.36-.135-.484 0a.352.352 0 000 .487zM9.07 5.034c.013.012.07.074.04.04-.029-.033.02.028.03.044.015.024.025.05.039.074.019.032-.01-.024-.01-.028 0 .012.012.033.015.045.009.025.015.053.022.078l.009.047c.008.04-.007-.035-.005-.033.005.002.003.072.003.082v.035c0 .007-.01.08 0 .024a.6.6 0 01-.034.125c-.004.008-.012.024-.012.032 0-.003.029-.06.01-.027-.015.027-.029.056-.046.084l-.028.04c-.02.032.016-.023.016-.021-.004.02-.045.048-.06.063l-.027.026c-.047.044.003-.009.011-.007-.015-.002-.066.044-.08.053l-.045.026c.042-.024-.02.006-.036.012a.666.666 0 01-.078.02c-.014.004-.035.004-.047.009.018-.007.069-.005.023-.005l-.083.001-.034-.001c-.06-.002.012.001.022.005-.05-.02-.107-.024-.159-.041-.056-.02.055.029-.015-.009a.726.726 0 01-.072-.043c-.007-.005-.036-.027-.04-.027.006 0 .048.04.023.015-.024-.024-.05-.044-.072-.07-.002-.002-.024-.03-.024-.027.005-.004.037.054.008.01l-.044-.072c-.007-.01-.04-.08-.02-.034.021.043-.013-.043-.018-.06-.003-.016-.008-.031-.012-.047-.005-.022-.024-.046-.003-.012.02.035.001.012 0-.013-.002-.016-.002-.031-.002-.046l.003-.095c.002-.048-.013.067-.003.02l.01-.045c.007-.031.02-.06.028-.091.01-.036-.01.024-.012.026.01-.01.019-.042.027-.055.015-.03.034-.055.051-.083.02-.032-.013.021-.017.021l.05-.056a.35.35 0 000-.485c-.127-.127-.36-.137-.485 0a.35.35 0 000 .485.35.35 0 00.485 0c.01-.01.038-.048.055-.05-.038.027-.043.03-.012.01l.029-.02.062-.036c.013-.007.084-.03.034-.018l.048-.013c.022-.007.044-.01.068-.017.067-.018-.073.001 0-.002.024-.002.047-.004.069-.004l.068.002c.08.002-.077-.017 0-.002.047.01.09.023.134.036.07.021-.055-.03.003.002l.062.034c.01.007.082.064.043.028-.041-.033.03.034.036.04.128.126.358.138.485 0 .123-.134.137-.35 0-.484a1.205 1.205 0 00-1.674.01h.485c-.127-.126-.36-.137-.485 0a.35.35 0 000 .485V4.56a1.194 1.194 0 00-.322.994c.048.36.272.69.593.863a1.183 1.183 0 001.71-.745 1.2 1.2 0 00-.309-1.122c-.125-.128-.361-.135-.485 0a.351.351 0 00.002.485z" fill="#8C8C8C"/></svg>