<svg width="38" height="29" xmlns="http://www.w3.org/2000/svg"><g fill="none" fill-rule="evenodd"><path d="M35.625 0H23.75v28.409h11.875A2.372 2.372 0 0038 26.04V2.367A2.371 2.371 0 0035.625 0z" fill="#735538"/><path d="M2.375 0A2.371 2.371 0 000 2.367v23.674a2.372 2.372 0 002.375 2.368H23.75V0H2.375z" fill="#A67C52"/><path d="M33.25 2.367h-2.375v23.674h2.375a2.371 2.371 0 002.374-2.367V4.734a2.37 2.37 0 00-2.374-2.367z" fill="#E6E6E6"/><path d="M30.875 6.136v6.667A3.54 3.54 0 0033.25 9.47c0-1.543-.995-2.844-2.375-3.333z" fill="#FC6"/><path d="M26.125 2.367H23.75v23.674h2.375a2.371 2.371 0 002.374-2.367V4.734a2.37 2.37 0 00-2.374-2.367z" fill="#79C194"/></g></svg>