<svg width="46" height="46" xmlns="http://www.w3.org/2000/svg"><g fill="none" fill-rule="evenodd"><path d="M7.394 36.23c.199-.284.219-.293.505-.556.535-.49.859-.726.807-1.565-.032-.533-.487-1.05-.415-1.462.069-.407.382-.249.333-.775-.032-.335-.212-.608-.447-.843-.214-.209-.65-.288-.808-.551-.144-.232.019-.583-.041-.841-.177-.754-.782-1.08-1.451-1.25-.834-.212-1.002-.203-.984-1.052.014-.7.004-.826-.252-1.443l-.21-.268c-.551-.068-1.095.407-1.45.788-.791.85-1.712 1.924-2.22 2.96-.533 1.105-.459 2.642-.196 3.817.556 2.463 3.36 6.733 6.22 3.865.25-.251.407-.54.609-.824z" fill="#F6CBAD"/><path d="M38.037 36.948l-.146-.214c-.129-.185-.129-.185-.382-.416l-.096-.09c-.523-.477-1.066-.971-.991-2.173.025-.409.179-.755.3-1.035.026-.057.058-.13.083-.178-.187-.213-.347-.528-.3-1.052.049-.506.286-.97.707-1.386.19-.184.405-.291.578-.378a.015.015 0 01.009-.004 1.737 1.737 0 01.024-.588c.225-.963.928-1.6 2.087-1.895l.266-.067V16.597L23 21.673 5.824 16.596v10.877l.267.066c1.158.295 1.859.933 2.086 1.896.053.223.04.426.023.588.002 0 .007 0 .01.003.173.087.39.195.578.38.423.414.66.879.706 1.385.05.524-.113.84-.3 1.052.026.048.059.12.084.178.122.279.275.625.301 1.035.075 1.2-.467 1.696-.992 2.173l-.096.09c-.253.23-.253.23-.382.416l-.145.214c-.148.225-.317.48-.56.723-.499.5-1.029.828-1.58 1.017v1.668L23 45.125l17.174-4.768V38.69c-.55-.19-1.08-.517-1.579-1.017a4.39 4.39 0 01-.558-.724z" fill="#E65A40"/><path d="M45.236 29.372c-.506-1.036-1.426-2.11-2.218-2.96-.356-.382-.899-.856-1.45-.788l-.209.268c-.256.618-.266.744-.251 1.443.018.849-.152.84-.986 1.052-.667.17-1.272.495-1.45 1.25-.061.258.101.609-.04.84-.16.264-.595.343-.81.552-.237.235-.415.508-.447.843-.048.526.263.368.335.775.07.412-.383.93-.416 1.462-.052.839.273 1.073.806 1.565.286.263.305.272.507.556.198.285.357.573.608.824 2.86 2.87 5.665-1.401 6.22-3.865.263-1.175.338-2.712-.2-3.817z" fill="#F6CBAD"/><path d="M26.104 5.6s1.288 6.1 5.748 6.666c.183-.722.29-1.47.29-2.248A9.142 9.142 0 0023 .876a9.142 9.142 0 00-9.142 9.142c0 .519.054 1.026.137 1.521 2.044.152 11.235.471 12.11-5.939z" fill="#818389"/><path d="M26.104 5.6c-.875 6.41-10.066 6.09-12.11 5.94.725 4.323 4.474 7.62 9.005 7.62 4.272 0 7.85-2.934 8.853-6.894-4.46-.567-5.748-6.666-5.748-6.666z" fill="#F6CBAD"/></g></svg>