<svg width="272" height="198" xmlns="http://www.w3.org/2000/svg"><g fill="none" fill-rule="evenodd"><path d="M170.384 197.543H97.663c-1.608 0-2.528-1.826-1.577-3.115l10.31-7.12a6.267 6.267 0 001.229-3.73v-18.403c0-1.083.88-1.952 1.957-1.952h48.882a1.95 1.95 0 011.958 1.952v18.402a6.27 6.27 0 001.228 3.732l10.311 7.12c.951 1.288.032 3.114-1.577 3.114" fill="#E1E3E2"/><path fill="#9AAFB7" d="M107.625 178.26h52.797v-11.891h-52.797z"/><path d="M232.926 30.546H35.12c-4.031 0-7.3 3.26-7.3 7.28v118.4h212.405v-118.4c0-4.02-3.268-7.28-7.3-7.28" fill="#2F363E"/><path d="M27.822 155.713v7.732c0 4.021 3.268 7.281 7.299 7.281h197.805c4.032 0 7.3-3.26 7.3-7.28v-7.733H27.822z" fill="#E1E3E2"/><path fill="#FAFAFA" d="M37.082 149.19h193.883V37.58H37.082z"/><path fill="#FFD65B" d="M110.61 183.92l-21.896-3.355 2.763-17.945 21.895 3.354z"/><path fill="#EDB953" d="M112.96 168.649l-21.895-3.354.412-2.674 21.895 3.353z"/><path d="M143.105 28.636v-4.873c0-.514-.394-.93-.88-.93h-39.663c-.486 0-.88.416-.88.93v4.873c0 .514.394.931.88.931h39.663c.486 0 .88-.417.88-.931" fill="#B83826"/><path fill="#B83826" d="M136.072 29.567h3.76v-6.734h-3.76z"/><path d="M94.815 28.636v-4.873c0-.514-.394-.93-.88-.93H54.272c-.486 0-.88.416-.88.93v4.873c0 .514.394.931.88.931h39.663c.486 0 .88-.417.88-.931" fill="#DAA464"/><path fill="#DAA464" d="M87.782 29.567h3.76v-6.734h-3.76zm40.127-7.475v-1.718c0-.181-.217-.329-.485-.329H105.58c-.268 0-.486.148-.486.329v1.718c0 .18.218.328.486.328h21.845c.268 0 .485-.147.485-.328"/><path fill="#DAA464" d="M124.035 22.42h2.07v-2.375h-2.07z"/><path d="M123.393 19.294V17.33c0-.207-.192-.375-.429-.375H103.66c-.236 0-.428.168-.428.375v1.964c0 .206.192.375.428.375h19.305c.237 0 .429-.169.429-.375" fill="#FC6"/><path fill="#FC6" d="M119.969 19.67h1.83v-2.715h-1.83z"/><path d="M89.314 22.43h2.253c.458 0 .829-.418.829-.931v-4.873c0-.515-.371-.93-.829-.93H54.22c-.457 0-.828.415-.828.93v4.873c0 .513.37.93.828.93h35.094z" fill="#3A7DAA"/><path fill="#5AA6D9" d="M61.916 21.252h18.531v-3.167h-18.53z"/><path d="M89.314 14.982h2.253c.458 0 .829-.417.829-.932V9.177c0-.513-.371-.93-.829-.93H54.22c-.457 0-.828.417-.828.93v4.873c0 .515.37.932.828.932h35.094z" fill="#6CAD84"/><path fill="#FEFEFE" d="M61.916 12.603h20.661v-1.978h-20.66z"/><path d="M170.384 195.962H97.663c-.84 0-1.483-.5-1.778-1.16-.557 1.242.318 2.741 1.778 2.741h72.72c1.46 0 2.336-1.499 1.78-2.74-.297.658-.94 1.16-1.78 1.16" fill="#B5B8B8"/><path fill="#AFB0B5" d="M37.082 115.75h193.883v-3.66H37.082z"/><path d="M197.295 39.44l-4.357.983c-.27.06-.423.405-.34.768l6.722 29.674c.082.364.368.61.639.548l4.356-.981c.271-.061.424-.405.342-.77l-6.723-29.673c-.082-.364-.369-.61-.64-.548" fill="#E65A40"/><path fill="#AFB0B5" d="M37.082 75.699h193.883v-3.66H37.082z"/><path d="M47.588 39.65h-4.226c-.263 0-.475.303-.475.675v30.423c0 .373.212.675.475.675h4.226c.262 0 .475-.302.475-.675V40.325c0-.372-.213-.674-.475-.674" fill="#F19E47"/><path fill="#F19E47" d="M43.551 42.816h3.77v-1.31h-3.77zm0 24.018h3.77v-1.31h-3.77z"/><path d="M191.163 40.038l-4.154.775c-.259.05-.413.38-.345.738l5.5 29.303c.067.36.332.611.59.563l4.153-.776c.258-.048.413-.378.345-.737l-5.5-29.303c-.067-.359-.331-.61-.59-.563" fill="#769FC3"/><path fill="#769FC3" d="M191.473 43.136l-3.706.692-.237-1.262 3.706-.692zm4.342 23.134l-3.705.692-.237-1.262 3.705-.692z"/><path d="M50.125 39.65a.676.676 0 00-.677.675v30.423c0 .373.303.675.677.675h6.012a.676.676 0 00.677-.675V40.325a.676.676 0 00-.677-.674h-6.012z" fill="#E65A40"/><path fill="#A4311F" d="M51.68 59.647h3.185v-16.83h-3.184z"/><path d="M91.006 42.564l-3.211-1.493a.677.677 0 00-.9.326l-12.89 27.572a.674.674 0 00.328.897l3.21 1.493a.678.678 0 00.9-.326l12.89-27.572a.674.674 0 00-.327-.897" fill="#769FC3"/><path fill="#769FC3" d="M82.371 60.611l-2.886-1.342 7.13-15.254 2.887 1.342zm-4.126 8.827l-2.886-1.343 1.08-2.312 2.887 1.342z"/><path d="M84.306 42.564l-3.211-1.493a.677.677 0 00-.9.326l-12.89 27.572a.674.674 0 00.328.897l3.21 1.493a.678.678 0 00.9-.326l12.89-27.572a.674.674 0 00-.327-.897" fill="#187DAC"/><path fill="#187DAC" d="M71.545 69.438l-2.886-1.343 1.08-2.312 2.887 1.342z"/><path fill="#6CAD84" d="M82.802 45.358l-2.886-1.343.556-1.187 2.885 1.342z"/><path d="M170.384 59.746v-3.533c0-.373-.278-.675-.62-.675h-27.945c-.342 0-.62.302-.62.675v3.533c0 .373.278.675.62.675h27.944c.343 0 .62-.302.62-.675" fill="#769FC3"/><path fill="#187DAC" d="M165.428 60.422h2.65v-4.884h-2.65z"/><path d="M146.166 79.735h-3.543a.676.676 0 00-.677.675v30.422c0 .373.303.675.677.675h3.543a.676.676 0 00.676-.675V80.41a.676.676 0 00-.676-.675" fill="#E65A40"/><path fill="#E65A40" d="M142.802 99.731h3.184v-16.83h-3.184z"/><path fill="#C54E38" d="M142.802 109.47h3.184v-2.552h-3.184z"/><path d="M139.777 79.735h-3.543a.676.676 0 00-.676.675v30.422c0 .373.302.675.676.675h3.543a.676.676 0 00.677-.675V80.41a.677.677 0 00-.677-.675" fill="#187DAC"/><path fill="#244E6B" d="M136.413 109.47h3.185v-2.552h-3.185z"/><path fill="#187DAC" d="M136.413 82.9h3.185v-1.31h-3.185z"/><path d="M117.531 39.65h-3.542a.676.676 0 00-.677.675v30.423c0 .373.303.675.677.675h3.542a.676.676 0 00.677-.675V40.325a.676.676 0 00-.677-.674" fill="#769FC3"/><path fill="#769FC3" d="M114.168 59.647h3.184v-16.83h-3.184zm0 9.739h3.184v-2.552h-3.184z"/><path d="M91.056 79.735h-3.543a.676.676 0 00-.676.675v30.422c0 .373.302.675.676.675h3.543a.676.676 0 00.677-.675V80.41a.676.676 0 00-.677-.675" fill="#FF6C50"/><path fill="#C54E38" d="M87.692 99.731h3.185v-16.83h-3.185zm0 9.739h3.185v-2.552h-3.185z"/><path d="M84.667 79.735h-3.542a.676.676 0 00-.677.675v30.422c0 .373.303.675.677.675h3.542a.676.676 0 00.677-.675V80.41a.676.676 0 00-.677-.675" fill="#6CAD84"/><path fill="#548B69" d="M81.304 109.47h3.184v-2.552h-3.184z"/><path fill="#6CAD84" d="M81.304 82.9h3.184v-1.31h-3.184z"/><path d="M186.036 80.927l-3.408-.97a.677.677 0 00-.836.465l-8.365 29.255a.676.676 0 00.466.835l3.407.969a.676.676 0 00.836-.464l8.365-29.256a.674.674 0 00-.465-.834" fill="#769FC3"/><path fill="#769FC3" d="M177.688 109.473l-3.063-.871.702-2.454 3.062.87zm7.305-25.551l-3.063-.87.36-1.26 3.063.87z"/><path d="M180.257 80.927l-3.407-.97a.677.677 0 00-.836.465l-8.365 29.255a.675.675 0 00.466.835l3.407.969a.677.677 0 00.836-.464l8.365-29.256a.675.675 0 00-.466-.834" fill="#5C92BA"/><path fill="#5C92BA" d="M179.425 86.3l-4.71-1.34.794-2.773 4.709 1.34z"/><path d="M230.325 83.906l-3.068-1.768a.677.677 0 00-.924.247l-15.259 26.341a.674.674 0 00.248.922l3.068 1.768a.678.678 0 00.925-.247l15.257-26.341a.674.674 0 00-.247-.922" fill="#E65A40"/><path fill="#B83826" d="M228.205 88.914l-4.239-2.443 1.447-2.497 4.239 2.443z"/><path d="M173.807 80.927l-3.408-.97a.677.677 0 00-.836.465l-8.364 29.255a.675.675 0 00.465.835l3.407.969a.676.676 0 00.836-.464l8.365-29.256a.675.675 0 00-.465-.834" fill="#FF6C50"/><path fill="#C54E38" d="M172.974 86.3l-4.708-1.34.792-2.773 4.71 1.34zm-6.784 18.454l-1.53-.436 4.627-16.185 1.53.436z"/><path d="M126.01 79.948l-3.519-.413a.676.676 0 00-.751.592l-3.566 30.213a.675.675 0 00.593.749l3.518.413a.676.676 0 00.752-.591l3.566-30.214a.675.675 0 00-.593-.749" fill="#6CAD84"/><path fill="#6CAD84" d="M126.05 85.385l-4.863-.572.338-2.864 4.863.571z"/><path d="M208.3 117.016l-3.518-.413a.676.676 0 00-.751.591l-3.567 30.214a.674.674 0 00.593.749l3.519.413a.677.677 0 00.751-.591l3.566-30.214a.675.675 0 00-.592-.75" fill="#E65A40"/><path fill="#B83826" d="M208.34 122.452l-4.863-.57.339-2.865 4.862.571z"/><path d="M119.966 79.948l-3.519-.413a.676.676 0 00-.751.592l-3.566 30.213a.675.675 0 00.592.749l3.519.413a.676.676 0 00.751-.591l3.567-30.214a.675.675 0 00-.593-.749" fill="#5C92BA"/><path fill="#2D5069" d="M120.006 85.385l-4.863-.572.338-2.864 4.862.571z"/><path fill="#5C92BA" d="M116.877 104.585l-3.162-.372 1.973-16.715 3.162.372z"/><path d="M159.582 79.735h-3.543a.676.676 0 00-.677.675v30.422c0 .373.303.675.677.675h3.543a.676.676 0 00.677-.675V80.41a.676.676 0 00-.677-.675" fill="#2980AE"/><path fill="#2980AE" d="M155.362 85.13h4.897v-2.885h-4.897zm-2.488-3.54h-3.543c-.374 0-.676.285-.676.636v28.645c0 .352.302.636.676.636h3.543c.374 0 .678-.284.678-.636V82.226c0-.351-.304-.636-.678-.636"/><path fill="#2980AE" d="M148.654 86.67h4.897v-2.716h-4.897zm.857 18.299h3.184V89.12h-3.184z"/><path d="M86.429 118.612h-3.543c-.374 0-.676.285-.676.636v28.69c0 .352.302.637.676.637h3.543c.374 0 .677-.285.677-.637v-28.69c0-.351-.303-.636-.677-.636" fill="#E65A40"/><path fill="#B83826" d="M82.209 123.7h4.897v-2.72h-4.897z"/><path d="M79.721 120.361H76.18c-.374 0-.677.269-.677.6v27.014c0 .332.303.6.677.6h3.542c.374 0 .677-.268.677-.6v-27.014c0-.331-.303-.6-.677-.6" fill="#6CAD84"/><path fill="#6CAD84" d="M75.502 125.152h4.897v-2.561h-4.897z"/><path fill="#187DAC" d="M77.124 142.409h1.651v-14.946h-1.65z"/><path d="M66.08 123.944h-3.544c-.374 0-.676.235-.676.523v23.584c0 .29.302.524.676.524h3.543c.374 0 .677-.235.677-.524v-23.584c0-.288-.303-.523-.677-.523" fill="#769FC3"/><path fill="#769FC3" d="M62.715 139.446H65.9v-13.048h-3.185zm0 7.55H65.9v-1.979h-3.185z"/><path d="M72.788 120.361h-3.543c-.374 0-.677.269-.677.6v27.014c0 .332.303.6.677.6h3.543c.373 0 .677-.268.677-.6v-27.014c0-.331-.304-.6-.677-.6" fill="#187DAC"/><path fill="#187DAC" d="M68.568 125.152h4.897v-2.561h-4.897zm.856 17.257h3.185v-14.946h-3.185z"/><path d="M64.888 39.65h-6.012a.676.676 0 00-.677.675v30.423c0 .373.302.675.677.675h6.012a.676.676 0 00.677-.675V40.325a.676.676 0 00-.677-.674" fill="#E65A40"/><path fill="#B83826" d="M58.2 46.954h7.365v-3.089H58.2z"/><path d="M98.744 39.65H92.73a.676.676 0 00-.676.675v30.423c0 .373.302.675.676.675h6.013a.676.676 0 00.677-.675V40.325a.676.676 0 00-.677-.674" fill="#6CAD84"/><path fill="#447F5E" d="M92.999 69.575h5.478v-2.518h-5.478z"/><path d="M106.93 39.65h-6.012a.676.676 0 00-.676.675v30.423c0 .373.302.675.676.675h6.013a.676.676 0 00.676-.675V40.325a.676.676 0 00-.676-.674" fill="#E65A40"/><path fill="#E65A40" d="M102.019 63.819h3.81v-21.67h-3.81z"/><path fill="#AE412D" d="M100.241 68.76h7.367v-1.828h-7.367z"/><path d="M124.695 42.161h-4.711c-.293 0-.53.278-.53.622v28.018c0 .344.237.622.53.622h4.71c.293 0 .531-.278.531-.622V42.783c0-.344-.238-.622-.53-.622" fill="#4192C8"/><path fill="#2A668E" d="M119.453 48.887h5.772v-3.254h-5.772z"/><path d="M134.92 40.33v30.422a.68.68 0 01-.68.671h-6.014a.674.674 0 01-.673-.671V40.33c0-.376.303-.678.673-.678h6.014c.37 0 .68.302.68.678" fill="#F19E47"/><path d="M134.92 65.104v5.648c0 .37-.31.67-.68.67h-6.014a.674.674 0 01-.673-.67v-5.648h7.366zm-5.926-20.424h4.485v-1.862h-4.485z" fill="#E65A40"/><path d="M185.66 39.65h-4.422c-.275 0-.498.303-.498.675v30.423c0 .373.223.675.498.675h4.422c.274 0 .498-.302.498-.675V40.325c0-.372-.224-.674-.498-.674" fill="#187DAC"/><path fill="#27597A" d="M182.383 59.647h2.341v-16.83h-2.341z"/><path d="M191.867 79.735h-4.226c-.263 0-.475.302-.475.675v30.422c0 .373.212.675.475.675h4.226c.262 0 .476-.302.476-.675V80.41c0-.373-.214-.675-.476-.675" fill="#E65A40"/><path fill="#B83826" d="M187.83 82.9h3.77v-1.31h-3.77zm0 24.018h3.77v-1.31h-3.77z"/><path d="M200.416 79.735h-6.012a.676.676 0 00-.677.675v30.422c0 .373.302.675.677.675h6.012a.676.676 0 00.677-.675V80.41a.677.677 0 00-.677-.675" fill="#DAA464"/><path fill="#FC6" d="M195.96 99.731h3.184v-16.83h-3.184z"/><path d="M110.113 147.9v-5.997c0-.374-.196-.675-.437-.675H89.94c-.242 0-.438.301-.438.675v5.996c0 .373.196.676.438.676h19.736c.241 0 .437-.303.437-.676" fill="#DAA464"/><path fill="#DAA464" d="M97.141 146.63h10.919v-3.175H97.14z"/><path d="M209.167 80.365h-6.012a.67.67 0 00-.678.661v29.82a.67.67 0 00.678.661h6.012a.67.67 0 00.677-.661v-29.82a.67.67 0 00-.677-.661" fill="#0E87C9"/><path fill="#0E87C9" d="M202.477 85.704h7.367v-3.027h-7.367z"/><path d="M130.986 118.612h-6.012c-.374 0-.677.285-.677.636v28.69c0 .352.303.637.677.637h6.012c.374 0 .677-.285.677-.637v-28.69c0-.351-.303-.636-.677-.636" fill="#187DAC"/><path fill="#187DAC" d="M126.53 137.47h3.184v-15.873h-3.184zm7.195-14.656c-.374 0-.677.245-.677.547v24.666c0 .303.303.548.677.548h6.012c.374 0 .677-.245.677-.548v-24.666c0-.302-.303-.547-.677-.547h-6.012z"/><path fill="#1F4A67" d="M133.048 127.23h7.366v-2.503h-7.366z"/><path d="M48.482 118.909h-6.013c-.374 0-.677.28-.677.624v28.12c0 .345.303.625.677.625h6.013c.373 0 .676-.28.676-.625v-28.12c0-.345-.303-.624-.676-.624" fill="#3575A0"/><path fill="#055169" d="M41.792 123.944h7.366v-2.855h-7.366z"/><path d="M213.634 41.874h-6.012c-.374 0-.677.281-.677.628v28.293c0 .346.303.628.677.628h6.012c.374 0 .677-.282.677-.628V42.502c0-.347-.303-.628-.677-.628" fill="#419D8F"/><path fill="#195A51" d="M209.177 60.471h3.185V44.818h-3.185z"/><path d="M222.246 40.328V70.75c0 .37-.27.672-.599.672h-5.353c-.327 0-.598-.302-.598-.672V40.328c0-.375.271-.677.598-.677h5.353c.328 0 .6.302.6.677" fill="#6CAD84"/><path d="M222.246 68.336v2.414c0 .37-.27.672-.599.672h-5.353c-.327 0-.598-.302-.598-.672v-2.414h6.55z" fill="#6CAD84"/><path d="M226.698 40.328V70.75c0 .37-.136.672-.302.672h-2.673c-.168 0-.304-.302-.304-.672V40.328c0-.375.136-.677.304-.677h2.673c.166 0 .302.302.302.677" fill="#769FC3"/><path d="M226.698 68.336v2.414c0 .37-.136.672-.302.672h-2.673c-.168 0-.304-.302-.304-.672v-2.414h3.279z" fill="#2D4356"/><path d="M78.775 102.953v-2.999c0-.186-.21-.337-.468-.337h-21.14c-.258 0-.468.15-.468.337v2.999c0 .187.21.337.469.337h21.139c.259 0 .468-.15.468-.337" fill="#0E87C9"/><path fill="#0E87C9" d="M75.281 102.82h1.75v-2.732h-1.75z"/><path d="M78.775 110.832v-5.997c0-.373-.21-.675-.469-.675H57.168c-.26 0-.469.302-.469.675v5.997c0 .373.21.675.469.675h21.138c.26 0 .47-.302.47-.675" fill="#E65A40"/><path fill="#E65A40" d="M61.982 109.734H77.04v-1.804H61.982z"/><path fill="#B83826" d="M58.55 111.507h1.27v-7.347h-1.27z"/><path d="M111.28 140.297v-2.999c0-.186-.21-.337-.47-.337H89.673c-.26 0-.469.151-.469.337v2.999c0 .186.21.338.469.338h21.139c.259 0 .469-.152.469-.338" fill="#769FC3"/><path fill="#769FC3" d="M107.785 140.164h1.75v-2.732h-1.75z"/><path d="M46.308 79.735h-6.013a.676.676 0 00-.677.675v30.422c0 .373.304.675.677.675h6.013a.676.676 0 00.676-.675V80.41a.676.676 0 00-.676-.675" fill="#6CAD84"/><path fill="#6CAD84" d="M40.563 84.763h5.477v-2.518h-5.477z"/><path d="M54.495 79.735h-6.013a.676.676 0 00-.676.675v30.422c0 .373.302.675.676.675h6.013a.676.676 0 00.676-.675V80.41a.676.676 0 00-.676-.675" fill="#0E87C9"/><path fill="#0E87C9" d="M49.583 103.903h3.81v-21.67h-3.81z"/><path fill="#094754" d="M47.806 108.844h7.365v-1.828h-7.365z"/><path d="M148.142 118.612h-6.012c-.374 0-.678.285-.678.636v28.69c0 .352.304.637.678.637h6.012c.374 0 .677-.285.677-.637v-28.69c0-.351-.303-.636-.677-.636" fill="#769FC3"/><path fill="#000" opacity=".2" d="M142.397 123.354h5.477v-2.375h-5.477z"/><path d="M156.33 118.612h-6.013c-.374 0-.678.285-.678.636v28.69c0 .352.304.637.678.637h6.012c.374 0 .677-.285.677-.637v-28.69c0-.351-.303-.636-.677-.636" fill="#419D8F"/><path fill="#419D8F" d="M151.417 141.404h3.81v-20.436h-3.81zm-1.778 4.659h7.366v-1.724h-7.366z"/><path d="M170.384 66.182v-4.647c0-.289-.268-.523-.597-.523h-26.881c-.33 0-.598.234-.598.523v4.647c0 .289.268.523.598.523h26.881c.33 0 .597-.234.597-.523" fill="#E65A40"/><path fill="#852108" d="M165.94 65.975h2.225v-4.233h-2.225z"/><path d="M170.384 71.01v-3.665c0-.228-.303-.413-.678-.413h-30.5c-.374 0-.677.185-.677.413v3.664c0 .228.303.413.678.413h30.5c.374 0 .677-.185.677-.413" fill="#6CAD84"/><path fill="#6CAD84" d="M146.153 70.338h21.726v-2.322h-21.726zm-4.953 1.084h1.833v-4.49H141.2z"/><path d="M101.31 79.735h-6.012a.676.676 0 00-.676.675v30.422c0 .373.302.675.676.675h6.013a.676.676 0 00.676-.675V80.41a.676.676 0 00-.676-.675" fill="#5C92BA"/><path fill="#6CAD84" d="M95.565 84.763h5.478v-2.518h-5.478zM60.43 118.612h-3.543c-.374 0-.677.285-.677.636v28.69c0 .352.303.637.677.637h3.543c.373 0 .677-.285.677-.637v-28.69c0-.351-.304-.636-.677-.636"/><path fill="#6CAD84" d="M57.066 137.47h3.184v-15.873h-3.184zm0 9.183h3.184v-2.406h-3.184z"/><path d="M54.658 118.612h-3.542c-.375 0-.677.285-.677.636v28.69c0 .352.302.637.677.637h3.542c.374 0 .677-.285.677-.637v-28.69c0-.351-.303-.636-.677-.636" fill="#187DAC"/><path fill="#187DAC" d="M51.295 146.653h3.184v-2.406h-3.184z"/><path fill="#6CAD84" d="M51.295 121.597h3.184v-1.235h-3.184z"/><path d="M119.384 118.612h-6.013c-.373 0-.676.285-.676.636v28.69c0 .352.303.637.676.637h6.013c.373 0 .676-.285.676-.637v-28.69c0-.351-.303-.636-.676-.636" fill="#419D8F"/><path fill="#419D8F" d="M113.639 123.354h5.477v-2.375h-5.477z"/><path d="M109.497 82.245h-6.012c-.374 0-.677.279-.677.622v28.018c0 .343.303.622.677.622h6.012c.374 0 .677-.279.677-.622V82.867c0-.343-.303-.622-.677-.622" fill="#5C92BA"/><path fill="#5C92BA" d="M104.586 104.504h3.81V84.547h-3.81zm-1.778 4.55h7.366v-1.683h-7.366z"/><path d="M175.71 116.802h-3.543a.676.676 0 00-.677.675V147.9c0 .374.303.676.677.676h3.543a.676.676 0 00.676-.676v-30.422a.676.676 0 00-.676-.675" fill="#6CAD84"/><path fill="#447F5E" d="M173.399 136.799h1.079v-16.831h-1.08z"/><path fill="#6CAD84" d="M172.346 146.538h3.184v-2.553h-3.184z"/><path d="M169.32 116.802h-3.542a.676.676 0 00-.677.675V147.9c0 .374.303.676.677.676h3.543a.676.676 0 00.677-.676v-30.422a.676.676 0 00-.677-.675" fill="#3575A0"/><path fill="#055169" d="M165.957 146.538h3.184v-2.553h-3.184zm0-26.57h3.184v-1.31h-3.184z"/><path d="M185.964 116.802h-6.012a.676.676 0 00-.678.675V147.9c0 .374.303.676.678.676h6.012a.676.676 0 00.677-.676v-30.422a.676.676 0 00-.677-.675" fill="#187DAC"/><path fill="#000" opacity=".3" d="M180.22 121.832h5.476v-2.519h-5.477z"/><path d="M194.15 119.313h-6.012c-.374 0-.677.278-.677.622v28.018c0 .343.303.622.677.622h6.013c.373 0 .677-.279.677-.622v-28.018c0-.344-.304-.622-.677-.622" fill="#769FC3"/><path fill="#769FC3" d="M189.24 141.571h3.81v-19.957h-3.81zm-1.78 4.551h7.367v-1.683h-7.366z"/><path d="M133.65 79.735h-6.013a.676.676 0 00-.677.675v30.422c0 .373.303.675.677.675h6.012a.676.676 0 00.677-.675V80.41a.676.676 0 00-.677-.675" fill="#419D8F"/><path fill="#419D8F" d="M126.96 87.037h7.366v-3.533h-7.367z"/><path d="M228.236 116.802h-3.543a.676.676 0 00-.677.675V147.9c0 .374.303.676.677.676h3.543a.676.676 0 00.677-.676v-30.422a.676.676 0 00-.677-.675" fill="#187DAC"/><path fill="#00415D" d="M225.63 136.799h1.67v-16.831h-1.67z"/><path fill="#187DAC" d="M224.872 146.538h3.185v-2.553h-3.185zm-2.407-29.736h-3.543a.676.676 0 00-.677.675V147.9c0 .374.303.676.677.676h3.543a.677.677 0 00.677-.676v-30.422a.677.677 0 00-.677-.675"/><path fill="#187DAC" d="M219.101 146.538h3.185v-2.553H219.1zm0-26.57h3.185v-1.31H219.1z"/><path d="M214.644 116.802h-4.592c-.285 0-.517.303-.517.675V147.9c0 .374.232.676.517.676h4.592c.286 0 .517-.302.517-.676v-30.422c0-.372-.231-.675-.517-.675" fill="#F19E47"/><path fill="#E65A40" d="M209.535 124.105h5.626v-3.533h-5.626z"/><path d="M171.958 70.745V40.323a.68.68 0 01.68-.671h6.013c.37 0 .673.302.673.671v30.422a.675.675 0 01-.673.678h-6.013a.68.68 0 01-.68-.678" fill="#187DAC"/><path d="M171.958 45.97v-5.647a.68.68 0 01.68-.671h6.013c.37 0 .673.302.673.671v5.647h-7.366zm1.441 22.287h4.485v-1.863H173.4z" fill="#187DAC"/><path d="M49 168.748v-5.487c0-.58-.43-1.049-.963-1.049H4.647c-.532 0-.963.47-.963 1.049v5.487c0 .578.43 1.048.963 1.048h43.39c.533 0 .964-.47.964-1.048" fill="#5AA6D9"/><path fill="#4192C8" d="M41.306 169.795h4.114v-7.583h-4.114z"/><path d="M50.236 178.741v-7.216c0-.448-.415-.812-.927-.812H7.567c-.512 0-.926.364-.926.812v7.216c0 .449.414.812.926.812h41.742c.512 0 .927-.363.927-.812" fill="#E65A40"/><path fill="#BB4530" d="M43.335 178.42h3.456v-6.574h-3.456z"/><path d="M52.088 186.853v-5.69c0-.354-.47-.641-1.051-.641H3.675c-.58 0-1.05.287-1.05.64v5.691c0 .354.47.64 1.05.64h47.362c.58 0 1.05-.286 1.05-.64" fill="#6CAD84"/><path fill="#447F5E" d="M14.462 185.81h33.736v-3.606H14.462zm-7.692 1.684h2.846v-6.972H6.77z"/><path d="M53.94 194.79v-5.69c0-.354-.507-.64-1.132-.64H1.805c-.626 0-1.132.286-1.132.64v5.69c0 .354.506.641 1.132.641h51.003c.625 0 1.132-.287 1.132-.64" fill="#3575A0"/><path fill="#245A7E" d="M13.42 193.748h36.331v-3.606h-36.33zm-8.282 1.683h3.064v-6.972H5.138z"/><path fill="#4192C8" d="M8.863 166.84h20.533v-1.744H8.863z"/><path d="M266.671 170.485v-5.488c0-.579-.43-1.048-.963-1.048h-43.391c-.532 0-.963.47-.963 1.048v5.488c0 .578.431 1.048.963 1.048h43.39c.533 0 .964-.47.964-1.048" fill="#5AA6D9"/><path fill="#4192C8" d="M258.976 171.532h4.114v-7.583h-4.114z"/><path d="M267.906 180.478v-7.216c0-.448-.414-.812-.926-.812h-41.743c-.512 0-.926.364-.926.812v7.216c0 .449.414.812.926.812h41.743c.512 0 .926-.363.926-.812" fill="#E65A40"/><path fill="#BB4530" d="M261.006 180.157h3.455v-6.574h-3.455z"/><path d="M267.906 180.478v-7.216c0-.448-.414-.812-.926-.812h-41.743c-.512 0-.926.364-.926.812v7.216c0 .449.414.812.926.812h41.743c.512 0 .926-.363.926-.812" fill="#E65A40"/><path fill="#BB4530" d="M261.006 180.157h3.455v-6.574h-3.455z"/><path d="M267.906 162.059v-7.216a.823.823 0 00-.834-.812h-37.56a.823.823 0 00-.834.812v7.216c0 .449.373.812.834.812h37.56a.823.823 0 00.834-.812" fill="#DAA464"/><path fill="#FC6" d="M230.576 161.738h3.455v-6.574h-3.455z"/><path d="M269.758 188.59v-5.69c0-.354-.47-.641-1.05-.641h-47.362c-.581 0-1.051.287-1.051.64v5.691c0 .354.47.64 1.05.64h47.362c.58 0 1.051-.286 1.051-.64" fill="#6CAD84"/><path fill="#447F5E" d="M232.133 187.548h33.736v-3.607h-33.736zm-7.692 1.682h2.845v-6.971h-2.845z"/><path d="M269.758 152.116v-5.69c0-.354-.35-.64-.78-.64h-35.175c-.432 0-.78.286-.78.64v5.69c0 .354.348.641.78.641h35.175c.43 0 .78-.287.78-.64" fill="#6CAD84"/><path fill="#447F5E" d="M241.814 151.074h25.055v-3.607h-25.055z"/><path d="M271.61 196.527v-5.69c0-.354-.507-.64-1.131-.64h-51.004c-.626 0-1.132.286-1.132.64v5.69c0 .354.506.64 1.132.64h51.004c.624 0 1.131-.286 1.131-.64" fill="#3575A0"/><path fill="#245A7E" d="M231.091 195.485h36.33v-3.606h-36.33zm-8.282 1.683h3.064v-6.972h-3.064z"/><path fill="#4192C8" d="M226.533 168.577h20.533v-1.744h-20.533z"/><path d="M187.601 21.81l-.278.832c-.173.515.09 1.03.586 1.143l.516.119c.496.113 1.042-.216 1.215-.731l.28-.832-2.319-.531z" fill="#C45C2D"/><path fill="#547C3B" d="M194.144 7.906l.572.13-4.467 13.32-.572-.132zm-1.746-.4l.573.13-4.467 13.32-.572-.132z"/><path fill="#6CAD84" d="M192.97 7.637l1.173.269-4.466 13.318-1.173-.268z"/><path fill="#F1CBA1" d="M194.976 3.54l-2.578 3.966 2.318.531z"/><path fill="#C0C3C4" d="M187.931 20.824l2.319.532-.501 1.493-2.318-.532z"/><path fill="#9FA1A3" d="M189.677 21.225l.573.13-.5 1.494-.574-.132zm-1.746-.401l.573.132-.5 1.492-.573-.13z"/><path fill="#927736" d="M187.96 20.738l2.319.532-.03.086-2.318-.532z"/><path fill="#161007" d="M194.291 4.593l.616.141.069-1.193z"/><path d="M183.16 22.886l.268.87c.165.537.651.87 1.08.739l.446-.137c.43-.132.645-.68.48-1.217l-.268-.87-2.006.615z" fill="#C45C2D"/><path fill="#D78727" d="M180.073 7.488l.496-.152 4.28 13.907-.495.152zm-1.511.462l.497-.151 4.28 13.906-.496.153z"/><path fill="#F9B52B" d="M179.058 7.799l1.015-.31 4.28 13.906-1.014.31z"/><path fill="#F1CBA1" d="M178.206 3.226l.356 4.725 2.007-.614z"/><path fill="#C0C3C4" d="M182.843 21.858l2.006-.615.48 1.559-2.006.614z"/><path fill="#9FA1A3" d="M184.353 21.395l.496-.152.48 1.559-.496.152zm-1.51.463l.496-.153.48 1.56-.496.151z"/><path fill="#927736" d="M182.815 21.767l2.006-.614.028.09-2.006.614z"/><path fill="#161007" d="M178.3 4.48l.533-.163-.627-1.091z"/><path d="M180.735 0l1.39 4.517-.888.272-.937-2.184s.606-1.153.435-2.605" fill="#B9BBBD"/><path d="M180.735 0l1.39 4.517.89-.272-.454-2.333s-1.15-.615-1.826-1.912" fill="#CCCED0"/><path d="M186.8 24.054a1.28 1.28 0 012.448-.75 1.28 1.28 0 01-2.448.75" fill="#C7E4C7"/><path fill="#8BC64A" d="M184.103 15.39l2.504-.766 2.669 8.672-2.504.767z"/><path fill="#6CAD84" d="M189.155 23.333l-5.924-19.24-2.26.691 5.923 19.242z"/><path fill="#41A349" d="M184.103 15.39l2.504-.766.44 1.427-2.505.767zm2.562 8.326l2.504-.766.054.171-2.505.767zm-5.694-18.932l2.26-.692.218.707-2.26.692zm8.892 18.029a.221.221 0 00.147-.278l-2.259-7.338a.223.223 0 00-.425.13l2.259 7.338c.036.118.16.184.278.148"/><path d="M187.783 16.813l-.44-1.432c-.153.047-.179.406-.058.802.123.394.346.677.498.63m1.928 5.896s-.11.287-.357.47l-.172-.56s.237-.433.19-1.016l.34 1.106" fill="#41A349"/><path d="M191.375 29.567h-8.847c-.823 0-1.517-.61-1.622-1.425l-2.231-17.428h16.554l-2.232 17.428a1.635 1.635 0 01-1.622 1.425" fill="#E1E3E2"/><path d="M191.895 27.705h-9.886c-.462 0-.887-.154-1.212-.411l.11.849a1.634 1.634 0 001.621 1.424h8.847c.823 0 1.518-.61 1.622-1.424l.109-.85a1.95 1.95 0 01-1.211.412" fill="#B7BABA"/><path d="M192.445 11.614l-2.134 16.665a1.639 1.639 0 01-.175.55h.125a1.49 1.49 0 001.48-1.3l2.04-15.915h-1.336z" fill="#FEFEFE"/></g></svg>