<svg height="500pt" viewBox="0 -2 500.384 500" width="500pt" xmlns="http://www.w3.org/2000/svg"><path d="M151.754 384.895a39.854 39.854 0 0110.559 7.39l11.175-11.45a56.105 56.105 0 00-14.777-10.35l-14.383-6.942c-1.703-10.473-6.129-20.176-13.289-28.211l-10.633-11.926c2.434-10.328 2.067-20.984-1.476-31.144l-5.258-15.09c6.2-8.606 9.937-18.598 10.55-29.336l.915-15.941c9.023-5.579 16.297-13.375 20.976-23.067l17.399-36.023-7.2-3.48a55.536 55.536 0 00-20.496-5.4l.84-.726c10.473-9.113 16.672-21.664 17.457-35.363.782-13.645-3.914-26.766-13.226-36.95l-5.262-5.761-27.89 24.25c-10.391 9.04-16.56 21.46-17.422 35.031a55.745 55.745 0 00-20.45-16.832l-7.199-3.48-17.398 36.015c-6.504 13.473-7.38 28.664-2.457 42.793a58.108 58.108 0 002.039 5.055 55.803 55.803 0 00-22.168-6l-7.985-.457-2.297 39.938c-1 17.39 6.098 33.406 18.008 44.39a55.78 55.78 0 00-22.855 2.906L0 291.367l13.168 37.766c4.922 14.129 15.047 25.488 28.52 32 1.671.808 3.374 1.488 5.097 2.12-7.183 2.321-14.015 6.099-20 11.435l-5.976 5.324 26.625 29.86c9.949 11.167 23.664 17.78 38.59 18.636a54.59 54.59 0 003.28.097c.75 0 1.489-.07 2.239-.105-5.84 4.977-10.664 11.121-14.094 18.242l-3.48 7.2 36.015 17.398a55.924 55.924 0 0024.36 5.562 55.917 55.917 0 0021.008-4.082l-6-14.832a40.034 40.034 0 01-32.415-1.054L96.04 446.836c4.715-6.2 11.137-10.887 18.656-13.512 10.098-3.512 20.961-2.887 30.57 1.754l5.169 2.496 6.957-14.41-5.168-2.496c-17.391-8.398-25.957-27.832-21.375-45.863zm-29.059-31.81l-3.48 7.2c-4.328 8.969-6.016 18.527-5.422 27.817l-7.93-8.895c-7.11-7.977-10.687-18.242-10.078-28.906.453-7.95 3.2-15.414 7.871-21.649l15.442 17.32c2.183 2.45 3.91 5.16 5.406 7.985zm-18.261-47.616l-5.977 5.328a55.528 55.528 0 00-15.664 23.594l-3.914-11.22c-6.36-18.237 1.32-38.03 17.312-47.542l7.641 21.906c1.078 3.094 1.64 6.262 1.945 9.445zm1.336-50.977l-7.555 2.633c-9.399 3.281-17.352 8.848-23.504 15.832l.68-11.894c.609-10.665 5.336-20.458 13.32-27.57 5.945-5.302 13.168-8.638 20.875-9.735l-1.328 23.168c-.188 3.273-.883 6.414-1.824 9.472zm36.039-73.512l-10.09 20.891c-1.422 2.95-3.27 5.59-5.313 8.055l.114-2.016-7.993-.465c-9.941-.558-19.422 1.551-27.793 5.664l5.196-10.75c3.007-6.226 7.46-11.265 12.726-15.035l.106.113 1.133-.992c9.265-6.093 20.84-8.273 31.914-5.465zm-23.57-59.527l15.464-13.45a34.02 34.02 0 014.442 18.923c-.536 9.351-4.793 17.945-11.985 24.199l-15.465 13.45a34.01 34.01 0 01-4.437-18.923c.535-9.359 4.789-17.949 11.98-24.199zm-58.56 45.625l10.098-20.894c6.2 4.71 10.887 11.132 13.512 18.652 3.512 10.09 2.895 20.945-1.754 30.57l-10.094 20.895c-6.203-4.711-10.898-11.137-13.511-18.656-3.524-10.094-2.899-20.95 1.75-30.567zM28.392 242.34l1.328-23.168c7.527 1.976 14.328 6.121 19.625 12.066 7.113 7.977 10.687 18.239 10.07 28.91l-1.324 23.16c-17.992-4.75-30.809-21.68-29.7-40.968zm-.102 81.523l-7.64-21.906c18.449-2.504 36.757 8.242 43.12 26.48l7.637 21.915c-7.703 1.07-15.574-.168-22.75-3.633-9.617-4.649-16.847-12.77-20.367-22.856zm58.672 88.672c-10.664-.61-20.457-5.336-27.57-13.32l-15.438-17.32c16.078-9.36 37.11-6.465 49.969 7.968l15.437 17.32c-6.718 3.934-14.48 5.805-22.398 5.352zm0 0"/><path d="M284.04 144.375c-7.446 0-14.794-6.922-21.942-13.672-3.664-3.457-9.801-9.234-12.176-9.754-1.824.512-7.953 6.297-11.617 9.754-9.153 8.621-18.594 17.535-28.168 11.91-9.64-5.68-6.723-18.625-3.899-31.152 1.098-4.832 2.914-12.91 2.219-15.184-1.168-.937-8.617-3.23-13.066-4.609-11.805-3.637-25.192-7.766-25.192-19.383 0-11.617 13.387-15.742 25.184-19.383 4.449-1.375 11.89-3.672 13.457-5.273.305-1.617-1.512-9.703-2.61-14.527-2.824-12.52-5.742-25.473 3.899-31.145 9.535-5.605 19.023 3.29 28.168 11.914 3.664 3.453 9.8 9.23 12.176 9.75 1.824-.512 7.953-6.297 11.617-9.75 9.148-8.625 18.574-17.555 28.168-11.914 9.637 5.68 6.719 18.625 3.894 31.152-1.097 4.832-2.914 12.914-2.214 15.184 1.167.937 8.613 3.234 13.062 4.61 11.816 3.64 25.2 7.765 25.2 19.382s-13.384 15.746-25.184 19.383c-4.45 1.379-11.887 3.672-13.457 5.273-.301 1.618 1.511 9.704 2.609 14.528 2.824 12.52 5.742 25.472-3.895 31.144-2.082 1.215-4.16 1.762-6.234 1.762zm0 0" fill="#f0bc5e"/><path d="M487.215 329.125l13.168-37.766-7.551-2.632c-8.496-2.961-17.215-3.696-25.574-2.61 12.117-10.984 19.375-27.129 18.367-44.695l-2.297-39.938-7.984.457a55.803 55.803 0 00-22.168 6 55.962 55.962 0 002.039-5.054c4.93-14.121 4.058-29.32-2.453-42.793l-17.403-36.016-7.199 3.48a55.845 55.845 0 00-18.512 14.43c-1.402-12.62-7.367-24.125-17.105-32.62l-27.816-24.282-5.27 5.793c-9.281 10.183-13.96 23.312-13.176 36.95.781 13.69 6.965 26.234 17.39 35.335l.735.64c-7.644.22-15.367 1.97-22.695 5.505l-7.2 3.48 17.4 36.016c4.675 9.687 11.952 17.488 20.976 23.074l.914 15.941c.672 11.657 4.933 22.473 12.152 31.54l-4.496 12.886c-3.305 9.473-3.871 19.383-1.984 29.055l-12.489 14.008c-7.16 8.03-11.578 17.738-13.28 28.199l-14.392 6.953a56.264 56.264 0 00-11.375 7.297l10.2 12.328a39.759 39.759 0 018.136-5.215l20.887-10.09c4.594 18.04-3.984 37.465-21.367 45.864l-3.512 1.695 6.95 14.41 3.511-1.695c9.633-4.649 20.48-5.258 30.563-1.754 7.52 2.625 13.941 7.312 18.656 13.511l-20.899 10.098c-9.863 4.758-20.964 5.305-31.253 1.504l-5.536 15.008c6.344 2.344 12.903 3.504 19.446 3.504 8.304 0 16.578-1.88 24.304-5.617l36.016-17.399-3.48-7.2a55.826 55.826 0 00-14.094-18.241c.75.031 1.488.105 2.238.105 1.09 0 2.184-.031 3.281-.097 14.938-.856 28.641-7.48 38.59-18.641L477.2 379.98l-5.976-5.328a55.496 55.496 0 00-18.727-11.015 56.618 56.618 0 006.191-2.535c13.481-6.48 23.61-17.848 28.528-31.977zm-7.473-27.168l-7.637 21.906c-3.511 10.086-10.753 18.207-20.37 22.856-7.169 3.465-15.032 4.687-22.75 3.633l7.64-21.914c6.36-18.239 24.703-28.977 43.117-26.481zm-85.062 4.473c.328-2.992.87-5.977 1.886-8.895l7.641-21.906c16 9.512 23.672 29.312 17.313 47.543l-5.184 14.867c-2.727-10.184-8.32-19.715-16.762-27.242zm74.968-64.09c1.106 19.289-11.71 36.21-29.703 40.969l-1.328-23.16c-.617-10.665 2.969-20.934 10.078-28.91 5.305-5.946 12.098-10.09 19.625-12.067zm-54.894-77.512c2.621-7.52 7.309-13.941 13.512-18.656l10.093 20.898c4.649 9.625 5.274 20.473 1.754 30.559-2.625 7.52-7.312 13.945-13.511 18.656l-10.098-20.894c-4.649-9.61-5.274-20.465-1.75-30.563zm-52.496-37.894a34.102 34.102 0 014.406-18.903l15.36 13.407c7.167 6.25 11.402 14.84 11.937 24.19a34.159 34.159 0 01-4.41 18.907l-15.352-13.41c-7.168-6.246-11.406-14.84-11.941-24.191zm17.246 80.52l-7.992.464.113 2.008c-2.031-2.465-3.883-5.106-5.305-8.055l-10.09-20.89c18.036-4.583 37.458 3.984 45.868 21.378l5.168 10.696c-8.524-4.168-18-6.145-27.762-5.602zm10.281 39.472l-1.328-23.168c7.703 1.105 14.926 4.441 20.871 9.734 7.977 7.113 12.703 16.906 13.313 27.57l.527 9.262c-5.762-5.742-12.809-10.351-20.992-13.207l-7.551-2.633-1.89 5.41a40.03 40.03 0 01-2.95-12.968zm-10.847 99.054l15.437-17.32c11.137 14.914 10.656 36.137-2.2 50.555l-7.929 8.894c.594-9.296-1.086-18.855-5.422-27.816l-3.48-7.2-1.817.872c1.496-2.824 3.227-5.535 5.41-7.985zm59.71 53.235c-12.855 14.414-33.894 17.32-49.968 7.969l15.441-17.32c12.848-14.419 33.879-17.329 49.969-7.97zm0 0"/><path d="M375.855 442.629c-12.535-12.535-27.87-22.047-44.785-27.84 7.86-16.047 11.977-33.605 11.977-51.352v-8h-8c-17.742 0-35.305 4.122-51.352 11.977-5.8-16.906-15.304-32.242-27.84-44.785l-5.656-5.656-5.656 5.656c-12.535 12.535-22.047 27.871-27.84 44.785-16.047-7.855-33.605-11.977-51.351-11.977h-8v8c0 17.747 4.12 35.305 11.976 51.352-16.902 5.8-32.238 15.305-44.785 27.84l-5.656 5.656 5.656 5.656c22.152 22.153 51.594 34.344 82.914 34.344h85.488c31.32 0 60.766-12.191 82.91-34.344l5.657-5.656zm0 0" fill="#f0bc5e"/><path d="M250.2 496.285c-26.473 0-48-21.527-48-48s21.527-48 48-48c26.472 0 48 21.527 48 48s-21.528 48-48 48zm0-80c-17.65 0-32 14.352-32 32 0 17.649 14.35 32 32 32 17.648 0 32-14.351 32-32 0-17.648-14.352-32-32-32zm0 0"/></svg>