<svg width="24" height="24" xmlns="http://www.w3.org/2000/svg"><g fill="none"><path d="M19.28 3.748C17.26 1.726 14.492.45 11.51.45 5.544.45.439 5.555.439 11.52c0 2.983 1.276 5.75 3.298 7.772 2.022 2.022 4.79 3.298 7.772 3.298 5.965 0 11.07-5.105 11.07-11.07 0-2.983-1.276-5.75-3.298-7.772z" fill="#F0DEDA"/><path d="M22.579 11.52h-2.835c0-2.233-.943-4.292-2.443-5.792l1.98-1.98c2.022 2.022 3.298 4.79 3.298 7.772zm-5.278 5.792l1.98 1.98c-2.022 2.022-4.79 3.298-7.772 3.298v-2.835c2.233 0 4.292-.942 5.792-2.443zm-2.435-5.842c0 .99-.686 1.825-1.68 1.825-.341 0-.62-.104-.845-.257a2.641 2.641 0 00.71 2.532H9.964a2.616 2.616 0 00.71-2.534 1.48 1.48 0 01-.85.26c-.995 0-1.68-.836-1.68-1.825 0-.779.443-1.408 1.193-2.125.567-.54 1.31-1.133 2.167-1.876.364.315.707.603 1.025.872 1.422 1.202 2.336 2.01 2.336 3.129zM11.509.45v2.835c-2.233 0-4.292.942-5.793 2.443l-1.98-1.98C5.76 1.726 8.527.45 11.51.45zM5.716 17.312l-1.98 1.98C1.716 17.27.44 14.502.44 11.52h2.835c0 2.233.942 4.292 2.442 5.792z" fill="#E65A40"/><path d="M7.02 7.47a.45.45 0 100-.9.45.45 0 000 .9z" fill="#28282C"/><path d="M11.52 4.77a6.748 6.748 0 00-3.239.829.45.45 0 10.433.789 5.846 5.846 0 012.806-.718 5.857 5.857 0 015.85 5.85 5.857 5.857 0 01-5.85 5.85 5.857 5.857 0 01-5.85-5.85c0-.98.248-1.95.718-2.806a.45.45 0 10-.79-.433 6.749 6.749 0 00-.828 3.239 6.758 6.758 0 006.75 6.75 6.758 6.758 0 006.75-6.75 6.758 6.758 0 00-6.75-6.75z" fill="#28282C"/><path d="M11.52 0C5.327 0 0 5.285 0 11.52c0 6.21 5.302 11.52 11.52 11.52 6.21 0 11.52-5.302 11.52-11.52C23.04 5.31 17.738 0 11.52 0zm8.673 11.07c-.105-1.97-.892-3.835-2.252-5.335l1.344-1.344c1.713 1.86 2.731 4.25 2.844 6.679h-1.936zm-8.673 8.235c-4.215 0-7.785-3.564-7.785-7.785 0-4.215 3.564-7.785 7.785-7.785 4.215 0 7.785 3.564 7.785 7.785 0 4.215-3.564 7.785-7.785 7.785zm7.129-15.55L17.305 5.1c-1.5-1.36-3.366-2.147-5.335-2.252V.911c2.428.113 4.819 1.13 6.679 2.844zM11.07.911v1.936C9.1 2.952 7.235 3.74 5.735 5.1L4.391 3.755C6.251 2.042 8.642 1.024 11.07.911zm-7.315 3.48L5.1 5.735c-1.36 1.5-2.147 3.366-2.252 5.335H.911c.113-2.428 1.13-4.819 2.844-6.679zM.911 11.97h1.936c.105 1.97.892 3.835 2.252 5.335l-1.344 1.344c-1.713-1.86-2.731-4.25-2.844-6.679zm3.48 7.315l1.344-1.344c1.5 1.36 3.366 2.147 5.335 2.252v1.936c-2.428-.113-4.819-1.13-6.679-2.844zm7.579 2.844v-1.936c1.97-.105 3.835-.892 5.335-2.252l1.344 1.344c-1.86 1.713-4.251 2.731-6.679 2.844zm7.315-3.48l-1.344-1.344c1.36-1.5 2.147-3.37 2.252-5.34h1.936c-.113 2.429-1.13 4.824-2.844 6.684z" fill="#28282C"/><path d="M13.197 13.745c1.194 0 2.13-.999 2.13-2.274 0-1.664-1.674-2.745-3.516-4.341a.45.45 0 00-.59 0c-1.958 1.698-3.514 2.716-3.514 4.34 0 1.275.936 2.274 2.13 2.274.166 0 .327-.019.482-.057v.002c0 .592-.233 1.145-.656 1.557a.45.45 0 00.315.772h.246l2.837.001h.002a.45.45 0 00.314-.772 2.164 2.164 0 01-.655-1.558v-.001c.153.037.311.056.476.056zm-.59-1.079a.45.45 0 00-.69.26 3.097 3.097 0 00.254 2.198h-1.303a3.08 3.08 0 00.35-1.434c0-.26-.033-.517-.096-.766a.45.45 0 00-.69-.26 1.026 1.026 0 01-.596.181c-.701 0-1.23-.59-1.23-1.374 0-1.083 1.173-1.922 2.91-3.407 1.768 1.51 2.911 2.332 2.911 3.407 0 .783-.529 1.374-1.23 1.374-.221 0-.414-.058-.59-.179z" fill="#28282C"/></g></svg>