<svg width="25" height="32" xmlns="http://www.w3.org/2000/svg"><g fill="none"><path d="M4.835 29.067C3.37 27.4 1.902 25.667.97 23.6c-.934-2.2-1.2-4.733-.734-7.133.467-2.4 1.534-4.667 3.067-6.6-.133 1.666.467 3.4 1.6 4.666-.667-3.2.4-6.666 2.533-9.2C9.57 2.8 12.502 1.133 15.57 0c-1.534 1.6-1.734 4.133-1.134 6.267.6 2.133 1.867 4 3 5.933 1.134 1.933 2.2 3.933 2.267 6.133.6-1.133 1.267-2.266 1.667-3.533.4-1.267.6-2.6.267-3.867 1.2 1.467 1.866 2.934 2.2 4.8.333 1.867.266 3.8.066 5.667-.267 2.067-.8 4.2-1.933 5.933-1.333 2.067-3.467 3.534-5.8 4.334-4.134.733-8.2.133-11.334-2.6z" fill="#FF7157"/><path d="M9.902 31.533C15.37 33.667 20.77 27.2 17.77 22.2c0-.067-.067-.067-.067-.133.267 2.733-.4 4.733-1.667 5.866.667-1.6.2-3.466-.6-5.066-.8-1.534-1.933-2.934-2.8-4.4-.866-1.534-1.533-3.267-1.133-5-1.6 1.2-2.733 3-3.2 4.933-.467 1.933-.2 4.067.667 5.867-1-.734-1.734-1.934-1.8-3.2-1.067 1.266-1.734 2.933-1.667 4.6 0 2.6 2.067 4.933 4.4 5.866z" fill="#FC6"/></g></svg>