<svg width="512" height="512" fill="none" xmlns="http://www.w3.org/2000/svg"><path d="M124.16 122.24l6.4-65.92 18.56-24.96h327.04l26.88 27.52 3.2 195.2-17.92 32-44.16 10.24-5.12 87.04-48-49.28-8.96-37.76V179.2L368 132.48l-56.96-10.24H124.16z" fill="#F0BC5E"/><path d="M85.333 217.301h110.934a8.53 8.53 0 008.533-8.533 8.53 8.53 0 00-8.533-8.533H85.333a8.531 8.531 0 00-8.533 8.533 8.531 8.531 0 008.533 8.533zM307.2 251.435H85.333a8.531 8.531 0 00-8.533 8.533 8.531 8.531 0 008.533 8.533H307.2a8.53 8.53 0 008.533-8.533 8.53 8.53 0 00-8.533-8.533zm0 51.2H85.333a8.531 8.531 0 00-8.533 8.533 8.531 8.531 0 008.533 8.533H307.2a8.53 8.53 0 008.533-8.533 8.53 8.53 0 00-8.533-8.533z" fill="#000"/><path d="M461.414 21.632l-291.345-.597c-27.904 0-50.602 22.698-50.602 50.602v43.725l-68.864.145C22.699 115.507 0 138.206 0 166.11v180.403c0 27.904 22.699 50.594 50.603 50.594H102.4v85.333a8.533 8.533 0 0014.848 5.743l82.807-91.093 141.876-.58c27.904 0 50.602-22.699 50.602-50.594v-.965l44.886 49.374a8.548 8.548 0 006.314 2.791 8.535 8.535 0 008.534-8.534v-85.333h9.13c27.904 0 50.603-22.699 50.603-50.594V72.235c0-27.896-22.69-50.594-50.586-50.603zm-85.947 324.275c0 18.492-15.045 33.528-33.57 33.528l-145.664.597a8.537 8.537 0 00-6.281 2.79l-70.485 77.543v-71.8a8.531 8.531 0 00-8.534-8.533h-60.33c-18.492 0-33.536-15.044-33.536-33.528V166.101c0-18.491 15.044-33.536 33.553-33.536l77.38-.162h.017l213.914-.444c18.491 0 33.536 15.045 33.536 33.536v180.412zm119.466-93.269c0 18.492-15.044 33.527-33.536 33.527h-17.664a8.53 8.53 0 00-8.533 8.534v71.799l-42.667-46.933V165.504c0-27.904-22.698-50.603-50.619-50.603l-205.381.418v-43.69c0-18.492 15.045-33.536 33.519-33.536l291.337.597h.017c18.492 0 33.536 15.044 33.536 33.536v180.412h-.009z" fill="#000"/></svg>