<svg width="86" height="100" xmlns="http://www.w3.org/2000/svg"><g fill="none" fill-rule="evenodd"><ellipse fill="#4192C8" cx="42.94" cy="22.855" rx="42.916" ry="16.04"/><path d="M.042 23.1L.024 39.14c0 8.859 19.214 16.04 42.916 16.04 23.703 0 42.917-7.181 42.917-16.04V23.1c-.373 8.745-19.434 15.795-42.917 15.795S.393 31.845.042 23.1z" fill="#3A7DAA"/><path d="M1.342 43.093V83.61c0 8.858 18.623 16.04 41.598 16.04 22.975 0 41.601-7.182 41.601-16.04V43.092c-4.71 6.948-21.55 12.09-41.6 12.09-20.055 0-36.892-5.14-41.599-12.09z" fill="#5AA6D9"/><path d="M13.102 50.233v44.554s3.768 1.355 5.52 1.837c1.855.512 5.517 1.299 5.517 1.299V53.068l-11.037-2.835z" fill="#FF6C50"/><path fill="#E65A40" d="M12.069 34.245v16.674l11.04 2.751V37.08z"/><path fill="#FF6C50" d="M12.069 34.245l56.72-24.194 10.557 4.313L23.108 37.08zm66.243 14.141V92.05s-3.77 2.244-5.52 2.728c-1.855.51-5.52 2.18-5.52 2.18V52.355l11.04-3.97z"/><path d="M79.346 31.351v16.492s-2.23 1.242-4.544 2.028c-1.63.559-6.494 2.209-6.494 2.209V35.791l11.038-4.44z" fill="#E65A40"/><path d="M79.346 31.351l-57.7-22.425s-4.29 1.02-5.593 1.426c-1.572.493-5.928 2.164-5.928 2.164l58.183 23.276 11.038-4.44z" fill="#FF6C50"/><path d="M48.585 21.371c1.534.929 2.9 1.963 4.602 2.502 2.193.692 4.702.686 6.978.312 8.143-1.33 8.244-4.741 8.143-4.964-.2-.435-2.632-.669-3.008-.79-2.402-.779-6.146.063-8.674.034-.91-.006-1.928-.116-2.81.1-1.004.244-2.124.496-3.067.881-.51.211-1.845.85-2.062 1.423" fill="#E65A40"/><path d="M48.904 18.716c2.053-2.497 2.774-5.591 4.72-8.105 1.416-1.827 1.902-4.044 3.364-5.915 1.72-2.192 5.594-5.628 8.547-3.851 1.31.789 2.306 1.963 2.792 3.534.59 1.901-.34 3.996-.604 5.945-.222 1.643-.191 3.229.169 4.84.22.991.908 2.835.54 3.833-.452 1.232-2.683.327-3.885-.13-2.232-.836-4.464-.836-6.479-.434-3.182.633-6.263 1.632-9.333 2.897-.447-.605-.655-1.46-.05-1.969" fill="#FF7A60"/><path d="M45.429 21.371c-1.533.929-2.898 1.963-4.603 2.502-2.194.692-4.698.686-6.978.312-8.141-1.33-8.24-4.741-8.141-4.964.2-.435 2.632-.669 3.006-.79 2.4-.779 6.15.063 8.674.034.91-.006 1.927-.116 2.812.1 1 .244 2.122.496 3.067.881.508.211 1.84.85 2.062 1.423" fill="#E65A40"/><path d="M45.111 18.716c-2.055-2.497-2.774-5.591-4.72-8.105-1.418-1.827-1.9-4.044-3.37-5.915-1.715-2.192-5.59-5.628-8.543-3.851-1.311.789-2.305 1.963-2.79 3.534-.592 1.901.339 3.996.6 5.945.223 1.643.191 3.229-.169 4.84-.22.991-.905 2.835-.538 3.833.452 1.232 2.686.327 3.886-.13 2.23-.836 4.458-.836 6.48-.434 3.178.633 6.263 1.632 9.334 2.897.444-.605.652-1.46.046-1.969" fill="#FF7A60"/><ellipse fill="#E65A40" cx="47.095" cy="19.137" rx="4.155" ry="4.428"/></g></svg>