<svg width="20" height="20" xmlns="http://www.w3.org/2000/svg"><g fill="none" fill-rule="evenodd"><path d="M17.558.018H16.24C16.18.014 16.126 0 16.067 0H3.781c-.06 0-.115.014-.173.018H2.296C1.304.018.5.838.5 1.848v12.818c0 1.011.804 1.831 1.796 1.831h5.05c.094.075 2.867 2.858 3.002 2.813.007-.007.03-2.772-.001-2.813h7.211c.992 0 1.796-.82 1.796-1.83V1.848c0-1.012-.804-1.831-1.796-1.831z" fill="#6CAD84"/><path d="M14.416 7.342c-.744 0-1.347.615-1.347 1.374a1.36 1.36 0 001.347 1.372 1.36 1.36 0 001.347-1.372c0-.759-.604-1.374-1.347-1.374zm-4.489 0c-.744 0-1.347.615-1.347 1.374a1.36 1.36 0 001.347 1.372 1.36 1.36 0 001.347-1.372c0-.759-.604-1.374-1.347-1.374zm-4.489 0c-.744 0-1.347.615-1.347 1.374a1.36 1.36 0 001.347 1.372 1.36 1.36 0 001.347-1.372c0-.759-.604-1.374-1.347-1.374z" fill="#FFF"/></g></svg>