<svg width="28" height="28" xmlns="http://www.w3.org/2000/svg"><g fill="none"><path d="M28 14c0 7.732-6.268 14-14 14S0 21.732 0 14 6.268 0 14 0s14 6.268 14 14z" fill="#3186C0"/><path d="M28 14a13.954 13.954 0 00-4.105-9.895L14 14h14zM14 0a13.954 13.954 0 00-9.895 4.105L14 14V0zm0 28a13.954 13.954 0 009.895-4.105L14 14v14zM0 14a13.954 13.954 0 004.105 9.895L14 14H0z" fill="#5AA5D8"/><path d="M23.625 14A9.625 9.625 0 0114 23.625 9.625 9.625 0 014.375 14 9.625 9.625 0 0114 4.375 9.625 9.625 0 0123.625 14z" fill="#FFF"/><path d="M18.265 11.588L14 7.544l-4.287 4.064a3.306 3.306 0 003.412 5.473v1.513h-.875v1.75h3.5v-1.75h-.875V17.1a3.278 3.278 0 003.412-.795 3.349 3.349 0 00-.022-4.717z" fill="#5AA5D8"/></g></svg>