<svg width="385" height="257" xmlns="http://www.w3.org/2000/svg" xmlns:xlink="http://www.w3.org/1999/xlink"><defs><path id="a" d="M198.983.443V96.73H.254V.443h198.73z"/><path id="c" d="M198.983 13.002V.333H.254v12.67h198.73z"/><path id="e" d="M.254 115.697h198.73V.333H.253z"/><path id="g" d="M.753 24.77H19.07V.14H.753v24.63z"/></defs><g fill="none" fill-rule="evenodd"><path d="M252.807 234.638c-3.7 0-6.713-3.002-6.713-6.694v-58.64c0-3.689 3.014-6.689 6.713-6.689l42.5-.004c3.701 0 6.71 3.001 6.71 6.69l-.001 58.643c0 3.692-3.008 6.694-6.71 6.694h-42.499z" fill="#5AA6D9"/><path d="M198.869 234.638c-3.697 0-6.709-3.002-6.709-6.694v-58.64c0-3.689 3.012-6.689 6.709-6.689l42.503-.004c3.7 0 6.707 3.001 6.707 6.69v58.643c0 3.692-3.01 6.694-6.711 6.694h-42.499z" fill="#5AA6D9"/><path d="M244.35 166.57h-13.214v.003h-32.267a2.745 2.745 0 00-2.741 2.73v58.641a2.746 2.746 0 002.741 2.738h45.478a2.743 2.743 0 002.737-2.738v-45.899h.003v-12.744a2.74 2.74 0 00-2.737-2.73" fill="#FEFEFE"/><path fill="#DBDBDA" d="M212.572 182.503h18.073v-2.86h-18.073zm-4.958 14.861h27.992v-2.858h-27.992zm0 7.334h27.992v-2.855h-27.992zm0 7.43h27.992v-2.857h-27.992zm0 7.43h27.992v-2.854h-27.992z"/><path d="M295.307 166.57h-13.213v.003h-32.262a2.745 2.745 0 00-2.744 2.73v58.641a2.747 2.747 0 002.744 2.738h45.474a2.744 2.744 0 002.74-2.738v-45.899h.003v-12.744a2.743 2.743 0 00-2.742-2.73" fill="#FEFEFE"/><path fill="#DBDBDA" d="M258.573 182.503h27.993v-2.86h-27.993zm0 7.427h27.993v-2.855h-27.993zm0 7.434h27.993v-2.858h-27.993zm0 7.334h27.993v-2.855h-27.993zm0 7.43h27.993v-2.857h-27.993zm0 7.43h27.993v-2.854h-27.993zm-13.785 11.124h4.598V166.57h-4.598z"/><path fill="#FF6C50" d="M288.955 207.112l-5.746-4.5-5.742 4.5v-44.5h11.488z"/><path fill="#CB3E29" d="M277.466 166.57h11.489v-3.96h-11.489z"/><path d="M354.865 210.66l-48.186 4.434s-6.57.386-11.36 3.658l-16.017 12.302s-1.539 1.13-.103 2.075c0 0 1.142 1.298 2.967.335 0 0 2.117-1.335 10.825-9.417 0 0 5.167-6.343 14.098-6.578l47.776-2.76v-4.05z" fill="#5E6470"/><path d="M280.78 210.66l48.187 4.434s6.569.386 11.36 3.658l16.017 12.302s1.539 1.13.103 2.075c0 0-1.14 1.298-2.967.335 0 0-2.117-1.335-10.825-9.417 0 0-5.166-6.343-14.098-6.578l-47.776-2.76v-4.05z" fill="#5E6470"/><path d="M348.306 228.667c-3.158 5.53-11.453 4.131-11.453 4.131-6.887-.91-9.347-4.698-9.347-4.698-4.354-6.302-3.234-11.838-3.234-11.838.915-5.045 12.58-5.254 12.58-5.254 11.525.137 12.164 3.153 12.164 3.153 2.876 7.92-.71 14.506-.71 14.506M308.8 228.1s-2.456 3.788-9.343 4.698c0 0-8.298 1.399-11.455-4.131 0 0-3.589-6.587-.7-14.506 0 0 .625-3.016 12.155-3.153 0 0 11.666.209 12.575 5.254 0 0 1.125 5.536-3.232 11.838m21.642-18.512c-8.976 2.611-12.288 2.04-12.288 2.04s-3.31.571-12.287-2.04c0 0-7.206-1.823-25.086 1.045v5.147s2.06.433 2.282 1.978c-.075 4.075.558 9.578 3.276 12.822 4.517 5.405 14.906 4.834 20.486 1.913 0 0 6.032-3.154 8.312-12.392 0 0 .517-3.077 3.017-3.077 2.502 0 3.014 3.077 3.014 3.077 2.28 9.238 8.313 12.39 8.313 12.39 5.584 2.923 15.975 3.494 20.49-1.911 2.712-3.244 3.351-8.747 3.275-12.822.217-1.545 2.278-1.978 2.278-1.978v-5.147c-17.873-2.868-25.082-1.045-25.082-1.045" fill="#40444C"/><path d="M330.356 232.903l.003.002h.001l-.004-.002" fill="#59B0E0"/><path d="M348.306 228.667s3.586-6.587.71-14.506c0 0-.64-3.016-12.163-3.153 0 0-11.666.209-12.58 5.254 0 0-1.121 5.536 3.233 11.838 0 0 2.46 3.788 9.347 4.698 0 0 8.295 1.399 11.453-4.131m-48.848 4.131c6.887-.91 9.342-4.696 9.342-4.696 4.357-6.305 3.232-11.84 3.232-11.84-.91-5.045-12.574-5.254-12.574-5.254-11.53.137-12.156 3.153-12.156 3.153-2.889 7.919.7 14.506.7 14.506 3.156 5.53 11.456 4.131 11.456 4.131" fill="#FEFEFE" opacity=".3"/><path d="M300.47 27.506c-.46 0-.89.178-1.215.502l-15.76 15.711a1.714 1.714 0 000 2.424l15.76 15.712c.65.647 1.781.647 2.428 0l15.762-15.712a1.715 1.715 0 00-.001-2.425l-15.76-15.71a1.71 1.71 0 00-1.215-.502m0 37.72a4.568 4.568 0 01-3.249-1.343L281.461 48.17a4.58 4.58 0 01-.001-6.478l15.762-15.713c1.734-1.731 4.76-1.731 6.497-.001l15.76 15.713a4.582 4.582 0 010 6.479l-15.76 15.712a4.568 4.568 0 01-3.25 1.343" fill="#FEFEFE"/><path d="M270.01 141.652h-8.908V45.328l8.908.003H313c.076-.003.154-.003.232-.003h26.606l-.002 96.324H270.01z" fill="#48494F"/><path d="M274.057 136.437h-7.725V50.544l7.725.006h37.279c.065-.006.134-.006.201-.006h23.071v85.893h-60.551z" fill="#FEFEFE"/><path fill="#DBDBDA" d="M281.72 69.566h37.503V65.74H281.72zm0 9.959h37.503v-3.83H281.72zm0 9.956h37.503v-3.829H281.72zm0 9.825h37.503v-3.824H281.72zm0 9.954h37.503v-3.829H281.72zm0 9.956h37.503v-3.827H281.72z"/><path d="M313.2 135.163c-1.962 0-4.302 2.522-6.074 1.947-1.626-.525-2.128-3.274-3.28-4.666l-6.95 14.849 6.904-1.264 3.462 6.082 7.699-16.457c-.602-.281-1.196-.49-1.761-.49" fill="#FF6C50"/><path d="M319.274 137.11c-1.77.574-4.113-1.946-6.075-1.946-.562 0-1.157.208-1.762.49l7.7 16.461 3.464-6.085 6.901 1.264-6.947-14.847c-1.152 1.396-1.656 4.138-3.281 4.663" fill="#E65A40"/><path d="M332.853 120.43c0 1.954-3.15 3.394-3.726 5.158-.595 1.83 1.086 4.838-.027 6.36-1.123 1.538-4.516.866-6.061 1.987-1.526 1.105-1.928 4.54-3.765 5.136-1.77.57-4.112-1.95-6.074-1.95-1.962 0-4.302 2.52-6.074 1.95-1.836-.597-2.237-4.031-3.764-5.136-1.544-1.121-4.937-.449-6.06-1.989-1.114-1.52.57-4.527-.028-6.358-.575-1.764-3.725-3.204-3.725-5.159 0-1.957 3.15-3.391 3.725-5.16.599-1.83-1.086-4.834.028-6.358 1.124-1.54 4.52-.868 6.06-1.986 1.527-1.109 1.928-4.544 3.767-5.137 1.769-.571 4.11 1.949 6.071 1.949 1.962 0 4.304-2.52 6.076-1.95 1.835.594 2.237 4.029 3.763 5.138 1.545 1.118 4.938.446 6.061 1.986 1.113 1.524-.568 4.527.03 6.358.573 1.769 3.723 3.203 3.723 5.16" fill="#FC6"/><path d="M327.214 120.43c0 7.715-6.274 13.969-14.014 13.969-7.737 0-14.013-6.254-14.013-13.97 0-7.714 6.276-13.97 14.013-13.97 7.74 0 14.014 6.256 14.014 13.97" fill="#E3A730"/><path d="M321.351 118.505a1.015 1.015 0 00-.827-.693l-4.426-.646-1.977-3.993a.957.957 0 00-.26-.325 1.02 1.02 0 00-.662-.243c-.392 0-.748.218-.921.568l-1.98 3.993-4.42.646a1.02 1.02 0 00-.57 1.744l3.2 3.108-.757 4.392a1.032 1.032 0 001.493 1.083l3.955-2.075 3.957 2.075c.15.076.313.116.476.116h.016a1.028 1.028 0 00.968-1.39l-.725-4.201 3.203-3.108c.278-.27.381-.674.257-1.051" fill="#FC6"/><path d="M305.181 26.511c0 2.598-2.108 4.7-4.712 4.7a4.705 4.705 0 01-4.712-4.7 4.706 4.706 0 014.712-4.699 4.705 4.705 0 014.712 4.7" fill="#FF6C50"/><path fill="#A47979" d="M31.157 244.26H384.52v-9.576H31.157zm0 11.888h332.91V244.26H31.157z"/><path fill="#7C5151" d="M31.157 250.204h332.91v-5.946H31.157z"/><path fill="#A47979" d="M.95 244.26h353.365v-9.576H.95zm20.454 11.888h332.91V244.26H21.405z"/><path fill="#7C5151" d="M21.404 250.204h332.91v-5.946H21.405z"/><path d="M145.06 234.723H71.064c-1.637 0-2.572-1.86-1.605-3.172l10.491-7.252a6.386 6.386 0 001.25-3.8v-18.742a1.99 1.99 0 011.992-1.988h49.738c1.105 0 1.992.885 1.992 1.988v18.742a6.39 6.39 0 001.25 3.8l10.491 7.252c.968 1.312.032 3.172-1.605 3.172" fill="#E1E3E2"/><path fill="#9AAFB7" d="M81.201 215.083h53.722v-12.11H81.201z"/><path d="M208.697 64.64H7.427C3.325 64.64 0 67.96 0 72.057v120.586h216.124V72.056c0-4.095-3.325-7.415-7.427-7.415" fill="#2F363E"/><path d="M0 192.12v7.875c0 4.095 3.325 7.416 7.427 7.416h201.27c4.102 0 7.428-3.32 7.428-7.416v-7.875H0z" fill="#E1E3E2"/><path fill="#FAFAFA" d="M9.422 185.477h197.28V71.806H9.422z"/><g transform="translate(8.556 71.125)"><g transform="translate(0 18.374)"><mask id="b" fill="#fff"><use xlink:href="#a"/></mask><path d="M-.107.443v86.501H-.17v12.374c0 1.098.897 1.983 2.005 1.983H198.84a1.99 1.99 0 002.004-1.983v-1.569h.063V.443H-.107z" fill="#FFF" mask="url(#b)"/></g><mask id="d" fill="#fff"><use xlink:href="#c"/></mask><path d="M198.84-.761H1.835C.727-.761-.17.084-.17 1.135v11.867h201.014V1.135c0-1.05-.894-1.896-2.004-1.896" fill="#CDD5D7" mask="url(#d)"/><path d="M4.468 3.062c0 .67-.538 1.212-1.2 1.212-.664 0-1.21-.542-1.21-1.212 0-.665.546-1.21 1.21-1.21.662 0 1.2.545 1.2 1.21m3.536 0c0 .67-.538 1.212-1.203 1.212a1.206 1.206 0 01-1.204-1.212c0-.665.536-1.21 1.204-1.21.665 0 1.203.545 1.203 1.21m3.534 0c0 .67-.538 1.212-1.201 1.212a1.21 1.21 0 010-2.422c.663 0 1.2.545 1.2 1.21" fill="#B7BEC0"/><mask id="f" fill="#fff"><use xlink:href="#e"/></mask><path fill="#FFF" mask="url(#f)" d="M16.626 11.245h155.308V5.977H16.626z"/><path fill="#B7BEC0" mask="url(#f)" d="M3.707 10.29L1.81 8.384l1.896-1.908.699.71-1.19 1.198 1.19 1.2z"/><path fill="#B7BEC0" mask="url(#f)" d="M2.935 8.883h3.494v-1H2.935zm8.785 1.407l-.7-.706 1.186-1.2-1.186-1.198.7-.71 1.895 1.908z"/><path fill="#B7BEC0" mask="url(#f)" d="M8.995 8.883h3.5v-1h-3.5z"/><path fill="#E3E4E8" mask="url(#f)" d="M-.17 19.367h201.014v-6.776H-.169z"/><path fill="#F8F9FC" mask="url(#f)" d="M4.45 16.926h10.592v-.842H4.451zm13.587 0h10.59v-.842h-10.59zm13.59 0h10.59v-.842h-10.59zm13.584 0h10.596v-.842H45.21zm13.587 0h10.593v-.842H58.798zm13.591 0h10.59v-.842h-10.59z"/><path fill="#48494F" mask="url(#f)" d="M173.959 10.678h15.262V5.977H173.96z"/><path fill="#D7D8DA" mask="url(#f)" d="M4.451 25.159H32.46v-1.68H4.451zm-.001 2.529h17.974v-1.261H4.45zm19.877 0h9.86v-1.261h-9.86zm12.128 0h9.859v-1.261h-9.859zm12.134 0h9.859v-1.261h-9.859zm11.585 0H74.28v-1.261H60.174zm16.376 0h9.857v-1.261H76.55z"/><path fill="#6CAD84" mask="url(#f)" d="M4.297 95.664h129.946V33.752H4.297z"/><path fill="#28282C" mask="url(#f)" d="M4.318 106.003h129.938v-10.34H4.318z"/><path fill="#BCBCBC" mask="url(#f)" d="M41.145 101.09h63.16v-.473h-63.16z"/><path fill="#5AA6D9" mask="url(#f)" d="M41.145 101.09h29.507v-.473H41.145z"/><path fill="#BCBCBC" mask="url(#f)" d="M115.95 101.09h6.984v-.473h-6.984z"/><path fill="#00D1C9" mask="url(#f)" d="M115.95 101.09h3.03v-.473h-3.03z"/><path d="M75.714 64.213c0 3.666-2.98 6.64-6.657 6.64-3.675 0-6.652-2.974-6.652-6.64 0-3.663 2.977-6.638 6.652-6.638 3.677 0 6.657 2.975 6.657 6.638" fill="#30363D" mask="url(#f)"/><path fill="#FFF" mask="url(#f)" d="M71.616 64.511l-1.895 1.657-1.903 1.659v-6.631l1.903 1.656zm41.747 36.831h.314a.16.16 0 01.097.034l.473.386v-1.847l-.473.379a.144.144 0 01-.097.032h-.314v1.016zm1.035.878c-.034 0-.063-.018-.097-.036l-.673-.543h-.418c-.078 0-.143-.068-.143-.152v-1.308c0-.086.065-.147.143-.147h.418l.673-.548a.144.144 0 01.156-.019.153.153 0 01.086.136v2.465c0 .06-.034.11-.086.134-.023.007-.038.018-.06.018zm-83.946-.402h-1.1a.149.149 0 01-.125-.065l-.286-.443a.151.151 0 01.043-.207c.072-.048.16-.03.202.042l.247.378h1.019c.078 0 .143.07.143.15 0 .08-.065.145-.143.145m-1.817-1.213a.141.141 0 01-.125-.067l-.234-.387h-.964a.149.149 0 010-.297h1.05a.14.14 0 01.125.07l.275.461a.15.15 0 01-.05.202.179.179 0 01-.077.018"/><path d="M28.362 101.813h-1.05a.148.148 0 01-.149-.145c0-.079.068-.149.149-.149h.964l.949-1.595a.148.148 0 01.127-.07h1.1c.079 0 .143.066.143.146 0 .086-.064.151-.143.151h-1.016l-.95 1.597a.147.147 0 01-.124.065" fill="#FFF" mask="url(#f)"/><path d="M29.93 100.73a.158.158 0 01-.11-.044.153.153 0 010-.213l.465-.47-.464-.467a.151.151 0 010-.212c.054-.055.15-.055.21 0l.567.575a.16.16 0 010 .214l-.567.573a.186.186 0 01-.102.043m.001 1.66a.144.144 0 01-.11-.046.15.15 0 010-.21l.465-.471-.464-.468a.152.152 0 010-.212c.054-.057.15-.057.21 0l.567.577a.156.156 0 010 .21l-.567.574a.165.165 0 01-.102.046" fill="#FFF" mask="url(#f)"/><path d="M35.808 100.83a.173.173 0 01-.114-.047.146.146 0 01.018-.211l.621-.538-.62-.548a.145.145 0 01-.02-.21.155.155 0 01.213-.012l.754.652c.029.03.05.072.05.118a.163.163 0 01-.05.107l-.754.654a.138.138 0 01-.098.035" fill="#7EC8EF" mask="url(#f)"/><path d="M34.206 101.707a.15.15 0 01-.09-.036.985.985 0 01-.383-.784c0-.545.44-.988.98-.988h1.724a.15.15 0 01.145.152c0 .078-.07.144-.145.144h-1.724a.696.696 0 00-.415 1.244c.061.05.072.143.023.21a.139.139 0 01-.115.058" fill="#7EC8EF" mask="url(#f)"/><path d="M35.439 102.443a.145.145 0 01-.1-.034l-.756-.66a.153.153 0 01-.049-.108.17.17 0 01.05-.113l.756-.652c.06-.054.159-.046.205.014.057.06.047.154-.015.211l-.624.54.624.541a.146.146 0 01.015.21c-.025.039-.065.05-.106.05" fill="#7EC8EF" mask="url(#f)"/><path d="M36.525 101.772h-1.718a.147.147 0 01-.146-.149c0-.083.065-.15.146-.15h1.718a.688.688 0 00.689-.69.697.697 0 00-.27-.552.146.146 0 01-.024-.206.14.14 0 01.206-.025.961.961 0 01.384.783c0 .547-.44.99-.985.99" fill="#7EC8EF" mask="url(#f)"/><path d="M130.244 102.6h-3.213a.142.142 0 01-.148-.143v-3.24c0-.084.062-.151.148-.151h1.594c.082 0 .153.067.153.15 0 .078-.07.146-.153.146h-1.449v2.945h2.925v-1.456c0-.086.065-.152.143-.152.084 0 .153.066.153.152v1.606c0 .08-.07.142-.153.142m0-2.357a.146.146 0 01-.143-.147v-.733h-.725a.15.15 0 01-.15-.146.15.15 0 01.15-.15h.868c.084 0 .153.067.153.15v.879c0 .08-.07.147-.153.147" fill="#FFF" mask="url(#f)"/><path d="M128.864 100.753a.16.16 0 01-.104-.04.143.143 0 010-.21l1.266-1.272a.15.15 0 01.21 0 .155.155 0 010 .21l-1.265 1.271a.163.163 0 01-.107.041m-109.914.081l-.808.575-.807.576v-2.298l.807.572zm.164 1.348h.37V99.49h-.37zm-10.66-1.348l.812.575.803.576v-2.298l-.803.572zm-.499 1.348h.368V99.49h-.368zm4.641 0h.705V99.49h-.705zm1.29 0h.705V99.49h-.705z" fill="#FFF" mask="url(#f)"/><path d="M105.75 101.227h.255v-.764l.002-.07-.211.172a.043.043 0 01-.016.01.067.067 0 01-.016.001.05.05 0 01-.023-.005.05.05 0 01-.014-.012l-.047-.06.352-.289h.12v1.017h.233v.107h-.634v-.107zm.774.021a.1.1 0 01.008-.039.11.11 0 01.022-.031.112.112 0 01.15 0c.01.01.017.019.022.031a.09.09 0 01.009.039.09.09 0 01-.009.039.085.085 0 01-.022.03.11.11 0 01-.034.02.103.103 0 01-.042.008.104.104 0 01-.04-.007.099.099 0 01-.034-.02.107.107 0 01-.022-.031.1.1 0 01-.008-.039m0-.587a.1.1 0 01.008-.038.101.101 0 01.022-.032.112.112 0 01.15 0c.01.01.017.02.022.032a.089.089 0 01.009.038.087.087 0 01-.009.039.088.088 0 01-.022.03.126.126 0 01-.034.022.133.133 0 01-.083 0 .112.112 0 01-.033-.021.098.098 0 01-.03-.07m.758-.461c.047 0 .092.007.132.021a.298.298 0 01.177.16.326.326 0 01.026.131c0 .043-.007.08-.02.116a.654.654 0 01-.124.197c-.027.03-.056.062-.087.094l-.293.302a.479.479 0 01.124-.02h.373c.015 0 .027.006.035.014.01.009.014.02.014.034v.085h-.743v-.048a.089.089 0 01.025-.06l.357-.36c.03-.03.056-.06.08-.087a.79.79 0 00.063-.084.391.391 0 00.04-.086.307.307 0 00.014-.092.211.211 0 00-.016-.087.158.158 0 00-.042-.061.184.184 0 00-.064-.037.243.243 0 00-.22.035.207.207 0 00-.073.12.06.06 0 01-.018.033.05.05 0 01-.033.01H107l-.009-.001-.072-.012a.415.415 0 01.042-.137.33.33 0 01.188-.159.4.4 0 01.133-.02m.916-.001c.047 0 .09.007.13.02.04.014.074.034.103.058a.279.279 0 01.092.209.309.309 0 01-.015.096.23.23 0 01-.1.127.337.337 0 01-.08.034.31.31 0 01.165.098.265.265 0 01.054.17.314.314 0 01-.109.245.362.362 0 01-.117.067.449.449 0 01-.144.023.454.454 0 01-.152-.023.32.32 0 01-.106-.061.33.33 0 01-.072-.093.734.734 0 01-.047-.116l.06-.025a.076.076 0 01.031-.007.05.05 0 01.028.006.045.045 0 01.019.021l.003.006.002.008.027.052c.01.019.025.036.042.053a.215.215 0 00.163.06.25.25 0 00.102-.02.221.221 0 00.118-.117.222.222 0 00.014-.074.276.276 0 00-.012-.083.145.145 0 00-.044-.066.215.215 0 00-.087-.043.535.535 0 00-.142-.015v-.102a.44.44 0 00.12-.015.244.244 0 00.083-.04.152.152 0 00.046-.062.223.223 0 00.014-.08.222.222 0 00-.014-.084.165.165 0 00-.105-.096.26.26 0 00-.156.001.22.22 0 00-.11.089.262.262 0 00-.027.066.064.064 0 01-.019.033.048.048 0 01-.032.01h-.008l-.01-.002-.071-.011a.43.43 0 01.04-.137.341.341 0 01.08-.098.337.337 0 01.11-.06.4.4 0 01.133-.022" fill="#BCBCBC" mask="url(#f)"/><path d="M105.75 101.227h.255v-.764l.002-.07-.211.172a.043.043 0 01-.016.01.067.067 0 01-.016.001.05.05 0 01-.023-.005.05.05 0 01-.014-.012l-.047-.06.352-.289h.12v1.017h.233v.107h-.634v-.107zm.774.021a.1.1 0 01.008-.039.11.11 0 01.022-.031.112.112 0 01.15 0c.01.01.017.019.022.031a.09.09 0 01.009.039.09.09 0 01-.009.039.085.085 0 01-.022.03.11.11 0 01-.034.02.103.103 0 01-.042.008.104.104 0 01-.04-.007.099.099 0 01-.034-.02.107.107 0 01-.022-.031.1.1 0 01-.008-.039m0-.587a.1.1 0 01.008-.038.101.101 0 01.022-.032.112.112 0 01.15 0c.01.01.017.02.022.032a.089.089 0 01.009.038.087.087 0 01-.009.039.088.088 0 01-.022.03.126.126 0 01-.034.022.133.133 0 01-.083 0 .112.112 0 01-.033-.021.098.098 0 01-.03-.07m.758-.461c.047 0 .092.007.132.021a.298.298 0 01.177.16.326.326 0 01.026.131c0 .043-.007.08-.02.116a.654.654 0 01-.124.197c-.027.03-.056.062-.087.094l-.293.302a.479.479 0 01.124-.02h.373c.015 0 .027.006.035.014.01.009.014.02.014.034v.085h-.743v-.048a.089.089 0 01.025-.06l.357-.36c.03-.03.056-.06.08-.087a.79.79 0 00.063-.084.391.391 0 00.04-.086.307.307 0 00.014-.092.211.211 0 00-.016-.087.158.158 0 00-.042-.061.184.184 0 00-.064-.037.243.243 0 00-.22.035.207.207 0 00-.073.12.06.06 0 01-.018.033.05.05 0 01-.033.01H107l-.009-.001-.072-.012a.415.415 0 01.042-.137.33.33 0 01.188-.159.4.4 0 01.133-.02m.916-.001c.047 0 .09.007.13.02.04.014.074.034.103.058a.279.279 0 01.092.209.309.309 0 01-.015.096.23.23 0 01-.1.127.337.337 0 01-.08.034.31.31 0 01.165.098.265.265 0 01.054.17.314.314 0 01-.109.245.362.362 0 01-.117.067.449.449 0 01-.144.023.454.454 0 01-.152-.023.32.32 0 01-.106-.061.33.33 0 01-.072-.093.734.734 0 01-.047-.116l.06-.025a.076.076 0 01.031-.007.05.05 0 01.028.006.045.045 0 01.019.021l.003.006.002.008.027.052c.01.019.025.036.042.053a.215.215 0 00.163.06.25.25 0 00.102-.02.221.221 0 00.118-.117.222.222 0 00.014-.074.276.276 0 00-.012-.083.145.145 0 00-.044-.066.215.215 0 00-.087-.043.535.535 0 00-.142-.015v-.102a.44.44 0 00.12-.015.244.244 0 00.083-.04.152.152 0 00.046-.062.223.223 0 00.014-.08.222.222 0 00-.014-.084.165.165 0 00-.105-.096.26.26 0 00-.156.001.22.22 0 00-.11.089.262.262 0 00-.027.066.064.064 0 01-.019.033.048.048 0 01-.032.01h-.008l-.01-.002-.071-.011a.43.43 0 01.04-.137.341.341 0 01.08-.098.337.337 0 01.11-.06.4.4 0 01.133-.022" fill="#BCBCBC" mask="url(#f)"/><path fill="#D7D8DA" mask="url(#f)" d="M165.431 35.324h25.017V33.64H165.43zm0 3.182h28.537v-1.26h-28.537zm-.116 2.956h24.912v-1.27h-24.912zm0 2.838h27.738v-1.262h-27.738zm-.001 3.068h6.198v-1.261h-6.198z"/><path fill="#E3E4E8" mask="url(#f)" d="M137.911 48.526h25.176V33.73H137.91z"/><path d="M150.497 38.631a2.482 2.482 0 00-2.475 2.496 2.481 2.481 0 002.475 2.49 2.487 2.487 0 002.478-2.49 2.487 2.487 0 00-2.478-2.496" fill="#50936E" mask="url(#f)"/><path d="M151.504 41.146l-1.649.956c-.016.007-.018.01-.026.01 0-.003-.002-.013-.002-.028v-1.918c0-.02.002-.024.002-.028l.026.008 1.649.96c.015.006.02.016.022.022l-.022.018" fill="#F8F9FC" mask="url(#f)"/><path fill="#D7D8DA" mask="url(#f)" d="M165.431 54.566h25.017V52.88H165.43zm0 3.181h28.537v-1.263h-28.537zm-.116 2.954h24.912v-1.265h-24.912zm0 2.84h27.738v-1.26h-27.738zm-.001 3.067h6.198v-1.263h-6.198z"/><path fill="#E3E4E8" mask="url(#f)" d="M137.911 67.765h25.176V52.972H137.91z"/><path d="M150.497 57.87a2.484 2.484 0 00-2.475 2.495 2.483 2.483 0 002.475 2.497 2.488 2.488 0 002.478-2.497 2.49 2.49 0 00-2.478-2.496" fill="#50936E" mask="url(#f)"/><path d="M151.504 60.39l-1.649.953a.115.115 0 01-.026.014c0-.005-.002-.014-.002-.035v-1.913c0-.017.002-.025.002-.031.003.004.01.006.026.014l1.649.954c.015.012.02.02.022.02a.086.086 0 01-.022.023" fill="#F8F9FC" mask="url(#f)"/><path fill="#D7D8DA" mask="url(#f)" d="M165.431 73.809h25.017v-1.687H165.43zm0 3.178h28.537v-1.262h-28.537zm-.116 2.956h24.912v-1.264h-24.912zm0 2.838h27.738v-1.26h-27.738zm-.001 3.064h6.198v-1.258h-6.198z"/><path fill="#E3E4E8" mask="url(#f)" d="M137.911 87.007h25.176V72.212H137.91z"/><path d="M150.497 77.113a2.483 2.483 0 00-2.475 2.496 2.484 2.484 0 002.475 2.494 2.49 2.49 0 002.478-2.494 2.489 2.489 0 00-2.478-2.496" fill="#50936E" mask="url(#f)"/><path d="M151.504 79.625l-1.649.961-.026.01c0-.003-.002-.012-.002-.034v-1.911c0-.02.002-.031.002-.035.003.004.01.004.026.015l1.649.958c.015.012.02.016.022.02-.001.004-.007.009-.022.016" fill="#F8F9FC" mask="url(#f)"/><path fill="#D7D8DA" mask="url(#f)" d="M165.431 93.048h25.017v-1.687H165.43zm0 3.187h28.537v-1.27h-28.537zm-.116 2.944h24.912v-1.262h-24.912zm0 2.844h27.738v-1.263h-27.738zm-.001 3.067h6.198v-1.263h-6.198z"/><path fill="#E3E4E8" mask="url(#f)" d="M137.911 106.242h25.176V91.456H137.91z"/><path d="M150.497 96.355a2.486 2.486 0 00-2.475 2.497 2.482 2.482 0 002.475 2.49 2.488 2.488 0 002.478-2.49 2.491 2.491 0 00-2.478-2.497" fill="#50936E" mask="url(#f)"/><path d="M151.504 98.864l-1.649.962c-.016.007-.018.012-.026.012l-.002-.03v-1.916c0-.02.002-.028.002-.037.003.009.01.009.026.017l1.649.958c.015.009.02.012.022.022-.001 0-.007.009-.022.012" fill="#F8F9FC" mask="url(#f)"/></g><path fill="#FFD65B" d="M84.238 220.847l-22.28-3.416 2.812-18.276 22.28 3.416z"/><path fill="#EDB953" d="M86.63 205.295l-22.279-3.416.42-2.724 22.278 3.416z"/><path fill="#68696D" d="M108.665 0L33.272 38.572l75.393 38.57 75.394-38.57z"/><path d="M147.732 49.057c0-9.39-17.485-17.003-39.067-17.003-21.58 0-39.069 7.614-39.069 17.003 0 .288.065.57.096.856h-.096v28.606c3.688-4.488 10.328-6.452 17.993-6.452 8.678 0 17.27 1.493 21.076 6.987 3.808-5.494 12.395-6.987 21.067-6.987 7.669 0 14.316 1.964 18 6.452V49.913h-.099c.034-.286.099-.568.099-.856" fill="#48494F"/><g transform="translate(155.901 82.025)"><mask id="h" fill="#fff"><use xlink:href="#g"/></mask><path d="M18.991 20.586c.5 1.3-1.36 3.645-5.855 4.04a35.733 35.733 0 01-6.448 0c-4.494-.395-6.35-2.74-5.858-4.04C2.832 14.405 4.837 8.23 6.84 2.047 7.327.728 7.523.044 8.88.151a12.1 12.1 0 002.06 0c1.36-.107 1.553.577 2.04 1.896 2.001 6.183 4.008 12.358 6.011 18.54" fill="#50936E" mask="url(#h)"/></g><path d="M168.348 76.234V30.515l-5.072-2.596v48.315c-1.659.91-2.801 2.653-2.801 4.683a5.343 5.343 0 005.337 5.347 5.345 5.345 0 005.338-5.347c0-2.03-1.143-3.773-2.802-4.683" fill="#FF6C50"/></g></svg>