<svg width="36" height="36" xmlns="http://www.w3.org/2000/svg"><g fill="none" fill-rule="evenodd"><path d="M33.956 0C28.004 0 6.653 1.762 6.653 26.6c0 0-4.897-.553-6.653 1.106 0 0 5.359 3.412 7.762 7.746 0 0 .923-2.121 1.108-6.639 0 0 26.59.191 26.59-27.388C35.46.577 33.988 0 33.957 0z" fill="#99B9CF"/><path d="M33.956 0c-2.827 0-9.123.403-14.96 3.479.86 4.948 5.164 8.713 10.358 8.713 1.732 0 3.363-.427 4.804-1.168.819-2.755 1.303-5.924 1.303-9.599C35.46.577 33.987 0 33.956 0z" fill="#8BA6B7"/><path d="M8.89 19.125c-.33.187-.608.455-.807.78-.012.02-.02.04-.033.06-.075.132-.135.27-.182.418-.013.042-.028.083-.039.126a2.204 2.204 0 00-.075.545 2.199 2.199 0 00.649 1.567c.4.4.955.648 1.566.648.19 0 .37-.03.544-.075.043-.012.084-.026.126-.039.147-.047.287-.107.418-.182.02-.012.041-.02.06-.033.325-.198.59-.476.776-.808a3.302 3.302 0 01-3.003-3.007zm4.431-4.43c-.33.187-.61.455-.807.779-.011.02-.02.04-.033.06a2.25 2.25 0 00-.182.418c-.014.043-.028.083-.04.127a2.211 2.211 0 00-.074.544 2.204 2.204 0 00.649 1.567c.4.401.955.65 1.566.65.189 0 .369-.032.544-.076.043-.012.084-.026.126-.04a2.16 2.16 0 00.418-.181l.06-.033c.325-.198.59-.476.776-.808a3.302 3.302 0 01-3.003-3.008zm4.431 4.435a2.206 2.206 0 00-1.137 1.924c0 1.223.992 2.215 2.216 2.215.83 0 1.544-.462 1.924-1.137a3.301 3.301 0 01-3.003-3.002zm0 4.43a2.207 2.207 0 00-.161 3.759 30.326 30.326 0 002.477-.9 3.295 3.295 0 01-2.316-2.859zM13.776 7.22c-.477.46-.935.956-1.379 1.475A2.211 2.211 0 0014.4 9.977c.83 0 1.545-.461 1.924-1.137a3.29 3.29 0 01-2.548-1.62zM8.99 14.17c.296.148.625.238.978.238.83 0 1.545-.462 1.924-1.137a3.292 3.292 0 01-2.012-.925 23.14 23.14 0 00-.89 1.825zm4.33 4.96a2.204 2.204 0 00-1.136 1.924c0 1.223.992 2.215 2.215 2.215.83 0 1.545-.462 1.924-1.137a3.301 3.301 0 01-3.002-3.002zm-4.43-4.436c-.07.04-.127.096-.192.143a25.54 25.54 0 00-.819 2.426c.065.21.131.42.252.599a2.208 2.208 0 001.837.977c.189 0 .369-.031.544-.076.043-.011.083-.025.126-.04a2.16 2.16 0 00.417-.18l.061-.034a2.2 2.2 0 00.775-.808 3.301 3.301 0 01-3.002-3.007zm4.43 8.866a2.206 2.206 0 00-1.136 1.924c0 1.224.992 2.216 2.215 2.216.83 0 1.545-.462 1.924-1.138a3.302 3.302 0 01-3.002-3.002zm0-13.291a2.204 2.204 0 00-1.136 1.924c0 1.223.992 2.215 2.215 2.215.83 0 1.545-.462 1.924-1.137a3.3 3.3 0 01-3.002-3.002zm8.862-.005c-.331.187-.61.455-.807.78-.012.02-.021.04-.034.06-.074.132-.135.27-.181.418-.014.042-.028.083-.04.126a2.207 2.207 0 00-.075.545 2.195 2.195 0 00.379 1.239 2.208 2.208 0 001.837.976 2.17 2.17 0 00.67-.114c.146-.047.286-.107.417-.182.02-.012.041-.02.061-.033a2.2 2.2 0 00.775-.808 3.302 3.302 0 01-3.002-3.007zm-4.431 4.43c-.33.188-.61.456-.807.78l-.033.06a2.25 2.25 0 00-.182.418c-.014.043-.028.083-.04.127a2.211 2.211 0 00-.075.544 2.204 2.204 0 00.65 1.567c.4.401.954.65 1.566.65.189 0 .369-.032.544-.076.043-.012.083-.026.126-.04a2.16 2.16 0 00.418-.181l.06-.033a2.2 2.2 0 00.775-.808 3.302 3.302 0 01-3.002-3.008zm4.431.005a2.206 2.206 0 00-1.137 1.924c0 1.224.992 2.216 2.216 2.216.83 0 1.544-.462 1.924-1.138a3.302 3.302 0 01-3.003-3.002zm4.431 0a2.206 2.206 0 00-1.137 1.924c0 1.224.992 2.216 2.215 2.216.83 0 1.545-.462 1.924-1.138a3.302 3.302 0 01-3.002-3.002zm0 4.43a2.204 2.204 0 00-1.137 1.925 2.2 2.2 0 00.851 1.733c.53-.419 1.05-.865 1.556-1.344a3.287 3.287 0 01-1.27-2.313zm-4.43 0a2.204 2.204 0 00-1.138 1.925c0 1.223.992 2.215 2.216 2.215.83 0 1.544-.462 1.924-1.137a3.301 3.301 0 01-3.003-3.002zM17.751 5.84a2.207 2.207 0 001.079 4.139c.83 0 1.544-.462 1.924-1.138a3.301 3.301 0 01-3.003-3.002zm0 4.425c-.33.187-.61.455-.807.78l-.033.06c-.075.132-.135.27-.182.418-.014.042-.028.083-.04.126a2.207 2.207 0 00-.075.545 2.195 2.195 0 00.379 1.239 2.208 2.208 0 001.837.976 2.17 2.17 0 00.67-.114c.147-.047.286-.107.418-.182.02-.012.04-.02.06-.033.324-.198.59-.475.775-.808a3.302 3.302 0 01-3.002-3.007zm3.294 15.22c0 .168.022.33.058.488.55-.252 1.1-.532 1.65-.831a3.297 3.297 0 01-.57-1.58 2.205 2.205 0 00-1.138 1.923z" fill="#8BA6B7"/><circle fill="#FAFAFA" cx="28.246" cy="4.993" r="1.662"/></g></svg>