<svg width="72" height="30" xmlns="http://www.w3.org/2000/svg" xmlns:xlink="http://www.w3.org/1999/xlink"><defs><path d="M28.286 12.592l-.881 6.083c-.051.424.12.845.445 1.098a1.063 1.063 0 001.122.119L34 17.037l5.027 2.853a1.067 1.067 0 001.124-.119 1.21 1.21 0 00.445-1.097l-.881-6.083 3.979-3.865c.28-.312.378-.76.252-1.172a1.135 1.135 0 00-.85-.795l-5.526-.835L34.968.601A1.1 1.1 0 0034 0a1.11 1.11 0 00-.97.603l-2.6 5.323-5.524.835c-.4.08-.726.385-.85.795-.127.41-.03.86.25 1.173l3.981 3.864z" id="a"/><path d="M4.286 18.593l-.881 6.082c-.051.424.12.845.445 1.098a1.063 1.063 0 001.122.119L10 23.037l5.027 2.853a1.067 1.067 0 001.124-.119 1.21 1.21 0 00.445-1.097l-.881-6.082 3.979-3.866c.28-.312.378-.76.252-1.172a1.135 1.135 0 00-.85-.795l-5.526-.835L10.968 6.6A1.1 1.1 0 0010 6c-.401 0-.773.232-.97.603l-2.6 5.322-5.524.835c-.4.08-.726.385-.85.795-.127.41-.03.86.25 1.173l3.981 3.864z" id="b"/><path d="M52.286 18.593l-.881 6.082c-.051.424.12.845.445 1.098a1.063 1.063 0 001.122.119L58 23.037l5.027 2.853a1.067 1.067 0 001.124-.119 1.21 1.21 0 00.445-1.097l-.881-6.082 3.979-3.866c.28-.312.378-.76.252-1.172a1.135 1.135 0 00-.85-.795l-5.526-.835L58.968 6.6A1.1 1.1 0 0058 6c-.401 0-.773.232-.97.603l-2.602 5.323-5.524.835c-.4.08-.726.385-.85.795-.127.41-.03.86.25 1.173l3.981 3.864z" id="c"/></defs><g fill="none" fill-rule="evenodd"><g transform="translate(2 2)"><use fill="#FC6" xlink:href="#a"/><path stroke="#FFF" stroke-width="2" d="M27.224 12.954l-3.665-3.559a2.227 2.227 0 01-.461-2.13 2.15 2.15 0 011.657-1.493l5.006-.756L32.148.132A2.108 2.108 0 0134.001-1c.778 0 1.488.443 1.865 1.162l2.372 4.853 5.056.765a2.133 2.133 0 011.608 1.482c.228.744.053 1.558-.511 2.183l-3.613 3.51.812 5.603a2.21 2.21 0 01-.827 2.005c-.366.284-.81.437-1.269.437a2.11 2.11 0 01-.961-.24L34 18.188l-4.59 2.602a2.063 2.063 0 01-2.174-.227 2.218 2.218 0 01-.822-2.031l.809-5.578z"/></g><g transform="translate(2 2)"><use fill="#FC6" xlink:href="#b"/><path stroke="#FFF" stroke-width="2" d="M3.224 18.954l-3.665-3.559a2.227 2.227 0 01-.461-2.13 2.15 2.15 0 011.657-1.493l5.006-.756 2.387-4.884A2.108 2.108 0 0110.001 5c.778 0 1.488.443 1.865 1.162l2.372 4.853 5.056.765a2.133 2.133 0 011.608 1.482c.228.744.053 1.558-.511 2.183l-3.613 3.51.812 5.603a2.21 2.21 0 01-.827 2.005c-.366.284-.81.437-1.269.437a2.11 2.11 0 01-.961-.24L10 24.188 5.41 26.79a2.063 2.063 0 01-2.174-.227 2.218 2.218 0 01-.822-2.031l.809-5.578z"/></g><g transform="translate(2 2)"><use fill="#FC6" xlink:href="#c"/><path stroke="#FFF" stroke-width="2" d="M51.224 18.954l-3.665-3.559a2.227 2.227 0 01-.461-2.13 2.15 2.15 0 011.657-1.493l5.006-.756 2.387-4.884A2.108 2.108 0 0158.001 5c.778 0 1.488.443 1.865 1.162l2.372 4.853 5.056.765a2.133 2.133 0 011.608 1.482c.228.744.053 1.558-.511 2.183l-3.613 3.51.812 5.603a2.21 2.21 0 01-.827 2.005c-.366.284-.81.437-1.269.437a2.11 2.11 0 01-.961-.24L58 24.188l-4.59 2.602a2.063 2.063 0 01-2.174-.227 2.218 2.218 0 01-.822-2.031l.809-5.578z"/></g></g></svg>