<svg width="20" height="15" xmlns="http://www.w3.org/2000/svg"><path d="M10 0C7.347 0 4.94.51 3.133 1.386c-.903.437-1.658.967-2.215 1.605C.361 3.63 0 4.41 0 5.25v4.5c0 .84.36 1.62.918 2.259.557.639 1.312 1.168 2.215 1.605C4.94 14.49 7.347 15 10 15c2.653 0 5.06-.51 6.867-1.386.903-.437 1.658-.966 2.215-1.605.557-.639.918-1.418.918-2.259v-4.5c0-.84-.36-1.62-.918-2.259-.557-.638-1.312-1.168-2.215-1.605C15.06.51 12.653 0 10 0zm0 1.5c2.475 0 4.712.495 6.267 1.248.777.377 1.38.819 1.763 1.257.382.438.541.843.541 1.245 0 .402-.159.807-.54 1.245-.383.438-.987.88-1.764 1.257C14.712 8.505 12.475 9 10 9c-2.475 0-4.712-.495-6.267-1.248-.777-.377-1.38-.819-1.763-1.257-.382-.438-.541-.843-.541-1.245 0-.402.159-.807.54-1.245.383-.438.987-.88 1.764-1.257C5.288 1.995 7.525 1.5 10 1.5zM10 3C6.844 3 4.286 4.007 4.286 5.25S6.844 7.5 10 7.5c3.156 0 5.714-1.007 5.714-2.25S13.156 3 10 3zM1.429 8.013a7.63 7.63 0 001.704 1.101c1.474.714 3.358 1.166 5.438 1.316v3c-1.895-.15-3.59-.574-4.838-1.178-.777-.377-1.38-.819-1.763-1.257-.382-.438-.541-.843-.541-1.245V8.013zm17.142 0V9.75c0 .402-.159.807-.54 1.245-.383.438-.987.88-1.764 1.257-1.247.604-2.943 1.028-4.838 1.178v-3c2.08-.15 3.964-.602 5.438-1.316a7.633 7.633 0 001.704-1.101z" fill="#AEB0B5"/></svg>