<svg width="351" height="298" xmlns="http://www.w3.org/2000/svg" xmlns:xlink="http://www.w3.org/1999/xlink"><defs><path d="M43.244.456c-6.099 0-12.249 1.986-13.744 4.42-9.641 16.01-19.26 32.01-28.902 48.012a1.59 1.59 0 00-.249.766c-.041.755-.01 4.988 0 5.258.031 2.028 4.82 3.56 11.708 3.56h291.067c6.845 0 11.625-1.522 11.718-3.529.01-.28.01-4.513 0-5.238 0-.259-.093-.538-.25-.817-9.64-16.001-19.27-32.002-28.91-48.013-1.486-2.433-7.635-4.42-13.745-4.42H43.244z" id="a"/><path d="M43.25.465c-6.109 0-12.26 1.976-13.744 4.408C19.866 20.884 10.235 36.885.594 52.887c-1.486 2.442 3.637 4.419 11.458 4.419H303.12c7.823 0 12.965-1.977 11.47-4.419-9.641-16.002-19.26-32.003-28.902-48.014-1.496-2.432-7.646-4.408-13.743-4.408H43.25z" id="c"/><path d="M20.008.205C13.453 11.775 6.898 23.357.332 34.939h278.84A42265.36 42265.36 0 01259.464.205H20.008z" id="e"/><path d="M7.837.416c-2.95 0-5.464.797-5.62 1.802C1.656 6.109 1.085 10 .535 13.902c-.146.994 2.285 1.79 5.433 1.79h64.336c3.138 0 5.589-.796 5.443-1.79-.56-3.902-1.121-7.793-1.683-11.684-.155-1.005-2.668-1.802-5.62-1.802H7.837z" id="g"/><path d="M1.462.46C1.13 1.164.798 1.888.455 2.593H197.61c-.333-.705-.675-1.429-.997-2.133H1.462z" id="i"/><path d="M3.139.73c-1.08 0-2.13.34-2.338.765-.03.052-.05.093-.073.135a.286.286 0 00-.04.155c.01.155 0 .879 0 .92 0 .353.674.632 1.64.632h8.529c1.112 0 2.14-.352 2.317-.776.021-.041.042-.083.063-.135a.325.325 0 00.03-.144c-.01-.146 0-.89 0-.932-.02-.352-.696-.62-1.672-.62H3.139z" id="k"/><path d="M1.708.726C.732.726.046.995.056 1.368v.93c0 .043.011.083.021.125.03.052.042.104.062.146.188.423 1.227.765 2.317.765h8.529c.966 0 1.62-.27 1.641-.61.011-.053.011-.797 0-.953a.33.33 0 00-.03-.135c-.021-.051-.053-.092-.073-.144-.208-.424-1.258-.766-2.348-.766H1.708z" id="m"/><path d="M2.116.726c-1.007 0-1.714.29-1.704.662 0 .031.01.787 0 .932 0 .03.01.072.021.103.021.052.042.104.052.146.167.423 1.153.765 2.265.765h8.528c.967 0 1.653-.27 1.693-.62V1.76a.282.282 0 00-.03-.125c-.02-.051-.03-.092-.063-.144-.166-.424-1.193-.766-2.295-.766H2.116z" id="o"/><path d="M2.525.726c-.987 0-1.724.29-1.755.652-.011.041 0 .817 0 .963 0 .02 0 .062.01.082.01.052.03.104.042.146.123.423 1.111.765 2.212.765h8.529c.998 0 1.714-.27 1.735-.652.011-.041 0-.797 0-.942 0-.03 0-.062-.02-.104-.012-.051-.032-.092-.042-.144-.146-.424-1.143-.766-2.245-.766H2.525z" id="q"/><path d="M2.163.726c-1.091 0-1.901.342-1.809.766.012.052-.03.755 0 .931.012.052.022.104.043.146.093.423 1.049.765 2.15.765h8.518c1.04 0 1.798-.3 1.788-.693v-.922c0-.03 0-.062-.01-.083-.01-.051-.032-.092-.042-.144-.115-.424-1.091-.766-2.192-.766H2.163z" id="s"/><path d="M2.573.726c-1.092 0-1.912.342-1.85.766.01.052-.031.766 0 .931.01.052.01.104.021.146.06.423.997.765 2.098.765h8.519c1.1 0 1.921-.342 1.828-.765-.01-.042.041-.767 0-.933-.01-.051-.01-.092-.02-.144-.095-.424-1.04-.766-2.141-.766H2.573z" id="u"/><path d="M2.2.722c-1.092 0-1.944.343-1.912.766l.01 1.077c.03.424.945.766 2.036.766h8.55c1.09 0 1.932-.342 1.87-.766-.01-.041.02-.765 0-.932-.01-.051-.01-.092-.02-.145-.063-.423-.978-.766-2.068-.766H2.199z" id="w"/><path d="M2.608.722c-1.07 0-1.963.343-1.963.766v1.077c.01.424.913.766 1.995.766h8.538c1.081 0 1.953-.342 1.923-.766l-.01-1.077c-.032-.423-.936-.766-2.016-.766H2.608z" id="y"/><path d="M2.237.722c-1.08 0-1.985.343-2.015.766-.011.053-.011.094-.011.145-.011.156 0 .89 0 .932-.031.424.852.766 1.942.766h8.53c1.09 0 1.984-.342 1.984-.766V1.488c.01-.423-.873-.766-1.964-.766H2.237z" id="A"/><path d="M2.655.722c-1.08 0-2.026.343-2.078.766-.01.053-.021.094-.021.145-.02.167 0 .89 0 .932-.062.424.79.766 1.89.766h8.53c1.081 0 2.005-.342 2.037-.766 0-.041.01-.093.01-.145.01-.145 0-.88 0-.932.031-.423-.82-.766-1.901-.766H2.655z" id="C"/><path d="M2.283.72c-1.09 0-2.026.352-2.119.777-.01.051-.021.082-.03.135 0 .02-.012.04-.012.062.012.155 0 .92 0 .952.02.382.79.682 1.828.682h8.52c1.11 0 2.036-.34 2.109-.765a.61.61 0 01.02-.134c.022-.166-.01-.88 0-.932.062-.425-.768-.776-1.87-.776H2.284z" id="E"/><path d="M2.693.72C1.59.72.636 1.073.51 1.498c-.01.051-.03.082-.042.135-.01.02-.01.04-.01.072v.942c-.01.382.738.682 1.776.682h8.518c1.124 0 2.078-.34 2.172-.765.01-.042.02-.093.031-.134.042-.177-.01-.88 0-.932.094-.425-.706-.776-1.818-.776H2.693z" id="G"/><path d="M2.32.73c-1.1 0-2.098.341-2.243.765-.02.052-.032.094-.053.135-.01.02-.01.041-.01.071-.02.167-.01.932-.01.974.01.372.728.652 1.746.652h8.528c1.102 0 2.088-.342 2.213-.766.01-.042.031-.093.041-.135.011-.02.011-.041.011-.061.01-.156 0-.922 0-.953.01-.383-.737-.684-1.766-.684H2.32z" id="I"/><path d="M2.73.73c-1.08 0-2.11.341-2.286.765a1.72 1.72 0 01-.062.135c-.021.041-.021.082-.031.113 0 .166.01.9 0 .942-.01.362.696.642 1.693.642h8.519c1.111 0 2.119-.342 2.265-.766a.738.738 0 01.051-.135.491.491 0 00.02-.114 14.87 14.87 0 010-.9c.043-.383-.684-.684-1.713-.684H2.73z" id="K"/><path d="M4.18.32c-1.102 0-2.161.342-2.369.765C1.26 2.183.731 3.28.18 4.388a.248.248 0 00-.03.164c.008.115-.012.87 0 .911.008.363.695.622 1.692.622h8.757c1.133 0 2.193-.342 2.37-.766.477-1.108.965-2.205 1.433-3.313.02-.02.03-.052.03-.082.01-.135.01-.952 0-.993-.03-.352-.716-.611-1.693-.611H4.18z" id="M"/><path d="M2.02.324C.992.324.202.614.17.996c-.01.032.011.85 0 .932-.01.032 0 .052 0 .083.218 1.097.437 2.205.644 3.301.084.425 1.082.776 2.193.776h8.768c1.059 0 1.839-.3 1.86-.693 0-.02-.012-.828-.012-.921a.135.135 0 000-.093c-.28-1.098-.57-2.194-.841-3.302-.114-.423-1.09-.755-2.192-.755H2.02z" id="O"/><path d="M2.056.324C1.028.324.27.603.24.976c-.01.03 0 .87 0 .973 0 .02 0 .041.01.062.28 1.097.582 2.205.873 3.301.114.425 1.122.776 2.255.776h8.756c1.04 0 1.799-.3 1.799-.672 0-.03-.012-.818 0-.921 0-.042 0-.072-.022-.114L12.85 1.08c-.134-.423-1.132-.755-2.243-.755h-8.55z" id="Q"/><path d="M2.051.326C1.054.326.317.605.295.967l.011.942c-.01.031 0 .073.011.104.363 1.097.727 2.204 1.112 3.302.135.423 1.162.766 2.285.766h8.778c1.029 0 1.766-.29 1.755-.664 0-.03-.01-.796 0-.899a.51.51 0 00-.02-.136c-.436-1.096-.863-2.203-1.299-3.3-.166-.426-1.195-.756-2.295-.756H2.05z" id="S"/><path d="M4.268.775c-1.195 0-2.327.353-2.545.777C1.193 2.65.643 3.756.101 4.853a.306.306 0 00-.03.124v.943c0 .362.758.631 1.849.631h14.668c1.216 0 2.348-.342 2.525-.767.446-1.106.904-2.204 1.36-3.3.021-.042.021-.073.021-.115v-.951c-.03-.353-.799-.643-1.859-.643H4.268z" id="U"/><path d="M2.452.005C1.268.005.342.347.405.771v.931c.167 1.098.342 2.206.5 3.302.062.424 1.11.766 2.326.766h9.453c1.226 0 2.15-.342 2.057-.766v-.931L14.046.77c-.094-.414-1.133-.766-2.339-.766H2.452z" id="W"/><path d="M2.123.008C1 .008.159.308.139.69c0 .032.01.839 0 .922v.093l.728 3.3c.103.425 1.142.768 2.368.768h9.473c1.112 0 1.943-.29 1.986-.674v-.931c0-.032 0-.063-.011-.093a365.018 365.018 0 01-.924-3.302C13.634.359 12.585.008 11.4.008H2.123z" id="Y"/><path d="M2.572.006C1.46.006.639.306.618.68c0 .031.01.827 0 .932 0 .03 0 .061.01.092l.967 3.303c.123.423 1.204.764 2.42.764h9.464c1.133 0 1.953-.288 1.964-.672v-.91c0-.041 0-.083-.022-.115-.384-1.096-.757-2.204-1.141-3.3-.157-.414-1.237-.767-2.443-.767H2.572z" id="aa"/><path d="M2.217.005c-1.08 0-1.9.3-1.87.683l.01.9c-.01.043 0 .072.012.114l1.183 3.302c.156.424 1.258.766 2.453.766h27.716c1.111 0 1.87-.28 1.86-.63 0-.053-.01-.798 0-.922a.359.359 0 00-.032-.145C33 2.975 32.47 1.868 31.92.77 31.7.357 30.578.005 29.384.005H2.217z" id="ac"/><path d="M1.976.735C.99.735.262.992.2 1.335c-.01.05 0 .858 0 .972-.01.042 0 .083.021.135.394 1.086.8 2.194 1.206 3.291.156.425 1.225.765 2.378.765H12.8c1.05 0 1.787-.279 1.787-.641v-.931a.282.282 0 00-.031-.125L13.154 1.5c-.176-.423-1.236-.764-2.368-.764h-8.81z" id="ae"/><path d="M2.34.736c-1.04 0-1.809.279-1.84.65 0 .043.01.84 0 .943 0 .041 0 .072.01.114.334 1.087.655 2.194.977 3.29.135.425 1.185.767 2.338.767h8.996c1.04 0 1.809-.28 1.84-.642v-.942c0-.042 0-.072-.011-.113A395.19 395.19 0 0113.476 1.5c-.167-.423-1.204-.764-2.337-.764h-8.8z" id="ag"/><path d="M1.922.736C.77.736-.062 1.077.032 1.5v.943c.27 1.087.52 2.194.757 3.29.105.425 1.112.767 2.275.767h8.987c1.091 0 1.89-.3 1.89-.684v-.93c0-.032 0-.063-.01-.083a404.17 404.17 0 00-.955-3.303c-.115-.423-1.123-.764-2.265-.764H1.922z" id="ai"/><path d="M2.276.727c-1.122 0-1.994.35-1.922.776v.932C.52 3.53.707 4.629.874 5.736c.073.424 1.07.767 2.223.767h8.986c1.09 0 1.911-.301 1.932-.684 0-.03-.01-.849 0-.941 0-.032 0-.053-.01-.074-.229-1.096-.479-2.203-.717-3.3-.093-.426-1.08-.777-2.213-.777h-8.8z" id="ak"/><path d="M2.629.735c-1.142 0-2.016.34-1.974.764v.943c.104 1.086.198 2.194.301 3.291.032.425.998.765 2.161.765h9.007c1.133 0 2.047-.34 1.974-.765v-.932c-.166-1.097-.322-2.204-.488-3.302-.073-.423-1.06-.764-2.161-.764h-8.82z" id="am"/><path d="M2.207.735c-1.131 0-2.045.34-2.036.764.01.3 0 .922 0 .943.031 1.086.053 2.194.073 3.291.01.425.956.765 2.119.765h8.986c1.164 0 2.068-.34 2.037-.765v-.932a337.816 337.816 0 00-.27-3.302c-.032-.423-.977-.764-2.11-.764H2.208z" id="ao"/><path d="M2.565.735c-1.121 0-2.068.34-2.088.764L.32 4.801v.932c-.02.425.905.765 2.068.765h8.997c1.153 0 2.098-.34 2.087-.765v-.932c-.01-1.097-.02-2.204-.042-3.302 0-.423-.934-.764-2.055-.764h-8.81z" id="aq"/><path d="M2.94.732c-1.144 0-2.11.342-2.162.766C.664 2.605.53 3.703.404 4.81v.92c-.051.425.853.777 2.016.777h8.987c1.163 0 2.108-.352 2.13-.776.071-1.098.134-2.195.185-3.292v-.941c.021-.424-.862-.766-1.994-.766H2.94z" id="as"/><path d="M3.275.732c-1.133 0-2.11.342-2.192.766C.885 2.605.678 3.703.48 4.81c-.022.092 0 .952 0 .973-.011.393.83.724 1.953.724h9.006c1.143 0 2.14-.352 2.182-.776.145-1.098.29-2.195.416-3.292v-.941c.061-.424-.832-.766-1.943-.766h-8.82z" id="au"/><path d="M3.642.732c-1.132 0-2.14.342-2.243.766C1.118 2.605.847 3.703.557 4.81c0 .02-.01.03-.01.062.01.093 0 .9 0 .92 0 .394.82.715 1.91.715h8.997c1.174 0 2.161-.352 2.244-.776.219-1.098.426-2.195.644-3.292v-.941c.073-.424-.768-.766-1.89-.766h-8.81z" id="aw"/><path d="M3.997.728c-1.143 0-2.16.351-2.296.776C1.348 2.601.985 3.699.631 4.806c-.01.02-.01.062-.01.093v.92c-.032.384.779.685 1.86.685h8.986c1.174 0 2.192-.343 2.306-.767.29-1.108.582-2.204.872-3.301a.273.273 0 00.011-.094c-.01-.103 0-.9 0-.931-.031-.383-.811-.683-1.86-.683H3.997z" id="ay"/><path d="M4.361.728c-1.142 0-2.192.351-2.368.776-.426 1.097-.862 2.195-1.288 3.302-.02.03-.02.072-.02.114v.9c-.042.383.737.684 1.827.684H11.5c1.163 0 2.212-.343 2.358-.767.363-1.108.727-2.204 1.091-3.301.021-.031.021-.073.021-.104-.012-.113 0-.88 0-.911.02-.383-.759-.693-1.808-.693h-8.8z" id="aA"/><path d="M4.473.728c-1.143 0-2.214.351-2.431.776C1.492 2.601.96 3.699.41 4.806a.288.288 0 00-.032.135v.92c-.02.362.707.643 1.745.643H18.55c1.152 0 2.234-.343 2.399-.767.447-1.108.884-2.204 1.33-3.301.01-.042.022-.084.022-.135-.011-.114 0-.89 0-.932-.022-.362-.748-.641-1.756-.641H4.473z" id="aC"/><path d="M2.082.035C.95.035.13.335.151.708v.91c0 .031 0 .083.02.125.083.186.166.382.26.559.176.435 1.34.776 2.587.776h9.692c1.09 0 1.87-.259 1.91-.61v-.933a.351.351 0 00-.04-.165c-.093-.175-.177-.382-.27-.559-.218-.424-1.393-.776-2.618-.776h-9.61z" id="aE"/><path d="M2.689.365C1.536.365.6.706.622 1.14v.931C.664 3.17.715 4.276.757 5.374c.02.424 1.007.756 2.191.756h9.226c1.184 0 2.119-.332 2.078-.756v-.942c-.114-1.097-.218-2.194-.333-3.291-.051-.435-1.05-.776-2.202-.776H2.69z" id="aG"/><path d="M2.64.366C1.476.366.53.708.53 1.142.5 2.24.468 3.337.447 4.434c-.01.03 0 .662 0 .942-.02.424.935.756 2.12.756h9.225c1.184 0 2.14-.332 2.129-.756-.01-.28 0-.901 0-.942-.041-1.097-.083-2.194-.114-3.292-.021-.434-.966-.776-2.14-.776H2.64z" id="aI"/><path d="M2.593.365C1.43.365.453.706.422 1.14A360.836 360.836 0 00.1 4.432v.942c-.03.424.893.756 2.077.756h9.236c1.195 0 2.162-.332 2.172-.756l.124-3.302c0-.04-.01-.672 0-.931.011-.435-.914-.776-2.078-.776H2.593z" id="aK"/><path d="M3.333.362c-1.153 0-2.171.342-2.244.777C.913 2.247.736 3.332.56 4.44v.93c-.073.425.842.767 2.036.767h9.215c1.196 0 2.182-.342 2.234-.767l.333-3.3v-.932c.05-.435-.852-.777-2.006-.777H3.333z" id="aM"/><path d="M3.284.362C2.13.362 1.1.704.998 1.14c-.25 1.107-.51 2.192-.76 3.3-.01.02-.01.05-.01.082.01.083 0 .9 0 .921.021.383.873.694 1.975.694h9.246c1.163 0 2.191-.342 2.265-.767.186-1.096.384-2.204.56-3.3v-.932c.083-.435-.8-.777-1.943-.777H3.284z" id="aO"/><path d="M3.966.366c-1.152 0-2.212.342-2.378.776L.372 4.434a.342.342 0 00-.02.103v.942c.01.374.789.653 1.87.653h9.246c1.183 0 2.243-.332 2.378-.756.343-1.098.685-2.205 1.029-3.302.02-.031.02-.072.02-.103-.01-.104 0-.88 0-.911.01-.394-.799-.694-1.88-.694H3.966z" id="aQ"/><path d="M4.754.358C3.59.358 2.49.71 2.27 1.144 1.73 2.242 1.19 3.328.64 4.436c-.01.042-.022.093-.032.124 0 .124.01.89 0 .931-.021.363.727.642 1.807.642h21.93c1.196 0 2.287-.33 2.443-.755.425-1.108.84-2.204 1.256-3.313.021-.03.021-.072.021-.103V1c-.031-.352-.79-.642-1.828-.642H4.754z" id="aS"/><path d="M4.18.325c-1.09 0-2.129.331-2.306.756l-1.402 3.3c-.022.042-.022.084-.022.125v.931c0 .373.717.642 1.736.642h8.768c1.132 0 2.171-.341 2.327-.765.394-1.097.8-2.205 1.215-3.302a.334.334 0 00.01-.104V.977c.011-.373-.727-.652-1.745-.652h-8.58z" id="aU"/><path d="M4.212.325c-1.1 0-2.11.331-2.265.756-.394 1.107-.779 2.203-1.173 3.3-.011.042-.021.073-.011.115 0 .114-.01.91 0 .952.031.362.769.642 1.776.642h8.768c1.133 0 2.14-.352 2.254-.776.333-1.097.666-2.205.987-3.302.011-.032.011-.062.011-.093-.01-.104 0-.89 0-.921.01-.384-.738-.673-1.787-.673h-8.56z" id="aW"/><path d="M3.452.325c-1.09 0-2.097.331-2.222.756l-.945 3.3c-.011.032-.011.063-.011.095.011.102 0 .91 0 .941.031.372.81.662 1.84.662h8.766c1.122 0 2.12-.341 2.203-.765l.769-3.302v-.083c-.011-.093 0-.9 0-.922-.011-.393-.8-.682-1.829-.682h-8.57z" id="aY"/><path d="M3.481.323c-1.111 0-2.068.331-2.172.755C1.071 2.185.831 3.283.593 4.39c-.011.021-.011.052-.011.072.01.083 0 .89 0 .912 0 .392.821.714 1.89.714h8.748c1.144 0 2.109-.352 2.17-.776.168-1.098.355-2.194.53-3.302v-.932c.054-.424-.779-.755-1.89-.755H3.48z" id="ba"/><path d="M2.708.323C1.607.323.671.654.61 1.078.433 2.185.277 3.283.111 4.39v.922c-.063.424.8.776 1.922.776h8.757c1.133 0 2.078-.352 2.12-.776.103-1.098.197-2.194.3-3.302v-.932c.032-.424-.83-.755-1.931-.755h-8.57z" id="bc"/><path d="M2.72.326c-1.09 0-2.005.33-2.046.756-.084 1.097-.167 2.204-.26 3.3v.933c-.031.423.852.766 1.974.766h8.758c1.132 0 2.045-.343 2.057-.766.03-1.098.052-2.205.073-3.302 0-.01-.011-.632 0-.931.01-.426-.874-.756-1.975-.756h-8.58z" id="be"/><path d="M2.737.326c-1.08 0-1.994.33-1.994.756-.01 1.097-.032 2.204-.032 3.3v.933c-.01.423.905.766 2.026.766h8.768c1.133 0 2.026-.343 2.006-.766v-.933c-.053-1.096-.103-2.203-.166-3.3-.02-.426-.926-.756-2.016-.756H2.737z" id="bg"/><path d="M1.983.326C.883.326 0 .656.03 1.082v.931l.188 3.302c.031.423.966.766 2.088.766h8.768c1.122 0 2.004-.343 1.953-.766v-.933c-.135-1.096-.25-2.203-.385-3.3-.051-.426-.997-.756-2.088-.756h-8.57z" id="bi"/><path d="M2.007.327c-1.101 0-1.952.33-1.89.756v.931c.124 1.097.27 2.205.415 3.301.042.424 1.008.767 2.14.767h8.747c1.07 0 1.88-.3 1.911-.684 0-.03-.009-.849 0-.931v-.082c-.217-1.098-.415-2.205-.622-3.302-.073-.425-1.029-.756-2.14-.756h-8.56z" id="bk"/><path d="M2.072.323C1.116.323.42.57.37.933c0 .031.01.839 0 .953 0 .04.01.082.02.124.447 1.108.894 2.204 1.33 3.302.166.424 1.226.776 2.347.776h15.998c.998 0 1.684-.27 1.705-.61v-.964c0-.04 0-.092-.032-.124-.54-1.107-1.09-2.205-1.64-3.312-.198-.424-1.259-.755-2.37-.755H2.072z" id="bm"/><path d="M4.317.009C3.132.009 2.03.35 1.864.775 1.43 1.87.992 2.978.545 4.075a.377.377 0 00-.021.114v.932c0 .372.8.652 1.902.652h9.464c1.226 0 2.327-.342 2.473-.766l1.12-3.302c.012-.03.012-.052.012-.093V.65c-.042-.362-.831-.64-1.923-.64H4.317z" id="bo"/><path d="M3.986.002C2.8.002 1.722.345 1.576.77L.475 4.081v1.004c-.011.383.831.693 1.963.693h9.443c1.236 0 2.327-.351 2.44-.776.303-1.097.593-2.194.895-3.302 0-.02.01-.051 0-.072l.01-.941c-.01-.384-.852-.685-1.985-.685H3.986z" id="bq"/><path d="M3.653.008c-1.184 0-2.244.34-2.358.765-.28 1.098-.561 2.205-.862 3.302 0 .021-.011.051-.011.072v.931c0 .394.873.695 2.015.695h9.454c1.226 0 2.275-.343 2.368-.767l.665-3.301V.71c-.01-.393-.872-.703-2.004-.703H3.653z" id="bs"/><path d="M3.313.002C2.139.002 1.1.345 1.017.77L.373 4.081v.993c.03.394.914.704 2.057.704h9.475c1.215 0 2.253-.351 2.305-.776.145-1.097.302-2.194.448-3.302V.77c.051-.415-.873-.768-2.058-.768H3.313z" id="bu"/><path d="M2.987.002C1.793.002.785.345.744.77.609 1.877.464 2.973.338 4.081v.952c0 .415.925.745 2.109.745h9.444c1.235 0 2.244-.351 2.275-.776l.207-3.302c0-.051-.02-.663 0-.93.02-.415-.924-.768-2.13-.768H2.988z" id="bw"/><path d="M2.662.005C1.467.005.49.347.47.771L.293 4.073c0 .051.02.673 0 .931-.02.424.935.766 2.15.766h9.465c1.226 0 2.202-.342 2.202-.766 0-.31-.01-3.136-.02-4.233 0-.414-.956-.766-2.161-.766H2.662z" id="by"/><path d="M2.335.005C1.141.005.175.347.185.771c0 .29.031 3.137.042 4.233.01.424 1.007.766 2.223.766h9.454c1.236 0 2.17-.342 2.138-.766v-.931L13.804.77c-.031-.414-1.018-.766-2.202-.766H2.335z" id="bA"/><path d="M2.778.005C1.594.005.648.347.68.771c.02.248 0 .87 0 .931l.28 3.302c.032.424 1.06.766 2.275.766h9.454c1.215 0 2.15-.342 2.089-.766v-.931c-.157-1.098-.312-2.205-.469-3.302-.062-.414-1.07-.766-2.274-.766H2.778z" id="bC"/><path d="M2.402.732c-1.029 0-1.756.28-1.735.651v.921c0 .042.01.084.031.135L2.131 5.73c.177.424 1.278.776 2.421.776h2.856c.78 1.687 1.559 3.394 2.339 5.092.186.425 1.308.755 2.493.755h4.166c1.018 0 1.766-.258 1.797-.61v-.952a.353.353 0 00-.031-.135c-1.517-3.053-3.023-6.106-4.54-9.16-.208-.423-1.309-.765-2.42-.765h-8.81z" id="bE"/><path d="M3.976.426c-1.216 0-2.307.342-2.43.765C1.233 2.29.931 3.396.62 4.483c-.01.03-.01.062-.01.104v.94c.031.374.893.663 2.036.663h15.021c1.268 0 2.338-.341 2.432-.776.218-1.097.447-2.194.665-3.29 0-.022.01-.052 0-.074v-.941c-.031-.383-.904-.683-2.068-.683H3.976z" id="bG"/><path d="M2.608.426C1.466.426.553.736.511 1.13v.943c0 .02 0 .03.01.052l.499 3.29c.072.435 1.132.776 2.368.776h12.384c1.163 0 2.067-.3 2.098-.683v-.931c0-.03 0-.062-.01-.093-.24-1.087-.49-2.194-.727-3.292-.095-.423-1.175-.765-2.4-.765H2.608z" id="bI"/><path d="M3.925.421c-1.236 0-2.338.342-2.483.767C1.048 2.295.652 3.392.257 4.49c-.01.03-.01.071-.01.102v.933c0 .372.842.672 1.995.672h9.682c1.267 0 2.368-.353 2.493-.787.322-1.097.654-2.184.977-3.292.01-.03.01-.062.01-.092v-.92c0-.384-.84-.685-1.995-.685H3.925z" id="bK"/><path d="M4.624.421c-1.225 0-2.368.342-2.545.767C1.612 2.295 1.145 3.392.678 4.49a.345.345 0 00-.022.112v.943c.022.361.831.652 1.964.652h9.692c1.237 0 2.39-.353 2.545-.787.395-1.097.8-2.184 1.205-3.292.011-.03.011-.071.011-.102v-.942c-.01-.373-.852-.653-1.943-.653H4.624z" id="bM"/><path d="M4.545.421c-1.215 0-2.378.342-2.587.767C1.418 2.295.878 3.392.338 4.49a.232.232 0 00-.031.124v.951c.02.362.8.632 1.9.632h9.703c1.247 0 2.39-.353 2.587-.787.478-1.097.956-2.184 1.433-3.292.022-.03.022-.071.032-.102v-.953c-.01-.362-.8-.642-1.9-.642H4.544z" id="bO"/><path d="M3.028.424C1.813.424.753.766.67 1.189.452 2.286.244 3.394.036 4.481c-.011.031-.011.051-.011.082v.932c.042.394.956.694 2.12.694h76.907c1.153 0 2.067-.3 2.139-.684v-.952c.011-.03.011-.04 0-.072-.156-1.087-.3-2.195-.467-3.292-.063-.423-1.092-.765-2.327-.765H3.027z" id="bQ"/><path d="M2.168.424c-1.164 0-2.026.3-2.057.684v.92c0 .033 0 .062.01.093C.372 3.22.62 4.316.89 5.413c.094.435 1.184.776 2.441.776h9.693c1.132 0 1.995-.279 2.047-.651v-.943c0-.03 0-.072-.011-.112-.322-1.088-.633-2.196-.965-3.292-.115-.424-1.216-.767-2.432-.767H2.168z" id="bS"/><path d="M2.345.424c-1.092 0-1.902.28-1.933.642v.942c0 .041 0 .082.021.113.395 1.098.8 2.195 1.205 3.292.146.435 1.288.776 2.535.776h9.703c1.121 0 1.932-.279 1.943-.651v-.912a.412.412 0 00-.032-.143c-.467-1.088-.934-2.196-1.403-3.292C14.21.767 13.077.424 11.85.424H2.345z" id="bU"/><path d="M2.331.036C1.18.036.306.346.306.729v.922c0 .03 0 .061.011.082.062.196.113.393.176.57.125.434 1.246.776 2.483.776h9.703c1.142 0 1.995-.29 2.005-.663v-.92c0-.042 0-.084-.022-.124-.072-.177-.134-.384-.196-.56C14.31.389 13.178.037 11.94.037H2.33z" id="bW"/><path d="M2.135.358c-1.06 0-1.829.3-1.829.673 0 .041.01.807 0 .931 0 .031.01.073.02.103.427 1.109.863 2.205 1.289 3.313.165.424 1.267.755 2.44.755h9.227c1.069 0 1.817-.269 1.838-.62 0-.053-.011-.83 0-.943a.368.368 0 00-.031-.134c-.488-1.097-.987-2.194-1.475-3.292-.187-.434-1.288-.786-2.442-.786H2.135z" id="bY"/><path d="M2.081.358c-1.091 0-1.88.31-1.86.704 0 .031.01.797 0 .911 0 .031 0 .072.021.092.344 1.109.696 2.205 1.049 3.313.135.424 1.186.755 2.4.755h9.226c1.09 0 1.87-.28 1.87-.651V4.56c.009-.03 0-.082-.022-.124L13.52 1.144C13.353.71 12.294.358 11.13.358H2.081z" id="ca"/><path d="M2.039.358C.958.358.137.668.116 1.052c0 .03.01.839 0 .931 0 .031 0 .062.01.082.27 1.109.552 2.205.832 3.313.104.424 1.153.755 2.337.755h9.235c1.092 0 1.891-.28 1.922-.651v-.953c0-.03 0-.062-.01-.093-.343-1.097-.675-2.194-1.028-3.292C13.289.71 12.24.358 11.087.358H2.039z" id="cc"/><path d="M2.007.358C.906.358.064.668.034 1.062c-.012.031.009.849 0 .931-.012.032 0 .052 0 .072.197 1.109.404 2.205.59 3.313.084.424 1.123.755 2.307.755h9.225c1.09 0 1.922-.28 1.964-.662.01-.031-.011-.859 0-.942 0-.03 0-.062-.011-.093-.26-1.097-.52-2.194-.789-3.292-.104-.434-1.133-.786-2.286-.786H2.007z" id="ce"/><path d="M2.737.365C1.553.365.681.706.732 1.14v.931c.114 1.097.24 2.204.374 3.302.042.424 1.007.756 2.223.756h9.215c1.206 0 2.099-.332 2.025-.756v-.942A345.331 345.331 0 0014 1.141c-.074-.435-1.07-.776-2.235-.776H2.737z" id="cg"/><path d="M4.025.362c-1.153 0-2.213.342-2.347.777C1.355 2.247 1.023 3.332.7 4.44a.183.183 0 00-.021.082c.01.103 0 .9 0 .921 0 .383.832.694 1.932.694h9.236c1.164 0 2.233-.342 2.316-.767.271-1.096.541-2.204.81-3.3.012-.032.012-.063.012-.083-.011-.094 0-.902 0-.922 0-.393-.842-.704-1.923-.704H4.025z" id="ci"/><path d="M3.14.723c-1.08 0-2.129.342-2.338.767-.03.052-.05.093-.072.144-.218.425.508.767 1.6.767h8.518c1.122 0 2.14-.342 2.327-.767.02-.051.041-.092.063-.144.176-.425-.54-.767-1.642-.767H3.14z" id="ck"/><path d="M1.708.723c-1.08 0-1.818.342-1.63.767.03.052.04.093.061.144.188.425 1.227.767 2.317.767h8.529c1.112 0 1.829-.342 1.61-.767-.02-.051-.052-.092-.072-.144-.208-.425-1.258-.767-2.348-.767H1.708z" id="cm"/><path d="M2.117.723c-1.08 0-1.838.342-1.683.767.021.052.041.093.052.144.156.425 1.154.767 2.265.767h8.53c1.1 0 1.848-.342 1.66-.767-.02-.051-.03-.092-.062-.144-.165-.425-1.194-.767-2.305-.767H2.117z" id="co"/><path d="M2.526.723c-1.08 0-1.87.342-1.745.767.01.052.032.093.041.144.126.425 1.112.767 2.214.767h8.528c1.101 0 1.871-.342 1.714-.767-.01-.051-.031-.092-.04-.144-.157-.425-1.144-.767-2.246-.767H2.526z" id="cq"/><path d="M2.165.723c-1.09 0-1.901.342-1.807.767a.69.69 0 00.041.144c.094.425 1.05.767 2.15.767h8.52c1.1 0 1.9-.342 1.776-.767-.011-.051-.032-.092-.042-.144-.125-.425-1.09-.767-2.192-.767H2.165z" id="cs"/><path d="M2.574.723c-1.09 0-1.912.342-1.85.767.011.052.011.093.022.144.062.425.986.767 2.098.767h8.519c1.1 0 1.921-.342 1.828-.767-.01-.051-.01-.092-.02-.144-.094-.425-1.05-.767-2.14-.767H2.573z" id="cu"/><path d="M2.19.723c-1.08 0-1.932.342-1.9.767 0 .052.01.093.01.144.031.425.945.767 2.036.767h8.54c1.1 0 1.943-.342 1.88-.767-.011-.051-.011-.092-.02-.144-.063-.425-.988-.767-2.068-.767H2.191z" id="cw"/><path d="M2.61.723c-1.07 0-1.964.342-1.964.767v.144c.012.425.915.767 1.995.767h8.53c1.09 0 1.963-.342 1.931-.767 0-.051-.01-.092-.01-.144-.032-.425-.934-.767-2.015-.767H2.61z" id="cy"/><path d="M2.24.723c-1.082 0-1.986.342-2.017.767-.01.052-.01.093-.01.144-.032.425.852.767 1.943.767h8.528c1.091 0 1.985-.342 1.985-.767V1.49c.01-.425-.873-.767-1.963-.767H2.239z" id="cA"/><path d="M2.658.723c-1.09 0-2.026.342-2.077.767-.012.052-.022.093-.022.144-.062.425.79.767 1.88.767h8.54c1.08 0 2.005-.342 2.036-.767 0-.051.01-.092.01-.144.032-.425-.82-.767-1.91-.767H2.658z" id="cC"/><path d="M2.285.723c-1.1 0-2.036.342-2.12.767l-.03.144c-.094.425.707.767 1.818.767h8.518c1.102 0 2.036-.342 2.11-.767 0-.051.01-.092.02-.144.063-.425-.768-.767-1.87-.767H2.285z" id="cE"/><path d="M2.694.723c-1.101 0-2.067.342-2.181.767-.01.052-.032.093-.041.144-.125.425.664.767 1.766.767h8.518c1.112 0 2.077-.342 2.172-.767l.03-.144c.094-.425-.706-.767-1.818-.767H2.694z" id="cG"/><path d="M2.323.723c-1.101 0-2.099.342-2.244.767-.02.052-.031.093-.052.144-.146.425.613.767 1.725.767h8.528c1.1 0 2.088-.342 2.213-.767.01-.051.032-.092.042-.144.124-.425-.665-.767-1.756-.767H2.323z" id="cI"/><path d="M2.722.723c-1.07 0-2.099.342-2.275.767-.02.052-.043.093-.063.144-.187.425.561.767 1.662.767h8.519c1.112 0 2.109-.342 2.265-.767.01-.051.03-.092.051-.144.157-.425-.602-.767-1.692-.767H2.722z" id="cK"/><path d="M4.172.319c-1.091 0-2.16.34-2.358.766C1.264 2.182.723 3.289.183 4.386c-.208.424.529.766 1.652.766h8.757c1.143 0 2.192-.342 2.38-.766.477-1.097.965-2.204 1.433-3.301.187-.426-.552-.766-1.663-.766h-8.57z" id="cM"/><path d="M4.182.319c-1.09 0-2.129.34-2.315.766L.475 4.386c-.187.424.581.766 1.713.766h8.758c1.143 0 2.171-.342 2.338-.766.395-1.097.799-2.204 1.205-3.301.156-.426-.613-.766-1.735-.766H4.182z" id="cO"/><path d="M4.216.319c-1.111 0-2.119.34-2.264.766-.396 1.097-.78 2.204-1.174 3.301-.157.424.634.766 1.755.766H11.3c1.143 0 2.141-.342 2.264-.766.323-1.097.656-2.204.988-3.301.114-.426-.665-.766-1.777-.766h-8.56z" id="cQ"/><path d="M3.447.319c-1.08 0-2.099.34-2.224.766L.288 4.386c-.124.424.707.766 1.818.766h8.768c1.133 0 2.12-.342 2.214-.766l.758-3.301c.093-.426-.717-.766-1.829-.766h-8.57z" id="cS"/><path d="M3.479.319c-1.111 0-2.067.34-2.17.766a382.79 382.79 0 00-.707 3.301c-.093.424.738.766 1.87.766h8.747c1.142 0 2.108-.342 2.171-.766l.53-3.301c.062-.426-.768-.766-1.891-.766h-8.55z" id="cU"/><path d="M2.71.319c-1.1 0-2.046.34-2.11.766C.435 2.182.28 3.289.113 4.386c-.062.424.8.766 1.922.766h8.758c1.132 0 2.077-.342 2.118-.766.106-1.097.198-2.204.292-3.301.04-.426-.821-.766-1.922-.766H2.71z" id="cW"/><path d="M2.722.319c-1.09 0-2.004.34-2.046.766C.593 2.182.5 3.289.416 4.386c-.032.424.852.766 1.974.766h8.757c1.133 0 2.048-.342 2.058-.766.03-1.097.051-2.204.072-3.301.01-.426-.873-.766-1.984-.766h-8.57z" id="cY"/><path d="M2.744.319C1.653.319.74.659.74 1.085c0 1.097-.02 2.204-.02 3.301-.01.424.892.766 2.015.766h8.778c1.122 0 2.016-.342 1.995-.766a364.617 364.617 0 00-.167-3.301c-.02-.426-.915-.766-2.015-.766h-8.58z" id="da"/><path d="M1.985.319C.884.319 0 .659.03 1.085l.187 3.301c.032.424.967.766 2.088.766h8.769c1.122 0 2.005-.342 1.952-.766-.134-1.097-.248-2.204-.383-3.301-.052-.426-.998-.766-2.088-.766h-8.57z" id="dc"/><path d="M2.007.319c-1.101 0-1.952.34-1.89.766.124 1.097.27 2.204.415 3.301.042.424 1.008.766 2.14.766h8.747c1.144 0 1.986-.342 1.911-.766-.217-1.097-.415-2.204-.622-3.301-.073-.426-1.029-.766-2.14-.766h-8.56z" id="de"/><path d="M2.018.319c-1.1 0-1.931.34-1.849.766.23 1.097.437 2.204.655 3.301.073.424 1.07.766 2.192.766h8.758c1.142 0 1.953-.342 1.85-.766-.282-1.097-.573-2.204-.843-3.301-.114-.426-1.091-.766-2.192-.766H2.02z" id="dg"/><path d="M2.052.319C.94.319.14.659.255 1.085c.28 1.097.571 2.204.872 3.301.104.424 1.122.766 2.244.766h8.757c1.143 0 1.932-.342 1.788-.766l-1.071-3.301C12.72.659 11.713.319 10.612.319h-8.56z" id="di"/><path d="M2.052.319c-1.09 0-1.88.34-1.734.766.363 1.097.727 2.204 1.112 3.301.134.424 1.163.766 2.285.766h8.778c1.111 0 1.902-.342 1.734-.766-.436-1.097-.86-2.204-1.298-3.301-.166-.426-1.194-.766-2.295-.766H2.052z" id="dk"/><path d="M2.068.319c-1.091 0-1.84.34-1.684.766.447 1.097.894 2.204 1.33 3.301.177.424 1.226.766 2.358.766h16c1.142 0 1.88-.342 1.66-.766-.539-1.097-1.08-2.204-1.63-3.301-.207-.426-1.256-.766-2.378-.766H2.068z" id="dm"/><path d="M4.26.777c-1.185 0-2.318.362-2.535.776C1.185 2.65.643 3.758.104 4.854c-.218.425.602.767 1.817.767H16.59c1.216 0 2.337-.342 2.525-.767.446-1.096.904-2.204 1.36-3.301.167-.414-.654-.776-1.838-.776H4.26z" id="do"/><path d="M4.314.777c-1.185 0-2.286.362-2.453.776C1.426 2.65.988 3.758.543 4.854c-.178.425.664.767 1.89.767h9.464c1.215 0 2.316-.342 2.462-.767l1.122-3.301c.146-.414-.696-.776-1.9-.776H4.313z" id="dq"/><path d="M3.991.777c-1.184 0-2.276.362-2.42.776L.478 4.854c-.135.425.748.767 1.953.767h9.454c1.237 0 2.317-.342 2.431-.767.302-1.096.603-2.204.904-3.301.114-.414-.769-.776-1.984-.776H3.99z" id="ds"/><path d="M3.648.777c-1.184 0-2.234.362-2.349.776a302.328 302.328 0 01-.861 3.301c-.115.425.778.767 1.995.767h9.453c1.236 0 2.275-.342 2.369-.767l.664-3.301c.083-.414-.8-.776-2.005-.776H3.648z" id="du"/><path d="M3.317.777c-1.175 0-2.225.362-2.308.776L.376 4.854c-.083.425.852.767 2.058.767h9.463c1.226 0 2.265-.342 2.316-.767.146-1.096.292-2.204.447-3.301.052-.414-.872-.776-2.057-.776H3.317z" id="dw"/><path d="M2.993.777C1.8.777.791 1.139.74 1.553L.334 4.854c-.062.425.883.767 2.109.767h9.443c1.237 0 2.244-.342 2.275-.767l.218-3.301c.01-.414-.924-.776-2.14-.776H2.993z" id="dy"/><path d="M2.662.777C1.467.777.49 1.139.48 1.553L.293 4.854c-.02.425.935.767 2.15.767h9.465c1.226 0 2.202-.342 2.202-.767-.01-1.096-.01-2.204-.02-3.301 0-.414-.956-.776-2.161-.776H2.662z" id="dA"/><path d="M2.34.777c-1.195 0-2.162.362-2.15.776C.2 2.65.22 3.758.23 4.854c.011.425 1.009.767 2.224.767h9.453c1.227 0 2.171-.342 2.14-.767l-.239-3.301c-.03-.414-1.017-.776-2.202-.776H2.34z" id="dC"/><path d="M2.778.777c-1.184 0-2.13.362-2.088.776l.27 3.301c.032.425 1.06.767 2.275.767h9.454c1.215 0 2.15-.342 2.089-.767-.157-1.096-.312-2.204-.469-3.301-.062-.414-1.06-.776-2.274-.776H2.778z" id="dE"/><path d="M2.445.777C1.262.777.336 1.139.4 1.553.575 2.65.742 3.758.907 4.854c.063.425 1.102.767 2.328.767h9.454c1.225 0 2.15-.342 2.056-.767l-.696-3.301c-.093-.414-1.143-.776-2.337-.776H2.445z" id="dG"/><path d="M2.123.777c-1.195 0-2.078.362-1.984.776l.728 3.301c.103.425 1.142.767 2.368.767h9.473c1.206 0 2.089-.342 1.975-.767a372.126 372.126 0 01-.924-3.301c-.125-.414-1.174-.776-2.359-.776H2.123z" id="dI"/><path d="M2.572.777c-1.196 0-2.068.362-1.944.776l.967 3.301c.123.425 1.204.767 2.42.767h9.464c1.237 0 2.1-.342 1.942-.767-.384-1.096-.757-2.204-1.141-3.301-.157-.414-1.237-.776-2.443-.776H2.572z" id="dK"/><path d="M2.229.777c-1.174 0-2.015.362-1.86.776l1.184 3.301c.157.425 1.258.767 2.452.767h27.716c1.227 0 2.048-.342 1.83-.767C33 3.758 32.47 2.65 31.919 1.553c-.218-.414-1.34-.776-2.533-.776H2.229z" id="dM"/><path d="M1.978.735c-1.122 0-1.922.34-1.756.764.395 1.098.8 2.205 1.206 3.302.155.415 1.216.777 2.378.777h8.997c1.154 0 1.933-.362 1.755-.777-.467-1.097-.934-2.204-1.402-3.302-.176-.423-1.236-.764-2.368-.764h-8.81z" id="dO"/><path d="M2.397.732c-1.121 0-1.89.342-1.703.766.477 1.107.956 2.205 1.434 3.312.186.413 1.278.766 2.42.766h2.867c.77 1.687 1.549 3.384 2.327 5.081.188.425 1.31.766 2.504.766h4.156c1.163 0 1.963-.341 1.766-.766-1.517-3.053-3.023-6.106-4.541-9.16-.207-.423-1.308-.765-2.42-.765h-8.81z" id="dQ"/><path d="M2.347.735c-1.142 0-1.964.34-1.839.764.332 1.098.655 2.205.986 3.302.125.415 1.175.777 2.328.777h9.006c1.143 0 1.974-.362 1.819-.777-.395-1.097-.79-2.204-1.174-3.302-.167-.423-1.205-.764-2.337-.764h-8.79z" id="dS"/><path d="M1.924.735c-1.153 0-1.983.34-1.891.764.26 1.098.52 2.205.759 3.302.104.415 1.111.777 2.275.777h8.986c1.174 0 2.005-.362 1.88-.777a413.164 413.164 0 00-.956-3.302c-.124-.423-1.121-.764-2.264-.764h-8.79z" id="dU"/><path d="M2.282.735c-1.134 0-2.006.34-1.933.764l.53 3.302c.073.415 1.059.777 2.223.777h8.986c1.153 0 2.006-.362 1.911-.777a193.454 193.454 0 00-.716-3.302c-.094-.423-1.07-.764-2.213-.764H2.282z" id="dW"/><path d="M2.629.735c-1.142 0-2.016.34-1.974.764.104 1.098.208 2.205.301 3.302.032.415.998.777 2.161.777h9.007c1.133 0 2.047-.362 1.974-.777-.166-1.097-.322-2.204-.488-3.302-.073-.423-1.05-.764-2.161-.764h-8.82z" id="dY"/><path d="M2.207.735c-1.133 0-2.047.34-2.037.764.031 1.098.053 2.205.073 3.302.01.415.956.777 2.12.777h8.986c1.163 0 2.066-.362 2.035-.777a337.816 337.816 0 00-.27-3.302c-.031-.423-.977-.764-2.109-.764H2.207z" id="ea"/><path d="M2.564.735c-1.123 0-2.067.34-2.089.764L.32 4.801c-.02.415.904.777 2.068.777h8.997c1.152 0 2.098-.362 2.088-.777-.011-1.097-.021-2.204-.042-3.302 0-.423-.934-.764-2.058-.764H2.564z" id="ec"/><path d="M2.932.735c-1.132 0-2.098.34-2.15.764L.408 4.801c-.052.415.852.777 2.015.777H11.4c1.174 0 2.12-.362 2.14-.777l.187-3.302c.02-.423-.863-.764-1.995-.764h-8.8z" id="ee"/><path d="M3.28.735c-1.132 0-2.108.34-2.192.764C.88 2.597.682 3.704.475 4.801c-.073.415.8.777 1.963.777h8.998c1.14 0 2.139-.362 2.19-.777.146-1.097.281-2.204.416-3.302.063-.423-.831-.764-1.943-.764H3.28z" id="eg"/><path d="M3.648.735c-1.143 0-2.14.34-2.255.764-.27 1.098-.55 2.205-.83 3.302-.115.415.737.777 1.9.777h8.997c1.163 0 2.16-.362 2.244-.777.207-1.097.425-2.204.634-3.302.082-.423-.76-.764-1.891-.764h-8.8z" id="ei"/><path d="M3.995.735c-1.142 0-2.15.34-2.296.764C1.346 2.597.992 3.704.629 4.801c-.135.415.697.777 1.85.777h8.985c1.175 0 2.192-.362 2.307-.777.292-1.097.581-2.204.873-3.302.114-.423-.716-.764-1.85-.764H3.995z" id="ek"/><path d="M4.364.735c-1.143 0-2.192.34-2.368.764-.426 1.098-.863 2.205-1.29 3.302-.175.415.645.777 1.809.777H11.5c1.152 0 2.212-.362 2.359-.777.363-1.097.726-2.204 1.089-3.302.147-.423-.665-.764-1.786-.764h-8.8z" id="em"/><path d="M4.464.735c-1.133 0-2.202.34-2.42.764C1.493 2.597.963 3.704.412 4.801c-.208.415.55.777 1.714.777H18.55c1.153 0 2.233-.362 2.4-.777.447-1.097.882-2.204 1.329-3.302.177-.423-.602-.764-1.734-.764H4.464z" id="eo"/><path d="M3.97.424c-1.216 0-2.296.342-2.421.765C1.237 2.286.925 3.394.614 4.481c-.124.435.79.776 2.026.776h15.032c1.267 0 2.327-.341 2.421-.776.227-1.087.447-2.195.675-3.292.072-.423-.831-.765-2.078-.765H3.97z" id="eq"/><path d="M2.61.424C1.395.424.449.766.522 1.189l.498 3.292c.073.435 1.133.776 2.37.776h12.383c1.246 0 2.192-.341 2.087-.776-.239-1.087-.487-2.195-.727-3.292-.093-.423-1.174-.765-2.4-.765H2.61z" id="es"/><path d="M3.922.424c-1.237 0-2.327.342-2.483.765C1.044 2.286.659 3.394.265 4.481c-.156.435.727.776 1.974.776h9.692c1.257 0 2.358-.341 2.483-.776.322-1.087.654-2.195.987-3.292.115-.423-.759-.765-1.994-.765H3.922z" id="eu"/><path d="M4.624.424c-1.226 0-2.358.342-2.546.765-.467 1.097-.934 2.205-1.402 3.292-.176.435.686.776 1.942.776h9.693c1.236 0 2.39-.341 2.546-.776.404-1.087.81-2.195 1.204-3.292.157-.423-.726-.765-1.932-.765H4.624z" id="ew"/><path d="M4.544.424c-1.216 0-2.368.342-2.587.765-.54 1.097-1.08 2.205-1.62 3.292-.218.435.623.776 1.87.776h9.702c1.247 0 2.39-.341 2.587-.776.478-1.087.956-2.195 1.433-3.292.178-.423-.654-.765-1.87-.765H4.545z" id="ey"/><path d="M3.032.421C1.816.421.747.763.674 1.188.455 2.295.248 3.392.04 4.49c-.094.433.863.765 2.109.765h76.896c1.257 0 2.203-.332 2.151-.765-.157-1.098-.312-2.195-.468-3.302C80.666.763 79.627.42 78.4.42H3.032z" id="eA"/><path d="M2.168.418C.942.418.018.769.122 1.194.37 2.29.62 3.398.89 4.484c.094.436 1.184.767 2.441.767h9.693c1.247 0 2.16-.331 2.036-.766-.322-1.087-.644-2.195-.965-3.291-.115-.425-1.216-.776-2.432-.776H2.168z" id="eC"/><path d="M2.086.042C.84.042-.012.383.175.808c.083.187.166.383.249.57.187.434 1.34.764 2.587.764h9.703c1.236 0 2.077-.33 1.87-.764-.093-.187-.187-.383-.28-.57-.209-.425-1.383-.766-2.619-.766H2.086z" id="eE"/><path d="M2.35.424C1.126.424.263.766.43 1.189c.395 1.097.8 2.205 1.205 3.292.155.435 1.288.776 2.535.776h9.702c1.246 0 2.11-.341 1.923-.776-.467-1.087-.936-2.195-1.403-3.292-.187-.423-1.309-.765-2.535-.765H2.351z" id="eG"/><path d="M2.323.042C1.098.042.193.383.32.808c.062.187.114.383.177.57.113.434 1.246.764 2.483.764h9.692c1.257 0 2.15-.33 1.994-.764-.073-.187-.135-.383-.207-.57-.146-.425-1.278-.766-2.515-.766h-9.62z" id="eI"/><path d="M2.135.365C.972.365.162.706.327 1.14c.427 1.097.862 2.194 1.29 3.291.165.425 1.266.777 2.44.777h9.226c1.183 0 1.994-.352 1.806-.777-.488-1.097-.986-2.194-1.474-3.291-.187-.435-1.288-.776-2.442-.776H2.135z" id="eK"/><path d="M2.087.365C.913.365.093.706.238 1.14a198.58 198.58 0 001.06 3.291c.125.425 1.184.777 2.389.777h9.235c1.184 0 2.006-.352 1.839-.777L13.515 1.14c-.156-.435-1.226-.776-2.38-.776H2.088z" id="eM"/><path d="M2.04.365C.875.365.012.706.126 1.14.398 2.238.678 3.335.96 4.432c.104.425 1.143.777 2.337.777h9.236c1.184 0 2.046-.352 1.912-.777l-1.03-3.291C13.29.706 12.24.365 11.088.365H2.04z" id="eO"/><path d="M2.002.365C.839.365-.055.706.027 1.14.235 2.238.433 3.335.63 4.432c.073.425 1.112.777 2.295.777h9.226c1.185 0 2.067-.352 1.953-.777-.26-1.097-.508-2.194-.788-3.291C13.22.706 12.192.365 11.04.365H2.002z" id="eQ"/><path d="M2.735.365C1.55.365.677.706.729 1.14c.125 1.097.24 2.194.375 3.291.04.425 1.017.777 2.222.777h9.225c1.195 0 2.089-.352 2.016-.777a402.931 402.931 0 00-.571-3.291c-.063-.435-1.06-.776-2.234-.776H2.735z" id="eS"/><path d="M2.687.365C1.533.365.598.706.618 1.14c.043 1.097.095 2.194.146 3.291.02.425.997.777 2.192.777h9.215c1.195 0 2.119-.352 2.078-.777a335.393 335.393 0 00-.333-3.291c-.052-.435-1.04-.776-2.203-.776H2.687z" id="eU"/><path d="M2.639.365c-1.164 0-2.11.341-2.11.776C.5 2.238.467 3.335.447 4.432c-.02.425.934.777 2.118.777h9.226c1.184 0 2.14-.352 2.129-.777a328.795 328.795 0 01-.114-3.291c-.021-.435-.966-.776-2.14-.776H2.639z" id="eW"/><path d="M2.59.365C1.437.365.45.706.42 1.14a173.597 173.597 0 00-.313 3.291c-.041.425.894.777 2.068.777h9.245c1.185 0 2.161-.352 2.171-.777.032-1.097.074-2.194.115-3.291.01-.435-.914-.776-2.078-.776H2.59z" id="eY"/><path d="M3.333.365c-1.163 0-2.171.341-2.244.776L.56 4.432c-.073.425.842.777 2.036.777h9.215c1.185 0 2.182-.352 2.234-.777.114-1.097.229-2.194.333-3.291.05-.435-.852-.776-2.006-.776H3.333z" id="fa"/><path d="M3.285.365C2.12.365 1.104.706 1 1.14.75 2.238.49 3.335.241 4.432c-.104.425.78.777 1.963.777h9.246c1.164 0 2.193-.352 2.265-.777.187-1.097.384-2.194.56-3.291.084-.435-.799-.776-1.94-.776h-9.05z" id="fc"/><path d="M4.029.365c-1.164 0-2.213.341-2.348.776a410.915 410.915 0 01-.988 3.291c-.124.425.739.777 1.922.777h9.236c1.163 0 2.223-.352 2.316-.777.271-1.097.54-2.194.8-3.291.104-.435-.768-.776-1.9-.776H4.028z" id="fe"/><path d="M3.97.365c-1.164 0-2.213.341-2.38.776L.376 4.432c-.167.425.664.777 1.848.777h9.236c1.185 0 2.254-.352 2.39-.777.342-1.097.686-2.194 1.018-3.291.135-.435-.696-.776-1.85-.776H3.97z" id="fg"/><path d="M4.748.365c-1.153 0-2.254.341-2.472.776-.551 1.097-1.08 2.194-1.631 3.291-.209.425.582.777 1.776.777h21.93c1.185 0 2.286-.352 2.43-.777.427-1.097.842-2.194 1.258-3.291.167-.435-.644-.776-1.797-.776H4.748z" id="fi"/><path d="M8.74.26C3.941.26.055 4.13.055 8.902v126.786c0 4.771 3.886 8.642 8.685 8.642h236.807c4.799 0 8.685-3.87 8.685-8.642V8.91c0-4.78-3.886-8.651-8.685-8.651H8.74z" id="fk"/><path d="M8.739.26C3.939.26.054 4.13.054 8.902v126.786c0 4.771 3.885 8.642 8.685 8.642h236.808c4.798 0 8.684-3.87 8.684-8.642V8.91c0-4.78-3.886-8.651-8.684-8.651H8.739zm-.914 135.428V8.902c0-.498.405-.9.914-.9h236.808c.508 0 .913.414.913.91v126.776c0 .497-.405.91-.913.91H8.739a.914.914 0 01-.914-.91z" id="fm"/><path id="fo" d="M0 25.553h51.137V.09H0v25.463z"/><path id="fq" d="M.15 25.553h51.136V.09H.15z"/><path id="fs" d="M.298 25.553h51.137V.09H.298z"/><path id="fu" d="M.118 25.553h51.138V.09H.118v25.463z"/><path id="fw" d="M.267 25.553h51.138V.09H.267z"/><path id="fy" d="M.088 25.553h51.137V.09H.088v25.463z"/><path id="fA" d="M71.76 44.618V.236H.224v44.382H71.76z"/><path id="fC" d="M104.689.166H.283v90.886h104.406V.166z"/></defs><g fill="none" fill-rule="evenodd"><g transform="translate(0 144.57)"><mask id="b" fill="#fff"><use xlink:href="#a"/></mask><path fill="#BCC1C3" mask="url(#b)" d="M-6.74 69.512h328.657V-6.585H-6.739z"/></g><g transform="translate(0 144.57)"><mask id="d" fill="#fff"><use xlink:href="#c"/></mask><path fill="#E0E4E7" mask="url(#d)" d="M-6.73 64.345h328.644v-70.92H-6.73z"/></g><g transform="translate(17.957 147.68)"><mask id="f" fill="#fff"><use xlink:href="#e"/></mask><path fill="#BEC3C5" mask="url(#f)" d="M-6.736 41.978h292.975V-6.836H-6.736z"/></g><g transform="translate(119.453 184.23)"><mask id="h" fill="#fff"><use xlink:href="#g"/></mask><path fill="#BCC1C3" mask="url(#h)" d="M-6.54 22.732h89.361V-6.623h-89.36z"/></g><g transform="translate(58.556 144.57)"><mask id="j" fill="#fff"><use xlink:href="#i"/></mask><path fill="#30373D" mask="url(#j)" d="M-6.613 9.631h211.29v-16.21H-6.613z"/></g><g transform="translate(51.529 147.68)"><mask id="l" fill="#fff"><use xlink:href="#k"/></mask><path fill="#818C91" mask="url(#l)" d="M-6.38 10.377h26.716V-6.31H-6.38z"/></g><g transform="translate(250.618 147.68)"><mask id="n" fill="#fff"><use xlink:href="#m"/></mask><path fill="#818C91" mask="url(#n)" d="M-7.011 10.374h26.713V-6.314H-7.011z"/></g><g transform="translate(235.003 147.68)"><mask id="p" fill="#fff"><use xlink:href="#o"/></mask><path fill="#818C91" mask="url(#p)" d="M-6.655 10.374h26.694V-6.314H-6.655z"/></g><g transform="translate(219.388 147.68)"><mask id="r" fill="#fff"><use xlink:href="#q"/></mask><path fill="#818C91" mask="url(#r)" d="M-6.303 10.374H20.37V-6.314H-6.303z"/></g><g transform="translate(204.554 147.68)"><mask id="t" fill="#fff"><use xlink:href="#s"/></mask><path fill="#818C91" mask="url(#t)" d="M-6.725 10.374H19.92V-6.314H-6.725z"/></g><g transform="translate(188.94 147.68)"><mask id="v" fill="#fff"><use xlink:href="#u"/></mask><path fill="#818C91" mask="url(#v)" d="M-6.357 10.374h26.63V-6.314h-26.63z"/></g><g transform="translate(174.105 147.68)"><mask id="x" fill="#fff"><use xlink:href="#w"/></mask><path fill="#818C91" mask="url(#x)" d="M-6.78 10.371h26.608V-6.317H-6.78z"/></g><g transform="translate(158.49 147.68)"><mask id="z" fill="#fff"><use xlink:href="#y"/></mask><path fill="#818C91" mask="url(#z)" d="M-6.422 10.371H20.17V-6.317H-6.422z"/></g><g transform="translate(143.656 147.68)"><mask id="B" fill="#fff"><use xlink:href="#A"/></mask><path fill="#818C91" mask="url(#B)" d="M-6.862 10.371h26.595V-6.317H-6.862z"/></g><g transform="translate(128.041 147.68)"><mask id="D" fill="#fff"><use xlink:href="#C"/></mask><path fill="#818C91" mask="url(#D)" d="M-6.52 10.371h26.615V-6.317H-6.52z"/></g><g transform="translate(113.207 147.68)"><mask id="F" fill="#fff"><use xlink:href="#E"/></mask><path fill="#818C91" mask="url(#F)" d="M-6.945 10.369h26.619V-6.32H-6.945z"/></g><g transform="translate(97.593 147.68)"><mask id="H" fill="#fff"><use xlink:href="#G"/></mask><path fill="#818C91" mask="url(#H)" d="M-6.608 10.369H20.04V-6.32H-6.61z"/></g><g transform="translate(82.758 147.68)"><mask id="J" fill="#fff"><use xlink:href="#I"/></mask><path fill="#818C91" mask="url(#J)" d="M-7.066 10.368h26.681V-6.31h-26.68z"/></g><g transform="translate(67.144 147.68)"><mask id="L" fill="#fff"><use xlink:href="#K"/></mask><path fill="#818C91" mask="url(#L)" d="M-6.717 10.368H19.97V-6.31H-6.717z"/></g><g transform="translate(49.187 150.79)"><mask id="N" fill="#fff"><use xlink:href="#M"/></mask><path fill="#818C91" mask="url(#N)" d="M-6.923 13.124h28.43V-6.721h-28.43z"/></g><g transform="translate(199.87 150.79)"><mask id="P" fill="#fff"><use xlink:href="#O"/></mask><path fill="#818C91" mask="url(#P)" d="M-6.901 13.129h27.602V-6.716H-6.9z"/></g><g transform="translate(214.704 150.79)"><mask id="R" fill="#fff"><use xlink:href="#Q"/></mask><path fill="#818C91" mask="url(#R)" d="M-6.834 13.129h27.832V-6.716H-6.834z"/></g><g transform="translate(229.538 150.79)"><mask id="T" fill="#fff"><use xlink:href="#S"/></mask><path fill="#818C91" mask="url(#T)" d="M-6.771 13.12h28.087V-6.714H-6.771z"/></g><g transform="translate(40.599 167.9)"><mask id="V" fill="#fff"><use xlink:href="#U"/></mask><path fill="#818C91" mask="url(#V)" d="M-6.997 13.59h34.559V-6.264H-6.997z"/></g><g transform="translate(192.843 168.677)"><mask id="X" fill="#fff"><use xlink:href="#W"/></mask><path fill="#818C91" mask="url(#X)" d="M-6.666 12.81h28.48V-7.037h-28.48z"/></g><g transform="translate(209.238 168.677)"><mask id="Z" fill="#fff"><use xlink:href="#Y"/></mask><path fill="#818C91" mask="url(#Z)" d="M-6.93 12.811h28.69V-7.033H-6.93z"/></g><g transform="translate(224.853 168.677)"><mask id="ab" fill="#fff"><use xlink:href="#aa"/></mask><path fill="#818C91" mask="url(#ab)" d="M-6.449 12.81h28.96V-7.033H-6.45z"/></g><g transform="translate(241.249 168.677)"><mask id="ad" fill="#fff"><use xlink:href="#ac"/></mask><path fill="#818C91" mask="url(#ad)" d="M-6.72 12.81h47.368V-7.037H-6.72z"/></g><g transform="translate(238.907 156.235)"><mask id="af" fill="#fff"><use xlink:href="#ae"/></mask><path fill="#818C91" mask="url(#af)" d="M-6.872 13.539h28.527V-6.306H-6.872z"/></g><g transform="translate(223.292 156.235)"><mask id="ah" fill="#fff"><use xlink:href="#ag"/></mask><path fill="#818C91" mask="url(#ah)" d="M-6.567 13.54h28.294V-6.306H-6.567z"/></g><g transform="translate(208.458 156.235)"><mask id="aj" fill="#fff"><use xlink:href="#ai"/></mask><path fill="#818C91" mask="url(#aj)" d="M-7.043 13.54H21.01V-6.306H-7.043z"/></g><g transform="translate(192.843 156.235)"><mask id="al" fill="#fff"><use xlink:href="#ak"/></mask><path fill="#818C91" mask="url(#al)" d="M-6.717 13.542h27.8V-6.313h-27.8z"/></g><g transform="translate(177.228 156.235)"><mask id="an" fill="#fff"><use xlink:href="#am"/></mask><path fill="#818C91" mask="url(#an)" d="M-6.413 13.539H21.17V-6.306H-6.413z"/></g><g transform="translate(162.394 156.235)"><mask id="ap" fill="#fff"><use xlink:href="#ao"/></mask><path fill="#818C91" mask="url(#ap)" d="M-6.896 13.539h27.35V-6.306h-27.35z"/></g><g transform="translate(146.78 156.235)"><mask id="ar" fill="#fff"><use xlink:href="#aq"/></mask><path fill="#818C91" mask="url(#ar)" d="M-6.747 13.539H20.54V-6.306H-6.747z"/></g><g transform="translate(131.164 156.235)"><mask id="at" fill="#fff"><use xlink:href="#as"/></mask><path fill="#818C91" mask="url(#at)" d="M-6.665 13.547H20.79V-6.308H-6.665z"/></g><g transform="translate(115.55 156.235)"><mask id="av" fill="#fff"><use xlink:href="#au"/></mask><path fill="#818C91" mask="url(#av)" d="M-6.596 13.547h27.703V-6.308H-6.596z"/></g><g transform="translate(99.935 156.235)"><mask id="ax" fill="#fff"><use xlink:href="#aw"/></mask><path fill="#818C91" mask="url(#ax)" d="M-6.52 13.547h27.934V-6.308H-6.52z"/></g><g transform="translate(84.32 156.235)"><mask id="az" fill="#fff"><use xlink:href="#ay"/></mask><path fill="#818C91" mask="url(#az)" d="M-6.447 13.542h28.171V-6.312H-6.447z"/></g><g transform="translate(68.705 156.235)"><mask id="aB" fill="#fff"><use xlink:href="#aA"/></mask><path fill="#818C91" mask="url(#aB)" d="M-6.385 13.542h28.421V-6.312h-28.42z"/></g><g transform="translate(46.064 156.235)"><mask id="aD" fill="#fff"><use xlink:href="#aC"/></mask><path fill="#818C91" mask="url(#aD)" d="M-6.689 13.542h36.056V-6.312H-6.69z"/></g><g transform="translate(263.11 177.232)"><mask id="aF" fill="#fff"><use xlink:href="#aE"/></mask><path fill="#818C91" mask="url(#aF)" d="M-6.918 10.118h28.607V-7.005H-6.918z"/></g><g transform="translate(167.078 162.456)"><mask id="aH" fill="#fff"><use xlink:href="#aG"/></mask><path fill="#818C91" mask="url(#aH)" d="M-6.446 13.168H21.32V-6.676H-6.446z"/></g><g transform="translate(151.464 162.456)"><mask id="aJ" fill="#fff"><use xlink:href="#aI"/></mask><path fill="#818C91" mask="url(#aJ)" d="M-6.625 13.17H20.99V-6.673H-6.625z"/></g><g transform="translate(135.849 162.456)"><mask id="aL" fill="#fff"><use xlink:href="#aK"/></mask><path fill="#818C91" mask="url(#aL)" d="M-6.968 13.168h27.745V-6.676H-6.968z"/></g><g transform="translate(119.453 162.456)"><mask id="aN" fill="#fff"><use xlink:href="#aM"/></mask><path fill="#818C91" mask="url(#aN)" d="M-6.511 13.177h27.957V-6.677H-6.51z"/></g><g transform="translate(103.838 162.456)"><mask id="aP" fill="#fff"><use xlink:href="#aO"/></mask><path fill="#818C91" mask="url(#aP)" d="M-6.839 13.177h28.187V-6.677H-6.84z"/></g><g transform="translate(71.828 162.456)"><mask id="aR" fill="#fff"><use xlink:href="#aQ"/></mask><path fill="#818C91" mask="url(#aR)" d="M-6.716 13.17h28.679V-6.673H-6.716z"/></g><g transform="translate(42.94 162.456)"><mask id="aT" fill="#fff"><use xlink:href="#aS"/></mask><path fill="#818C91" mask="url(#aT)" d="M-6.46 13.173h41.593V-6.682H-6.459z"/></g><g transform="translate(64.02 150.79)"><mask id="aV" fill="#fff"><use xlink:href="#aU"/></mask><path fill="#818C91" mask="url(#aV)" d="M-6.617 13.12h28.191V-6.716h-28.19z"/></g><g transform="translate(78.855 150.79)"><mask id="aX" fill="#fff"><use xlink:href="#aW"/></mask><path fill="#818C91" mask="url(#aX)" d="M-6.31 13.13h27.937V-6.716H-6.31z"/></g><g transform="translate(94.47 150.79)"><mask id="aZ" fill="#fff"><use xlink:href="#aY"/></mask><path fill="#818C91" mask="url(#aZ)" d="M-6.794 13.12h27.713V-6.716H-6.794z"/></g><g transform="translate(109.304 150.79)"><mask id="bb" fill="#fff"><use xlink:href="#ba"/></mask><path fill="#818C91" mask="url(#bb)" d="M-6.485 13.128h27.476V-6.717H-6.485z"/></g><g transform="translate(124.918 150.79)"><mask id="bd" fill="#fff"><use xlink:href="#bc"/></mask><path fill="#818C91" mask="url(#bd)" d="M-6.96 13.128h27.239V-6.717h-27.24z"/></g><g transform="translate(139.753 150.79)"><mask id="bf" fill="#fff"><use xlink:href="#be"/></mask><path fill="#818C91" mask="url(#bf)" d="M-6.654 13.12h26.997V-6.714H-6.654z"/></g><g transform="translate(154.587 150.79)"><mask id="bh" fill="#fff"><use xlink:href="#bg"/></mask><path fill="#818C91" mask="url(#bh)" d="M-6.355 13.12h26.934V-6.714H-6.355z"/></g><g transform="translate(170.201 150.79)"><mask id="bj" fill="#fff"><use xlink:href="#bi"/></mask><path fill="#818C91" mask="url(#bj)" d="M-7.038 13.12h27.135V-6.714H-7.038z"/></g><g transform="translate(185.036 150.79)"><mask id="bl" fill="#fff"><use xlink:href="#bk"/></mask><path fill="#818C91" mask="url(#bl)" d="M-6.954 13.12h27.352V-6.712H-6.954z"/></g><g transform="translate(244.372 150.79)"><mask id="bn" fill="#fff"><use xlink:href="#bm"/></mask><path fill="#818C91" mask="url(#bn)" d="M-6.7 13.128h35.536V-6.717H-6.7z"/></g><g transform="translate(62.46 168.677)"><mask id="bp" fill="#fff"><use xlink:href="#bo"/></mask><path fill="#818C91" mask="url(#bp)" d="M-6.543 12.812h29.105V-7.032H-6.543z"/></g><g transform="translate(78.855 168.677)"><mask id="br" fill="#fff"><use xlink:href="#bq"/></mask><path fill="#818C91" mask="url(#br)" d="M-6.593 12.818h28.886V-7.036H-6.593z"/></g><g transform="translate(95.25 168.677)"><mask id="bt" fill="#fff"><use xlink:href="#bs"/></mask><path fill="#818C91" mask="url(#bt)" d="M-6.645 12.811h28.638V-7.033H-6.645z"/></g><g transform="translate(111.646 168.677)"><mask id="bv" fill="#fff"><use xlink:href="#bu"/></mask><path fill="#818C91" mask="url(#bv)" d="M-6.695 12.818h28.421V-7.036h-28.42z"/></g><g transform="translate(128.041 168.677)"><mask id="bx" fill="#fff"><use xlink:href="#bw"/></mask><path fill="#818C91" mask="url(#bx)" d="M-6.73 12.818h28.17V-7.036H-6.73z"/></g><g transform="translate(144.437 168.677)"><mask id="bz" fill="#fff"><use xlink:href="#by"/></mask><path fill="#818C91" mask="url(#bz)" d="M-6.774 12.81h27.952V-7.037H-6.774z"/></g><g transform="translate(160.833 168.677)"><mask id="bB" fill="#fff"><use xlink:href="#bA"/></mask><path fill="#818C91" mask="url(#bB)" d="M-6.882 12.81H21.11V-7.037H-6.882z"/></g><g transform="translate(176.447 168.677)"><mask id="bD" fill="#fff"><use xlink:href="#bC"/></mask><path fill="#818C91" mask="url(#bD)" d="M-6.388 12.81h28.235V-7.037H-6.388z"/></g><g transform="translate(253.74 156.235)"><mask id="bF" fill="#fff"><use xlink:href="#bE"/></mask><path fill="#818C91" mask="url(#bF)" d="M-6.401 19.394h31.67V-6.308H-6.4z"/></g><g transform="translate(88.224 174.121)"><mask id="bH" fill="#fff"><use xlink:href="#bG"/></mask><path fill="#818C91" mask="url(#bH)" d="M-6.458 13.23h34.294V-6.615H-6.458z"/></g><g transform="translate(193.624 174.121)"><mask id="bJ" fill="#fff"><use xlink:href="#bI"/></mask><path fill="#818C91" mask="url(#bJ)" d="M-6.557 13.23h31.495V-6.615H-6.557z"/></g><g transform="translate(71.047 174.121)"><mask id="bL" fill="#fff"><use xlink:href="#bK"/></mask><path fill="#818C91" mask="url(#bL)" d="M-6.82 13.236h29.292V-6.618H-6.82z"/></g><g transform="translate(53.871 174.121)"><mask id="bN" fill="#fff"><use xlink:href="#bM"/></mask><path fill="#818C91" mask="url(#bN)" d="M-6.411 13.236H23.14V-6.618H-6.41z"/></g><g transform="translate(37.476 174.121)"><mask id="bP" fill="#fff"><use xlink:href="#bO"/></mask><path fill="#818C91" mask="url(#bP)" d="M-6.761 13.236h29.79V-6.618H-6.76z"/></g><g transform="translate(110.865 174.121)"><mask id="bR" fill="#fff"><use xlink:href="#bQ"/></mask><path fill="#818C91" mask="url(#bR)" d="M-7.042 13.228h95.309V-6.616h-95.31z"/></g><g transform="translate(213.142 174.121)"><mask id="bT" fill="#fff"><use xlink:href="#bS"/></mask><path fill="#818C91" mask="url(#bT)" d="M-6.956 13.229h29.094V-6.616H-6.956z"/></g><g transform="translate(245.153 174.121)"><mask id="bV" fill="#fff"><use xlink:href="#bU"/></mask><path fill="#818C91" mask="url(#bV)" d="M-6.655 13.229h29.54V-6.616h-29.54z"/></g><g transform="translate(229.538 177.232)"><mask id="bX" fill="#fff"><use xlink:href="#bW"/></mask><path fill="#818C91" mask="url(#bX)" d="M-6.762 10.118h28.513V-7.005H-6.762z"/></g><g transform="translate(245.933 162.456)"><mask id="bZ" fill="#fff"><use xlink:href="#bY"/></mask><path fill="#818C91" mask="url(#bZ)" d="M-6.762 13.173h28.95V-6.682h-28.95z"/></g><g transform="translate(230.318 162.456)"><mask id="cb" fill="#fff"><use xlink:href="#ca"/></mask><path fill="#818C91" mask="url(#cb)" d="M-6.846 13.173h28.704V-6.682H-6.846z"/></g><g transform="translate(214.704 162.456)"><mask id="cd" fill="#fff"><use xlink:href="#cc"/></mask><path fill="#818C91" mask="url(#cd)" d="M-6.952 13.173H21.52V-6.682H-6.952z"/></g><g transform="translate(199.089 162.456)"><mask id="cf" fill="#fff"><use xlink:href="#ce"/></mask><path fill="#818C91" mask="url(#cf)" d="M-7.04 13.173h28.23V-6.682H-7.04z"/></g><g transform="translate(182.693 162.456)"><mask id="ch" fill="#fff"><use xlink:href="#cg"/></mask><path fill="#818C91" mask="url(#ch)" d="M-6.337 13.168H21.64V-6.676H-6.337z"/></g><g transform="translate(87.443 162.456)"><mask id="cj" fill="#fff"><use xlink:href="#ci"/></mask><path fill="#818C91" mask="url(#cj)" d="M-6.387 13.177h28.44V-6.677h-28.44z"/></g><g transform="translate(51.529 147.68)"><mask id="cl" fill="#fff"><use xlink:href="#ck"/></mask><path fill="#30373D" mask="url(#cl)" d="M-6.377 9.44H20.33V-6.316H-6.377z"/></g><g transform="translate(250.618 147.68)"><mask id="cn" fill="#fff"><use xlink:href="#cm"/></mask><path fill="#30373D" mask="url(#cn)" d="M-7.02 9.44h26.722V-6.316H-7.02z"/></g><g transform="translate(235.003 147.68)"><mask id="cp" fill="#fff"><use xlink:href="#co"/></mask><path fill="#30373D" mask="url(#cp)" d="M-6.653 9.44h26.691V-6.316H-6.653z"/></g><g transform="translate(219.388 147.68)"><mask id="cr" fill="#fff"><use xlink:href="#cq"/></mask><path fill="#30373D" mask="url(#cr)" d="M-6.3 9.44h26.666V-6.316H-6.3z"/></g><g transform="translate(204.554 147.68)"><mask id="ct" fill="#fff"><use xlink:href="#cs"/></mask><path fill="#30373D" mask="url(#ct)" d="M-6.717 9.44h26.641V-6.316H-6.717z"/></g><g transform="translate(188.94 147.68)"><mask id="cv" fill="#fff"><use xlink:href="#cu"/></mask><path fill="#30373D" mask="url(#cv)" d="M-6.346 9.44h26.612V-6.316H-6.346z"/></g><g transform="translate(174.105 147.68)"><mask id="cx" fill="#fff"><use xlink:href="#cw"/></mask><path fill="#30373D" mask="url(#cx)" d="M-6.778 9.44h26.605V-6.316H-6.778z"/></g><g transform="translate(158.49 147.68)"><mask id="cz" fill="#fff"><use xlink:href="#cy"/></mask><path fill="#30373D" mask="url(#cz)" d="M-6.42 9.44h26.59V-6.316H-6.42z"/></g><g transform="translate(143.656 147.68)"><mask id="cB" fill="#fff"><use xlink:href="#cA"/></mask><path fill="#30373D" mask="url(#cB)" d="M-6.856 9.44h26.592V-6.316H-6.856z"/></g><g transform="translate(128.041 147.68)"><mask id="cD" fill="#fff"><use xlink:href="#cC"/></mask><path fill="#30373D" mask="url(#cD)" d="M-6.51 9.44h26.605V-6.316H-6.511z"/></g><g transform="translate(113.207 147.68)"><mask id="cF" fill="#fff"><use xlink:href="#cE"/></mask><path fill="#30373D" mask="url(#cF)" d="M-6.94 9.44h26.612V-6.316H-6.94z"/></g><g transform="translate(97.593 147.68)"><mask id="cH" fill="#fff"><use xlink:href="#cG"/></mask><path fill="#30373D" mask="url(#cH)" d="M-6.609 9.44h26.643V-6.316H-6.61z"/></g><g transform="translate(82.758 147.68)"><mask id="cJ" fill="#fff"><use xlink:href="#cI"/></mask><path fill="#30373D" mask="url(#cJ)" d="M-7.059 9.44h26.674V-6.316H-7.06z"/></g><g transform="translate(67.144 147.68)"><mask id="cL" fill="#fff"><use xlink:href="#cK"/></mask><path fill="#30373D" mask="url(#cL)" d="M-6.712 9.44H19.97V-6.316H-6.712z"/></g><g transform="translate(49.187 150.79)"><mask id="cN" fill="#fff"><use xlink:href="#cM"/></mask><path fill="#30373D" mask="url(#cN)" d="M-6.92 12.192H21.5V-6.721H-6.92z"/></g><g transform="translate(64.02 150.79)"><mask id="cP" fill="#fff"><use xlink:href="#cO"/></mask><path fill="#30373D" mask="url(#cP)" d="M-6.62 12.192h28.197V-6.721H-6.621z"/></g><g transform="translate(78.855 150.79)"><mask id="cR" fill="#fff"><use xlink:href="#cQ"/></mask><path fill="#30373D" mask="url(#cR)" d="M-6.31 12.192h27.941V-6.721h-27.94z"/></g><g transform="translate(94.47 150.79)"><mask id="cT" fill="#fff"><use xlink:href="#cS"/></mask><path fill="#30373D" mask="url(#cT)" d="M-6.792 12.192H20.92V-6.721H-6.792z"/></g><g transform="translate(109.304 150.79)"><mask id="cV" fill="#fff"><use xlink:href="#cU"/></mask><path fill="#30373D" mask="url(#cV)" d="M-6.473 12.192H20.99V-6.721H-6.473z"/></g><g transform="translate(124.918 150.79)"><mask id="cX" fill="#fff"><use xlink:href="#cW"/></mask><path fill="#30373D" mask="url(#cX)" d="M-6.958 12.192h27.23V-6.721h-27.23z"/></g><g transform="translate(139.753 150.79)"><mask id="cZ" fill="#fff"><use xlink:href="#cY"/></mask><path fill="#30373D" mask="url(#cZ)" d="M-6.652 12.192h26.997V-6.721H-6.652z"/></g><g transform="translate(154.587 150.79)"><mask id="db" fill="#fff"><use xlink:href="#da"/></mask><path fill="#30373D" mask="url(#db)" d="M-6.349 12.192h26.923V-6.721H-6.349z"/></g><g transform="translate(170.201 150.79)"><mask id="dd" fill="#fff"><use xlink:href="#dc"/></mask><path fill="#30373D" mask="url(#dd)" d="M-7.036 12.192h27.134V-6.721H-7.036z"/></g><g transform="translate(185.036 150.79)"><mask id="df" fill="#fff"><use xlink:href="#de"/></mask><path fill="#30373D" mask="url(#df)" d="M-6.954 12.192h27.356V-6.721H-6.954z"/></g><g transform="translate(199.87 150.79)"><mask id="dh" fill="#fff"><use xlink:href="#dg"/></mask><path fill="#30373D" mask="url(#dh)" d="M-6.903 12.192h27.602V-6.721H-6.903z"/></g><g transform="translate(214.704 150.79)"><mask id="dj" fill="#fff"><use xlink:href="#di"/></mask><path fill="#30373D" mask="url(#dj)" d="M-6.824 12.192H21V-6.721H-6.824z"/></g><g transform="translate(229.538 150.79)"><mask id="dl" fill="#fff"><use xlink:href="#dk"/></mask><path fill="#30373D" mask="url(#dl)" d="M-6.767 12.192h28.084V-6.721H-6.767z"/></g><g transform="translate(244.372 150.79)"><mask id="dn" fill="#fff"><use xlink:href="#dm"/></mask><path fill="#30373D" mask="url(#dn)" d="M-6.703 12.192h35.541V-6.721H-6.703z"/></g><g transform="translate(40.599 167.9)"><mask id="dp" fill="#fff"><use xlink:href="#do"/></mask><path fill="#30373D" mask="url(#dp)" d="M-6.999 12.66h34.565V-6.263H-7z"/></g><g transform="translate(62.46 167.9)"><mask id="dr" fill="#fff"><use xlink:href="#dq"/></mask><path fill="#30373D" mask="url(#dr)" d="M-6.548 12.66h29.113V-6.263H-6.548z"/></g><g transform="translate(78.855 167.9)"><mask id="dt" fill="#fff"><use xlink:href="#ds"/></mask><path fill="#30373D" mask="url(#dt)" d="M-6.602 12.66h28.9V-6.263h-28.9z"/></g><g transform="translate(95.25 167.9)"><mask id="dv" fill="#fff"><use xlink:href="#du"/></mask><path fill="#30373D" mask="url(#dv)" d="M-6.64 12.66h28.633V-6.263H-6.64z"/></g><g transform="translate(111.646 167.9)"><mask id="dx" fill="#fff"><use xlink:href="#dw"/></mask><path fill="#30373D" mask="url(#dx)" d="M-6.696 12.66H21.73V-6.263H-6.696z"/></g><g transform="translate(128.041 167.9)"><mask id="dz" fill="#fff"><use xlink:href="#dy"/></mask><path fill="#30373D" mask="url(#dz)" d="M-6.736 12.66h28.184V-6.263H-6.736z"/></g><g transform="translate(144.437 167.9)"><mask id="dB" fill="#fff"><use xlink:href="#dA"/></mask><path fill="#30373D" mask="url(#dB)" d="M-6.774 12.66h27.952V-6.263H-6.774z"/></g><g transform="translate(160.833 167.9)"><mask id="dD" fill="#fff"><use xlink:href="#dC"/></mask><path fill="#30373D" mask="url(#dD)" d="M-6.878 12.66h27.993V-6.263H-6.878z"/></g><g transform="translate(176.447 167.9)"><mask id="dF" fill="#fff"><use xlink:href="#dE"/></mask><path fill="#30373D" mask="url(#dF)" d="M-6.379 12.66h28.226V-6.263H-6.379z"/></g><g transform="translate(192.843 167.9)"><mask id="dH" fill="#fff"><use xlink:href="#dG"/></mask><path fill="#30373D" mask="url(#dH)" d="M-6.671 12.66h28.49V-6.263H-6.67z"/></g><g transform="translate(209.238 167.9)"><mask id="dJ" fill="#fff"><use xlink:href="#dI"/></mask><path fill="#30373D" mask="url(#dJ)" d="M-6.935 12.66H21.76V-6.263H-6.935z"/></g><g transform="translate(224.853 167.9)"><mask id="dL" fill="#fff"><use xlink:href="#dK"/></mask><path fill="#30373D" mask="url(#dL)" d="M-6.45 12.66h28.958V-6.263H-6.45z"/></g><g transform="translate(241.249 167.9)"><mask id="dN" fill="#fff"><use xlink:href="#dM"/></mask><path fill="#30373D" mask="url(#dN)" d="M-6.717 12.66h47.37V-6.263h-47.37z"/></g><g transform="translate(238.907 156.235)"><mask id="dP" fill="#fff"><use xlink:href="#dO"/></mask><path fill="#30373D" mask="url(#dP)" d="M-6.867 12.617h28.518V-6.306H-6.867z"/></g><g transform="translate(253.74 156.235)"><mask id="dR" fill="#fff"><use xlink:href="#dQ"/></mask><path fill="#30373D" mask="url(#dR)" d="M-6.402 18.463h31.667V-6.308H-6.402z"/></g><g transform="translate(223.292 156.235)"><mask id="dT" fill="#fff"><use xlink:href="#dS"/></mask><path fill="#30373D" mask="url(#dT)" d="M-6.572 12.617h28.305V-6.306H-6.572z"/></g><g transform="translate(208.458 156.235)"><mask id="dV" fill="#fff"><use xlink:href="#dU"/></mask><path fill="#30373D" mask="url(#dV)" d="M-7.041 12.617h28.055V-6.306H-7.041z"/></g><g transform="translate(192.843 156.235)"><mask id="dX" fill="#fff"><use xlink:href="#dW"/></mask><path fill="#30373D" mask="url(#dX)" d="M-6.723 12.617h27.798V-6.306H-6.723z"/></g><g transform="translate(177.228 156.235)"><mask id="dZ" fill="#fff"><use xlink:href="#dY"/></mask><path fill="#30373D" mask="url(#dZ)" d="M-6.413 12.617H21.17V-6.306H-6.413z"/></g><g transform="translate(162.394 156.235)"><mask id="eb" fill="#fff"><use xlink:href="#ea"/></mask><path fill="#30373D" mask="url(#eb)" d="M-6.898 12.617h27.35V-6.306h-27.35z"/></g><g transform="translate(146.78 156.235)"><mask id="ed" fill="#fff"><use xlink:href="#ec"/></mask><path fill="#30373D" mask="url(#ed)" d="M-6.748 12.617H20.54V-6.306H-6.748z"/></g><g transform="translate(131.164 156.235)"><mask id="ef" fill="#fff"><use xlink:href="#ee"/></mask><path fill="#30373D" mask="url(#ef)" d="M-6.662 12.617h27.455V-6.306H-6.662z"/></g><g transform="translate(115.55 156.235)"><mask id="eh" fill="#fff"><use xlink:href="#eg"/></mask><path fill="#30373D" mask="url(#eh)" d="M-6.596 12.617h27.709V-6.306h-27.71z"/></g><g transform="translate(99.935 156.235)"><mask id="ej" fill="#fff"><use xlink:href="#ei"/></mask><path fill="#30373D" mask="url(#ej)" d="M-6.515 12.617H21.41V-6.306H-6.515z"/></g><g transform="translate(84.32 156.235)"><mask id="el" fill="#fff"><use xlink:href="#ek"/></mask><path fill="#30373D" mask="url(#el)" d="M-6.452 12.617h28.174V-6.306H-6.452z"/></g><g transform="translate(68.705 156.235)"><mask id="en" fill="#fff"><use xlink:href="#em"/></mask><path fill="#30373D" mask="url(#en)" d="M-6.384 12.617h28.418V-6.306H-6.384z"/></g><g transform="translate(46.064 156.235)"><mask id="ep" fill="#fff"><use xlink:href="#eo"/></mask><path fill="#30373D" mask="url(#ep)" d="M-6.69 12.617h36.063V-6.306H-6.689z"/></g><g transform="translate(88.224 174.121)"><mask id="er" fill="#fff"><use xlink:href="#eq"/></mask><path fill="#30373D" mask="url(#er)" d="M-6.465 12.297H27.84V-6.616H-6.465z"/></g><g transform="translate(193.624 174.121)"><mask id="et" fill="#fff"><use xlink:href="#es"/></mask><path fill="#30373D" mask="url(#et)" d="M-6.55 12.297h31.486V-6.616H-6.55z"/></g><g transform="translate(71.047 174.121)"><mask id="ev" fill="#fff"><use xlink:href="#eu"/></mask><path fill="#30373D" mask="url(#ev)" d="M-6.82 12.297h29.298V-6.616H-6.82z"/></g><g transform="translate(53.871 174.121)"><mask id="ex" fill="#fff"><use xlink:href="#ew"/></mask><path fill="#30373D" mask="url(#ex)" d="M-6.414 12.297h29.56V-6.616h-29.56z"/></g><g transform="translate(37.476 174.121)"><mask id="ez" fill="#fff"><use xlink:href="#ey"/></mask><path fill="#30373D" mask="url(#ez)" d="M-6.766 12.297H23.02V-6.616H-6.766z"/></g><g transform="translate(110.865 174.121)"><mask id="eB" fill="#fff"><use xlink:href="#eA"/></mask><path fill="#30373D" mask="url(#eB)" d="M-7.034 12.294h95.3V-6.618h-95.3z"/></g><g transform="translate(213.142 174.121)"><mask id="eD" fill="#fff"><use xlink:href="#eC"/></mask><path fill="#30373D" mask="url(#eD)" d="M-6.954 12.29h29.093V-6.623H-6.954z"/></g><g transform="translate(263.11 177.232)"><mask id="eF" fill="#fff"><use xlink:href="#eE"/></mask><path fill="#30373D" mask="url(#eF)" d="M-6.918 9.183h28.6V-6.998h-28.6z"/></g><g transform="translate(245.153 174.121)"><mask id="eH" fill="#fff"><use xlink:href="#eG"/></mask><path fill="#30373D" mask="url(#eH)" d="M-6.659 12.297h29.546V-6.616H-6.66z"/></g><g transform="translate(229.538 177.232)"><mask id="eJ" fill="#fff"><use xlink:href="#eI"/></mask><path fill="#30373D" mask="url(#eJ)" d="M-6.76 9.183h28.51V-6.998H-6.76z"/></g><g transform="translate(245.933 162.456)"><mask id="eL" fill="#fff"><use xlink:href="#eK"/></mask><path fill="#30373D" mask="url(#eL)" d="M-6.762 12.248h28.946V-6.676H-6.762z"/></g><g transform="translate(230.318 162.456)"><mask id="eN" fill="#fff"><use xlink:href="#eM"/></mask><path fill="#30373D" mask="url(#eN)" d="M-6.846 12.248H21.85V-6.676H-6.846z"/></g><g transform="translate(214.704 162.456)"><mask id="eP" fill="#fff"><use xlink:href="#eO"/></mask><path fill="#30373D" mask="url(#eP)" d="M-6.95 12.248h28.475V-6.676H-6.95z"/></g><g transform="translate(199.089 162.456)"><mask id="eR" fill="#fff"><use xlink:href="#eQ"/></mask><path fill="#30373D" mask="url(#eR)" d="M-7.045 12.248H21.18V-6.676H-7.045z"/></g><g transform="translate(182.693 162.456)"><mask id="eT" fill="#fff"><use xlink:href="#eS"/></mask><path fill="#30373D" mask="url(#eT)" d="M-6.34 12.248h27.978V-6.676H-6.34z"/></g><g transform="translate(167.078 162.456)"><mask id="eV" fill="#fff"><use xlink:href="#eU"/></mask><path fill="#30373D" mask="url(#eV)" d="M-6.449 12.248h27.766V-6.676H-6.449z"/></g><g transform="translate(151.464 162.456)"><mask id="eX" fill="#fff"><use xlink:href="#eW"/></mask><path fill="#30373D" mask="url(#eX)" d="M-6.621 12.248h27.609V-6.676h-27.61z"/></g><g transform="translate(135.849 162.456)"><mask id="eZ" fill="#fff"><use xlink:href="#eY"/></mask><path fill="#30373D" mask="url(#eZ)" d="M-6.962 12.248h27.735V-6.676H-6.962z"/></g><g transform="translate(119.453 162.456)"><mask id="fb" fill="#fff"><use xlink:href="#fa"/></mask><path fill="#30373D" mask="url(#fb)" d="M-6.511 12.248h27.957V-6.676H-6.51z"/></g><g transform="translate(103.838 162.456)"><mask id="fd" fill="#fff"><use xlink:href="#fc"/></mask><path fill="#30373D" mask="url(#fd)" d="M-6.835 12.248H21.35V-6.676H-6.835z"/></g><g transform="translate(87.443 162.456)"><mask id="ff" fill="#fff"><use xlink:href="#fe"/></mask><path fill="#30373D" mask="url(#ff)" d="M-6.386 12.248h28.43V-6.676h-28.43z"/></g><g transform="translate(71.828 162.456)"><mask id="fh" fill="#fff"><use xlink:href="#fg"/></mask><path fill="#30373D" mask="url(#fh)" d="M-6.713 12.248H21.95V-6.676H-6.713z"/></g><g transform="translate(42.94 162.456)"><mask id="fj" fill="#fff"><use xlink:href="#fi"/></mask><path fill="#30373D" mask="url(#fj)" d="M-6.456 12.248H35.13V-6.676H-6.456z"/></g><g transform="translate(30.449 .7)"><mask id="fl" fill="#fff"><use xlink:href="#fk"/></mask><path fill="#FAFAFB" mask="url(#fl)" d="M-7.013 151.37H261.3V-6.78H-7.013z"/></g><g transform="translate(30.449 .7)"><mask id="fn" fill="#fff"><use xlink:href="#fm"/></mask><path fill="#1A1D26" mask="url(#fn)" d="M-7.013 151.37h268.311V-6.78H-7.013z"/></g><path d="M48.526 45.854h38.128V83.92H48.526zm44.627 0h38.128V83.92H93.153zm44.626 0h38.128V83.92h-38.128zm44.627 0h38.128V83.92h-38.128zm44.626 0h38.128V83.92h-38.128zM48.526 90.842h38.128v38.067H48.526zm44.627 0h38.128v38.067H93.153zm44.626 0h38.128v38.067h-38.128zm44.627 0h38.128v38.067h-38.128zm44.626 0h38.128v38.067h-38.128z" fill="#E3E4E8"/><path fill="#FC6" d="M287.178 219.502h55.544V165.71h-55.544z"/><path d="M300.215 139.924c-5.856-3.332-12.23-3.72-17.192 1.616-9.196 9.888 3.062 18.6 17.192 22.716v-2.446c-9.136-2.99-16.51-8.751-10.469-15.249 3.034-3.261 6.832-3.426 10.469-1.823v-4.814zm14.734 17.65c2.67-6.987 8.4-14.043 14.736-17.65v4.814c-6.945 3.06-13.302 12.567-12.614 19.24 3.817 0 8.403-.79 12.614-2.168v2.446a66.38 66.38 0 01-9.22 1.99h-11.03a66.38 66.38 0 01-9.22-1.99v-2.446c4.21 1.378 8.796 2.168 12.614 2.168.686-6.673-5.67-16.18-12.614-19.24v-4.814c6.336 3.607 12.065 10.664 14.734 17.65zm14.736 6.682c14.13-4.116 26.388-12.828 17.192-22.716-4.963-5.336-11.337-4.948-17.192-1.616v4.814c3.636-1.603 7.435-1.438 10.468 1.823 6.042 6.498-1.332 12.259-10.468 15.25v2.445zm-41.631 25.582v5.535h53.793v-5.535z" fill="#FF6C50"/><path fill="#FF6C50" d="M312.183 219.502h5.535v-53.793h-5.535z"/><path fill="#D04940" d="M36.784 47.68h240.947V7.69H36.784z"/><path fill="#F06358" d="M36.784 24.268L3.847 47.68l25.568 12.731L54.984 47.68l21.958-23.412z"/><path fill="#F9948D" d="M106.12 47.68L80.553 60.41 54.984 47.68l21.958-23.412H117.1z"/><path fill="#F06358" d="M106.12 47.68l25.57 12.73 25.567-12.73V24.268H117.1z"/><path fill="#F9948D" d="M208.395 47.68l-25.569 12.73-25.568-12.73V24.268h40.158z"/><path fill="#F06358" d="M208.395 47.68l25.568 12.73 25.569-12.73-21.959-23.412h-40.157z"/><path fill="#F9948D" d="M237.573 24.268l21.959 23.412L285.1 60.411l25.57-12.731-32.937-23.412z"/><g transform="translate(3.847 47.59)"><mask id="fp" fill="#fff"><use xlink:href="#fo"/></mask><path d="M0 .09c0 14.006 11.505 25.463 25.567 25.463h.003c14.062 0 25.567-11.457 25.567-25.463H0z" fill="#D04940" mask="url(#fp)"/></g><g transform="translate(54.834 47.59)"><mask id="fr" fill="#fff"><use xlink:href="#fq"/></mask><path d="M51.286.09c0 14.006-11.505 25.463-25.567 25.463h-.002C11.654 25.553.149 14.096.149.09h51.137z" fill="#F06358" mask="url(#fr)"/></g><g transform="translate(105.822 47.59)"><mask id="ft" fill="#fff"><use xlink:href="#fs"/></mask><path d="M.298.09c0 14.006 11.505 25.463 25.568 25.463h.002c14.062 0 25.567-11.457 25.567-25.463H.298z" fill="#D04940" mask="url(#ft)"/></g><g transform="translate(157.14 47.59)"><mask id="fv" fill="#fff"><use xlink:href="#fu"/></mask><path d="M51.256.09c0 14.006-11.506 25.463-25.568 25.463h-.002C11.623 25.553.118 14.096.118.09h51.138z" fill="#F06358" mask="url(#fv)"/></g><g transform="translate(208.127 47.59)"><mask id="fx" fill="#fff"><use xlink:href="#fw"/></mask><path d="M.267.09c0 14.006 11.506 25.463 25.568 25.463h.002c14.062 0 25.568-11.457 25.568-25.463H.267z" fill="#D04940" mask="url(#fx)"/></g><g transform="translate(259.444 47.59)"><mask id="fz" fill="#fff"><use xlink:href="#fy"/></mask><path d="M51.225.09c0 14.006-11.505 25.463-25.568 25.463h-.002C11.593 25.553.088 14.096.088.09h51.137z" fill="#F06358" mask="url(#fz)"/></g><path d="M191.915 200.758l-3.014.232c-3.796.293-7.141-2.571-7.434-6.364-.292-3.792 2.574-7.134 6.37-7.426l10.66-.821 13.062-5.952 26.312 5.896 26.673 33.31-19.878 17.095-25.455-13.475s-1.333-1.382-3.27-3.376l-10.687.823c-3.796.292-7.14-2.572-7.434-6.364a6.842 6.842 0 01.429-2.971c-3.783.274-7.11-2.584-7.402-6.366a6.868 6.868 0 011.068-4.24" fill="#E9B78C"/><path fill="#FED6B6" d="M265.49 214.417l-38.665 18.09 30.274 64.59h47.143z"/><path d="M275.545 239.46l-.503 14.363c-.488 13.932-40.827-5.908-51.503-15.492l-.01-.003-32.973-38.562c-6.385-7.467 8.37-10.466 15.49-1.743l13.942 17.08c5.569 6.82 15.786 6.608 20.743.526 9.739-11.947-4.037-23.672-14.098-24.678l-30.452-3.516c-11.191-1.293-13.82-12.397-3.99-12.312l35.237.307c5.824.05 7.49 1.134 9.662 2.107l24.151 10.826c5.76 2.582 7.593 5.754 10.076 10.76l6.705 42.032-2.477-1.695z" fill="#FED6B6"/><path d="M197.425 180.742c-6.236.629-9.657-1.317-10.79-3.294.827-1.393 2.645-2.35 5.557-2.325l7.34.065c.109 2.747-.286 5.37-2.107 5.554" fill="#FFE7D6"/><path fill="#5AA6D9" d="M250.394 291.515l45.413-21.247-14.39-30.701-45.413 21.247z"/><g transform="translate(239.865 252.479)"><mask id="fB" fill="#fff"><use xlink:href="#fA"/></mask><path fill="#68696D" mask="url(#fB)" d="M.225 23.971L50.958.236l20.801 44.382H9.902z"/></g><path d="M242.862 264.5a2.218 2.218 0 111.883 4.02 2.218 2.218 0 11-1.883-4.02" fill="#FFF"/><g transform="translate(131.066 122.217)"><mask id="fD" fill="#fff"><use xlink:href="#fC"/></mask><path d="M30.523.757l71.185 36.21c2.678 1.36 3.753 4.663 2.39 7.338l-22.304 43.77c-1.363 2.674-4.669 3.748-7.346 2.387L3.264 54.252C.586 52.893-.49 49.59.874 46.915l22.304-43.77C24.54.47 27.846-.605 30.523.757" fill="#50936E" mask="url(#fD)"/></g><path d="M148.994 173.685v3.105l-10.783-5.485 1.257-2.466 9.526 4.846zm0-5.8l-7.179-3.652-1.256 2.466 8.435 4.29v-3.104zm0-5.8v3.104l-6.088-3.097 1.256-2.465 4.832 2.458zm0-20.175l-2.528-1.285 2.528-4.962v6.247zm0 34.88v-3.105l2.529 1.286-1.257 2.466-1.272-.647zm8.375-4.646l-8.375-4.26v3.105l8.375 4.26v-3.105zm0-5.8v3.105l-8.375-4.26v-3.104l8.375 4.259zm-6.828-33.715l6.828 3.473v10.068l-8.375-4.26v-6.247l1.547-3.034zm52.375 56.883l7.932 4.034a2.111 2.111 0 01.922 2.833l-4.038 7.925a2.115 2.115 0 01-2.835.92l-7.932-4.034a2.111 2.111 0 01-.922-2.832l4.038-7.925a2.115 2.115 0 012.835-.921zm-45.547-20.063l9.646 4.907 1.257-2.466-10.903-5.546v3.105zm0 5.8l7.299 3.713 1.256-2.466-8.555-4.352v3.105zm0-39.147l74.092 37.687-4.075 7.996-70.017-35.615v-10.068z" fill="#97E0B3"/><path d="M212.683 225.643l-22.127-25.877c-6.385-7.467 8.37-10.465 15.49-1.743l13.942 17.08c.417.51.86.98 1.325 1.412l-8.63 9.128z" fill="#FED6B6"/><path d="M200.18 200.703c-4.792-6.455-9.746-5.625-10.544-3.668-.06.963.36 2.077 1.418 3.313l5.469 6.396c2.662-1.793 4.932-4.326 3.658-6.041" fill="#FFE7D6"/><path d="M84.076 250.207L49.4 233.398l-30.932 63.7h42.839z" fill="#FFD5B5"/><path d="M106.448 219.746l-51.614-25.019-10.25 21.109c-7.892 16.253-5.59 32.826 4.652 37.79l14.375 6.968c10.24 4.964 22.684.655 27.653-9.578l15.184-31.27z" fill="#FFD5B5"/><path d="M71.192 176.514c-3.345-1.62-7.41-.213-9.033 3.129L47.17 210.509c-1.622 3.342-.214 7.404 3.133 9.026 3.344 1.621 7.41.213 9.033-3.129l14.988-30.866c1.624-3.342.214-7.404-3.132-9.026m15.838.838c-3.345-1.621-7.41-.213-9.033 3.13L60.32 216.883c-1.624 3.342-.215 7.403 3.131 9.024 3.345 1.622 7.41.214 9.034-3.128l17.676-36.402c1.623-3.342.214-7.404-3.132-9.026m16.196.106c3.345 1.621 4.754 5.683 3.131 9.026l-20.72 42.671c-1.624 3.343-5.689 4.75-9.034 3.129-3.346-1.622-4.755-5.683-3.132-9.026l20.721-42.671c1.623-3.343 5.688-4.751 9.034-3.13m20.228-8.203c-3.345-1.622-7.41-.213-9.033 3.129l-27.8 57.25c-1.623 3.342-.214 7.403 3.131 9.025h.001c3.345 1.621 7.41.213 9.033-3.13l27.8-57.248c1.623-3.342.214-7.404-3.132-9.026" fill="#FFD5B5"/><path d="M87.83 246.28l25.353-23.471c7.46-6.906 22.11-2.414 15.6 3.613L96.84 255.994l-9.01-9.714z" fill="#FFD5B5"/><path d="M68.025 262.734c8.473 4.057 21.367-.555 28.813-6.74-1.454-3.818-14.87-19.29-39.587-24.312-5.607 11.547-.755 25.53 10.774 31.052" fill="#FFD5B5"/><path d="M120.592 225.796c4.975-5.285 9.33-4.022 9.84-2.183-.047.869-.541 1.824-1.62 2.823l-5.574 5.16c-2.2-1.886-3.97-4.395-2.646-5.8m5.228-51.519c-1.98 4.321-4.109 5.104-6.742 3.985-2.509-1.373-3.211-3.529-1.038-7.757 1.481-2.884 9.13.824 7.78 3.772" fill="#FFE7D6"/><path fill="#5AA6D9" d="M46.098 297.097l-26.172-12.685 14.465-29.789 44.065 21.359-10.254 21.115z"/><path fill="#68696D" d="M74.255 291.197l-49.225-23.86-14.452 29.76H71.39z"/><path d="M71.708 279.49a2.166 2.166 0 10-1.893 3.9 2.17 2.17 0 002.898-1.005 2.165 2.165 0 00-1.005-2.895" fill="#FFF"/></g></svg>