<svg width="73" height="63" xmlns="http://www.w3.org/2000/svg"><g fill="none" fill-rule="evenodd"><path fill="#CACBCE" d="M15.025 4.527h31.789v38.85H15.025z"/><path d="M2.181 8.1l3.286-.74c.032-.007.059-.026.09-.035.49.403 1.13.61 1.795.46A2.148 2.148 0 008.97 5.218a2.132 2.132 0 00-2.547-1.63c-.666.151-1.155.613-1.429 1.187-.034.007-.065 0-.098.008l-3.285.74c-.938.21-1.578.964-1.42 1.673.157.708 1.052 1.115 1.991.905zm0 6.413l3.286-.74c.032-.006.059-.025.09-.035.49.402 1.13.61 1.795.46a2.148 2.148 0 001.617-2.566 2.132 2.132 0 00-2.547-1.63c-.666.15-1.155.612-1.429 1.187-.034.006-.065 0-.098.006l-3.285.74c-.938.211-1.578.964-1.42 1.673.155.71 1.052 1.116 1.991.905zm0 6.415l3.286-.74c.032-.008.059-.026.09-.035.49.402 1.13.609 1.795.46a2.147 2.147 0 001.617-2.567 2.134 2.134 0 00-2.547-1.63c-.666.152-1.155.613-1.429 1.187-.034.007-.065 0-.098.008l-3.285.74c-.938.21-1.578.964-1.42 1.672.155.708 1.052 1.116 1.991.905zm0 6.412l3.286-.74c.032-.007.059-.024.09-.034.49.402 1.13.609 1.795.46A2.147 2.147 0 008.97 24.46a2.133 2.133 0 00-2.547-1.63c-.666.151-1.155.612-1.429 1.187-.034.006-.065 0-.098.007l-3.285.74c-.938.21-1.578.964-1.42 1.673.155.709 1.052 1.114 1.991.904zm0 6.414l3.286-.74c.032-.007.059-.025.09-.036.49.404 1.13.61 1.795.461a2.15 2.15 0 001.617-2.567 2.132 2.132 0 00-2.547-1.63c-.666.152-1.155.613-1.429 1.187-.034.006-.065 0-.098.007l-3.285.74c-.938.21-1.578.965-1.42 1.673.155.71 1.052 1.116 1.991.905zm0 6.415l3.286-.74c.032-.008.059-.027.09-.035.49.402 1.13.609 1.795.46a2.148 2.148 0 001.617-2.566 2.133 2.133 0 00-2.547-1.63c-.666.15-1.155.612-1.429 1.186-.034.007-.065 0-.098.008l-3.285.74c-.938.21-1.578.964-1.42 1.673.157.709 1.052 1.114 1.991.904zm0 6.412l3.286-.74c.032-.006.059-.024.09-.035.49.402 1.13.61 1.795.46A2.148 2.148 0 008.97 43.7a2.134 2.134 0 00-2.547-1.63c-.666.152-1.155.612-1.429 1.187-.034.006-.065 0-.098.006l-3.285.74c-.938.211-1.578.964-1.42 1.674.155.709 1.052 1.115 1.991.904zm0 6.416l3.286-.74c.032-.009.059-.027.09-.036.49.403 1.13.61 1.795.46a2.149 2.149 0 001.617-2.568 2.132 2.132 0 00-2.547-1.628c-.666.15-1.155.61-1.429 1.185-.034.007-.065 0-.098.009l-3.285.74c-.938.21-1.578.964-1.42 1.672.155.708 1.052 1.115 1.991.906zm3.375 5.637c.491.402 1.13.61 1.796.46a2.147 2.147 0 001.617-2.565 2.133 2.133 0 00-2.547-1.63c-.666.15-1.155.612-1.429 1.187-.034.006-.065 0-.098.006l-3.285.74c-.938.211-1.578.964-1.42 1.673.156.71 1.054 1.116 1.992.905l3.286-.74c.03-.008.058-.026.088-.036z" fill="#FFF"/><path d="M35.837 53.347l-1.542.751-11.972 5.841 5.458-12.366.635-1.438s.372-.547.521-.55l.096-.1 3.78-3.934H17.098v-2.642h18.254l3.626-3.774h-21.88v-2.642h24.42l11.257-11.716V0H3.066v4.653l1.586-.358a2.614 2.614 0 011.653-1.222c.193-.043.388-.065.582-.065A2.68 2.68 0 017.465 8.3a2.54 2.54 0 01-.55.062 2.658 2.658 0 01-1.48-.468l-2.369.546v2.627l1.586-.358c.378-.627.969-1.067 1.653-1.221.193-.044.388-.066.582-.066 1.234 0 2.323.882 2.593 2.094a2.683 2.683 0 01-2.015 3.199c-.18.04-.365.06-.55.06a2.658 2.658 0 01-1.48-.468l-2.369.546v2.628l1.586-.358a2.609 2.609 0 011.653-1.22 2.56 2.56 0 01.582-.067c1.234 0 2.323.882 2.593 2.095a2.683 2.683 0 01-2.015 3.198 2.54 2.54 0 01-.55.061 2.658 2.658 0 01-1.48-.468l-2.369.547v2.626l1.586-.357a2.609 2.609 0 011.653-1.221c.193-.044.388-.066.582-.066 1.234 0 2.323.882 2.593 2.094a2.682 2.682 0 01-2.015 3.198 2.54 2.54 0 01-.55.062 2.658 2.658 0 01-1.48-.469l-2.369.546v2.627l1.586-.358c.378-.627.969-1.067 1.653-1.22.193-.044.388-.066.582-.066a2.68 2.68 0 01.578 5.292 2.48 2.48 0 01-.55.062 2.658 2.658 0 01-1.48-.468l-2.369.547v2.626l1.586-.358c.378-.627.969-1.067 1.653-1.221.193-.044.388-.066.582-.066 1.234 0 2.323.882 2.593 2.094a2.683 2.683 0 01-2.015 3.198 2.54 2.54 0 01-.55.061 2.657 2.657 0 01-1.48-.467l-2.369.546v2.627l1.586-.358a2.616 2.616 0 011.653-1.221c.193-.043.388-.066.582-.066a2.682 2.682 0 01.577 5.293c-.179.04-.364.062-.549.062a2.66 2.66 0 01-1.48-.47l-2.369.548v2.626l1.586-.357a2.609 2.609 0 011.653-1.222c.193-.044.388-.065.582-.065a2.68 2.68 0 01.578 5.291 2.48 2.48 0 01-.55.062 2.658 2.658 0 01-1.48-.468l-2.369.546v2.628l1.586-.359a2.614 2.614 0 011.653-1.22c.193-.044.388-.066.582-.066 1.234 0 2.323.882 2.593 2.094a2.683 2.683 0 01-2.015 3.199c-.18.04-.365.06-.55.06a2.658 2.658 0 01-1.48-.468l-2.369.546V63h49.707V35.721l-16.488 17.16-.448.466zM17.098 6.834h27.264v2.642H17.098V6.834zm0 6.415h27.264v2.642H17.098v-2.642zm0 6.415h27.264v2.642H17.098v-2.642zm0 6.414h27.264v2.642H17.098v-2.642z" fill="#FFF"/><path fill="#EAAD33" d="M59.894 10.644l8.903 8.194-32.05 34.824-8.904-8.194z"/><path fill="#FFD98D" d="M59.891 10.619l2.767 2.545-32.04 34.833-2.768-2.545z"/><path fill="#FC6" d="M33.614 50.771l-3.006-2.768 32.06-34.819 3.006 2.768z"/><path fill="#DEBEA1" d="M36.866 53.69l-8.903-8.255L22.477 60.2z"/><path fill="#F1D7B7" d="M33.736 50.787l-5.773-5.352L22.477 60.2z"/><path fill="#FFECD4" d="M30.744 48.013l-2.781-2.578L22.477 60.2z"/><path fill="#48494F" d="M24.287 55.328l-1.81 4.873 4.747-2.15z"/><path d="M68.66 18.881l3.723-4.076c.664-.728.54-1.94-.268-2.691L66.179 6.61c-.816-.753-2.023-.776-2.685-.05l-3.725 4.075 8.892 8.246z" fill="#FF9F8C"/><path d="M72.115 12.114l-4.662-4.32-4.93 5.396 6.138 5.692 3.722-4.076c.664-.729.54-1.94-.268-2.692z" fill="#FF6C50"/><path d="M72.115 12.114l-1.643-1.52-4.929 5.397 3.116 2.891 3.723-4.076c.665-.729.541-1.94-.267-2.692z" fill="#E65A40"/></g></svg>