<svg width="46" height="30" xmlns="http://www.w3.org/2000/svg"><defs><linearGradient x1="14.645%" y1="85.355%" x2="85.355%" y2="14.646%" id="a"><stop stop-color="#689171" offset="0%"/><stop stop-color="#C9DDCF" offset="100%"/></linearGradient><linearGradient x1="-6.857%" y1="106.917%" x2="90.217%" y2="9.723%" id="c"><stop stop-color="#B0CDB7" offset="0%"/><stop stop-color="#C9DDCF" offset="82%"/><stop stop-color="#E5EFE7" offset="100%"/></linearGradient><linearGradient x1="-9.866%" y1="-820.513%" x2="109.187%" y2="-701.312%" id="d"><stop stop-color="#B0CDB7" offset="0%"/><stop stop-color="#C9DDCF" offset="82%"/><stop stop-color="#E5EFE7" offset="100%"/></linearGradient><linearGradient x1="24.647%" y1="-1028.509%" x2="69.993%" y2="-983.106%" id="e"><stop stop-color="#B0CDB7" offset="0%"/><stop stop-color="#C9DDCF" offset="82%"/><stop stop-color="#E5EFE7" offset="100%"/></linearGradient><linearGradient x1="-12.025%" y1="-1070.962%" x2="129.691%" y2="-929.069%" id="f"><stop stop-color="#B0CDB7" offset="0%"/><stop stop-color="#C9DDCF" offset="82%"/><stop stop-color="#E5EFE7" offset="100%"/></linearGradient><linearGradient x1="50.286%" y1="64.865%" x2="49.982%" y2="32.229%" id="g"><stop stop-color="#689171" offset="28%"/><stop stop-color="#95BCA0" offset="100%"/></linearGradient><linearGradient x1="131.269%" y1="-1001.575%" x2="-1.252%" y2="-1001.575%" id="h"><stop stop-color="#689171" offset="28%"/><stop stop-color="#95BCA0" offset="100%"/></linearGradient><linearGradient x1="50%" y1="-1746.838%" x2="50%" y2="-1851.337%" id="i"><stop stop-color="#689171" offset="28%"/><stop stop-color="#95BCA0" offset="100%"/></linearGradient><linearGradient x1="30.243%" y1="-998.314%" x2="71.734%" y2="-1002.129%" id="j"><stop stop-color="#689171" offset="28%"/><stop stop-color="#95BCA0" offset="100%"/></linearGradient><linearGradient x1="-47.758%" y1="-530.512%" x2="100.426%" y2="-382.327%" id="k"><stop stop-color="#689171" offset="0%"/><stop stop-color="#C9DDCF" offset="100%"/></linearGradient><linearGradient x1="2.044%" y1="-562.326%" x2="71.343%" y2="-493.031%" id="l"><stop stop-color="#689171" offset="28%"/><stop stop-color="#95BCA0" offset="100%"/></linearGradient><linearGradient x1="-38.3%" y1="138.3%" x2="136.983%" y2="-36.983%" id="m"><stop stop-color="#B0CDB7" offset="0%"/><stop stop-color="#E5EFE7" offset="17%"/><stop stop-color="#FFF" offset="100%"/></linearGradient><linearGradient x1="3.324%" y1="80.888%" x2="136.309%" y2="-27.683%" id="n"><stop stop-color="#C9DDCF" offset="0%"/><stop stop-color="#C9DDCF" offset="17%"/><stop stop-color="#FFF" offset="100%"/></linearGradient><radialGradient cx="50%" cy="50%" fx="50%" fy="50%" r="50%" id="b"><stop stop-color="#606060" offset="0%"/><stop stop-color="#689171" stop-opacity=".87" offset="13%"/><stop stop-color="#B0CDB7" stop-opacity=".63" offset="37%"/><stop stop-color="#C9DDCF" stop-opacity=".33" offset="67%"/><stop stop-color="#E5EFE7" stop-opacity="0" offset="100%"/></radialGradient></defs><g fill="none" fill-rule="evenodd"><g stroke="#6CAD84" stroke-width="1.92"><path opacity=".48" d="M35 16.9l4.8 4.8 4.8-4.8"/><path opacity=".24" d="M35 22.9l4.8 4.8 4.8-4.8"/><path d="M39.8 3v12M35 11.16l4.8 4.8 4.8-4.8"/></g><g fill-rule="nonzero"><circle fill="url(#a)" cx="15" cy="15" r="15"/><circle fill="url(#b)" cx="15" cy="15" r="15"/><path d="M24.336 5.64A14.121 14.121 0 0020 2.66a1211.52 1211.52 0 01-3.976 4.035 1146.27 1146.27 0 007.256 7.266c1.354-1.343 2.697-2.67 4.03-3.98a14.139 14.139 0 00-2.976-4.337l.002-.004z" fill="url(#c)"/><path d="M5.636 5.64A14.139 14.139 0 002.66 9.976c1.328 1.307 2.671 2.634 4.03 3.98 2.42-2.402 4.856-4.84 7.255-7.266a1455.44 1455.44 0 01-3.976-4.034A14.121 14.121 0 005.636 5.64z" fill="url(#d)"/><path d="M5.636 24.36a14.11 14.11 0 004.335 2.98 1475.69 1475.69 0 013.977-4.035 1146.267 1146.267 0 00-7.256-7.266c-1.354 1.343-2.698 2.67-4.03 3.98a14.117 14.117 0 002.974 4.341z" fill="url(#e)"/><path d="M24.336 24.36a14.139 14.139 0 002.976-4.336 1605.693 1605.693 0 01-4.03-3.98c-2.42 2.402-4.857 4.84-7.255 7.266 1.341 1.356 2.667 2.7 3.976 4.034a14.121 14.121 0 004.333-2.984z" fill="url(#f)"/><path d="M20.003 2.66a12.393 12.393 0 00-10.034 0c.745 1.902 1.51 3.812 2.295 5.73 1.814-.01 3.629-.01 5.444 0a504.711 504.711 0 002.295-5.73z" fill="url(#g)"/><path d="M2.66 9.978a12.427 12.427 0 000 10.044 413.73 413.73 0 005.723-2.297c-.01-1.817-.01-3.633 0-5.45A528.681 528.681 0 002.66 9.978z" fill="url(#h)"/><path d="M9.97 27.34a12.393 12.393 0 0010.033 0 415.999 415.999 0 00-2.295-5.73c-1.815.01-3.63.01-5.444 0a510.605 510.605 0 00-2.295 5.73z" fill="url(#i)"/><path d="M27.312 20.022a12.432 12.432 0 000-10.044 415.67 415.67 0 00-5.723 2.297 550.05 550.05 0 010 5.45c1.914.781 3.822 1.547 5.723 2.297z" fill="url(#j)"/><circle fill="url(#k)" cx="15" cy="15" r="10.939"/><path d="M15 5.643c-5.098.01-9.347 4.26-9.357 9.357.01 5.098 4.26 9.347 9.357 9.357 5.098-.01 9.347-4.26 9.357-9.357-.01-5.098-4.26-9.347-9.357-9.357z" fill="url(#l)"/><path d="M15 7.37c-4.182.005-7.625 3.448-7.63 7.63-.004 4.182 3.448 7.625 7.63 7.63 4.182.004 7.625-3.448 7.63-7.63.004-4.182-3.448-7.625-7.63-7.63z" fill="url(#m)"/><path d="M16.254 20.113c-4.197 0-7.633-3.428-7.623-7.617a7.593 7.593 0 01.299-2.085A7.55 7.55 0 007.37 15c.005 4.182 3.448 7.625 7.63 7.63 3.465 0 6.415-2.368 7.337-5.549a7.669 7.669 0 01-6.083 3.032z" fill="url(#n)"/><path d="M8.367 17.24l.99-4.493h2.37a1.307 1.307 0 011.32 1.327c0 .653-.431 1.751-1.987 1.751h-1.023l-.31 1.414h-1.36zm2.76-2.6c.25 0 .513-.149.513-.41 0-.203-.142-.297-.371-.297h-.815l-.155.707h.829zm1.577 1.804l.808-.97c.31.405.942.688 1.548.688.256 0 .358-.117.358-.196 0-.377-2.149-.363-2.149-1.677 0-.78.645-1.61 1.926-1.61.734 0 1.468.257 1.96.748l-.815.943c-.37-.37-.943-.545-1.367-.545-.176 0-.276.08-.276.182 0 .357 2.155.377 2.155 1.677 0 .943-.741 1.636-1.899 1.636-.957 0-1.805-.344-2.25-.876zm4.249.796l.99-4.493h2.37a1.307 1.307 0 011.32 1.327c0 .653-.43 1.751-1.986 1.751h-1.024l-.31 1.414h-1.36zm2.761-2.6c.25 0 .512-.149.512-.41 0-.203-.141-.297-.37-.297h-.813l-.155.707h.826z" fill="#000"/></g></g></svg>