<svg width="98" height="85" xmlns="http://www.w3.org/2000/svg"><g fill="none" fill-rule="evenodd"><g fill="#434655"><path d="M8.9 60.82H7.474c-.338 0-.6.265-.6.607 0 .34.262.606.6.606h1.428c.338 0 .6-.265.6-.606a.596.596 0 00-.6-.607zm9.99 0h-1.427c-.338 0-.6.265-.6.607 0 .34.262.606.6.606h1.427a.596.596 0 00.601-.606.596.596 0 00-.6-.607z"/><path d="M18.59 66.318l-1.164-10.39a1.433 1.433 0 00-1.428-1.289h-5.67c-.714 0-1.315.53-1.427 1.29l-1.165 10.39c-.112.834.564 1.592 1.427 1.592H17.2c.826 0 1.502-.758 1.39-1.593zm3.793-5.498h-1.427a.596.596 0 00-.601.607c0 .34.263.606.6.606h1.428c.338 0 .6-.265.6-.606.038-.342-.262-.607-.6-.607zm9.989 0h-1.427c-.338 0-.6.265-.6.607 0 .34.262.606.6.606h1.427a.596.596 0 00.601-.606c.038-.342-.263-.607-.6-.607z"/><path d="M32.11 66.318l-1.165-10.39a1.433 1.433 0 00-1.427-1.289H23.81c-.714 0-1.315.53-1.427 1.29l-1.164 10.39c-.113.834.563 1.592 1.427 1.592h8.036c.864 0 1.503-.758 1.428-1.593zm3.793-5.498h-1.427a.596.596 0 00-.601.607c0 .34.263.606.6.606h1.428c.338 0 .6-.265.6-.606a.596.596 0 00-.6-.607zm9.989 0h-1.427c-.338 0-.6.265-.6.607 0 .34.262.606.6.606h1.427a.596.596 0 00.601-.606.596.596 0 00-.6-.607z"/><path d="M45.592 66.318l-1.164-10.39A1.433 1.433 0 0043 54.64h-5.709c-.713 0-1.314.53-1.427 1.29L34.7 66.32c-.113.834.563 1.592 1.427 1.592h8.037c.864 0 1.54-.758 1.427-1.593zm3.793-5.498h-1.427a.596.596 0 00-.601.607c0 .34.263.606.6.606h1.428c.338 0 .6-.265.6-.606.038-.342-.225-.607-.6-.607zm9.99 0h-1.428c-.338 0-.6.265-.6.607 0 .34.262.606.6.606h1.428c.338 0 .6-.265.6-.606.038-.342-.262-.607-.6-.607z"/><path d="M59.112 66.318l-1.165-10.39a1.433 1.433 0 00-1.427-1.289h-5.708c-.714 0-1.314.53-1.427 1.29l-1.164 10.39c-.113.834.563 1.592 1.427 1.592h8.037c.863 0 1.502-.758 1.427-1.593z"/></g><g fill="#818389"><path d="M2.14 68.745H.715a.597.597 0 00-.601.607c0 .341.263.607.6.607h1.428c.338 0 .6-.266.6-.607 0-.304-.262-.607-.6-.607zm9.99 0h-1.427c-.338 0-.6.266-.6.607 0 .341.262.607.6.607h1.427a.597.597 0 00.601-.607c0-.304-.263-.607-.6-.607z"/><path d="M11.83 74.243l-1.164-10.39a1.433 1.433 0 00-1.427-1.289H3.568c-.714 0-1.315.531-1.427 1.29L.976 74.244c-.112.834.564 1.592 1.428 1.592h8.036c.827.038 1.503-.72 1.39-1.593zm3.83-5.498h-1.427c-.338 0-.6.266-.6.607 0 .341.262.607.6.607h1.427a.597.597 0 00.601-.607c0-.304-.263-.607-.6-.607zm9.953 0h-1.428c-.338 0-.6.266-.6.607 0 .341.262.607.6.607h1.428c.338 0 .6-.266.6-.607.038-.304-.225-.607-.6-.607z"/><path d="M25.35 74.243l-1.165-10.39a1.433 1.433 0 00-1.427-1.289h-5.67c-.714 0-1.315.531-1.428 1.29l-1.164 10.39c-.112.834.564 1.592 1.427 1.592h8.037c.826.038 1.465-.72 1.39-1.593zm3.793-5.498h-1.427a.597.597 0 00-.601.607c0 .341.263.607.6.607h1.428c.338 0 .6-.266.6-.607.038-.304-.262-.607-.6-.607zm9.989 0h-1.427c-.338 0-.6.266-.6.607 0 .341.262.607.6.607h1.427a.597.597 0 00.601-.607c0-.304-.263-.607-.6-.607z"/><path d="M38.832 74.243l-1.164-10.39a1.433 1.433 0 00-1.427-1.289h-5.709c-.713 0-1.314.531-1.427 1.29l-1.164 10.39c-.113.834.563 1.592 1.427 1.592h8.037c.864.038 1.54-.72 1.427-1.593zm3.831-5.498h-1.428c-.338 0-.6.266-.6.607 0 .341.262.607.6.607h1.428c.338 0 .6-.266.6-.607 0-.304-.262-.607-.6-.607zm9.989 0h-1.427c-.338 0-.6.266-.6.607 0 .341.262.607.6.607h1.427a.597.597 0 00.601-.607c0-.304-.263-.607-.6-.607z"/><path d="M52.352 74.243l-1.164-10.39a1.433 1.433 0 00-1.428-1.289h-5.708c-.713 0-1.314.531-1.427 1.29l-1.164 10.39c-.113.834.563 1.592 1.427 1.592h8.037c.863.038 1.502-.72 1.427-1.593zm3.793-5.498h-1.427a.597.597 0 00-.601.607c0 .341.263.607.6.607h1.428c.338 0 .6-.266.6-.607.038-.304-.262-.607-.6-.607zm9.989 0h-1.427c-.338 0-.6.266-.6.607 0 .341.262.607.6.607h1.427a.597.597 0 00.601-.607c0-.304-.263-.607-.6-.607z"/><path d="M65.834 74.243l-1.164-10.39a1.433 1.433 0 00-1.427-1.289h-5.709c-.713 0-1.314.531-1.427 1.29l-1.164 10.39c-.113.834.563 1.592 1.427 1.592h8.037c.864.038 1.54-.72 1.427-1.593z"/></g><path d="M48.7 78.49h-.742a.596.596 0 01-.601-.606c0-.342.263-.607.6-.607h.88l.548-4.892c.113-.758.713-1.289 1.427-1.289h5.708c.751 0 1.352.569 1.427 1.29l.549 4.891h.879c.338 0 .638.303.6.607a.596.596 0 01-.6.606h-.743l.48 4.285c.075.873-.564 1.63-1.427 1.593h-8.037c-.864 0-1.54-.758-1.427-1.593l.48-4.285zm-13.519 0h-.705a.596.596 0 01-.601-.606c0-.342.263-.607.6-.607h.842l.548-4.892c.113-.758.714-1.289 1.427-1.289h5.709c.75 0 1.352.569 1.427 1.29l.548 4.891h.916c.338 0 .601.303.601.607a.596.596 0 01-.6.606h-.781l.48 4.285c.112.873-.563 1.63-1.427 1.593h-8.037c-.864 0-1.54-.758-1.427-1.593l.48-4.285zm-13.46 0h-.765a.596.596 0 01-.601-.606c0-.342.263-.607.6-.607h.897l.53-4.892c.113-.758.714-1.289 1.428-1.289h5.708c.751 0 1.352.569 1.427 1.29l.548 4.891h.88c.337 0 .638.303.6.607a.596.596 0 01-.6.606h-.744l.48 4.285c.076.873-.563 1.63-1.389 1.593h-8.037c-.864 0-1.54-.758-1.427-1.593l.465-4.285zm-13.505 0h-.743a.596.596 0 01-.6-.606c0-.342.262-.607.6-.607h.88l.548-4.892c.112-.758.713-1.289 1.427-1.289h5.67c.752 0 1.352.569 1.428 1.29l.548 4.891h.916c.338 0 .601.303.601.607a.596.596 0 01-.6.606h-.781l.48 4.285c.112.873-.564 1.63-1.39 1.593H9.163c-.863 0-1.54-.758-1.427-1.593l.48-4.285z" fill="#434655"/><path d="M50.354 26.302c1.149 6.899 5.014 12.88 10.46 16.804V53.49H6.245V26.302h44.108z" fill="#FF6C50"/><path d="M24.502 44.717h2.41l3.48-9.208h-2.194l-2.491 7.082-2.505-7.082h-2.194l3.494 9.208zm8.76 0h1.923v-9.208h-1.922v9.208zm5.742 0h1.922v-3.3h2.302c1.95 0 3.033-1.338 3.033-2.94 0-1.615-1.07-2.968-3.033-2.968h-4.224v9.208zm5.294-6.253c0 .773-.569 1.27-1.327 1.27h-2.045v-2.54h2.045c.758 0 1.327.51 1.327 1.27z" fill="#FFF"/><path fill="#E65A40" d="M.45 55.397l6.047-1.971V26.237L.451 24.265zm59.901-12.632a25.96 25.96 0 006.046 3.404v9.228l-6.046-1.971V42.765z"/><circle fill="#6CAD84" cx="76" cy="22" r="22"/><path d="M60.1 19h4.31v1.22h-2.94v1.46c.113-.02.252-.04.415-.06a4.52 4.52 0 011.515.08 2.1 2.1 0 01.805.365c.223.17.398.393.525.67s.19.615.19 1.015c0 .393-.065.737-.195 1.03a1.9 1.9 0 01-.56.73c-.243.193-.537.34-.88.44-.343.1-.728.15-1.155.15a17.564 17.564 0 01-1.53-.09 4.376 4.376 0 01-.5-.08V19zm2.13 5.97c.173 0 .335-.022.485-.065.15-.043.282-.11.395-.2a.96.96 0 00.27-.345c.067-.14.1-.31.1-.51 0-.24-.037-.433-.11-.58a.867.867 0 00-.3-.345 1.105 1.105 0 00-.435-.165 3.056 3.056 0 00-.875-.015 2.91 2.91 0 00-.29.045v2.13c.073.02.185.033.335.04.15.007.292.01.425.01zm3.83-2.47c0-1.167.257-2.065.77-2.695.513-.63 1.247-.945 2.2-.945.5 0 .937.087 1.31.26.373.173.683.42.93.74s.43.703.55 1.15c.12.447.18.943.18 1.49 0 1.167-.258 2.065-.775 2.695-.517.63-1.248.945-2.195.945-.507 0-.947-.087-1.32-.26a2.426 2.426 0 01-.925-.74 3.285 3.285 0 01-.545-1.15 5.74 5.74 0 01-.18-1.49zm1.44 0c0 .353.03.678.09.975.06.297.152.552.275.765a1.4 1.4 0 00.475.5c.193.12.423.18.69.18.487 0 .863-.19 1.13-.57.267-.38.4-.997.4-1.85 0-.34-.028-.657-.085-.95a2.65 2.65 0 00-.265-.77 1.38 1.38 0 00-.47-.515 1.294 1.294 0 00-.71-.185c-.487 0-.863.195-1.13.585-.267.39-.4 1.002-.4 1.835zm9.89.57h-2.56V26h-1.37v-7h1.37v2.85h2.56V19h1.37v7h-1.37v-2.93zm5.4-.98l.2.91h.06l.16-.94L84.26 19h1.41l-1.86 4.84c-.147.38-.288.71-.425.99s-.283.512-.44.695c-.157.183-.332.32-.525.41-.193.09-.42.135-.68.135a2.58 2.58 0 01-.535-.045 1.44 1.44 0 01-.445-.195l.35-1.11a.96.96 0 00.31.11c.093.013.193.02.3.02.313 0 .533-.247.66-.74L79.76 19h1.61l1.42 3.09zm8.27 3.62a2.091 2.091 0 01-.815.33c-.33.067-.668.1-1.015.1-.42 0-.818-.065-1.195-.195a2.556 2.556 0 01-.995-.63c-.287-.29-.515-.667-.685-1.13-.17-.463-.255-1.025-.255-1.685 0-.687.095-1.262.285-1.725.19-.463.437-.837.74-1.12a2.73 2.73 0 011.015-.61 3.552 3.552 0 011.12-.185c.4 0 .738.027 1.015.08.277.053.505.117.685.19l-.27 1.16a1.983 1.983 0 00-.545-.16 4.977 4.977 0 00-.765-.05c-.553 0-.998.197-1.335.59-.337.393-.505 1.003-.505 1.83 0 .36.04.688.12.985.08.297.202.55.365.76.163.21.367.373.61.49.243.117.525.175.845.175.3 0 .553-.03.76-.09.207-.06.387-.137.54-.23l.28 1.12z" fill="#FFF"/></g></svg>