<svg height="512" viewBox="0 0 64 64" width="512" xmlns="http://www.w3.org/2000/svg"><path d="M56 15H45.723c.171.295.277.634.277 1a2 2 0 01-2 2 2 2 0 012 2h9a1 1 0 011 1v28a1 1 0 01-1 1H9a1 1 0 01-1-1V21a1 1 0 011-1h7v-5H8c-2.757 0-5 2.243-5 5v34h58V20c0-2.757-2.243-5-5-5z" fill="#f0bc5e"/><path d="M55 19h-8.184a2.972 2.972 0 00-.596-1c.48-.532.78-1.229.78-2s-.301-1.468-.78-2c.48-.532.78-1.229.78-2 0-1.654-1.346-3-3-3h-5.719l.583-2.332A4.567 4.567 0 0034.438 1h-1.159l-1.854 5.563a2.993 2.993 0 01-.972 1.394l-2.982 2.386a3.011 3.011 0 01-1.874.657H25V9H15v10H9c-1.103 0-2 .897-2 2v28c0 1.103.897 2 2 2h46c1.103 0 2-.897 2-2V21c0-1.103-.897-2-2-2zm-29.403-6c1.131 0 2.24-.389 3.124-1.096l2.982-2.386a4.987 4.987 0 001.62-2.323l1.394-4.181a2.568 2.568 0 012.206 3.169L35.719 11H44c.551 0 1 .449 1 1s-.449 1-1 1h-5v2h5c.551 0 1 .449 1 1s-.449 1-1 1h-5v2h5c.551 0 1 .449 1 1s-.449 1-1 1h-5v2h3c.551 0 1 .449 1 1s-.449 1-1 1H31.417a5.031 5.031 0 01-2.236-.528L26.236 23H25V13zM17 11h6v14h-6zm38 38H9V21h6v6h10v-2h.764l2.522 1.261a7.028 7.028 0 003.131.739H42c1.654 0 3-1.346 3-3 0-.395-.081-.77-.22-1.116A2.996 2.996 0 0046.816 21H55zm3 14H6c-2.757 0-5-2.243-5-5v-5h62v5c0 2.757-2.243 5-5 5zM3 55v3c0 1.654 1.346 3 3 3h52c1.654 0 3-1.346 3-3v-3z"/><path d="M27 57h10v2H27zm12 0h2v2h-2zm-16 0h2v2h-2z"/><g fill="#f0bc5e"><path d="M45 33l2 5h4l-3.233 2.652L49.476 46 45 42.695 40.524 46l1.709-5.348L38 38h5z"/><path d="M32 30l2 5h5l-4.233 2.652L36.476 43 32 39.695 27.524 43l1.709-5.348L25 35h5z"/><path d="M19 33l2 5h5l-4.233 2.652L23.476 46 19 42.695 14.524 46l1.709-5.348L13 38h4z"/></g><path d="M53 31h-2v-6h-2v-2h4zm-2 2h2v2h-2z"/></svg>