<svg width="70" height="42" xmlns="http://www.w3.org/2000/svg"><g fill="#FFF"><path d="M39.17 1.082c-8.937-1.093-17.75 2.67-25.339 7.042C9.426 10.674.368 16.379.858 22.45c0 .485.612.607.979.243C9.793 11.523 23.257 3.146 37.578 3.51c15.912.486 17.87 15.176 17.87 27.803 0 1.82 2.816 1.82 2.816 0 0-14.084-2.57-28.167-19.095-30.231z"/><path d="M67.116 25.728c-1.224 2.67-5.141 13.719-9.425 13.112-1.959-.243-3.917-2.064-5.386-3.278-2.57-1.942-5.14-4.006-7.834-5.827-.856-.608-1.836.728-1.101 1.456 3.794 3.4 9.302 10.32 14.933 10.684 5.875.243 9.67-10.805 11.505-14.569.857-1.821-1.836-3.278-2.692-1.578z"/></g></svg>