<svg width="180" height="96" xmlns="http://www.w3.org/2000/svg"><g fill="none" fill-rule="evenodd"><g transform="translate(0 3.636)"><path d="M45.161 0H5.645C2.528 0 0 2.545 0 5.684V85.26c0 3.14 2.528 5.684 5.645 5.684h39.516c3.118 0 5.645-2.545 5.645-5.684V5.684C50.806 2.545 48.28 0 45.161 0z" fill="#434655"/><path d="M42.339 5.684H8.468a2.834 2.834 0 00-2.823 2.843v5.684a2.833 2.833 0 002.823 2.842h33.87a2.833 2.833 0 002.823-2.842V8.527a2.834 2.834 0 00-2.822-2.843zm0 17.052H8.468a2.833 2.833 0 00-2.823 2.842v5.684a2.834 2.834 0 002.823 2.843h33.87a2.834 2.834 0 002.823-2.843v-5.684a2.833 2.833 0 00-2.822-2.842zM8.468 73.89h5.645a2.833 2.833 0 002.822-2.84 2.834 2.834 0 00-2.822-2.843H8.468a2.834 2.834 0 00-2.823 2.843 2.833 2.833 0 002.823 2.84zm5.645 5.685H8.468a2.834 2.834 0 00-2.823 2.843 2.833 2.833 0 002.823 2.842h5.645a2.833 2.833 0 002.822-2.842 2.834 2.834 0 00-2.822-2.843z" fill="#818389"/><ellipse fill="#FF6C50" cx="25.403" cy="51.155" rx="5.645" ry="5.684"/></g><path d="M63.463 0c-3.783 0-6.85 3.061-6.85 6.837v61.539c0 3.776 3.067 6.835 6.85 6.835h95.897c3.783 0 6.85-3.06 6.85-6.835V6.837c0-3.776-3.067-6.837-6.85-6.837H63.463z" fill="#434655"/><path d="M67.296 7.273a3.423 3.423 0 00-3.425 3.418v54.7a3.425 3.425 0 003.425 3.42h89.047a3.423 3.423 0 003.425-3.42v-54.7a3.423 3.423 0 00-3.425-3.418H67.296z" fill="#F0F1F3"/><path fill="#818389" d="M125.11 75.213H97.712l-3.424 20.512h34.248z"/><path d="M131.96 88.888H90.863c-3.783 0-6.85 3.06-6.85 6.837h54.798c0-3.777-3.067-6.837-6.85-6.837z" fill="#AEB0B5"/><g transform="translate(154.597 59.636)"><path d="M21.94 5.681H3.463c-.637 0-1.155.51-1.155 1.137l1.155 28.406c0 .628.517 1.137 1.155 1.137h16.165c.638 0 1.155-.51 1.155-1.137l1.155-28.406c0-.628-.517-1.137-1.155-1.137z" fill="#E2E4E8"/><path d="M23.094 11.363H2.309c-.637 0-1.154.509-1.154 1.136l1.154 13.635c0 .627.518 1.136 1.155 1.136H21.94c.638 0 1.155-.509 1.155-1.136L24.249 12.5c0-.627-.518-1.136-1.155-1.136z" fill="#FF6C50"/><ellipse fill="#E65A40" cx="12.702" cy="19.317" rx="4.619" ry="4.545"/><path d="M24.249 4.545H1.155C.517 4.545 0 5.054 0 5.68c0 .628.517 1.137 1.155 1.137h23.094c.637 0 1.154-.51 1.154-1.137s-.517-1.136-1.154-1.136z" fill="#E65A40"/><path d="M21.94 2.273L3.463 0C2.827 0 2.31.51 2.31 1.136v3.409h20.785V3.409c0-.627-.517-1.136-1.155-1.136z" fill="#FF6C50"/></g></g></svg>