<svg width="18" height="18" xmlns="http://www.w3.org/2000/svg"><g fill="none" fill-rule="evenodd"><path d="M15.737.019H2.217A2.226 2.226 0 000 2.255v13.494c0 1.235.993 2.236 2.217 2.236h11.207v-2.332c0-1.235.993-2.236 2.217-2.236l2.313-.114V2.255A2.226 2.226 0 0015.737.019zm-2.155 9.379a1.18 1.18 0 01-1.174 1.184h-1.864v1.88a1.18 1.18 0 01-1.175 1.184h-.785a1.18 1.18 0 01-1.174-1.184v-1.88H5.546a1.18 1.18 0 01-1.174-1.184v-.792a1.18 1.18 0 011.174-1.184H7.41v-1.88a1.18 1.18 0 011.174-1.184h.785c.65 0 1.175.53 1.175 1.184v1.88h1.864c.648 0 1.174.53 1.174 1.184v.792z" fill="#E65A40" fill-rule="nonzero"/><path d="M13.42 15.595v2.39l4.534-4.682h-2.262a2.282 2.282 0 00-2.272 2.292z" fill="#AC3F2B"/><path d="M12.408 7.422h-1.864v-1.88a1.18 1.18 0 00-1.175-1.184h-.785A1.18 1.18 0 007.41 5.542v1.88H5.546a1.18 1.18 0 00-1.174 1.184v.792a1.18 1.18 0 001.174 1.184H7.41v1.88a1.18 1.18 0 001.174 1.184h.785a1.18 1.18 0 001.175-1.184v-1.88h1.864a1.18 1.18 0 001.174-1.184v-.792a1.18 1.18 0 00-1.174-1.184z" fill="#F4E3C4"/></g></svg>