<svg width="160" height="98" xmlns="http://www.w3.org/2000/svg"><path d="M33.244 1.421h-23L0 52.578h16.36l2.545-12.716h8.067c13 0 23.09-9.926 23.09-22.546 0-9.18-6.778-15.895-16.818-15.895zm-7.839 25.563h-3.92l2.551-12.746h3.684c3.565 0 5.278 1.973 5.278 4.989 0 3.985-2.763 7.593-7.282 7.751l-.31.006zm73.452-9.82c0-9.288-6.841-15.743-17.134-15.743H58.898L48.655 52.578h16.296l2.865-14.303h4.878l4.107 14.303h17.227L88.563 34.86c6.172-3.473 10.13-9.444 10.289-17.209l.005-.487zM72.453 15.12h4.381c3.353 0 5.002 1.7 5.012 4.182 0 3.617-2.714 6.598-7.014 6.598h-4.537l2.158-10.78zM126.107 54C145.48 54 160 41.37 160 22.602 160 9.404 150.479 0 135.313 0c-19.372 0-33.912 12.63-33.912 31.388 0 13.056 9.328 22.41 24.219 22.609l.487.003zm2.602-15.041c-6.113 0-9.918-3.717-9.918-9.52 0-7.598 5.734-14.398 13.912-14.398 6.102 0 9.907 3.698 9.907 9.51 0 7.607-5.703 14.408-13.901 14.408zM11.56 93.803c6.713 0 12.354-3.66 14.85-10.875h-5.59c-1.604 3.472-4.795 5.63-8.558 5.63-4.123 0-6.697-2.622-6.697-6.59 0-5.571 4.577-10.722 10.156-10.722 3.513 0 5.776 2.006 6.304 5.249h5.5C27.32 70.389 22.684 66 16.34 66A16.274 16.274 0 000 82.354c0 6.554 4.643 11.45 11.56 11.45zm44.162-27.248H38.055l-1.552 5.468c-3.45 12.039-4.544 14.728-6.891 16.279h-2.095L25.582 98h5.07l.945-4.752h16.296L46.947 98h5.069l1.934-9.698h-2.579l4.35-21.747zm-13.713 4.936h7.227l-3.375 16.81h-10.01l.155-.18c1.981-2.362 3.425-6.764 6.003-16.63zm35.967-.048l.986-4.888h-15.93l-5.34 26.693H74.04l.986-4.925H64.165l1.247-6.202h9.457l.959-4.772h-9.456l1.188-5.906h10.416zm28.894-4.888H89.247l-5.346 17.057c-.9 2.901-2.373 4.325-4.527 4.325h-1.46l-1.078 5.376h1.715c5.53 0 8.86-2.707 10.849-9.27l3.793-12.54h7.198L96.03 93.247h5.499l5.34-26.693zm27.288 0h-6.736l-11.156 11.79 2.359-11.79h-5.5l-5.34 26.693h5.499l2.744-13.717 7.7 13.717h6.081l-7.847-13.867 12.196-12.826zm21.851 0H160l-5.341 26.693h-5.5l3.266-16.252-15.944 16.252h-3.822L138 66.555h5.5l-3.223 16.054 15.732-16.054z" fill="#28282C"/></svg>