<svg width="86" height="79" xmlns="http://www.w3.org/2000/svg" xmlns:xlink="http://www.w3.org/1999/xlink"><defs><filter x="-50%" y="-50%" width="200%" height="200%" filterUnits="objectBoundingBox" id="a"><feOffset in="SourceAlpha" result="shadowOffsetOuter1"/><feGaussianBlur stdDeviation="1.5" in="shadowOffsetOuter1" result="shadowBlurOuter1"/><feColorMatrix values="0 0 0 0 0 0 0 0 0 0 0 0 0 0 0 0 0 0 0.1 0" in="shadowBlurOuter1"/></filter><filter x="-50%" y="-50%" width="200%" height="200%" filterUnits="objectBoundingBox" id="c"><feOffset in="SourceAlpha" result="shadowOffsetOuter1"/><feGaussianBlur stdDeviation="1.5" in="shadowOffsetOuter1" result="shadowBlurOuter1"/><feColorMatrix values="0 0 0 0 0 0 0 0 0 0 0 0 0 0 0 0 0 0 0.1 0" in="shadowBlurOuter1"/></filter><filter x="-50%" y="-50%" width="200%" height="200%" filterUnits="objectBoundingBox" id="e"><feOffset in="SourceAlpha" result="shadowOffsetOuter1"/><feGaussianBlur stdDeviation="1.5" in="shadowOffsetOuter1" result="shadowBlurOuter1"/><feColorMatrix values="0 0 0 0 0 0 0 0 0 0 0 0 0 0 0 0 0 0 0.14 0" in="shadowBlurOuter1"/></filter><path id="b" d="M14.97 14.152l14.038-1.23-23.79-2.088L0 70.654l20.052 1.76z"/><path id="d" d="M29.007 73.2l30.647 2.689.474-5.42z"/><path d="M74.625 8.919L63.65 9.88c-1.045 2.65-3.607 4.528-6.618 4.528-2.568 0-4.8-1.373-6.056-3.416l-36.006 3.16 5.218 59.82 59.656-5.234-5.22-59.82z" id="f"/></defs><g fill="none" fill-rule="evenodd"><g transform="translate(3)"><use fill="#000" filter="url(#a)" xlink:href="#b"/><use fill="#FFF" xlink:href="#b"/></g><g transform="translate(3)"><use fill="#000" filter="url(#c)" xlink:href="#d"/><use fill="#FFF" xlink:href="#d"/></g><g transform="translate(3)"><use fill="#000" filter="url(#e)" xlink:href="#f"/><use fill="#FFF" xlink:href="#f"/></g><path d="M64.558 31.736c.04 0 .084-.001.125-.006l4.26-.374a1.427 1.427 0 001.296-1.549 1.426 1.426 0 00-1.544-1.3l-4.26.375a1.427 1.427 0 00-1.296 1.549 1.429 1.429 0 001.419 1.305m-15.624 1.371c.041 0 .084-.001.125-.005l9.942-.873a1.43 1.43 0 00-.248-2.848l-9.942.872a1.427 1.427 0 00-1.296 1.549 1.428 1.428 0 001.419 1.305m-18.34 1.615L43.377 33.6a1.427 1.427 0 001.296-1.549 1.434 1.434 0 00-1.544-1.3l-12.784 1.121a1.427 1.427 0 00-1.296 1.549 1.429 1.429 0 001.545 1.3M59.5 37.927a1.427 1.427 0 00-1.297 1.549 1.427 1.427 0 001.544 1.3l9.942-.873a1.43 1.43 0 00-.246-2.848l-9.944.872zm-8.274 3.596a1.427 1.427 0 001.296-1.549c-.07-.786-.769-1.377-1.544-1.3l-9.942.873a1.43 1.43 0 00.246 2.848l9.944-.872zM31.34 43.268l4.26-.375a1.427 1.427 0 001.296-1.548 1.424 1.424 0 00-1.544-1.3l-4.26.375a1.427 1.427 0 00-1.296 1.548 1.429 1.429 0 001.544 1.3m36.005 2.582a1.427 1.427 0 00-1.294 1.55 1.427 1.427 0 001.545 1.297l2.84-.25a1.426 1.426 0 001.295-1.55 1.415 1.415 0 00-1.546-1.298l-2.84.25zM47.46 47.594a1.427 1.427 0 00-1.295 1.548 1.426 1.426 0 001.544 1.3l14.205-1.246a1.427 1.427 0 001.296-1.548 1.432 1.432 0 00-1.544-1.3L47.46 47.594zm-8.52.748l-7.103.623a1.429 1.429 0 00.247 2.848l7.103-.623a1.427 1.427 0 001.297-1.549 1.423 1.423 0 00-1.545-1.3m31.994 5.805L56.73 55.393a1.427 1.427 0 00-1.296 1.548 1.427 1.427 0 001.544 1.3l14.203-1.247a1.427 1.427 0 001.296-1.549 1.423 1.423 0 00-1.544-1.3M48.207 56.14l-5.68.499a1.429 1.429 0 00.246 2.848l5.682-.5a1.427 1.427 0 001.296-1.548 1.422 1.422 0 00-1.544-1.3m-11.363.998l-4.26.374a1.427 1.427 0 00-1.296 1.549 1.427 1.427 0 001.544 1.3l4.26-.375a1.427 1.427 0 001.296-1.549 1.435 1.435 0 00-1.544-1.3" fill="#E3E4E8"/><path d="M47.199 21.558a1.43 1.43 0 01-1.008-2.44l7.792-7.814a1.424 1.424 0 012.016 0 1.433 1.433 0 010 2.021l-7.792 7.814a1.42 1.42 0 01-1.008.419" fill="#CECFD4"/><path d="M67.16 7.26c0-3.947-3.192-7.148-7.129-7.148-3.936 0-7.129 3.2-7.129 7.148 0 3.948 3.193 7.149 7.13 7.149 3.936 0 7.128-3.201 7.128-7.149" fill="#E65A40"/></g></svg>