<svg width="25" height="24" xmlns="http://www.w3.org/2000/svg"><g fill="none"><path d="M22.083 7.216l-6.524-.605L12.968.594a.523.523 0 00-.96 0L9.416 6.61l-6.524.605a.523.523 0 00-.297.914l4.923 4.324-1.44 6.392a.522.522 0 00.776.564l5.634-3.345 5.633 3.345a.523.523 0 00.777-.564l-1.44-6.392L22.38 8.13a.523.523 0 00-.297-.914z" fill="#FC6"/><path d="M5.818.386C6.151.848 7.09 2.832 7.626 3.99c.085.181-.143.345-.289.208-.926-.876-2.51-2.396-2.842-2.858A.815.815 0 115.818.386zm13.339 0c-.332.462-1.271 2.446-1.808 3.603-.084.181.144.345.29.208.926-.876 2.51-2.396 2.842-2.858a.815.815 0 10-1.324-.953zm5.256 13.547c-.541-.176-2.717-.468-3.981-.628-.2-.025-.286.242-.11.339 1.115.616 3.044 1.663 3.585 1.84a.816.816 0 10.506-1.55zm-23.85 0c.541-.176 2.716-.468 3.981-.628.199-.025.286.242.11.339-1.115.616-3.044 1.663-3.585 1.84a.816.816 0 11-.506-1.55zm11.134 9.204c0-.57.398-2.728.638-3.98.037-.196.318-.196.356 0 .24 1.252.637 3.41.637 3.98a.816.816 0 01-1.63 0z" fill="#FC6"/><path d="M13.91 2.782L12.968.594a.523.523 0 00-.96 0L9.416 6.61l-6.524.605a.523.523 0 00-.297.914l4.923 4.324-1.44 6.392a.522.522 0 00.776.564l.75-.445c1.23-7.957 4.685-13.798 6.306-16.183z" fill="#E6B24D"/></g></svg>