<svg width="47" height="56" xmlns="http://www.w3.org/2000/svg"><path d="M46.574 32.413c-.125-5.09-4.142-9.247-9.177-10a56.173 56.173 0 00-3.187-.399c1.957-1.277 3.673-2.823 4.891-4.107 3.505-3.693 4.11-9.443 1.076-13.53-.99-1.332-2.006-2.308-3.602-3.086-1.596-.779-3.32-1.064-4.98-1.024-5.09.124-9.247 4.142-10 9.177-.278 1.855-.6 4.247-.517 6.616-1.029-1.168-2.103-2.212-3.014-3.075-3.693-3.505-9.442-4.112-13.53-1.075-1.333.99-2.516 2.276-3.294 3.873-.779 1.596-.977 2.989-.937 4.65.124 5.089 4.142 9.246 9.177 10 2.1.313 4.999.487 7.78.057L4.69 50.27l11.56 5.638 7.848-22.084c1.373 2.456 3.294 4.634 4.835 6.095 3.693 3.505 9.443 4.11 13.53 1.075 1.333-.99 2.309-2.006 3.087-3.601.778-1.595 1.064-3.32 1.024-4.98z" fill="#E3E4E8" fill-rule="evenodd"/></svg>