<svg xmlns="http://www.w3.org/2000/svg" width="42.658" height="56"><defs><linearGradient id="a" x1=".5" y1="1" x2=".5" gradientUnits="objectBoundingBox"><stop offset="0" stop-color="#ffc2cc"/><stop offset="1" stop-color="#fff2f4"/></linearGradient><linearGradient id="b" x1=".5" y1="1" x2=".5" gradientUnits="objectBoundingBox"><stop offset="0" stop-color="#fd3a84"/><stop offset="1" stop-color="#ffa68d"/></linearGradient></defs><path d="M106.611 11.7V1.639a1.65 1.65 0 00-.66-1.317A1.662 1.662 0 00104.5.067L71.686 10.13l.471 3.212h4.922v39.377h29.532V13.342h-1.641a1.64 1.64 0 001.641-1.642z" transform="translate(-70.516)" fill="url(#a)"/><path d="M102.009 91.984H62.633a1.625 1.625 0 00-1.641 1.641v42.658a1.625 1.625 0 001.641 1.641h39.376a1.625 1.625 0 001.641-1.641V93.625a1.625 1.625 0 00-1.641-1.641zm-19.688 6.563a4.915 4.915 0 014.922 4.922 4.988 4.988 0 01-2.461 4.266 1.655 1.655 0 00-.82 1.411v.886a1.641 1.641 0 01-3.281 0v-.886a4.988 4.988 0 012.461-4.266 1.655 1.655 0 00.82-1.411 1.641 1.641 0 00-3.281 0 1.641 1.641 0 01-3.281 0 4.915 4.915 0 014.922-4.922zm1.641 18.179a1.641 1.641 0 01-3.281 0 1.641 1.641 0 113.281 0zm8.2 14.635H72.477a1.641 1.641 0 110-3.281h19.688a1.641 1.641 0 110 3.281zm0-6.563H72.477a1.641 1.641 0 110-3.281h19.688a1.641 1.641 0 110 3.281z" transform="translate(-60.992 -81.923)" fill="url(#b)"/></svg>