<svg width="40" height="30" xmlns="http://www.w3.org/2000/svg"><g fill="none"><path d="M35 24.167H5V.833C5 .371 5.374 0 5.833 0h28.334A.83.83 0 0135 .833v23.334z" fill="#48494F"/><path fill="#C3E1F5" d="M6.667 1.667h26.666v16.666H6.667z"/><path fill="#9E9FA9" d="M0 28.333h40V30H0z"/><path fill="#D5D6DD" d="M35 20H5l-5 8.333h40z"/><path fill="#48494F" d="M6.667 21.667h26.666l2.5 5H4.167z"/><path fill="#AFB1BB" d="M13.787 26.667l-.454 1.666h13.334l-.455-1.666z"/><path d="M23.333 10c0-1.458.834-1.667.834-1.667h4.166c-.643-1.47-2.459-2.5-4.166-2.5a4.165 4.165 0 00-3.815 2.5h-7.019a1.666 1.666 0 100 3.334h7.019a4.165 4.165 0 003.815 2.5c1.707 0 3.523-1.03 4.166-2.5h-4.166s-.834-.209-.834-1.667z" fill="#5AA5D8"/></g></svg>