<svg width="60" height="37" xmlns="http://www.w3.org/2000/svg"><defs><linearGradient x1="53.621%" y1="44.305%" x2="50%" y2="55.695%" id="a"><stop stop-color="#7B4397" offset="0%"/><stop stop-color="#DC2430" offset="100%"/></linearGradient><linearGradient x1="41.629%" y1="150.472%" x2="41.629%" y2="0%" id="b"><stop stop-color="#39393E" offset="0%"/><stop stop-color="#28282C" offset="100%"/></linearGradient></defs><g fill="none"><path d="M12.467.533H3.84L0 19.717h6.135l.954-4.769h3.025c4.875 0 8.66-3.722 8.66-8.454 0-3.443-2.542-5.961-6.307-5.961zm-2.94 9.586h-1.47l.957-4.78h1.381c1.337 0 1.98.74 1.98 1.871 0 1.494-1.037 2.847-2.731 2.907l-.117.002zm27.544-3.683c0-3.483-2.565-5.903-6.425-5.903h-8.56l-3.84 19.184h6.11l1.075-5.364h1.83l1.54 5.364h6.46l-2.05-6.644c2.315-1.303 3.799-3.542 3.858-6.454l.002-.183zM27.17 5.67h1.643c1.257 0 1.875.638 1.88 1.569 0 1.356-1.018 2.474-2.63 2.474H26.36l.81-4.043zm20.12 14.58C54.555 20.25 60 15.514 60 8.476 60 3.526 56.43 0 50.742 0c-7.264 0-12.717 4.736-12.717 11.77 0 4.896 3.498 8.404 9.082 8.479l.183.001zm.976-5.64c-2.293 0-3.72-1.394-3.72-3.57 0-2.85 2.15-5.4 5.217-5.4 2.289 0 3.716 1.387 3.716 3.567 0 2.852-2.139 5.402-5.213 5.402z" fill="url(#a)"/><path d="M4.335 35.176c2.517 0 4.633-1.372 5.569-4.078H7.807c-.601 1.302-1.798 2.111-3.21 2.111-1.545 0-2.51-.983-2.51-2.471 0-2.09 1.716-4.02 3.808-4.02 1.317 0 2.166.751 2.364 1.967h2.062c-.075-2.29-1.815-3.935-4.193-3.935A6.103 6.103 0 000 30.883c0 2.457 1.741 4.293 4.335 4.293zm16.56-10.218H14.27l-.581 2.05c-1.294 4.515-1.704 5.524-2.584 6.105h-.786l-.726 3.637h1.901l.355-1.782h6.11l-.354 1.782h1.9l.726-3.637h-.967l1.632-8.155zm-5.142 1.851h2.71l-1.265 6.304h-3.754l.058-.067c.743-.887 1.285-2.537 2.251-6.237zm13.488-.018l.37-1.833h-5.974l-2.003 10.01h6.131l.37-1.847h-4.073l.467-2.325h3.547l.36-1.79H24.89l.445-2.215h3.906zm10.835-1.833h-6.608l-2.005 6.397c-.338 1.087-.89 1.621-1.698 1.621h-.547l-.405 2.017h.644c2.073 0 3.322-1.016 4.068-3.477l1.423-4.703h2.699l-1.636 8.155h2.062l2.003-10.01zm10.233 0h-2.526L43.6 29.38l.884-4.42h-2.062l-2.003 10.01h2.062l1.03-5.145 2.887 5.144h2.28l-2.942-5.2 4.573-4.81zm8.194 0H60l-2.003 10.01h-2.062l1.225-6.094-5.98 6.094h-1.433l2.003-10.01h2.062l-1.208 6.02 5.9-6.02z" fill="url(#b)"/></g></svg>