<svg width="14" height="10" fill="none" xmlns="http://www.w3.org/2000/svg"><path d="M2.603 7.88C2.603 9.087 4.487 10 7 10c2.513 0 4.397-.912 4.397-2.12V4.612l1.885-.827v4.687c0 .19.157.34.359.34.202 0 .359-.15.359-.34V3.17a.361.361 0 00-.224-.212L7.157.032a.35.35 0 00-.292 0L.202 2.937c-.135.064-.202.17-.202.297 0 .128.09.255.202.297l2.378 1.04v3.308h.023zM7 .71l5.789 2.546L7 5.8 1.212 3.256 7 .71zM3.32 7.88V4.91l3.523 1.57A.35.35 0 007 6.5c.067 0 .112 0 .157-.02l3.545-1.549v2.97c0 .678-1.526 1.442-3.68 1.442-2.153 0-3.701-.785-3.701-1.464z" fill="#8C8C8C"/></svg>