<svg width="88" height="37" xmlns="http://www.w3.org/2000/svg"><path d="M59.883 12.09c-.198-.657-.72-1.145-1.358-1.273l-8.83-1.335-4.16-8.519C45.222.368 44.629 0 43.985 0c-.643 0-1.236.368-1.55.963l-4.158 8.52-8.831 1.334c-.64.128-1.161.616-1.36 1.272-.2.656-.044 1.375.404 1.874l6.36 6.186-1.408 9.731a1.936 1.936 0 00.712 1.757c.31.24.68.362 1.05.362.254 0 .508-.057.746-.174l8.035-4.566 8.034 4.566c.24.118.494.174.746.174.371 0 .739-.122 1.05-.362a1.938 1.938 0 00.713-1.757l-1.408-9.731 6.361-6.186a1.962 1.962 0 00.402-1.874zM21.92 23.311a1.246 1.246 0 00-.934-.874l-6.07-.918-2.86-5.857A1.21 1.21 0 0010.99 15c-.443 0-.85.253-1.066.662L7.065 21.52l-6.071.918c-.44.088-.798.423-.934.874A1.35 1.35 0 00.337 24.6l4.373 4.252-.968 6.69c-.056.467.132.93.49 1.208a1.16 1.16 0 001.234.13l5.524-3.14 5.523 3.14c.165.08.34.12.513.12.255 0 .508-.085.722-.25.358-.278.545-.74.49-1.208l-.968-6.69 4.373-4.252a1.35 1.35 0 00.277-1.289zm66 0a1.246 1.246 0 00-.934-.874l-6.07-.918-2.86-5.857A1.21 1.21 0 0076.99 15c-.443 0-.85.253-1.066.662l-2.859 5.857-6.071.918c-.44.088-.798.423-.934.874a1.35 1.35 0 00.277 1.289l4.373 4.252-.968 6.69c-.056.467.132.93.49 1.208a1.16 1.16 0 001.234.13l5.524-3.14 5.523 3.14c.165.08.34.12.513.12.255 0 .508-.085.722-.25.358-.278.545-.74.49-1.208l-.968-6.69 4.373-4.252a1.35 1.35 0 00.277-1.289z" fill="#FC6"/></svg>