<svg width="85" height="63" xmlns="http://www.w3.org/2000/svg"><g fill="none" fill-rule="evenodd"><path d="M27.19 16.588c-.066 0-.132-.004-.199-.012-6.002-.727-10.403-3.041-13.081-6.88-2.174-3.116-.986-6.523 1.311-8.279 2.294-1.753 5.87-1.99 8.268.949 4.461 5.466 5.31 12.073 5.345 12.352a1.674 1.674 0 01-.472 1.38c-.312.315-.735.49-1.173.49zM18.95 3.45c-.642 0-1.254.263-1.724.622-.96.734-1.695 2.145-.604 3.71 1.774 2.542 4.609 4.25 8.444 5.094-.576-2.157-1.778-5.502-4.138-8.395-.611-.75-1.311-1.031-1.977-1.031zm16.887 13.138c-.438 0-.86-.175-1.173-.49a1.673 1.673 0 01-.472-1.38c.034-.279.886-6.886 5.345-12.352 2.398-2.94 5.975-2.702 8.27-.948 2.296 1.756 3.484 5.163 1.31 8.278-2.68 3.839-7.08 6.154-13.082 6.88a1.63 1.63 0 01-.198.012zM44.076 3.45c-.667 0-1.366.282-1.977 1.03-2.36 2.893-3.562 6.239-4.139 8.396 3.836-.844 6.67-2.552 8.444-5.095 1.091-1.563.357-2.975-.603-3.709-.47-.36-1.082-.622-1.725-.622z" fill="#E65A40"/><path d="M63.026 16.853v11.071H0V16.853c0-1.067.86-1.932 1.92-1.932h59.186c1.06 0 1.92.865 1.92 1.932z" fill="#FC6"/><path d="M60.054 25.675v31.459a2.67 2.67 0 01-2.663 2.678H5.635a2.67 2.67 0 01-2.662-2.678V25.675h57.08z" fill="#FC6"/><path fill="#E4B24D" d="M60.054 27.924v4.5H2.973v-4.5z"/><path d="M36.222 12.842v47.081h-8.648V12.842c0-2.302 1.854-4.167 4.142-4.167h.363c2.289 0 4.143 1.865 4.143 4.167z" fill="#E65A40"/><path d="M59.212 32.072c-.046 0-.093-.003-.139-.009-4.201-.506-7.282-2.12-9.157-4.797-1.522-2.174-.69-4.55.918-5.774 1.606-1.222 4.11-1.388 5.787.661 3.123 3.813 3.718 8.42 3.742 8.615a1.165 1.165 0 01-1.151 1.304zm-5.767-9.162c-.45 0-.878.183-1.208.433-.672.512-1.186 1.497-.422 2.587 1.242 1.773 3.226 2.964 5.91 3.553-.403-1.504-1.244-3.837-2.896-5.855-.428-.522-.918-.718-1.384-.718zm11.82 9.162a1.158 1.158 0 01-1.151-1.305c.024-.194.62-4.801 3.741-8.613 1.679-2.05 4.183-1.884 5.788-.661 1.608 1.224 2.44 3.6.918 5.773-1.875 2.677-4.956 4.29-9.158 4.797a1.146 1.146 0 01-.138.009zm5.767-9.162c-.466 0-.956.196-1.384.718-1.652 2.018-2.493 4.35-2.897 5.855 2.685-.589 4.67-1.78 5.911-3.553.764-1.09.25-2.074-.422-2.586-.329-.25-.758-.434-1.208-.434z" fill="#AD3E2A"/><path d="M84.298 32.256v7.721H40.18v-7.72c0-.745.6-1.348 1.343-1.348h41.43c.743 0 1.345.603 1.345 1.347z" fill="#FF6C50"/><path d="M82.217 38.409v21.938a1.866 1.866 0 01-1.864 1.868h-36.23a1.866 1.866 0 01-1.863-1.868V38.41h39.957z" fill="#FF6C50"/><path fill="#D95239" d="M82.217 39.977v3.138H42.26v-3.138z"/><path d="M65.265 29.382v32.833h-6.053V29.382a2.902 2.902 0 012.9-2.906h.253c1.602 0 2.9 1.3 2.9 2.906z" fill="#AD3E2A"/></g></svg>