<svg width="74" height="65" xmlns="http://www.w3.org/2000/svg" xmlns:xlink="http://www.w3.org/1999/xlink"><defs><path d="M31.061 59.13h-16.48a2.1 2.1 0 01-2.1-2.096v-7.712h1.793a1.117 1.117 0 00.798-1.896L8.51 40.742a1.117 1.117 0 00-1.595 0L.353 47.426a1.115 1.115 0 00.798 1.897h1.576v9.168c0 5.725 4.663 10.383 10.395 10.383h17.94c.616 0 1.116-.5 1.116-1.115v-7.513c0-.616-.5-1.115-1.117-1.115z" id="a"/><path d="M59.776 20.32a1.117 1.117 0 00-1.03-.683H57.17v-9.169C57.17 4.743 52.507.085 46.775.085h-17.94c-.616 0-1.116.5-1.116 1.116v7.512c0 .616.5 1.115 1.117 1.115h16.48a2.1 2.1 0 012.1 2.097v7.712h-1.793a1.117 1.117 0 00-.798 1.896l6.562 6.684a1.117 1.117 0 001.595 0l6.562-6.684c.315-.32.406-.799.232-1.213z" id="b"/></defs><g fill="none" fill-rule="evenodd"><path d="M47.247 37.5c-.76-.764-7.274-4.063-7.274-4.063H31.89s-6.515 3.3-7.275 4.063C23.097 39.028 23 44 23 44h25.863s-.096-4.972-1.616-6.5z" fill="#5AA5D8"/><path d="M39.165 32.625h-6.466l-.808.813s1.362 2.437 4.04 2.437c2.679 0 4.042-2.437 4.042-2.437l-.808-.813z" fill="#3A7DAA"/><path d="M38.356 30.188h-4.849l-.808 2.437c0 .449 1.978 1.625 2.425 1.625h1.616c.446 0 2.425-1.176 2.425-1.625l-.809-2.437z" fill="#DBB59A"/><path d="M35.932 18.813c-3.125 0-5.658 1.625-5.658 4.875 0 2.437.808 4.062 1.617 5.687.808 1.625 2.457 3.25 4.04 3.25 1.584 0 3.234-1.625 4.042-3.25.808-1.625 1.616-3.25 1.616-5.688 0-3.25-2.533-4.875-5.657-4.875z" fill="#F6CBAD"/><path d="M35.932 18c-1.894 0-4.041.703-4.041 1.625-1.196 0-1.617 2.689-1.617 4.875 0 .365.032.749.083 1.14.208-1.076.85-2.765 2.342-2.765h3.233c1.238 0 3.233-.608 3.233-1.625 1.049-.014 2.424 1.487 2.424 3.25 0-3.194-.519-6.5-5.657-6.5z" fill="#818389"/><g fill-rule="nonzero"><g transform="rotate(90 34.5 37)"><use fill="#AEB0B5" fill-rule="evenodd" xlink:href="#a"/><path stroke="#F6F7F8" stroke-width="2" d="M1.727 50.323h-.576A2.117 2.117 0 01-.36 46.726l6.562-6.685a2.118 2.118 0 013.021 0l6.562 6.684a2.114 2.114 0 01-1.51 3.597h-.793v6.712a1.1 1.1 0 001.099 1.097h16.48c1.17 0 2.117.947 2.117 2.115v7.513a2.116 2.116 0 01-2.117 2.115H13.122c-6.284 0-11.395-5.105-11.395-11.383v-8.168z"/></g><g transform="rotate(90 34.5 37)"><use fill="#AEB0B5" fill-rule="evenodd" xlink:href="#b"/><path stroke="#F6F7F8" stroke-width="2" d="M46.415 18.637v-6.712a1.1 1.1 0 00-1.099-1.097h-16.48a2.116 2.116 0 01-2.117-2.115V1.2c0-1.17.948-2.116 2.117-2.116h17.939c6.284 0 11.395 5.105 11.395 11.383v8.169h.577c.851 0 1.62.51 1.95 1.295h0a2.113 2.113 0 01-.44 2.301l-6.562 6.685a2.118 2.118 0 01-3.021 0l-6.562-6.684a2.114 2.114 0 011.51-3.597h.793z"/></g></g></g></svg>