<svg width="70" height="61" xmlns="http://www.w3.org/2000/svg"><g fill="none" fill-rule="evenodd"><path d="M65.625 0H4.375C1.959 0 0 1.95 0 4.357v30.5c0 2.406 1.959 4.357 4.375 4.357h61.25c2.416 0 4.375-1.95 4.375-4.357v-30.5C70 1.951 68.041 0 65.625 0z" fill="#6CAD84" fill-rule="nonzero"/><text font-family="ProximaNova-Bold, Proxima Nova" font-size="31.34" font-weight="bold" letter-spacing="1.254" fill="#FFF" transform="translate(0 -1)"><tspan x="9.877" y="29.179">VIP</tspan></text><path d="M69.36 55.102L58.19 43.979l8.127-2.7a2.176 2.176 0 00.233-4.04L33.738 21.99a2.2 2.2 0 00-2.472.433 2.17 2.17 0 00-.435 2.462l15.312 32.68a2.19 2.19 0 001.98 1.257c.044 0 .085-.003.128-.005a2.184 2.184 0 001.949-1.485l2.71-8.093L64.078 60.36c.428.425.987.638 1.547.638.56 0 1.119-.213 1.547-.638l2.187-2.179c.854-.85.854-2.23 0-3.08z" fill="#666"/></g></svg>