<svg width="280" height="153" xmlns="http://www.w3.org/2000/svg"><g fill="none" fill-rule="evenodd"><path d="M278.839 24.982L262.018 8.161a3.965 3.965 0 00-5.607 0l-39.249 39.251a3.964 3.964 0 000 5.607l16.82 16.821a3.967 3.967 0 005.607 0l39.25-39.25a3.967 3.967 0 000-5.608z" fill="#6CAD84"/><path d="M241.983 32.988c-2.906 2.906-2.554 7.968.786 11.306 1.653 1.653 3.729 2.571 5.757 2.727-.361-1.049-.528-2.608-.494-4.036a4.62 4.62 0 01-2.631-1.321c-1.67-1.67-1.846-4.2-.392-5.653 1.452-1.453 3.984-1.277 5.654.392a4.62 4.62 0 011.322 2.632c1.428-.034 2.988.134 4.037.494-.156-2.027-1.074-4.103-2.728-5.755-3.341-3.339-8.404-3.692-11.311-.786zm-5.941 3.687l-9.371 9.371a3.97 3.97 0 011.362 2.984 3.98 3.98 0 01-1.987 3.438l8.547 8.548a3.98 3.98 0 013.438-1.987c1.161 0 2.198.503 2.928 1.293l9.292-9.291c-3.488.165-7.229-1.22-10.114-4.097-2.933-2.925-4.317-6.731-4.095-10.259zm33.975-11.081l-8.549-8.547a3.98 3.98 0 01-3.438 1.987 3.97 3.97 0 01-2.984-1.362l-9.442 9.442c3.546-.231 7.377 1.148 10.32 4.082 2.876 2.868 4.267 6.584 4.111 10.054l9.289-9.289a3.972 3.972 0 01-1.293-2.929c-.002-1.471.802-2.743 1.986-3.438z" fill="#50936E"/><path d="M17.982 46.161L1.161 62.982a3.965 3.965 0 000 5.607l39.251 39.249a3.964 3.964 0 005.607 0l16.821-16.82a3.967 3.967 0 000-5.607l-39.25-39.25a3.967 3.967 0 00-5.608 0z" fill="#6CAD84"/><path d="M25.988 83.017c2.906 2.906 7.968 2.554 11.306-.786 1.653-1.653 2.571-3.729 2.727-5.757-1.049.361-2.608.528-4.036.494a4.62 4.62 0 01-1.321 2.631c-1.67 1.67-4.2 1.846-5.653.392-1.453-1.452-1.277-3.984.392-5.654a4.62 4.62 0 012.632-1.322c-.034-1.428.134-2.988.494-4.037-2.027.156-4.103 1.074-5.755 2.728-3.339 3.341-3.692 8.404-.786 11.311zm3.687 5.941l9.371 9.371a3.97 3.97 0 012.984-1.362 3.98 3.98 0 013.438 1.987l8.548-8.547a3.98 3.98 0 01-1.987-3.438c0-1.161.503-2.198 1.293-2.928l-9.291-9.292c.165 3.488-1.22 7.229-4.097 10.114-2.925 2.933-6.731 4.317-10.259 4.095zM18.594 54.983l-8.547 8.549a3.98 3.98 0 011.987 3.438 3.97 3.97 0 01-1.362 2.984l9.442 9.442c-.231-3.546 1.148-7.377 4.082-10.32 2.868-2.876 6.584-4.267 10.054-4.111l-9.289-9.289a3.972 3.972 0 01-2.929 1.293c-1.471.002-2.743-.802-3.438-1.986z" fill="#50936E"/><path d="M107.28.284L84.302 6.44a3.965 3.965 0 00-2.804 4.855l14.368 53.616a3.964 3.964 0 004.856 2.804l22.977-6.156a3.967 3.967 0 002.804-4.856L112.136 3.088A3.967 3.967 0 00107.28.284z" fill="#6CAD84"/><path d="M95.785 36.205c1.064 3.97 5.623 6.196 10.184 4.972 2.258-.605 4.091-1.944 5.24-3.622-1.089-.212-2.522-.847-3.742-1.59a4.62 4.62 0 01-2.46 1.618c-2.28.611-4.56-.502-5.091-2.487-.532-1.984.886-4.089 3.166-4.7a4.62 4.62 0 012.94.17c.685-1.253 1.61-2.52 2.447-3.249-1.833-.878-4.09-1.121-6.348-.515-4.562 1.224-7.4 5.432-6.336 9.403zm.222 6.988l3.43 12.801a3.97 3.97 0 013.266.313 3.98 3.98 0 011.984 3.44l11.676-3.128a3.98 3.98 0 01-.002-3.971 3.975 3.975 0 012.584-1.89l-3.4-12.692c-1.601 3.103-4.671 5.65-8.605 6.71-4 1.078-7.988.374-10.933-1.583zM103.4 8.23l-11.677 3.13a3.98 3.98 0 01.002 3.97 3.97 3.97 0 01-2.672 1.904l3.456 12.898c1.573-3.186 4.683-5.815 8.696-6.896 3.921-1.057 7.835-.404 10.762 1.466l-3.4-12.689a3.972 3.972 0 01-3.183-.344c-1.275-.734-1.975-2.066-1.984-3.44z" fill="#50936E"/><path d="M81 108.375v37.188A7.438 7.438 0 0088.438 153h104.124a7.438 7.438 0 007.438-7.438v-37.187H81z" fill="#818389"/><path d="M192.563 34H88.438A7.438 7.438 0 0081 41.438v66.939h119v-66.94A7.438 7.438 0 00192.562 34z" fill="#E2E4E8"/><path d="M159.094 48.875h-59.5a3.72 3.72 0 00-3.719 3.72v44.626a3.719 3.719 0 003.719 3.716h59.5a3.719 3.719 0 003.719-3.716V52.596a3.72 3.72 0 00-3.72-3.721z" fill="#5AA6D9"/><path d="M173.969 56.313h7.437a3.72 3.72 0 000-7.438h-7.437a3.72 3.72 0 000 7.438zm7.437 7.437h-7.437a3.719 3.719 0 100 7.438h7.437a3.719 3.719 0 100-7.438zm0 14.877h-7.437a3.719 3.719 0 000 7.436h7.437a3.719 3.719 0 100-7.436zm0 14.875h-7.437a3.719 3.719 0 000 7.436h7.437a3.719 3.719 0 100-7.436z" fill="#818389"/><path d="M99.594 115.813a3.72 3.72 0 00-3.719 3.72v14.875a3.72 3.72 0 003.719 3.719h81.812a3.72 3.72 0 003.719-3.719v-14.875a3.72 3.72 0 00-3.719-3.72H99.594z" fill="#E2E4E8"/><path d="M107.031 123.252a3.719 3.719 0 000 7.436h66.938a3.719 3.719 0 000-7.436H107.03z" fill="#48494F"/><path d="M170.25 123.252h-59.5l-3.719 18.594a3.72 3.72 0 003.719 3.716h59.5a3.72 3.72 0 003.719-3.716l-3.719-18.594z" fill="#6CAD84"/><path d="M163.554 126.97H140.5c4.107 0 7.438 2.498 7.438 5.577 0 3.08-3.33 5.58-7.438 5.58h25.287l-2.233-11.156zm-30.492 5.577c0-3.08 3.33-5.576 7.438-5.576h-23.056l-2.23 11.156H140.5c-4.107 0-7.438-2.5-7.438-5.58z" fill="#50936E"/></g></svg>