<svg width="21" height="18" xmlns="http://www.w3.org/2000/svg"><path d="M6.625 11.974h10.816a.597.597 0 00.576-.435l2.395-8.381a.598.598 0 00-.576-.763H5.243L4.815.469A.599.599 0 004.231 0H.599a.598.598 0 100 1.197H3.75l2.162 9.729a1.797 1.797 0 00-1.083 1.646c0 .99.806 1.796 1.796 1.796h10.816a.598.598 0 100-1.197H6.625a.6.6 0 010-1.197zm-.598 4.19c0 .99.805 1.796 1.796 1.796.99 0 1.796-.805 1.796-1.796 0-.99-.806-1.796-1.796-1.796s-1.796.806-1.796 1.796zm8.421 0c0 .99.806 1.796 1.796 1.796s1.796-.805 1.796-1.796c0-.99-.805-1.796-1.796-1.796-.99 0-1.796.806-1.796 1.796z" fill="#6CAD84"/></svg>