<svg width="216" height="40" xmlns="http://www.w3.org/2000/svg"><path d="M154.972 39.655h1.284l3.146-7.577h-1.284l-2.504 6.212-2.52-6.212h-1.268l3.146 7.577zm9.94 0h1.298v-2.651h1.472v-1.145h-1.472v-6.667h-1.784l-4.476 6.73v1.082h4.961v2.65zm0-9.255v5.459h-3.663l3.662-5.459zm5.07 9.412a.87.87 0 00.861-.863.87.87 0 00-.86-.863.87.87 0 00-.861.863c0 .47.391.863.86.863zm6.59.031c2.849 0 3.991-2.87 3.991-5.412 0-2.556-1.142-5.396-3.99-5.396-2.865 0-3.992 2.84-3.992 5.396 0 2.542 1.127 5.412 3.991 5.412zm0-1.16c-1.988 0-2.66-2.165-2.66-4.252 0-2.086.672-4.235 2.66-4.235s2.661 2.15 2.661 4.235c0 2.087-.673 4.251-2.66 4.251zm10.049.972h1.299v-4.157h2.896c2.066 0 3.271-1.443 3.271-3.153s-1.174-3.153-3.271-3.153h-4.195v10.463zm4.038-5.318h-2.739v-3.984h2.74c1.236 0 2.08.816 2.08 1.992 0 1.177-.844 1.992-2.08 1.992zm11.191 5.318h1.534l-2.817-4.267c1.424-.125 2.708-1.16 2.708-3.043 0-1.93-1.362-3.153-3.272-3.153h-4.194v10.463h1.299v-4.157h2.082l2.66 4.157zm-2.003-5.302h-2.74v-4h2.74c1.236 0 2.082.816 2.082 1.992 0 1.177-.846 2.008-2.082 2.008zm10.236 5.49c3.084 0 5.181-2.321 5.181-5.412 0-3.09-2.097-5.411-5.18-5.411-3.1 0-5.181 2.321-5.181 5.411 0 3.09 2.081 5.412 5.18 5.412zm0-1.16c-2.347 0-3.834-1.82-3.834-4.252 0-2.447 1.487-4.25 3.834-4.25 2.333 0 3.835 1.803 3.835 4.25 0 2.432-1.502 4.251-3.835 4.251zM.5 21.96h4.446v-7.497h5.322c4.508 0 7.012-3.043 7.012-6.683 0-3.67-2.473-6.745-7.012-6.745H.5v20.926zm9.173-11.325H4.946V4.863h4.727c1.753 0 3.068 1.16 3.068 2.886 0 1.757-1.315 2.886-3.068 2.886zm17.374 11.702c2.348 0 4.696-.69 6.23-2.102l-1.754-2.572c-.97.94-2.63 1.506-4.038 1.506-2.567 0-4.1-1.6-4.351-3.514h11.238v-.879c0-4.956-3.068-8.345-7.575-8.345-4.602 0-7.827 3.545-7.827 7.938 0 4.862 3.475 7.968 8.077 7.968zm3.475-9.38h-7.45c.187-1.506 1.251-3.357 3.725-3.357 2.63 0 3.63 1.914 3.725 3.357zM47.05 21.96h4.978l-6.167-8.283 5.979-6.87h-4.883l-5.73 6.745V1.035h-3.975v20.926h3.976v-3.89l1.815-1.946 4.007 5.836zm16.028 0h3.976v-9.788c0-4.361-3.162-5.742-6.605-5.742-2.38 0-4.759.753-6.606 2.385l1.503 2.666c1.284-1.192 2.786-1.788 4.414-1.788 2.003 0 3.318 1.004 3.318 2.541v2.102c-1.001-1.223-2.786-1.85-4.79-1.85-2.41 0-5.258 1.286-5.258 4.83 0 3.389 2.848 5.02 5.259 5.02 1.972 0 3.756-.721 4.79-1.945v1.569zm0-3.64c-.657.879-1.91 1.318-3.193 1.318-1.565 0-2.848-.815-2.848-2.227 0-1.443 1.283-2.29 2.848-2.29 1.284 0 2.536.439 3.193 1.317v1.883zm7.92 3.64h3.976V11.953c.657-.973 2.41-1.694 3.725-1.694.438 0 .814.031 1.096.094v-3.89c-1.878 0-3.757 1.066-4.821 2.415v-2.07h-3.976V21.96zm9.924-2.95c1.972 1.977 4.852 3.326 8.859 3.326 5.635 0 8.358-2.886 8.358-6.713 0-4.644-4.382-5.679-7.826-6.463-2.41-.565-4.163-1.004-4.163-2.416 0-1.255 1.064-2.133 3.067-2.133 2.035 0 4.29.721 5.98 2.29l2.473-3.263C95.603 1.725 92.849.722 89.53.722c-4.914 0-7.92 2.823-7.92 6.305 0 4.675 4.383 5.616 7.795 6.4 2.41.565 4.226 1.098 4.226 2.667 0 1.192-1.19 2.353-3.631 2.353a9.145 9.145 0 01-6.637-2.823l-2.441 3.388zm28.518 2.354l-.845-3.012c-.22.22-.783.44-1.378.44-.876 0-1.377-.722-1.377-1.664V10.29h3.068V6.808h-3.068V2.667h-4.007v4.14h-2.504v3.483h2.504v7.906c0 2.698 1.503 4.141 4.289 4.141 1.659 0 2.723-.439 3.318-.972zm11.27.596h3.975v-9.788c0-4.361-3.162-5.742-6.605-5.742-2.38 0-4.758.753-6.605 2.385l1.502 2.666c1.284-1.192 2.786-1.788 4.414-1.788 2.004 0 3.319 1.004 3.319 2.541v2.102c-1.002-1.223-2.787-1.85-4.79-1.85-2.41 0-5.26 1.286-5.26 4.83 0 3.389 2.85 5.02 5.26 5.02 1.972 0 3.757-.721 4.79-1.945v1.569zm0-3.64c-.658.879-1.91 1.318-3.193 1.318-1.566 0-2.85-.815-2.85-2.227 0-1.443 1.284-2.29 2.85-2.29 1.283 0 2.535.439 3.193 1.317v1.883zm6.605 1.663c1.596 1.475 4.132 2.353 6.762 2.353 4.194 0 6.542-2.07 6.542-4.862 0-3.765-3.475-4.455-6.073-4.957-1.69-.345-2.88-.69-2.88-1.632 0-.878.94-1.411 2.38-1.411 1.846 0 3.568.784 4.476 1.756l1.565-2.729c-1.471-1.192-3.506-2.07-6.073-2.07-3.976 0-6.198 2.227-6.198 4.768 0 3.608 3.35 4.235 5.947 4.737 1.722.345 3.037.722 3.037 1.788 0 .942-.814 1.538-2.536 1.538-1.878 0-4.132-1.036-5.227-2.07l-1.722 2.791zm39.036 1.977h3.663V1.035h-3.663V9.6H155.49V1.035h-3.663v20.926h3.663v-9.13h10.862v9.13zm8.108-8.251c0 5.145 2.974 8.627 9.047 8.627 6.042 0 9.016-3.45 9.016-8.659V1.035h-3.694v12.55c0 3.325-1.847 5.49-5.322 5.49-3.506 0-5.353-2.165-5.353-5.49V1.034h-3.694V13.71zm22.508 8.25h7.763c6.512 0 10.926-4.297 10.926-10.446 0-6.15-4.414-10.479-10.926-10.479h-7.763V21.96zm3.663-3.23V4.266h4.1c4.665 0 7.17 3.2 7.17 7.247 0 3.953-2.63 7.215-7.17 7.215h-4.1z" fill="#FFF" fill-rule="evenodd"/></svg>