<svg width="24" height="24" xmlns="http://www.w3.org/2000/svg"><g fill="none"><path d="M20.084 3.904A11.783 11.783 0 0014.918.87C10.051 2.216 6.316 6.792 6.316 12c0 3.107 1.33 5.99 3.436 8.096a11.783 11.783 0 005.166 3.035C19.785 21.784 23.52 17.208 23.52 12c0-3.107-1.33-5.99-3.436-8.096z" fill="#EAD5D1"/><path d="M23.52 12h-2.954c0-2.326-.981-4.47-2.544-6.034l2.062-2.062C22.19 6.01 23.52 8.894 23.52 12zm-5.498 6.034l2.062 2.062c-2.106 2.106-4.989 3.435-8.096 3.435v-2.953c2.326 0 4.471-.982 6.034-2.544z" fill="#E65A40"/><path fill="#FFF" d="M11.988 8.237L15.408 12l-3.42 3.763L8.568 12z"/><path d="M10.82 12l2.294 2.524L15.409 12l-2.295-2.524zm1.168-8.578V1.86C9.348 2.1 6.92 3.289 5.06 5.07l.895.895c1.562-1.562 3.707-2.544 6.033-2.544zM2.137 12c.08 2.652 1.124 5.124 2.784 7.068l1.034-1.034C4.392 16.47 3.41 14.326 3.41 12H2.137z" fill="#E65A40"/><path d="M7.313 7.781a.469.469 0 100-.938.469.469 0 000 .938z" fill="#28282C"/><path d="M12 19.031A7.04 7.04 0 0019.031 12 7.04 7.04 0 0012 4.969a7.03 7.03 0 00-3.374.863.469.469 0 10.451.822A6.09 6.09 0 0112 5.906 6.1 6.1 0 0118.094 12 6.1 6.1 0 0112 18.094 6.1 6.1 0 015.906 12a6.09 6.09 0 01.748-2.923.469.469 0 10-.822-.45A7.03 7.03 0 004.969 12 7.04 7.04 0 0012 19.031z" fill="#28282C"/><path d="M12 24c6.46 0 12-5.514 12-12 0-6.459-5.513-12-12-12C5.54 0 0 5.514 0 12c0 6.459 5.513 12 12 12zM2.966 12.469c.109 2.051.929 3.995 2.346 5.557l-1.4 1.4c-1.785-1.938-2.846-4.428-2.963-6.957h2.017zM12 3.89c4.39 0 8.11 3.712 8.11 8.109 0 4.39-3.713 8.11-8.11 8.11-4.39 0-8.11-3.713-8.11-8.11 0-4.39 3.713-8.11 8.11-8.11zM4.575 20.089l1.4-1.4c1.561 1.416 3.505 2.236 5.556 2.345v2.017c-2.529-.117-5.02-1.178-6.956-2.962zm7.894 2.962v-2.017c2.051-.109 3.995-.929 5.557-2.346l1.4 1.4c-1.938 1.785-4.428 2.846-6.957 2.963zm7.62-3.626l-1.4-1.4c1.416-1.561 2.236-3.51 2.345-5.561h2.017c-.117 2.53-1.178 5.024-2.962 6.961zm2.962-7.894h-2.017c-.109-2.051-.929-3.995-2.346-5.557l1.4-1.4c1.785 1.938 2.846 4.428 2.963 6.957zm-3.626-7.62l-1.4 1.4c-1.561-1.416-3.505-2.236-5.556-2.345V.949c2.529.117 5.02 1.178 6.956 2.962zM11.531.95v2.017c-2.051.109-3.995.929-5.557 2.346l-1.4-1.4C6.513 2.126 9.003 1.065 11.532.948zm-7.62 3.626l1.4 1.4C3.896 7.535 3.076 9.48 2.967 11.53H.949c.117-2.529 1.178-5.02 2.962-6.956z" fill="#28282C"/><path d="M11.653 16.078a.468.468 0 00.694 0l3.42-3.763a.469.469 0 000-.63l-3.42-3.763a.468.468 0 00-.694 0l-3.42 3.763a.469.469 0 000 .63l3.42 3.763zM12 8.934L14.787 12 12 15.066 9.213 12 12 8.934z" fill="#28282C"/></g></svg>