<svg width="27" height="30" xmlns="http://www.w3.org/2000/svg"><g fill="none" fill-rule="evenodd"><path d="M21.63 28.963l-7.556-.074v-1.482l7.556.074c.74 0 1.333-.592 1.333-1.333v-2.444h1.481v2.444a2.814 2.814 0 01-2.814 2.815z" fill="#D5D6DD" fill-rule="nonzero"/><path d="M13.333 0C6 0 0 6 0 13.333v8.148h2.963v-8.148c0-5.703 4.667-10.37 10.37-10.37 5.704 0 10.37 4.667 10.37 10.37v8.148h2.964v-8.148C26.667 6 20.667 0 13.333 0" fill="#6CAD84"/><path d="M23.704 25.185H20.74v-8.889h2.963a2.972 2.972 0 012.963 2.963v2.963a2.972 2.972 0 01-2.963 2.963m-20.741 0h2.963v-8.889H2.963A2.972 2.972 0 000 19.26v2.963a2.972 2.972 0 002.963 2.963m13.333 2.963c0-.815-.666-1.481-1.481-1.481h-2.222c-.815 0-1.482.666-1.482 1.481 0 .815.667 1.482 1.482 1.482h2.222c.815 0 1.481-.667 1.481-1.482z" fill="#48494F" fill-rule="nonzero"/></g></svg>