<svg width="18" height="18" xmlns="http://www.w3.org/2000/svg"><defs><linearGradient x1="50.002%" y1="11.662%" x2="50.002%" y2="127.191%" id="a"><stop stop-color="#FFCF95" offset="0%"/><stop stop-color="#FFC954" offset="42.7%"/><stop stop-color="#FFC200" offset="100%"/></linearGradient><linearGradient x1="153.311%" y1="49.995%" x2="-43.986%" y2="49.995%" id="b"><stop stop-color="#FFC200" stop-opacity="0" offset="0%"/><stop stop-color="#FB0" stop-opacity=".203" offset="20.3%"/><stop stop-color="#FFA700" stop-opacity=".499" offset="49.9%"/><stop stop-color="#F80" stop-opacity=".852" offset="85.2%"/><stop stop-color="#FF7800" offset="100%"/></linearGradient><linearGradient x1="63.236%" y1="80.411%" x2="45.568%" y2="32.707%" id="c"><stop stop-color="#FFC200" stop-opacity="0" offset="0%"/><stop stop-color="#FB0" stop-opacity=".203" offset="20.3%"/><stop stop-color="#FFA700" stop-opacity=".499" offset="49.9%"/><stop stop-color="#F80" stop-opacity=".852" offset="85.2%"/><stop stop-color="#FF7800" offset="100%"/></linearGradient><linearGradient x1="12.707%" y1="108.544%" x2="61.195%" y2="31.264%" id="d"><stop stop-color="#FFC200" stop-opacity="0" offset="0%"/><stop stop-color="#FB0" stop-opacity=".203" offset="20.3%"/><stop stop-color="#FFA700" stop-opacity=".499" offset="49.9%"/><stop stop-color="#F80" stop-opacity=".852" offset="85.2%"/><stop stop-color="#FF7800" offset="100%"/></linearGradient><linearGradient x1="19.882%" y1="11.012%" x2="58.963%" y2="59.537%" id="e"><stop stop-color="#FFC200" stop-opacity="0" offset="0%"/><stop stop-color="#FB0" stop-opacity=".203" offset="20.3%"/><stop stop-color="#FFA700" stop-opacity=".499" offset="49.9%"/><stop stop-color="#F80" stop-opacity=".852" offset="85.2%"/><stop stop-color="#FF7800" offset="100%"/></linearGradient><linearGradient x1="66.331%" y1="31.325%" x2="45.586%" y2="59.385%" id="f"><stop stop-color="#FFC200" stop-opacity="0" offset="0%"/><stop stop-color="#FB0" stop-opacity=".203" offset="20.3%"/><stop stop-color="#FFA700" stop-opacity=".499" offset="49.9%"/><stop stop-color="#F80" stop-opacity=".852" offset="85.2%"/><stop stop-color="#FF7800" offset="100%"/></linearGradient><linearGradient x1="144.256%" y1="22.271%" x2="-7.585%" y2="57.729%" id="g"><stop stop-color="#FFC200" stop-opacity="0" offset="0%"/><stop stop-color="#FB0" stop-opacity=".203" offset="20.3%"/><stop stop-color="#FFA700" stop-opacity=".499" offset="49.9%"/><stop stop-color="#F80" stop-opacity=".852" offset="85.2%"/><stop stop-color="#FF7800" offset="100%"/></linearGradient></defs><g fill="none"><path d="M9.644.449l2.376 5.04 5.313.809c.605.092.846.87.409 1.316l-3.845 3.924.907 5.54c.104.63-.528 1.111-1.07.813l-4.752-2.615L4.23 17.89c-.54.298-1.173-.183-1.07-.813l.908-5.54L.223 7.614C-.214 7.167.027 6.39.632 6.298l5.313-.809L8.321.45a.723.723 0 011.323 0z" fill="url(#a)"/><path d="M12.02 5.49L9.644.448a.726.726 0 00-.662-.43v9.543l3.038-4.073z" fill="url(#b)"/><path d="M13.897 11.538l3.845-3.924a.787.787 0 00.189-.78L8.982 9.561l4.915 1.976z" fill="url(#c)"/><path d="M14.513 17.83l-5.53-8.268v5.714l4.752 2.615a.7.7 0 00.778-.06z" fill="url(#d)"/><path d="M8.982 9.562l-4.914 1.976-.907 5.54a.78.78 0 00.29.753l5.531-8.27z" fill="url(#e)"/><path d="M.034 6.833l8.948 2.729-3.037-4.073-5.313.809a.74.74 0 00-.598.535z" fill="url(#f)"/><path d="M4.068 11.538L.223 7.614a.787.787 0 01-.189-.78l8.948 2.728-4.914 1.976z" fill="url(#g)"/></g></svg>