<svg width="94" height="88" xmlns="http://www.w3.org/2000/svg"><g fill="none" fill-rule="evenodd"><path d="M88.125 0h-70.5a5.871 5.871 0 00-5.875 5.867h70.5a5.871 5.871 0 015.875 5.866v52.8A5.871 5.871 0 0094 58.667v-52.8C94 2.627 91.37 0 88.125 0z" fill="#FF6C50"/><path d="M76.375 11.733h-70.5A5.871 5.871 0 000 17.6V88l11.75-11.733h64.625A5.871 5.871 0 0082.25 70.4V17.6c0-3.24-2.63-5.867-5.875-5.867z" fill="#AFB0B5"/><path d="M73.438 17.6H8.811a2.936 2.936 0 00-2.937 2.932v55.735L11.75 70.4h61.688a2.936 2.936 0 002.937-2.933V20.532a2.936 2.936 0 00-2.938-2.932z" fill="#FFF"/><path d="M23.5 38.133A5.87 5.87 0 0017.625 44a5.871 5.871 0 005.875 5.868A5.871 5.871 0 0029.375 44a5.87 5.87 0 00-5.875-5.866zm17.625 0A5.87 5.87 0 0035.25 44a5.871 5.871 0 005.875 5.868A5.871 5.871 0 0047 43.999a5.87 5.87 0 00-5.875-5.866zm17.625 0A5.87 5.87 0 0052.875 44a5.871 5.871 0 005.875 5.868A5.871 5.871 0 0064.625 44a5.87 5.87 0 00-5.875-5.866z" fill="#AFB0B5"/></g></svg>