<svg xmlns="http://www.w3.org/2000/svg" width="20" height="20"><path d="M10.195 9.187c-.926-.222-1.032-.31-1.032-.859a.866.866 0 011.506-.5.837.837 0 001.338-1 2.5 2.5 0 00-1.171-.841v-1a.837.837 0 10-1.673 0v.991A2.506 2.506 0 007.49 8.327c0 1.931 1.449 2.279 2.315 2.487.926.222 1.032.31 1.032.86a.837.837 0 01-.837.837.828.828 0 01-.669-.335.837.837 0 00-1.338 1 2.5 2.5 0 001.171.841v1a.837.837 0 101.673 0v-.991a2.506 2.506 0 001.673-2.356c0-1.926-1.449-2.275-2.315-2.483z" fill="#6cad84"/><path d="M20 10.039A9.976 9.976 0 0011.339.161.577.577 0 0010.7.6l-.581 2.3a.586.586 0 00.516.726A6.438 6.438 0 0113.618 15.4l-.767-1.022a.586.586 0 00-1.037.209l-1.172 4.687a.586.586 0 00.568.728h4.69a.586.586 0 00.469-.937l-.633-.845A9.887 9.887 0 0020 10.039zM9.365 16.37A6.438 6.438 0 016.382 4.6l.767 1.022a.586.586 0 001.037-.209L9.357.728A.586.586 0 008.789 0H4.1a.586.586 0 00-.469.937l.633.845a9.967 9.967 0 004.397 18.057.585.585 0 00.639-.439l.581-2.3a.586.586 0 00-.516-.73z" fill="#6cad84"/></svg>