<svg width="34" height="32" xmlns="http://www.w3.org/2000/svg"><g fill="none" fill-rule="evenodd"><path d="M11.59 23.351H9.513v-3.46h3.459l.346 1.298c.26 1.125-.605 2.162-1.73 2.162zm16.95 2.595s-10.205-6.054-15.567-6.054V7.784c5.016 0 15.568-6.054 15.568-6.054v24.216z" fill="#E2E4E8"/><path d="M4.324 9.514a4.324 4.324 0 100 8.648 4.324 4.324 0 000-8.648zm26.811 1.73h-2.594v5.188h2.594c1.47 0 2.595-1.124 2.595-2.594 0-1.47-1.125-2.595-2.595-2.595z" fill="#9B9CA1"/><path d="M12.627 30.443c-.778.52-2.162 1.038-3.978 1.211-.52.087-1.038-.26-1.211-.865L3.632 18.941s7.611-5.363 7.611.95c0 4.758 1.298 7.266 1.903 8.217a1.687 1.687 0 010 1.99 1.81 1.81 0 01-.519.345z" fill="#9B9CA1"/><path d="M4.324 19.892h8.649V7.784H4.324c-.951 0-1.73.778-1.73 1.73v8.648c0 .952.779 1.73 1.73 1.73zm25.081 7.784c-.95 0-1.73-.779-1.73-1.73V1.73c0-.952.78-1.73 1.73-1.73.952 0 1.73.778 1.73 1.73v24.216c0 .951-.778 1.73-1.73 1.73z" fill="#5AA5D8"/></g></svg>