<svg width="86" height="80" xmlns="http://www.w3.org/2000/svg"><defs><filter x="-50%" y="-50%" width="200%" height="200%" filterUnits="objectBoundingBox" id="a"><feOffset in="SourceAlpha" result="shadowOffsetOuter1"/><feGaussianBlur stdDeviation="1.5" in="shadowOffsetOuter1" result="shadowBlurOuter1"/><feColorMatrix values="0 0 0 0 0 0 0 0 0 0 0 0 0 0 0 0 0 0 0.1 0" in="shadowBlurOuter1" result="shadowMatrixOuter1"/><feMerge><feMergeNode in="shadowMatrixOuter1"/><feMergeNode in="SourceGraphic"/></feMerge></filter><filter x="-50%" y="-50%" width="200%" height="200%" filterUnits="objectBoundingBox" id="b"><feOffset in="SourceAlpha" result="shadowOffsetOuter1"/><feGaussianBlur stdDeviation="1.5" in="shadowOffsetOuter1" result="shadowBlurOuter1"/><feColorMatrix values="0 0 0 0 0 0 0 0 0 0 0 0 0 0 0 0 0 0 0.1 0" in="shadowBlurOuter1" result="shadowMatrixOuter1"/><feMerge><feMergeNode in="shadowMatrixOuter1"/><feMergeNode in="SourceGraphic"/></feMerge></filter><filter x="-50%" y="-50%" width="200%" height="200%" filterUnits="objectBoundingBox" id="c"><feOffset in="SourceAlpha" result="shadowOffsetOuter1"/><feGaussianBlur stdDeviation="1.5" in="shadowOffsetOuter1" result="shadowBlurOuter1"/><feColorMatrix values="0 0 0 0 0 0 0 0 0 0 0 0 0 0 0 0 0 0 0.1 0" in="shadowBlurOuter1" result="shadowMatrixOuter1"/><feMerge><feMergeNode in="shadowMatrixOuter1"/><feMergeNode in="SourceGraphic"/></feMerge></filter><filter x="-50%" y="-50%" width="200%" height="200%" filterUnits="objectBoundingBox" id="d"><feOffset in="SourceAlpha" result="shadowOffsetOuter1"/><feGaussianBlur stdDeviation="1.5" in="shadowOffsetOuter1" result="shadowBlurOuter1"/><feColorMatrix values="0 0 0 0 0 0 0 0 0 0 0 0 0 0 0 0 0 0 0.1 0" in="shadowBlurOuter1" result="shadowMatrixOuter1"/><feMerge><feMergeNode in="shadowMatrixOuter1"/><feMergeNode in="SourceGraphic"/></feMerge></filter></defs><g fill="none" fill-rule="evenodd"><g filter="url(#a)" transform="translate(3 3)"><path d="M34.028.658L18.149 9.386 2.271 18.113c-1.755.965-2.39 2.94-1.418 4.41l31.298 47.335c.972 1.47 3.183 1.88 4.938.916l15.88-8.727 15.877-8.728c1.756-.964 2.39-2.94 1.418-4.41L38.967 1.574c-.972-1.47-3.183-1.88-4.939-.916" fill="#FFF"/><path d="M4.647 20.914l-.57-.653.363.766.207-.113zm.918.243l.408.616-.613.336-.407-.615.13-.073-.245-.29-.274.15.166.334.143-.078.407.617-.51.28-.408-.616.117-.064-.865-1.826.467-.256 1.375 1.544.109-.06zm1.553 1.655c-.403-.227-.946-.325-1.331-.335a.36.36 0 00-.156.02.314.314 0 00-.092.116c-.17.316-.329.799-.296 1.23.04.531.578.937 1.123.66a.68.68 0 00.201-.16c.11.155.219.373.21.617 0 .097.012.112.071.08l.34-.188.009-.004.347-.191c.061-.034.05-.05-.042-.095a1.152 1.152 0 01-.497-.451.758.758 0 00.228-.085c.524-.31.38-.932-.115-1.214" fill="#111"/></g><g filter="url(#b)" transform="translate(13.959 4.657)"><path d="M38.064.703L20.578 6.324 3.093 11.945C1.159 12.566.1 14.385.727 16.003l20.157 52.125c.627 1.619 2.702 2.428 4.635 1.807l17.485-5.62 17.485-5.622c1.933-.621 2.993-2.439 2.366-4.057L42.697 2.51C42.072.892 39.997.082 38.064.703" fill="#FFF"/><path d="M5.12 15.103l-.414-.745.185.818.228-.073zm.844.407l.262.679-.674.216-.263-.678.146-.047-.177-.33-.301.097.088.358.157-.05.262.679-.562.18-.263-.678.129-.041-.441-1.948.513-.165 1.003 1.767.121-.04zm.399 1.373c-.26.076-.44.28-.46.394-.094-.076-.374-.133-.63-.043-.664.236-.662.963-.179 1.38.393.341.975.565 1.404.657.084.017.139.02.18.012a.403.403 0 00.133-.113c.27-.317.57-.824.642-1.313.09-.602-.41-1.17-1.09-.974" fill="#F05C42"/></g><g filter="url(#c)" transform="translate(25.466 8.522)"><path d="M40.169.43L21.845 3.01 3.523 5.588C1.497 5.873.088 7.481.375 9.178L9.622 63.8c.287 1.697 2.162 2.842 4.188 2.557l18.324-2.579L50.457 61.2c2.026-.285 3.435-1.892 3.147-3.589L44.357 2.987C44.071 1.291 42.194.146 40.17.431" fill="#FFF"/><path d="M4.555 9.001L4.299 8.2l.016.835.24-.034zm.748.543l.12.711-.707.1-.12-.712.151-.02-.106-.354-.316.044.014.367.165-.023.12.71-.59.083-.12-.71.135-.02-.04-1.988.539-.075.628 1.905.127-.018zm.235 1.955a.573.573 0 00.002-.199c-.056-.332-.398-.56-.762-.509l-.01.001c-.358.056-.603.364-.547.695a.53.53 0 00.067.187c-.326.08-.54.37-.487.682.056.332.397.56.76.509a.705.705 0 00.274-.098c.047.197.069.477-.06.734-.04.097-.037.117.038.105.155-.02.298-.041.422-.059l.01-.001.432-.06c.075-.011.072-.03 0-.112-.207-.21-.278-.482-.3-.684a.718.718 0 00.293.019c.365-.051.614-.363.558-.694-.052-.311-.353-.53-.69-.516" fill="#111"/></g><g filter="url(#d)" transform="translate(35.329 14.045)"><path d="M43.646 1.396L25.118.77 6.59.145C4.543.075 2.825 1.412 2.756 3.127L.513 58.36c-.07 1.715 1.534 3.162 3.581 3.232l18.529.625 18.527.626c2.049.07 3.766-1.266 3.835-2.982l2.244-55.233c.07-1.715-1.534-3.163-3.583-3.232" fill="#FFF"/><path d="M36.627 32.113L25.172 18.839a1.168 1.168 0 00-.853-.397 1.194 1.194 0 00-.886.339l-12.5 12.465a.971.971 0 00-.053 1.345l11.453 13.274a1.179 1.179 0 00.97.394c.293-.017.57-.137.77-.335l12.499-12.465a.973.973 0 00.055-1.346" fill="#E65A40"/><path d="M6.897 3.675l-.085-.832-.157.823.242.009zm.621.661l-.029.72-.715-.025.03-.72.153.006-.03-.365-.32-.011-.063.362.167.006-.03.72-.595-.021.03-.72.135.005.374-1.959.544.02.222 1.978.127.004zm.474 2.504L6.854 5.52a.119.119 0 00-.073-.037l-.012-.001a.119.119 0 00-.088.034L5.44 6.754a.097.097 0 00-.005.134l1.138 1.319a.12.12 0 00.085.04h.011a.121.121 0 00.077-.034l1.242-1.24a.097.097 0 00.005-.132M41.32 56.609l-.085-.83-.156.821.242.009zm.623.662l-.03.719-.714-.025.03-.719.153.006-.031-.366-.32-.012-.062.364.167.005-.03.72-.596-.02.029-.72.136.005.374-1.96.544.02.223 1.978.127.005zm.474 2.503l-1.138-1.318a.113.113 0 00-.074-.039h-.012a.113.113 0 00-.087.033l-1.243 1.238a.096.096 0 00-.005.134l1.139 1.32c.02.023.051.037.084.038h.011a.116.116 0 00.078-.034l1.241-1.237a.097.097 0 00.006-.135" fill="#F05C42"/></g></g></svg>