<svg width="379" height="312" xmlns="http://www.w3.org/2000/svg" xmlns:xlink="http://www.w3.org/1999/xlink"><defs><path id="b" d="M.09 46.275h30.36V.019H.09v46.256z"/><path id="d" d="M17.883.264H.365v28.04h17.518V.263z"/><path id="f" d="M9.107.264H.199v28.04h8.908V.263z"/><path id="h" d="M18.187 13V.605H.367V13h17.82z"/><path id="j" d="M18.187 7.132V.605H.367v6.527h17.82z"/><path id="l" d="M.204 7.225h9.384V.045H.204z"/><path id="n" d="M6.077 24.163V.343H.202v23.82h5.875z"/><filter x="-50%" y="-50%" width="200%" height="200%" filterUnits="objectBoundingBox" id="a"><feOffset in="SourceAlpha" result="shadowOffsetOuter1"/><feGaussianBlur stdDeviation=".5" in="shadowOffsetOuter1" result="shadowBlurOuter1"/><feColorMatrix values="0 0 0 0 0 0 0 0 0 0 0 0 0 0 0 0 0 0 0.254896966 0" in="shadowBlurOuter1" result="shadowMatrixOuter1"/><feMerge><feMergeNode in="shadowMatrixOuter1"/><feMergeNode in="SourceGraphic"/></feMerge></filter></defs><g fill="none" fill-rule="evenodd"><path d="M187.973 22.064c-7.688-1.448-22.485-7.317-27.988-5.366-6.452 2.285-51.214 18.54-51.214 18.54l1.448 4.744s44.217-20.222 50.598-20.757c7.514-.63 10.634 2.679 24.766 6.405 2.565.676 3.175-1.254 3.382-1.755.207-.5-.06-1.636-.992-1.811" fill="#262626"/><path d="M127.15 30.748c-5.212 2.635-11.177 17.386-15.434 23.945-.517.795.12 1.772.626 1.968.505.196 2.324 1.087 3.606-1.235 7.056-12.792 6.814-17.333 12.456-22.332 4.792-4.246 49.952-22.268 49.952-22.268l-2.436-4.322s-42.664 21.156-48.77 24.244" fill="#484848"/><path d="M119.763 28.81c-10.21 4.368-12.966 6.519-9.531 12.763 4.576 8.322 9.059 16.715 21.713 11.216 14.175-6.158 9.998-22.17 9.23-24.426-1.58-4.644-13.248-3.046-21.412.447m43.824-18.876c-8.234 3.523-17.588 10.95-15.297 15.337 1.112 2.13 9.88 16.291 24.245 10.238 12.824-5.403 9.897-14.51 7.007-23.642-2.17-6.852-5.658-6.34-15.955-1.933" fill="#8A8A8A" opacity=".1"/><path d="M125.923 26.72l.913 27.637c.738-.12 1.511-.301 2.321-.544l-.912-27.633c-.77.156-1.547.338-2.322.54m3.872-.824l.906 27.398c.405-.154.82-.32 1.244-.505 1.772-.77 3.258-1.694 4.5-2.726l-.812-24.534c-1.735-.113-3.739.027-5.838.367M165.673 9.06l.922 27.899a16.647 16.647 0 002.33-.319c-.282-8.494-.642-19.427-.942-28.485a76.04 76.04 0 00-2.31.905m3.852-1.448l.946 28.63a20.169 20.169 0 002.064-.733 23.683 23.683 0 003.698-1.932l-.884-26.784c-1.464-.318-3.346 0-5.824.82" fill="#FFF" opacity=".1"/><path d="M120.557 30.073a105.93 105.93 0 00-3.547 1.584c9.144-3.046 17.624-4.346 20.175-2.706 1.752 1.125 4.055 5.477 3.027 12.321 1.328-5.288-.025-10.552-.451-11.807-1.344-3.948-11.748-2.583-19.204.608m43.396-18.57c-7.455 3.19-15.656 9.785-13.725 13.483.664 1.27 3.956 6.56 9.404 9.084-6.492-4.113-8.26-9.207-7.842-11.368.574-2.974 7.347-8.196 15.845-12.703-1.107.424-2.32.921-3.682 1.505M110.881 36.72c-.293 1.252.082 2.703 1.122 4.594 4.168 7.581 8.154 15 19.443 10.095l.062-.03c-7.143-.675-16.485-7.244-20.627-14.659m64.626-27.59c2.476 8.083.801 19.29-3.598 24.927 11.226-4.784 8.69-12.758 6.087-20.981-.64-2.019-1.413-3.283-2.489-3.947" fill="#FFF" opacity=".1"/><path d="M178.611 12.812c2.612 8.251 5.405 16.867-6.539 21.9-13.312 5.609-21.432-7.499-22.457-9.463-2.26-4.327 6.831-11.27 14.072-14.368 8.915-3.816 12.799-4.783 14.924 1.931m-38.223 16.449c.714 2.097 4.544 17.04-8.703 22.796-11.888 5.165-16.114-2.902-20.284-10.486-3.394-6.172.084-8.353 9-12.168 7.24-3.098 18.414-4.763 19.987-.142m23.426-21.145c-8.477 3.626-15.13 10.124-21.432 12.821-7.132 3.05-14.338 2.571-24.225 6.803-7.767 3.323-14.44 9.789-14.44 9.789s1.268 3.12 1.854 4.484c3.534-.036 8.8 8.463 10.185 9.761 1.386 1.297 6.071 6.571 16.444 2.133 14.73-6.303 10.677-21.43 10.516-23.206-.16-1.776.334-2.507 2.282-3.34 1.95-.833 2.595-1.037 3.913.622 5.128 6.457 12.244 13.34 23.892 8.589 8.114-3.41 10.087-8.617 10.131-11.866.084-6.032-2.567-11.247-.095-15.81-.5-1.17-1.807-4.406-1.807-4.406s-10.547.77-17.218 3.626" fill="#282828"/><path d="M178.922 12.68c1.64 5.18 3.373 10.718 1.411 15.343-1.162 2.739-3.68 5.133-8.126 7.007-13.583 5.723-21.82-7.598-22.874-9.615-2.377-4.55 6.435-11.506 14.224-14.838 4.27-1.827 7.255-2.925 9.535-3.005 2.977-.106 4.684 1.49 5.83 5.108m-38.207 16.422c.733 2.154 4.69 17.307-8.829 23.181-4.423 1.922-7.895 2.09-10.681 1.04-4.701-1.773-7.514-6.849-10.133-11.611-1.83-3.325-1.805-5.662.328-7.743 1.63-1.592 4.485-2.993 8.756-4.821 7.787-3.332 18.905-4.905 20.56-.046M163.947 8.43c-8.477 3.627-15.13 10.123-21.432 12.819-7.133 3.052-14.338 2.572-24.225 6.803-7.768 3.323-14.178 9.56-14.178 9.56s1.104 2.714 1.688 4.078c3.52.114 8.826 8.577 10.211 9.875 1.324 1.24 5.859 6.396 16.055 2.033 14.73-6.303 10.486-21.039 10.325-22.815-.17-1.88.248-2.782 2.475-3.728 2.232-.946 2.92-.965 4.265.679 4.351 5.324 11.28 13.524 23.535 8.524 7.677-3.225 9.884-8.079 9.931-11.511.084-6.032-2.535-11.246-.122-15.874-.5-1.17-1.667-4.026-1.667-4.026s-10.19.728-16.86 3.583" fill="#323232"/><path d="M294.262 142.357H140.505a6.106 6.106 0 00-6.104 6.108v102.309a6.106 6.106 0 006.104 6.107h153.757a6.106 6.106 0 006.103-6.107v-102.31a6.106 6.106 0 00-6.103-6.107" fill="#E5E5E5"/><path d="M299.412 250.812a5.114 5.114 0 01-5.113 5.116H140.467a5.114 5.114 0 01-5.113-5.116V148.427a5.114 5.114 0 015.113-5.116h153.832a5.114 5.114 0 015.113 5.116v102.385zm-5.15-108.455H140.505a6.106 6.106 0 00-6.105 6.108v102.309a6.106 6.106 0 006.105 6.107h153.757a6.106 6.106 0 006.104-6.107V148.465a6.106 6.106 0 00-6.104-6.108z" fill="#C9C9C9"/><path fill="#5E5E5E" d="M149.662 148.083h134.49v-5.725h-134.49z"/><path fill="#444" d="M150.615 147.13h132.581v-6.3H150.615z"/><path d="M203.095 256.881h28.577a3.044 3.044 0 00-3.033-2.862h-22.512a3.043 3.043 0 00-3.032 2.862m36.989-38.174H194.68a3.053 3.053 0 00-3.051 3.054v24.432a3.054 3.054 0 003.051 3.054h45.403a3.054 3.054 0 003.052-3.054V221.76a3.053 3.053 0 00-3.052-3.054" fill="#C9C9C9"/><g filter="url(#a)" transform="translate(346.907 179)"><g transform="translate(.5 .43)"><mask id="c" fill="#fff"><use xlink:href="#b"/></mask><path d="M17.54.02h-4.547C5.87.02.09 5.731.09 12.773v18.498c0 8.29 6.794 15.007 15.172 15.007 8.384 0 15.186-6.718 15.186-15.007V12.774C30.45 5.732 24.663.02 17.54.02" fill="#FFF" mask="url(#c)"/></g><path d="M18.623 36.516c-8.99 0-16.456-5.92-18.031-13.715v8.902c0 8.29 6.794 15 15.172 15 8.228 0 14.903-6.467 15.15-14.535-3.249 2.694-7.55 4.348-12.29 4.348M15.765 7.181c-.858 0-1.568.694-1.568 1.543v6.769c0 .863.71 1.55 1.568 1.55.866 0 1.568-.687 1.568-1.55V8.724c0-.849-.702-1.543-1.568-1.543" fill="#E5E5E5"/></g><path d="M279.573 154.764H154.24a4.58 4.58 0 00-4.579 4.581v50.009a4.58 4.58 0 004.58 4.581h125.332a4.58 4.58 0 004.578-4.581v-50.009a4.58 4.58 0 00-4.578-4.581" fill="#C9C9C9"/><path d="M279.575 158.582h-6.093a.761.761 0 00-.76.763v2.29c0 .422.34.763.76.763h6.093c.42 0 .761-.341.761-.763v-2.29a.762.762 0 00-.761-.763zm-16.03 3.816h6.093c.42 0 .761-.341.761-.763v-2.29a.762.762 0 00-.76-.763h-6.094a.761.761 0 00-.76.763v2.29c0 .422.34.763.76.763zm-9.936 0h6.092c.42 0 .761-.341.761-.763v-2.29a.763.763 0 00-.761-.763h-6.092a.763.763 0 00-.762.763v2.29c0 .422.341.763.762.763zm-9.938 0h6.093a.76.76 0 00.76-.763v-2.29a.762.762 0 00-.76-.763h-6.093a.762.762 0 00-.761.763v2.29c0 .422.34.763.761.763zm-9.937 0h6.093a.76.76 0 00.76-.763v-2.29a.762.762 0 00-.76-.763h-6.093a.762.762 0 00-.761.763v2.29c0 .422.34.763.761.763zm-9.937 0h6.092a.763.763 0 00.762-.763v-2.29a.762.762 0 00-.762-.763h-6.092a.763.763 0 00-.762.763v2.29c0 .422.342.763.762.763zm-9.937 0h6.092a.763.763 0 00.762-.763v-2.29a.762.762 0 00-.762-.763h-6.092a.762.762 0 00-.761.763v2.29c0 .422.34.763.761.763zm-9.936 0h6.091a.763.763 0 00.762-.763v-2.29a.762.762 0 00-.762-.763h-6.091a.762.762 0 00-.762.763v2.29c0 .422.34.763.762.763zm-9.937 0h6.092c.42 0 .762-.341.762-.763v-2.29a.763.763 0 00-.762-.763h-6.092a.762.762 0 00-.762.763v2.29c0 .422.34.763.762.763zm-9.938 0h6.093a.76.76 0 00.76-.763v-2.29a.762.762 0 00-.76-.763h-6.093a.762.762 0 00-.761.763v2.29c0 .422.34.763.761.763zm-9.937 0h6.093c.42 0 .761-.341.761-.763v-2.29a.762.762 0 00-.761-.763h-6.093a.763.763 0 00-.762.763v2.29c0 .422.342.763.762.763zm-9.937 0h6.092a.763.763 0 00.762-.763v-2.29a.762.762 0 00-.762-.763h-6.092a.762.762 0 00-.762.763v2.29c0 .422.341.763.762.763zm-9.936 0h6.091a.763.763 0 00.762-.763v-2.29a.762.762 0 00-.762-.763h-6.091a.762.762 0 00-.762.763v2.29c0 .422.34.763.762.763zm116.748 41.039h-5.15a.764.764 0 00-.763.763v1.336c0 .422.342.764.763.764h5.15a.763.763 0 00.764-.764V204.2a.763.763 0 00-.764-.763zm8.586 3.817h-5.15a.764.764 0 00-.764.764v1.336c0 .422.341.763.763.763h5.15a.763.763 0 00.763-.763v-1.336a.763.763 0 00-.762-.764zm-8.586 0h-5.15a.764.764 0 00-.763.764v1.336c0 .422.342.763.763.763h5.15a.763.763 0 00.764-.763v-1.336a.764.764 0 00-.764-.764zm-8.584 0h-5.15a.763.763 0 00-.763.764v1.336c0 .422.342.763.763.763h5.15a.763.763 0 00.764-.763v-1.336a.764.764 0 00-.764-.764zm-8.583-4.771h-6.106a.763.763 0 00-.763.763v6.108c0 .422.342.763.763.763h6.106a.763.763 0 00.762-.763v-6.108a.763.763 0 00-.762-.763zm-9.539 0h-8.012a.762.762 0 00-.763.763v6.108c0 .422.34.763.763.763h8.012a.763.763 0 00.763-.763v-6.108a.763.763 0 00-.763-.763zm-11.446 0H194.3a.763.763 0 00-.764.763v6.108c0 .422.342.763.764.763h38.534a.763.763 0 00.763-.763v-6.108a.763.763 0 00-.763-.763zm-41.968 0h-8.013a.763.763 0 00-.762.763v6.108c0 .422.341.763.762.763h8.013a.763.763 0 00.763-.763v-6.108a.763.763 0 00-.763-.763zm-11.446 0h-6.105a.763.763 0 00-.763.763v6.108c0 .422.342.763.763.763h6.105a.763.763 0 00.763-.763v-6.108a.763.763 0 00-.763-.763zm-9.539 0h-6.104a.763.763 0 00-.764.763v6.108c0 .422.343.763.764.763h6.104a.763.763 0 00.763-.763v-6.108a.763.763 0 00-.763-.763zm-9.538 0h-6.104a.763.763 0 00-.763.763v6.108c0 .422.341.763.763.763h6.104a.763.763 0 00.763-.763v-6.108a.763.763 0 00-.763-.763zm12.209-8.78a.763.763 0 00-.763-.764h-17.55a.764.764 0 00-.763.764v6.108c0 .421.341.763.763.763h17.55a.763.763 0 00.763-.763v-6.108zm9.539 0a.763.763 0 00-.763-.764h-6.105a.764.764 0 00-.763.764v6.108c0 .421.341.763.763.763h6.105a.763.763 0 00.763-.763v-6.108zm8.775-.764h-6.105a.763.763 0 00-.763.764v6.108c0 .421.341.763.763.763h6.105a.764.764 0 00.763-.763v-6.108a.764.764 0 00-.763-.764zm3.434 7.635h6.103a.763.763 0 00.764-.763v-6.108a.764.764 0 00-.764-.764h-6.103a.764.764 0 00-.764.764v6.108c0 .421.342.763.764.763zm9.537 0h6.105a.763.763 0 00.763-.763v-6.108a.763.763 0 00-.763-.764h-6.105a.763.763 0 00-.762.764v6.108c0 .421.341.763.762.763zm9.539 0h6.104a.763.763 0 00.763-.763v-6.108a.764.764 0 00-.763-.764h-6.104a.763.763 0 00-.763.764v6.108c0 .421.341.763.763.763zm9.539 0h6.103a.763.763 0 00.763-.763v-6.108a.763.763 0 00-.763-.764h-6.103a.764.764 0 00-.764.764v6.108c0 .421.342.763.764.763zm9.537 0h6.105a.763.763 0 00.763-.763v-6.108a.763.763 0 00-.763-.764h-6.105a.763.763 0 00-.762.764v6.108c0 .421.34.763.762.763zm9.539 0h6.104a.763.763 0 00.763-.763v-6.108a.764.764 0 00-.763-.764h-6.104a.763.763 0 00-.763.764v6.108c0 .421.341.763.763.763zm9.538 0h6.104a.763.763 0 00.763-.763v-6.108a.763.763 0 00-.763-.764h-6.104a.764.764 0 00-.763.764v6.108c0 .421.342.763.763.763zm28.043-7.635h-18.506a.763.763 0 00-.762.764v6.108c0 .421.341.763.762.763h18.506a.763.763 0 00.762-.763v-6.108a.763.763 0 00-.762-.764zm0-9.544h-13.736a.764.764 0 00-.763.764v6.108c0 .42.342.764.763.764h13.736a.764.764 0 00.762-.764v-6.108a.763.763 0 00-.762-.764zm-16.406 6.872v-6.108a.763.763 0 00-.764-.764h-6.104a.763.763 0 00-.762.764v6.108c0 .42.34.764.762.764h6.104a.764.764 0 00.764-.764zm-9.539 0v-6.108a.763.763 0 00-.763-.764h-6.104a.763.763 0 00-.763.764v6.108c0 .42.34.764.763.764h6.104a.763.763 0 00.763-.764zm-9.539 0v-6.108a.763.763 0 00-.762-.764h-6.104a.763.763 0 00-.764.764v6.108c0 .42.342.764.764.764h6.104a.763.763 0 00.762-.764zm-9.537 0v-6.108a.763.763 0 00-.764-.764h-6.104a.763.763 0 00-.762.764v6.108c0 .42.34.764.762.764h6.104a.764.764 0 00.764-.764zm-9.539 0v-6.108a.763.763 0 00-.763-.764h-6.104a.763.763 0 00-.763.764v6.108c0 .42.342.764.763.764h6.104a.763.763 0 00.763-.764zm-9.538 0v-6.108a.763.763 0 00-.763-.764h-6.104a.763.763 0 00-.764.764v6.108c0 .42.342.764.764.764h6.104a.764.764 0 00.763-.764zm-9.538 0v-6.108a.763.763 0 00-.763-.764h-6.105a.763.763 0 00-.762.764v6.108c0 .42.34.764.762.764h6.105a.764.764 0 00.763-.764zm-16.406.764h6.104a.764.764 0 00.764-.764v-6.108a.763.763 0 00-.764-.764h-6.104a.763.763 0 00-.763.764v6.108c0 .42.342.764.763.764zm-9.538 0h6.105a.764.764 0 00.762-.764v-6.108a.763.763 0 00-.762-.764h-6.105a.764.764 0 00-.763.764v6.108c0 .42.342.764.763.764zm-9.538 0h6.104a.764.764 0 00.764-.764v-6.108a.763.763 0 00-.764-.764h-6.104a.763.763 0 00-.763.764v6.108c0 .42.342.764.763.764zm-16.215 0h12.781a.764.764 0 00.763-.764v-6.108a.763.763 0 00-.763-.764h-12.78a.763.763 0 00-.764.764v6.108c0 .42.341.764.763.764zm125.333-26.724h-10.875a.763.763 0 00-.762.764v6.108c0 .422.341.764.762.764h10.875a.763.763 0 00.762-.764v-6.108a.763.763 0 00-.762-.764zm0 9.544h-6.105a.764.764 0 00-.764.764v6.108c0 .422.343.764.764.764h6.105a.763.763 0 00.762-.764v-6.108a.763.763 0 00-.762-.764zm-16.406.764v6.108c0 .422.341.764.762.764h6.105a.764.764 0 00.764-.764v-6.108a.764.764 0 00-.764-.764h-6.105a.763.763 0 00-.762.764zm-9.539 0v6.108c0 .422.342.764.763.764h6.105a.763.763 0 00.763-.764v-6.108a.763.763 0 00-.763-.764h-6.105a.763.763 0 00-.763.764zm-9.539 0v6.108c0 .422.343.764.764.764h6.105a.763.763 0 00.762-.764v-6.108a.763.763 0 00-.762-.764h-6.105a.764.764 0 00-.764.764zm-9.537 0v6.108c0 .422.341.764.762.764h6.105a.764.764 0 00.764-.764v-6.108a.764.764 0 00-.764-.764h-6.105a.763.763 0 00-.762.764zm-9.539 0v6.108c0 .422.342.764.763.764h6.105a.763.763 0 00.763-.764v-6.108a.763.763 0 00-.763-.764h-6.105a.763.763 0 00-.763.764zm-2.67 6.872a.764.764 0 00.763-.764v-6.108a.764.764 0 00-.763-.764h-6.105a.763.763 0 00-.763.764v6.108c0 .422.342.764.763.764h6.105zm-9.538 0a.763.763 0 00.763-.764v-6.108a.763.763 0 00-.763-.764H206.7a.763.763 0 00-.763.764v6.108c0 .422.341.764.763.764h6.105zm-9.539 0a.763.763 0 00.763-.764v-6.108a.763.763 0 00-.763-.764h-6.104a.763.763 0 00-.763.764v6.108c0 .422.342.764.763.764h6.104zm-8.775-.764v-6.108a.763.763 0 00-.763-.764h-6.104a.763.763 0 00-.764.764v6.108c0 .422.342.764.764.764h6.104a.763.763 0 00.763-.764zm-9.538 0v-6.108a.763.763 0 00-.763-.764h-6.105a.763.763 0 00-.762.764v6.108c0 .422.34.764.762.764h6.105a.763.763 0 00.763-.764zm-9.538 0v-6.108a.763.763 0 00-.764-.764h-6.104a.763.763 0 00-.763.764v6.108c0 .422.342.764.763.764h6.104a.763.763 0 00.764-.764zm-21.175.764h10.874a.763.763 0 00.762-.764v-6.108a.763.763 0 00-.762-.764H154.24a.763.763 0 00-.763.764v6.108c0 .422.341.764.763.764zm111.025-17.18h-6.104a.764.764 0 00-.764.764v6.108c0 .422.342.764.764.764h6.104a.763.763 0 00.763-.764v-6.108a.763.763 0 00-.763-.764zm-9.539 0h-6.104a.763.763 0 00-.763.764v6.108c0 .422.342.764.763.764h6.104a.764.764 0 00.764-.764v-6.108a.764.764 0 00-.764-.764zm-9.537 0h-6.106a.763.763 0 00-.762.764v6.108c0 .422.341.764.762.764h6.106a.763.763 0 00.762-.764v-6.108a.763.763 0 00-.762-.764zm-9.539 0h-6.104a.764.764 0 00-.764.764v6.108c0 .422.343.764.764.764h6.104a.763.763 0 00.763-.764v-6.108a.763.763 0 00-.763-.764zm-16.406.764v6.108c0 .422.342.764.763.764h6.105a.765.765 0 00.764-.764v-6.108a.765.765 0 00-.764-.764h-6.105a.763.763 0 00-.763.764zm-9.538 6.108c0 .422.342.764.763.764h6.105a.764.764 0 00.763-.764v-6.108a.764.764 0 00-.763-.764h-6.105a.764.764 0 00-.763.764v6.108zm-8.775.764h6.104a.763.763 0 00.764-.764v-6.108a.764.764 0 00-.764-.764h-6.104a.764.764 0 00-.763.764v6.108c0 .422.342.764.763.764zm-9.538 0h6.104a.763.763 0 00.763-.764v-6.108a.763.763 0 00-.763-.764h-6.104a.763.763 0 00-.763.764v6.108c0 .422.341.764.763.764zm-9.539 0h6.105a.763.763 0 00.763-.764v-6.108a.763.763 0 00-.763-.764h-6.105a.763.763 0 00-.762.764v6.108c0 .422.341.764.762.764zm-9.538 0h6.105a.763.763 0 00.763-.764v-6.108a.763.763 0 00-.763-.764h-6.105a.763.763 0 00-.763.764v6.108c0 .422.342.764.763.764zm-9.538 0h6.104a.763.763 0 00.763-.764v-6.108a.763.763 0 00-.763-.764h-6.104a.764.764 0 00-.764.764v6.108c0 .422.343.764.764.764zm-9.538 0h6.104a.763.763 0 00.763-.764v-6.108a.764.764 0 00-.763-.764h-6.104a.764.764 0 00-.763.764v6.108c0 .422.341.764.763.764z" fill="#3D3D3D"/><path d="M311.91 63.855H122.855c-4.146 0-6.95 3.936-6.272 6.109l16.982 69.717c.463 1.484 3.568 2.676 6.94 2.676h153.757c3.37 0 6.475-1.192 6.939-2.676l16.982-69.717c.677-2.173-2.127-6.109-6.273-6.109" fill="#DADADA"/><path d="M311.91 66.007H122.855c-4.146 0-6.95 1.784-6.272 3.957l16.982 69.718c.463 1.483 3.568 2.676 6.94 2.676h153.757c3.37 0 6.475-1.193 6.939-2.676l16.982-69.718c.677-2.173-2.127-3.957-6.273-3.957" fill="#3D3D3D"/><path fill="#6CAD84" d="M138.216 137.582h158.332l12.405-63.935H124.865z"/><path d="M218.653 73.647l63.898 63.935h1.592l-63.898-63.935h-1.592zm3.183 0l63.9 63.935h1.591l-63.899-63.935h-1.592zm6.368 0l63.899 63.935h1.591l-63.898-63.935h-1.592zm-3.183 0l63.898 63.935h1.592l-63.898-63.935h-1.592zm22.286 0l51.624 51.654.259-1.334-50.29-50.32h-1.593zm-6.367 0l56.956 56.99.26-1.335-55.624-55.655h-1.592zm-6.368 0l62.288 62.324.26-1.334-60.956-60.99h-1.592zm3.184 0l59.622 59.656.26-1.333-58.29-58.323h-1.592zm6.367 0l54.29 54.321.26-1.333-52.958-52.988h-1.592zm-47.755 0l63.898 63.935h1.592L197.96 73.647h-1.592zm3.183 0l63.9 63.935h1.59l-63.898-63.935h-1.592zm-12.735 0l63.898 63.935h1.593l-63.9-63.935h-1.59zm3.184 0l63.898 63.935h1.592l-63.898-63.935H190zm3.183 0l63.9 63.935h1.591l-63.898-63.935h-1.593zm9.552 0l63.899 63.935h1.592l-63.9-63.935h-1.59zm9.552 0l63.898 63.935h1.591l-63.898-63.935h-1.591zm-3.185 0l63.9 63.935h1.591l-63.898-63.935h-1.593zm-3.183 0l63.899 63.935h1.591L207.51 73.647h-1.591zm9.551 0l63.898 63.935h1.592l-63.898-63.935h-1.592zm76.409 0l14.299 14.307.259-1.333-12.967-12.974h-1.591zm-41.389 0l48.959 48.986.258-1.334-47.625-47.652h-1.592zm35.022 0l19.631 19.642.258-1.334-18.297-18.308h-1.592zm15.917 0l6.301 6.305.26-1.334-4.969-4.971h-1.592zm3.184 0l3.635 3.637.26-1.334-2.303-2.303h-1.592zm-6.368 0l8.968 8.973.259-1.334-7.634-7.639h-1.593zm-15.917 0l22.297 22.31.258-1.334-20.963-20.976h-1.592zm12.734 0l11.634 11.64.258-1.334-10.3-10.306h-1.592zm-6.367 0l16.965 16.975.26-1.334-15.634-15.641h-1.59zm-9.551 0l24.963 24.978.259-1.334-23.63-23.644h-1.592zm-25.47 0l46.293 46.318.259-1.333-44.96-44.985h-1.592zm3.183 0l43.627 43.652.259-1.334-42.294-42.318h-1.592zm6.368 0l38.294 38.316.26-1.333-36.962-36.983h-1.592zm-3.184 0l40.961 40.984.258-1.334-39.627-39.65h-1.592zm15.92 0l27.629 27.645.259-1.334-26.297-26.311h-1.592zm-6.368 0l32.96 32.98.26-1.334-31.628-31.646h-1.592zm-3.184 0l35.627 35.649.26-1.334L268 73.647h-1.59zm6.367 0l30.297 30.313.258-1.334-28.963-28.979h-1.592zm-117.797 0l63.9 63.935h1.59l-63.898-63.935h-1.592zm-24.614 26.34l37.574 37.595h1.59l-39.584-39.608.42 2.013zm-5.045-24.161l61.72 61.756h1.593L124.9 73.812l.42 2.014zm4.204 20.135l41.598 41.62h1.592l-43.61-43.634.42 2.014zm1.682 8.053l33.55 33.568h1.591L130.786 102l.42 2.014zm-5.045-24.161l57.696 57.729h1.592L125.74 77.839l.42 2.014zm.84 4.027l53.672 53.702h1.592l-55.684-55.716.42 2.014zm1.683 8.054l45.621 45.648h1.592L128.264 89.92l.42 2.014zm-.841-4.027l49.647 49.675h1.592l-51.66-51.689.42 2.014zm4.204 20.133l29.524 29.542h1.593l-31.537-31.555.42 2.013zm5.045 24.162l5.377 5.38h1.592l-7.39-7.393.42 2.013zm.841 4.027l1.352 1.353h1.592l-3.364-3.366.42 2.013zm93.455-62.582l63.898 63.935h1.262l.054-.277-63.622-63.658h-1.592zm-95.137 54.528l9.401 9.407h1.593l-11.414-11.42.42 2.013zm-2.522-12.08l21.475 21.487h1.592l-23.488-23.5.42 2.012zm.84 4.026l17.451 17.46h1.592l-19.462-19.473.42 2.013zm-1.68-8.054l25.499 25.515h1.591l-27.512-27.528.421 2.013zm2.521 12.081l13.427 13.434h1.592l-15.439-15.447.42 2.013zm22.754-50.501l63.898 63.935h1.592l-63.9-63.935h-1.59zm-31.838 0l63.9 63.935h1.59l-63.898-63.935h-1.592zm181.47 0l.97.97.187-.97h-1.156zm-140.082 0l63.899 63.935h1.592l-63.899-63.935h-1.592zm-6.367 0l63.898 63.935h1.592L162.94 73.647h-1.592zm9.551 0l63.9 63.935h1.591L172.49 73.647h-1.592zm9.55 0l63.9 63.935h1.59l-63.897-63.935h-1.592zm-6.366 0l63.898 63.935h1.592l-63.898-63.935h-1.592zm3.184 0l63.898 63.935h1.591l-63.898-63.935h-1.59zm-12.736 0l63.9 63.935h1.592l-63.9-63.935h-1.592zm-28.652 0l63.898 63.935h1.592L137.47 73.647h-1.592zm-6.368 0l63.899 63.935H195l-63.899-63.935h-1.592zm9.551 0l63.898 63.935h1.592l-63.898-63.935h-1.592zm-6.367 0l63.898 63.935h1.592l-63.899-63.935h-1.59zm9.55 0l63.899 63.935h1.592l-63.898-63.935h-1.592zm9.552 0l63.898 63.935h1.592l-63.899-63.935h-1.591zm-6.368 0l63.898 63.935h1.592L147.02 73.647h-1.592zm38.205 0l63.898 63.935h1.591l-63.898-63.935h-1.591zm-35.022 0l63.9 63.935h1.59l-63.897-63.935h-1.593z" fill="#63A27B"/><path d="M325.102 240.886s-4.499-14.33-10.444-25.799c-2.785-5.372-7.115-7.944-8.885-6.85-2.7-2.202-6.127-3.142-8.477-1.55-1.883-1.953-6.095-2.23-8.686-.214-1.199-2.308-8.73-14.659-11.338-18.96-2.61-4.302-9.004-1.709-7.233 3.303 3.125 12.983 18.177 45.368 5.35 42.3-2.688-10.091-10.449-8.882-10.449-8.882s1.234 14.072 3.523 16.153c2.288 2.08 10.575 6.384 11.985 7.335 2.73 1.841 12.088 7.223 19.782 9.407a401.635 401.635 0 004.823 4.48l23.354-15.12-3.305-5.603z" fill="#000" opacity=".1"/><path d="M325.102 240.886s-4.499-14.33-10.444-25.799c-2.785-5.372-7.115-7.944-8.885-6.85-2.7-2.202-6.127-3.142-8.477-1.55-1.883-1.953-6.095-2.23-8.686-.214-1.199-2.308-8.73-14.659-11.338-18.96-2.61-4.302-9.004-1.709-7.233 3.303 1.772 5.013 7.294 16.321 7.294 16.321s10.339 23.657-1.945 25.98c-2.687-10.092-10.448-8.883-10.448-8.883s1.234 14.072 3.523 16.153c2.288 2.08 10.575 6.384 11.985 7.335 2.73 1.841 12.088 7.223 19.782 9.407a401.635 401.635 0 004.823 4.48l23.354-15.12-3.305-5.603z" fill="#E5AC6E"/><path d="M326.438 243.151c-.366.04-.692.072-.955.09-12.343-3.85-25.523 5.813-29.107 12.591 1.305.496 2.602.943 3.854 1.298a405.448 405.448 0 004.823 4.48l23.354-15.12-1.97-3.339z" fill="#000" opacity=".1"/><path d="M330.183 247.124c-.643-.895-2.569-4.583-3.9-4.492-16.937-2.483-27.76 11.376-30.72 16.985-.556 1.054-.696 1.568-.063 2.694.57 1.011 5.728 9.694 5.728 9.694l30.761-21.802s-1.203-2.239-1.806-3.079" fill="#DEDEDE"/><path d="M331.841 249.931c-19.284-2.512-29.989 10.712-33.793 16.712 1.535 2.593 3.18 5.362 3.18 5.362l30.761-21.802-.148-.272" fill="#CDCDCD"/><path d="M334.057 250.254c-.682-1.192-2.964-1.962-4.873-1.923-16.567 2.937-27.027 14.85-30.346 21.031-1.202 2.237-.904 5.922.04 7.56 1.462 2.54 8.8 16.71 17.956 34.518h62.073c-21.985-29.91-44.503-60.578-44.85-61.186" fill="#3D3D3D"/><path d="M174.607 211.078l-21.464-41.291a3.822 3.822 0 00-5.156-1.629l-24.308 12.65a3.827 3.827 0 00-1.627 5.16l21.464 41.29a3.822 3.822 0 005.156 1.629l24.308-12.651a3.825 3.825 0 001.627-5.158" fill="#F0F0F0"/><path d="M168.516 212.112l.987-.512.43 1.763-.226.118-1.191-1.369zm1.18-2.017l-.5.26.177.75-1.186.616-.51-.576-.506.263 2.371 2.692.996-.519-.842-3.486zm-19.726-17.178a55.058 55.058 0 01-5.575-1.974s-.574 2.72-1.58 5.665c-1.007 2.943-2.448 6.11-2.448 6.11s3.478.658 6.492 1.534a51.99 51.99 0 015.45 1.936s.556-2.668 1.555-5.586c1.015-2.968 2.474-6.186 2.474-6.186s-3.395-.636-6.369-1.5m17.594 14.34c-.6-.175-1.115-.395-1.115-.395s-.115.545-.316 1.134c-.201.588-.49 1.222-.49 1.222s.696.131 1.299.307c.591.171 1.09.387 1.09.387s.111-.534.31-1.118c.204-.593.496-1.237.496-1.237s-.68-.127-1.274-.3" fill="#DB394B"/><path d="M172.247 217.427l-.936-1.555 1.061-.333.117 1.812-.242.076zm.576-3.335l-.538.169.044.769-1.274.4-.403-.656-.543.171 1.868 3.062 1.07-.336-.224-3.58zm-9.736-15.1c-.682-2.169-2.954-3.387-5.076-2.72-.6.189-1.197.537-1.732.98.493-1.217.587-2.678.223-3.835a4.115 4.115 0 10-7.85 2.468c.362 1.154 1.27 2.296 2.366 3.013-.696-.051-1.386.01-1.992.201a4.117 4.117 0 002.468 7.855c1.133-.356 2.253-1.24 2.972-2.309l-.215 3.185 4.49-1.412-2.033-2.533c1.201.497 2.64.599 3.771.242 2.121-.667 3.29-2.967 2.607-5.135m8.637 12.941a.823.823 0 10-.494-1.57c-.227.071-.45.25-.595.464l.044-.64-.899.283.419.521c-.244-.105-.534-.136-.766-.063a.815.815 0 00-.522 1.026.815.815 0 001.015.545 1.05 1.05 0 00.353-.204 1.188 1.188 0 00-.05.776.823.823 0 001.57-.494 1.185 1.185 0 00-.48-.606c.14.012.281.001.405-.038" fill="#3D3D3D"/><path d="M167.352 195.217a4.59 4.59 0 00-5.146-3.958 4.59 4.59 0 00-3.94 3.87 4.588 4.588 0 00-4.803-2.726 4.592 4.592 0 00-3.956 5.15c.095.727.66 3.015 1.923 4.43 3.107 3.474 8.631 6.883 8.631 6.883s4.439-4.683 6.552-8.835c.869-1.708.835-4.081.739-4.814m7.497 20.553c-.621-.695-1.726-1.377-1.726-1.377s-.888.937-1.31 1.767c-.175.341-.167.817-.149.963a.918.918 0 001.03.79.905.905 0 00.779-.846c.139.404.53.676.97.619a.919.919 0 00.79-1.03c-.018-.146-.131-.604-.384-.887m-.645 5.915l-.251.033-.653-1.694 1.104-.145-.2 1.806zm.335-3.079l-.089.766-1.325.173-.283-.717-.564.074 1.308 3.34 1.112-.146.401-3.563-.56.073z" fill="#DB394B"/><path d="M179.333 215.538c6.144-9.097-.608-11.41-4.486-10.513 2.841-13.893-6.14-8.19-6.14-8.19s1.797-8.868-4.63-11.334c-1.122-.432-3.847 11.312-5.116 11.706-7.1 2.204-12.846 2.252-14.873 3.727-.876 1.768-11.506 10.026-12.028 13.808-.524 3.78 1.723 13.528-3.162 26.256a377.237 377.237 0 01-2.2 7.304l19.453 14.03 11.34-11.178s5.078-.486 15.669-12.525c6.48-7.367 8.64-10.29 9.547-11.786 4.116-6.798.124-11.536-3.374-11.305" fill="#E5AC6E"/><path d="M179.333 215.538c6.144-9.097-.608-11.41-4.486-10.513 2.841-13.893-6.14-8.19-6.14-8.19s1.797-8.868-4.63-11.334c-1.122-.432-3.847 11.312-5.116 11.706-7.1 2.204-12.846 2.252-14.873 3.727-.876 1.768-11.506 10.026-12.028 13.808-.524 3.78 1.723 13.528-3.162 26.256a377.237 377.237 0 01-2.2 7.304l19.453 14.03 11.34-11.178s5.078-.486 15.669-12.525c6.48-7.367 8.64-10.29 9.547-11.786 4.116-6.798.124-11.536-3.374-11.305" fill="#E5AC6E"/><path d="M146.346 229.578c.27-4.203 1.41-4.032-4.94-13.476 14.437-13.15 5.968-17.839 5.968-17.839s-15.471 9.078-15.994 12.859c-.78 5.631-.92 13.157-.648 24.102-.271 5.2-4.304 11.134-7.804 13.065-5.306 2.928 17.29 18.33 26.5 20.783 1.291-1.941 1.18-6.054 5.275-12.017 15.778-8.085 30.668-31.629 30.475-36.321-24.421 15.445-33.628 13.007-38.832 8.844" fill="#E5AC6E"/><path d="M179.061 184.061c2.532-2.804-2.98-9.67-5.922-7.272-2.942 2.398-15.56 14.002-18.973 17.471-3.413 3.47 4.812 8.964 6.73 7.514 1.917-1.449 15.634-14.908 18.165-17.713m-8.914 24.447c1.918-1.45 12.012-10.899 14.542-13.703 2.531-2.805-2.144-10.458-5.086-8.06-2.943 2.397-12.4 10.918-15.813 14.388-3.412 3.47 4.44 8.824 6.357 7.375m9.537 5.915c-2.943 2.398-6.268 6.17-9.68 9.638-3.412 3.469 4.263 8.44 6.181 6.991 1.918-1.449 6.322-6.162 8.853-8.966 2.53-2.806-2.412-10.06-5.354-7.663m-7.74 6.36c1.918-1.45 9.83-9.477 12.36-12.281 2.532-2.806-2.268-9.675-5.21-7.277-2.944 2.396-9.919 9.096-13.332 12.566-3.412 3.469 4.264 8.44 6.182 6.991" fill="#E5AC6E"/><path d="M179.603 186.744c-2.943 2.398-12.4 10.92-15.813 14.39-3.412 3.468 4.44 8.823 6.357 7.374 1.544-1.167 8.384-7.516 12.314-11.411l.64-9.663c-1.105-1.093-2.418-1.57-3.498-.69m.08 27.68c-2.942 2.397-6.268 6.168-9.68 9.637-1.997 2.03-.195 4.573 2.027 6.045l4.906.325c.961-.84 2.23-2.097 3.543-3.455l.863-12.998c-.58-.09-1.15.03-1.658.445m-.623-30.362c1.822-2.018-.52-6.138-3.074-7.396l-2.392-.16c-.157.075-.31.165-.456.284-2.942 2.397-15.56 14.002-18.973 17.471-3.412 3.47 4.812 8.964 6.73 7.515 1.918-1.45 15.634-14.909 18.165-17.714m.036 17.162c-2.943 2.398-9.918 9.098-13.33 12.567-3.413 3.47 4.263 8.44 6.181 6.991 1.429-1.079 6.18-5.806 9.559-9.308l.673-10.146c-1.018-.687-2.145-.868-3.083-.104" fill="#C3925B"/><path d="M145.427 216.641c10.144-12.723 2.61-17.25 2.61-17.25s-15.737 9.527-16.26 13.307c-.78 5.631-1.317 11.58-1.046 22.525-.27 5.2-4.303 11.135-7.803 13.066-5.306 2.928 11.29 18.672 20.502 21.127.44-16.535 6.9-27.81 7.38-34.227.478-6.418-3.439-13.213-5.383-18.548" fill="#000" opacity=".2"/><path d="M173.916 211.473l-21.494-41.347a2.994 2.994 0 00-4.04-1.276l-24.363 12.68a2.997 2.997 0 00-1.275 4.041l21.494 41.348a2.994 2.994 0 004.038 1.276l24.365-12.68a2.998 2.998 0 001.275-4.042" fill="#FBFBFB"/><path d="M127.085 185.463l-.43-1.765.225-.117 1.192 1.369-.987.513zm-.038-2.5l-.998.517.843 3.486.5-.26-.177-.75 1.186-.616.511.576.505-.262-2.37-2.692zm2.616 4.502c-.6-.175-1.115-.396-1.115-.396s-.115.545-.316 1.133c-.202.589-.49 1.222-.49 1.222s.696.133 1.299.308c.591.172 1.09.387 1.09.387s.111-.534.31-1.118c.204-.593.496-1.238.496-1.238s-.68-.126-1.274-.298" fill="#DB394B"/><path d="M177.49 215.912l-13.973-44.393a3.823 3.823 0 00-4.795-2.5l-26.134 8.236a3.825 3.825 0 00-2.498 4.797l13.971 44.393a3.824 3.824 0 004.795 2.5l26.135-8.235a3.826 3.826 0 002.498-4.798" fill="#F0F0F0"/><path d="M176.739 216.182l-13.991-44.453a2.995 2.995 0 00-3.757-1.96l-26.194 8.255a2.997 2.997 0 00-1.956 3.759l13.99 44.453a2.995 2.995 0 003.756 1.958l26.195-8.255a2.996 2.996 0 001.957-3.757" fill="#FBFBFB"/><path d="M135.134 182.429l-.116-1.812.242-.076.935 1.553-1.061.335zm.396-2.469l-1.071.337.224 3.58.539-.17-.045-.77 1.275-.4.403.656.543-.17-1.868-3.063zm3.187 5.972a.814.814 0 00-1.015-.544 1.05 1.05 0 00-.353.205c.102-.245.124-.542.05-.775a.823.823 0 10-1.57.493c.074.233.26.462.482.605a1.093 1.093 0 00-.407.037.825.825 0 00.494 1.572c.227-.072.451-.25.595-.466l-.043.64.898-.281-.419-.521c.244.105.534.136.766.062a.814.814 0 00.522-1.027" fill="#3D3D3D"/><path d="M179.378 221.135l-6.055-46.146a3.823 3.823 0 00-4.288-3.295l-27.167 3.57a3.824 3.824 0 00-3.293 4.29l6.056 46.146a3.823 3.823 0 004.288 3.295l27.166-3.569a3.825 3.825 0 003.293-4.291" fill="#F0F0F0"/><path d="M178.592 221.27l-6.064-46.208a2.994 2.994 0 00-3.358-2.582l-27.23 3.577a2.997 2.997 0 00-2.58 3.362l6.065 46.21a2.996 2.996 0 003.359 2.58l27.23-3.578a2.996 2.996 0 002.578-3.36" fill="#FBFBFB"/><path d="M146.216 183.558a.918.918 0 00-1.029-.792.906.906 0 00-.779.847.905.905 0 00-.97-.618.918.918 0 00-.79 1.03c.018.146.131.604.384.887.621.694 1.726 1.376 1.726 1.376s.888-.937 1.31-1.767c.175-.342.168-.817.148-.963m-2.739-2.756l.2-1.806.252-.033.651 1.695-1.103.144zm.819-2.363l-1.114.146-.4 3.564.56-.073.09-.766 1.324-.173.283.716.565-.073-1.308-3.34z" fill="#DB394B"/><path d="M178.625 176.208l-27.373-1.206a3.822 3.822 0 00-3.987 3.653l-2.045 46.498a3.823 3.823 0 003.65 3.989l27.374 1.205a3.824 3.824 0 003.987-3.653l2.045-46.497a3.824 3.824 0 00-3.651-3.99" fill="#F0F0F0"/><path d="M178.622 177.005l-27.437-1.208a2.995 2.995 0 00-3.124 2.862l-2.047 46.56a2.996 2.996 0 002.86 3.126l27.437 1.207a2.995 2.995 0 003.122-2.86l2.049-46.562a2.996 2.996 0 00-2.86-3.125" fill="#FBFBFB"/><path d="M151.876 180.736l.51-1.743.253.01.348 1.783-1.111-.05zm1.215-2.185l-1.121-.05-1.012 3.44.562.026.221-.739 1.335.06.155.755.568.025-.708-3.517zm-.871 6.773h-.011l.008-.03.004.03m1.563-.88c-.492-.791-1.461-1.55-1.461-1.55s-1.038.676-1.597 1.421c-.228.304-.293.574-.3.72a.92.92 0 00.877.959.905.905 0 00.637-.227l-.238.54.94.041-.188-.553a.912.912 0 001.568-.6c.007-.148-.036-.424-.238-.75m21.256 41.891l-.254-.012-.347-1.78 1.111.05-.51 1.742zm.865-2.974l-.22.738-1.336-.06-.154-.755-.569-.025.708 3.516 1.122.051 1.012-3.44-.563-.025zm-4.473-21.466c-2.46-3.957-7.305-7.753-7.305-7.753s-5.19 3.38-7.988 7.107c-1.14 1.517-1.462 2.866-1.495 3.599a4.59 4.59 0 004.381 4.792 4.57 4.57 0 003.172-1.091l-1.175 2.656 4.702.21-.925-2.725a4.562 4.562 0 003.035 1.342 4.592 4.592 0 004.79-4.384c.032-.738-.18-2.126-1.192-3.753m3.771 18.063l-.007.028-.005-.03.012.002zm.906-.67a.91.91 0 00-.638.225l.24-.539-.942-.041.188.553a.912.912 0 00-.61-.277.919.919 0 00-.957.876c-.007.148.036.425.239.751.491.792 1.46 1.551 1.46 1.551s1.038-.676 1.598-1.421c.227-.304.292-.574.299-.72a.918.918 0 00-.877-.959z" fill="#3D3D3D"/><path d="M149.414 241.96c2.683-10.882-4.294-19.548-6.983-26.925 14.436-13.151 4.943-16.772 4.943-16.772s-15.47 9.078-15.994 12.859c-.78 5.631-.92 13.157-.649 24.102-.27 5.2-4.304 11.134-7.804 13.065-5.304 2.928 15.791 18.577 25.001 21.03 8.134-14.73 1.504-18.467 1.486-27.36" fill="#E5AC6E"/><path d="M125.138 254.177c5.695 5.642 18.054 13.235 24.29 14.896.822-1.236 1.08-3.356 2.212-6.268-12.371-11.906-22.675-17.006-24.867-18.016-.178.227-.358.451-.541.664l-1.094 8.724z" fill="#000" opacity=".1"/><path d="M126.437 244.473c-1.162-.62-2.33-1.04-3.279.234l-7.602 10.199 21.597 43.79 17.417-28.185s-14.711-18.87-28.133-26.038" fill="#EEE"/><path d="M143.333 288.695l7.929-12.83c-6.324-12.22-28.727-29.557-28.727-29.557l2.608 28.034 7.446 15.1 10.744-.747z" fill="#000" opacity=".1"/><path d="M123.137 246.065c-.557-.63-2.513-1.534-3.753-.086-5.132 5.994-26.873 33.454-52.062 65.462h65.545c8.568-13.255 14.918-23.143 16.826-26.272 1.002-1.644 1.616-4.402.48-6.487-4.703-8.632-21.956-26.865-27.036-32.617" fill="#3D3D3D"/><path d="M49.537 214.417a.84.84 0 10-1.623.431.84.84 0 001.623-.43" fill="#414143"/><path d="M273.428 73.647c-1.013 4.853.38 10.104 4.184 13.829 5.93 5.805 15.441 5.7 21.243-.233 3.639-3.723 4.952-8.855 3.963-13.596h-29.39z" fill="#2A2F3F"/><path d="M300.608 76.966c-.303.085-.967-1.587-1.451-3.32h-1.062c.029.092.065.177.09.27 1.556 5.563-1.691 11.335-7.252 12.89-5.56 1.556-11.329-1.693-12.883-7.256a10.416 10.416 0 01.085-5.903h-4.403a14.573 14.573 0 00-.332 3.475l2.227-.624c.303-.085.97 1.598 1.452 3.323.484 1.734.786 3.51.482 3.595l-2.227.623a14.742 14.742 0 005.764 5.636l.572-2.235c.078-.306 1.868-.042 3.603.403 1.743.447 3.43 1.074 3.352 1.38l-.575 2.247a14.7 14.7 0 004.037-.538 14.66 14.66 0 003.733-1.637 2950.87 2950.87 0 01-1.66-1.624c-.225-.22.892-1.634 2.15-2.92 1.253-1.28 2.646-2.435 2.871-2.215l1.65 1.615a14.768 14.768 0 002.004-7.808l-2.227.623m-22.285 2.508c1.513 5.413 7.124 8.573 12.534 7.06 5.41-1.515 8.57-7.13 7.056-12.543-.033-.118-.079-.229-.116-.344h-1.284c.081.22.161.442.225.673 1.332 4.764-1.448 9.706-6.209 11.038-4.761 1.333-9.7-1.449-11.033-6.213a8.919 8.919 0 01.227-5.498h-1.293a10.127 10.127 0 00-.107 5.827" fill="#FFF"/><path d="M299.912 79.186a.554.554 0 10-.276 1.073.554.554 0 00.276-1.073m-8.705 8.608a.554.554 0 10.3 1.067.554.554 0 00-.3-1.067m-11.903-2.845a.555.555 0 10.794.775.555.555 0 00-.794-.775m-2.98-10.671a.555.555 0 00.681-.631h-1.084a.553.553 0 00.403.631m14.227 11.237a9.078 9.078 0 01-4.016.197l-.202.789a9.886 9.886 0 004.437-.203 9.9 9.9 0 003.91-2.14l-.582-.57a9.09 9.09 0 01-3.547 1.927m7.278-10.78l-.783.22a9.13 9.13 0 01-1.936 7.604l.585.572a9.95 9.95 0 002.134-8.396m-18.341-1.088h-.852a9.936 9.936 0 00-.286 5.04l.783-.22a9.135 9.135 0 01.355-4.82m.035 6.212l-.783.219a9.944 9.944 0 006.192 6.075l.203-.793a9.128 9.128 0 01-5.612-5.501" fill="#303030"/><path d="M289.84 77.947c1.674.384 3.146-1.136 3.14-2.433-.003-.822-.227-1.43-.598-1.867h-8.348c.011 1.608.048 4.866.17 5.756.166 1.194 1.116 2.275 2.692 2.247 1.712-.03 2.865-1.753 2.478-3.251.642 1.48.543 3.188.543 3.188l3.091-3.162s-1.674.118-3.168-.478" fill="#FFF"/><path d="M273.428 73.647a15.204 15.204 0 00-.314 2.967h30.016a15.065 15.065 0 00-.312-2.967h-29.39z" fill="#000" opacity=".2"/><path d="M302.518 106.815a15 15 0 00-3.411.097c-8.208 1.204-13.888 8.838-12.685 17.051.866 5.91 5.066 10.493 10.41 12.16l5.686-29.308z" fill="#2A2F3F"/><path d="M299.623 110.435c-1.78.261-3.579.334-3.625.022l-.334-2.284a14.75 14.75 0 00-6.324 4.999l2.149.854c.292.117-.196 1.86-.857 3.525-.664 1.672-1.5 3.268-1.793 3.151l-2.15-.854a14.763 14.763 0 001.174 7.979l1.809-1.433c.247-.195 1.511 1.1 2.622 2.505 1.116 1.412 2.079 2.935 1.831 3.13l-1.819 1.439a14.685 14.685 0 003.539 2.02c.345.137.69.257 1.039.365l.824-4.252c-.094-.034-.188-.059-.282-.096-5.366-2.132-7.989-8.213-5.857-13.583 1.674-4.218 5.785-6.73 10.072-6.583l.263-1.358c-.638.17-1.454.332-2.28.454m-7.792 7.592c-2.073 5.224.478 11.14 5.699 13.215.076.031.155.05.232.08l.234-1.208-.017-.006c-4.595-1.825-6.84-7.033-5.016-11.631 1.404-3.532 4.803-5.668 8.386-5.643l.236-1.214c-4.156-.122-8.132 2.318-9.754 6.407" fill="#FFF"/><path d="M297.045 132.457a.554.554 0 10-.41 1.03.554.554 0 00.41-1.03m-7.748-9.479a.554.554 0 10.163 1.097.554.554 0 00-.163-1.097m4.18-11.075a.554.554 0 10.69.869.554.554 0 00-.69-.87m-.923 7.158l-.756-.299a9.951 9.951 0 001.248 8.586l.642-.506a9.137 9.137 0 01-1.134-7.78m2.035 8.907l-.64.505a9.888 9.888 0 003.654 2.53c.069.027.139.043.208.069l.157-.805c-.021-.007-.044-.012-.065-.02a9.087 9.087 0 01-3.314-2.279m5.972-16.151l.118.806c.236-.016.475-.013.714-.01l.158-.816a10.46 10.46 0 00-.99.02m-8.231 5.601l.755.3a9.128 9.128 0 016.165-4.893l-.12-.81a9.946 9.946 0 00-6.8 5.403" fill="#303030"/><path d="M297.348 125.044a2.498 2.498 0 001.54.474l1.817-9.354c-.081.006-.16.009-.243.021-2.116.31-2.8 2.726-1.75 4.095-1.353.178-1.937.977-2.144 1.345-.592 1.05-.49 2.486.78 3.419" fill="#FFF"/><path d="M296.832 136.123l5.686-29.308a15.253 15.253 0 00-2.856.033l-2.961 29.228.13.047" fill="#000" opacity=".2"/><path d="M253.496 73.647c-.012.92.05 1.854.215 2.794 1.425 8.178 9.205 13.65 17.378 12.226 7.377-1.288 12.533-7.758 12.423-15.02h-30.016z" fill="#C8263A"/><path d="M278.954 73.647a10.435 10.435 0 01-.628 3.81c-1.986 5.424-7.99 8.212-13.412 6.226-4.305-1.578-6.938-5.692-6.85-10.036h-4.27a14.807 14.807 0 001.46 6.616c.757-.632 1.637-1.367 1.77-1.48.243-.201 1.541 1.059 2.69 2.433 1.153 1.382 2.157 2.878 1.915 3.08-.134.112-1.02.854-1.78 1.487a14.667 14.667 0 003.592 1.923c1.317.482 2.656.755 3.985.853l-.399-2.289c-.053-.31 1.679-.804 3.45-1.113 1.765-.308 3.57-.431 3.624-.12l.397 2.276a14.755 14.755 0 006.185-5.169c-.928-.338-2.008-.734-2.172-.794-.296-.11.142-1.856.76-3.547.616-1.682 1.412-3.308 1.708-3.2l2.172.796c.061-.586.079-1.171.07-1.752h-4.267zm-13.942 9.77c5.275 1.932 11.116-.78 13.047-6.058.45-1.226.637-2.481.611-3.712h-1.218a8.92 8.92 0 01-.538 3.293c-1.7 4.644-6.84 7.031-11.483 5.33-3.696-1.354-5.954-4.892-5.866-8.623h-1.218c-.088 4.228 2.474 8.235 6.665 9.77z" fill="#FFF"/><path d="M264.559 84.645a.553.553 0 10-.381 1.04.553.553 0 00.381-1.04m12.09-1.901a.555.555 0 00-.85.712.554.554 0 00.85-.712m-20.09-7.365a.554.554 0 10.189 1.094.554.554 0 00-.19-1.094m21.059-1.732a9.124 9.124 0 01-.326 2.631l.763.28a9.95 9.95 0 00.373-2.911h-.81zm-6.833 9.03l.14.805a9.944 9.944 0 006.633-5.567l-.763-.28a9.125 9.125 0 01-6.01 5.041zm-5.427-.265a9.092 9.092 0 01-3.374-2.188l-.626.523a9.907 9.907 0 003.72 2.428 9.902 9.902 0 004.424.548l-.14-.803a9.083 9.083 0 01-4.004-.508zm-6.786-8.765a9.928 9.928 0 001.852 5.998l.627-.525a9.128 9.128 0 01-1.67-5.473h-.809z" fill="#C8263A"/><path d="M263.292 73.647c.158.565.437 1.065.785 1.384.89.812 5.483 4.6 5.483 4.6s2.713-4.536 3.504-5.984h-9.772z" fill="#FFF"/><path d="M253.71 76.441c.01.058.028.114.04.172h29.502c.18-.966.276-1.957.26-2.966h-30.016c-.012.92.05 1.854.214 2.794" fill="#000" opacity=".2"/><path d="M241.223 73.647h-37.27l8.211 29.577a3.59 3.59 0 004.422 2.5l27.68-7.694a3.594 3.594 0 002.498-4.424l-5.54-19.959z" fill="#F9F9F9"/><path d="M240.477 73.647h-.372l5.621 20.247a2.519 2.519 0 01-1.749 3.097l-27.68 7.694a2.517 2.517 0 01-3.095-1.75l-8.13-29.288h-.374l8.158 29.384a2.876 2.876 0 003.537 2l27.68-7.693a2.879 2.879 0 002-3.54l-5.596-20.151z" fill="#EBEBEB"/><path d="M221.043 73.647c-.034.06-.067.119-.104.18-.654 1.096-1.5 2.245-1.5 2.245s1.34.56 2.477 1.168a21.43 21.43 0 012.025 1.24s.45-1.025 1.097-2.111c.66-1.106 1.52-2.275 1.52-2.275s-.436-.182-1.015-.447h-4.5zm16.099 12.477c-1.13-.604-2.071-1.265-2.071-1.265s-.462 1.043-1.116 2.14c-.653 1.097-1.5 2.247-1.5 2.247s1.34.56 2.477 1.167a21.33 21.33 0 012.025 1.24s.45-1.024 1.098-2.111c.659-1.106 1.518-2.275 1.518-2.275s-1.31-.543-2.431-1.143m-17.33 4.817c-1.13-.604-2.072-1.265-2.072-1.265s-.46 1.043-1.115 2.141c-.654 1.097-1.5 2.246-1.5 2.246s1.34.56 2.477 1.167a21.379 21.379 0 012.025 1.241s.448-1.025 1.098-2.112a33.17 33.17 0 011.518-2.274s-1.31-.543-2.43-1.144m22.923-.571c-.39-.21-.709-.435-.709-.435s-.157.36-.385.739c-.23.388-.53.797-.53.797s.458.19.85.4c.396.211.725.443.725.443s.162-.366.39-.75c.23-.383.526-.786.526-.786s-.469-.196-.867-.409m1.344 3.923l-.282.018s-.21.169-.5.249c-.27.075-.458.008-.543-.304-.084-.3.041-.516.333-.598.32-.089.791-.137.791-.137l-.043-.333s-.512.003-.9.11c-.54.152-.766.55-.608 1.12.15.538.514.67 1.017.531.25-.07.476-.26.476-.26l.12.68-1.165.325.104.373 1.503-.419-.302-1.355z" fill="#DB394B"/><path fill="#000" opacity=".2" d="M241.223 73.647h-37.27l.824 2.967h37.27z"/><path d="M182.58 73.647l-9.303 30.826a3.433 3.433 0 002.292 4.279l26.28 7.94a3.43 3.43 0 004.278-2.293l12.3-40.752h-35.846z" fill="#F9F9F9"/><path d="M217.352 73.647l-12.21 40.454a2.405 2.405 0 01-2.995 1.606l-26.28-7.941a2.408 2.408 0 01-1.605-2.996l9.394-31.123h-.358l-9.364 31.024a2.75 2.75 0 001.834 3.423l26.28 7.942a2.747 2.747 0 003.422-1.835l12.24-40.554h-.358z" fill="#EBEBEB"/><path d="M201.302 77.438c-.251-.076-.538-.077-.824-.042.448-.284.823-.748.965-1.218a1.615 1.615 0 00-3.091-.934c-.138.458-.09 1.032.111 1.51a2.094 2.094 0 00-.698-.386 1.615 1.615 0 00-.934 3.093c.448.135 1.007.092 1.477-.098l-.776.99 1.767.535-.1-1.279c.278.43.721.785 1.17.92.835.253 1.72-.234 1.978-1.089.257-.853-.21-1.75-1.045-2.002m9.706-2.448c-.25-.075-.536-.076-.823-.041.448-.284.823-.748.964-1.218.009-.028.01-.056.017-.084h-3.163c.028.226.08.452.167.66a2.106 2.106 0 00-.699-.385 1.614 1.614 0 00-.933 3.092c.447.136 1.007.093 1.477-.097l-.776.99 1.767.534-.101-1.279c.28.43.722.785 1.17.92.836.253 1.722-.234 1.979-1.089.257-.853-.21-1.75-1.046-2.002m-2.984 9.886a2.049 2.049 0 00-.795-.058c.435-.286.797-.74.936-1.202a1.614 1.614 0 10-3.09-.934c-.139.46-.09 1.035.113 1.513a2.126 2.126 0 00-.7-.388 1.614 1.614 0 00-.934 3.092c.447.136 1.007.093 1.477-.097l-.777.99 1.768.534-.101-1.279c.28.43.722.785 1.17.92.835.254 1.721-.234 1.979-1.089.257-.853-.21-1.75-1.046-2.002M191.6 79.914a2.065 2.065 0 00-.796-.06c.435-.285.797-.738.936-1.2a1.616 1.616 0 00-3.09-.935c-.139.46-.09 1.036.113 1.513a2.12 2.12 0 00-.7-.388 1.614 1.614 0 00-2.012 1.08 1.614 1.614 0 001.078 2.012c.447.136 1.007.093 1.477-.097l-.777.99 1.768.535-.101-1.28c.28.43.722.786 1.17.921.835.253 1.721-.234 1.979-1.089.257-.854-.21-1.75-1.046-2.002m-2.338 7.746c-.448-.136-1.013-.085-1.484.118l.792-1.01-1.767-.533.1 1.254c-.288-.419-.73-.763-1.178-.898a1.614 1.614 0 00-.933 3.091c.243.074.52.09.797.066-.432.285-.791.738-.93 1.197a1.615 1.615 0 003.09.933c.14-.461.09-1.04-.116-1.519.216.177.454.32.696.392.835.252 1.721-.235 1.979-1.09.257-.853-.21-1.75-1.046-2.002m16.425 4.964c-.448-.136-1.013-.085-1.483.118l.792-1.01-1.768-.533.099 1.255c-.286-.419-.73-.763-1.177-.9a1.614 1.614 0 00-.933 3.092c.243.074.52.09.798.066-.432.285-.792.738-.931 1.197a1.614 1.614 0 103.09.934c.14-.461.09-1.04-.115-1.519.215.177.453.32.695.392.836.252 1.721-.236 1.979-1.09.257-.854-.21-1.75-1.046-2.002m-2.968 9.835c-.448-.135-1.014-.085-1.485.12l.792-1.011-1.767-.533.1 1.255c-.287-.42-.73-.765-1.177-.9a1.615 1.615 0 00-.933 3.092c.243.073.52.09.797.065-.433.286-.792.738-.93 1.197a1.615 1.615 0 003.09.934c.14-.462.09-1.04-.116-1.519.216.177.454.318.696.392.834.252 1.72-.235 1.978-1.09.258-.854-.21-1.75-1.045-2.002m-16.425-4.964c-.448-.135-1.013-.084-1.484.12l.792-1.01-1.768-.534.1 1.255c-.287-.418-.73-.764-1.177-.9a1.615 1.615 0 00-.933 3.092c.243.073.52.09.797.066-.433.285-.792.738-.93 1.197a1.614 1.614 0 103.09.933c.14-.461.09-1.039-.116-1.518.216.178.454.319.696.392.834.252 1.72-.236 1.978-1.09.258-.854-.21-1.75-1.045-2.003m9.698-2.459c-.448-.135-1.013-.085-1.483.119l.791-1.01-1.767-.533.098 1.253c-.286-.418-.729-.762-1.176-.898a1.613 1.613 0 00-2.011 1.08 1.613 1.613 0 001.078 2.012c.243.073.52.09.797.065-.432.286-.791.738-.93 1.198a1.615 1.615 0 003.09.932c.14-.46.09-1.039-.115-1.517.215.178.453.319.695.391.835.253 1.721-.235 1.978-1.089.258-.854-.21-1.75-1.045-2.003m8.727 14.372a.807.807 0 00-.52.038l.275-.35-.619-.188.037.457a.784.784 0 00-.41-.33.557.557 0 00-.693.38.56.56 0 00.366.7.742.742 0 00.304.014.805.805 0 00-.354.428.565.565 0 001.082.326.803.803 0 00-.055-.548.74.74 0 00.26.155.565.565 0 00.327-1.082m-1.885 3.97c-.212.705-.43.861-.76.76-.337-.101-.423-.353-.212-1.054.199-.654.415-.81.74-.71.329.098.43.35.232 1.004zm-.123-1.354c-.571-.174-.99.028-1.264.935-.283.94-.058 1.355.52 1.53.575.173 1-.049 1.283-.986.275-.91.032-1.307-.539-1.479zm.945 2.435l.582-1.93-.4-.122-.721 2.386.369.112.495-.15-.093-.356-.232.06z" fill="#3D3D3D"/><path fill="#000" opacity=".2" d="M181.686 76.613h35.846l.896-2.966H182.58z"/><path d="M161.262 73.647l-5.871 11.347a3.735 3.735 0 001.598 5.033l26.516 13.736a3.73 3.73 0 005.03-1.6l14.756-28.516h-42.03z" fill="#F9F9F9"/><path d="M190.84 95.676l.21-.404-.82-2.582 2.58-.82.21-.405-3.194 1.016 1.015 3.195zm-7.984.372l1.755 5.522 3.807-1.21.209-.404-3.807 1.21-1.56-4.91 5.213-1.656 1.113 3.503.21-.405-1.113-3.503-5.827 1.853zm.809.418l1.363 4.295 3.808-1.21.122-.235-1.113-3.504-3.372 1.073.974 3.068 2.76-.878-.78-2.454-2.146.683.585 1.84 1.532-.487-.39-1.227-.92.293.196.613.307-.097-.098-.307.306-.098.195.614-.92.292-.39-1.227 1.535-.487.583 1.84-2.146.683-.779-2.454 2.76-.878.974 3.068-3.374 1.073-1.168-3.682 3.986-1.267 1.113 3.502.209-.404-1.113-3.503-4.6 1.462zm7.594-1.598l.21-.404-.43-1.355 1.353-.43.21-.405-1.968.626.625 1.968zm-4.083 7.576l-2.387.759a2.747 2.747 0 002.387-.76zm-5.936-7.234l2.402 7.562.329.17c.083.044.17.069.255.103l3.317-1.056c.05-.076.108-.146.15-.23l.097-.187-3.807 1.211-2.34-7.363 7.667-2.437 1.112 3.502.21-.404-1.113-3.503-8.28 2.632zm10.438-1.151l.21-.405-.041-.127.127-.04.21-.405-.742.235.236.742zm-9.63 1.57l2.144 6.75 3.807-1.21.21-.405-3.808 1.211-1.949-6.137 6.44-2.047 1.112 3.503.21-.405-1.113-3.502-7.053 2.242zm-8.365 1.984l.403.21 6.638-2.11 2.109 6.64.405.21-2.304-7.256-7.25 2.306zm4.04 2.093l.404.21.505-.16.16.504.404.21-.355-1.119-1.118.355zm-5.246-10.83l-7.053 2.243.843 2.653.404.21-.843-2.654 6.44-2.048 2.142 6.75-2.343.746.404.21 2.344-.746-2.338-7.364zm.417-.809l-8.279 2.633.843 2.653.404.21-.842-2.653 7.666-2.438 2.533 7.977-2.345.745.404.21 2.345-.746-2.729-8.59zm1.597 9.965l.404.21 5.41-1.721 1.72 5.414.404.209-1.914-6.028-6.024 1.916zm.808.418l.404.21 4.184-1.33 1.33 4.187.404.21-1.525-4.802-4.797 1.525zm1.617.838l.404.21 1.73-.551.55 1.732.405.21-.745-2.347-2.344.746zm-.809-.419l.404.21 2.958-.94.94 2.959.404.21-1.135-3.573-3.57 1.134zm19.546-12.492l.209-.404-.43-1.355 1.354-.43.208-.404-1.966.624.625 1.969zm.008-12.73h-.337l1.42 4.473 3.807-1.21.209-.405-3.806 1.211-1.293-4.07zm4.39 0l.694 2.188-3.374 1.073-1.035-3.261H196l1.164 3.665 3.806-1.211.123-.236-.704-2.218h-.338zM182.4 85.045l2.534 7.977 7.665-2.436-2.339-7.365-7.052 2.243 2.144 6.75 6.439-2.047-1.948-6.137-5.827 1.852 1.754 5.523 5.212-1.657-1.558-4.91-4.6 1.464 1.364 4.295 3.987-1.269-1.17-3.68-3.373 1.072.975 3.068 2.76-.877-.78-2.455-2.147.683.585 1.84 1.533-.487-.39-1.228-.92.293.196.613.306-.097-.097-.306.306-.097.195.612-.92.293-.39-1.227 1.534-.487.584 1.84-2.146.683-.78-2.455 2.76-.877.975 3.068-3.374 1.072-1.169-3.68 3.987-1.269 1.363 4.295L185.98 91l-1.558-4.91 5.212-1.657 1.754 5.523-5.827 1.853-1.948-6.137 6.44-2.046 2.143 6.75-7.052 2.241-2.34-7.364 7.667-2.436 2.533 7.977-8.28 2.632-2.63-8.284-8.893 2.827 2.73 8.591 8.278-2.632-2.533-7.978-7.666 2.438 2.338 7.363 7.053-2.242-2.144-6.75-6.439 2.047 1.948 6.136 5.827-1.852-1.754-5.523-5.214 1.657 1.56 4.91 4.6-1.463-1.364-4.295-3.987 1.267 1.17 3.683 3.373-1.073-.975-3.067-2.76.877.78 2.454 2.146-.683-.585-1.84-1.533.488.39 1.226.92-.293-.195-.613-.306.097.097.308-.307.097-.194-.613.92-.293.39 1.227-1.534.488-.585-1.84 2.147-.684.78 2.454-2.76.878-.975-3.068 3.373-1.073 1.17 3.682-3.987 1.267-1.364-4.295 4.6-1.462 1.559 4.909-5.214 1.657-1.753-5.523 5.826-1.852 1.95 6.137-6.441 2.047-2.143-6.75 7.053-2.242 2.338 7.363-7.666 2.438-2.533-7.978 8.28-2.632 2.63 8.284 8.713-2.77.123-.237-2.672-8.411-8.28 2.632zm19.675-11.398l.063.197.1-.197h-.163zm-7.765 0h-.338l1.935 6.09 3.807-1.21.209-.404-3.807 1.21-1.806-5.686zm7.09 0l.32 1.005.208-.405-.19-.6h-.339zm-.676 0l.576 1.814.21-.404-.448-1.41h-.338zm-5.739 0h-.337l1.677 5.282 3.807-1.21.21-.405-3.808 1.21-1.549-4.877zm-22.928 16.038l-5.827 1.852.844 2.653.403.21-.842-2.654 5.213-1.657 1.754 5.523-2.345.746.404.209 2.344-.746-1.948-6.136zm24.013-4.117l.21-.404-.041-.128.127-.04.21-.404-.741.235.235.741zm-.837 1.618l.21-.405-.82-2.582 2.58-.82.21-.404-3.195 1.015 1.015 3.196zm-1.673 3.234l.208-.404-2.378-7.491 7.487-2.381.209-.403-8.1 2.574 2.574 8.105zm.074-16.773h-.336l2.19 6.899 3.807-1.21.21-.404-3.808 1.21-2.063-6.495zm1.18 14.348l.21-.405-1.21-3.81 3.808-1.21.21-.404-4.422 1.406 1.405 4.423zm-.418.808l.21-.404-1.6-5.037 5.034-1.6.21-.405-5.648 1.796 1.794 5.65zm-.418.808l.209-.404-1.989-6.263 6.26-1.991.21-.404-6.874 2.185 2.184 6.877zm-24.817-11.17l-1.522-4.794h-.337l1.456 4.585-7.054 2.242-1.113-3.503-.208.403 1.113 3.505 7.665-2.438zm-2.424-1.255l-1.124-3.54h-.497l-2.921.93.974 3.068 2.76-.877-.78-2.455-2.146.682.585 1.841 1.533-.487-.39-1.228-.92.293.195.614.307-.098-.098-.307.307-.097.194.613-.92.293-.389-1.227 1.533-.488.585 1.842-2.147.682-.78-2.455 2.76-.877.975 3.068-3.373 1.072-1.113-3.504-.21.405 1.114 3.504 3.986-1.267zm-7.819 3.018l-.209.404.041.13-.13.04-.209.405.743-.235-.236-.744zm19.638-4.073l-.79-2.484h-.337l.722 2.274-7.666 2.437-1.495-4.711h-.338l1.624 5.116 8.28-2.632zm7.81-2.484h-1.063l-6.232 1.981-.628-1.981h-.338l.758 2.385 7.502-2.385zm-23.374 0l-.814.259-.21.404 2.085-.663h-1.061zm4.554 3.957l-1.258-3.957h-.337l1.19 3.747-4.6 1.463-1.112-3.504-.209.404 1.112 3.505 5.214-1.658zm.808.418l-1.39-4.375h-.338l1.324 4.166-5.827 1.852-1.113-3.503-.21.404 1.114 3.505 6.44-2.049zm9.393-2.31l-.654-2.065h-.339l.59 1.855-6.44 2.047-1.239-3.902h-.338l1.368 4.307 7.052-2.242zm6.493-2.065h-1.063l-3.687 1.172-.372-1.172h-.338l.5 1.577 4.96-1.577zm-2.124 0h-1.064l-1.144.364-.115-.364h-.338l.244.768 2.417-.768zm-11.282 8.996l2.146-.683.779 2.454-2.76.877-.974-3.068 3.374-1.072 1.168 3.682-3.986 1.267-1.364-4.295 4.6-1.463 1.559 4.91-5.213 1.657-1.754-5.523 5.826-1.852 1.949 6.136-6.44 2.048-2.143-6.75 7.052-2.242 2.34 7.363-7.667 2.437-2.533-7.977 8.279-2.632 2.63 8.284 8.894-2.827-2.729-8.592-8.28 2.633 2.534 7.977 7.666-2.437-2.338-7.364-7.053 2.242 2.144 6.75 6.44-2.046-1.95-6.137-5.826 1.852 1.754 5.522 5.213-1.657-1.559-4.908-4.6 1.462 1.365 4.295 3.986-1.268-1.17-3.68-3.372 1.072.974 3.068 2.76-.878-.78-2.455-2.147.683.585 1.84 1.534-.486-.39-1.228-.92.293.194.613.307-.097-.097-.307.307-.097.195.613-.921.293-.39-1.227 1.534-.487.585 1.84-2.147.682-.78-2.454 2.76-.877.974 3.067-3.372 1.073-1.17-3.683 3.986-1.266 1.365 4.295-4.6 1.463-1.559-4.91 5.214-1.657 1.753 5.522-5.826 1.853-1.95-6.136 6.44-2.048 2.144 6.751-7.053 2.242-2.338-7.364 7.666-2.437 2.534 7.978-8.28 2.631-2.63-8.284-8.893 2.828 2.728 8.59 8.279-2.631-2.533-7.978-7.666 2.438 2.338 7.363 7.053-2.242-2.144-6.75-6.44 2.047 1.95 6.136 5.826-1.852-1.754-5.523-5.213 1.657 1.56 4.91 4.598-1.463-1.363-4.295-3.987 1.267 1.17 3.683 3.372-1.073-.974-3.07-2.76.879.78 2.455 2.146-.683-.585-1.841-1.532.488.389 1.227.92-.293-.195-.614-.307.098.098.307-.306.098-.195-.614.92-.292.39 1.226-1.534.488-.584-1.84zm5.298-7.77l-.39-1.226h-.338l.323 1.017-3.986 1.268-.726-2.285h-.337l.853 2.69 4.6-1.464zm.807.42l-.522-1.646h-.338l.456 1.436-5.213 1.657-.982-3.093h-.337l1.11 3.498 5.826-1.853zm-5.3 15.2l-4.6 1.463.842 2.653.405.21-.843-2.654 3.986-1.267 1.365 4.295-2.345.746.404.21 2.345-.746-1.56-4.91zm1.977-16.846h-.913l.084.264.83-.264zm1.707.809l-.256-.81h-.339l.191.6-2.76.877-.469-1.476h-.337l.597 1.88 3.373-1.071zm-.808-.42l-.124-.39h-.338l.058.181-1.533.488-.213-.668h-.337l.34 1.072 2.147-.682zm-17.151 9.173l-.21.404.132-.042 2.11 6.642.404.21-2.304-7.256-.132.042zm-.418.808l-.21.405.132-.042 1.72 5.415.404.209-1.915-6.028-.131.041zm2.39-4.62l-.209.403.43 1.357-1.355.432-.209.403 1.969-.625-.625-1.97zm3.435 12.565l.403.209.506-.161.16.505.405.21-.355-1.119-1.12.356zm8.45-.66l-3.373 1.072.842 2.653.546.284 2.345-.746-.78-2.455-2.146.683.585 1.842 1.533-.488-.39-1.228-.92.293.195.614.307-.098-.097-.307.306-.098.195.614-.92.292-.39-1.226 1.533-.488.585 1.84-2.146.683-.78-2.454 2.76-.877.974 3.068-2.344.745.403.209 2.346-.745-1.17-3.683zm-9.259.24l.405.21 1.732-.55.55 1.732.404.21-.745-2.347-2.346.746zm4.12-11.105l-8.28 2.632 2.402 7.563.547.283 7.251-2.306-2.339-7.363-7.053 2.242 2.144 6.75 6.44-2.047-1.948-6.136-5.827 1.852 1.754 5.523 5.212-1.657-1.559-4.91-4.6 1.463 1.364 4.295 3.987-1.267-1.17-3.683-3.372 1.073.975 3.068 2.76-.877-.78-2.455-2.147.683.585 1.841 1.533-.489-.39-1.226-.92.293.195.614.307-.098-.098-.308.307-.097.195.613-.92.293-.39-1.227 1.534-.488.584 1.84-2.146.684-.78-2.454 2.76-.878.975 3.068-3.374 1.073-1.169-3.682 3.986-1.267 1.364 4.295-4.599 1.462-1.56-4.909 5.213-1.657 1.755 5.523-5.827 1.851-1.949-6.136 6.44-2.047 2.144 6.75-7.053 2.242-2.339-7.363 7.666-2.438 2.534 7.978-7.252 2.305.404.21 7.252-2.306-2.728-8.591zm-9.947 5.19a2.774 2.774 0 00-.144.383l.04-.013.918 2.89c.132.103.272.197.426.278l-1.134-3.572-.106.034zm.392-.8l-.21.404.132-.043 1.33 4.188.404.21-1.524-4.801-.132.041zm13.443-5.967l-1.656-5.213h-.337l1.588 5.004-8.278 2.632-1.113-3.504-.21.404 1.113 3.504 8.893-2.827zm-10.215-.273l-.209.405.82 2.583-2.582.821-.209.405 3.195-1.017-1.015-3.197zm27.147 4.69l8.28-2.633-2.223-6.997h-.337l2.156 6.787-7.667 2.438-2.533-7.977 3.923-1.248h-1.062l-3.265 1.038 2.728 8.591zm.419-.81l7.052-2.242-2.089-6.578h-.596l-5.898 1.876 1.949 6.136 5.826-1.853-1.754-5.523-5.213 1.658 1.56 4.909 4.599-1.462-1.365-4.296-3.985 1.267 1.168 3.682 3.374-1.072-.974-3.068-2.76.877.779 2.454 2.146-.682-.584-1.84-1.534.487.39 1.226.92-.29-.195-.615-.306.098.098.307-.308.097-.194-.614.92-.292.389 1.228-1.532.487-.585-1.842 2.147-.682.778 2.455-2.76.878-.973-3.07 3.372-1.071 1.17 3.681-3.987 1.267-1.364-4.295 4.6-1.461 1.559 4.908-5.213 1.657-1.754-5.522 5.826-1.852 1.95 6.136-6.44 2.047-2.144-6.75 5.24-1.666h-1.062l-4.582 1.457 2.339 7.363zm13.019-6.841l-.628-1.98h-.338l.561 1.77-2.146.683-.779-2.452h-.337l.907 2.856 2.76-.877zm-.809-.419l-.39-1.227-.92.292.196.614.307-.098-.098-.306.307-.098.195.614-.92.293-.39-1.229 1.307-.415h-1.062l-.649.206.584 1.841 1.533-.487zm-43.09 13.143l-.534-1.683a2.759 2.759 0 00.534 1.683z" fill="#A7A7A7"/><path d="M202.03 73.647l-14.489 28.002a2.617 2.617 0 01-3.522 1.119l-26.515-13.736a2.619 2.619 0 01-1.12-3.524l6.138-11.861h-.42l-6.049 11.69a2.991 2.991 0 001.28 4.026l26.515 13.737a2.988 2.988 0 004.024-1.28l14.578-28.173h-.42z" fill="#A7A7A7"/><path fill="#000" opacity=".2" d="M159.727 76.613h42.029l1.534-2.966h-42.028z"/><path d="M134.353 83.09a14.944 14.944 0 00-7.159 1.709l5.908 28.293c.286.02.57.05.86.055 8.296.107 15.107-6.534 15.216-14.833.108-8.301-6.529-15.117-14.825-15.225" fill="#2A2F3F"/><path d="M148.365 94.273l-2.014 1.129c-.274.154-1.315-1.317-2.194-2.888-.875-1.563-1.59-3.225-1.314-3.38L144.868 88a14.685 14.685 0 00-3.176-2.554 14.678 14.678 0 00-3.758-1.573l-.03 2.32c-.004.315-1.806.48-3.597.457-1.798-.024-3.587-.237-3.582-.552l.03-2.306c-1.213.29-2.386.739-3.495 1.325l.924 4.426c3.263-2.272 7.68-2.58 11.318-.415 4.962 2.954 6.592 9.374 3.641 14.339-2.327 3.913-6.805 5.743-11.028 4.902l.262 1.252a23.69 23.69 0 011.632-.035c1.79.023 3.587.235 3.583.55l-.03 2.31a14.738 14.738 0 007.031-3.937l-1.987-1.182c-.27-.16.483-1.798 1.403-3.345.915-1.54 1.998-2.99 2.268-2.83.15.091 1.14.679 1.987 1.184.798-2.667.8-5.458.1-8.062m-5.465 9.048c2.872-4.831 1.286-11.076-3.541-13.95-3.578-2.129-7.928-1.804-11.111.47l.277 1.327c2.83-2.296 6.896-2.72 10.21-.747 4.25 2.528 5.644 8.024 3.117 12.277-2.108 3.547-6.282 5.096-10.075 4.046l.277 1.324c4.143.877 8.56-.903 10.846-4.747" fill="#FFF"/><path d="M140.595 87.294a.554.554 0 10-.566.953.554.554 0 00.566-.953m5.602 10.429a.553.553 0 10-.015 1.107.553.553 0 00.015-1.107m-6.432 10.417a.555.555 0 10.545.968.555.555 0 00-.545-.968M128.01 87.129a.552.552 0 00-.26.326l.102.492a.547.547 0 00.911-.606.552.552 0 00-.753-.212m6.758 20.074l-.01.818a9.936 9.936 0 007.544-4.247l-.697-.416a9.123 9.123 0 01-6.837 3.845zm8.41-13.343l-.714.4a9.14 9.14 0 01-.12 7.857l.698.416a9.951 9.951 0 00.135-8.673zm-14.701-2.918a9.112 9.112 0 015.084-1.991l.011-.819a9.917 9.917 0 00-5.28 1.92l.185.89zm13.278 2.06l.71-.398a9.912 9.912 0 00-3.217-3.089 9.898 9.898 0 00-4.232-1.354l-.011.816a9.077 9.077 0 013.827 1.237 9.105 9.105 0 012.923 2.787zm-9.762 14.782a9.83 9.83 0 001.32.21l.011-.814a9.319 9.319 0 01-1.515-.28l.184.884z" fill="#303030"/><path d="M138.748 97.232c-.816-1.087-4.518-4.833-4.518-4.833s-3.439 3.291-4.51 4.499l.894 4.28c1.157.462 2.561.036 3.205-1.001-.627 1.486-1.932 2.594-1.932 2.594l4.42.057s-1.24-1.13-1.838-2.623c.877 1.477 2.99 1.493 3.925.595 1.261-1.213 1.17-2.482.354-3.568" fill="#FFF"/><path d="M129.485 83.836c-.793.26-1.561.58-2.291.963l5.908 28.293c.286.02.57.05.86.054.095.001.188-.01.282-.01l-4.76-29.3z" fill="#000" opacity=".2"/><path d="M92.992 113.22L62.79 123.724l-3.07-8.877-2.647 3.699-4.375-1.268 1.832 5.288-3.458-4.589a2.613 2.613 0 00-3.66-.502l-20.578 15.506-6.277-8.343-1.387 4.336-4.55.138 6.276 8.343-18.652 14.056c-.6.451-.95 1.105-1.031 1.797-.072.633-.68 4.825-.78 5.478a2.627 2.627 0 00.498 1.95l1.41 1.871s-1.843 1.726-1.186 2.599c.657.872 2.951-.257 2.951-.257l2.821 3.743c-.059.076-1.812 1.755-1.175 2.6.647.859 2.85-.223 2.94-.259l2.825 3.75c-.069.063-1.827 1.735-1.18 2.594.637.845 2.84-.237 2.93-.273l2.86 3.797c-.068.063-1.827 1.735-1.185 2.587.647.859 2.845-.23 2.935-.265l2.805 3.723c-.069.062-1.827 1.734-1.18 2.593.652.866 2.855-.216 2.935-.265l2.836 3.763c-.06.076-1.823 1.741-1.176 2.6s2.85-.223 2.935-.265l2.836 3.763c-.07.063-1.812 1.755-1.175 2.6.652.866 2.85-.223 2.939-.258l2.82 3.743c-.068.062-1.827 1.734-1.174 2.6.637.845 2.84-.237 2.924-.279l2.826 3.75c-.07.063-1.828 1.735-1.18 2.593.652.866 2.855-.216 2.934-.265l2.82 3.743c-.063.07-1.816 1.748-1.18 2.594.653.865 2.85-.223 2.935-.266l1.613 2.14a2.612 2.612 0 003.657.526l11.82-8.907c.612 1.064 1.873 1.617 3.075 1.195l53.389-18.616c.92-.305 1.543-1.09 1.722-1.972.091-.426.629-4.712.79-5.59.084-.421.065-.88-.094-1.329l-25.03-72.319a2.585 2.585 0 00-3.306-1.6" fill="#434655" opacity=".1"/><path d="M47.408 117.474L2.24 151.51a2.618 2.618 0 00-.514 3.659l46.033 61.088a2.607 2.607 0 003.659.514l45.167-34.037a2.609 2.609 0 00.521-3.663l-46.033-61.088a2.62 2.62 0 00-3.665-.51" fill="#86CDA1"/><path d="M13.413 160.563a1.75 1.75 0 01-.356 2.456c-.78.588-1.882.43-2.465-.33a1.765 1.765 0 01.357-2.468 1.752 1.752 0 012.464.342" fill="#2E6893"/><path d="M6.267 167.097l6.31-4.734a.94.94 0 00-1.132-1.503l-6.3 4.748a.934.934 0 00-.181 1.314.93.93 0 001.303.175" fill="#E1E0E5"/><path d="M22.583 172.747a1.769 1.769 0 01-.35 2.462 1.772 1.772 0 01-2.474-.355 1.769 1.769 0 01.35-2.462 1.761 1.761 0 012.474.355" fill="#2E6893"/><path d="M15.438 179.282l6.3-4.748a.945.945 0 00.197-1.294.94.94 0 00-1.318-.195l-6.301 4.747a.93.93 0 00-.191 1.301.934.934 0 001.313.189" fill="#E1E0E5"/><path d="M31.744 184.918a1.758 1.758 0 01-.35 2.462 1.76 1.76 0 01-2.47-.337 1.753 1.753 0 01.362-2.46 1.756 1.756 0 012.458.335" fill="#2E6893"/><path d="M24.604 191.458l6.311-4.734a.945.945 0 00.181-1.315.945.945 0 00-1.313-.188l-6.306 4.741a.936.936 0 00-.176 1.321c.309.41.886.49 1.303.175" fill="#E1E0E5"/><path d="M40.92 197.108a1.769 1.769 0 01-.35 2.463 1.769 1.769 0 01-2.464-.342 1.772 1.772 0 01.34-2.476 1.772 1.772 0 012.474.355" fill="#2E6893"/><path d="M33.638 203.747l6.568-4.94a.765.765 0 00.147-1.078l-.19-.267a.776.776 0 00-1.078-.155l-6.568 4.939a.777.777 0 00-.154 1.083l.197.262a.77.77 0 001.078.156" fill="#E1E0E5"/><path d="M45.495 203.192c.581.772.435 1.88-.345 2.47a1.767 1.767 0 01-2.474-.356 1.769 1.769 0 01.35-2.462 1.77 1.77 0 012.469.348" fill="#2E6893"/><path d="M38.224 209.833l6.568-4.94a.77.77 0 00.147-1.078l-.192-.255a.77.77 0 00-1.078-.156l-6.573 4.933a.774.774 0 00-.149 1.09l.197.262a.77.77 0 001.08.144" fill="#E1E0E5"/><path d="M50.075 209.284a1.772 1.772 0 01-.34 2.476 1.767 1.767 0 01-2.474-.356 1.769 1.769 0 01.35-2.462 1.769 1.769 0 012.464.342" fill="#2E6893"/><path d="M42.944 215.838l6.3-4.748a.941.941 0 00.18-1.302l-.005-.007a.932.932 0 00-1.306-.193l-6.301 4.748a.932.932 0 00-.186 1.307.94.94 0 001.318.195" fill="#E1E0E5"/><path d="M8.808 154.48a1.758 1.758 0 01-.35 2.463 1.76 1.76 0 01-2.47-.337 1.765 1.765 0 01.357-2.467 1.758 1.758 0 012.463.342" fill="#2E6893"/><path d="M1.673 161.028l6.306-4.741a.95.95 0 00.18-1.315.952.952 0 00-1.317-.195L.54 159.525a.936.936 0 00-.176 1.321.932.932 0 001.308.182" fill="#E1E0E5"/><path d="M17.979 166.664a1.763 1.763 0 01-.35 2.463 1.763 1.763 0 01-2.464-.342 1.765 1.765 0 01.345-2.47 1.77 1.77 0 012.469.35" fill="#2E6893"/><path d="M10.696 173.303l6.568-4.94c.347-.24.406-.736.153-1.071l-.19-.267a.77.77 0 00-1.078-.156l-6.568 4.94a.767.767 0 00-.154 1.083l.192.255a.77.77 0 001.077.156" fill="#E1E0E5"/><path d="M27.145 178.842c.582.771.43 1.873-.35 2.462-.78.588-1.882.43-2.463-.342a1.758 1.758 0 01.35-2.462 1.752 1.752 0 012.463.342" fill="#2E6893"/><path d="M19.879 185.488l6.563-4.946a.77.77 0 00.147-1.078l-.192-.255a.765.765 0 00-1.078-.156l-6.573 4.932a.767.767 0 00-.154 1.084l.202.269a.772.772 0 001.085.15" fill="#E1E0E5"/><path d="M36.316 191.025a1.758 1.758 0 01-.35 2.463 1.763 1.763 0 01-2.464-.342 1.758 1.758 0 01.35-2.463 1.758 1.758 0 012.464.342" fill="#2E6893"/><path d="M29.175 197.566l6.301-4.748a.934.934 0 00.184-1.296.934.934 0 00-1.311-.2l-6.3 4.748a.932.932 0 00-.187 1.308.934.934 0 001.313.188" fill="#E1E0E5"/><path fill="#9FD77A" d="M21.364 119.074l-1.392 4.33-4.557.142 8.673 11.524 5.942-4.468z"/><path d="M63.143 207.93l33.441-25.2a2.602 2.602 0 00.515-3.658l-46.033-61.088a2.612 2.612 0 00-3.66-.514l-1.776 1.34 1.78 5.148-7.057 2.456a2.638 2.638 0 00-1.679 1.833c-.116.477-.811 5.745-.82 5.845a2.44 2.44 0 00.077 1.068c-.014.052-.027.105.005.175l.766 2.22s-2.293 1.076-1.93 2.118c.364 1.03 2.885.634 2.885.634l1.543 4.443c-.08.05-2.272 1.103-1.923 2.112.36 1.023 2.778.662 2.87.645l1.532 4.441c-.075.026-2.26 1.104-1.91 2.114.348 1.01 2.78.65 2.872.633l1.548 4.492c-.079.049-2.26 1.103-1.906 2.12.354 1.016 2.774.655 2.866.638l1.525 4.404c-.08.05-2.26 1.104-1.906 2.12.349 1.01 2.761.654 2.864.65l1.537 4.448c-.073.044-2.266 1.097-1.912 2.114.36 1.023 2.774.655 2.872.645l1.546 4.461c-.089.036-2.26 1.104-1.911 2.113.35 1.01 2.773.656 2.866.639l1.543 4.443c-.089.035-2.265 1.097-1.916 2.106.35 1.01 2.772.667 2.864.65l1.539 4.437c-.083.03-2.266 1.097-1.917 2.106.35 1.01 2.779.662 2.871.645l1.522 4.428c-.073.044-2.254 1.099-1.895 2.122.343 1.014 2.764.642 2.866.638l.878 2.536c.032.113.106.183.158.28" fill="#6CAD84"/><path d="M93.748 107.822l-53.397 18.591a2.613 2.613 0 00-1.609 3.327l25.03 72.319a2.588 2.588 0 003.311 1.607l53.399-18.604a2.592 2.592 0 001.607-3.315l-25.023-72.323a2.596 2.596 0 00-3.318-1.602" fill="#83B7DB"/><path d="M48.203 138.455a1.772 1.772 0 01-1.095 2.245c-.912.33-1.928-.177-2.238-1.08a1.762 1.762 0 011.094-2.244c.913-.33 1.918.164 2.239 1.08" fill="#2E6893"/><path d="M39.404 142.508l7.441-2.59a.937.937 0 00-.607-1.772l-7.448 2.595c-.487.167-.756.706-.589 1.18a.95.95 0 001.203.587" fill="#E1E0E5"/><path d="M53.177 152.867a1.778 1.778 0 01-1.085 2.258 1.768 1.768 0 01-2.241-1.098 1.762 1.762 0 013.326-1.16" fill="#2E6893"/><path d="M44.385 156.914l7.435-2.584a.929.929 0 00.583-1.187.941.941 0 00-1.197-.58l-7.442 2.589a.95.95 0 00-.578 1.193.924.924 0 001.199.569" fill="#E1E0E5"/><path d="M58.161 167.291a1.758 1.758 0 01-1.1 2.238 1.75 1.75 0 01-2.23-1.084c-.31-.914.171-1.928 1.092-2.233a1.74 1.74 0 012.238 1.08" fill="#2E6893"/><path d="M49.358 171.337l7.454-2.588c.481-.173.748-.7.576-1.181l-.005-.007a.937.937 0 00-1.19-.586l-7.449 2.595c-.476.18-.749.7-.577 1.181a.93.93 0 001.191.586" fill="#E1E0E5"/><path d="M63.136 181.702a1.767 1.767 0 01-1.09 2.252 1.772 1.772 0 01-2.241-1.098 1.777 1.777 0 011.088-2.24 1.753 1.753 0 012.243 1.086" fill="#2E6893"/><path d="M54.183 185.81l7.763-2.695a.784.784 0 00.476-.98l-.111-.315a.778.778 0 00-.984-.479l-7.763 2.695c-.397.13-.606.582-.47.986l.106.309c.146.404.58.615.983.479" fill="#E1E0E5"/><path d="M65.625 188.917a1.752 1.752 0 01-1.093 2.233 1.728 1.728 0 01-2.226-1.078 1.734 1.734 0 011.08-2.235c.92-.335 1.914.158 2.24 1.08" fill="#2E6893"/><path d="M56.667 193.017l7.758-2.701a.77.77 0 00.476-.98l-.1-.314a.776.776 0 00-.99-.473l-7.757 2.69a.788.788 0 00-.472.997l.101.302a.775.775 0 00.984.48" fill="#E1E0E5"/><path d="M68.116 196.12a1.782 1.782 0 01-1.101 2.25 1.763 1.763 0 01-2.237-1.091c-.309-.914.166-1.924 1.093-2.233.92-.335 1.913.157 2.245 1.074" fill="#2E6893"/><path d="M59.312 200.166l7.447-2.582a.932.932 0 00.583-1.187.947.947 0 00-1.202-.587l-7.442 2.589c-.476.18-.756.706-.584 1.186a.935.935 0 001.198.581" fill="#E1E0E5"/><path d="M45.693 131.256c.32.915-.177 1.921-1.09 2.251-.927.31-1.934-.172-2.241-1.098-.32-.915.176-1.91 1.081-2.234a1.769 1.769 0 012.25 1.08" fill="#2E6893"/><path d="M36.89 135.301l7.453-2.587a.935.935 0 00.572-1.188.941.941 0 00-1.197-.581l-7.442 2.589a.956.956 0 00-.574 1.2c.17.492.7.746 1.188.567" fill="#E1E0E5"/><path d="M50.673 145.674a1.761 1.761 0 01-1.1 2.238 1.73 1.73 0 01-2.231-1.085c-.315-.909.165-1.923 1.086-2.228.926-.34 1.93.166 2.245 1.075" fill="#2E6893"/><path d="M41.72 149.78l7.746-2.702a.773.773 0 00.478-.991l-.106-.31a.751.751 0 00-.969-.458l-7.763 2.695a.75.75 0 00-.476.979l.1.314c.141.398.586.61.99.474" fill="#E1E0E5"/><path d="M55.648 160.084c.32.916-.17 1.917-1.09 2.252-.927.31-1.934-.172-2.241-1.098-.316-.909.175-1.91 1.087-2.24a1.767 1.767 0 012.244 1.086" fill="#2E6893"/><path d="M46.695 164.192l7.763-2.695a.781.781 0 00.47-.986l-.105-.309a.775.775 0 00-.984-.479l-7.763 2.695c-.397.131-.606.583-.471.986l.106.31c.14.409.58.614.984.478" fill="#E1E0E5"/><path d="M60.628 174.503a1.769 1.769 0 01-1.095 2.244 1.75 1.75 0 01-2.236-1.091 1.766 1.766 0 011.092-2.233c.92-.335 1.918.164 2.239 1.08" fill="#2E6893"/><path d="M51.829 178.555l7.448-2.594a.923.923 0 00.577-1.181c-.164-.498-.693-.751-1.196-.593l-7.442 2.59c-.476.18-.75.712-.578 1.192a.936.936 0 001.19.586" fill="#E1E0E5"/><path fill="#B5C0C6" d="M52.155 107.046l-2.654 3.704-4.364-1.266 4.702 13.633 7.024-2.443z"/><path fill="#FFF" d="M61.275 103.871l-2.66 3.697-4.365-1.254 4.718 13.641 7.024-2.442z"/><path fill="#548AB2" d="M76.502 179.457l25.56-8.88-3.804-11.016-25.554 8.875z"/><path d="M353.956 30.708c0 13.614-11.028 24.65-24.62 24.65s-24.62-11.036-24.62-24.65c0-13.613 11.028-24.655 24.62-24.655s24.62 11.042 24.62 24.655" fill="#FFF"/><path d="M352.017 30.708c0 12.536-10.159 22.701-22.68 22.701-12.525 0-22.679-10.165-22.679-22.7 0-12.542 10.154-22.707 22.68-22.707 12.52 0 22.679 10.165 22.679 22.706" fill="#B5C0C6"/><path d="M348.462 30.708c0 10.576-8.56 19.146-19.123 19.146s-19.129-8.57-19.129-19.146c0-10.575 8.566-19.151 19.129-19.151s19.123 8.576 19.123 19.151" fill="#1A1019"/><path d="M325.613 57.736c-2.693-1.46-6.546-6.121-5.537-11.962 1.01-5.841 7.225-7.869 9.166-9.009 1.644 1.685 6.507 4.943 5.369 11.53-1.15 6.594-6.255 8.868-8.998 9.441" fill="#558F1F"/><path d="M325.613 57.736c3.136-5.178 4.112-17.056 3.63-20.97 1.643 1.684 6.506 4.942 5.368 11.53-1.15 6.593-6.255 8.867-8.998 9.44" fill="#437D1F"/><path d="M329.403 36.917c-.095-.034-.18-.067-.275-.09-1.868 1.05-6.995 2.853-8.66 7.492-.012 1.342.246 2.87.902 4.6 1.459 3.836 3.91 6.487 6.362 8.149 2.709-1.135 5.99-3.65 6.877-8.773 1.105-6.402-3.45-9.648-5.206-11.378" fill="#8DC74F"/><g transform="translate(321.267 .292)"><mask id="e" fill="#fff"><use xlink:href="#d"/></mask><path d="M8.975.261c3.45 1.28 8.908 6.465 8.908 14.277 0 7.812-6.866 11.844-8.908 13.765-2.26-1.83-8.61-4.953-8.61-13.765C.365 5.726 5.873 1.609 8.975.26" fill="#6CA62E" mask="url(#e)"/></g><g transform="translate(330.043 .292)"><mask id="g" fill="#fff"><use xlink:href="#f"/></mask><path d="M.199.261c3.45 1.28 8.908 6.465 8.908 14.277 0 7.812-6.866 11.844-8.908 13.765 2.053-10.44 1.56-21.46 0-28.042" fill="#629C24" mask="url(#g)"/></g><path d="M325.443 31.141c-2.221 2.719-8.297 6.043-14.635 3.628-6.345-2.403-7.265-9.84-8.123-12.282 2.26-1.477 6.967-6.234 14.12-3.516 7.151 2.718 8.599 8.963 8.638 12.17" fill="#5F9921"/><path d="M325.443 31.141c-5.374-3.684-16.873-8.087-22.758-8.654 2.26-1.477 6.967-6.234 14.12-3.516 7.151 2.718 8.599 8.963 8.638 12.17" fill="#558F1F"/><path d="M325.443 31.141c-.04-3.207-1.487-9.452-8.639-12.17-3.825-1.455-6.933-.77-9.356.404-.326 3.679.47 8.413 3.668 12.878 1.032 1.438 2.098 2.51 3.175 3.314 4.976.399 9.34-2.207 11.152-4.426" fill="#8DC74F"/><g transform="translate(339.362 23.39)"><mask id="i" fill="#fff"><use xlink:href="#h"/></mask><path d="M18.188 7.132c-.937 2.398-4.415 6.093-9.38 5.858-4.964-.236-7.292-5.212-8.442-6.706C1.606 4.739 3.805.347 9.403.617c5.599.27 8.027 4.285 8.785 6.515" fill="#4D871F" mask="url(#i)"/></g><g transform="translate(339.362 23.39)"><mask id="k" fill="#fff"><use xlink:href="#j"/></mask><path d="M18.188 7.132C13.964 6.143 6.385 5.413.366 6.284 1.606 4.739 3.805.347 9.403.617c5.599.27 8.027 4.285 8.785 6.515" fill="#437D1F" mask="url(#k)"/></g><path d="M329.623 31.893c1.57 3.336 1.84 10.867-3.624 16.444-5.464 5.571-13.188 3.634-15.993 3.572-.336-2.887-2.687-9.576 3.484-15.866 6.164-6.29 12.98-5.358 16.133-4.15" fill="#80BA42"/><path d="M329.623 31.893c-7.36 5.24-16.161 14.17-19.617 20.016-.336-2.887-2.687-9.576 3.484-15.866 6.164-6.29 12.98-5.358 16.133-4.15" fill="#73B03F"/><path d="M330.395 34.514c-1.43-.236-2.732-.045-3.652.101-1.957 1.399-5.963 5.072-3.253 12.188.359.949.785 1.83 1.256 2.64.421-.338.847-.697 1.257-1.107 4.302-4.403 5.043-10.008 4.392-13.822" fill="#8DC74F"/><path d="M353.82 49.47c-3.389 2.197-11.22 3.69-17.312-1.184-6.097-4.88-4.487-13.355-4.566-16.326 2.99-.82 9.822-4.37 16.7 1.128 6.877 5.504 6.266 12.856 5.177 16.383" fill="#73B03F"/><path d="M353.82 49.47c-3.423-6.216-16.268-15.157-21.878-17.51 2.99-.82 9.822-4.37 16.7 1.128 6.877 5.504 6.266 12.856 5.177 16.383" fill="#6CA62E"/><path d="M334.87 31.01c-1.177.36-2.176.747-2.927.949.056 2.224-.825 7.531 1.279 12.103 4.661.45 8.481-1.37 9.973-3.016-.263-2.129-1.783-6.93-8.324-10.036" fill="#8DC74F"/><path d="M350.581 15.966c1.111 3.325.651 10.266-4.812 14.422-5.464 4.162-12.28 1.05-14.81.506-.039-2.702-1.537-9.228 4.628-13.923 6.17-4.69 12.251-2.656 14.994-1.005" fill="#8DC74F"/><path d="M350.581 15.966c-6.551 3.29-14.253 9.412-19.622 14.928-.039-2.702-1.537-9.228 4.628-13.923 6.17-4.69 12.251-2.656 14.994-1.005" fill="#80BA42"/><path d="M329.584 32.891c.101-.118.202-.23.309-.348a10.79 10.79 0 00-.27-.651c-2.372-.91-6.815-1.657-11.499.707 4.499 2.539 9.492 1.045 11.46.292" fill="#8DC74F"/><path d="M314.169 9.027c-1.89 3.112-2.827 10.88 2.227 17.939 5.06 7.06 11.068 5.565 13.625 4.582 1.902-2.094 5.874-6.514.163-14.478C324.48 9.1 317.48 8.5 314.17 9.027" fill="#9AD056"/><path d="M330.187 17.068c5.71 7.964 1.739 12.384-.163 14.479-1.296-4.684-10.024-18.028-15.852-22.521 3.304-.523 10.304.073 16.015 8.042" fill="#8DC74F"/><path d="M338.672 53.952c-3.18-.118-9.311-3.201-12.02-10.323-2.705-7.115 1.306-10.788 3.258-12.187 2.446-.376 7.601-1.14 10.653 6.897 3.051 8.031.095 13.45-1.89 15.613" fill="#8DC74F"/><path d="M340.562 38.337c-3.051-8.036-8.206-7.273-10.652-6.896 2.793 3.218 8.302 16.073 8.762 22.51 1.991-2.157 4.942-7.577 1.89-15.614" fill="#80BA42"/><path d="M341.127 40.054a19.189 19.189 0 00-.567-1.719c-3.052-8.031-8.201-7.273-10.652-6.891a4.779 4.779 0 00-.365.275c-.05 2.05.684 4.914 4.617 6.908 2.462 1.253 4.891 1.584 6.967 1.427" fill="#8DC74F"/><path d="M348.56 32.562c-1.178 2.14-5.38 5.274-11.168 4.678-5.79-.59-6.922-4.594-7.203-6.413.584-1.803 1.829-5.588 8.364-4.92 6.53.68 9.205 4.555 10.007 6.655" fill="#A6D85D"/><path d="M338.552 25.91c-6.535-.67-7.78 3.116-8.364 4.919 3.153-.809 13.822-.163 18.371 1.735-.796-2.1-3.478-5.986-10.007-6.655" fill="#9ED055"/><path d="M328.878 109.751l4.645 47.989c.056.572.566.987 1.132.932l9.161-.877c.575-.055.992-.572.937-1.134l-4.637-47.989-11.238 1.08z" fill="#5AA6D9"/><g transform="translate(334.59 157.732)"><mask id="m" fill="#fff"><use xlink:href="#l"/></mask><path fill="#ABABAB" mask="url(#m)" d="M9.3.045L.204.922.49 3.91l9.097-.876z"/></g><path d="M335.488 92.85l-5.09.49a3.065 3.065 0 00-2.773 3.348l1.252 13.062 11.238-1.079-1.26-13.053a3.072 3.072 0 00-3.367-2.768" fill="#3A7DAA"/><path d="M331.196 112.048l-1.261-13.062a3.06 3.06 0 012.782-3.349l5.081-.489c.334-.037.658 0 .974.074a3.061 3.061 0 00-3.283-2.37l-5.09.488a3.059 3.059 0 00-2.773 3.349l1.252 13.062 4.645 47.989c.056.572.566.987 1.132.932l1.029-.102-4.488-46.522z" fill="#5AA6D9"/><g transform="translate(338.682 95.257)"><mask id="o" fill="#fff"><use xlink:href="#n"/></mask><path fill="#ABABAB" mask="url(#o)" d="M.202.63l.176 1.817 1.373-.12 2.003 21.836 1.938-.176L3.522.344z"/></g><path d="M221.846 26.837c-.093 1.449.027 2.648.269 2.648v.01c.714-.14 1.492-.665 1.882-1.246-.102-.056-.158-.59-.111-1.264.046-.655.148-1.172.269-1.245-.297-.59-.956-1.181-1.614-1.421-.018-.018-.056-.018-.093-.018-.231-.019-.5 1.097-.602 2.536" fill="#E65A40"/><path d="M229.615 25.711l-5.443.028c-.12-.01-.24.544-.287 1.245-.047.692.009 1.255.13 1.264l5.406.793c-.14-.193-.204-1.033-.158-1.688.046-.646.204-1.448.352-1.642" fill="#FF6C50"/><path d="M232.766 23.468c-.38-.027-.807 1.78-.955 4.041-.148 2.279.028 4.124.417 4.151.371.019.798-1.799.955-4.05.14-2.26-.046-4.114-.417-4.142" fill="#A23521"/><path d="M231.816 27.513c.139-2.14.528-3.884.9-4.032-1.234.24-2.57 1.227-3.08 2.214-.148.13-.333.997-.37 1.652-.047.664.018 1.503.148 1.697.371 1.033 1.567 2.196 2.763 2.592-.343-.175-.51-1.974-.361-4.123" fill="#E65A40"/><path d="M236.724 27.603s5.183.406 5.712.581c-.529.157-5.73-.147-5.73-.147l-4.23-.194c-.027 0-.036-.13-.036-.295.018-.157.046-.295.083-.295l4.2.35z" fill="#B5C0C6"/><path d="M231.363 19.027c1.067.987 2.068 1.66 2.226 1.466h.009c.343-.636.426-1.568.222-2.232-.11.055-.574-.25-1.066-.72-.464-.433-.816-.858-.797-.987-.65-.138-1.521-.018-2.124.342-.028.009-.046.027-.074.055-.158.175.547 1.098 1.604 2.076" fill="#E65A40"/><path d="M235.392 12.315l-3.412 4.216c-.084.092.26.535.779 1.006.51.48.983.802 1.066.72h.01l4.024-3.672c-.241-.028-.928-.508-1.419-.941-.473-.452-.992-1.089-1.048-1.329" fill="#FF6C50"/><path d="M235.628 8.486c-.25.268.89 1.734 2.55 3.275 1.669 1.55 3.227 2.583 3.496 2.297.25-.277-.89-1.744-2.56-3.284-1.669-1.531-3.227-2.565-3.486-2.288" fill="#A23521"/><path d="M238.181 11.766c-1.585-1.458-2.689-2.87-2.577-3.248-.594 1.107-.659 2.759-.214 3.773.01.203.575.886 1.057 1.347.483.443 1.169.923 1.41.95 1.048.36 2.708.167 3.765-.498-.353.157-1.846-.858-3.44-2.324" fill="#E65A40"/><path d="M241.35 8.045s3.599-3.745 4.08-4.04c-.222.498-3.745 4.317-3.745 4.317l-2.829 3.146c-.009.018-.13-.065-.25-.166-.12-.111-.204-.222-.176-.25l2.92-3.007z" fill="#B5C0C6"/><path d="M256.582 10.603c-1.196.84-2.058 1.67-1.91 1.854v.01c.556.48 1.456.756 2.142.692-.028-.111.371-.499.937-.877.537-.369 1.001-.618 1.13-.572.27-.6.344-1.476.121-2.14 0-.028-.018-.055-.037-.092-.139-.194-1.187.304-2.383 1.125" fill="#E65A40"/><path d="M262.332 15.936l-3.43-4.206c-.056-.102-.576.147-1.15.553-.585.388-1.002.784-.928.877v.009l2.754 4.695c.074-.221.696-.802 1.234-1.171.537-.37 1.27-.748 1.52-.757" fill="#FF6C50"/><path d="M266.045 16.981c-.213-.313-1.9.49-3.755 1.78-1.883 1.302-3.218 2.602-3.005 2.916.223.304 1.92-.498 3.774-1.79 1.864-1.3 3.2-2.601 2.986-2.906" fill="#A23521"/><path d="M262.287 18.766c1.762-1.227 3.375-2.012 3.718-1.818-.946-.812-2.56-1.217-3.653-1.005-.214-.037-1.002.36-1.54.747-.537.369-1.159.95-1.233 1.171-.575.941-.742 2.593-.306 3.764-.074-.378 1.224-1.614 3.014-2.86" fill="#E65A40"/><path d="M265.275 22.64s2.921 4.28 3.116 4.805c-.454-.323-3.468-4.557-3.468-4.557l-2.494-3.395c-.019-.027.092-.12.222-.212s.26-.157.278-.129l2.346 3.487z" fill="#B5C0C6"/><path d="M250.433 53.35c1.456.083 2.652-.046 2.652-.286h.01c-.14-.72-.677-1.485-1.261-1.863-.047.101-.594.156-1.28.11-.65-.037-1.178-.138-1.243-.249-.593.295-1.186.941-1.418 1.605a.642.642 0 00-.028.102c-.01.23 1.122.489 2.568.581" fill="#E65A40"/><path d="M249.238 45.62l.065 5.416c0 .12.538.23 1.252.276.705.046 1.27-.018 1.28-.129l.75-5.378c-.194.12-1.038.194-1.687.157-.649-.046-1.465-.194-1.66-.342" fill="#FF6C50"/><path d="M246.965 42.503c-.027.379 1.79.794 4.062.923 2.29.129 4.145-.056 4.173-.443.018-.378-1.818-.784-4.08-.922-2.272-.12-4.136.073-4.155.442" fill="#A23521"/><path d="M251.032 43.422c-2.152-.129-3.904-.498-4.053-.858.241 1.218 1.252 2.537 2.244 3.035.14.148 1.011.323 1.67.36.658.037 1.492-.037 1.696-.157 1.039-.387 2.198-1.587 2.578-2.767-.167.341-1.966.516-4.135.387" fill="#E65A40"/><path d="M251.095 38.54s.361-5.167.547-5.693c.148.526-.112 5.71-.112 5.71l-.166 4.198c0 .037-.13.046-.306.046-.158-.018-.288-.046-.288-.083l.325-4.179z" fill="#B5C0C6"/></g></svg>