<svg width="32" height="32" xmlns="http://www.w3.org/2000/svg"><path d="M5.261 0A2.916 2.916 0 002.66 1.61L0 6.93v22.162A2.908 2.908 0 002.91 32h26.18A2.908 2.908 0 0032 29.09V6.93l-2.662-5.321A2.915 2.915 0 0026.738 0H5.262zm.003 2.91h21.472l2.182 4.363H3.082l2.182-4.364zM16 11.635c.804 0 1.455.652 1.455 1.455v9.58l1.88-1.881a1.453 1.453 0 012.057 0 1.453 1.453 0 010 2.057l-4.364 4.363a1.45 1.45 0 01-2.056 0l-4.364-4.363a1.453 1.453 0 010-2.057 1.453 1.453 0 012.057 0l1.88 1.88v-9.58c0-.802.65-1.454 1.455-1.454z" fill="#6CAD84"/></svg>