<svg width="120" height="144" xmlns="http://www.w3.org/2000/svg"><g fill="none" fill-rule="evenodd"><path d="M116.485 120H3.515A3.508 3.508 0 010 116.499V40.037C0 32.673 4.472 26.24 11.393 23.65l30.52-11.427A3.517 3.517 0 0143.148 12H76.85c.423 0 .842.076 1.238.224l30.518 11.427C115.528 26.242 120 32.673 120 40.037v76.462a3.508 3.508 0 01-3.515 3.501z" fill="#E6B24D" fill-rule="nonzero"/><path d="M108.652 23.65l-30.4-11.426A3.492 3.492 0 0077.019 12H60v108h56.499a3.501 3.501 0 003.501-3.501V40.037c0-7.364-4.453-13.795-11.348-16.386z" fill="#E6B24D" fill-rule="nonzero"/><path fill="#F5F0EB" fill-rule="nonzero" d="M58.21 14L44 20.249 59.752 107 76 20.37z"/><g fill="#EBE1DC" fill-rule="nonzero"><path d="M59.53 14.186v91.735l16.35-85.963z"/><path d="M59.54 38.289c1.944 0 3.53-1.573 3.53-3.502 0-1.929-1.586-3.502-3.53-3.502-1.943 0-3.529 1.573-3.529 3.502 0 1.928 1.586 3.502 3.53 3.502zm0 14.009c1.944 0 3.53-1.573 3.53-3.502 0-1.929-1.586-3.502-3.53-3.502-1.943 0-3.529 1.573-3.529 3.502 0 1.929 1.586 3.502 3.53 3.502z"/></g><path d="M99.654 53.108a3.52 3.52 0 00-2.622-1.95l-5.44-.863 7.01-7.982a3.509 3.509 0 00.024-4.605l-19.36-22.484a3.525 3.525 0 00-3.634-1.09 3.515 3.515 0 00-2.514 2.835L60 100.52 46.882 16.97a3.517 3.517 0 00-2.514-2.835 3.526 3.526 0 00-3.633 1.09l-19.36 22.484a3.509 3.509 0 00.022 4.605l7.011 7.982-5.44.862a3.518 3.518 0 00-2.622 1.952c-.5 1.04-.456 2.26.118 3.262l35.424 61.859a3.523 3.523 0 003.057 1.77h2.11c1.234 0 2.416-.65 3.057-1.77l35.424-61.86a3.51 3.51 0 00.118-3.262z" fill="#FC6" fill-rule="nonzero"/><path d="M99.654 53.108a3.52 3.52 0 00-2.622-1.95l-5.44-.863 7.01-7.982a3.509 3.509 0 00.024-4.605l-19.36-22.484a3.525 3.525 0 00-3.634-1.09 3.515 3.515 0 00-2.514 2.835L60 100.52V120h1.055a3.52 3.52 0 003.057-1.77l35.425-61.86a3.51 3.51 0 00.117-3.262z" fill="#FC6" fill-rule="nonzero"/><path d="M40.923 28a6.927 6.927 0 01-3.161-.777C35.407 26.017 34 23.715 34 21.064V6.936c0-2.65 1.407-4.952 3.762-6.159 2.355-1.206 5.041-.999 7.185.554l13.623 9.867a3.46 3.46 0 010 5.604L44.947 26.67c-1.22.883-2.614 1.331-4.024 1.331z" fill="#FF7157" fill-rule="nonzero"/><path d="M79.077 28c-1.41 0-2.804-.448-4.024-1.33l-13.624-9.868a3.46 3.46 0 010-5.604L75.054 1.33c2.143-1.553 4.828-1.76 7.184-.554C84.593 1.983 86 4.285 86 6.936v14.128c0 2.65-1.407 4.953-3.762 6.159a6.925 6.925 0 01-3.16.777z" fill="#FF7157" fill-rule="nonzero"/><path d="M59.5 22c-1.933 0-3.5-1.527-3.5-3.41v-6.18C56 10.526 57.567 9 59.5 9c1.932 0 3.5 1.527 3.5 3.41v6.18c0 1.883-1.568 3.41-3.5 3.41z" fill="#C73F1B" fill-rule="nonzero"/><path d="M60.05 9l-.05.002v12.995c.016.001.033.003.05.003 2.18 0 3.95-1.527 3.95-3.41v-6.18C64 10.526 62.23 9 60.05 9z" fill="#E65A40" fill-rule="nonzero"/><path d="M60.067 32c-.023 0-.044.003-.067.003v6.994c.023 0 .044.003.067.003C62.233 39 64 37.428 64 35.5S62.233 32 60.067 32zm0 14c-.023 0-.044.003-.067.003v6.994c.023 0 .044.003.067.003C62.233 53 64 51.428 64 49.5S62.233 46 60.067 46z" fill="#DCD2CD"/><g transform="translate(40 100)" stroke="#FFF"><rect stroke-width="4" fill="#E64040" x="-2" y="-2" width="44" height="44" rx="22"/><path d="M10 20a2 2 0 011.99-2h16.02A1.99 1.99 0 0130 20h0a2 2 0 01-1.99 2H11.99A1.99 1.99 0 0110 20h0z" stroke-width="1.5" fill="#FFF"/></g></g></svg>