<svg width="110" height="108" xmlns="http://www.w3.org/2000/svg"><g fill="none" fill-rule="evenodd"><g fill-rule="nonzero"><path d="M109.444 100.894l-5.953-33.531H6.41l-5.953 33.53c-1.374 3.238.916 6.707 4.35 6.707h100.285c3.435.231 5.725-3.469 4.35-6.706z" fill="#E3E4E8"/><path d="M0 102.975c0 2.544 2.06 4.856 4.808 4.856h100.285c2.748 0 4.809-2.312 4.809-4.856H0z" fill="#AFB0B5"/><path d="M98.911.07h-87.92c-2.52 0-4.58 2.08-4.58 4.624v62.669h97.309V4.694C103.49 2.151 101.43.07 98.91.07z" fill="#48494F"/><path fill="#FFF" d="M11.929 5.867H97.79v55.731H11.929z"/><path fill="#AFB0B5" d="M68.46 98.119H41.441l2.06-12.025H66.4z"/><ellipse fill="#FF6C50" cx="91.127" cy="10.476" rx="2.061" ry="2.081"/><ellipse fill="#6CAD84" cx="84.716" cy="10.476" rx="2.061" ry="2.081"/></g><path d="M35.019 27.046V41.05c0 5.524 8.86 10.003 19.791 10.003 10.93 0 19.792-4.48 19.792-10.003V27.046H35.019z" fill="#3A7DAA"/><path d="M85.046 25.328L58.134 11.725c-1.858-.939-4.87-.939-6.728 0L24.493 25.328c-1.857.939-1.857 2.461 0 3.4L51.406 42.33c1.858.938 4.87.938 6.728 0l26.912-13.604c1.857-.938 1.857-2.461 0-3.399z" fill="#5AA6D9" fill-rule="nonzero"/><path d="M56.749 24.509c-.292-1.041-1.412-1.659-2.502-1.38L31.111 29.05c-.018 0-.033-.005-.05-.005-.752 0-1.397.427-1.733 1.05l-.01.021c-.036.066-.07.133-.098.203-.14.316-.191.667-.14 1.024v19.71c0 1.105.887 2 1.98 2a1.99 1.99 0 001.978-2V32.6l22.265-5.7c1.092-.278 1.738-1.349 1.446-2.39z" fill="#FF6C50"/><path d="M33.04 49.053h-3.96c0 4.002-1.98 6.898-1.98 8.003 0 1.105.888 2 1.98 2h3.958a1.99 1.99 0 001.98-2c0-1.106-1.98-4.001-1.98-8.003z" fill="#FF6C50" fill-rule="nonzero"/></g></svg>