<svg width="105" height="77" xmlns="http://www.w3.org/2000/svg"><g fill="none" fill-rule="evenodd"><path d="M99.315 0H19.863c-3.134 0-5.675 2.553-5.675 5.703v51.324c0 3.15 2.541 5.703 5.675 5.703h79.452c3.134 0 5.675-2.553 5.675-5.703V5.703c0-3.15-2.54-5.703-5.675-5.703z" fill="#8CC63E"/><path d="M85.127 14.257H5.675C2.541 14.257 0 16.81 0 19.96v51.324c0 3.15 2.541 5.703 5.675 5.703h79.452c3.135 0 5.676-2.553 5.676-5.703V19.96c0-3.15-2.541-5.703-5.676-5.703z" fill="#9B7CAB"/><path d="M38.312 39.497c-.137.344-1.121 3.12-3.5 5.998V33.19l-6.341 1.252v22.305h6.34v-6.895c1.836 2.753 2.743 6.895 2.743 6.895h7.595c-.75-3.12-4.037-8.874-4.037-8.874 2.95-3.735 4.244-7.716 4.451-8.376h-7.251zm-20.474 2.457c-.776-.05-2.573-.166-2.573-1.784 0-1.952 2.588-1.952 3.56-1.952 1.706 0 3.917.505 5.496.978 0 0 .881.31 1.63.626l.071.02v-5.345l-.096-.028c-1.863-.652-4.03-1.278-8.046-1.278-6.927 0-9.38 4.032-9.38 7.485 0 1.99.854 6.677 8.785 7.217.673.041 2.456.145 2.456 1.815 0 1.38-1.46 2.194-3.917 2.194-2.693 0-5.305-.687-6.891-1.337v5.503c2.375.623 5.052.934 8.19.934 6.772 0 9.806-3.815 9.806-7.595-.002-4.287-3.396-7.073-9.09-7.453zm37.142-2.69c-5.678.183-8.561 2.73-8.561 7.79v9.693h6.194V48.84c0-3.03.397-4.328 3.995-4.45v-5.036c-.604-.129-1.628-.09-1.628-.09zm12.21 17.484h6.14V33.19l-6.14 1.1v22.457zm-8.748 0h6.146v-17.23h-6.146v17.23zM76.158 34.29v22.458h6.146V33.19l-6.146 1.1zm-14.646 2.964c1.674 0 3.03-1.311 3.03-2.931 0-1.618-1.357-2.931-3.03-2.931-1.671 0-3.026 1.313-3.026 2.931 0 1.62 1.356 2.931 3.026 2.931z" fill="#FFF"/></g></svg>