<svg width="22" height="22" xmlns="http://www.w3.org/2000/svg"><g fill="none" fill-rule="evenodd"><path d="M16.093 3.867H12.87V.645A.638.638 0 0012.226 0H1.934A1.93 1.93 0 000 1.934v18.132C0 21.136.864 22 1.934 22h12.87a1.93 1.93 0 001.933-1.934V4.512a.638.638 0 00-.644-.645z" fill="#6C7DAD"/><path d="M16.737 5.156h-4.511a.644.644 0 01-.645-.644V0h1.405c.506 0 1.002.205 1.36.563l1.829 1.83c.357.359.562.854.562 1.358v1.405z" fill="#859AD7"/><path d="M21.43 6.91c-.722-.735-2.011-.735-2.733 0l-.658.67-.464.45a.623.623 0 000 .903l.916.915.915.916c.232.257.67.257.902 0l.464-.451.658-.67c.76-.723.76-2.012 0-2.734z" fill="#85C2EA"/><path d="M14.082 14.257l-1.328-1.328c-.026-.025-.051-.025-.077 0l-.039.026a.601.601 0 00-.155.258l-.915 2.746a.604.604 0 00.155.657v.013c.18.167.425.232.657.142l2.746-.916a.6.6 0 00.258-.154l.026-.026c.025-.026.025-.052 0-.077-.426-.439-.89-.903-1.328-1.341zm-1.856-6.523H3.223c-.851 0-.851-1.289 0-1.289h9.003c.85 0 .85 1.29 0 1.29zm-2.578 2.578H3.223c-.851 0-.851-1.289 0-1.289h6.425c.85 0 .85 1.29 0 1.29zm0 2.578H3.223c-.851 0-.851-1.288 0-1.288h6.425c.85 0 .85 1.289 0 1.289zm0 2.579H3.223c-.851 0-.851-1.29 0-1.29h6.425c.85 0 .85 1.29 0 1.29zm2.578 3.953H8.358c-.85 0-.85-1.29 0-1.29h3.868c.85 0 .85 1.29 0 1.29z" fill="#FFF"/><path d="M20.772 10.313l-.464.45c-2.552 2.54-1.702 1.69-3.996 3.984 0 .026-.915.94-.928.954a.6.6 0 01-.258.154l-2.643-2.642a.601.601 0 01.155-.258c.013-.013.928-.928.954-.928 1.676-1.676.85-.838 3.983-3.996l.451-.464 2.746 2.745z" fill="#5AA5D8"/></g></svg>