<svg width="23" height="33" xmlns="http://www.w3.org/2000/svg"><g fill="none" fill-rule="evenodd"><path d="M11.245 0C7.857 0 5.112 2.728 5.112 6.092v4.062h12.267V6.092C17.379 2.728 14.633 0 11.245 0z" fill-rule="nonzero" fill="#CCC"/><path d="M5.204 5.077h5.019V4.062H5.468a6.024 6.024 0 00-.264 1.015zm10.604-3.046h-3.54v1.016h4.284a6.124 6.124 0 00-.744-1.016zm-9.87 1.016h4.285V2.03H6.682a6.12 6.12 0 00-.743 1.016zm11.085 1.015h-4.756v1.015h5.02a6.073 6.073 0 00-.264-1.015zm-4.756 5.077h5.112V8.124h-5.112v1.015zm0-3.047v1.016h5.112V6.092h-5.112zM5.112 7.108h5.11V6.092h-5.11v1.016zm0 2.031h5.11V8.124h-5.11v1.015z" fill="#999"/><path d="M2.044 11.17h18.401v2.031h-18.4z" fill-rule="nonzero" fill="#999"/><path d="M5.112 14.216v3.046c0 3.365 2.745 6.092 6.133 6.092s6.134-2.727 6.134-6.092v-3.046H5.112z" fill-rule="nonzero" fill="#666"/><path d="M5.112 10.155H17.38v4.062H5.112z" fill-rule="nonzero" fill="#333"/><path d="M19.423 9.139v8.123c0 4.487-3.661 8.123-8.178 8.123-4.517 0-8.178-3.636-8.178-8.123V9.139C1.373 9.139 0 10.503 0 12.185c0 .9.396 1.708 1.022 2.266v2.811c0 4.912 3.513 9.009 8.179 9.95v4.265h4.088v-4.265c4.666-.941 8.179-5.038 8.179-9.95v-2.811a3.026 3.026 0 001.022-2.266c0-1.682-1.373-3.046-3.067-3.046z" fill="#CCC"/><path d="M18.401 29.446H4.089a1.02 1.02 0 00-1.022 1.016v1.015c0 .56.458 1.016 1.022 1.016H18.4a1.02 1.02 0 001.022-1.016v-1.015a1.02 1.02 0 00-1.022-1.016z" fill-rule="nonzero" fill="#666"/></g></svg>