<svg width="83" height="80" xmlns="http://www.w3.org/2000/svg" xmlns:xlink="http://www.w3.org/1999/xlink"><defs><filter x="-50%" y="-50%" width="200%" height="200%" filterUnits="objectBoundingBox" id="a"><feOffset in="SourceAlpha" result="shadowOffsetOuter1"/><feGaussianBlur stdDeviation="1.5" in="shadowOffsetOuter1" result="shadowBlurOuter1"/><feColorMatrix values="0 0 0 0 0 0 0 0 0 0 0 0 0 0 0 0 0 0 0.14 0" in="shadowBlurOuter1"/></filter><path id="b" d="M0 6.667h77V60H0z"/></defs><g fill="none" fill-rule="evenodd"><path d="M41.5 8a1.33 1.33 0 01-1.328-1.333V1.333A1.33 1.33 0 0141.5 0a1.33 1.33 0 011.328 1.333v5.334A1.33 1.33 0 0141.5 8zm0 69.333A1.33 1.33 0 0140.172 76V60a1.33 1.33 0 011.328-1.333A1.33 1.33 0 0142.828 60v16a1.33 1.33 0 01-1.328 1.333z" fill="#AFB0B5"/><path d="M60.086 80c-.34 0-.68-.13-.938-.39L40.56 60.942a1.336 1.336 0 010-1.886 1.322 1.322 0 011.878 0l18.586 18.667a1.336 1.336 0 01-.939 2.276z" fill="#AFB0B5"/><path d="M22.914 80c-.34 0-.68-.13-.939-.39a1.336 1.336 0 010-1.886l18.586-18.667a1.322 1.322 0 011.878 0 1.337 1.337 0 010 1.886L23.852 79.609c-.258.26-.598.391-.938.391z" fill="#AFB0B5"/><g transform="translate(3)"><use fill="#000" filter="url(#a)" xlink:href="#b"/><use fill="#FFF" xlink:href="#b"/></g><path d="M41.5 54.667c-11.712 0-21.241-9.571-21.241-21.334C20.259 21.571 29.788 12 41.5 12s21.241 9.57 21.241 21.333c0 11.763-9.529 21.334-21.241 21.334zm0-40c-10.249 0-18.586 8.373-18.586 18.666C22.914 43.627 31.25 52 41.5 52c10.249 0 18.586-8.373 18.586-18.667 0-10.293-8.337-18.666-18.586-18.666z" fill="#E3E4E8"/><path fill="#E65A40" d="M38 41V26l10 7.5z"/></g></svg>