<svg width="122" height="108" xmlns="http://www.w3.org/2000/svg"><g fill="none" fill-rule="evenodd"><g transform="rotate(18 56.088 76.785)"><circle fill="#FF6C50" cx="53.471" cy="53.471" r="53.471"/><path fill="#F0F1F3" d="M103.12 32.522l-6.683-11.576-36.282 20.947V0H46.787v41.893l-36.28-20.947-6.685 11.576L40.103 53.47 3.822 74.417l6.685 11.576 36.28-20.947v41.895h13.368V65.046l36.282 20.947 6.682-11.576L66.84 53.47z"/><circle fill="#E65A40" cx="53.471" cy="53.471" r="36.761"/><circle fill="#FF6C50" cx="53.471" cy="53.471" r="26.736"/></g><path d="M2.66 46.367l107.424-24.8a3.307 3.307 0 013.966 2.478l7.689 33.302a3.307 3.307 0 01-2.479 3.967l-107.424 24.8a3.307 3.307 0 01-3.967-2.478L.181 50.334a3.307 3.307 0 012.478-3.967z" fill="#F6F7F8"/><path d="M44.191 71.562c-2.21.51-4.131-.741-4.642-2.952-.506-2.196.671-4.162 2.882-4.673 1.414-.326 2.41.077 3.08.651l-.815 1.202c-.538-.477-1.16-.635-1.867-.472-1.323.306-1.967 1.5-1.64 2.914.326 1.413 1.431 2.22 2.755 1.914.706-.163 1.193-.592 1.471-1.243l1.26.723c-.352.81-1.07 1.61-2.484 1.936zm3.8.881l-.73-3.158c.582-.293.845-.734.645-2.7l-.38-3.634 5.61-1.295 1.357 5.88.797-.184.747 3.234-1.58.364-.427-1.85-4.887 1.129.427 1.85-1.58.364zm1.253-8.431l.282 2.39c.128 1.032-.055 1.818-.462 2.388l3.85-.89-1.038-4.496-2.632.608zm11.054 3.831c-2.18.504-4.155-.64-4.686-2.941-.487-2.106.655-4.16 2.806-4.656 2.18-.503 3.965.843 4.492 3.13l.087.375-5.61 1.295c.374 1.07 1.41 1.782 2.778 1.466.707-.163 1.483-.643 1.877-1.273l.961.871c-.562.859-1.547 1.466-2.705 1.733zm.908-4.85c-.228-.85-1.06-1.783-2.49-1.453-1.353.312-1.73 1.492-1.6 2.397l4.09-.944zm3.364 3.864l-.299-1.293c.617-.142.8-.93.6-2.895l-.38-3.635L70.1 57.74l1.677 7.264-1.58.365-1.357-5.88-2.632.607.283 2.39c.322 2.698-.327 4.004-1.921 4.372zm16.05-3.895l-1.985.458-2.917-2.479-.768 1.27.451 1.956-1.579.364-1.677-7.264 1.58-.364.808 3.504 2.395-4.244 1.955-.451-2.263 3.991 4 3.259zm7.129-1.646l-1.58.365-.18-.782c-.399.741-1.161 1.281-2.124 1.504-1.188.274-2.71-.214-3.082-1.823-.385-1.67.793-2.67 1.982-2.945.977-.226 1.892-.104 2.561.391l-.25-1.083c-.194-.842-1.004-1.194-2.012-.961-.812.187-1.45.651-1.939 1.414l-.9-.949c.658-.991 1.624-1.61 2.782-1.878 1.61-.371 3.18-.02 3.63 1.934l1.112 4.813zm-3.517-.139c.692-.16 1.31-.571 1.556-1.15l-.254-1.099c-.475-.413-1.211-.512-1.903-.352-.887.205-1.43.869-1.247 1.666.18.782.96 1.14 1.848.935zm-41.1-3.677l-3.88.896-3.474-15.047 7.535-1.74c3.384-.78 5.76 1.07 6.39 3.8.625 2.707-.699 5.413-4.083 6.194l-3.654.844 1.166 5.053zm1.188-9.16c1.038-.24 1.67-1.004 1.435-2.02-.24-1.037-1.142-1.446-2.18-1.207l-3.135.724.744 3.226 3.136-.724zm22.274 3.744L62.15 53.11l-3.694-4.47-1.985.458 1.167 5.053-3.88.896L50.284 40l7.535-1.74c3.338-.77 5.744 1.003 6.39 3.8.604 2.617-.675 4.386-1.96 5.205l4.345 4.819zm-7.836-7.078c1.015-.234 1.742-.996 1.497-2.057-.234-1.015-1.227-1.403-2.242-1.169l-3.068.708.745 3.226 3.068-.708zm17.26 5.187c-4.602 1.062-8.793-1.344-9.85-5.924-1.057-4.58 1.655-8.58 6.257-9.642 4.602-1.062 8.77 1.35 9.828 5.929 1.057 4.58-1.633 8.575-6.235 9.637zm-.791-3.429c2.481-.573 3.64-2.86 3.078-5.297-.568-2.459-2.607-3.984-5.089-3.41-2.504.577-3.668 2.842-3.1 5.301.562 2.436 2.607 3.984 5.11 3.406z" fill="#28282C"/></g></svg>