<svg width="256" height="44" xmlns="http://www.w3.org/2000/svg"><path d="M25.731 1.1H7.928L0 40.695h12.662l1.97-9.842h6.244c10.062 0 17.872-7.683 17.872-17.45 0-7.106-5.246-12.303-13.017-12.303zm-6.067 19.785h-3.035l1.975-9.865h2.851c2.76 0 4.085 1.527 4.085 3.861 0 3.085-2.138 5.877-5.636 6l-.24.004zm56.851-7.6c0-7.19-5.295-12.185-13.261-12.185H45.587L37.66 40.695h12.613l2.218-11.07h3.775l3.179 11.07h13.334l-4.23-13.713c4.777-2.689 7.84-7.31 7.963-13.32l.004-.377zm-20.437-1.581h3.391c2.595 0 3.872 1.316 3.88 3.236 0 2.8-2.1 5.107-5.429 5.107h-3.512l1.67-8.343zm41.529 30.092c14.995 0 26.233-9.776 26.233-24.302C123.84 7.279 116.47 0 104.732 0 89.738 0 78.484 9.775 78.484 24.294c0 10.105 7.22 17.345 18.746 17.5l.377.002zm2.013-11.642c-4.731 0-7.676-2.877-7.676-7.369 0-5.88 4.438-11.143 10.768-11.143 4.723 0 7.668 2.862 7.668 7.36 0 5.889-4.414 11.152-10.76 11.152zm41.487 10.366c5.197 0 9.563-2.833 11.495-8.418h-4.328c-1.241 2.687-3.712 4.357-6.624 4.357-3.19 0-5.183-2.029-5.183-5.1 0-4.312 3.542-8.298 7.86-8.298 2.72 0 4.47 1.552 4.88 4.062h4.256c-.156-4.726-3.746-8.123-8.655-8.123-7.007 0-12.648 5.6-12.648 12.658 0 5.072 3.594 8.862 8.947 8.862zm34.182-21.09h-13.675l-1.2 4.232c-2.67 9.318-3.517 11.4-5.334 12.6h-1.622l-1.497 7.506h3.923l.732-3.678h12.613l-.732 3.678h3.923l1.497-7.507h-1.995l3.367-16.831zm-10.614 3.82h5.594l-2.612 13.011h-7.748l.12-.139c1.533-1.829 2.65-5.236 4.646-12.872zm27.838-.037l.763-3.783h-12.329l-4.134 20.66h12.654l.763-3.812h-8.406l.965-4.8h7.32l.742-3.694h-7.319l.92-4.571h8.061zm22.364-3.783h-13.64L197.1 32.632c-.697 2.245-1.837 3.347-3.505 3.347h-1.13l-.834 4.162h1.328c4.28 0 6.857-2.096 8.396-7.175l2.937-9.707h5.571l-3.376 16.831h4.256l4.134-20.66zm21.122 0h-5.214l-8.635 9.125 1.826-9.125h-4.257l-4.134 20.66h4.257l2.124-10.617 5.96 10.617h4.706l-6.073-10.733 9.44-9.927zm16.912 0H256l-4.134 20.66h-4.256l2.527-12.579-12.34 12.58h-2.959l4.134-20.661h4.257l-2.494 12.425L252.91 19.43z" fill="#28282C"/></svg>