<svg width="42" height="35" xmlns="http://www.w3.org/2000/svg"><g fill="none" fill-rule="evenodd"><path d="M39.365 5.933c-4.189 0-13.112 5.284-13.112 5.284l-10.49 6.603-5.244 6.604 1.31 1.32 7.868-5.282L41.988 5.933h-2.623z" fill="#E3E4E8"/><path d="M32.8 15.537V10.03c2.465.534 2.868 2.507 3.937 2.507.758 0 1.312-.64 1.312-1.321 0-1.227-1.812-3.414-5.25-3.872V5.933c0-.73-.588-1.32-1.312-1.32-.725 0-1.313.59-1.313 1.32v1.4c-2.994.376-5.25 2.083-5.25 5.204 0 3.179 2.553 4.229 5.25 4.95v5.46c-2.266-.56-2.784-2.486-3.937-2.486-.84 0-1.313.647-1.313 1.32 0 1.034 1.732 3.384 5.25 3.869v1.415c0 .729.588 1.32 1.313 1.32.724 0 1.312-.591 1.312-1.32v-1.39c3.704-.38 5.25-2.409 5.25-5.214 0-2.944-2.144-4.028-5.25-4.924zm-5.25-3c0-.936.404-2.194 2.624-2.545v4.83c-1.505-.442-2.625-.988-2.625-2.285zM32.8 22.97v-4.784c2.242.712 2.624 1.414 2.624 2.275 0 1.2-.929 2.176-2.625 2.509z" fill="#6CAD84"/><path d="M11.79 9.896l-1.312 1.32 5.25 6.604 10.504 6.604s8.936 5.283 13.13 5.283h2.626L19.668 15.18 11.79 9.896z" fill="#E3E4E8"/><path d="M11.57 12.32c2.313-2.332 1.938-6.49-.838-9.288S3.83-.143 1.517 2.188c-2.313 2.332-1.938 6.49.838 9.287 2.776 2.798 6.901 3.176 9.215.844zM3.355 4.044c1.262-1.27 3.712-.861 5.475.912 1.762 1.774 2.168 4.241.906 5.51-1.261 1.27-3.712.862-5.474-.912s-2.168-4.24-.907-5.51zm-1 20.12c-2.776 2.798-3.152 6.955-.838 9.287 2.314 2.332 6.44 1.954 9.215-.844 2.776-2.797 3.152-6.955.838-9.286-2.314-2.333-6.44-1.954-9.215.844zm6.483 6.519c-1.768 1.773-4.227 2.181-5.493.912-1.266-1.27-.86-3.737.91-5.51 1.768-1.774 4.226-2.182 5.493-.913 1.265 1.27.857 3.736-.91 5.51z" fill="#5AA6D9"/><ellipse fill="#AFB0B5" cx="19.695" cy="17.82" rx="1.313" ry="1.321"/></g></svg>