<svg width="36" height="38" xmlns="http://www.w3.org/2000/svg"><g fill="none" fill-rule="evenodd"><path d="M8.4 21.375c-.663 0-1.2.532-1.2 1.188 0 .656.537 1.187 1.2 1.187H18c.662 0 1.2-.531 1.2-1.188 0-.655-.538-1.187-1.2-1.187H8.4zm16.8-4.75H8.4c-.663 0-1.2.532-1.2 1.188 0 .655.537 1.187 1.2 1.187h16.8c.662 0 1.2-.532 1.2-1.188 0-.655-.538-1.187-1.2-1.187zM8.4 14.25H18c.662 0 1.2-.532 1.2-1.188 0-.655-.538-1.187-1.2-1.187H8.4c-.663 0-1.2.532-1.2 1.188 0 .655.537 1.187 1.2 1.187zm16.8-7.125H8.4c-.663 0-1.2.532-1.2 1.188 0 .655.537 1.187 1.2 1.187h16.8c.662 0 1.2-.532 1.2-1.188 0-.655-.538-1.187-1.2-1.187zM31.2 0H2.4C1.075 0 0 1.063 0 2.375v33.25c0 1.312 1.075 2.374 2.4 2.374L26.038 38l-2.4-2.375H3.6c-.662 0-1.2-.532-1.2-1.188V3.564c0-.656.538-1.188 1.2-1.188H30c.662 0 1.2.532 1.2 1.188v24.53l.97-.96a3.6 3.6 0 011.43-.859v-23.9C33.6 1.063 32.525 0 31.2 0z" fill="#AFB0B5"/><path d="M35.636 28.835a1.219 1.219 0 00-1.713 0l-5.112 5.06-2.706-2.682a1.245 1.245 0 00-1.752 0 1.22 1.22 0 000 1.738l3.504 3.474c.125.123.27.214.423.274a1.22 1.22 0 001.363-.237l5.993-5.93a1.191 1.191 0 000-1.697z" fill="#6CAD84"/></g></svg>