<svg width="43" height="23" xmlns="http://www.w3.org/2000/svg"><g fill="none" fill-rule="evenodd"><path d="M16.552 17.091c-1.681 2.537-4.138 3.776-4.138 3.776l-2.759-4.72 1.38-.943 5.517 1.887zm3.678 1.573c-2.673.944-1.517 4.09-1.517 4.09s2.514-.639 2.873-3.932l-1.356-.158z" fill="#86B5D4"/><path d="M11.035 7.654l-.69-1.888s1.07-.573 2.069 0c.89.511 1.38 1.888 1.38 1.888h-2.76zm15.172-2.596s-1.94-2.787-4.138-4.955c0 0-1.38 1.888-4.138 3.54l2.07 2.123 6.206-.708z" fill="#254B65"/><path d="M42.759 9.541C41.035 10.25 40 13.316 40 13.316h2.759c-1.61 1.81-7.357 5.663-13.793 5.663-6.437 0-12.3.629-18.621-3.775C5.532 11.85 5.603 18.979 0 18.979c0 0 1.38-4.837 1.38-7.55C1.38 8.715 0 3.879 0 3.879c5.604 0 5.431 6.842 10.345 3.774 4.914-3.067 16.983-3.775 19.31-3.775 2.328 0 10.862 4.13 13.104 5.663z" fill="#86B5D4"/><path d="M40 13.316s1.035-3.067 2.759-3.775c-1.097-.75-3.702-2.122-6.349-3.328-3.47 5.72-2.387 9.684-1.392 11.703 3.74-1.276 6.666-3.391 7.74-4.6H40z" fill="#86B5D4"/><path d="M7.033 13.42c-.888 0-1.667-.058-2.31-.193l.21-1.866c2.42.51 7.17-.187 12.197-.921 7.276-1.066 14.801-2.167 17.834-.091l-.617 1.688c-2.67-1.828-10.321-.707-17.07.28-3.854.563-7.546 1.103-10.244 1.103z" fill="#487492"/><path d="M33.104 14.26h-4.828c-2.5 0 1.38 2.831 2.069 2.831.491 0 4.138-.943 4.138-.943l-1.38-1.888z" fill="#D5E7F4"/><path d="M29.655 3.878c-2.327 0-14.396.708-19.31 3.775C5.431 10.721 5.604 3.878 0 3.878c0 0 1.38 4.837 1.38 7.55 0 .098-.006.204-.01.307 8.616 1.97 13.113-3.52 26.906-3.52 2.452 0 4.17.653 5.976 1.723-.895 1.713-1.119 3.084-1.135 3.193-.009.06-.013.123-.013.185 0 2.047.687 3.628 1.523 4.733a22.22 22.22 0 001.655-.608c-.794-.695-1.766-2.012-1.799-4.02.058-.295.313-1.377 1.047-2.683.33.22.67.45 1.022.69 2.758 1.888 4.138-1.887 6.207-1.887-2.242-1.533-10.776-5.663-13.104-5.663z" fill="#487492"/><ellipse fill="#FFF" cx="38.621" cy="10.485" rx=".69" ry=".944"/><path d="M6.893 14.622c-.601-.605-1.376-1.677-1.376-3.193 0-1.575.835-2.67 1.444-3.262C5 7.181 3.894 3.878 0 3.878c0 0 1.38 4.837 1.38 7.55C1.38 14.143 0 18.98 0 18.98c3.82 0 5.003-3.31 6.893-4.357z" fill="#254B65"/></g></svg>