<svg width="33" height="31" xmlns="http://www.w3.org/2000/svg"><g fill="none" fill-rule="evenodd"><path d="M23.282 30.958H9.654a2.28 2.28 0 012.271-2.29h9.086a2.28 2.28 0 012.271 2.29" fill="#E8EDEE"/><path fill="#B0B6BB" d="M20.443 28.667h-7.95l1.136-4.58h5.678z"/><path d="M32.936 19.507H0V2.047C0 .94.89.041 1.988.041h28.96c1.098 0 1.988.898 1.988 2.004v17.461z" fill="#38454F"/><path fill="#D8D8D8" d="M1.5 1.5h30v17h-30z"/><path d="M30.948 24.088H1.988A1.996 1.996 0 010 22.084v-2.577h32.936v2.577c0 1.106-.89 2.004-1.988 2.004" fill="#E8EDEE"/></g></svg>