<svg width="71" height="53" xmlns="http://www.w3.org/2000/svg"><g fill="none" fill-rule="evenodd"><path fill="#818389" d="M30.386 43.982l3.322 4.605H.083v-4.605z"/><path d="M56.315 42.41c0 .86-.702 1.564-1.56 1.564H6.01c-.86 0-1.562-.704-1.562-1.565V1.63C4.448.77 5.15.067 6.01.067h48.744c.859 0 1.561.703 1.561 1.564v40.78z" fill="#434655"/><path fill="#FFF" d="M8.35 3.975h44.064v36.087H8.35z"/><path d="M46.072 29.877c0-4.882 3.947-8.84 8.819-8.84 4.873 0 8.82 3.958 8.82 8.84 0 4.883-3.947 8.842-8.82 8.842-4.872 0-8.82-3.958-8.82-8.842z" fill="#F6CBAD"/><path d="M25.447 32.512a2.753 2.753 0 013.814.812l6.574 10.136 8.892-3.422a15.9 15.9 0 015.346-2.887 9.87 9.87 0 004.748 1.21c1.72 0 3.336-.44 4.745-1.21C66.073 39.176 70.8 45.26 70.8 52.448H38.84c0-1.553.234-3.05.644-4.471l-3.756 1.448a2.754 2.754 0 01-3.303-1.076l-7.792-12.012a2.77 2.77 0 01.813-3.825z" fill="#FF6C50"/><path fill="#434655" d="M25.645 31.813l-.981.506-9.4-18.22.98-.507z"/><path fill="#FF6C50" d="M23.453 9.402h18.778v2.003H23.453zm0 5.607h18.778v2.003H23.453zm0 5.606h18.778v2.003H23.453z"/></g></svg>