<svg width="18" height="18" xmlns="http://www.w3.org/2000/svg"><g fill="#5AA5D8"><path d="M9 0C4.037 0 0 4.037 0 9s4.037 9 9 9 9-4.037 9-9-4.037-9-9-9zm3.785 15.01l-.388-.666a.252.252 0 00-.343-.091.249.249 0 00-.09.343l.388.668a7.054 7.054 0 01-2.878.825v-.942a.474.474 0 00-.948 0v.942a7.053 7.053 0 01-2.84-.805l.385-.67a.25.25 0 00-.093-.343.252.252 0 00-.342.093l-.384.67a7.163 7.163 0 01-2.153-2.08l.814-.47a.474.474 0 00-.473-.82l-.816.47A7.055 7.055 0 011.9 9.273l.774-.003a.249.249 0 00.25-.251.251.251 0 00-.25-.25l-.775.002c.033-1.04.29-2.023.725-2.905l.816.471a.471.471 0 00.647-.173.474.474 0 00-.174-.647l-.814-.47A7.16 7.16 0 015.215 2.99l.388.667a.253.253 0 00.343.09.249.249 0 00.09-.342l-.388-.668a7.053 7.053 0 012.878-.826v.942a.474.474 0 00.948 0v-.942a7.052 7.052 0 012.84.805l-.385.67a.251.251 0 00.435.25l.384-.67a7.162 7.162 0 012.153 2.08l-.814.47a.474.474 0 10.473.82l.816-.47c.429.87.685 1.838.724 2.862l-.774.002a.249.249 0 00-.25.251.252.252 0 00.25.25h.002l.773-.002a7.057 7.057 0 01-.725 2.905l-.816-.47a.474.474 0 00-.473.82l.814.47a7.165 7.165 0 01-2.116 2.057z"/><path d="M12.5 6.431L9.464 8.117a.992.992 0 00-.926 0L5.5 6.431a.595.595 0 00-.577 1.04l3.1 1.72a.997.997 0 001.956 0l3.1-1.72a.595.595 0 00-.577-1.04z"/></g></svg>