<svg width="512" height="512" fill="none" xmlns="http://www.w3.org/2000/svg"><path d="M203.497 169a5.668 5.668 0 01-3.683-1.36c-2.622-2.243-25.646-22.372-26.764-38.476a19.78 19.78 0 011.093-8.032 19.717 19.717 0 014.225-6.91 19.835 19.835 0 0112.013-6.073 19.81 19.81 0 0113.116 2.999 19.815 19.815 0 0125.135 3.074 19.756 19.756 0 015.318 14.942c-1.135 16.11-24.142 36.238-26.764 38.476a5.667 5.667 0 01-3.689 1.36zm186 295a5.668 5.668 0 01-3.683-1.36c-2.622-2.243-25.646-22.372-26.764-38.476a19.78 19.78 0 011.093-8.032 19.717 19.717 0 014.225-6.91 19.835 19.835 0 0112.013-6.073 19.81 19.81 0 0113.116 2.999 19.815 19.815 0 0125.135 3.074 19.756 19.756 0 015.318 14.942c-1.135 16.11-24.142 36.238-26.764 38.476a5.667 5.667 0 01-3.689 1.36zm-97.504-92a13.86 13.86 0 01-8.936-3.256c-6.361-5.368-62.223-53.545-64.935-92.088a46.704 46.704 0 012.652-19.224 47.095 47.095 0 0110.249-16.541c7.712-8.052 18.019-13.192 29.147-14.535a48.602 48.602 0 0131.823 7.178 48.603 48.603 0 0131.831-7.183c11.131 1.343 21.441 6.485 29.153 14.54a47.11 47.11 0 0110.248 16.541 46.722 46.722 0 012.654 19.224c-2.754 38.557-58.574 86.733-64.936 92.088a13.86 13.86 0 01-8.95 3.256z" fill="#F0BC5E"/><path d="M143.5 401.5L68 98.5l13.5-20 233-57.5 26 13.5 10 48.5L164 78.5l-20.5 25v298z" fill="#F0BC5E"/><path d="M415.191 498.162h-242.08a33.857 33.857 0 01-23.904-9.915 33.858 33.858 0 01-9.915-23.905V107.935a33.855 33.855 0 0133.819-33.82h242.08a33.853 33.853 0 0133.847 33.82v356.394a33.854 33.854 0 01-33.847 33.833zM173.111 87.967a20.003 20.003 0 00-19.981 19.968v356.394a20 20 0 0019.981 19.995h242.08a20.002 20.002 0 0020.009-19.982V107.935a20.002 20.002 0 00-19.982-19.982l-242.107.014z" fill="#000"/><path d="M146.204 426.482a6.915 6.915 0 01-6.719-5.3L63.903 107.243a32.33 32.33 0 0123.863-39.009l222.202-53.49a32.332 32.332 0 0138.988 23.864l9.818 40.821a6.922 6.922 0 01-5.141 8.202 6.918 6.918 0 01-8.31-4.964l-9.818-40.821a18.493 18.493 0 00-22.313-13.651L91.004 81.643a18.494 18.494 0 00-13.65 22.314l75.554 313.987a6.919 6.919 0 01-6.732 8.538h.028z" fill="#000"/><path d="M294.151 383.848a6.916 6.916 0 01-4.608-1.751c-2.982-2.657-73.071-65.639-76.164-111.989a52.291 52.291 0 0113.901-39.099 48.39 48.39 0 0135.03-15.658 46.055 46.055 0 0131.827 13.098 46.055 46.055 0 0131.827-13.098 48.44 48.44 0 0135.031 15.658 52.338 52.338 0 0113.907 39.099c-3.1 46.356-73.189 109.319-76.171 111.989a6.92 6.92 0 01-4.58 1.751zm-66.968-114.661c2.304 34.505 51.497 83.657 66.961 98.304 15.464-14.654 64.664-63.833 66.968-98.304a37.936 37.936 0 00-10.205-28.727 34.521 34.521 0 00-24.908-11.271 33.303 33.303 0 00-26.334 13.803 7.165 7.165 0 01-11.008 0 33.302 33.302 0 00-26.333-13.803 34.516 34.516 0 00-24.908 11.271 37.931 37.931 0 00-10.206 28.727h-.027zm157.744 202.074a6.911 6.911 0 01-4.49-1.653c-3.197-2.726-31.267-27.192-32.63-46.758a23.939 23.939 0 016.483-18.162 24.218 24.218 0 0130.637-3.737 24.216 24.216 0 0130.637 3.737 23.939 23.939 0 016.49 18.155c-1.384 19.573-29.433 44.039-32.63 46.765a6.92 6.92 0 01-4.497 1.653zm-23.317-49.38c.63 8.995 13.222 23.642 23.317 33.156 10.095-9.514 22.687-24.147 23.317-33.156a10.222 10.222 0 00-2.768-7.763 9.956 9.956 0 00-15.111.484 7.153 7.153 0 01-8.378 1.821 7.157 7.157 0 01-2.436-1.821 10.015 10.015 0 00-15.111-.484 10.24 10.24 0 00-2.767 7.763h-.063zM203.368 175.388a6.922 6.922 0 01-4.491-1.654c-3.196-2.726-31.266-27.191-32.629-46.765a23.951 23.951 0 016.483-18.162 24.216 24.216 0 0130.637-3.736 24.214 24.214 0 0130.644 3.736 23.966 23.966 0 016.483 18.162c-1.384 19.581-29.433 44.046-32.63 46.765a6.92 6.92 0 01-4.497 1.654zM180.051 126c.63 8.995 13.222 23.642 23.317 33.163 10.094-9.514 22.687-24.147 23.317-33.163a10.24 10.24 0 00-2.768-7.756 9.972 9.972 0 00-15.118.478 7.154 7.154 0 01-5.407 2.466 7.154 7.154 0 01-5.407-2.466 10.016 10.016 0 00-7.445-3.688 10.003 10.003 0 00-7.666 3.203 10.24 10.24 0 00-2.768 7.763h-.055z" fill="#000"/></svg>