<svg width="30" height="37" xmlns="http://www.w3.org/2000/svg"><g fill="none" fill-rule="evenodd"><path d="M29.99 5.771c.029 0-14.61-5.627-14.986-5.771C14.716.115-.01 5.771.02 5.771v10.62c0 7.358 2.104 16.967 14.985 20.545 12.853-3.578 14.957-13.36 14.957-20.546.029-3.636.029-10.619.029-10.619z" fill="#E3E4E8"/><path d="M15.004 36.936V0C14.457.202.02 5.771.02 5.771v10.62c0 7.358 2.104 16.967 14.985 20.545z" fill="#D3D4DA"/><path d="M27.08 7.762c.028 0-11.787-4.761-12.104-4.876-.26.086-12.133 4.674-12.104 4.645v8.917c0 6.175 1.21 14.601 12.104 17.602 10.864-3 12.103-11.571 12.103-17.602.029-3.059.029-8.686 0-8.686z" fill="#FF6C50"/><path d="M15.004 2.886C14.745 2.972 2.872 7.56 2.901 7.53v8.917c0 6.175 1.21 14.601 12.103 17.602V2.886z" fill="#E65A40"/><path d="M22.908 12.37l-8.94 9.39a.321.321 0 01-.47 0l-4.234-4.448a.362.362 0 010-.495.322.322 0 01.47 0l4 4.201 8.704-9.143a.322.322 0 01.47 0c.13.137.13.358 0 .494h0z" stroke="#FFF" stroke-width=".833" fill="#FFF"/></g></svg>