<svg width="45" height="42" xmlns="http://www.w3.org/2000/svg"><g fill="none" fill-rule="evenodd"><path d="M22.421 19.345c-6.544 0-11.867-4.286-11.867-9.555 0-5.268 5.323-9.554 11.867-9.554 6.544 0 11.868 4.287 11.868 9.554 0 5.269-5.324 9.555-11.868 9.555zm0-17.299c-5.546 0-10.057 3.474-10.057 7.744s4.511 7.744 10.057 7.744S32.48 14.06 32.48 9.79s-4.513-7.744-10.06-7.744zM.604 22.264v15.082c0 2.19 1.791 3.98 3.982 3.98h35.671a3.993 3.993 0 003.982-3.98V22.264H.604z" fill="#E65A40"/><path d="M44.465 21.052a4.034 4.034 0 01-4.023 4.023H4.403a4.034 4.034 0 01-4.024-4.023V10.73a4.035 4.035 0 014.023-4.024h36.041a4.035 4.035 0 014.023 4.024v10.322z" fill="#FF6C50"/><path fill="#68696D" d="M11.921 32.258l-2.581 3.62-2.583-3.62V6.771h5.164z"/><path fill="#BBBEC3" d="M5.964 27.954H12.8v.454H5.964z"/><path d="M12.37 29.366c0 .553-.451 1.006-1.005 1.006H7.313a1.009 1.009 0 01-1.005-1.006v-2.368c0-.553.452-1.006 1.005-1.006h4.052c.554 0 1.006.453 1.006 1.006v2.368h0z" stroke="#E3E4E8" stroke-width="1.094"/><path fill="#BBBEC3" d="M9.223 27.453h.319v1.332h-.32z"/><path fill="#68696D" d="M38 32.258l-2.581 3.62-2.582-3.62V6.771H38z"/><path fill="#BBBEC3" d="M32.044 27.954h6.836v.454h-6.836z"/><path d="M38.45 29.366a1.01 1.01 0 01-1.005 1.006h-4.052a1.009 1.009 0 01-1.005-1.006v-2.368c0-.553.452-1.006 1.005-1.006h4.052a1.01 1.01 0 011.006 1.006v2.368h0z" stroke="#E3E4E8" stroke-width="1.094"/><path fill="#BBBEC3" d="M35.302 27.453h.319v1.332h-.32z"/></g></svg>