<svg width="41" height="39" xmlns="http://www.w3.org/2000/svg" xmlns:xlink="http://www.w3.org/1999/xlink"><defs><filter x="-50%" y="-50%" width="200%" height="200%" filterUnits="objectBoundingBox" id="a"><feOffset in="SourceAlpha" result="shadowOffsetOuter1"/><feGaussianBlur stdDeviation=".5" in="shadowOffsetOuter1" result="shadowBlurOuter1"/><feColorMatrix values="0 0 0 0 0 0 0 0 0 0 0 0 0 0 0 0 0 0 0.5 0" in="shadowBlurOuter1"/></filter><path d="M8.864 15.955h2.202l2.514 6.817 2.501-6.817h2.202l-3.493 8.863h-2.42l-3.506-8.863zm10.262 0h1.93v8.863h-1.93v-8.863zm3.725 0h4.24c.635 0 1.183.128 1.645.385a2.6 2.6 0 011.047 1.03c.236.43.353.91.353 1.442 0 .522-.12.999-.36 1.428-.24.43-.589.77-1.046 1.023-.458.253-1.004.38-1.638.38H24.78v3.175h-1.93v-8.863zm4.934 1.96c-.254-.226-.571-.34-.952-.34h-2.052v2.446h2.052c.39 0 .71-.113.959-.339.249-.226.373-.52.373-.884 0-.363-.126-.657-.38-.883z" id="b"/></defs><g fill="none" fill-rule="evenodd"><path stroke="#E4B24D" stroke-width=".75" fill="#FC6" d="M20.5 36.392l-2.264 2.476-1.632-2.93-2.773 1.886-.912-3.228-3.134 1.196-.143-3.352-3.326.442.634-3.295-3.337-.337 1.376-3.06-3.17-1.097 2.045-2.66-2.831-1.8 2.603-2.115-2.34-2.404 3.021-1.459-1.722-2.879 3.276-.722-1.012-3.199 3.354.053-.247-3.346 3.251.825.531-3.313 2.974 1.552 1.281-3.1 2.536 2.196L20.5 0l1.961 2.722L24.997.526l1.28 3.1 2.975-1.552.53 3.313 3.252-.825-.247 3.346 3.354-.053-1.012 3.199 3.276.722-1.722 2.88 3.02 1.458-2.34 2.404 2.604 2.116-2.831 1.8 2.045 2.659-3.17 1.098 1.376 3.059-3.337.337.634 3.295-3.326-.442-.143 3.352-3.134-1.196-.912 3.228-2.773-1.887-1.632 2.931z"/><g transform="translate(1)"><use fill="#000" filter="url(#a)" xlink:href="#b"/><use fill="#FFF" xlink:href="#b"/></g></g></svg>