<svg width="56" height="56" xmlns="http://www.w3.org/2000/svg"><defs><linearGradient x1="14.645%" y1="85.355%" x2="85.355%" y2="14.646%" id="a"><stop stop-color="#689171" offset="0%"/><stop stop-color="#C9DDCF" offset="100%"/></linearGradient><linearGradient x1="-6.857%" y1="106.917%" x2="90.217%" y2="9.723%" id="c"><stop stop-color="#B0CDB7" offset="0%"/><stop stop-color="#C9DDCF" offset="82%"/><stop stop-color="#E5EFE7" offset="100%"/></linearGradient><linearGradient x1="-9.866%" y1="-820.513%" x2="109.187%" y2="-701.312%" id="d"><stop stop-color="#B0CDB7" offset="0%"/><stop stop-color="#C9DDCF" offset="82%"/><stop stop-color="#E5EFE7" offset="100%"/></linearGradient><linearGradient x1="24.647%" y1="-1028.509%" x2="69.993%" y2="-983.106%" id="e"><stop stop-color="#B0CDB7" offset="0%"/><stop stop-color="#C9DDCF" offset="82%"/><stop stop-color="#E5EFE7" offset="100%"/></linearGradient><linearGradient x1="-12.025%" y1="-1070.962%" x2="129.691%" y2="-929.069%" id="f"><stop stop-color="#B0CDB7" offset="0%"/><stop stop-color="#C9DDCF" offset="82%"/><stop stop-color="#E5EFE7" offset="100%"/></linearGradient><linearGradient x1="50.286%" y1="64.865%" x2="49.982%" y2="32.229%" id="g"><stop stop-color="#689171" offset="28%"/><stop stop-color="#95BCA0" offset="100%"/></linearGradient><linearGradient x1="131.269%" y1="-1001.575%" x2="-1.252%" y2="-1001.575%" id="h"><stop stop-color="#689171" offset="28%"/><stop stop-color="#95BCA0" offset="100%"/></linearGradient><linearGradient x1="50%" y1="-1746.838%" x2="50%" y2="-1851.337%" id="i"><stop stop-color="#689171" offset="28%"/><stop stop-color="#95BCA0" offset="100%"/></linearGradient><linearGradient x1="30.243%" y1="-998.314%" x2="71.734%" y2="-1002.129%" id="j"><stop stop-color="#689171" offset="28%"/><stop stop-color="#95BCA0" offset="100%"/></linearGradient><linearGradient x1="-47.758%" y1="-530.512%" x2="100.426%" y2="-382.327%" id="k"><stop stop-color="#689171" offset="0%"/><stop stop-color="#C9DDCF" offset="100%"/></linearGradient><linearGradient x1="2.044%" y1="-562.326%" x2="71.343%" y2="-493.031%" id="l"><stop stop-color="#689171" offset="28%"/><stop stop-color="#95BCA0" offset="100%"/></linearGradient><linearGradient x1="-38.3%" y1="138.3%" x2="136.983%" y2="-36.983%" id="m"><stop stop-color="#B0CDB7" offset="0%"/><stop stop-color="#E5EFE7" offset="17%"/><stop stop-color="#FFF" offset="100%"/></linearGradient><linearGradient x1="3.324%" y1="80.888%" x2="136.309%" y2="-27.683%" id="n"><stop stop-color="#C9DDCF" offset="0%"/><stop stop-color="#C9DDCF" offset="17%"/><stop stop-color="#FFF" offset="100%"/></linearGradient><radialGradient cx="50%" cy="50%" fx="50%" fy="50%" r="50%" id="b"><stop stop-color="#606060" offset="0%"/><stop stop-color="#689171" stop-opacity=".87" offset="13%"/><stop stop-color="#B0CDB7" stop-opacity=".63" offset="37%"/><stop stop-color="#C9DDCF" stop-opacity=".33" offset="67%"/><stop stop-color="#E5EFE7" stop-opacity="0" offset="100%"/></radialGradient></defs><g fill="none"><circle fill="url(#a)" cx="28" cy="28" r="28"/><circle fill="url(#b)" cx="28" cy="28" r="28"/><path d="M45.428 10.527a26.36 26.36 0 00-8.094-5.56 2560.793 2560.793 0 01-7.422 7.53c4.478 4.524 9.024 9.078 13.544 13.563 2.527-2.507 5.035-4.984 7.523-7.43a26.392 26.392 0 00-5.556-8.094l.005-.009z" fill="url(#c)"/><path d="M10.52 10.527a26.392 26.392 0 00-5.555 8.094c2.479 2.44 4.986 4.917 7.522 7.43 4.52-4.484 9.066-9.033 13.544-13.563a2579.36 2579.36 0 01-7.422-7.53 26.36 26.36 0 00-8.09 5.57z" fill="url(#d)"/><path d="M10.52 45.473a26.338 26.338 0 008.093 5.56 2754.56 2754.56 0 017.423-7.53A2139.697 2139.697 0 0012.492 29.94a2593.824 2593.824 0 01-7.523 7.43 26.372 26.372 0 005.55 8.103z" fill="url(#e)"/><path d="M45.428 45.473a26.392 26.392 0 005.555-8.094 2802.03 2802.03 0 01-7.523-7.43c-4.52 4.484-9.066 9.033-13.544 13.563 2.505 2.53 4.979 5.04 7.422 7.53a26.36 26.36 0 008.09-5.57z" fill="url(#f)"/><path d="M37.338 4.967a23.133 23.133 0 00-18.729 0 794.397 794.397 0 004.284 10.693c3.387-.017 6.774-.017 10.161 0a942.125 942.125 0 004.284-10.694z" fill="url(#g)"/><path d="M4.965 18.625a23.197 23.197 0 000 18.75 772.297 772.297 0 0010.683-4.29c-.017-3.39-.017-6.78 0-10.17a986.873 986.873 0 00-10.683-4.29z" fill="url(#h)"/><path d="M18.61 51.033a23.133 23.133 0 0018.728 0 776.53 776.53 0 00-4.284-10.694c-3.387.017-6.774.017-10.16 0a953.13 953.13 0 00-4.285 10.694z" fill="url(#i)"/><path d="M50.983 37.375a23.206 23.206 0 000-18.75 775.92 775.92 0 00-10.684 4.29c.017 3.39.017 6.78 0 10.17a969.333 969.333 0 0010.684 4.29z" fill="url(#j)"/><circle fill="url(#k)" cx="28" cy="28" r="20.42"/><path d="M28 10.533C18.484 10.55 10.551 18.484 10.533 28 10.55 37.516 18.484 45.449 28 45.467 37.516 45.45 45.449 37.516 45.467 28 45.45 18.484 37.516 10.551 28 10.533z" fill="url(#l)"/><path d="M28 13.758c-7.807.008-14.234 6.435-14.242 14.242-.007 7.807 6.435 14.234 14.242 14.242 7.807.007 14.234-6.435 14.242-14.242.007-7.807-6.435-14.234-14.242-14.242z" fill="url(#m)"/><path d="M30.342 37.545c-7.835 0-14.249-6.4-14.23-14.219.004-1.317.191-2.627.557-3.892A14.094 14.094 0 0013.759 28c.008 7.807 6.434 14.234 14.241 14.242 6.467 0 11.974-4.42 13.695-10.357a14.315 14.315 0 01-11.353 5.66z" fill="url(#n)"/><path d="M15.618 32.18l1.847-8.385h4.425a2.44 2.44 0 012.465 2.477c0 1.218-.805 3.268-3.71 3.268h-1.91l-.579 2.64h-2.538zm5.153-4.853c.465 0 .956-.276.956-.765 0-.378-.264-.554-.692-.554h-1.52l-.29 1.32h1.546zm2.943 3.369l1.508-1.81c.578.755 1.76 1.283 2.89 1.283.479 0 .668-.219.668-.365 0-.704-4.01-.679-4.01-3.13 0-1.459 1.202-3.005 3.594-3.005 1.37 0 2.741.478 3.659 1.395l-1.522 1.76c-.69-.691-1.76-1.018-2.551-1.018-.328 0-.515.15-.515.34 0 .666 4.022.703 4.022 3.13 0 1.76-1.383 3.055-3.544 3.055-1.787 0-3.37-.642-4.2-1.635zm7.931 1.484l1.849-8.385h4.425a2.44 2.44 0 012.463 2.477c0 1.218-.804 3.268-3.707 3.268h-1.911l-.579 2.64h-2.54zm5.155-4.853c.465 0 .955-.276.955-.765 0-.378-.263-.554-.691-.554h-1.517l-.289 1.32H36.8z" fill="#000"/></g></svg>