<svg width="118" height="105" xmlns="http://www.w3.org/2000/svg"><g fill="none" fill-rule="evenodd"><g fill="#434655"><path d="M15.676 63.982h-2.514c-.595 0-1.058.461-1.058 1.054 0 .594.463 1.055 1.058 1.055h2.514c.595 0 1.058-.461 1.058-1.055 0-.593-.463-1.054-1.058-1.054zm17.594 0h-2.514c-.595 0-1.058.461-1.058 1.054 0 .594.463 1.055 1.058 1.055h2.513c.596 0 1.059-.461 1.059-1.055 0-.593-.463-1.054-1.059-1.054z"/><path d="M32.74 73.537l-2.05-18.055a2.512 2.512 0 00-2.514-2.24H18.19c-1.257 0-2.315.922-2.513 2.24l-2.05 18.055c-.2 1.45.991 2.767 2.513 2.767h14.154c1.455 0 2.646-1.318 2.447-2.767zm6.68-9.555h-2.513c-.595 0-1.058.461-1.058 1.054 0 .594.463 1.055 1.058 1.055h2.513c.596 0 1.059-.461 1.059-1.055.066-.593-.463-1.054-1.059-1.054zm17.594 0h-2.513c-.595 0-1.058.461-1.058 1.054 0 .594.463 1.055 1.058 1.055h2.513c.595 0 1.058-.461 1.058-1.055.067-.593-.463-1.054-1.058-1.054z"/><path d="M56.551 73.537l-2.05-18.055a2.512 2.512 0 00-2.514-2.24H41.934c-1.257 0-2.315.922-2.514 2.24l-2.05 18.055c-.198 1.45.992 2.767 2.513 2.767h14.155c1.521 0 2.645-1.318 2.513-2.767zm6.68-9.555h-2.513c-.595 0-1.058.461-1.058 1.054 0 .594.463 1.055 1.058 1.055h2.513c.596 0 1.059-.461 1.059-1.055 0-.593-.463-1.054-1.059-1.054zm17.594 0h-2.513c-.595 0-1.058.461-1.058 1.054 0 .594.463 1.055 1.058 1.055h2.513c.595 0 1.058-.461 1.058-1.055 0-.593-.463-1.054-1.058-1.054z"/><path d="M80.296 73.537l-2.05-18.055a2.512 2.512 0 00-2.514-2.24H65.68c-1.257 0-2.315.922-2.514 2.24l-2.05 18.055c-.198 1.45.992 2.767 2.513 2.767h14.155c1.52 0 2.711-1.318 2.513-2.767zm6.68-9.555h-2.513c-.595 0-1.058.461-1.058 1.054 0 .594.463 1.055 1.058 1.055h2.513c.596 0 1.059-.461 1.059-1.055.066-.593-.397-1.054-1.059-1.054zm17.594 0h-2.513c-.596 0-1.059.461-1.059 1.054 0 .594.463 1.055 1.059 1.055h2.513c.595 0 1.058-.461 1.058-1.055.066-.593-.463-1.054-1.058-1.054z"/><path d="M104.107 73.537l-2.05-18.055a2.512 2.512 0 00-2.514-2.24H89.49c-1.257 0-2.315.922-2.514 2.24l-2.05 18.055c-.198 1.45.992 2.767 2.513 2.767h14.155c1.521 0 2.645-1.318 2.513-2.767z"/></g><g fill="#818389"><path d="M3.77 77.754H1.257c-.596 0-1.059.461-1.059 1.054s.463 1.054 1.059 1.054H3.77c.595 0 1.058-.46 1.058-1.054 0-.527-.463-1.054-1.058-1.054zm17.594 0H18.85c-.595 0-1.058.461-1.058 1.054s.463 1.054 1.058 1.054h2.514c.595 0 1.058-.46 1.058-1.054 0-.527-.463-1.054-1.058-1.054z"/><path d="M20.835 87.308l-2.05-18.054a2.512 2.512 0 00-2.514-2.24H6.283c-1.256 0-2.314.922-2.513 2.24L1.72 87.308c-.199 1.45.992 2.768 2.513 2.768h14.154c1.456.066 2.646-1.252 2.448-2.768zm6.746-9.554h-2.513c-.596 0-1.059.461-1.059 1.054s.463 1.054 1.059 1.054h2.513c.595 0 1.058-.46 1.058-1.054 0-.527-.463-1.054-1.058-1.054zm17.528 0h-2.514c-.595 0-1.058.461-1.058 1.054s.463 1.054 1.058 1.054h2.514c.595 0 1.058-.46 1.058-1.054.066-.527-.397-1.054-1.058-1.054z"/><path d="M44.646 87.308l-2.05-18.054a2.512 2.512 0 00-2.514-2.24h-9.988c-1.256 0-2.314.922-2.513 2.24l-2.05 18.054c-.199 1.45.992 2.768 2.513 2.768h14.154c1.456.066 2.58-1.252 2.448-2.768zm6.68-9.554h-2.513c-.596 0-1.059.461-1.059 1.054s.463 1.054 1.059 1.054h2.513c.595 0 1.058-.46 1.058-1.054.066-.527-.463-1.054-1.058-1.054zm17.594 0h-2.514c-.595 0-1.058.461-1.058 1.054s.463 1.054 1.058 1.054h2.514c.595 0 1.058-.46 1.058-1.054 0-.527-.463-1.054-1.058-1.054z"/><path d="M68.39 87.308l-2.05-18.054a2.512 2.512 0 00-2.513-2.24H53.773c-1.256 0-2.315.922-2.513 2.24l-2.05 18.054c-.199 1.45.992 2.768 2.513 2.768h14.154a2.432 2.432 0 002.514-2.768zm6.747-9.554h-2.513c-.596 0-1.059.461-1.059 1.054s.463 1.054 1.059 1.054h2.513c.595 0 1.058-.46 1.058-1.054 0-.527-.463-1.054-1.058-1.054zm17.593 0h-2.513c-.595 0-1.058.461-1.058 1.054s.463 1.054 1.058 1.054h2.514c.595 0 1.058-.46 1.058-1.054 0-.527-.463-1.054-1.058-1.054z"/><path d="M92.202 87.308l-2.05-18.054a2.512 2.512 0 00-2.514-2.24H77.584c-1.256 0-2.315.922-2.513 2.24l-2.05 18.054c-.199 1.45.992 2.768 2.513 2.768h14.154c1.521.066 2.646-1.252 2.514-2.768zm6.68-9.554h-2.513c-.596 0-1.059.461-1.059 1.054s.463 1.054 1.059 1.054h2.513c.595 0 1.058-.46 1.058-1.054.066-.527-.463-1.054-1.058-1.054zm17.594 0h-2.514c-.595 0-1.058.461-1.058 1.054s.463 1.054 1.058 1.054h2.514c.595 0 1.058-.46 1.058-1.054 0-.527-.463-1.054-1.058-1.054z"/><path d="M115.946 87.308l-2.05-18.054a2.512 2.512 0 00-2.513-2.24h-10.054c-1.257 0-2.315.922-2.513 2.24l-2.05 18.054c-.2 1.45.991 2.768 2.513 2.768h14.154a2.432 2.432 0 002.513-2.768z"/></g><g fill="#434655"><path d="M15.676 92.58h-2.514c-.595 0-1.058.461-1.058 1.054s.463 1.054 1.058 1.054h2.514c.595 0 1.058-.46 1.058-1.054 0-.527-.463-1.054-1.058-1.054zm17.594 0h-2.514c-.595 0-1.058.461-1.058 1.054s.463 1.054 1.058 1.054h2.513c.596 0 1.059-.46 1.059-1.054 0-.527-.463-1.054-1.059-1.054z"/><path d="M32.74 102.134L30.69 84.08a2.512 2.512 0 00-2.514-2.24H18.19c-1.257 0-2.315.922-2.513 2.24l-2.05 18.054c-.2 1.45.991 2.768 2.513 2.768h14.154c1.455.066 2.646-1.252 2.447-2.768zm6.68-9.554h-2.513c-.595 0-1.058.461-1.058 1.054s.463 1.054 1.058 1.054h2.513c.596 0 1.059-.46 1.059-1.054.066-.527-.463-1.054-1.059-1.054zm17.594 0h-2.513c-.595 0-1.058.461-1.058 1.054s.463 1.054 1.058 1.054h2.513c.595 0 1.058-.46 1.058-1.054.067-.527-.463-1.054-1.058-1.054z"/><path d="M56.551 102.134l-2.05-18.054a2.512 2.512 0 00-2.514-2.24H41.934c-1.257 0-2.315.922-2.514 2.24l-1.984 18.054c-.198 1.45.992 2.768 2.514 2.768h14.154c1.455.066 2.58-1.252 2.447-2.768zm6.68-9.554h-2.513c-.595 0-1.058.461-1.058 1.054s.463 1.054 1.058 1.054h2.513c.596 0 1.059-.46 1.059-1.054 0-.527-.463-1.054-1.059-1.054zm17.594 0h-2.513c-.595 0-1.058.461-1.058 1.054s.463 1.054 1.058 1.054h2.513c.595 0 1.058-.46 1.058-1.054 0-.527-.463-1.054-1.058-1.054z"/><path d="M80.296 102.134l-2.05-18.054a2.512 2.512 0 00-2.514-2.24H65.68c-1.257 0-2.315.922-2.514 2.24l-2.05 18.054c-.198 1.45.992 2.768 2.513 2.768h14.155a2.432 2.432 0 002.513-2.768zm6.68-9.554h-2.513c-.595 0-1.058.461-1.058 1.054s.463 1.054 1.058 1.054h2.513c.596 0 1.059-.46 1.059-1.054.066-.527-.397-1.054-1.059-1.054zm17.594 0h-2.513c-.596 0-1.059.461-1.059 1.054s.463 1.054 1.059 1.054h2.513c.595 0 1.058-.46 1.058-1.054.066-.527-.463-1.054-1.058-1.054z"/><path d="M104.107 102.134l-2.05-18.054a2.512 2.512 0 00-2.514-2.24H89.49c-1.257 0-2.315.922-2.514 2.24l-2.05 18.054c-.198 1.45.992 2.768 2.513 2.768h14.155c1.521.066 2.645-1.252 2.513-2.768z"/></g><path fill="#FF6C50" d="M11 4h96.104v47.245H11z"/><path d="M43.153 36h4.244l6.13-16h-3.864l-4.388 12.306L40.863 20H37l6.153 16zm15.429 0h3.386V20h-3.386v16zm10.111 0h3.386v-5.733h4.055c3.434 0 5.341-2.327 5.341-5.11 0-2.806-1.884-5.157-5.341-5.157h-7.44v16zm9.324-10.867c0 1.344-1.001 2.207-2.337 2.207h-3.6v-4.413h3.6c1.336 0 2.337.887 2.337 2.206z" fill="#FFF"/><path fill="#E65A40" d="M.794 54.56l10.649-3.427V3.888L.793.46zm116.145 0l-10.65-3.427V3.888L116.94.46z"/></g></svg>