<svg width="23" height="24" xmlns="http://www.w3.org/2000/svg"><g fill="none"><path d="M14.608 20.427A3.574 3.574 0 0111.035 24a3.573 3.573 0 01-3.573-3.573l3.579-1.84 3.567 1.84z" fill="#E49D15"/><path d="M14.435 21.529a3.581 3.581 0 01-2.445 2.342 3.576 3.576 0 01-1.822-1.196c-.372-.46-.037-1.146.555-1.146h3.712zm5.825-4.675l-7.676 1.66-10.774-1.66c.845 0 1.323-.442 1.594-1.175C4.717 12.139 1.221 1.82 11.035 1.82s6.317 10.318 7.63 13.858c.272.733.75 1.175 1.595 1.175z" fill="#FC6"/><path d="M22.046 18.64c0 .987-.8 1.787-1.786 1.787H1.81c-.493 0-.94-.2-1.263-.523a1.786 1.786 0 011.263-3.05h18.45a1.781 1.781 0 011.786 1.787z" fill="#E49D15"/><path d="M18.665 15.679h-9.59a1.83 1.83 0 01-1.828-1.89c.135-4.371-.562-11.885 3.716-11.967-11.744.06-4.236 15.032-9.153 15.032h18.45c-.845 0-1.323-.442-1.595-1.175z" fill="#E49D15"/><path d="M22.046 18.64c0 .987-.8 1.787-1.786 1.787H6.972c-.494 0-.94-.2-1.264-.523a1.786 1.786 0 011.263-3.05H20.26a1.781 1.781 0 011.786 1.787z" fill="#FC6"/><path d="M12.85 1.958a1.821 1.821 0 10-3.631 0" fill="#E49D15"/><path d="M19.904 7.862a.367.367 0 01-.368-.367c0-1.7-.437-3.152-1.299-4.313-.643-.867-1.297-1.24-1.304-1.244a.368.368 0 01.357-.642c.031.017.775.435 1.511 1.413.671.891 1.47 2.445 1.47 4.786a.368.368 0 01-.367.367zm1.616-2.106a.367.367 0 01-.367-.368c0-2.344-1.389-3.277-1.448-3.315a.368.368 0 01-.11-.507c.11-.17.335-.22.506-.112.073.047 1.786 1.169 1.786 3.934a.367.367 0 01-.367.368zM2.166 7.862a.367.367 0 01-.368-.367c0-2.341.8-3.895 1.47-4.786.737-.978 1.48-1.396 1.512-1.413a.367.367 0 01.356.642c-.014.008-.664.382-1.304 1.244-.862 1.161-1.299 2.612-1.299 4.313a.368.368 0 01-.367.367zM.55 5.756a.367.367 0 01-.368-.368c0-2.765 1.714-3.887 1.787-3.934a.368.368 0 01.395.619c-.06.04-1.447.972-1.447 3.315a.367.367 0 01-.368.368z" fill="#AEB0B5"/></g></svg>