<svg width="40" height="37" fill="none" xmlns="http://www.w3.org/2000/svg"><rect x="15.305" y="13.645" width="8.144" height="7.977" rx="3.988" stroke="#fff" stroke-width="2"/><path d="M14.305 31.599a1 1 0 100 2v-2zm22.824 1v1a1 1 0 001-1h-1zm0-14.966h1a1 1 0 00-1-1v1zm-7.781-1a1 1 0 100 2v-2zM14.305 33.6h22.824v-2H14.305v2zm23.824-1V17.633h-2V32.6h2zm-1-15.966h-7.781v2h7.78v-2z" fill="#fff"/><rect x="2.621" y="28.61" width="6.876" height="6.73" rx="1" stroke="#fff" stroke-width="2"/><path d="M9.738 16.633a1 1 0 110 2v-2zm-8.115 1v1a1 1 0 01-1-1h1zm0-13.718h-1a1 1 0 011-1v1zm22.824-1a1 1 0 110 2v-2zM9.738 18.633H1.623v-2h8.115v2zm-9.115-1V3.915h2v13.718h-2zm1-14.718h22.824v2H1.623v-2z" fill="#fff"/><path d="M30.761 7.592l3.195-5.443 3.195 5.443h-6.39z" stroke="#fff" stroke-width="2"/></svg>