<svg width="38" height="35" xmlns="http://www.w3.org/2000/svg"><g fill="none" fill-rule="evenodd"><path d="M0 3.365v4.71c.005 2.043 7.63 4.04 17.034 4.04 9.405 0 17.03-1.997 17.035-4.04v-4.71c0 2.045-7.627 4.039-17.035 4.039C7.627 7.404 0 5.41 0 3.365z" fill="#E4B24D"/><path d="M19 30.288c-9.408 0-17.034-1.993-17.034-4.038v4.709C1.97 33.002 9.595 35 19 35s17.03-1.998 17.034-4.041V26.25c0 2.045-7.626 4.038-17.034 4.038" fill="#E5B24D"/><path d="M17.034 22.885C7.627 22.885 0 20.89 0 18.846v4.709c.005 2.043 7.63 4.041 17.034 4.041 9.405 0 17.03-1.998 17.035-4.041v-4.709c0 2.045-7.627 4.039-17.035 4.039" fill="#E5B24D"/><path d="M3.931 11.442v4.71c.005 2.043 7.63 4.04 17.035 4.04 9.405 0 17.029-1.997 17.034-4.04v-4.71c0 2.045-7.627 4.039-17.034 4.039-9.408 0-17.035-1.994-17.035-4.039z" fill="#E5B24D"/><path d="M34.069 3.453c0 2.044-7.627 3.95-17.035 3.95C7.627 7.404 0 5.498 0 3.454 0 1.408 7.627 0 17.034 0 26.442 0 34.07 1.408 34.07 3.453" fill="#FC6"/><path d="M2.62 5.434v4.709c.399.15.835.296 1.311.434V5.87a18.037 18.037 0 01-1.31-.435m27.517.434v4.708c.476-.138.912-.284 1.31-.434V5.434c-.398.151-.834.296-1.31.435m-24.241.488v4.71c.419.09.856.174 1.31.254v-4.71c-.454-.08-.891-.164-1.31-.254m20.965.255v4.71c.454-.08.891-.166 1.31-.255v-4.71c-.419.09-.856.175-1.31.255m-17.69.3v4.71c.428.057.863.11 1.31.156v-4.71c-.447-.047-.882-.1-1.31-.156m14.414.157v4.71c.448-.048.883-.1 1.31-.156V6.912c-.427.057-.862.11-1.31.157m-11.138.173v4.71c.43.031.867.06 1.31.081V7.322a60.26 60.26 0 01-1.31-.08m7.862.08v4.711c.444-.022.88-.05 1.31-.08V7.242c-.43.03-.866.058-1.31.08m-3.276.082c-.219 0-.437-.002-.655-.004v4.711a70.443 70.443 0 001.31 0V7.4c-.217.002-.435.004-.655.004M6.552 13.511v4.709c.398.15.834.296 1.31.434v-4.709a18.037 18.037 0 01-1.31-.434m27.517.434v4.71c.476-.14.912-.285 1.31-.435v-4.71a17.2 17.2 0 01-1.31.434m-24.241.49v4.71c.419.09.856.174 1.31.254v-4.71c-.454-.08-.891-.164-1.31-.254m20.965.255v4.71c.454-.081.891-.166 1.31-.255v-4.71c-.419.09-.856.174-1.31.255m-17.69.301v4.71c.428.056.863.109 1.31.156v-4.71c-.447-.048-.882-.1-1.31-.157m14.414.156v4.71c.448-.047.883-.1 1.31-.155v-4.71c-.427.056-.862.108-1.31.155m-11.137.174v4.71c.43.031.866.059 1.31.081V15.4a60.26 60.26 0 01-1.31-.08m7.861.079v4.711c.444-.022.88-.05 1.31-.08v-4.711c-.43.03-.866.057-1.31.08m-3.275.081c-.22 0-.438-.001-.656-.003v4.711a70.44 70.44 0 001.31 0v-4.711c-.217.002-.435.004-.654.004M2.62 20.915v4.708c.399.151.835.296 1.311.435V21.35a18.037 18.037 0 01-1.31-.434m27.517.434v4.708c.476-.138.912-.284 1.31-.435v-4.708a17.2 17.2 0 01-1.31.434m-24.241.489v4.71c.419.089.856.174 1.31.254v-4.71c-.454-.08-.891-.165-1.31-.254m20.965.254v4.71c.454-.08.891-.165 1.31-.255v-4.709c-.419.09-.856.174-1.31.254m-17.69.301v4.71c.428.057.863.11 1.31.157v-4.71c-.447-.048-.882-.1-1.31-.157m14.414.156v4.71c.448-.047.883-.1 1.31-.156v-4.71c-.427.057-.862.11-1.31.156m-11.138.173v4.711c.43.031.867.059 1.31.081v-4.712c-.443-.022-.88-.049-1.31-.08m7.862.08v4.712c.444-.022.88-.05 1.31-.08v-4.712c-.43.031-.866.058-1.31.08m-3.276.083c-.219 0-.437-.002-.655-.004v4.711a70.443 70.443 0 001.31 0v-4.711a70.44 70.44 0 01-.655.004" fill="#D0A44D"/><path d="M4.586 28.319v4.708c.399.151.835.296 1.31.435v-4.709a18.037 18.037 0 01-1.31-.434m27.517.434v4.709c.476-.139.912-.284 1.31-.435V28.32c-.398.15-.834.296-1.31.434m-24.241.488v4.71c.42.089.856.174 1.31.254v-4.71c-.454-.08-.89-.165-1.31-.254m20.966.254v4.71c.454-.08.89-.165 1.31-.255v-4.71c-.42.09-.856.175-1.31.255m-17.69.301v4.71c.427.057.863.11 1.31.156v-4.71c-.447-.048-.883-.1-1.31-.156m14.414.156v4.71c.447-.047.883-.1 1.31-.156v-4.71c-.427.057-.863.11-1.31.156m-11.138.173v4.711c.43.031.867.059 1.31.08v-4.71a60.26 60.26 0 01-1.31-.08m7.862.079v4.712c.443-.022.88-.05 1.31-.08v-4.712c-.43.031-.867.058-1.31.08M19 30.288c-.22 0-.438-.002-.655-.004v4.712a70.44 70.44 0 001.31 0v-4.712c-.217.002-.436.004-.655.004" fill="#CFA44D"/><path d="M33.553 24.481c-1.861 1.681-8.55 3.115-16.519 3.115-6.23 0-11.677-.877-14.647-2.063-.273.255-.421.524-.421.804 0 2.045 7.626 3.951 17.034 3.951 9.408 0 17.034-1.906 17.034-3.95 0-.705-.907-1.335-2.481-1.857m-12.587-4.289c-8.657 0-15.8-1.692-16.887-3.556C1.538 17.228 0 18.016 0 18.934c0 2.044 7.627 3.95 17.034 3.95 9.408 0 17.035-1.906 17.035-3.95 0-.09-.02-.179-.05-.266-3.124.903-7.81 1.524-13.053 1.524M33.41 9.12c-2.039 1.628-8.596 2.995-16.376 2.995-5.023 0-9.538-.57-12.656-1.413-.29.262-.447.538-.447.828 0 2.045 7.627 3.95 17.035 3.95C30.373 15.48 38 13.576 38 11.53c0-.977-1.745-1.809-4.59-2.41" fill="#FC6"/></g></svg>