<svg width="54" height="39" xmlns="http://www.w3.org/2000/svg"><g fill="none"><path d="M19.552 37.084H18.13l-4.165-15.733H7.448l4.29 16.204a1.86 1.86 0 001.8 1.38h6.014a.928.928 0 00.93-.926.929.929 0 00-.93-.925z" fill="#818389"/><path d="M14.531 37.555l-3.16-11.937c-.176-.665.414-1.279 1.092-1.142.84.17 1.667.346 2.471.533l-.968-3.658H7.448l4.29 16.204a1.86 1.86 0 001.8 1.38h2.794a1.86 1.86 0 01-1.8-1.38z" fill="#68696D"/><path d="M0 13.022v5.553c0 1.022.834 1.85 1.862 1.85h3.724v-9.254H1.862A1.857 1.857 0 000 13.02z" fill="#818389"/><path d="M3.724 15.798a1.857 1.857 0 01-1.862-1.85V11.17A1.857 1.857 0 000 13.02v5.554c0 1.022.834 1.85 1.862 1.85h3.724v-4.627H3.724z" fill="#818389"/><path d="M38.172.065H35.38a1.857 1.857 0 00-1.862 1.851v.434c-3.143 1.42-13.94 5.96-27.225 7.698-.933.122-1.638.9-1.638 1.836v7.829c0 .935.705 1.714 1.638 1.836 13.285 1.738 24.082 6.276 27.224 7.698v.433c0 1.023.834 1.851 1.862 1.851h2.793a1.857 1.857 0 001.862-1.85V1.915c0-1.022-.833-1.85-1.862-1.85z" fill="#FC6"/><path d="M53.069 16.724h-9.31a.928.928 0 01-.932-.926c0-.512.417-.925.932-.925h9.31c.515 0 .931.413.931.925a.928.928 0 01-.931.926z" fill="#FFF082"/><path d="M49.345 7.866a.93.93 0 01-.856-.562.923.923 0 01.49-1.214l.93-.397a.93.93 0 011.222.486.923.923 0 01-.489 1.215l-.93.397a.918.918 0 01-.367.075zm-5.586 2.379a.93.93 0 01-.856-.561.923.923 0 01.49-1.215l2.792-1.19a.93.93 0 011.222.486.923.923 0 01-.489 1.215l-2.793 1.19a.918.918 0 01-.366.075zm6.517 15.733a.92.92 0 01-.367-.075l-.933-.397a.922.922 0 01-.49-1.215.931.931 0 011.223-.486l.933.397a.924.924 0 01.49 1.215.93.93 0 01-.856.561zm-3.726-1.587a.92.92 0 01-.366-.075l-2.792-1.19a.923.923 0 01-.489-1.214.93.93 0 011.222-.486l2.792 1.19a.923.923 0 01.49 1.214.93.93 0 01-.856.561z" fill="#FFF6B4"/><path d="M32.514 28.805c.388.168.731.319 1.003.442V2.35c-.458.207-1.095.486-1.862.807v14.042a1.854 1.854 0 01-2.111 1.834 263.84 263.84 0 00-23.251-2.13c-.933-.044-1.638-.319-1.638-.649v3.458c0 .935.704 1.714 1.637 1.836 11.359 1.486 20.876 5.012 25.366 6.893.114.048.692.293.856.364z" fill="#FFD65B"/></g></svg>