<svg xmlns="http://www.w3.org/2000/svg" width="56" height="56"><defs><style>.c{fill:#f7a16e}.d{fill:#f3f0e7}.e{fill:#e8e8e4}.h{fill:#b10d12}</style></defs><path d="M52.935 33.558A25.041 25.041 0 0056 20.982a3.38 3.38 0 00-5.551-2.59l-18.3 12.953A13.028 13.028 0 0028 39.603c-.033-3.2-1.875-5.857-4.277-8.259L5.549 18.389a3.426 3.426 0 00-2.461-.774A3.408 3.408 0 000 20.982a25.042 25.042 0 003.065 12.576 3.378 3.378 0 00-.84 5.39l4.916 4.919A14.388 14.388 0 0013 47.402a9.47 9.47 0 01.948.356V56h28.12v-8.252a16.165 16.165 0 006.791-3.884c5.276-5.276 5.332-5.2 5.674-6.073a3.377 3.377 0 00-1.598-4.233z" fill="#ffc98c"/><path class="c" d="M11.323 38.486l-4.318-4.318a3.379 3.379 0 00-4.4-.329l-.125.1a3.325 3.325 0 00-.885 1.1 3.361 3.361 0 002.328 1.5 2.338 2.338 0 011.313.657l3.095 3.095c.777.777 1.816 1.77 2.962.624l1.221-1.221a5.922 5.922 0 018.352-.014.845.845 0 101.209-1.181 7.614 7.614 0 00-10.752-.013zm32.159 1.195a.847.847 0 101.244-1.146 7.612 7.612 0 00-10.791-.064.86.86 0 00-.082 1.134.845.845 0 001.263.076 5.922 5.922 0 018.366 0zm6.822-8.407a6.121 6.121 0 00-.732 1.97.842.842 0 00.066.41 3.385 3.385 0 013.318-.133A25.042 25.042 0 0056 20.984a1.951 1.951 0 10-3.38 0 21.184 21.184 0 01-2.316 10.29z"/><path class="c" d="M28 39.842a10.922 10.922 0 00-2.778-6.922h-4.573c2.062 2.072 3.866 4.125 3.964 6.694v.334c.006 2.323.005 15.949.005 16.053h3.38c0-10.122 0-6.406-.008-16.155zm23.759-3.983a13.572 13.572 0 01-1.526 1.866c-.335.336-.725.723-1.155 1.15-.687.682-1.541 1.531-2.608 2.6-1.623 1.623-2.962 2.165-5.407 3.065a3.625 3.625 0 00-2.374 3.4V56h3.38v-8.252a16.166 16.166 0 006.791-3.884c5.276-5.276 5.332-5.2 5.674-6.073a1.84 1.84 0 10-2.775-1.932z"/><path class="d" d="M34.955 6.224l-6 22.405a3.314 3.314 0 002.343 4.058l11.1 2.973a3.314 3.314 0 004.058-2.343l6-22.405a3.314 3.314 0 00-2.343-4.058l-11.1-2.973a3.314 3.314 0 00-4.058 2.343z"/><path class="e" d="M51.541 7.658a3.378 3.378 0 00-2.353 2.38l-5.984 22.341-11.032-2.956a3.378 3.378 0 00-3.237.848 3.312 3.312 0 002.362 2.418l11.1 2.973a3.314 3.314 0 004.058-2.343l6-22.405a3.313 3.313 0 00-.914-3.256z"/><path d="M43.613 32.192l-.524-5.39a.845.845 0 00-1.529-.41l-3.149 4.406a.845.845 0 101.375.983l.184-.258 1.93.517.031.315a.845.845 0 001.682-.163zm-2.593-2.138l.6-.846.1 1.035zm3.765-12.583a3.272 3.272 0 00-3.379-1.742l.623-.7a.843.843 0 00-.412-1.376l-1.372-.368a.844.844 0 00-1.044.985l.191.927a3.272 3.272 0 00-3.815-.195 3.462 3.462 0 00-1.089 4.606l2.017 3.563a2.454 2.454 0 003.392.909l3.528-2.077a3.462 3.462 0 001.36-4.532z" fill="#48494f"/><path d="M44.785 17.471a3.278 3.278 0 00-1.756-1.565 3.527 3.527 0 01-1.688 2.489l-3.528 2.077a2.451 2.451 0 01-3.165-.578l1.857 3.279a2.454 2.454 0 003.392.909l3.528-2.077a3.462 3.462 0 001.36-4.534z" fill="#28282c"/><path class="d" d="M21.044 6.224l6 22.405a3.314 3.314 0 01-2.343 4.058l-11.1 2.973a3.314 3.314 0 01-4.058-2.343l-6-22.405a3.314 3.314 0 012.343-4.058l11.1-2.973a3.314 3.314 0 014.058 2.343z"/><path class="e" d="M21.044 6.223a3.313 3.313 0 00-2.418-2.362 3.378 3.378 0 00-.848 3.237l5.986 22.341-11.03 2.956a3.378 3.378 0 00-2.38 2.353 3.313 3.313 0 003.255.912l11.1-2.973a3.314 3.314 0 002.343-4.058z"/><path class="h" d="M9.295 9.698a.845.845 0 00-1.529.41l-.524 5.39a.845.845 0 001.682.164l.031-.315 1.93-.517.184.258a.845.845 0 001.375-.983zm-.165 3.851l.1-1.035.6.846zm4.61 2.69l-2.484 5.777a1.158 1.158 0 00.371 1.386l5.04 3.761a1.157 1.157 0 001.755-.47l2.484-5.777a1.158 1.158 0 00-.371-1.386l-5.04-3.761a1.157 1.157 0 00-1.755.47z"/><path d="M38.184 3.314v27.7a3.314 3.314 0 01-3.314 3.314H21.129a3.314 3.314 0 01-3.314-3.314v-27.7A3.314 3.314 0 0121.129 0H34.87a3.314 3.314 0 013.314 3.314z" fill="#fffbf1"/><path class="e" d="M36.461.406a3.378 3.378 0 00-1.657 2.908V30.95H21.13a3.378 3.378 0 00-2.908 1.657 3.313 3.313 0 002.908 1.724h13.741a3.314 3.314 0 003.314-3.314V3.314A3.313 3.313 0 0036.461.406z"/><path d="M23.838 3.064a.845.845 0 00-1.582 0l-1.9 5.07a.845.845 0 001.582.593l.111-.3h2l.111.3a.845.845 0 101.578-.592zm-1.156 3.677l.365-.974.365.974zm12.969 23.931l-1.9-5.07a.845.845 0 00-1.582 0l-1.9 5.07a.845.845 0 001.582.593l.111-.3h2l.111.3a.845.845 0 101.583-.593zm-3.058-1.393l.365-.974.365.974zm.173-15.641a3.273 3.273 0 00-4.767-.088 3.273 3.273 0 00-4.767.088 3.462 3.462 0 00.14 4.731l2.871 2.919a2.454 2.454 0 003.512 0l2.871-2.919a3.462 3.462 0 00.14-4.731z" fill="#d70d12"/><path class="h" d="M32.767 13.638a3.278 3.278 0 00-2.1-1.058 3.527 3.527 0 01-.987 2.841l-2.871 2.919a2.451 2.451 0 01-3.206.261l2.642 2.687a2.454 2.454 0 003.512 0l2.871-2.919a3.462 3.462 0 00.139-4.731z"/></svg>