<svg width="13" height="9" fill="none" xmlns="http://www.w3.org/2000/svg"><path d="M6.5 6.675c-1.148 0-2.102-.963-2.102-2.158 0-1.196.938-2.16 2.102-2.16s2.102.964 2.102 2.16c0 1.195-.954 2.158-2.102 2.158zm0-3.72c-.84 0-1.52.698-1.52 1.562 0 .863.68 1.56 1.52 1.56s1.52-.697 1.52-1.56c0-.864-.68-1.561-1.52-1.561zM2.021 8.9a.313.313 0 00.016-.415A6.169 6.169 0 01.598 4.533 6.18 6.18 0 012.086.515c.113-.116.097-.3 0-.415a.29.29 0 00-.227-.1.315.315 0 00-.226.1A6.831 6.831 0 000 4.533C0 6.127.566 7.688 1.585 8.9c.048.067.129.1.226.1.08 0 .162-.033.21-.1zm9.427-.05A6.788 6.788 0 0013 4.518a6.758 6.758 0 00-1.617-4.4c-.048-.067-.13-.1-.226-.1a.258.258 0 00-.21.1c-.114.115-.114.298-.017.431a6.151 6.151 0 011.456 3.985 6.173 6.173 0 01-1.407 3.919c-.097.133-.097.299.016.415.065.067.13.1.21.1a.288.288 0 00.243-.116zM9.896 7.224c.582-.78.889-1.71.889-2.69 0-.996-.34-1.976-.954-2.756a.34.34 0 00-.243-.116.258.258 0 00-.21.1.312.312 0 00-.032.398c.533.68.824 1.527.824 2.39a3.89 3.89 0 01-.776 2.326.312.312 0 00.033.398c.064.066.129.1.21.1.113-.034.21-.067.259-.15zm-6.323.05c.097-.116.114-.282.033-.398a3.815 3.815 0 01-.793-2.342c0-.88.291-1.727.841-2.408.097-.116.081-.282-.032-.398-.065-.066-.13-.1-.21-.1a.34.34 0 00-.243.117c-.63.78-.97 1.776-.97 2.79 0 .996.323 1.942.922 2.722a.288.288 0 00.242.117c.081 0 .146-.034.21-.1z" fill="#8C8C8C"/></svg>