<svg width="48" height="50" xmlns="http://www.w3.org/2000/svg"><g fill="none" fill-rule="evenodd"><path d="M42.612 21.54c-.854 0-1.548.688-1.548 1.538v13.847h-9.29c-.855 0-1.549.688-1.549 1.537 0 .85.694 1.539 1.549 1.539h10.838c.855 0 1.549-.69 1.549-1.539V23.078c0-.85-.693-1.539-1.549-1.539z" fill="#818389"/><ellipse cx="4.677" cy="4.616" rx="4.645" ry="4.615" transform="translate(37.935 16.923)" fill="#48494F"/><g fill="#FC6"><path d="M31.94 15.606l2.522-.401a.564.564 0 00.403-.378.533.533 0 00-.113-.53l-1.868-1.794.417-2.718a.518.518 0 00-.208-.487.508.508 0 00-.526-.031l-2.384 1.325-2.307-1.161a.517.517 0 00-.531.074.568.568 0 00-.213.512l.487 2.531-1.675 1.797a17.042 17.042 0 00-8.107-2.036c-2.96 0-5.743.753-8.169 2.072l-1.6-1.753.519-2.513a.564.564 0 00-.207-.512.518.518 0 00-.53-.08l-2.32 1.12-2.37-1.35a.51.51 0 00-.526.023.511.511 0 00-.213.482l.384 2.71-1.89 1.758a.525.525 0 00-.118.525.56.56 0 00.399.382l2.516.436 1.236 2.549c.001.004.006.005.008.01a16.793 16.793 0 00-4.15 11.063v16.923a3.088 3.088 0 003.097 3.077h27.87a3.087 3.087 0 003.097-3.077V29.232c0-4.25-1.58-8.132-4.186-11.105l1.256-2.52z"/><path d="M14.306 7.75l-.547 3.742a.74.74 0 00.276.676.67.67 0 00.697.073l3.122-1.756 3.12 1.756a.666.666 0 00.698-.073.741.741 0 00.277-.676l-.547-3.743 2.47-2.378a.749.749 0 00.157-.722.702.702 0 00-.528-.489l-3.43-.514L18.453.37a.683.683 0 00-.6-.37.69.69 0 00-.602.37l-1.616 3.277-3.43.514a.702.702 0 00-.527.489.75.75 0 00.155.722l2.472 2.377z"/></g><path d="M7 24.616h21.677v9.232H7z" fill="#FFF"/><path d="M10.097 41.54H25.58v3.076H10.097z" fill="#28282C" fill-opacity=".15"/></g></svg>