<svg width="76" height="51" xmlns="http://www.w3.org/2000/svg"><g fill="none" fill-rule="evenodd"><rect fill="#3A7DAA" width="76" height="51" rx="1.727"/><rect fill="#FFF" x="2.591" y="8.644" width="70.818" height="39.763" rx="1.727"/><path fill="#4192C8" d="M2.591 6.915h70.818v4.322H2.591z"/><ellipse fill="#F2CD56" cx="4.473" cy="3.717" rx="1.173" ry="1.167"/><ellipse fill="#E65336" cx="7.991" cy="3.717" rx="1.173" ry="1.167"/><ellipse fill="#FAFAFA" cx="11.509" cy="3.717" rx="1.173" ry="1.167"/><rect fill="#F7F8F9" x="15.33" y="2.55" width="56.023" height="2.334" rx="1.167"/><path d="M44.514 16.726c.044.216.087.432.174.605.174.433.347.865.695 1.167.347.303.912.39 1.216.087-.174-.432-.391-.865-.565-1.297-.477-.302-.999-.562-1.52-.821v.26zm7.036 6.354l-.26.259c-.088.086-.131.216-.261.303-.087.086-.218.086-.348.13-.347.086-.738.172-1.086.259-.13-.044 0-.26.044-.39.13-.259-.13-.648-.434-.561 0 .302-.304.562-.608.691-.304.087-.652.087-.956.13-.174-.043-.087-.303.087-.39.13-.086.347-.129.39-.302.088-.173-.086-.345-.216-.518-.13-.13-.217-.39-.087-.519a.625.625 0 00.39-.864c.435-.173.87.13 1.304.302.39.173.825.173 1.259.13a15.65 15.65 0 00-3.257-3.501c-.044.086-.13.13-.13.216-.13.303-.13.692-.391.908-.13.086-.304.13-.435.259-.39.346-.086.994.261 1.383.347.39.825.864.651 1.34-.347 0-.694-.043-1.042-.043-.478.907 1.477 1.685 1.086 2.636-.521.346-.825 1.037-.652 1.643-.564.302-.825.95-.868 1.555-.044.606.174 1.254.347 1.816.391 1.167 1.043 2.55 2.259 2.593 1.129.043 1.954-1.167 3.083-1.167.608.475.043 1.426-.043 2.204-.087.692.217 1.254.651 1.815.651-1.685.999-3.5.999-5.402 0-2.464-.652-4.84-1.737-6.915z" fill="#6CAD84"/><path d="M49.509 21.61c-.435-.173-.869-.475-1.303-.302.173.302-.044.778-.391.864-.13.13-.044.346.087.519.13.13.304.302.217.518-.044.173-.26.216-.391.303-.13.086-.217.346-.087.389.304-.087.652-.043.956-.13.304-.086.608-.346.608-.691.304-.087.608.302.434.562-.087.13-.217.345-.044.389.348-.087.739-.173 1.086-.26.13-.043.217-.043.348-.13.086-.086.173-.172.26-.302l.26-.26a36.42 36.42 0 00-.781-1.34 2.085 2.085 0 01-1.26-.129z" fill="#ABD7F6"/><path d="M51.593 33.669c.087-.778.695-1.73.044-2.205-1.13.044-1.955 1.21-3.084 1.167-1.216-.043-1.91-1.426-2.258-2.593-.174-.605-.391-1.21-.348-1.815.044-.605.304-1.254.869-1.556-.13-.605.13-1.297.651-1.642.391-.951-1.563-1.73-1.085-2.637.347 0 .695.043 1.042.043.174-.518-.304-.95-.651-1.34-.348-.388-.652-1.037-.261-1.383.13-.086.304-.172.434-.259.26-.216.304-.605.391-.907.044-.087.087-.173.13-.217-.477-.345-.955-.691-1.476-.994.174.433.39.865.564 1.297-.347.303-.912.216-1.216-.086-.347-.303-.52-.735-.694-1.167a3.172 3.172 0 01-.174-.606v-.259c-1.911-.864-4.039-1.383-6.297-1.383-2.302 0-4.517.519-6.471 1.426.174.346.651.605 1.042.605.521 0 1.086-.13 1.607 0 .26.087.478.217.738.217.391 0 .739-.346 1.043-.606.304-.259.781-.475 1.129-.259.13-.389.695-.475 1.085-.432 1 .043 1.998.043 2.997.086.478.476.217 1.297-.174 1.816-.477.605-1.129 1.037-1.824 1.426-.434-.303-.564-.994-.26-1.426a1.706 1.706 0 00-1.433-1.34c.043.302-.13.648-.435.821.565-.043.825.735.608 1.21-.26.476-.781.735-1.303.951-.26-.562-.173-1.21.218-1.729-.304-.086-.652-.173-1-.043-.303.13-.52.519-.347.778a8.536 8.536 0 00-3.04 1.08c.565-.13 1.173.303 1.26.822.043.259.043.518.173.691.261.303.782.13 1-.216.173-.346.13-.778.043-1.167.477.26 1.085-.648 1.52-.346.26.13.217.519.347.778.13.39.565.605.869.865.304.302.477.82.13 1.08-.608.13-1.216.13-1.824.043.26.346-.087.822-.478.908-.39.087-.825.043-1.216.087a1.88 1.88 0 00-1.26.864 2.091 2.091 0 01-.65-1.902c-.348-.13-.695-.173-1.086-.13a1.741 1.741 0 00.651 1.47c.174.13.434.26.521.476.26.518-.434 1.037-.999 1.166-.564.13-1.302.217-1.52.778-.086.26-.043.52-.043.778-.043.26-.217.562-.478.562-.608-.043-.26-1.123-.738-1.47-.13-.086-.347-.086-.521-.086-.782 0-1.694.087-2.128.735-.304.475-.26 1.124.13 1.513a1.25 1.25 0 001.52.173c.087.605-.13 1.21-.564 1.599.651.26.912 1.167.564 1.772.391.086.825.13 1.216.216.087-.303.348-.605.695-.648-.13-.13-.174-.303-.217-.519-.348-.864-.652-1.772-.999-2.636.26-.39.912-.044 1.13.345.26.39.433.951.911.994.348.044.695-.172.956.044.26.172.13.605-.174.734-.26.13-.608 0-.869-.173-.217-.172-.52-.432-.781-.259a.696.696 0 00-.174.303c-.044.216-.087.432-.044.648.087.173.13.346.218.519l.086.086c.565.519 1.477.043 2.215.173.304.043.608.216.912.389a71.24 71.24 0 001.868 1.037c.608.346 1.172.692 1.563 1.254.13.173.217.389.391.561.174.13.347.217.565.303 1.042.475 2.084.95 3.213 1.037.13 0 .304 0 .391.087.174.13.174.346.174.562 0 .302 0 .648-.174.95-.13.173-.347.303-.521.433-.738.648-.651 1.772-.565 2.723-.912-.26-1.867.345-2.475 1.037-.608.691-1.13 1.556-1.91 2.118.086.345.173.691.347.994.825.13 1.65.216 2.475.216a15.036 15.036 0 0014.027-9.595c-.217-.562-.52-1.124-.434-1.815z" fill="#ABD7F6"/><path d="M33.397 42.572c-.087-.26-.087-.519-.218-.691-.347-.476-1.216-.346-1.563-.865-.26-.432.043-.994 0-1.513-.087-1.08-1.52-1.296-2.389-1.945-.651-.518-.955-1.383-.825-2.204.217-.994 1.13-1.901.912-2.896-.651.13-1.476.173-1.78-.389-.13-.216-.13-.475-.217-.691-.435-1.772-2.91-2.723-2.954-4.538 0-.39.087-.778-.043-1.124-.043-.173-.174-.346-.304-.475a15.17 15.17 0 00-.825 4.884c0 7.044 4.864 12.922 11.465 14.565l-.26-.519c-.391-.562-.826-1.037-1-1.599z" fill="#ABD7F6"/><path d="M29.618 31.119c-.087-.173-.13-.346-.217-.519.044.173.13.389.217.519z" fill="#FEF3F6"/><path d="M37.305 41.75c.608-.69 1.564-1.296 2.476-1.036-.13-.951-.174-2.075.564-2.723.174-.13.391-.26.521-.433.174-.259.174-.605.174-.95 0-.216-.043-.433-.174-.562-.13-.087-.26-.087-.39-.087-1.13-.086-2.172-.562-3.214-1.037-.174-.086-.391-.173-.565-.303-.174-.172-.26-.345-.39-.561-.392-.562-1-.908-1.564-1.254a72.121 72.121 0 00-1.868-1.037c-.304-.173-.564-.346-.912-.389-.738-.13-1.65.346-2.214-.173l-.087-.086a.959.959 0 00-.695.648c-.391-.086-.825-.13-1.216-.216.347-.605.043-1.47-.565-1.772.435-.39.652-1.037.565-1.6a1.25 1.25 0 01-1.52-.172c-.391-.39-.478-1.08-.13-1.513.434-.648 1.346-.735 2.128-.735.173 0 .347 0 .52.087.478.346.131 1.426.739 1.47.26 0 .434-.303.478-.563.043-.259-.044-.561.043-.778.217-.561.912-.648 1.52-.778.565-.13 1.26-.648.999-1.166-.087-.217-.347-.346-.521-.476a1.741 1.741 0 01-.652-1.47 1.595 1.595 0 011.086.13 2.09 2.09 0 00.652 1.902c.26-.475.738-.821 1.259-.864.39-.044.825.043 1.216-.087.39-.13.738-.605.478-.908.608.13 1.216.087 1.824-.043.347-.26.173-.778-.13-1.08-.305-.303-.695-.476-.87-.865-.086-.259-.086-.648-.347-.778-.477-.302-1.042.649-1.52.346.087.39.13.821-.043 1.167-.174.346-.738.519-.999.216-.174-.173-.13-.475-.174-.691-.13-.562-.694-.951-1.259-.822.912-.561 1.954-.907 3.04-1.08-.174-.26.043-.692.347-.778.304-.13.652-.043 1 .043-.348.476-.435 1.167-.218 1.729.521-.216 1.042-.432 1.303-.95.26-.476-.043-1.254-.608-1.211a.982.982 0 00.434-.821 1.706 1.706 0 011.433 1.34c-.304.432-.173 1.123.261 1.426.695-.39 1.346-.821 1.824-1.426.39-.519.651-1.34.174-1.816-1-.043-1.998-.043-2.997-.086-.434 0-.955.043-1.086.432-.347-.216-.781 0-1.129.26-.304.259-.608.605-1.042.605-.26 0-.478-.13-.738-.217-.521-.13-1.043 0-1.607 0-.434 0-.912-.259-1.042-.605a15.267 15.267 0 00-7.774 8.644c.13.13.26.303.304.476.13.346.043.735.043 1.124.087 1.858 2.52 2.766 2.953 4.538.044.216.087.475.218.691.347.562 1.172.519 1.78.39.217.993-.695 1.9-.912 2.895-.174.821.174 1.686.825 2.204.825.649 2.259.865 2.389 1.945.043.519-.26 1.08 0 1.513.347.519 1.216.389 1.563.864.13.216.174.476.217.692.174.562.608 1.037.956 1.556l.26.518a8.71 8.71 0 001.13.216 6.697 6.697 0 01-.348-.994c.695-.518 1.173-1.34 1.824-2.074z" fill="#6CAD84"/><path d="M29.488 29.995c.043-.13.087-.26.174-.303.217-.173.52.087.781.26.261.173.565.302.869.173.26-.13.39-.562.174-.735-.26-.216-.652 0-.956-.043-.477-.044-.695-.605-.912-.994-.26-.39-.868-.735-1.129-.346.348.864.652 1.772.999 2.636-.087-.26-.043-.475 0-.648z" fill="#6CAD84"/><path fill="#48494F" d="M10.293 22.82L7.6 15.084l7.774 2.68-1.694 1.685 4.039 4.02-1.694 1.685-4.039-4.02z"/></g></svg>