<svg width="22" height="22" xmlns="http://www.w3.org/2000/svg"><g fill="none"><path d="M21.95 10.975c0 .763-.078 1.524-.235 2.27-1.046 4.973-5.457 8.705-10.74 8.705C4.914 21.95 0 17.036 0 10.975A10.973 10.973 0 0112.126.06c5.52.575 9.824 5.242 9.824 10.915z" fill="#3186C0"/><path fill="#6CAD84" d="M8.704 13.624l-.757 1.136.757 1.135 1.514 1.514h.757l.379 2.649h1.135l1.514-1.135 1.135-.757V17.03l1.135-.757.757-1.513-.757-1.136h-1.892l-1.135-.757H12.11l-1.135-.757-1.514.757zm2.65-10.974l-.379.756h-.757L8.326 2.271l-1.135.378-1.136.757v1.135l.757 1.136 1.135-.379-.378-.757v-.756h1.135l1.136.756.378 1.514-1.135.379-.757 1.135v.757l.378 1.514-1.135.378-.378-.757H6.055L4.92 9.84l.378 1.135h.757l.757.379.379.756.756.379-1.135.757-.757-.757H4.92l-1.514-1.135L2.271 9.46V7.57l.378-1.514-.793-1.19A10.967 10.967 0 0110.048.04l.927 1.853.379.757zm10.596 8.325c0 .763-.078 1.524-.235 2.27h-1.279l-1.135-1.891.378-1.893-2.27-.378-.379-1.514v-2.27l-.757-.38-.378-1.134-.757-.757-1.135.378-.379-.757v-.757l-1.135-.378L12.126.06c5.52.575 9.824 5.242 9.824 10.915z"/></g></svg>