<svg width="512" height="512" fill="none" xmlns="http://www.w3.org/2000/svg"><path d="M221.5 479C64.7 451.4 77.167 299.5 103 227c2.8 18 25.833 35.5 37 42 1.667 2.667 6.6-.3 13-33.5 8-41.5 42.5-65.5 68.5-90.5s28-33 34-61.5c4.8-22.8-6-49.833-12-60.5 19.667 13 65.2 52.9 90 108.5 31 69.5 5 140.5 11.5 137.5 39.375-24.75 41.344-60.188 39.867-71.93-.452-.852-.908-1.709-1.367-2.57 0-2.625.875-1.344 1.367 2.57C423.794 270.434 436.253 310.786 415 378.5c-17.2 54.8-61.5 86.833-81.5 96l4.5-9c3-4.167 10.2-15.6 15-28 6-15.5 18-80-19.5-110.5-45.6-34.8-46.333-81.167-41-100-96 84.5-40.5 146-56 143.5-12.4-2-22.5-26.5-26-38.5-40.4 60.8-9.5 123.333 11 147z" fill="#F0BC5E"/><path d="M103 227c-25.833 72.5-38.3 224.4 118.5 252-20.5-23.667-51.4-86.2-11-147 3.5 12 13.6 36.5 26 38.5 15.5 2.5-40-59 56-143.5-5.333 18.833-4.6 65.2 41 100C371 357.5 359 422 353 437.5c-4.8 12.4-12 23.833-15 28l-4.5 9c20-9.167 64.3-41.2 81.5-96 21.5-68.5 8.5-109-31.5-184 0-10.5 14 41.5-38.5 74.5-6.5 3 19.5-68-11.5-137.5-24.8-55.6-70.333-95.5-90-108.5 6 10.667 16.8 37.7 12 60.5-6 28.5-8 36.5-34 61.5S161 194 153 235.5c-6.4 33.2-11.333 36.167-13 33.5-11.167-6.5-34.2-24-37-42z" stroke="#000"/><path d="M265.687 498.162a155.583 155.583 0 01-53.705-9.347c-61.703-22.618-102.864-58.237-122.327-105.86-31.944-78.184 5.985-159.661 7.611-163.086a6.92 6.92 0 0112.918 1.114 91.143 91.143 0 0028.367 40.379c15.838-79.484 85.172-127.585 88.251-129.695 44.738-35.812 8.199-106.966 7.825-107.68a6.923 6.923 0 011.747-8.559 6.919 6.919 0 018.736-.027c123.205 99.979 116.12 200.677 106.177 242.052a67.118 67.118 0 0025.102-62.09 6.921 6.921 0 014.366-7.418 6.924 6.924 0 018.213 2.574 313.523 313.523 0 0132.339 66.581 189.085 189.085 0 01-32.464 182.438l-1.48 1.806a157.067 157.067 0 01-121.676 56.818zm-48.945-22.341a141.779 141.779 0 0048.945 8.503 143.277 143.277 0 00110.979-51.781l1.384-1.73a175.326 175.326 0 0030.166-169.133 313.607 313.607 0 00-18.598-42.544c-7.611 41.631-47.443 60.99-47.927 61.219a6.915 6.915 0 01-7.851-1.36 6.92 6.92 0 01-1.365-7.849c2.186-4.691 49.816-111.395-75.555-227.225 7.999 27.724 12.779 71.085-21.94 98.858-1.155.816-74.634 51.933-84.666 132.151a6.926 6.926 0 01-4.022 5.429 6.92 6.92 0 01-6.73-.586 128.394 128.394 0 01-35.778-38.586c-9.085 26.575-23.116 83.31-1.287 136.586 17.948 43.831 56.382 76.8 114.238 98.013l.007.035z" fill="#000"/><path d="M236.205 495.339a6.92 6.92 0 01-4.456-1.626c-88.168-74.323-26.05-169.368-25.413-170.316a6.916 6.916 0 017.553-2.83 6.917 6.917 0 015.102 6.248 46.4 46.4 0 0010.793 28.997 140.62 140.62 0 0160.991-135.943 6.919 6.919 0 019.631 9.147 48.028 48.028 0 00-5.577 23.421 50.789 50.789 0 008.69 26.548l2.768 4.227a433.717 433.717 0 0029.751 39.175 121.968 121.968 0 0119.643 33.439c34.678 71.493-24.908 127.848-25.489 128.415a6.92 6.92 0 01-11.532-5.353 6.918 6.918 0 012.122-4.79c2.165-2.02 52.757-50.231 22.3-112.536a6.685 6.685 0 01-.312-.754 108.818 108.818 0 00-17.38-29.579 446.28 446.28 0 01-30.699-40.441l-2.768-4.227a64.634 64.634 0 01-10.946-33.834 62.217 62.217 0 01.36-8.074c-19.926 18.84-49.124 58.949-35.356 124.541a6.92 6.92 0 01-2.095 6.526 6.917 6.917 0 01-6.685 1.52 47.233 47.233 0 01-17.416-11.638 47.23 47.23 0 01-10.674-18.023c-12.275 27.952-26.984 86.216 31.543 135.569a6.92 6.92 0 01-.494 10.965 6.921 6.921 0 01-3.969 1.247l.014-.021z" fill="#000"/></svg>