<svg xmlns="http://www.w3.org/2000/svg" width="20" height="20"><path data-name="Path 338" d="M18.345 7.207a7.824 7.824 0 01-5.564-5.563c0-.014 0-.014-.107-.49l-.01-.046a11.365 11.365 0 00-4.073 2.546 11.706 11.706 0 00-2.769 4.689 18.26 18.26 0 00-.792 3.811l-4.484.307H.479l-.025.015-.029.007-.021.007-.034.012-.016.007-.036.016-.017.009-.032.018-.023.016-.023.016-.028.024-.014.013-.027.029-.012.011-.022.028-.014.018-.016.024-.015.03-.011.02a.498.498 0 00-.016.033v.02c0 .012-.009.023-.013.035l-.007.022c0 .011-.006.021-.008.032s0 .019-.005.028 0 .018 0 .028v.173c0 .008 0 .018.006.027s0 .02.007.03l.007.021c0 .011.007.022.012.033l.008.018c0 .011.01.022.015.033l.01.018.017.029.014.02.017.024.018.022.017.019.022.022.018.016.024.02.021.016.023.016.027.017.02.012.036.018.011.005h.01l4.234 1.789 1.823 4.266v.006l.009.019.015.03.008.015.025.038a.713.713 0 00.034.043l.034.035.008.007.033.029.007.006.041.029.012.007.031.018.019.009.03.013.016.014.046.015h.016l.039.009h.013a.544.544 0 00.169 0l.041-.006h.01l.046-.012h.012l.043-.016.012-.006.034-.017.021-.012.026-.016.024-.017.02-.015.024-.021.017-.016.022-.023.016-.018.019-.023.017-.023.014-.021.017-.029.01-.018.015-.033.008-.018c0-.011.008-.022.012-.033l.007-.02c0-.01 0-.02.007-.03s0-.018.006-.027 0-.016 0-.024v-.04l.31-4.508a18.31 18.31 0 003.806-.794 11.72 11.72 0 004.678-2.759 11.33 11.33 0 002.54-4.04z" fill="#e65a40"/><path data-name="Path 339" d="M19.998.835A.842.842 0 0019.165 0a19.2 19.2 0 00-4.4.479q-.5.115-.973.254l.037.17.1.453a6.635 6.635 0 001.724 2.993 6.635 6.635 0 003 1.725l.609.167q.144-.49.263-1.006a19.21 19.21 0 00.473-4.4zM17.39 3.453a.558.558 0 01-.043.039.78.78 0 01-.096.063l-.052.025-.054.019a.6.6 0 01-.17.026.6.6 0 01-.114-.012c-.019 0-.037-.009-.056-.014l-.054-.019a.497.497 0 01-.101-.054l-.046-.034a.522.522 0 01-.043-.039.59.59 0 01-.171-.414.572.572 0 010-.058c0-.019.005-.038.009-.057l.014-.056a.35.35 0 01.02-.054l.024-.052a.568.568 0 01.03-.049.548.548 0 01.162-.162.485.485 0 01.049-.029.555.555 0 01.052-.024l.054-.02.056-.014a.574.574 0 01.229 0l.056.014c.018.006.036.012.054.02a.528.528 0 01.052.024.815.815 0 01.05.029l.046.034a.522.522 0 01.043.039.586.586 0 010 .828z" fill="#e65a40"/></svg>