<svg width="50" height="50" xmlns="http://www.w3.org/2000/svg"><g fill="none" fill-rule="evenodd"><path d="M50 25c0-1.287-3.18-3.632-5.175-4.419a20.521 20.521 0 00-.442-1.672c1.333-1.68 2.912-5.295 2.268-6.409-.644-1.115-4.573-1.555-6.693-1.24-.39-.422-.795-.83-1.219-1.219.316-2.12-.124-6.047-1.239-6.691-1.114-.644-4.729.934-6.41 2.267a20.126 20.126 0 00-1.671-.442C28.633 3.18 26.288 0 25 0c-1.288 0-3.633 3.18-4.419 5.175-.566.126-1.124.271-1.672.442-1.68-1.333-5.295-2.91-6.409-2.267-1.116.644-1.556 4.573-1.24 6.692-.422.39-.829.796-1.218 1.219-2.12-.316-6.049.124-6.693 1.239-.643 1.115.935 4.73 2.268 6.41a20.19 20.19 0 00-.442 1.671C3.18 21.368 0 23.713 0 25c0 1.288 3.18 3.633 5.176 4.419.126.565.27 1.124.442 1.67-1.334 1.681-2.912 5.296-2.269 6.411.644 1.116 4.573 1.556 6.692 1.24.39.422.796.83 1.22 1.219-.317 2.12.123 6.048 1.238 6.692 1.114.643 4.73-.935 6.41-2.268.547.172 1.106.317 1.672.443C21.368 46.82 23.712 50 25 50c1.288 0 3.632-3.18 4.419-5.174a20.13 20.13 0 001.672-.443c1.68 1.333 5.295 2.91 6.409 2.268 1.115-.644 1.555-4.572 1.24-6.692.422-.39.83-.797 1.219-1.22 2.12.316 6.048-.124 6.692-1.239.643-1.114-.935-4.729-2.268-6.41.172-.546.316-1.105.442-1.671C46.82 28.633 50 26.288 50 25z" fill="#FF6C50"/><path d="M26.563 23.862v-6.516c2.934.632 3.415 2.966 4.687 2.966.903 0 1.563-.757 1.563-1.562 0-1.452-2.158-4.038-6.25-4.58V12.5a1.563 1.563 0 00-3.125 0v1.657c-3.565.445-6.25 2.463-6.25 6.155 0 3.761 3.038 5.004 6.25 5.857v6.46c-2.698-.663-3.315-2.94-4.688-2.94-1 0-1.563.764-1.563 1.561 0 1.223 2.062 4.003 6.25 4.577V37.5a1.563 1.563 0 003.125 0v-1.644c4.41-.45 6.25-2.85 6.25-6.168 0-3.484-2.553-4.767-6.25-5.826zm-6.25-3.55c0-1.107.48-2.594 3.125-3.01v5.714c-1.793-.523-3.125-1.168-3.125-2.703zm6.25 12.344v-5.66c2.669.843 3.125 1.674 3.125 2.692 0 1.419-1.107 2.574-3.125 2.968z" fill="#FFF"/></g></svg>