<svg width="77" height="77" xmlns="http://www.w3.org/2000/svg"><g fill="none" fill-rule="evenodd"><path d="M75.603 21.635L55.365 1.397a4.77 4.77 0 00-6.746 0L1.398 48.62a4.769 4.769 0 000 6.746l20.237 20.237a4.773 4.773 0 006.746 0l47.222-47.222a4.772 4.772 0 000-6.747z" fill="#6CAD84"/><path d="M31.26 31.267c-3.495 3.496-3.072 9.586.946 13.602 1.99 1.99 4.487 3.094 6.927 3.281-.434-1.262-.635-3.137-.595-4.856a5.557 5.557 0 01-3.165-1.589c-2.01-2.01-2.22-5.053-.472-6.801 1.747-1.748 4.794-1.537 6.803.471a5.559 5.559 0 011.59 3.167c1.719-.04 3.595.161 4.857.594-.187-2.438-1.292-4.936-3.282-6.924-4.02-4.017-10.11-4.441-13.608-.945zm-7.147 4.436L12.839 46.977a4.775 4.775 0 011.638 3.59c0 1.771-.966 3.302-2.39 4.137L22.37 64.988c.835-1.425 2.365-2.39 4.136-2.39 1.397 0 2.645.605 3.523 1.555l11.18-11.178c-4.197.198-8.698-1.468-12.17-4.93-3.528-3.519-5.193-8.098-4.926-12.342zM64.989 22.37L54.704 12.088c-.835 1.424-2.366 2.39-4.137 2.39-1.435 0-2.708-.64-3.59-1.638L35.617 24.2c4.267-.278 8.876 1.38 12.417 4.91 3.46 3.451 5.133 7.922 4.946 12.097l11.175-11.176a4.779 4.779 0 01-1.555-3.524c-.003-1.77.965-3.3 2.39-4.136z" fill="#50936E"/></g></svg>