<svg width="40" height="40" xmlns="http://www.w3.org/2000/svg"><g fill="none"><circle fill="#FF7157" cx="19.997" cy="19.997" r="19.997"/><g transform="translate(8 8)" fill="#FFF"><path d="M19.768 2.878a11.92 11.92 0 00-5.96-2.74A11.971 11.971 0 002.877 4.19C-1.422 9.216-.835 16.777 4.19 21.08a11.921 11.921 0 005.96 2.739 11.971 11.971 0 0010.93-4.051c4.301-5.026 3.714-12.588-1.312-16.89zm2.322 12.576l-3.661-1.262a6.841 6.841 0 000-4.422l3.658-1.259c.29.845.474 1.732.545 2.646a10.655 10.655 0 01-.542 4.297zM20.035 4.967L17.12 7.5a6.785 6.785 0 00-3.83-2.212l.736-3.776a10.637 10.637 0 016.01 3.456zM8.344 1.938a10.504 10.504 0 011.592-.435l.735 3.785a6.787 6.787 0 00-3.83 2.21L3.923 4.96a10.66 10.66 0 014.42-3.022zM1.869 8.504l3.66 1.262a6.842 6.842 0 00-.001 4.422l-3.66 1.26a10.749 10.749 0 01-.543-2.642c-.115-1.48.075-2.939.544-4.302zm2.048 10.491l2.92-2.537a6.785 6.785 0 003.83 2.212l-.74 3.798a10.662 10.662 0 01-4.896-2.37 10.818 10.818 0 01-1.114-1.103zm11.695 3.036a10.7 10.7 0 01-1.588.437l-.737-3.798a6.787 6.787 0 003.83-2.21l2.919 2.538a10.68 10.68 0 01-4.424 3.033z"/><circle cx="7.545" cy="4.323" r="1"/><circle cx="3.132" cy="11.99" r="1"/><circle cx="7.565" cy="19.646" r="1"/><circle cx="16.413" cy="19.635" r="1"/><circle cx="20.826" cy="11.967" r="1"/><circle cx="16.392" cy="4.311" r="1"/></g></g></svg>