<svg xmlns="http://www.w3.org/2000/svg" xmlns:xlink="http://www.w3.org/1999/xlink" width="40" height="40"><defs><linearGradient id="b" x1=".246" y1=".198" x2=".769" y2=".821" gradientUnits="objectBoundingBox"><stop offset="0" stop-color="#ff637b"/><stop offset="1" stop-color="#f90217"/></linearGradient><linearGradient id="a" x1=".5" y1=".353" x2=".5" y2=".977" gradientUnits="objectBoundingBox"><stop offset="0" stop-color="#f90217" stop-opacity="0"/><stop offset=".267" stop-color="#e7010f" stop-opacity=".267"/><stop offset=".723" stop-color="#ce0004" stop-opacity=".722"/><stop offset="1" stop-color="#c50000"/></linearGradient><linearGradient id="c" x1=".654" y1=".871" x2=".339" y2=".448" xlink:href="#a"/><linearGradient id="d" x1=".219" y1=".452" x2=".53" y2=".716" gradientUnits="objectBoundingBox"><stop offset="0" stop-color="#ebeff0"/><stop offset="1" stop-color="#e3e5e4"/></linearGradient></defs><path fill="transparent" d="M0 0h40v40H0z"/><path d="M32.456 45.463a4.378 4.378 0 00-3.192-2.963 54.2 54.2 0 00-24.531 0 4.378 4.378 0 00-3.191 2.965 32.458 32.458 0 000 19.779 4.378 4.378 0 003.191 2.965 54.2 54.2 0 0024.531 0 4.378 4.378 0 003.191-2.965 32.458 32.458 0 00.001-19.781z" transform="translate(3.001 -35.092)" fill="url(#b)"/><path d="M2.508 303.736a33.628 33.628 0 001.376 6.64 4.379 4.379 0 003.191 2.965 54.2 54.2 0 0024.531 0 4.378 4.378 0 003.191-2.965 33.628 33.628 0 001.376-6.64z" transform="translate(.659 -280.226)" fill="url(#a)"/><path d="M203.257 164.815a4.378 4.378 0 003.191-2.965q.374-1.2.657-2.394l-8.5-8.5a1.776 1.776 0 00-.528-.508l-9.066-5.553a1.633 1.633 0 00-2.595 1.376v11.372a1.661 1.661 0 00.637 1.466l7.02 7.02a54.928 54.928 0 009.184-1.314z" transform="translate(-170.992 -131.7)" fill="url(#c)"/><path d="M196.213 148.906l-9.066-5.686a1.782 1.782 0 00-2.728 1.509V156.1a1.782 1.782 0 002.728 1.509l9.066-5.686a1.782 1.782 0 000-3.017z" transform="translate(-169.124 -130.155)" fill="url(#d)"/></svg>