<svg width="60" height="56" xmlns="http://www.w3.org/2000/svg"><g fill="none" fill-rule="evenodd"><path fill="#F2BA49" fill-rule="nonzero" d="M29.119 35.315h1.731v10.089h-1.731zm-2.863.929c-11.547 0-14.065-14.766-14.6-21.236-.062-.897.22-1.794.819-2.434a3.093 3.093 0 012.328-1.025h4.31v1.762h-4.341c-.41 0-.756.16-1.039.448-.283.288-.409.673-.377 1.089.503 6.15 2.863 20.339 13.686 19.602l.126 1.762c-.283.032-.629.032-.912.032zm20.235-20.121a9.5 9.5 0 001.854-1.133l-.002.018c-.534 6.47-3.052 21.236-14.599 21.236-.283 0-.63 0-.944-.032l.126-1.762c10.13.69 12.846-11.695 13.565-18.327z"/><path d="M33.027 8.218a9.501 9.501 0 008.93 8.767c-1.89 11.849-6.52 20.22-11.957 20.22-6.702 0-12.176-12.716-12.806-28.987h15.833z" fill="#FC6" fill-rule="nonzero"/><path d="M36.607 46.654C35.16 44.508 32.77 43.098 30 43.098c-2.737 0-5.16 1.41-6.607 3.556h13.214z" fill="#F2BA49" fill-rule="nonzero"/><path fill="#28282C" fill-rule="nonzero" d="M21.694 46.654h16.644v1H21.694zm0 8.231h16.644v1H21.694z"/><path fill="#48494F" fill-rule="nonzero" d="M22.323 47.326h15.386v7.559H22.323z"/><g fill="#E2E4E8" fill-rule="nonzero"><path d="M4.244 31.96s.752-1.666-.4-3.452C2.69 26.718.882 26.364.882 26.364s-.83 1.969.296 3.712C2.3 31.818 4.243 31.96 4.243 31.96zm3.232.286s1.851-.6 2.537-2.564c.684-1.967-.585-3.678-.585-3.678s-1.67.778-2.373 2.792c-.7 2.016.42 3.45.42 3.45zm.714 2.212c-.437 2.092.862 3.367.862 3.367s1.76-.844 2.185-2.879c.423-2.039-1.056-3.568-1.056-3.568s-1.554.989-1.992 3.08zm4.101 7.026s1.673-1.004 1.906-3.073c.235-2.07-1.382-3.452-1.382-3.452s-1.455 1.135-1.7 3.26c-.24 2.124 1.176 3.265 1.176 3.265zm4.279 3.454s1.317-1.453.952-3.5c-.368-2.05-2.31-2.906-2.31-2.906s-1.07 1.511-.696 3.616c.376 2.102 2.054 2.79 2.054 2.79zM5.779 27.617s1.54-.96 1.56-3.098c.021-2.137-1.285-3.444-1.285-3.444s-1.773 1.17-1.794 3.256c-.022 2.08 1.519 3.286 1.519 3.286zm-.539 8.635s.233-1.813-1.39-3.18C2.225 31.706.398 31.906.398 31.906s-.22 2.13 1.362 3.461c1.585 1.329 3.481.884 3.481.884zm2.41 4.078s-.17-1.826-2.054-2.79c-1.885-.968-3.623-.357-3.623-.357s.253 2.125 2.09 3.067c1.835.939 3.588.08 3.588.08zm.165 1.107c-2.087-.346-3.56.765-3.56.765s.877 1.947 2.908 2.286c2.032.335 3.446-1.021 3.446-1.021s-.71-1.683-2.794-2.03zm4.065 3.324c-2.11-.09-3.445 1.19-3.445 1.19s1.101 1.83 3.16 1.92c2.056.086 3.297-1.431 3.297-1.431s-.9-1.59-3.012-1.679z"/><path d="M6.261 28.772l-.983-.228c-.025.109-2.29 10.917 12.993 18.887l.462-.904C4.186 38.939 6.17 29.182 6.261 28.772zm49.497 3.199s1.941-.14 3.067-1.884c1.125-1.743.294-3.712.294-3.712s-1.807.354-2.96 2.144c-1.157 1.786-.4 3.452-.4 3.452zm-3.234.286s1.125-1.433.425-3.45c-.704-2.016-2.373-2.794-2.373-2.794s-1.27 1.711-.583 3.678c.681 1.965 2.531 2.566 2.531 2.566zm-1.576 5.58s1.299-1.276.863-3.366c-.434-2.091-1.99-3.082-1.99-3.082s-1.479 1.53-1.056 3.569c.42 2.034 2.183 2.879 2.183 2.879zm-3.759-2.867s-1.617 1.384-1.382 3.453c.232 2.068 1.904 3.075 1.904 3.075s1.413-1.144 1.175-3.268c-.244-2.125-1.697-3.26-1.697-3.26zm-4.708 6.477c-.365 2.052.952 3.5.952 3.5s1.679-.685 2.055-2.788c.375-2.105-.697-3.616-.697-3.616s-1.945.856-2.31 2.904zm11.742-13.819s1.539-1.206 1.517-3.286c-.02-2.084-1.793-3.256-1.793-3.256s-1.307 1.308-1.285 3.444c.022 2.139 1.561 3.098 1.561 3.098zm5.382 4.29s-1.827-.198-3.454 1.165c-1.624 1.368-1.39 3.18-1.39 3.18s1.899.447 3.482-.883c1.58-1.333 1.362-3.462 1.362-3.462zm-5.199 5.634c-1.886.965-2.057 2.787-2.057 2.787s1.751.86 3.588-.083c1.837-.942 2.09-3.068 2.09-3.068s-1.738-.604-3.621.364zm-2.219 3.897c-2.085.346-2.794 2.029-2.794 2.029s1.414 1.357 3.446 1.021c2.032-.337 2.91-2.285 2.91-2.285s-1.477-1.11-3.562-.765zm-7.079 4.998s1.24 1.517 3.297 1.43c2.057-.088 3.16-1.918 3.16-1.918s-1.336-1.28-3.445-1.192c-2.108.092-3.012 1.68-3.012 1.68z"/><path d="M54.722 28.555l-.983.228c.091.41 2.079 10.167-12.472 17.755l.462.904c15.283-7.97 13.018-18.778 12.993-18.887z"/></g><path d="M23.115 14.433h1.19l1.807 4.807 1.808-4.807h1.19l-2.345 5.938H25.46l-2.344-5.938zm6.648 0h1.047v5.938h-1.047v-5.938zm2.317 0h2.622c.406 0 .755.083 1.047.25.292.165.516.391.671.676.155.285.233.596.233.935 0 .338-.078.65-.233.934a1.7 1.7 0 01-.676.677 2.09 2.09 0 01-1.042.25h-1.575v2.216H32.08v-5.938zm3.213 1.175c-.191-.172-.436-.258-.734-.258h-1.432v1.887h1.432c.298 0 .543-.086.734-.258a.88.88 0 00.286-.685c0-.285-.096-.514-.286-.686z" fill="#DCA639" fill-rule="nonzero"/><rect fill="#FF6C50" x="35" width="15" height="15" rx="7.5"/><rect stroke="#FFF" stroke-width=".6" fill="#FFF" x="38.333" y="6.667" width="8.333" height="1.47" rx=".735"/></g></svg>