<svg width="38" height="32" xmlns="http://www.w3.org/2000/svg"><path d="M4.59 0L2.836 1.737l5.74 5.691C3.021 10.468.828 15.214.702 15.503l-.215.492.215.492c.185.434 4.824 10.622 18.293 10.622.458 0 .868-.058 1.306-.077h.02c2.563-.145 4.795-.618 6.695-1.351L33.39 32l1.774-1.756-5.73-5.663-1.706-1.688-.156-.145-5.205-5.17-4.97-4.92-3.606-3.56-.858-.85-1.969-1.939L4.59 0zm14.405 4.882c-1.384 0-2.641.135-3.84.328l2.32 2.296a8.73 8.73 0 011.52-.155c4.815 0 8.733 3.878 8.733 8.644a8.54 8.54 0 01-.156 1.505l2.027 2.007c.37-1.11.624-2.277.624-3.512 0-2.43-.819-4.67-2.164-6.502 4.015 2.142 6.033 5.287 6.696 6.502-.488.897-1.735 2.865-3.967 4.689l1.774 1.756c3.255-2.75 4.63-5.721 4.727-5.953l.224-.492-.224-.492c-.186-.434-4.825-10.621-18.294-10.621zm-9.064 4.65c-1.345 1.823-2.163 4.042-2.163 6.463 0 2.431.818 4.67 2.163 6.493-4.015-2.132-6.033-5.277-6.695-6.493.662-1.215 2.7-4.322 6.695-6.463zm2.125 1.33l3.586 3.57c-.224.473-.39.994-.39 1.563 0 2.045 1.677 3.705 3.743 3.705.575 0 1.101-.164 1.579-.386l3.606 3.55c-1.452 1.09-3.226 1.775-5.185 1.775-4.814 0-8.732-3.878-8.732-8.644 0-1.939.692-3.695 1.793-5.132z" fill="#28282C"/></svg>