<svg width="58" height="66" xmlns="http://www.w3.org/2000/svg"><g fill="none" fill-rule="evenodd"><path d="M28.814.546c-3.96 4.886-10.01 8.016-16.8 8.016a21.55 21.55 0 01-12-3.632v32.428c0 13.246 19.162 28.628 28.62 28.628 10.08 0 28.98-15.382 28.98-28.629V4.93a21.55 21.55 0 01-12 3.632c-6.79 0-12.84-3.13-16.8-8.016z" fill="#5AA6D9"/><path d="M42.168 23.998c-1.358-1.512-3.562-1.512-4.92 0L24.677 37.49l-4.368-4.865c-1.39-1.548-3.643-1.548-5.033 0-1.39 1.546-1.39 4.054 0 5.6l6.62 7.375c.36.4.78.691 1.226.885 1.284.648 2.846.4 3.9-.77L42.17 29.467c1.356-1.512 1.356-3.96-.002-5.47z" fill="#FFF"/></g></svg>