<svg width="38" height="38" xmlns="http://www.w3.org/2000/svg"><g fill="none" fill-rule="evenodd"><path d="M29.26 34.238c-.701.474-1.436.898-2.198 1.267L25.79 33.3a14.785 14.785 0 002.198-1.267l1.273 2.204zm6.245-7.176v.007c-.37.76-.793 1.492-1.267 2.19l-2.204-1.272a15.07 15.07 0 001.267-2.191l2.204 1.266zM37.367 19c0 .424-.013.849-.05 1.267h-2.54a14.025 14.025 0 000-2.534h2.54c.037.418.05.843.05 1.267zM12.21 4.7c-.767.358-1.502.781-2.197 1.266L8.74 3.762a17.662 17.662 0 012.198-1.267L12.21 4.7zm-6.244 5.313a15.07 15.07 0 00-1.267 2.191l-2.204-1.266c.37-.762.793-1.497 1.267-2.198l2.204 1.273zM3.167 19c0 .424.019.849.057 1.267H.684c-.038-.418-.05-.843-.05-1.267 0-.424.012-.849.05-1.267h2.54c-.038.418-.057.843-.057 1.267zm2.799 8.987L3.762 29.26a17.662 17.662 0 01-1.267-2.198L4.7 25.796c.36.764.784 1.497 1.267 2.191zm6.238 5.313l-1.266 2.205h-.007a18.764 18.764 0 01-2.19-1.267l1.272-2.204a15.07 15.07 0 002.191 1.267zm8.063 1.476v2.54c-.418.038-.843.05-1.267.05-.424 0-.849-.012-1.267-.05v-2.54a14.025 14.025 0 002.534 0zm0-34.092v2.483l-.007.057a13.884 13.884 0 00-2.52 0l-.007-.057V.684c.418-.038.843-.05 1.267-.05.424 0 .849.012 1.267.05zm15.238 10.247v.007L33.3 12.204a15.07 15.07 0 00-1.267-2.191l2.204-1.273c.474.7.898 1.431 1.267 2.191zM29.26 3.762l-1.273 2.204a15.07 15.07 0 00-2.191-1.267l1.266-2.204c.762.37 1.497.793 2.198 1.267z" fill="#FFF"/><path d="M19 0C8.506 0 0 8.506 0 19s8.506 19 19 19 19-8.506 19-19C37.988 8.511 29.489.012 19 0zm14.313 8.544l-1.1.633a16.63 16.63 0 00-3.39-3.39l.634-1.1a17.844 17.844 0 013.856 3.857zm1.35 2.147l-1.098.633a16.59 16.59 0 00-.634-1.096l1.098-.633c.219.357.432.722.63 1.096h.004zM36.63 17.1h-1.276a16.318 16.318 0 00-1.241-4.631l1.101-.633A17.591 17.591 0 0136.63 17.1zm-1.417 9.067l-1.102-.636a16.318 16.318 0 001.243-4.63h1.276a17.593 17.593 0 01-1.417 5.266zm-1.19 2.238l-1.097-.633c.225-.357.436-.722.633-1.096l1.098.633c-.196.374-.41.739-.634 1.096zM27.31 34.66l-.633-1.098c.374-.198.74-.41 1.095-.634l.634 1.098c-.358.222-.723.435-1.097.634zm-1.778-.547l.636 1.101A17.59 17.59 0 0120.9 36.63v-1.276a16.318 16.318 0 004.631-1.241zM19 34.2c-8.395 0-15.2-6.805-15.2-15.2S10.605 3.8 19 3.8 34.2 10.605 34.2 19c-.01 8.39-6.81 15.19-15.2 15.2zm-9.405-.177l.633-1.097c.357.225.722.436 1.096.633l-.633 1.098c-.374-.196-.739-.41-1.096-.634zm2.874.09a16.318 16.318 0 004.63 1.24v1.277a17.593 17.593 0 01-5.266-1.417l.636-1.1zM3.34 27.309l1.098-.633c.198.374.41.74.634 1.096l-1.098.633a19.013 19.013 0 01-.634-1.096zM1.37 20.9h1.276a16.318 16.318 0 001.241 4.631l-1.1.636A17.593 17.593 0 011.37 20.9zm1.417-9.067l1.102.633A16.32 16.32 0 002.646 17.1H1.37a17.593 17.593 0 011.417-5.267zm1.19-2.238l1.097.633c-.225.357-.436.722-.633 1.096l-1.098-.633c.196-.374.41-.739.634-1.096zm-1.428 8.772c-.007.21-.016.42-.016.633 0 .212.009.423.016.633H1.283c-.007-.21-.016-.42-.016-.633 0-.212.009-.422.016-.633h1.266zM10.691 3.34l.633 1.098c-.374.198-.74.41-1.096.634l-.633-1.098c.357-.222.722-.435 1.096-.634zm1.778.547l-.633-1.101A17.591 17.591 0 0117.1 1.37v1.276a16.318 16.318 0 00-4.631 1.241zm15.936.09l-.633 1.097a16.245 16.245 0 00-1.096-.633l.633-1.098c.374.196.739.41 1.096.634zm-2.874-.09a16.318 16.318 0 00-4.63-1.24V1.37c1.818.196 3.595.673 5.266 1.417l-.636 1.1zm9.92 15.746c.007-.21.016-.42.016-.633 0-.212-.009-.423-.016-.633h1.266c.007.21.016.42.016.633 0 .212-.009.422-.016.633h-1.266zM19.633 1.283v1.266c-.21-.007-.42-.016-.633-.016-.212 0-.423.009-.633.016V1.283c.21-.007.42-.016.633-.016.212 0 .422.009.633.016zM8.543 4.69l.634 1.1a16.63 16.63 0 00-3.39 3.39l-1.1-.634A17.852 17.852 0 018.544 4.69zM4.69 29.456l1.1-.633a16.63 16.63 0 003.39 3.39l-.634 1.1a17.852 17.852 0 01-3.856-3.857zm13.677 7.261v-1.266c.21.007.42.016.633.016.212 0 .423-.009.633-.016v1.266c-.21.007-.42.016-.633.016-.212 0-.422-.009-.633-.016zm11.09-3.404l-.634-1.1a16.63 16.63 0 003.39-3.39l1.1.634a17.844 17.844 0 01-3.857 3.856z" fill="#28282C" fill-rule="nonzero"/><path d="M13.933 7.332a.632.632 0 00.242-.047c1.53-.632 3.17-.955 4.825-.952a.633.633 0 000-1.266 13.862 13.862 0 00-5.308 1.046.633.633 0 00.241 1.219zM9.5 10.323c.17 0 .334-.068.453-.19a12.732 12.732 0 011.61-1.39.634.634 0 00-.745-1.024c-.633.46-1.226.97-1.773 1.528a.634.634 0 00.455 1.076zM30.279 26.08a.634.634 0 00-.882.158 12.722 12.722 0 01-4.97 4.21.633.633 0 00.274 1.203.638.638 0 00.271-.063 14.015 14.015 0 005.464-4.63.633.633 0 00-.157-.877z" fill="#28282C"/></g></svg>