<svg width="45" height="45" xmlns="http://www.w3.org/2000/svg"><g fill="none" fill-rule="evenodd"><path d="M1.406 18.281v23.905A2.813 2.813 0 004.22 45h36.56a2.813 2.813 0 002.813-2.814V18.281H1.406z" fill="#FF6C50"/><path d="M42.188 9.844H2.812A2.813 2.813 0 000 12.656v8.438h45v-8.438a2.813 2.813 0 00-2.813-2.812z" fill="#E65A40"/><path fill="#5AA6D9" d="M18.281 21.094h8.438V45h-8.438z"/><path fill="#3A7DAA" d="M18.281 9.844h8.438v11.25h-8.438z"/><circle fill="#FF6C50" cx="22.5" cy="9.844" r="2.813"/><path d="M14.063 0C11.25 0 8.436 2.813 8.436 5.625c0 4.219 11.25 4.219 11.25 4.219S18.282 0 14.063 0zm-1.407 5.625c0-.84.484-2.813 1.406-2.813 1.407 0 2.813 5.626 2.813 5.626s-4.219-1.495-4.219-2.813zM30.938 0c-4.22 0-5.625 9.844-5.625 9.844s11.25 0 11.25-4.219C36.563 2.812 33.75 0 30.936 0zm-2.813 8.438s1.406-5.626 2.813-5.626c.923 0 1.406 1.973 1.406 2.813 0 1.318-4.219 2.813-4.219 2.813z" fill="#5AA6D9"/></g></svg>