<svg width="370" height="186" xmlns="http://www.w3.org/2000/svg" xmlns:xlink="http://www.w3.org/1999/xlink"><defs><path id="a" d="M.068 34.96h22.676V.015H.068v34.947z"/><path id="c" d="M9.476 121.752h198.412V7.365H9.476z"/><path id="e" d="M0 .031v5.623h11.385V.031H0z"/></defs><g fill="none" fill-rule="evenodd"><g transform="translate(307.273 151.06)"><mask id="b" fill="#fff"><use xlink:href="#a"/></mask><path d="M13.101.014H9.705C4.385.014.068 4.331.068 9.651v13.975c0 6.263 5.075 11.337 11.332 11.337 6.263 0 11.344-5.074 11.344-11.337V9.651c0-5.32-4.323-9.637-9.643-9.637" fill="#FFF" mask="url(#b)"/></g><path d="M320.81 178.324c-6.715 0-12.292-4.473-13.469-10.362v6.726c0 6.262 5.075 11.331 11.333 11.331 6.146 0 11.131-4.885 11.315-10.98-2.426 2.036-5.638 3.285-9.18 3.285m-2.134-22.162c-.642 0-1.171.524-1.171 1.165v5.114a1.171 1.171 0 102.342 0v-5.114a1.17 1.17 0 00-1.171-1.165" fill="#E5E5E5"/><g transform="translate(117.597 2.817)"><path d="M145.892 171.309h-74.42c-1.646 0-2.586-1.872-1.613-3.193l10.55-7.297a6.43 6.43 0 001.258-3.824v-18.86a2 2 0 012.003-2.001h50.024c1.111 0 2.004.891 2.004 2v18.861a6.43 6.43 0 001.256 3.824l10.552 7.297c.973 1.321.032 3.193-1.614 3.193" fill="#E1E3E2"/><path fill="#9AAFB7" d="M81.667 151.545h54.03v-12.187h-54.03z"/><path d="M209.894.155H7.47C3.344.155 0 3.495 0 7.616v121.347h217.365V7.616c0-4.12-3.345-7.461-7.47-7.461" fill="#2F363E"/><path d="M0 128.437v7.925c0 4.12 3.344 7.462 7.47 7.462h202.425c4.125 0 7.47-3.341 7.47-7.462v-7.925H0z" fill="#E1E3E2"/><mask id="d" fill="#fff"><use xlink:href="#c"/></mask><use fill="#E3E4E8" xlink:href="#c"/><g mask="url(#d)"><path d="M137.19 99.934a329.781 329.781 0 01-.525-17.879l4.384-16.217c-1.065-1.066-4.457-1.008-4.457-1.008h-6.591a11.646 11.646 0 01-4.646-1.221c-.009.012.658.438.658.438l2.774 11.327-3.806.947 2.537 4.737-12.91 25.422-1.106 3.143-.01.262-.577 1.9-1.004 11.98c8.95-2.316 20.771 5.807 27.593 0l-2.446-24.412.132.581z" fill="#FFF"/><path d="M41.773 82.847l2.115 18.04a5.791 5.791 0 002.306 3.977c1.012.75 2.478-.476 3.722-.476.336 0 .675-.029 1.01-.088l4.144-1.098a59.954 59.954 0 01-13.327-20.708c.007.117.016.235.03.353" fill="#F8F9F9"/><path d="M112.064 124.427l1.427-14.541-2.512-4.97-1.979-2.895-10.646-20.963 2.538-4.737-3.807-.947 2.774-11.327.685-.403a12.463 12.463 0 01-4.672 1.184l-5.836.002C86.1 64.862 83 67.95 83 71.758c0 .563.069 1.11.197 1.633l-8.68 16.58-16.792 2.946-2.985.524-1.138-9.708a62.055 62.055 0 01-1.626-5.33 5.835 5.835 0 00-5.094-1.985c-3.076.357-5.309 3.04-5.138 6.076a59.954 59.954 0 0013.327 20.708l5.308-1.406 3.4-.61 15.585-.293a5.82 5.82 0 004.153-3.03l6.414-12.252c-.04.82-.08 1.598-.121 2.322l-.002.679-.494 16.524-.777 17.28c2.897.427 6.1.648 9.115.648 5.2 0 9.6 1.234 14.413 0" fill="#FFF"/><path d="M113.258 119.249l.99-7.866-.757-1.498-.37 9.4c.045-.012.091-.025.137-.036" fill="#F8F9F9"/><path d="M127.31 64.219c-2.707-3.704-7.349-5.582-13.797-5.582-7.305 0-12.45 1.933-15.292 5.746a.198.198 0 01-.005.006c.555-.152 1.656-.509 3.007-1.228 2.77-2.148 6.888-3.235 12.29-3.235 4.71 0 8.364 1.044 10.903 3.109.896.444 2.228.987 2.96 1.278-.022-.032-.043-.063-.066-.094" fill="#020302"/><path d="M112.802 112.305h.012-.012z" fill="#F16328"/><path d="M53.339 81.503a5.753 5.753 0 00-1.364-3.1 62.03 62.03 0 001.626 5.33l-.262-2.23z" fill="#F8F9F9"/><path fill="#E5E5E5" d="M113.502 109.623v-.162h-.53v.24l.272.655z"/><path d="M113.244 110.356l-.272-.654v.398h.102l.428-.002v-.475l-.258.733z" fill="#E5E5E5"/><path d="M136.672 82.1v-.078l-.013.046.013.033z" fill="#094868"/><path d="M112.814 112.305h-.012.012" fill="#4BC3D1"/><path d="M120.378 56.963l.006.005V54.64h-14.29v3.363h-.049a11.625 11.625 0 01-2.476 3.524c11.156 1.063 16.809-4.564 16.809-4.564" fill="#D6AF94"/><path d="M120.384 59.136v-2.168l-.006-.005s-5.653 5.627-16.809 4.564a11.684 11.684 0 01-2.918 2.082 15.103 15.103 0 005.442 4.734v3.128h.018v.213h13.583v-.213h.69v-3.428a15.114 15.114 0 004.917-4.478 11.693 11.693 0 01-4.917-4.429" fill="#F2C8A5"/><path d="M123.054 65.983A14.983 14.983 0 01112.826 70a14.97 14.97 0 01-9.546-3.424l9.958 43.792 9.816-44.384z" fill="#D0D4DB"/><path fill="#5AA6D9" d="M115.79 103.173l2.25-5.48-2.676-24.903-2.114-.614v-.026l-.046.013-.046-.013v.026l-2.114.614-2.86 26.553 3.404 6.422 1.628 4.537.532-.943 1.332-3.741z"/><path fill="#5AA6D9" d="M116.44 68.7l-3.31-.45-3.308.45-.644 1.83 1.563 2.47 2.39.093 2.39-.092 1.561-2.47z"/><path fill="#AFB0B5" d="M102.37 62.57l10.61 5.68-7.53 7.496-5.59-11.699zm21.246 0l-10.61 5.68 7.53 7.496 5.453-11.579z"/><path d="M131.42 32.17c0-12.82-7.744-16.856-17.808-16.856-.124 0-.247.001-.37.003v43.988c10.043-.04 18.177-14.333 18.177-27.135" fill="#F2C8A5"/><path d="M112.783 15.328c-9.698.315-17.803 4.376-17.803 16.842 0 12.644 7.935 26.84 17.803 27.122.14.005.278.014.416.014h.043v-43.99c-.153.003-.306.006-.459.011" fill="#E2B999"/><path d="M132.632 30.55c-.435-5.734-2.783-9.881-2.783-9.881 1.57-6.976-4.98-8.92-11.887-9.087-6.385-.154-13.073 1.208-13.937 1.521-.936.34-2.253.457-3.296.493-.957.031-1.688-.005-1.688-.005.04.158.193.525.344.862.156.358.31.682.31.682-.184.02-.518-.072-.92-.22-1.398-.51-3.657-1.73-3.657-1.73-.244 1.871.205 3.54.716 4.74.51 1.199 1.082 1.93 1.082 1.93-.41.082-1.553-.406-1.553-.406.328 1.545.655 2.278.655 2.278-2.459 1.786-3.028 6.943-3.073 10.976l4.214 4.899 1.457-3.516.092.009c1.029-3.701 1.886-9.277 1.886-9.277 10.994 7.026 21.11 1.412 22.858.334.331-.362.507-.58.507-.58.623 7.032 5.4 11.787 5.4 11.787-.4-2.986 3.041-5.327 3.298-5.497l.024-.016c-.014-.102-.032-.196-.049-.297" fill="#3B2517"/><path d="M129.033 35.16c-.688 2.617-.2 5.012 1.09 5.35 1.29.34 2.893-1.507 3.583-4.124.688-2.615.198-5.01-1.09-5.349-1.29-.338-2.893 1.507-3.583 4.124" fill="#F2C8A5"/><path d="M96.88 35.23c.715 2.556.34 4.893-.831 5.217-1.172.325-2.699-1.484-3.412-4.041-.712-2.558-.339-4.894.831-5.22 1.173-.323 2.702 1.486 3.413 4.043" fill="#E2B999"/><path fill="#E5E5E5" d="M113.238 110.367l-9.958-43.792-.91-4.004-1.826 1.074-.685.402-2.774 11.327 3.807.947-2.538 4.737z"/><path fill="#E5E5E5" d="M129.093 75.374l-2.774-11.327-.03-.018-2.545-1.356-.69 3.31-9.816 44.384 14.587-29.31-2.538-4.736z"/><path fill="#68696D" d="M90.59 96.974l-45.866 9.218-11.73-57.835L78.86 39.14z"/><path fill="#FEFEFE" d="M87.56 94.415l-41.04 8.248-10.495-51.747 41.04-8.249z"/><path fill="#AFB0B5" d="M45.875 66.043l-3.058.615-.617-3.043L45.258 63zm28.443-5.716l-25.39 5.103-.618-3.043 25.391-5.104zM47.047 71.825l-3.057.615-.617-3.043 3.057-.615zm25.243-5.073l-22.19 4.46-.617-3.043 22.19-4.46zM48.22 77.607l-3.057.615-.617-3.043 3.058-.615zm23.133-4.649l-20.08 4.036-.618-3.043 20.081-4.036zM49.393 83.39l-3.058.614-.617-3.043 3.058-.615zm29.094-5.847l-26.042 5.233-.617-3.043 26.042-5.234zM50.566 89.172l-3.058.614-.617-3.043 3.058-.615zm29.094-5.847l-26.042 5.233L53 85.515l26.041-5.234z"/><path d="M34.608 75.227c.113 0 .228-.008.344-.025l6.692-.951a2.405 2.405 0 002.049-2.72 2.412 2.412 0 00-2.732-2.039l-6.692.952a2.405 2.405 0 00-2.048 2.719 2.411 2.411 0 002.387 2.064" fill="#E2B999"/><g transform="translate(31.55 74.803)"><mask id="f" fill="#fff"><use xlink:href="#e"/></mask><path d="M2.714 5.635L9.27 4.82a2.406 2.406 0 002.096-2.683A2.413 2.413 0 008.67.05L2.115.866A2.405 2.405 0 00.02 3.548a2.411 2.411 0 002.695 2.087" fill="#E2B999" mask="url(#f)"/></g><path d="M42.219 84.372a2.404 2.404 0 001.928-2.805 2.413 2.413 0 00-2.818-1.92l-6.556 1.224a2.404 2.404 0 00-1.928 2.805 2.412 2.412 0 002.818 1.92l6.556-1.224zm3.16 1.905a2.16 2.16 0 00-2.488-1.77l-5.872.975a2.154 2.154 0 00-1.777 2.477 2.16 2.16 0 002.489 1.769l5.87-.974a2.153 2.153 0 001.778-2.477" fill="#E2B999"/><path d="M144.016 69.14c1.64 3.46.63 7.363-2.256 8.72-2.886 1.357-6.556-.347-8.197-3.806-1.64-3.458-.631-7.363 2.255-8.72 2.887-1.356 6.557.348 8.198 3.807" fill="#FFF"/><path d="M112.949 99.605c0 .442-.36.8-.803.8a.8.8 0 01-.803-.8.802.802 0 011.606 0m2.443.24a.8.8 0 01-.802.8.801.801 0 01-.803-.8.802.802 0 011.605 0" fill="#333237"/><path d="M136.87 100.91c-3.452-2.398-10.554-3.605-16.98-3.946l-3.127 6.354 20.328.953-.22-3.362z" fill="#E5E5E5"/><path d="M95.786 72.749c.047 2.436.577 4.205.6 4.28l1.24-.373c-.02-.067-1.962-6.69 1.64-11.513a10.315 10.315 0 011.957-1.982c-1.351.72-2.452 1.076-3.007 1.228-1.653 2.222-2.493 5.112-2.43 8.36m31.839 8.245l.615.198-.615-.199z" fill="#020302"/><path d="M127.377 64.313c-.733-.291-2.065-.834-2.96-1.278a10.44 10.44 0 011.843 1.938c2.33 3.185 2.584 7.347 2.387 10.277-.217 3.224-1.013 5.714-1.022 5.743l.615.199.616.198c.035-.106.849-2.641 1.08-6.02.307-4.47-.578-8.289-2.56-11.057" fill="#020302"/><path d="M132.301 81.188a3.936 3.936 0 01-3.944 3.927 3.936 3.936 0 01-3.945-3.927 3.936 3.936 0 013.945-3.926 3.936 3.936 0 013.944 3.926" fill="#E5E5E5"/><path d="M128.357 77.544c-2.02 0-3.662 1.635-3.662 3.644 0 2.01 1.643 3.645 3.662 3.645s3.661-1.635 3.661-3.645-1.642-3.644-3.661-3.644m0 7.853c-2.331 0-4.228-1.888-4.228-4.209 0-2.32 1.897-4.208 4.228-4.208 2.331 0 4.228 1.888 4.228 4.208 0 2.321-1.897 4.21-4.228 4.21" fill="#020302"/><path d="M131.209 81.188a2.846 2.846 0 01-2.852 2.84 2.846 2.846 0 01-2.852-2.84 2.846 2.846 0 012.852-2.839 2.846 2.846 0 012.852 2.84m-33.972 21.229c-3.144-.167-3.518-2.178-3.532-2.263L91.593 87.58l.96-.16 2.111 12.576c.01.047.296 1.332 2.625 1.455l-.052.967zm7.283-1.824c2.919-1.175 2.615-3.198 2.6-3.283l-2.112-12.576-.96.16 2.113 12.575c.006.048.156 1.356-2.006 2.226l.365.898z" fill="#B3B3B3"/><path d="M98.062 100.875c.923.183 1.576.813 1.457 1.408s-.964.93-1.887.746c-.924-.182-1.577-.813-1.458-1.408s.964-.929 1.888-.746m5.168-.86c-.815.472-1.226 1.28-.919 1.803.307.524 1.215.567 2.03.095.812-.472 1.224-1.28.917-1.804-.306-.524-1.215-.566-2.029-.094M91.328 87.93c-.018-.112-.454-2.76-.1-5.586.494-3.954 2.298-6.301 5.216-6.787 6.919-1.151 8.792 9.515 8.868 9.97l-1.439.24c-.016-.098-1.703-9.69-7.189-8.777-2.247.374-3.596 2.236-4.009 5.533-.327 2.619.088 5.142.092 5.167l-1.439.24z" fill="#292727"/><path d="M60.496 55.27l-2.109.393.395 2.098-1.834.343-.395-2.099-2.107.393-.344-1.826 2.107-.393-.395-2.097 1.834-.342.395 2.097 2.11-.394.343 1.826zm-4.05-4.883c-2.516.47-4.174 2.88-3.702 5.384.472 2.505 2.893 4.154 5.409 3.685 2.516-.47 4.173-2.88 3.701-5.385-.471-2.504-2.893-4.154-5.409-3.684z" fill="#FF6C50"/><path d="M64.042 40.532l-8.36 1.942-8.464 1.44s.965 2.665.102 5.494l9.056-1.82.656-.132 9.203-1.85c-1.898-2.273-2.193-5.074-2.193-5.074" fill="#50936E"/><path d="M66.332 45.399a.997.997 0 01-.783 1.175l-17.386 3.494a1.003 1.003 0 01-1.182-.78.999.999 0 01.785-1.175l17.387-3.495a1.003 1.003 0 011.18.781m-1.955-4.839a.9.9 0 01-.708 1.062l-15.706 3.156a.902.902 0 11-.358-1.766l15.706-3.157a.905.905 0 011.066.706" fill="#6CAD84"/><path d="M55.389 41.379a2.004 2.004 0 01-2.361-1.56 1.995 1.995 0 011.567-2.35 2.004 2.004 0 012.36 1.56 1.995 1.995 0 01-1.566 2.35zm4.99-1.34c-.565-2.78-3.286-4.58-6.078-4.018-2.792.561-4.599 3.27-4.035 6.05l.3 1.483 10.113-2.032-.3-1.484z" fill="#6CAD84"/><path d="M104.734 88.024s.721.806 2.693 1.341l-.597 10.77s-1.793-.348-3.526.425l1.43-12.536z" fill="#E2B999"/><path d="M111.401 87.893l-4.182-.202a1.048 1.048 0 00-1.1.993l-.266 5.472-.267 5.473a1.046 1.046 0 00.997 1.094l4.182.202a1.048 1.048 0 001.099-.993l.267-5.472.267-5.473a1.046 1.046 0 00-.997-1.094" fill="#FEFEFE"/><path d="M90.942 98.71c.044-.888.786-1.568 1.664-1.585 0-.01-.004-.017-.006-.023l-1.575-.076a1.694 1.694 0 01-1.61-1.767 1.698 1.698 0 011.774-1.603l-1.692-.082a1.693 1.693 0 01-1.61-1.765 1.698 1.698 0 011.774-1.603l-6.768-.328a1.694 1.694 0 01-1.61-1.766 1.698 1.698 0 011.774-1.602l1.081.052 9.072.44 1.223.059c.206.01.399-.17.468-.364a.502.502 0 00-.162-.559c-1.564-1.318-3.172-1.317-3.085-3.103a1.174 1.174 0 011.795-.94l11.153 5.83c.26.161.413.452.398.758l-.48 9.84a2.536 2.536 0 01-2.662 2.403l-9.306-.45a1.693 1.693 0 01-1.61-1.766" fill="#E2B999"/><path d="M147.286 103.618c-.103 0-.204-.003-.307-.007l-39.422-1.635.611-14.602 29.967 2.352-6.45-15.206 12.598-4.778 9.524 23.216a7.278 7.278 0 01-.334 7.282 7.349 7.349 0 01-6.187 3.378" fill="#FFF"/></g><path fill="#FFD65B" d="M84.721 157.345l-22.407-3.437 2.828-18.391 22.407 3.437z"/><path fill="#EDB953" d="M87.127 141.695l-22.407-3.437.422-2.741 22.407 3.437z"/></g><path d="M226.588 138.111c0 .628-.512 1.131-1.135 1.131h-9.577a1.13 1.13 0 01-1.141-1.131v-1.304c0-.627.504-1.124 1.14-1.124h9.578c.623 0 1.135.497 1.135 1.124v1.304z" fill="#FFF"/><path d="M178.976 167.356c-.104-.6-.374-1.352-1.03-1.828l-34.198 3.276c.38.166.664.51.713.939.027.372-.139.703-.388.951l34.903-3.338z" fill="#585C60"/><path d="M143.197 168.71l-6.065.593a1.061 1.061 0 00-.38.117c-.305.11-.56.331-.685.656l-2.455 6.463a1.165 1.165 0 00.67 1.49 1.154 1.154 0 001.494-.67l2.2-5.821 5.435-.531a1.175 1.175 0 001.051-1.262 1.165 1.165 0 00-1.265-1.035" fill="#383C3F"/><path d="M167.407 168.778l-34.176-3.18c-.664.462-.934 1.214-1.038 1.82l34.896 3.243a1.181 1.181 0 01-.388-.945c.049-.428.332-.773.706-.938" fill="#585C60"/><path d="M167.96 168.68l6.072.579a.974.974 0 01.38.117c.305.104.56.324.685.656l2.462 6.449a1.16 1.16 0 01-.657 1.496c-.601.221-1.272-.069-1.493-.669l-2.22-5.807-5.429-.525a1.17 1.17 0 01-1.058-1.262c.055-.627.63-1.09 1.259-1.034" fill="#383C3F"/><path d="M170.055 178.053c-8.126.006-9.661-3.235-9.924-10.002 0-.09.014-2.476 1.425-2.8.013-.007.041-.014.062-.02 2.199-.628 4.979-.98 7.856-.98 2.787-.007 5.408.303 7.593.91.014.014.048.02.07.02 1.77.373 1.9 2.305 1.9 2.884.008 5.994-1.52 9.98-8.982 9.988m-28.92.034c-7.47.007-9.004-3.973-9.018-9.96.007-.586.131-2.51 1.895-2.89.02 0 .055-.014.09-.02 2.164-.614 4.785-.939 7.572-.946 2.877 0 5.67.352 7.856.973 0 0 .048.007.069.02 1.41.318 1.424 2.705 1.424 2.801-.235 6.773-1.77 10.015-9.889 10.022m42.012-13.864c-.893-.276-13.181-3.731-21.777-1.138-.961.283-1.667.738-2.172 1.283-2.413 1.545-4.826 1.545-7.233.02-.526-.551-1.217-1.006-2.178-1.29-8.61-2.572-20.885.918-21.777 1.194-.892.283 0 3.952.664 3.952.636 0 1.182-.034 1.258 1.497.277 4.746 2.075 10.222 11.231 10.215 7.718-.014 10.643-2.973 11.646-7.711.235-1.097.767-4.035 2.773-4.042 1.991 0 2.545 2.994 2.794 4.11 1.03 4.698 3.976 7.616 11.652 7.602 9.156-.007 10.947-5.484 11.203-10.236.083-1.531.622-1.497 1.272-1.497.644 0 1.529-3.676.644-3.959" fill="#1C2329"/><path d="M77.433 173.403c-5.18-11.635-17.808-19.85-32.6-19.85-14.799 0-27.42 8.215-32.585 19.85h65.185zM10.487 81.709a8.806 8.806 0 01-1.77.172 8.883 8.883 0 01-1.674-.158l22.538 61.194a8.584 8.584 0 012.482-2.38L10.487 81.71zm5.389-3.563a8.516 8.516 0 01-2.496 2.372l21.576 58.822a8.356 8.356 0 011.763-.173c.581 0 1.148.049 1.695.166L15.876 78.146zm42.236-67.493L10.706 64.798a8.703 8.703 0 013.105 1.407l45.303-52.04a9.177 9.177 0 01-1.002-3.512m2.89 6.045L15.99 68.464a8.4 8.4 0 011.28 3.214l45.987-52.724-2.255-2.256z" fill="#28282C"/><path d="M17.423 73.215c0 4.808-3.894 8.67-8.707 8.67-4.785 0-8.686-3.862-8.686-8.67 0-4.78 3.9-8.677 8.686-8.677 4.813 0 8.707 3.897 8.707 8.677" fill="#A1A3A9"/><path d="M13.222 73.215a4.496 4.496 0 01-4.502 4.49c-2.462 0-4.509-2.013-4.509-4.49 0-2.483 2.047-4.462 4.51-4.462 2.489 0 4.501 1.98 4.501 4.462" fill="#28282C"/><path d="M45.429 147.828c0 4.807-3.894 8.677-8.714 8.677-4.778 0-8.679-3.87-8.679-8.677 0-4.787 3.9-8.663 8.68-8.663 4.82 0 8.713 3.876 8.713 8.663" fill="#A1A3A9"/><path d="M41.221 147.828c0 2.47-2.005 4.49-4.502 4.49-2.454 0-4.501-2.02-4.501-4.49 0-2.483 2.047-4.463 4.501-4.463 2.497 0 4.502 1.98 4.502 4.463" fill="#28282C"/><path d="M73.334 15.971c2.282-2.29 4.986-3.952 7.946-5.062l-7.49-7.47c-3.603-3.594-9.446-3.594-13.042 0-3.61 3.586-3.61 9.415 0 12.995l7.496 7.483c1.114-2.952 2.794-5.649 5.09-7.946" fill="#A1A3A9"/><path d="M89.096 31.716c10.532-10.511 20.988-17.126 23.354-14.781-13.098-9.684-29.62-10.422-39.114-.966-9.509 9.484-8.755 25.949.947 39.033-2.344-2.352 4.281-12.781 14.813-23.286" fill="#28282C"/><path d="M97.636 40.23C87.104 50.742 76.648 57.35 74.283 55.005c-2.345-2.352 4.28-12.781 14.813-23.286 10.532-10.519 20.988-17.133 23.353-14.781 2.351 2.352-4.267 12.788-14.813 23.292z" fill="#FFD65B"/><path d="M97.605 24.034a106.396 106.396 0 00-8.506 7.684 108.01 108.01 0 00-7.71 8.497c5.421 2.994 11.596 2.863 15.33-.869 3.77-3.752 3.901-9.898.886-15.312" fill="#FFF"/><path d="M72.996 85.211c.193 0 .394.028.58.062V53.96a43.465 43.465 0 01-1.154-1.704v33.018c.193-.034.387-.062.574-.062" fill="#28282C"/><path d="M76.447 88.654a3.453 3.453 0 01-3.45 3.449 3.453 3.453 0 01-3.451-3.45 3.452 3.452 0 016.901 0" fill="#28282C"/><g fill="#E0E1E4"><path d="M72.27 145.025c3.977-2.269 3.638-6.883-1.403-11.601-5.595-5.214-3.334-9.318 3.79-10.767-2.048 1.897-.817 4.766 3.56 8.787 5.042 4.58 8.735 11.76-5.946 13.581"/><path d="M85.027 138.37c.07-1.165.284-3.579-4.502-8.283-5.449-5.36-5.158-7.311-1.182-9.16-2.261 1.49-1.41 4.394 3.561 8.78 2.483 2.166 4.661 6.098 2.123 8.664"/></g><path d="M98.386 146.4h-.353c.042 1.4.014 2.814-.048 4.22h.4c3.514 0 6.363 2.85 6.363 6.353v1.297c0 3.497-2.849 6.339-6.362 6.339h-2.497a76.84 76.84 0 01-1.182 4.228h3.679c5.843 0 10.594-4.746 10.594-10.567v-1.297c0-5.835-4.75-10.574-10.594-10.574" fill="#50936E"/><path d="M97.737 141.85H57.925c-1.251 11.608 1.252 23.851 6.148 35.604 1.176 2.828 3.97 4.656 7.033 4.656h13.45c3.07 0 5.865-1.828 7.04-4.656 4.89-11.753 7.4-23.996 6.141-35.604" fill="#6CAD84"/><path fill="#FD7" d="M305.61 114.622H340V89.86h-34.39z"/><path fill="#F4C05A" d="M322.824 98.619l-17.212 16.002h34.383z"/><path fill="#FD7" d="M322.824 105.853l17.171-15.995h-34.383z"/><path d="M346.947 28.445a6.79 6.79 0 00-3.914-1.242c-1.417 0-2.697.449-3.776 1.173l-22.274 15.981-.055 32.542 52.156.11.055-32.562-22.192-16.002z" fill="#AFB0B5"/><path fill="#FFF" d="M327.795 73.851h30.483V39.454h-30.483z"/><path fill="#F9F8F2" d="M331.71 54.51h22.288v-.923h-22.289zm0-2.461h22.288v-.932h-22.289zm0 4.931h11.81v-.924h-11.81z"/><path fill="#6CAD84" d="M331.71 46.117h10.704V44.44H331.71z"/><path fill="#F9F8F2" d="M331.71 49.58h22.288v-.925h-22.289z"/><path d="M347.292 60.086c-1.162.938-2.635 1.531-4.26 1.531-1.55 0-2.967-.558-4.108-1.427l-21.943-15.83-.055 32.542 52.156.104.056-32.563-21.846 15.643z" fill="#FD7"/><path d="M339.2 60.932L316.94 76.9l52.142.103-22.191-16.002a6.79 6.79 0 00-3.914-1.241 6.704 6.704 0 00-3.776 1.172z" fill="#F4C05A"/></g></svg>