<svg width="48" height="48" xmlns="http://www.w3.org/2000/svg"><g fill="#AEB0B5"><path d="M14.667 9.333C14.667 4.18 18.847 0 24 0c5.153 0 9.333 4.179 9.333 9.333s-9.333 16-9.333 16-9.333-10.846-9.333-16z"/><path d="M38.828 34.667c5.067 0 9.172-4.182 9.172-9.334C48 20.18 43.895 16 38.828 16c-5.065 0-16.161 9.333-16.161 9.333s11.096 9.334 16.161 9.334z"/><path d="M9.172 34.667C4.105 34.667 0 30.485 0 25.333 0 20.18 4.105 16 9.172 16c5.065 0 16.161 9.333 16.161 9.333s-11.096 9.334-16.161 9.334z"/><path d="M25.333 20h-2.666c1.333 20-8 28-8 28h18.666s-9.333-8-8-28z"/></g></svg>