<svg width="40" height="40" xmlns="http://www.w3.org/2000/svg"><g fill="none"><circle fill="#FF7157" cx="20" cy="20" r="20"/><path d="M20.83 20.83a7.997 7.997 0 015.672-2.35c.726 0 1.438.097 2.127.286.015-.229.023-.458.023-.69v-.491C28.652 11.739 23.912 7 18.067 7h-.482C11.739 7 7 11.739 7 17.585v.49c0 5.846 4.739 10.585 10.585 10.585h.482c.236 0 .47-.008.701-.024a8 8 0 01-.287-2.134 7.997 7.997 0 012.35-5.672h-.001zm-2.518-2.234l-6.257-.055.013-1.523 5.272.046 3.025-6.575 1.384.636-3.437 7.471z" fill="#FFF"/><path d="M26.502 20.004a6.498 6.498 0 100 12.996 6.498 6.498 0 000-12.996zm1.256 9.784h-.49v.896h-1.524v-.896h-1.76v-1.523h3.774c.272 0 .5-.23.5-.501s-.228-.5-.5-.5h-2.512a2.026 2.026 0 01-2.024-2.024c0-1.117.908-2.025 2.024-2.025h.498v-.9h1.523v.9h1.753v1.524h-3.774c-.271 0-.5.23-.5.5 0 .272.229.501.5.501h2.512c1.117 0 2.024.908 2.024 2.024a2.026 2.026 0 01-2.024 2.024z" fill="#FFF"/></g></svg>