<svg width="94" height="94" xmlns="http://www.w3.org/2000/svg"><g fill="none" fill-rule="evenodd"><path d="M38.436 49.678l-.016-.002h-33l-.016.002C2.418 49.688 0 52.034 0 54.933V88.15a5.423 5.423 0 005.42 5.425h33c2.994 0 5.42-2.43 5.42-5.425V54.933c0-2.899-2.417-5.245-5.404-5.255zm0-49.675C38.43.003 38.424 0 38.42 0h-33c-.005 0-.01.003-.016.003C2.418.012 0 2.36 0 5.255v33.218a5.422 5.422 0 005.42 5.425h33a5.422 5.422 0 005.42-5.425V5.255c0-2.895-2.417-5.243-5.404-5.252zm49.676 49.675l-.017-.002H55.097l-.016.002c-2.987.01-5.405 2.356-5.405 5.255V88.15a5.423 5.423 0 005.42 5.425h32.999a5.424 5.424 0 005.422-5.425V54.933c0-2.899-2.418-5.245-5.405-5.255zm0-49.675c-.006 0-.011-.003-.017-.003H55.097c-.006 0-.01.003-.016.003-2.987.009-5.405 2.357-5.405 5.252v33.218a5.422 5.422 0 005.42 5.425h32.999a5.423 5.423 0 005.422-5.425V5.255c0-2.895-2.418-5.243-5.405-5.252z" fill="#5AA6D9"/><path d="M35.074 67.237H8.775a2.924 2.924 0 00-2.922 2.923v14.61a2.924 2.924 0 002.922 2.923h26.3a2.924 2.924 0 002.921-2.924V70.16a2.923 2.923 0 00-2.922-2.923zm0-49.676H8.775a2.923 2.923 0 00-2.922 2.922v14.61a2.924 2.924 0 002.922 2.924h26.3a2.924 2.924 0 002.921-2.924v-14.61a2.922 2.922 0 00-2.922-2.922zM84.75 67.237H58.451a2.924 2.924 0 00-2.922 2.923v14.61a2.924 2.924 0 002.922 2.923h26.3a2.924 2.924 0 002.922-2.924V70.16a2.923 2.923 0 00-2.923-2.923zm0-49.676H58.451a2.923 2.923 0 00-2.922 2.922v14.61a2.924 2.924 0 002.922 2.924h26.3a2.924 2.924 0 002.922-2.924v-14.61a2.922 2.922 0 00-2.923-2.922zM8.775 55.548a2.924 2.924 0 000 5.846 2.923 2.923 0 000-5.846zm8.767 0a2.924 2.924 0 000 5.846 2.923 2.923 0 000-5.846zm8.766 0a2.924 2.924 0 000 5.846 2.923 2.923 0 000-5.846zM8.775 5.872a2.924 2.924 0 000 5.846 2.923 2.923 0 000-5.846zm8.767 0a2.924 2.924 0 000 5.846 2.923 2.923 0 000-5.846zm8.766 0a2.924 2.924 0 000 5.846 2.923 2.923 0 000-5.846zM58.45 55.548a2.924 2.924 0 000 5.846 2.923 2.923 0 000-5.846zm8.767 0a2.924 2.924 0 000 5.846 2.923 2.923 0 000-5.846zm8.766 0a2.924 2.924 0 000 5.846 2.923 2.923 0 000-5.846zM58.451 5.872a2.924 2.924 0 000 5.846 2.923 2.923 0 000-5.846zm8.767 0a2.924 2.924 0 000 5.846 2.923 2.923 0 000-5.846zm8.766 5.846a2.923 2.923 0 10-.002-5.847 2.923 2.923 0 00.002 5.847z" fill="#FFF"/></g></svg>