<svg xmlns="http://www.w3.org/2000/svg" width="101" height="101"><path data-name="Path 340" d="M88.967 44.582A44.484 44.484 0 1144.582 0a44.4 44.4 0 0144.385 44.582z" fill="#e65a40"/><path data-name="Path 341" d="M88.967 44.582a44.4 44.4 0 01-44.385 44.385V0a44.57 44.57 0 0144.385 44.582z" fill="#d93752"/><path data-name="Path 342" d="M83.049 44.582A38.566 38.566 0 1144.582 5.918a38.466 38.466 0 0138.467 38.664z" fill="#f9f5f3"/><path data-name="Path 343" d="M83.049 44.582a38.466 38.466 0 01-38.467 38.467V5.918a38.634 38.634 0 0138.467 38.664z" fill="#f8e0dd"/><g data-name="Group 20"><path data-name="Path 344" d="M41.623 12.033h5.918v5.918h-5.918z" fill="#48494f"/></g><g data-name="Group 21"><path data-name="Path 345" d="M41.623 71.213h5.918v5.918h-5.918z" fill="#48494f"/></g><g data-name="Group 22"><path data-name="Path 346" d="M19.47 23.659l4.184-4.184 4.184 4.184-4.184 4.184z" fill="#48494f"/></g><g data-name="Group 23"><path data-name="Path 347" d="M19.465 65.502l4.184-4.184 4.184 4.184-4.184 4.184z" fill="#48494f"/></g><g data-name="Group 24"><path data-name="Path 348" d="M61.313 23.663l4.184-4.184 4.184 4.184-4.184 4.184z" fill="#48494f"/></g><g data-name="Group 25"><path data-name="Path 349" d="M12.033 41.623h5.918v5.918h-5.918z" fill="#48494f"/></g><g data-name="Group 26"><path data-name="Path 350" d="M71.213 41.623h5.918v5.918h-5.918z" fill="#48494f"/></g><g data-name="Group 27"><path data-name="Path 351" d="M59.377 41.623v5.918H41.623V23.869h5.918v17.754z" fill="#48494f"/></g><g data-name="Group 28"><path data-name="Path 352" d="M77.131 53.459a23.771 23.771 0 000 47.541 23.771 23.771 0 100-47.541z" fill="#6cad84"/></g><g data-name="Group 29"><path data-name="Path 354" d="M88.082 73.284L77.134 84.291l-2.959 2.959-7.993-8.048 4.142-4.143 3.847 3.787 2.959-2.959 6.806-6.746z" fill="#f9f5f3"/></g></svg>