<svg width="34" height="36" xmlns="http://www.w3.org/2000/svg"><path d="M17 0C7.934 0 .5 7.486.5 16.615v9.693c0 2.282 1.858 4.154 4.125 4.154h2.75c.763 0 1.375-.617 1.375-1.385v-8.308c0-.768-.612-1.384-1.375-1.384H3.25v-2.77C3.25 8.99 9.427 2.77 17 2.77s13.75 6.22 13.75 13.846v2.77h-4.125c-.763 0-1.375.616-1.375 1.384v8.308c0 .768.612 1.385 1.375 1.385h1.128a4.089 4.089 0 01-3.878 2.769h-5.5a1.373 1.373 0 00-1.203.681 1.375 1.375 0 000 1.407c.247.421.709.692 1.203.681h5.5c3.384 0 6.198-2.499 6.757-5.755 1.654-.551 2.868-2.098 2.868-3.937v-9.693C33.5 7.485 26.066 0 17 0zM3.25 22.154H6v5.538H4.625a1.362 1.362 0 01-1.375-1.384v-4.154zm24.75 0h2.75v4.154c0 .746-.559 1.32-1.29 1.373-.031-.01-.074-.01-.106-.01-.065 0-.14.01-.205.021H28v-5.538z" fill="#28282C"/></svg>