<svg height="512" viewBox="0 0 64 64" width="512" xmlns="http://www.w3.org/2000/svg"><path d="M20 29v-3.459A7.766 7.766 0 0017.17 25h-.074c-3.87 0-7.346 2.695-7.985 6.512a7.827 7.827 0 002.663 7.298L23 48.31l11.228-9.5a7.825 7.825 0 002.367-3.493l.106-.317H26a6 6 0 01-6-6zm21 1.31l-11.227-9.5A7.817 7.817 0 0127 14.832C27 10.513 30.513 7 34.831 7h.339c2.092 0 4.059.814 5.538 2.294l.292.292.292-.292A7.777 7.777 0 0146.83 7h.339C51.487 7 55 10.513 55 14.832a7.82 7.82 0 01-2.773 5.979z" fill="#f0bc5e"/><path d="M41.375 22.137l2.002-1.692 1.292 1.528-2.002 1.692zm5.271-1.844l-1.291-1.526 2.998-2.537A1.833 1.833 0 0047.169 13H47v-2h.169A3.836 3.836 0 0151 14.831a3.827 3.827 0 01-1.355 2.925zM30 32h-4c-1.654 0-3-1.346-3-3v-8h2v8c0 .551.448 1 1 1h4zM14 17c-1.654 0-3-1.346-3-3s1.346-3 3-3 3 1.346 3 3-1.346 3-3 3zm0-4a1.001 1.001 0 000 2 1.001 1.001 0 000-2zm-5 1H7c0-3.86 3.141-7 7-7v2c-2.757 0-5 2.243-5 5z"/><path d="M5 14H3C3 7.935 7.935 3 14 3v2c-4.963 0-9 4.038-9 9zm34 24h2v2h-2zm0 9c0 .551-.448 1-1 1h-4v2h4c1.654 0 3-1.346 3-3v-5h-2z"/><path d="M56 1H26c-3.859 0-7 3.14-7 7v11H8c-3.859 0-7 3.14-7 7v21c0 3.86 3.141 7 7 7h3v6.657A2.346 2.346 0 0013.343 63c.728 0 1.401-.33 1.85-.905L21.489 54H38c3.859 0 7-3.14 7-7v-7.799l3.808 4.896A2.346 2.346 0 0053 42.657V36h3c3.859 0 7-3.14 7-7V8c0-3.86-3.141-7-7-7zM43 47c0 2.757-2.243 5-5 5H20.511l-6.896 8.867c-.183.237-.615.086-.615-.21V52H8c-2.757 0-5-2.243-5-5V26c0-2.757 2.243-5 5-5h11v8c0 3.86 3.141 7 7 7h16.511l.489.629zm18-18c0 2.757-2.243 5-5 5h-5v8.657c.001.295-.433.444-.614.211L43.489 34H26c-2.757 0-5-2.243-5-5V8c0-2.757 2.243-5 5-5h30c2.757 0 5 2.243 5 5z"/><path d="M53 50c0-1.654-1.346-3-3-3s-3 1.346-3 3 1.346 3 3 3 3-1.346 3-3zm-4 0a1.001 1.001 0 111 1c-.552 0-1-.449-1-1zm1 7c3.859 0 7-3.14 7-7h-2c0 2.757-2.243 5-5 5z"/><path d="M50 59v2c6.065 0 11-4.935 11-11h-2c0 4.962-4.037 9-9 9zM23 17h2v2h-2zm0-4h2v2h-2zM5 45h2v2H5zm0-4h2v2H5zm0-4h2v2H5z"/></svg>