<svg width="48" height="46" xmlns="http://www.w3.org/2000/svg"><g fill="none"><path d="M45.729 28.319H2.178A2.183 2.183 0 010 26.142V2.202C0 1.005.98.025 2.178.025h43.55c1.199 0 2.179.98 2.179 2.177v23.94c0 1.197-.98 2.177-2.178 2.177z" fill="#528163"/><path d="M41.374 26.142H6.533a4.367 4.367 0 00-4.355-4.353V6.555a4.367 4.367 0 004.355-4.353h34.84a4.367 4.367 0 004.356 4.353v15.234a4.367 4.367 0 00-4.355 4.353z" fill="#6CAD84"/><g fill="#528163" transform="translate(8.702 4.302)"><ellipse cx="15.251" cy="9.87" rx="8.71" ry="9.794"/><ellipse cx="2.186" cy="9.87" rx="2.178" ry="2.176"/><ellipse cx="28.317" cy="9.87" rx="2.178" ry="2.176"/></g><path d="M25.042 13.084h-2.178c-.653 0-1.088-.435-1.088-1.088s.435-1.088 1.088-1.088h3.267c.653 0 1.088-.436 1.088-1.089s-.435-1.088-1.088-1.088h-1.089c0-.653-.436-1.088-1.089-1.088s-1.089.435-1.089 1.088c-1.85 0-3.266 1.415-3.266 3.265s1.416 3.264 3.266 3.264h2.178c.653 0 1.089.436 1.089 1.089 0 .652-.436 1.088-1.089 1.088h-3.266c-.654 0-1.089.435-1.089 1.088s.436 1.088 1.089 1.088h1.088c0 .653.436 1.088 1.09 1.088.653 0 1.088-.435 1.088-1.088 1.85 0 3.266-1.415 3.266-3.265s-1.415-3.264-3.266-3.264z" fill="#87D7A4"/><ellipse cx="7.647" cy="8.723" rx="7.622" ry="7.617" transform="translate(21.6 20.579)" fill="#FFCB62"/><path d="M29.247 21.684a7.573 7.573 0 00-7.622 7.618 7.573 7.573 0 007.622 7.617 7.573 7.573 0 007.621-7.617 7.573 7.573 0 00-7.621-7.618zm0 13.059c-3.049 0-5.444-2.394-5.444-5.441 0-3.047 2.395-5.441 5.444-5.441s5.444 2.394 5.444 5.44c0 3.048-2.395 5.442-5.444 5.442z" fill="#F1C161"/><path d="M29.247 36.81c4.246.109 7.621-3.373 7.621-7.508h-.108c-.545 0-.98.435-1.09.979-.217 1.523-.98 2.938-2.068 3.917-.87.871-2.069 1.415-3.375 1.633a.975.975 0 00-.98.98z" fill="#DAA94A"/><path d="M29.247 21.793c-4.246-.109-7.622 3.373-7.622 7.509h.11c.544 0 .98-.436 1.088-.98.218-1.523.98-2.938 2.069-3.917.87-.87 2.068-1.415 3.375-1.633.545 0 .98-.435.98-.979z" fill="#FFDE9E"/><path d="M24.565 30.063c0-3.047 2.396-5.44 5.444-5.44 1.307 0 2.504.435 3.484 1.305-1.089-1.306-2.504-2.067-4.246-2.067-3.049 0-5.444 2.394-5.444 5.44 0 1.742.762 3.156 1.96 4.136-.762-.87-1.198-2.068-1.198-3.374z" fill="#DAA94A"/><path d="M29.247 32.566c-.653 0-1.089-.435-1.089-1.088v-4.353c0-.653.436-1.088 1.089-1.088s1.089.435 1.089 1.088v4.353c0 .653-.436 1.088-1.089 1.088z" fill="#DAA94A"/><ellipse cx="7.647" cy="8.723" rx="7.622" ry="7.617" transform="translate(31.2 20.579)" fill="#FFCB62"/><path d="M38.847 21.684a7.573 7.573 0 00-7.622 7.618 7.573 7.573 0 007.622 7.617 7.573 7.573 0 007.621-7.617 7.573 7.573 0 00-7.621-7.618zm0 13.059c-3.049 0-5.444-2.394-5.444-5.441 0-3.047 2.395-5.441 5.444-5.441s5.444 2.394 5.444 5.44c0 3.048-2.395 5.442-5.444 5.442z" fill="#F1C161"/><path d="M38.847 36.81c4.246.109 7.621-3.373 7.621-7.508h-.108c-.545 0-.98.435-1.09.979-.217 1.523-.98 2.938-2.068 3.917-.87.871-2.069 1.415-3.375 1.633a.975.975 0 00-.98.98z" fill="#DAA94A"/><path d="M38.847 21.793c-4.246-.109-7.622 3.373-7.622 7.509h.11c.544 0 .98-.436 1.088-.98.218-1.523.98-2.938 2.069-3.917.87-.87 2.068-1.415 3.375-1.633.545 0 .98-.435.98-.979z" fill="#FFDE9E"/><path d="M34.165 30.063c0-3.047 2.396-5.44 5.444-5.44 1.307 0 2.504.435 3.484 1.305-1.089-1.306-2.504-2.067-4.246-2.067-3.049 0-5.444 2.394-5.444 5.44 0 1.742.762 3.156 1.96 4.136-.762-.87-1.198-2.068-1.198-3.374z" fill="#DAA94A"/><path d="M38.847 32.566c-.653 0-1.089-.435-1.089-1.088v-4.353c0-.653.436-1.088 1.089-1.088s1.089.435 1.089 1.088v4.353c0 .653-.436 1.088-1.089 1.088z" fill="#DAA94A"/><ellipse cx="7.647" cy="8.723" rx="7.622" ry="7.617" transform="translate(25.2 29.053)" fill="#FFCB62"/><path d="M32.847 30.158a7.573 7.573 0 00-7.622 7.617 7.573 7.573 0 007.622 7.618 7.573 7.573 0 007.621-7.618 7.573 7.573 0 00-7.621-7.617zm0 13.058c-3.049 0-5.444-2.394-5.444-5.44 0-3.048 2.395-5.442 5.444-5.442s5.444 2.394 5.444 5.441c0 3.047-2.395 5.441-5.444 5.441z" fill="#F1C161"/><path d="M32.847 45.284c4.246.109 7.621-3.374 7.621-7.509h-.108c-.545 0-.98.436-1.09.98-.217 1.523-.98 2.938-2.068 3.917-.87.87-2.069 1.415-3.375 1.633a.975.975 0 00-.98.979z" fill="#DAA94A"/><path d="M32.847 30.267c-4.246-.11-7.622 3.373-7.622 7.508h.11c.544 0 .98-.435 1.088-.98.218-1.523.98-2.937 2.069-3.917.87-.87 2.068-1.414 3.375-1.632.545 0 .98-.435.98-.98z" fill="#FFDE9E"/><path d="M28.165 38.537c0-3.047 2.396-5.441 5.444-5.441 1.307 0 2.504.435 3.484 1.306-1.089-1.306-2.504-2.068-4.246-2.068-3.049 0-5.444 2.394-5.444 5.441 0 1.741.762 3.156 1.96 4.135-.762-.87-1.198-2.067-1.198-3.373z" fill="#DAA94A"/><path d="M32.847 41.04c-.653 0-1.089-.435-1.089-1.088v-4.353c0-.653.436-1.088 1.089-1.088s1.089.435 1.089 1.088v4.353c0 .653-.436 1.088-1.089 1.088z" fill="#DAA94A"/></g></svg>