<svg width="66" height="66" xmlns="http://www.w3.org/2000/svg"><g fill="none" fill-rule="evenodd"><path d="M0 41.25v20.625A4.125 4.125 0 004.125 66h57.75A4.125 4.125 0 0066 61.875V41.25H0z" fill="#818389"/><path d="M61.875 0H4.125A4.125 4.125 0 000 4.125v37.126h66V4.125A4.125 4.125 0 0061.875 0z" fill="#E2E4E8"/><path d="M43.313 8.25h-33a2.063 2.063 0 00-2.063 2.064v24.75c0 1.138.924 2.061 2.063 2.061h33a2.062 2.062 0 002.062-2.061v-24.75c0-1.14-.924-2.064-2.063-2.064z" fill="#5AA6D9"/><path d="M51.563 12.375h4.124a2.063 2.063 0 000-4.125h-4.124a2.063 2.063 0 000 4.125zm4.124 4.125h-4.124a2.063 2.063 0 000 4.125h4.124a2.062 2.062 0 100-4.125zm0 8.251h-4.124a2.063 2.063 0 000 4.124h4.124a2.062 2.062 0 100-4.124zm0 8.25h-4.124a2.063 2.063 0 000 4.124h4.124a2.062 2.062 0 100-4.124z" fill="#818389"/><path d="M10.313 45.375a2.063 2.063 0 00-2.063 2.064v8.25c0 1.138.924 2.062 2.063 2.062h45.374a2.063 2.063 0 002.063-2.062v-8.25c0-1.14-.924-2.064-2.063-2.064H10.313z" fill="#E2E4E8"/><path d="M14.438 49.501a2.063 2.063 0 000 4.124h37.124a2.063 2.063 0 000-4.124H14.438z" fill="#48494F"/><path d="M49.5 49.501h-33l-2.063 10.313c0 1.137.925 2.061 2.063 2.061h33a2.063 2.063 0 002.063-2.061L49.5 49.5z" fill="#6CAD84"/><path d="M45.786 51.564H33c2.278 0 4.125 1.385 4.125 3.092 0 1.709-1.847 3.095-4.125 3.095h14.025l-1.239-6.187zm-16.911 3.092c0-1.707 1.847-3.092 4.125-3.092H20.212l-1.236 6.187H33c-2.278 0-4.125-1.386-4.125-3.095z" fill="#50936E"/></g></svg>