<svg xmlns="http://www.w3.org/2000/svg" viewBox="0 0 22.64 17.98"><defs><style>.b{fill-rule:evenodd;fill:#e65a40}</style></defs><path d="M4.25 1.38C5.36 0 5.33 0 6.37 0h9.9c1 0 1 0 2.12 1.38l2.83 3.46c1.91 2.07 1.87 2.07 0 4.15l-7.78 7.61c-.69.69-1 1.38-2.12 1.38s-1.43-.69-2.12-1.38L1.42 9c-1.87-2.07-1.91-2.07 0-4.15z" fill-rule="evenodd" fill="#c84d36"/><path class="b" d="M4.25 1.38L1.42 4.84C.46 5.88 0 6.4 0 6.92c.05 0 5.59 1.31 5.66 1.38L11.32 0H6.37C5.33 0 5.36 0 4.25 1.38zm18.36 5.54v-.19c-.11-.47-.57-1-1.4-1.88l-2.82-3.47C17.28 0 17.31 0 16.27 0h-5L17 8.3c0-.07 5.61-1.38 5.61-1.38zM17 8.3H5.66l4.86 9.51a1.85 1.85 0 00.8.17 1.72 1.72 0 00.78-.16z"/><path class="b" d="M5.66 8.3L11.32 0l5.66 8.3H5.66z"/><path d="M5 .48l.66 7.82L11.32 0H6.37C5.64 0 5.45 0 5 .48zm12.62 0C17.2 0 17 0 16.27 0h-4.95L17 8.3z" fill="#f97b63" fill-rule="evenodd"/></svg>