<svg width="91" height="80" xmlns="http://www.w3.org/2000/svg"><g fill="none" fill-rule="evenodd"><path d="M51.188 62.857C51.188 50.233 61.371 40 73.938 40 80.74 40 86.83 43.017 91 47.773V5.714C91 2.56 88.453 0 85.312 0H5.689C2.546 0 0 2.559 0 5.714V80l11.375-11.429h40.558a22.944 22.944 0 01-.745-5.714z" fill="#6CAD84"/><path d="M73.938 40a22.54 22.54 0 0111.374 3.083V8.57a2.852 2.852 0 00-2.843-2.857H8.53A2.852 2.852 0 005.686 8.57v60l5.688-5.714h39.813C51.188 50.233 61.371 40 73.938 40z" fill="#FFF"/><path d="M28.438 28.571c-3.141 0-5.688 2.559-5.688 5.713 0 3.157 2.547 5.715 5.688 5.715 3.14 0 5.687-2.558 5.687-5.715 0-3.154-2.547-5.713-5.688-5.713zm17.062 0c-3.14 0-5.688 2.559-5.688 5.713C39.813 37.441 42.36 40 45.5 40c3.14 0 5.688-2.558 5.688-5.715 0-3.154-2.547-5.713-5.688-5.713zm17.063 0c-3.141 0-5.688 2.559-5.688 5.713 0 3.157 2.547 5.715 5.688 5.715 3.14 0 5.687-2.558 5.687-5.715 0-3.154-2.547-5.713-5.688-5.713z" fill="#6CAD84"/><path d="M88.194 64.972c.202-.91.31-1.855.31-2.825 0-7.272-5.98-13.168-13.355-13.168-.779 0-1.542.067-2.284.193A7.784 7.784 0 0068.745 48C64.467 48 61 51.42 61 55.636c0 1.41.389 2.73 1.065 3.863a13.05 13.05 0 00-.27 2.648c0 7.272 5.978 13.168 13.354 13.168.835 0 1.653-.077 2.445-.221a7.798 7.798 0 003.661.906C85.533 76 89 72.581 89 68.364a7.5 7.5 0 00-.806-3.392zm-6.196 3.468c-.618.862-1.53 1.545-2.713 2.03-1.171.48-2.575.723-4.173.723-1.918 0-3.527-.332-4.782-.989a6.24 6.24 0 01-2.198-1.924c-.568-.807-.856-1.607-.856-2.38 0-.482.188-.9.558-1.243.365-.339.834-.51 1.393-.51.46 0 .855.135 1.177.403.307.257.571.637.783 1.128.237.534.495.986.767 1.341.262.342.639.63 1.12.854.484.226 1.137.34 1.94.34 1.104 0 2.009-.232 2.69-.69.665-.448.988-.986.988-1.644 0-.52-.169-.928-.516-1.249-.363-.335-.843-.596-1.425-.775a28.011 28.011 0 00-2.45-.598c-1.38-.291-2.554-.637-3.489-1.028a.268.268 0 01-.01-.005c-.958-.401-1.73-.958-2.295-1.655-.573-.708-.864-1.596-.864-2.64 0-.994.305-1.89.907-2.664.597-.768 1.47-1.365 2.592-1.774 1.108-.405 2.427-.61 3.918-.61 1.193 0 2.242.136 3.117.405.88.27 1.622.635 2.205 1.084.588.453 1.024.937 1.299 1.44.277.507.417 1.013.417 1.502 0 .47-.184.898-.547 1.27a1.846 1.846 0 01-1.372.566c-.494 0-.881-.12-1.15-.354-.25-.218-.51-.558-.797-1.046-.333-.624-.736-1.116-1.198-1.462-.45-.337-1.2-.508-2.23-.508-.957 0-1.736.19-2.314.563-.557.36-.828.773-.828 1.262 0 .3.087.551.267.767.19.229.457.43.795.596.351.174.713.312 1.075.411.372.102.994.252 1.848.447a33.393 33.393 0 012.953.761c.889.281 1.657.627 2.284 1.03a4.51 4.51 0 011.506 1.567c.36.632.543 1.412.543 2.319a4.947 4.947 0 01-.935 2.939z" fill="#01AFF0"/></g></svg>