<svg width="44" height="50" xmlns="http://www.w3.org/2000/svg"><g fill="none" fill-rule="evenodd"><path d="M39.286 40.625c0-2.237 0-9.375-3.143-17.188-3.143-7.813-11-9.375-11-12.5 0-1.514.835-3.955 1.571-4.688.737-.732 1.572-2.734 1.572-3.125 0-.39-.491-1.562-1.572-1.562H22C20.183 1.563 19.004 0 17.286 0c-1.719 0-3.143.684-3.143 1.563 0 .878 1.424 2.978 3.143 4.686 1.719 1.71 1.571 4.689 1.571 4.689 0 3.124-7.857 4.686-11 12.5-3.143 7.812-3.143 14.95-3.143 17.187 0 2.237-4.714 5.427-4.714 6.25 0 .823.82 1.563 1.571 1.563.75 0 2.775-1.563 4.715-1.563S16.51 49.999 22 49.999c5.489 0 13.774-3.124 15.714-3.124 1.94 0 3.963 1.563 4.715 1.563.75 0 1.571-.74 1.571-1.563s-4.714-4.013-4.714-6.25z" fill="#6CAD84"/><path d="M25.143 9.374h-6.286c-.867 0-1.571.7-1.571 1.563 0 .864.704 1.563 1.571 1.563h6.286c.867 0 1.571-.7 1.571-1.563 0-.862-.704-1.563-1.571-1.563z" fill="#FC6"/><path d="M23.571 29.938v-5.6c2.952.474 3.435 2.224 4.715 2.224.908 0 1.571-.757 1.571-1.562 0-1.452-2.17-3.418-6.286-3.826v-.861c0-.864-.704-1.564-1.571-1.564s-1.571.7-1.571 1.564v.875c-3.586.445-6.286 2.464-6.286 6.156 0 3.77 3.016 4.696 6.286 5.231v5.568c-2.713-.497-3.334-2.206-4.715-2.206-1.006 0-1.571.766-1.571 1.563 0 1.223 2.073 3.378 6.286 3.82v.867c0 .863.704 1.563 1.571 1.563s1.571-.7 1.571-1.563v-.864c4.435-.449 6.286-2.849 6.286-6.168 0-3.502-2.42-4.54-6.286-5.217zm-6.285-2.594c0-1.107.484-2.596 3.143-3.011v5.14c-1.817-.257-3.143-.591-3.143-2.13zm6.285 10.781v-5.04c2.215.46 3.143 1.088 3.143 2.07 0 1.42-1.112 2.575-3.143 2.97z" fill="#40795A"/></g></svg>