<svg width="51" height="46" xmlns="http://www.w3.org/2000/svg"><g fill="none" fill-rule="evenodd"><path d="M47.144 17.752c.674 0 1.97 3.018 2.274 4.01.212.675-.014 2.247-.756 2.88a7.94 7.94 0 01-.912.688c-.053.044-.12.04-.192.103-.116.101-.106.295-.091.563a2.965 2.965 0 01-.34 1.212 10.819 10.819 0 01-2.723 3.295c-1.651 1.355-2.914 2.157-5.328.977-1.056-.508-.955-2.249-.068-2.954a1.035 1.035 0 01-.025.186c-.142.53.258.886.304.844a.122.122 0 000-.169c-.152-.143-.101-.411-.063-.633a1.25 1.25 0 00.03-.249c.325-.556.69-1.09 1.089-1.595.663-.844 1.57-1.787 2.547-2.213.978-.427 1.267-.423 1.38-.423.158 0 .185-.046.312-.227.046-.066.108-.157.196-.277.676-.922.712-1.148.32-2.01-.227-.5-.144-1.01.065-1.214a.279.279 0 01.344-.05c.412.21 1.056 1.76 1.121 1.738a.12.12 0 00.076-.15c-.052-.154-.515-1.521-1.091-1.804-.102-.05 0-.063-.102-.05 0 0-.37-1.079.057-1.46.17-.15.423-.178.752-.083.211.063.676.899.845 1.213l.065.118.152.268c.34.558.623 1.147.845 1.76.176.528.047.933.104.965a.118.118 0 00.158-.053c0-.015.173-.355-.036-.988a10.23 10.23 0 00-.864-1.804l-.152-.266-.065-.116a5.47 5.47 0 00-.613-.998c0-.186-.133-.686-.027-.844a.494.494 0 01.412-.19z" fill="#FBC4B1"/><path d="M40.24 32.506c-.087.234-.66.6-.991.6a.465.465 0 01-.167-.032.762.762 0 01-.363-.302c-.1-.223-.14-.468-.118-.711l1.639.445z" fill="#EAF7FC"/><path d="M32.558 28.353a.118.118 0 00.061.154.264.264 0 01.127.178c.034.152-.6 1.342-.55 1.386a.118.118 0 00.075.025.12.12 0 00.093-.044c.492-.606.697-1.087.608-1.433a.477.477 0 00-.262-.331.118.118 0 00-.152.065zm-8.42-5.218a5.529 5.529 0 011.336-1.355 1.582 1.582 0 00-.129.294 3.871 3.871 0 00-.194 1.034 3.1 3.1 0 00.108 1.164c.141.356.344.684.6.969.01.065.319 1.791 1.761 2.627.614.34 1.308.512 2.01.496.827 0 2.045-.154 3.046-.715a2.79 2.79 0 00.465-.098v.022c.108.193.266.352.458.462l.053.031c.31.222.676.353 1.056.38h.047c.667-.019 1.208-.373 1.267-.768.031-.21.143-.338.682-.743.461-.333.84-.766 1.11-1.266.077-.128.157-.257.254-.405.368-.559.446-1.513.338-2.097.514.06.994.282 1.373.633.176.183.304.407.374.652.143.507.513.92 1.001 1.118-.852.808-1.6 1.72-2.224 2.714a.746.746 0 00-.41.23 4.97 4.97 0 00-.456.622l-.095.144c-.465.681-.015 2.798.12 3.376h-.658a.089.089 0 00-.04 0c-.024-.716-.09-2.79-.127-3.123-.049-.422-.577-1.005-.598-1.028a.12.12 0 00-.169 0c-.049.047.393.576.422 1.087.032.386.148 2.532.104 3.376a4.85 4.85 0 01-.465 2.171c-.876 1.809-2.805 2.644-3.225 2.834-.35.158-1.432.703-2.061.791-.63.09-2.222.186-3.124-.071a17.416 17.416 0 00-4.066-.53c-1.19.017-2.83-.458-3.63-2.038v-.013a2.475 2.475 0 01-.06-1.734c.025-.127.063-.25.113-.37.31-.597.825-1.221 2.61-2.561a4.62 4.62 0 00.697-.591h.984l1.11-1.055a.12.12 0 000-.169c-.047-.046-1.209.996-1.209.996h-.718a5.271 5.271 0 00.667-3.273c-.095-.717-.813-1.198-.844-1.217a.116.116 0 00-.165.033c-.036.055.688.604.77 1.216.17 1.266-.08 2.279-.561 2.98-.482.7-.689.698-1.267 1.11-.845.603-1.863 1.341-2.235 2.238h-.397c-.103-.422-.572-2.365-1.094-3.515-.017-.038-.034-.076-.055-.112-.17-.359-.348-.633-.52-.713h-.02c.521-.262 1.117-.545 1.516-.91a22.549 22.549 0 003.24-3.659c.372-.546.804-1.243 1.123-1.671zm7.465 5.948a.12.12 0 00-.152-.183l-1.701 1.41a.118.118 0 00-.015.167c.024.028 1.867-1.395 1.867-1.395h.002z" fill="#FFF"/><path d="M37.145 35.004c.18.606.32 1.536.349 3.165.038 2.305-.423 4.25-.978 5.214-.526.916-.577 1.013-.95 1.174-.286.12-1.753-.17-3.19-1.237a7.263 7.263 0 01-1.189-1.097 2.32 2.32 0 01-.247-.513h.028l1.284.06 2.234-1.252a.118.118 0 00.051-.148c-.198.032-2.323 1.076-2.323 1.076l-1.335.03h-.01s-7.919-.549-7.95-.194c-.032.354.395.145.718.365l.086.061c.232.165.438.363.613.587-.032.033-.167.13-.741.135-.906.002-1.81.078-2.704.228h-.027l-.021.016c-2.068 1.575-3.418.925-3.937.54a1.938 1.938 0 01-.256-.21 1.862 1.862 0 00-.02-.422.77.77 0 00-.259-.256 2.846 2.846 0 00-1.056-.451 4.737 4.737 0 01-1.82-.844 3.378 3.378 0 01-.668-.595c-.059-.091-.21-.549.347-1.334.659-.92 1.945-2.247 2.885-2.813l4.247.1v.012h.015c.183.448.498.83.904 1.093a5.376 5.376 0 002.817.903h.049c1.348.016 2.689.19 3.996.52a8.93 8.93 0 002.21.234c.347.004.695-.015 1.04-.055.594-.085 1.46-.56 2.112-.754.917-.274 3.111-1.829 3.614-3.177a.911.911 0 01.049-.112c0-.015 0-.034.017-.07l.012.047s0-.013.004-.026zM26.619 17.543c-.435-.21-2.042-1.107-2.374-2.45-.173-.706.032-1.439.613-2.18.34-.432.722-.664 1.134-.683.68-.034 1.392.382 1.478.435a1.78 1.78 0 00-.184-.167 2.374 2.374 0 00-.475-.312c-.067-.226-.346-1.298.159-2.127.32-.532.906-.867 1.734-.994 1.415-.211 1.97.044 2.188.3.13.157.184.364.15.565-.293.445-.48.95-.547 1.477v.021c.197-.459.43-.902.697-1.325.16-.257.37-.481.614-.66.617-.452 1.445-.57 2.456-.35.932.21 1.568.622 1.887 1.25.576 1.146-.076 2.62-.083 2.634l.055-.055c.315-.452.484-.99.484-1.54.706.262 1.26.824 1.512 1.534.355 1.125-.101 2.589-1.367 4.368-.3-.555-1.427-2.349-3.664-2.743-4.84-.92-6.228 2.314-6.467 3.002z" fill="#FFF"/><path d="M36.375 17.794l-.148.19c-.108-.228-.609-1.135-1.956-1.589.513.161.999.396 1.442.699.269.183.494.422.662.7zm-.94 9.338a.477.477 0 11-.93 0c0-.096.02-.19.057-.277a.467.467 0 01.41-.306.534.534 0 01.463.583z" fill="#232323"/><path d="M34.97 27.712a.597.597 0 000-1.163.467.467 0 00-.41.306l-.585-.021c.199-.633-.07-1.53-.082-1.576a.118.118 0 00-.114-.085l.361-.411c.317.224.693.35 1.081.36.151 0 .3-.023.444-.071.914-.302.986-.844 1.028-1.154v-.05c.062-.423-.05-1.012-.37-1.305a7.432 7.432 0 00-.654-.479l-.226-.158a.547.547 0 00.338-.093c.26-.211.28-.466.199-.895a4.744 4.744 0 00-.062-.272 1.605 1.605 0 00-.49-.844l.269-.04c.111.078.218.162.32.251l.165.3c.029.155.048.311.057.468v.08l.078.026c.188.056.37.13.543.223.159.123.406.633.524.937v.02l.015.014c.244.266.472.548.68.844.182.348.211 1.547-.211 2.203-.1.15-.18.28-.258.411a3.51 3.51 0 01-1.056 1.199c-.532.4-.724.57-.775.897-.023.154-.35.388-.697.502l-.112-.424z" fill="#FBC4B1"/><path d="M34.507 20.837a1.037 1.037 0 01-.014-.167 1.054 1.054 0 01.224-.744.319.319 0 01.21-.104c.229 0 .706.323.83.859.15.633.056.806-.12.95a.355.355 0 01-.188.038.953.953 0 01-.183-.02.57.57 0 00-.02-.632.61.61 0 00-.479-.34.309.309 0 00-.154.04.312.312 0 00-.106.12z" fill="#FFF"/><path d="M34.503 27.132a.534.534 0 00.467.58l.131.422c-.11.037-.226.059-.342.065a1.773 1.773 0 01-.976-.344l-.055-.031a.965.965 0 01-.361-.359c.12-.055.232-.126.334-.211a.874.874 0 00.278-.422l.586.021a.681.681 0 00-.062.279z" fill="#FBC4B1"/><path d="M35.766 20.681c-.126-.538-.602-.859-.83-.859a.319.319 0 00-.211.104c-.167.21-.247.477-.224.744 0 .056.006.112.015.167a.312.312 0 01.11-.114c.047-.026.1-.04.154-.04a.61.61 0 01.48.34.57.57 0 01.018.633c.06.012.122.018.184.019a.355.355 0 00.188-.038c.17-.15.275-.315.116-.956zm.028 1.133c-.1.067-.218.1-.338.093l.226.158c.227.148.445.308.655.48.32.293.422.89.37 1.303v.05c-.045.32-.115.845-1.03 1.155a1.401 1.401 0 01-.443.072 1.978 1.978 0 01-1.081-.361 2.674 2.674 0 01-.28-.211c-.191-.175-.66-.762-.68-.787a.12.12 0 01.02-.169c.053-.038.633.616.821.779.133.12.824.707 1.57.462a1.32 1.32 0 00.878-1.01c.05-.353-.05-.872-.298-1.096-.118-.108-.365-.276-.633-.46-.668-.462-1.147-.806-1.242-1.055a1.562 1.562 0 01-.021-.844c.027-.22.12-.427.268-.593a.54.54 0 01.389-.175c.19.014.37.095.507.228.247.224.418.518.49.844a6.4 6.4 0 01.06.272c.073.399.051.652-.208.865z" fill="#232323"/><path d="M32.917 21.377c0 .355.165.633.387.633a.264.264 0 01-.186.076c-.575 0-1.016-.574-1.016-1.226 0-.367.137-1.28.756-1.28.291 0 .646.622.686 1.266a.304.304 0 00-.228-.108c-.228.006-.399.279-.399.64z" fill="#FFF"/><path d="M32.617 28.507a.118.118 0 01.091-.21.474.474 0 01.262.33c.089.347-.116.828-.608 1.433a.123.123 0 01-.093.045.118.118 0 01-.074-.026c-.053-.044.583-1.234.549-1.386a.264.264 0 00-.127-.186zm.687-6.495c-.212-.01-.387-.278-.387-.633 0-.354.171-.633.4-.633.087.002.17.04.227.108-.04-.648-.397-1.266-.686-1.266-.621 0-.756.912-.756 1.28 0 .653.441 1.227 1.016 1.227a.264.264 0 00.186-.083zm-.186.313c-.7 0-1.316-.682-1.316-1.463 0-.928.338-1.462.925-1.462.463 0 1.056.764 1.056 1.576 0 .688-.14 1.04-.319 1.21.284.134.518.356.668.633a.118.118 0 01-.045.162.12.12 0 01-.059.017.118.118 0 01-.103-.061 2.482 2.482 0 00-.634-.657.51.51 0 01-.173.034v.01zm-1.517 6.758s-1.843 1.423-1.869 1.395a.118.118 0 01.015-.167l1.702-1.411a.12.12 0 01.152.183z" fill="#232323"/><path d="M27.743 27.661a3.539 3.539 0 01-1.561-2.08c.295.29.633.533 1 .721.149.074.297.152.444.23a8.054 8.054 0 002.57.952l.13.019c.553.102 1.112.162 1.674.181-1.763.595-3.195.59-4.257-.023z" fill="#F9AD99"/><path d="M27.66 18.989l-.469-.718c.04-.181.317-1.038 1.941-1.728l.06-.057c-1.405.597-2.005 1.175-2.153 1.549l-.236-.363c.13-.445 1.3-3.861 6.24-2.927 2.307.422 3.38 2.374 3.566 2.73-.074.102-.152.212-.234.313a2.252 2.252 0 00-.662-.694 5.466 5.466 0 00-1.432-.699c1.346.456 1.846 1.364 1.956 1.59-.07.088-.141.174-.211.263a3.1 3.1 0 00-.327-.3c-.62-.466-1.886-1.12-4.267-1.03-2.62.102-3.408 1.385-3.643 2.062l-.129.009z" fill="#EAF7FC"/><path d="M27.607 19.305a.518.518 0 01.098.153l-.098-.153zm-1.82.967c.019-.363.488-.766.705-.844a1.08 1.08 0 01.727-.057c.336.128.211.47.135.675a.152.152 0 01-.171.088c-.063-.02.158-.466-.049-.544a1.167 1.167 0 00-.665.053.74.74 0 00-.44.527.698.698 0 00.134.551c.1.1.237.152.378.144.053 0 .061-.015.063-.022.055-.09-.059-.422-.196-.666a.12.12 0 01.046-.163c.057-.03.51.69.357.952a.287.287 0 01-.268.14.727.727 0 01-.55-.212.694.694 0 01-.206-.622z" fill="#232323"/><path d="M33.787 20.976c0-.812-.597-1.576-1.056-1.576-.587 0-.925.532-.925 1.462 0 .78.615 1.463 1.316 1.463a.51.51 0 00.184-.032c.25.178.465.4.633.656.021.038.06.062.104.062a.12.12 0 00.059-.017.118.118 0 00.044-.163 1.478 1.478 0 00-.667-.633c.169-.181.308-.532.308-1.222zm-8-.704a.694.694 0 00.211.607.727.727 0 00.55.211.287.287 0 00.267-.139c.153-.26-.302-.981-.356-.952a.12.12 0 00-.047.163c.14.249.251.576.196.667 0 0-.01.02-.063.02a.494.494 0 01-.378-.143.698.698 0 01-.133-.55.74.74 0 01.44-.528c.211-.082.442-.1.665-.053.21.078-.015.522.048.545a.152.152 0 00.171-.089c.07-.21.211-.549-.135-.675a1.08 1.08 0 00-.726.057c-.229.09-.695.494-.71.859zm-.228.51c-.1-.152-.317-.593.462-1.238.634-.522.997-.524 1.42-.353a.475.475 0 01.17.114l.098.152a.934.934 0 01.059.456l-.046.295 3.123-1.205a6.422 6.422 0 00-.133 1.043l-.015.302 1.29-1.237.533-.18a57.817 57.817 0 011.658-.037h.325a1.632 1.632 0 00-.12.21l-.11.212 1.267-.211.17.31a1.248 1.248 0 01-.037.211l-.023.082.07.049-.268.04a.818.818 0 00-.507-.228.54.54 0 00-.389.175 1.095 1.095 0 00-.268.593c-.07.278-.063.57.021.844.095.253.574.597 1.242 1.055.262.182.509.35.633.46.248.226.347.743.298 1.095a1.32 1.32 0 01-.878 1.011c-.746.245-1.437-.34-1.57-.462-.18-.163-.768-.819-.821-.779a.12.12 0 00-.02.17c.02.022.489.609.68.786.09.076.182.147.28.211l-.361.412a.097.097 0 00-.034 0c-.064.019.234 1.557-.195 1.899a1.403 1.403 0 01-.441.234c-.811.272-2.017.076-2.746-.044l-.13-.021a7.741 7.741 0 01-2.508-.885c-.152-.078-.302-.156-.45-.23a3.698 3.698 0 01-1.69-1.865 3.538 3.538 0 01-.21-1.12c-.006-.33.04-.66.135-.975a.633.633 0 01.243-.346c.027-.017.086-.055.145-.087.199-.112.391-.21.376-.375 0-.057-.04-.133-.175-.178a1.726 1.726 0 01-.557-.365h.004z" fill="#FBC4B1"/><path d="M17.96 33.183a4.118 4.118 0 001.28-.53c.001.01.005.02.01.028 0 .013.594 1.319.41 1.75-.137.322-.247.573-.401.632a.423.423 0 01-.343-.059c-.297-.158-.823-.709-.956-1.82z" fill="#EAF7FC"/><path d="M18.274 29.638c.182.12.323.294.404.496l.048.104c.32.728.482 1.835.545 2.072.074.27-1.094.496-1.801.584-1.958.25-4.436-1.43-4.936-1.78l.891-.99c.396.134.81.205 1.227.21.29-.009.578-.044.862-.105l.101-.019c1.09-.207 2.621-.595 2.66-.572z" fill="#FBC4B1"/><path d="M33.044 14.752c-4.934-.937-6.112 2.479-6.241 2.92l.236.359c.148-.374.748-.952 2.152-1.55l-.059.058c-1.624.69-1.9 1.547-1.94 1.728l.468.717h.13c.234-.677 1.021-1.96 3.642-2.061 2.38-.095 3.648.56 4.246 1.015.084.067.154.129.21.181.05.047.087.085.117.119.072-.09.144-.176.211-.264l.148-.19c.082-.104.16-.211.234-.312-.169-.346-1.248-2.307-3.554-2.72zm-2.002-4.813a.702.702 0 00-.15-.566c-.212-.255-.771-.513-2.188-.3-.828.13-1.413.463-1.734.994-.505.83-.226 1.9-.159 2.127a2.374 2.374 0 01.66.47c-.087-.054-.8-.47-1.48-.434-.411.02-.793.251-1.133.684-.581.74-.788 1.477-.613 2.18.332 1.34 1.939 2.228 2.374 2.45.239-.686 1.628-3.923 6.465-3.003 2.237.4 3.367 2.194 3.664 2.743 1.268-1.779 1.722-3.243 1.367-4.368a2.544 2.544 0 00-1.512-1.534c0 .55-.169 1.088-.484 1.54l-.055.055c0-.015.659-1.488.082-2.633-.318-.633-.954-1.055-1.886-1.252-1.011-.21-1.837-.1-2.456.35a2.395 2.395 0 00-.612.665c-.267.423-.5.866-.697 1.325v-.02a3.497 3.497 0 01.545-1.476l.002.003zm-8.36 14.327c.366-.521.714-1.015 1.035-1.45a5.599 5.599 0 011.5-1.477c.123-.075.254-.137.39-.185h.017a2.133 2.133 0 01-.243-.211l-.114-.131s-.397-.633.6-1.454c.117-.098.24-.189.37-.27.327-.23.743-.291 1.123-.167l-.75-1.146c-.28-.13-2.185-1.072-2.572-2.63-.19-.775.028-1.57.655-2.368.38-.486.815-.745 1.295-.766.194-.008.39.02.574.082-.1-.422-.247-1.357.226-2.14.357-.588.993-.96 1.888-1.093 1.219-.185 2.021-.06 2.387.374a.77.77 0 01.181.44c.13-.15.277-.286.438-.404.67-.49 1.556-.62 2.63-.389 1 .211 1.689.676 2.033 1.37.14.282.225.587.251.9.296.1 1.363.533 1.732 1.704.446 1.413-.302 3.308-2.224 5.632l-.015.019c.07.201.119.409.148.62v.776l.057.06-.255.059a3.698 3.698 0 00-.326-.252l-.07-.048.024-.082c.018-.07.03-.14.036-.211l-.17-.31-1.266.21.11-.21s.048-.09.12-.212h-.325c-.446 0-1.073.02-1.658.038l-.533.18-1.29 1.236.015-.301c.016-.351.06-.7.133-1.043l-3.122 1.188.047-.295a.934.934 0 00-.06-.456.475.475 0 00-.268-.266c-.422-.17-.792-.169-1.419.352-.777.646-.562 1.087-.462 1.24.16.154.35.277.557.36.135.046.17.12.175.177.015.156-.175.262-.376.376-.059.031-.116.07-.145.086a.633.633 0 00-.243.346l-.178-.059c.033-.102.077-.2.13-.293a5.52 5.52 0 00-1.338 1.355c-.319.422-.75 1.126-1.115 1.648a22.549 22.549 0 01-3.24 3.658c-.4.366-.994.648-1.516.91h.021c.171.089.349.352.52.713l-.13.061a1.068 1.068 0 00-.403-.496c-.038-.02-1.565.366-2.659.57l-.036-.196a9.683 9.683 0 003.046-1.123c.32-.187.62-.405.898-.652 1.047-.937 2.169-2.53 3.16-3.954z" fill="#232323"/><path d="M7.697 28.172c.252.327.564.603.919.814-.384-.01-1.863-.093-2.254-.723-.445-.72.017-2.039.528-2.368a.702.702 0 01.526-.116.33.33 0 01.212.173c.107.211.063.411 0 .696a2.443 2.443 0 00.07 1.524z" fill="#FBC4B1"/><path d="M6.762 25.69c-.49.315-.928 1.366-.782 2.193a.116.116 0 00-.067-.032c-.013 0-.332-.044-.621-.54-.235-.403-.144-.844-.055-1.285.025-.12.053-.247.07-.37.071-.493 1.13-1.303 1.267-1.356a.422.422 0 01.412.308c.086.296.115.606.084.914a.072.072 0 000 .035 1.116 1.116 0 00-.308.133z" fill="#FBC4B1"/><path d="M5.763 23.86c.287.362.21.539.21.539a.1.1 0 00-.016.061v.01c-.38.324-.824.788-.879 1.16a7.12 7.12 0 01-.065.354 4.408 4.408 0 00-.095.597.882.882 0 01-.463-.81 3.945 3.945 0 01.397-1.748.875.875 0 01.583-.325.393.393 0 01.328.163z" fill="#FBC4B1"/><path d="M4.629 23.91c-.186-.296-1.538-2.467-1.806-3.546-.269-1.078-.157-1.542-.211-1.586a.12.12 0 00-.127-.02.074.074 0 00-.026.02c-.033.036-.31.384-.059 1.492l-.019-.011v.019a1.771 1.771 0 00-.897-.19c-.65.021-.995-.648-1.082-.844.357-.494 2.862-3.965 3.479-5.165.206-.436.372-.888.498-1.353.32-1.055.932-2.089 2.171-3.431 1.24-1.342 2.974-3.036 4.284-4.073.177-.139.682-.472 1.39-.896 1.932-1.155 5.385-2.995 7.65-3.324.557-.08 1.782-.356 2.409-.422 3.029-.329 6.718-.804 12.039 1.781 7.081 3.444 10.79 8.512 12.374 11.228l.04.072.083-.015c.02 0 2.15-.388 2.956 0 .09.04.091.082.091.1.015.343-1.142 1.183-2.017 1.702l-.095.06-.084.05.055.101s.32.633-.068 2.135l-.01-.01a.063.063 0 010 .019.803.803 0 00-.51-.268h-.019a.867.867 0 00-.422.112.572.572 0 00-.163.16.88.88 0 00-.074.682l-.019-.01v.018a1.057 1.057 0 00-.953.021.893.893 0 00-.088.07c-.49.434-.359 1.534-.333 1.717a.475.475 0 00-.074.062c-.264.257-.397.863-.117 1.477.087.168.158.344.212.525-.426.532-.94.987-1.519 1.346a3.31 3.31 0 01-1.109.462c-1.613-.194-2.342-.673-2.931-1.055a5.915 5.915 0 00-.53-.322c-.634-.323-1.341-1.224-1.5-1.431.075-.327.097-.664.063-.998-.082-.52-1.155-.412-1.267-.401l-.057-.06v-.784a3.374 3.374 0 00-.148-.62l.015-.02c1.922-2.32 2.67-4.22 2.224-5.631-.37-1.17-1.436-1.602-1.732-1.703a2.51 2.51 0 00-.249-.901c-.348-.692-1.033-1.152-2.034-1.37-1.073-.232-1.96-.1-2.63.389-.16.118-.307.254-.436.405a.772.772 0 00-.18-.443c-.365-.433-1.168-.56-2.387-.374-.895.135-1.53.504-1.888 1.093-.473.78-.325 1.724-.226 2.14a1.598 1.598 0 00-.574-.082c-.48.02-.915.28-1.295.765-.634.798-.845 1.592-.655 2.368.389 1.56 2.292 2.5 2.573 2.631l.75 1.146a1.268 1.268 0 00-1.124.167 3.297 3.297 0 00-.376.274c-.997.83-.604 1.446-.6 1.454l.114.13c.076.077.157.148.243.212h-.017c-.136.048-.267.11-.39.185a5.599 5.599 0 00-1.5 1.478c-.321.432-.667.926-1.035 1.45-.99 1.413-2.112 3.017-3.168 3.968a5.573 5.573 0 01-.898.652 9.721 9.721 0 01-3.045 1.123l-.1.019a4.342 4.342 0 01-.832.074 3.856 3.856 0 01-1.134-.184 36.364 36.364 0 011.67-1.576c.052-.044.077-.156.014-.169a.66.66 0 00-.397.133c-.942.574-2.915 2.743-3.906 4.387l-.012.017c-.235-.735-.877-2.65-1.377-3.364h.023v-.012a.846.846 0 00.141.012.966.966 0 00.476-.13c.062-.035.122-.075.177-.12.05-.04.076-.193.017-.168-.566.243-.845.17-.845.163-.057-.023-.19.017-.211 0l-.07-.038c-.38-.211-.957-.422-1.286-.922 0 0-.137-1.055-.057-1.424a1.2 1.2 0 00-.021-.855.574.574 0 00-.366-.295.723.723 0 00-.181-.022 2.633 2.633 0 00-.102-1.004c-.145-.354-.498-.523-.718-.439l-.036.02c-.05.029-.126.08-.21.147l-.016.01a1.082 1.082 0 00-.261-.546.634.634 0 00-.528-.251.936.936 0 00-.457.147c-.115.07-.217.161-.3.268v.013l-.035.006z" fill="#E65A3F"/><path d="M17.96 33.183c.135 1.114.659 1.663.965 1.828.1.067.225.089.342.059.154-.055.264-.306.401-.633.184-.422-.403-1.737-.41-1.75a.076.076 0 01-.018-.033 4.118 4.118 0 01-1.28.53zm21.289-.076c.332 0 .904-.365.99-.599l-1.64-.443c-.022.243.019.488.118.711a.762.762 0 00.363.302c.054.02.111.03.169.03zm7.483-15.175c-.104.154.027.654.027.844.24.31.445.644.613.998l.065.116.152.266c.347.571.636 1.176.864 1.804.211.633.047.972.036.987a.118.118 0 01-.158.053c-.06-.03.072-.435-.104-.964a9.806 9.806 0 00-.845-1.76l-.152-.283-.065-.118c-.173-.314-.634-1.15-.845-1.213-.33-.095-.583-.068-.752.082-.422.382-.057 1.45-.057 1.46 0 .01 0 0 0 0 .097-.013 0 0 .102.05.576.281 1.04 1.65 1.091 1.805a.12.12 0 01-.076.15c-.063.02-.71-1.539-1.121-1.739a.279.279 0 00-.344.05c-.211.212-.292.714-.066 1.214.393.863.357 1.089-.319 2.01-.088.121-.152.212-.196.277-.127.182-.154.226-.313.228-.12 0-.407 0-1.379.422-.971.422-1.884 1.372-2.547 2.214a13.94 13.94 0 00-1.09 1.595 1.25 1.25 0 01-.03.249c-.037.21-.088.485.064.633a.122.122 0 010 .169c-.046.048-.444-.308-.304-.844.014-.061.022-.123.025-.186-.887.709-.98 2.45.068 2.954 2.412 1.18 3.677.38 5.328-.977a10.819 10.819 0 002.723-3.296c.199-.375.315-.788.34-1.211-.015-.268-.025-.462.09-.563.073-.064.142-.062.193-.104a7.94 7.94 0 00.912-.688c.742-.633.966-2.205.756-2.88-.304-.987-1.598-4.01-2.274-4.01a.494.494 0 00-.412.203v.003zM26.184 25.58c.237.866.795 1.61 1.56 2.08 1.057.612 2.493.62 4.26.021a11.486 11.486 0 01-1.674-.181l-.129-.02a8.054 8.054 0 01-2.572-.947c-.15-.078-.298-.156-.444-.23a4.089 4.089 0 01-1.003-.725l.002.002zm6.197 17.724c1.434 1.068 2.902 1.357 3.189 1.237.374-.16.422-.258.95-1.173.556-.967 1.016-2.91.978-5.214-.03-1.623-.169-2.551-.348-3.165v.03l-.013-.047c0 .033-.013.055-.017.07a.911.911 0 00-.049.111c-.502 1.346-2.697 2.902-3.613 3.178-.655.194-1.519.669-2.112.753a8.06 8.06 0 01-1.041.055 8.933 8.933 0 01-2.21-.234 17.224 17.224 0 00-3.996-.52h-.048a5.377 5.377 0 01-2.83-.88 2.37 2.37 0 01-.904-1.092h-.021V36.4l-4.248-.099c-.94.566-2.226 1.9-2.885 2.813-.566.787-.405 1.243-.346 1.333.195.227.42.427.667.595.54.408 1.16.696 1.82.844.38.078.74.231 1.057.452a.77.77 0 01.258.255c.023.14.03.281.02.422.08.078.165.148.256.211.518.386 1.87 1.036 3.937-.54l.021-.017h.028c.893-.15 1.797-.225 2.703-.228.575 0 .71-.099.741-.135a2.975 2.975 0 00-.612-.586l-.087-.061c-.323-.211-.747-.011-.718-.366.03-.354 7.95.195 7.95.195h.01l1.335-.03s2.127-1.044 2.323-1.076a.118.118 0 01-.05.148l-2.235 1.25-1.284-.058a.108.108 0 01-.027 0c.06.18.144.352.247.513.36.403.763.764 1.204 1.078v-.009zM6.89 25.901c-.512.33-.976 1.648-.529 2.368.393.633 1.872.713 2.254.724a3.279 3.279 0 01-.919-.815 2.443 2.443 0 01-.061-1.521c.061-.285.106-.492 0-.697a.33.33 0 00-.211-.173.702.702 0 00-.535.114zm-.926-1.496s.085-.175-.21-.538a.393.393 0 00-.334-.162.875.875 0 00-.583.325 3.945 3.945 0 00-.397 1.747.882.882 0 00.462.81c.018-.2.05-.4.095-.597.023-.122.049-.24.066-.354.054-.374.498-.845.878-1.159v-.01a.1.1 0 01.023-.068v.006zm.013 3.488c-.146-.827.294-1.878.782-2.192.092-.06.193-.105.3-.135a.072.072 0 010-.036c.03-.307.002-.617-.085-.914a.422.422 0 00-.412-.308c-.129.055-1.185.863-1.267 1.357a5.237 5.237 0 01-.07.37c-.088.432-.18.881.055 1.284.287.496.606.538.621.54.028 0 .055.01.076.028v.006zm.59-18.604c-1.24 1.34-1.853 2.382-2.172 3.43a8.174 8.174 0 01-.498 1.353c-.617 1.2-3.122 4.672-3.479 5.166.087.21.423.871 1.082.844.31-.017.62.049.897.19v-.02l.02.011c-.252-1.108.022-1.456.058-1.492a.074.074 0 01.026-.019.12.12 0 01.126.02c.049.046-.07.504.212 1.586.28 1.083 1.62 3.25 1.805 3.545v-.023c.083-.107.185-.198.3-.268a.936.936 0 01.457-.148.634.634 0 01.528.251c.137.154.228.343.261.547l.015-.01c.091-.068.167-.117.211-.148l.036-.02c.212-.084.573.085.718.44.099.325.133.666.102 1.004.061 0 .122.006.181.021.159.042.292.15.366.295a1.2 1.2 0 01.02.855c-.08.367.052 1.416.058 1.424.33.509.906.716 1.286.922l.07.038c.019.01.154-.03.211 0 .013 0 .287.08.845-.162.059-.025.032.127-.017.167a1.179 1.179 0 01-.177.12.966.966 0 01-.476.13.846.846 0 01-.141-.012v.013h-.023c.5.713 1.142 2.629 1.377 3.363l.012-.017c.99-1.64 2.957-3.813 3.906-4.387a.66.66 0 01.397-.132c.063.012.035.126-.013.168-.015.013-.773.676-1.67 1.577.366.117.748.179 1.133.183.28.002.558-.022.833-.074l.099-.019.036.197-.102.019a4.89 4.89 0 01-.861.105 3.997 3.997 0 01-1.227-.211l-.892.99c.497.348 2.978 2.03 4.936 1.78.708-.088 1.876-.314 1.802-.584-.064-.236-.226-1.344-.545-2.072l-.049-.103.129-.062c.019.036.036.074.055.112.522 1.15.99 3.094 1.094 3.516h.397c.374-.897 1.398-1.636 2.235-2.24.57-.41.798-.436 1.267-1.11.469-.672.73-1.717.562-2.979-.083-.61-.81-1.16-.771-1.215a.116.116 0 01.164-.034c.03.02.748.5.845 1.218a5.271 5.271 0 01-.667 3.273h.718s1.162-1.043 1.208-.996a.12.12 0 010 .168l-1.109 1.055h-.984a4.62 4.62 0 01-.697.591c-1.785 1.34-2.3 1.965-2.61 2.562-.05.119-.088.243-.112.37-.19.566-.17 1.182.059 1.734v.012c.8 1.58 2.44 2.056 3.63 2.039 1.372.016 2.736.193 4.066.53.902.257 2.534.158 3.124.071.589-.086 1.71-.633 2.061-.791.422-.19 2.35-1.026 3.225-2.834.33-.675.5-1.416.494-2.167.045-.844-.071-2.982-.103-3.376-.038-.51-.48-1.043-.423-1.087a.12.12 0 01.17 0c.02.023.55.601.597 1.028.036.333.102 2.407.127 3.123a.089.089 0 01.04 0h.659c-.137-.587-.585-2.703-.12-3.377l.095-.143a4.97 4.97 0 01.456-.623.746.746 0 01.41-.23 13.967 13.967 0 012.224-2.713 1.71 1.71 0 01-1.002-1.118 1.559 1.559 0 00-.373-.652 2.436 2.436 0 00-1.373-.634c.107.585.03 1.54-.338 2.098a9.701 9.701 0 00-.254.405c-.27.5-.65.933-1.11 1.266-.541.405-.651.523-.683.743-.061.397-.6.749-1.267.768h-.046a2.073 2.073 0 01-1.056-.38l-.053-.032a1.212 1.212 0 01-.459-.462v-.02a2.79 2.79 0 01-.464.096c-1.001.562-2.22.716-3.046.716a3.959 3.959 0 01-2.01-.496c-1.445-.844-1.751-2.562-1.762-2.627a3.262 3.262 0 01-.6-.969 3.1 3.1 0 01-.107-1.165c.017-.351.082-.7.194-1.034l.177.06a3.21 3.21 0 00-.135.974c.01.383.08.761.211 1.12.328.8.926 1.46 1.69 1.866.15.074.3.152.45.23a7.74 7.74 0 002.496.927l.131.02c.723.119 1.929.317 2.746.045.16-.051.31-.13.441-.234.423-.34.133-1.878.195-1.9a.097.097 0 01.033 0c.053 0 .1.035.114.085.013.049.281.945.083 1.576a.874.874 0 01-.279.422 1.479 1.479 0 01-.334.211c.086.15.211.274.361.359l.055.032c.284.209.624.328.976.344a1.32 1.32 0 00.342-.066c.347-.114.674-.348.697-.502.053-.327.243-.496.775-.897.44-.313.801-.723 1.056-1.198.079-.131.159-.262.258-.412.433-.656.403-1.855.211-2.203a8.408 8.408 0 00-.68-.844l-.015-.015v-.019c-.118-.297-.365-.814-.523-.936a2.94 2.94 0 00-.543-.224l-.078-.025v-.08a3.982 3.982 0 00-.057-.469l-.165-.3.255-.059c.11-.01 1.183-.118 1.268.401a3.1 3.1 0 01-.064.998c.159.211.873 1.108 1.5 1.43.182.1.36.207.53.324.587.384 1.318.86 2.932 1.055.394-.085.77-.242 1.108-.462a5.971 5.971 0 001.519-1.347 2.974 2.974 0 00-.211-.525c-.28-.616-.148-1.224.116-1.477a.475.475 0 01.074-.061c-.026-.184-.157-1.283.333-1.718a.893.893 0 01.09-.07 1.057 1.057 0 01.952-.02v-.02l.019.011a.88.88 0 01.074-.682.572.572 0 01.162-.16.867.867 0 01.423-.112h.017a.803.803 0 01.509.268.063.063 0 000-.019l.01.01c.389-1.508.072-2.13.068-2.135l-.055-.1.084-.052.095-.059c.877-.487 2.034-1.331 2.013-1.681 0-.017 0-.06-.09-.1-.812-.38-2.94 0-2.958 0l-.082.015-.04-.072c-1.582-2.715-5.29-7.784-12.372-11.227C29.008-.232 25.318.24 22.283.57c-.634.07-1.852.346-2.41.422-2.27.325-5.721 2.165-7.656 3.323-.707.422-1.212.758-1.39.897-1.303 1.047-3.035 2.754-4.26 4.077zM4.214 25.775c-.011-.595.272-1.688.257-1.707-.067-.095-1.586-2.27-1.983-3.505a1.735 1.735 0 01-.386-.171 1.133 1.133 0 00-.583-.078c-.938.025-1.32-1.02-1.335-1.055l-.021-.061.036-.051c.027-.038 2.857-3.94 3.497-5.187.2-.422.362-.862.484-1.314.327-1.072.695-2.29 1.975-3.67 1.24-1.34 7.421-7.944 14.26-8.533.555-.048 1.147-.095 1.774-.162 3.054-.334 6.921-.857 12.296 1.757 7.078 3.444 10.911 8.578 12.529 11.334.422-.072 2.07-.323 2.866.048.13.048.22.168.228.306.025.587-1.611 1.608-2.129 1.914.089.251.336 1.175 0 2.5.875 1.138 1.78 3.455 1.863 3.72.226.74.175 2.144-.896 2.986-.726.57-.965.652-1.106.703a.277.277 0 00-.114.061 1.13 1.13 0 000 .367 2.35 2.35 0 01-.16 1.207c-.35.707-1.435 2.222-2.99 3.501-.962.79-1.947 1.595-3.349 1.595h-.118c-.085.154-.349.513-1.14 1.002-.224.148-.483.23-.75.237a1.268 1.268 0 01-.976-.526c-.015-.023-.771.053-.771.053.003.311-.021.622-.072.929.423 1.26.638 2.58.636 3.91.04 2.371-.528 4.642-1.111 5.659-.564.981-.845 1.14-1.25 1.312-.406.173-2.149-.103-3.828-1.616-.449.395-.918.768-1.404 1.116a.904.904 0 01-.499.182.845.845 0 01-.633-.412 1.477 1.477 0 00-.08-.099c-.12-.141-.14-.433-.159-.806 0-.342-.052-.683-.156-1.009a.488.488 0 00-.254-.301.211.211 0 00-.147.014l-.74.39-.568-.647a.12.12 0 01-.025-.06l-3.343-.08c.724.366 1.214.973 1.303 2.37v.106l-3.202.553-.036-.083s-.194-.405-.486-.449a.577.577 0 00-.49.234c-.671.726-1.69.96-2.228 1.087 0 0-2.36.525-3.111.525a33.121 33.121 0 01-3.88-.314h-.025l-.021-.015a.677.677 0 01-.254-.882l.049-.093.097.032s.283.08.97-.114a6.113 6.113 0 001.072-.483c.499-.26.97-.505 1.34-.53a4.79 4.79 0 01.44-.01.977.977 0 00.706-.18.55.55 0 00.167-.612c-.089-.238-.338-.348-.705-.308a.788.788 0 01-.104 0c-1.056 0-2.769-1.637-2.84-1.709l-.015-.015v-.017c-.013-.027-.32-.68.388-1.664.68-.95 2.015-2.322 2.987-2.896l.027-.016 4.195-.013a5.347 5.347 0 01-.152-.72h-.86a.771.771 0 01-.357-.1 2.502 2.502 0 01-1.267-1.93h-.188c-1.95 0-4.125-1.407-4.76-1.85-.533.614-1.758 1.84-1.758 1.84l-.082-.27c-.412-1.332-1.73-3.661-1.817-3.71a.788.788 0 00-.223-.086c-.136 0-2.036-.015-2.535-.844-.07-.11-.211-.294-.26-.294h-.01c-.017 0-.45-.044-.805-.656a1.324 1.324 0 01-.175-.597h-.02a1.093 1.093 0 01-.703-1.038l.003-.002z" fill="#232323"/><path d="M38.432 30.727s5.28.33 7.502-1.74c0 0-2.85 3.308-4.759 3.061-1.91-.247-2.424-.66-2.743-1.32zm-12.248-9.204s1.675 5.697 7.365 5.554c0 0-2.307 1.557-6.945-1.454 0 0-1.719-1.3-1.214-2.832 0 0-.057-1.173.794-1.268zm-13.069 8.955s3.886 1.534 5.947.8c0 0-.25-1.34-.777-1.642 0 0-1.715.433-2.372.515-.657.082-1.69.32-2.48-.027l-.318.354z" fill="#F9AD99"/><path d="M26.891 17.813s3.43-6.005 9.606-.177l.112-.152s-1.38-3.557-6.52-2.743c0 0-2.397.285-3.286 2.954l.088.118z" fill="#231F20" opacity=".1"/><path d="M21.185 37.27a9.215 9.215 0 00-1.39.157c-.47.086-.932.204-1.385.352a7.858 7.858 0 00-1.479.669 6.06 6.06 0 00-.978.736c-.093.091-.188.186-.276.279a5.41 5.41 0 00-.47.574 4.487 4.487 0 00-.344.57c-.1.179-.169.358-.238.512-.07.154-.11.298-.146.422l-.108.37h-.02s.016-.14.054-.384c.02-.123.061-.268.101-.435.026-.082.058-.169.087-.262.03-.098.068-.193.114-.285.094-.21.203-.414.328-.61.14-.216.3-.42.477-.61.095-.094.188-.195.293-.284a3.59 3.59 0 01.324-.264c.227-.17.465-.324.713-.462a8.007 8.007 0 011.536-.633 8.85 8.85 0 01.74-.188c.236-.046.462-.088.67-.12.465-.07.934-.105 1.403-.103h-.006zm2.279.99s-.566.11-1.394.346a17.232 17.232 0 00-2.942 1.114c-.252.133-.503.27-.737.422a6.906 6.906 0 00-.664.475c-.107.078-.198.169-.295.251-.097.083-.178.175-.262.262a3.094 3.094 0 00-.402.54 2.404 2.404 0 00-.23.52c-.02.081-.046.157-.059.231l-.027.211a2.074 2.074 0 000 .287v.104h-.021l-.015-.104a1.798 1.798 0 01-.028-.293v-.211c0-.078.026-.158.04-.249a2.22 2.22 0 01.199-.572 3.28 3.28 0 01.395-.597c.173-.2.365-.385.572-.55.222-.175.455-.333.7-.473.246-.148.506-.279.766-.403a16.36 16.36 0 013-1.032c.844-.211 1.408-.294 1.408-.294l-.004.015zm4.184.448c-.594.072-1.183.174-1.766.305a17.17 17.17 0 00-3.72 1.237 10.1 10.1 0 00-.924.513 7.95 7.95 0 00-.826.597 5.897 5.897 0 00-.69.648 4.5 4.5 0 00-.512.673 4.14 4.14 0 00-.323.633 1.76 1.76 0 00-.102.283l-.073.244c-.038.15-.053.273-.072.355l-.026.126h-.025v-.128c0-.085 0-.211.028-.367a3.36 3.36 0 01.124-.562c.071-.24.168-.473.287-.694a4.729 4.729 0 01.833-1.09c.12-.12.245-.233.378-.338a7.09 7.09 0 01.87-.595 12.242 12.242 0 011.966-.895c.336-.118.667-.224.993-.319a22.03 22.03 0 011.797-.422c.59-.11 1.183-.191 1.78-.242l.003.038zm7.799-1.834c.154.388.275.79.361 1.198a7.59 7.59 0 01.12 2.754c-.035.25-.086.499-.153.743-.032.12-.074.238-.112.356l-.135.34a5.24 5.24 0 01-.334.606l-.186.26c-.063.082-.129.158-.188.231a4.657 4.657 0 01-.363.374c-.116.101-.211.192-.306.257-.18.131-.283.2-.283.2l-.017-.02s.084-.093.236-.247c.076-.078.159-.182.26-.291.101-.11.2-.25.308-.4.053-.075.11-.151.165-.233l.158-.262c.049-.093.1-.188.155-.283.055-.095.095-.2.145-.302l.138-.318c.038-.112.084-.211.12-.336a5.69 5.69 0 00.184-.707c.09-.474.129-.956.116-1.439a8.854 8.854 0 00-.12-1.266 7.335 7.335 0 00-.296-1.205l.027-.01zm-2.281 4.304c.021.12.021.242 0 .361-.04.267-.137.522-.283.75a2.235 2.235 0 01-.249.352c-.087.09-.186.17-.293.234a1.198 1.198 0 01-.24.118.881.881 0 01-.096.034l-.015-.021a.987.987 0 01.057-.085c.034-.054.095-.118.158-.21.064-.093.146-.17.233-.264.097-.09.19-.185.276-.285a2.106 2.106 0 00.364-.65c.036-.11.056-.223.059-.338l.03.004zm-.162-2.916a4.318 4.318 0 01.714 1.205c.066.164.116.333.15.507.011.081.015.164.012.246-.002.071-.01.142-.02.211a3.183 3.183 0 01-.047.182.801.801 0 01-.06.133 1.177 1.177 0 01-.059.11h-.025v-.258c0-.053 0-.11-.01-.17a1.843 1.843 0 01-.022-.2l-.03-.21-.029-.236a5.617 5.617 0 00-.05-.245 5.032 5.032 0 00-.332-.874 3.847 3.847 0 00-.211-.38l.019-.02z" fill="#232323"/><path d="M23.464 41.305s.287-.236.741-.56a15.641 15.641 0 011.745-1.075c.162-.093.333-.171.498-.253.165-.083.336-.148.498-.211.163-.064.33-.11.486-.155.156-.044.309-.067.448-.094.14-.028.272-.028.386-.04.1-.01.2-.01.298 0 .165 0 .258.016.258.016v.026s-.093.02-.251.048c-.08.017-.176.028-.283.06-.108.03-.23.056-.362.094l-.422.133c-.146.06-.304.106-.465.167-.16.061-.327.118-.494.188-.167.07-.338.135-.505.21-.613.289-1.21.61-1.786.965-.474.289-.778.504-.778.504l-.012-.023zm6.836-2.161c.146.073.287.154.423.245.061.038.124.087.194.135.07.049.135.108.211.165.148.127.283.268.404.422l.093.12.08.13c.052.087.094.179.124.275.023.094.036.19.038.287-.006.086-.02.172-.04.255-.03.074-.059.142-.086.199a.817.817 0 01-.1.129c-.029.035-.06.069-.092.1l-.022-.014s.011-.05.034-.13c0-.04.03-.087.038-.14.009-.053.013-.116.023-.18.011-.063 0-.134 0-.21 0-.076-.027-.148-.048-.224a2.24 2.24 0 00-.083-.239l-.054-.122-.07-.118a2.868 2.868 0 00-.338-.422 5.522 5.522 0 00-.353-.336 3.964 3.964 0 00-.376-.295v-.032zm-.308-.034s-.245.098-.598.275c-.175.09-.378.196-.591.32-.213.125-.433.264-.649.41-.103.078-.21.152-.308.234-.097.082-.198.156-.287.239-.089.082-.186.147-.268.221-.083.074-.167.14-.237.211-.07.072-.137.127-.196.18-.06.052-.104.105-.148.143-.083.082-.133.127-.133.127l-.021-.015s.025-.061.08-.167c.03-.065.065-.127.103-.188.047-.067.1-.143.16-.225.062-.083.138-.16.212-.245.084-.088.174-.17.268-.247a6.35 6.35 0 01.655-.439c.232-.135.465-.262.69-.37.227-.107.44-.195.634-.27.372-.143.634-.21.634-.21v.017z" fill="#232323"/><path d="M22.868 31.622s-4.932 5.064 3.7 6.752c0 0-1.92-.295-2.807-.21-.887.084-4.137-.864-3.34-3.913-.003-.006.113-1.175 2.447-2.63zm14.138-1.064s1.212 5.005-3.145 7.175c0 0-2.382 1.595-4.156 1.137.002-.01 6.667-1.74 7.301-8.312zm-18.719-1.196s1.732-.52 4.478-4.22c2.745-3.701 2.272-3.28 2.71-3.362a2.224 2.224 0 00-.322 1.737c.228 1.006-3.263 3.615-3.263 3.615s-2.874 3.087-2.446 4.642c-.008.004-.327-2.182-1.157-2.412zm20.145-5.149s1.873 1.526.901 3.497l1.842-2.136a4.164 4.164 0 01-1-1.118c-.375-.652-.341-1.192-1.752-1.298l.009 1.055z" fill="#EAF7FC"/></g></svg>