<svg width="30" height="33" xmlns="http://www.w3.org/2000/svg"><g fill="none" fill-rule="evenodd"><path d="M6.94 15.9l-.833-.41a.567.567 0 01-.318-.508v-2.137c0-.215.123-.412.318-.508l.834-.41V15.9z" fill="#707487"/><path fill="#E7BC9E" d="M20.181 23.283v-3.975H9.82v3.975L15 27.825z"/><path d="M28.193 25.142l-7.124-1.653a1.152 1.152 0 01-.3-.12L15 26.69l-5.545-3.48a1.152 1.152 0 01-.524.28l-7.123 1.653a2.278 2.278 0 00-1.776 2.21V31.8c0 .627.516 1.136 1.152 1.136h27.632c.636 0 1.152-.509 1.152-1.136v-4.447c0-1.054-.735-1.97-1.775-2.211z" fill="#B0D6BE"/><path d="M9.819 19.308v4.194c6.527 2.32 10.362-3.486 10.362-3.486v-.708H9.82z" fill="#C49E84"/><path d="M7.516 6.248l.502 10.886a3.394 3.394 0 001.378 2.57l2.38 1.762a3.486 3.486 0 002.073.681h2.302c.748 0 1.475-.239 2.073-.681l2.38-1.761a3.394 3.394 0 001.378-2.571l.502-10.886H7.516z" fill="#F6CBAD"/><path d="M13.273 8.52c2.303 0 5.757-.569 6.576-2.272H7.516l.502 10.886a3.394 3.394 0 001.378 2.57l2.38 1.762a3.486 3.486 0 002.073.681H15c-1.151 0-3.454-2.271-3.454-5.11v-6.814c0-.568.576-1.704 1.727-1.704z" fill="#DBB59A"/><path d="M4.259 29.25l-3.73-3.305c-.313.39-.497.882-.497 1.408V31.8c0 .627.516 1.136 1.152 1.136h4.03v-1.573c0-.806-.348-1.574-.955-2.112zm21.483 0l3.73-3.305c.313.39.496.882.496 1.408V31.8c0 .627-.516 1.136-1.151 1.136h-4.03v-1.573c0-.806.347-1.574.955-2.112z" fill="#6CAD84"/><path fill="#5D5F64" d="M16.44 32.936h-2.88l.36-5.11h2.16z"/><path d="M16.44 26.69h-2.88v1.068c0 .35.289.635.645.635h1.59a.64.64 0 00.644-.635V26.69z" fill="#5D5F64"/><path d="M9.738 22.018L15 26.69s-1.473.733-3.292 2.212a.744.744 0 01-1.144-.255l-2.472-5.364.782-1.157a.58.58 0 01.864-.108zm10.524 0L15 26.69s1.474.733 3.292 2.212a.744.744 0 001.144-.255l2.472-5.364-.782-1.157a.58.58 0 00-.864-.108z" fill="#6CAD84"/><path d="M18.49 2.486l.54 3.762c2.463.486 2.818 4.3 2.87 5.389.009.197.073.388.182.554l.94 1.439s-.322-2.378 1.15-3.975c.001 0 .507-9.44-5.682-7.169z" fill="#785550"/><path d="M8.068 1.469l.851.573C5.07 4.846 5.79 9.655 5.79 9.655c1.152 1.135 1.152 3.975 1.152 3.975l1.15-1.136s-.443-3.28 1.728-4.543c2.015-1.17 3.778-.567 5.577-.567 4.821 0 6.17-1.793 5.937-3.975C21.212 2.279 19.46-.073 15 .002c-1.8.03-5.18.568-6.932 1.467z" fill="#694B4B"/><path d="M7.732 6.887S7.12 4.509 8.92 2.042C5.07 4.846 5.79 9.655 5.79 9.655c1.152 1.136 1.152 3.975 1.152 3.975l1.15-1.136s-.443-3.28 1.728-4.543c2.015-1.17 3.778-.567 5.577-.567.784 0 1.467-.052 2.076-.14-3.713.122-5.902-2.652-9.74-.357z" fill="#5A4146"/><path d="M7.804 16.469h-.863a.572.572 0 01-.576-.568v-3.975c0-.313.258-.568.576-.568h.863c.159 0 .288.127.288.284v4.543a.286.286 0 01-.288.284z" fill="#5D5F64"/><path d="M17.303 19.734v-.852c3.896 0 4.75-2.152 4.75-2.981h.863c0 1.066-1.009 3.833-5.613 3.833z" fill="#464655"/><path d="M17.303 19.876h-.576a.572.572 0 01-.575-.568c0-.314.257-.568.575-.568h.576c.318 0 .576.254.576.568a.572.572 0 01-.576.568z" fill="#5B5D6E"/><path d="M23.06 15.9l.833-.41a.567.567 0 00.318-.508v-2.137a.567.567 0 00-.318-.508l-.833-.41V15.9z" fill="#707487"/><path d="M22.196 16.469h.864a.572.572 0 00.575-.568v-3.975a.572.572 0 00-.575-.568h-.864a.286.286 0 00-.288.284v4.543c0 .157.13.284.288.284z" fill="#5D5F64"/><path d="M22.484 31.8h-4.03a.572.572 0 00-.575.568v.568h5.18v-.568a.572.572 0 00-.575-.568z" fill="#6CAD84"/></g></svg>