<svg width="25" height="34" xmlns="http://www.w3.org/2000/svg"><g fill="none"><path fill="#6CAD84" d="M23.182 0H1.818v9.863L12.5 11.016l10.682-1.153z"/><path fill="#578B6A" d="M1.818 7.81v2.053L12.5 11.016l10.682-1.153V7.81z"/><path fill="#E6B24D" d="M5.217 0h3.13v9.863h-3.13zm11.436 0h3.13v9.863h-3.13z"/><path fill="#FF8D5F" d="M11.294 11.801h2.411v6.125h-2.411z"/><ellipse fill="#E67040" cx="12.5" cy="25.037" rx="8.642" ry="8.963"/><ellipse fill="#FF8D5F" cx="12.5" cy="25.037" rx="6.375" ry="6.611"/><path d="M13.518 26.718v-.224c0-.79-.466-.944-1.092-.944-.387 0-.512-.354-.512-.707 0-.354.125-.708.512-.708.432 0 .887-.06.887-1.015 0-.684-.375-.85-.841-.85-.558 0-.842.142-.842.602 0 .401-.17.673-.83.673-.82 0-.922-.177-.922-.744 0-.92.637-2.111 2.594-2.111 1.444 0 2.537.542 2.537 2.135 0 .861-.308 1.664-.876 1.935.67.26 1.16.779 1.16 1.734v.224c0 1.935-1.286 2.667-2.878 2.667-1.957 0-2.708-1.239-2.708-2.23 0-.53.216-.673.842-.673.728 0 .91.166.91.614 0 .554.5.684 1.013.684.773 0 1.046-.295 1.046-1.062z" fill="#DA6838"/><path fill="#B98F3D" d="M16.653 7.81h3.13v2.052h-3.13zm-11.436 0h3.13v2.052h-3.13z"/><path d="M23.182 9.863H1.818c-.986 0-1.785.829-1.785 1.852 0 1.023.8 1.852 1.785 1.852h21.364c.986 0 1.785-.83 1.785-1.852 0-1.023-.8-1.852-1.785-1.852z" fill="#E67040"/></g></svg>