<svg width="43" height="40" xmlns="http://www.w3.org/2000/svg"><g fill="none"><path d="M39.713 32.061l-7.082-3.537a2.7 2.7 0 01-1.493-2.414v-2.777c.199-.226.427-.517.67-.86a16.264 16.264 0 002.201-4.433 2.221 2.221 0 001.577-2.114v-2.963c0-.652-.29-1.235-.741-1.642V7.037S35.725.37 26.69.37c-9.036 0-8.156 6.667-8.156 6.667v4.284c-.451.407-.74.99-.74 1.642v2.963c0 .78.41 1.467 1.024 1.864.741 3.224 2.682 5.543 2.682 5.543v2.708c0 .987-.54 1.896-1.408 2.369l-6.614 3.605a5.94 5.94 0 00-3.099 5.215v2.4H43v-2.254a5.942 5.942 0 00-3.287-5.315z" fill="#6CAD84"/><path d="M13.478 32.015l4.409-2.402c-.026-.025-.004-.032.048-.027l2.157-1.176a2.698 2.698 0 001.408-2.37v-2.707s-.787-.944-1.551-2.461v-.002a15.04 15.04 0 01-.297-.626l-.04-.09a13.714 13.714 0 01-.286-.698c-.006-.016-.01-.033-.017-.049a13.91 13.91 0 01-.227-.663l-.057-.186c-.075-.25-.145-.505-.206-.77a2.216 2.216 0 01-1.026-1.862v-2.963c0-.652.29-1.235.741-1.642V7.137c-1.047-.812-2.67-1.581-5.19-1.581-7.089 0-7.413 5.925-7.413 5.925v3.7c-.39.352-.741.855-.741 1.418v2.56c0 .674.355 1.267.885 1.61.64 2.784 2.787 4.787 2.787 4.787v2.339a2.33 2.33 0 01-1.215 2.046l-4.97 3.112A5.13 5.13 0 000 37.558v2.072h10.38v-2.4a5.94 5.94 0 013.098-5.215z" fill="#E65A40"/></g></svg>