<svg width="102" height="102" xmlns="http://www.w3.org/2000/svg"><g fill="none" fill-rule="evenodd"><path d="M8.513 26.41C21.96 3.12 52.017-4.933 75.306 8.514c23.29 13.447 31.344 43.503 17.898 66.794C79.757 98.597 49.7 106.65 26.41 93.204 3.12 79.757-4.933 49.7 8.513 26.41z" fill="#5AA6D9" fill-rule="nonzero"/><path d="M72.99 40.85L45.926 67.915l-.088.087-.182.163-.187.153-.193.142-.2.13-.203.12-.208.11-.212.097-.216.087-.22.077-.222.065-.224.054-.227.044-.228.033-.229.021-.23.011h-.23l-.229-.01-.228-.022-.228-.033-.227-.044-.224-.054-.222-.065-.22-.076-.216-.087-.212-.098-.208-.11-.204-.12-.199-.13-.193-.142-.188-.153-.18-.163-.089-.086-10.149-10.15a4.797 4.797 0 010-6.765 4.797 4.797 0 016.766 0l6.766 6.766 23.68-23.681a4.798 4.798 0 016.766 0 4.797 4.797 0 01.001 6.766z" fill="#FFF" fill-rule="nonzero"/><path d="M100.226 37.81C96.69 24.609 88.266 13.6 76.511 6.813A50.808 50.808 0 0051.14.016c-18.27 0-35.256 9.76-44.327 25.473-6.787 11.756-8.577 25.5-5.04 38.701s11.96 24.21 23.715 30.997a50.602 50.602 0 005.043 2.546h-.79a2.126 2.126 0 000 4.251h42.518a2.126 2.126 0 000-4.251h-.947c9.894-4.295 18.351-11.655 23.875-21.221 6.787-11.757 8.576-25.501 5.04-38.702zm-8.722 36.575c-8.31 14.394-23.873 23.338-40.62 23.347h-.05a46.548 46.548 0 01-23.22-6.228C5.282 78.609-2.398 49.949 10.497 27.614 18.81 13.215 34.384 4.268 51.14 4.268c8.15 0 16.188 2.154 23.245 6.229 22.334 12.894 30.013 41.555 17.12 63.89z" fill="#5AA6D9" fill-rule="nonzero"/><rect fill="#2A648C" x="25" y="95" width="53" height="7" rx="3.5"/><path d="M61.004 9.93a2.126 2.126 0 00-1.1 4.107c13.164 3.527 23.532 13.895 27.058 27.058a2.127 2.127 0 104.107-1.1C87.151 25.369 75.631 13.849 61.004 9.93z" fill="#2A648C" fill-rule="nonzero"/></g></svg>