<svg width="36" height="42" xmlns="http://www.w3.org/2000/svg"><g fill="none" fill-rule="evenodd"><path d="M11.82 10.443c.022.162.04.324.07.484-.03-.16-.048-.322-.07-.484zm.106.72z" fill="#9BC9FF"/><path d="M11.836 32.586c.912 0 1.813.21 2.63.608l.456.232c.817.4 1.717.608 2.63.608h5.958c.812 0 1.47-.648 1.47-1.448 0-.8-.658-1.448-1.47-1.448h.735a1.46 1.46 0 001.47-1.448c0-.8-.659-1.449-1.47-1.449h.735c.811 0 1.469-.648 1.469-1.448 0-.8-.658-1.448-1.47-1.448h-.734a1.46 1.46 0 001.47-1.448c0-.8-.659-1.449-1.47-1.449h-5.878v-2.896H16.62c-.3-.003-.594.067-.86.202a1.889 1.889 0 00-1.065 1.695v1a1.464 1.464 0 01-1.47 1.448H0v8.69h11.836z" fill="#FFE599"/><path d="M18.367 36.207h-2.204a1.46 1.46 0 00-1.47 1.448v1.448h6.613v-2.896h-2.939z" fill="#FED766"/><path d="M27.918 37.655c0-.8-.658-1.448-1.469-1.448h-5.143v2.896h6.612v-1.448z" fill="#E6B24D"/><path d="M14.694 39.103c-.925 0-1.796.43-2.351 1.16L11.02 42h10.286v-2.897h-6.612z" fill="#7BC798"/><path d="M30.27 40.262a2.954 2.954 0 00-2.352-1.159h-6.612V42h10.286l-1.322-1.738z" fill="#6CAD84"/><path d="M30.402 12.303C33.535 12.156 36 9.61 36 6.517v-3.62h-5.143v6.517a9.37 9.37 0 01-.455 2.89z" fill="#FED766"/><path d="M11.926 11.163c-.015-.079-.034-.156-.047-.236-.026-.16-.042-.322-.06-.484-.01-.09-.025-.177-.032-.268a9.45 9.45 0 01-.032-.761V2.897H6.612v3.62c0 3.092 2.465 5.64 5.599 5.786-.05-.154-.091-.313-.133-.472-.015-.054-.033-.108-.047-.164a9.299 9.299 0 01-.105-.504z" fill="#E6B24D"/><path d="M11.882 10.927c.015.08.038.157.055.236-.017-.079-.04-.156-.055-.236zm.207.903c-.017-.054-.038-.107-.054-.163.02.056.037.11.054.164zm-.298-1.655c.01.09.026.179.037.268-.01-.088-.028-.177-.037-.268z" fill="#9BC9FF"/><path d="M21.306 4.003a.72.72 0 00-.699.5l-.734 2.238a.717.717 0 01-.368.412l1.801 2.26v-5.41z" fill="#D8C17C"/><path d="M23.049 7.123a.726.726 0 01-.306-.382l-.735-2.237a.72.72 0 00-.702-.501v5.41l1.743-2.29zm.992 3.305a.71.71 0 01.289-.49l1.93-1.384a.698.698 0 00.278-.749l-5.232 1.609 2.735 1.014z" fill="#FFF5DA"/><path d="M26.538 7.803a.716.716 0 00-.71-.562h-2.387a.735.735 0 01-.392-.118l-1.743 2.29 5.232-1.61z" fill="#D8C17C"/><path d="M19.504 7.153a.729.729 0 01-.333.088h-2.387a.72.72 0 00-.725.652l5.247 1.52-1.802-2.26zm1.802 5.117c.155 0 .306.048.432.138l1.93 1.383a.728.728 0 00.883-.016l-3.245-4.361v2.856z" fill="#FFF5DA"/><path d="M21.306 9.414l3.245 4.36a.701.701 0 00.249-.793l-.735-2.237a.702.702 0 01-.02-.32l-2.739-1.01zm-5.247-1.521c-.033.256.08.51.294.66l1.93 1.382c.145.106.244.26.28.435l2.743-.956-5.247-1.521z" fill="#D8C17C"/><path d="M18.562 10.368a.715.715 0 01-.012.376l-.734 2.237c-.1.29 0 .61.249.794l3.241-4.361-2.744.954z" fill="#FFF5DA"/><path d="M18.062 13.775c.255.202.618.21.881.016l1.931-1.383a.742.742 0 01.432-.138V9.414l-3.244 4.36z" fill="#D8C17C"/><path d="M21.306 0v4.003a.72.72 0 01.699.5l.735 2.238c.098.298.38.5.698.5h2.387c.319 0 .6.202.699.5a.718.718 0 01-.267.81l-1.93 1.384a.718.718 0 00-.268.809l.735 2.237a.719.719 0 01-.267.81.744.744 0 01-.864 0l-1.93-1.383a.744.744 0 00-.427-.138v6.558c4.147 0 7.821-2.636 9.096-6.525a9.37 9.37 0 00.455-2.89V0h-9.55z" fill="#E6B24D"/><path d="M20.874 12.408l-1.93 1.383a.744.744 0 01-.864 0 .719.719 0 01-.267-.81l.734-2.237a.718.718 0 00-.267-.81l-1.93-1.383a.718.718 0 01-.267-.81.733.733 0 01.701-.5h2.387c.318 0 .6-.202.699-.5l.734-2.237a.72.72 0 01.702-.501V0h-9.55v9.414c0 .256.01.507.03.761.008.09.023.179.032.268.019.162.035.324.06.484.014.08.033.157.048.236.032.169.064.338.105.507.014.056.032.109.047.164 1.11 4.124 4.899 6.995 9.228 6.994V12.27a.742.742 0 00-.432.138z" fill="#FED766"/><path d="M18.367 18.371v4.077h2.94v-3.62a9.632 9.632 0 01-2.94-.457z" fill="#E6B24D"/><path d="M24.245 18.371a9.632 9.632 0 01-2.939.457v3.62h2.939v-4.077z" fill="#FED766"/><path fill="#E6B24D" d="M19.837 34.034h-1.47v2.173h2.94v-2.173z"/><path fill="#FED766" d="M21.306 33.31h2.939v2.897h-2.939z"/><path d="M21.306 25.345h2.939a1.47 1.47 0 001.266-.724h-4.205v.724zm0 2.896h3.674a1.47 1.47 0 001.266-.724h-4.94v.724zm0 2.897h2.939a1.47 1.47 0 001.266-.724h-4.205v.724zm0 2.896h2.204a1.47 1.47 0 001.266-.724h-3.47v.724zm-3.673-14.482h.734v2.896h-.734z" fill="#DFC883"/><path d="M26.449 2.897h1.47v1.448c0 .4.328.724.734.724a.73.73 0 00.735-.724V2.172a.73.73 0 00-.735-.724H26.45a.73.73 0 00-.735.724c0 .4.33.725.735.725z" fill="#FFF5DA"/></g></svg>