<svg width="334" height="201" xmlns="http://www.w3.org/2000/svg" xmlns:xlink="http://www.w3.org/1999/xlink"><defs><linearGradient x1="50%" y1="0%" x2="50%" y2="100%" id="a"><stop stop-color="#FFF" offset="0%"/><stop offset="100%"/></linearGradient><path id="b" d="M9.125 174.879h57.129v-12.392H9.124z"/></defs><g fill="none" fill-rule="evenodd"><path stroke="#E6E6E6" stroke-width=".83" fill="#FFF" d="M316.506 175.856H236.31l7.06-52.128h60.844z"/><path d="M257.26 130.448c-5.056 0-9.326 2.086-9.326 4.56 0 2.469 4.27 4.555 9.326 4.555 5.056 0 9.326-2.086 9.326-4.555 0-2.474-4.27-4.56-9.326-4.56zm0 9.984c-5.714 0-10.19-2.39-10.19-5.424 0-3.04 4.476-5.43 10.19-5.43 5.714 0 10.19 2.39 10.19 5.43 0 3.034-4.476 5.424-10.19 5.424z" fill="#DDD"/><path d="M257.248 139.29c-.572 0-1.108-.152-1.4-.402-3.473-2.876-5.513-5.205-5.598-5.302-.378-.426-.006-.96.676-1.265.633-.28 1.87-.31 2.436.189.025.018 1.84 1.873 4.154 3.958 2.297-3.022 4.624-5.186 7.084-7.041a2.277 2.277 0 012.071-.31c.756.261.677.693.165 1.076-2.778 2.086-5.659 4.804-8.016 8.507-.195.316-.731.54-1.377.583-.067 0-.128.007-.195.007" fill="#FF5148"/><path d="M332.014 160.951l-22.044.244a3.136 3.136 0 01-.895-.092 3.052 3.052 0 01-.78-.322 1.958 1.958 0 01-.573-.486 1.43 1.43 0 01-.304-.627l-5.482-27.246a.725.725 0 01.055-.469c.067-.133.182-.261.335-.37a1.84 1.84 0 01.554-.25c.213-.067.457-.091.719-.097l18.602-.262c.256 0 .5.03.737.092.238.054.457.133.658.237.195.103.378.23.512.365.14.14.237.285.292.45l9.198 27.198c.067.219.079.425.036.614a1.1 1.1 0 01-.286.51 1.617 1.617 0 01-.56.36 2.47 2.47 0 01-.774.151" fill="#394144"/><path d="M315.829 133.191l-4.362.061c-.073 0-.134-.012-.207-.024a.67.67 0 01-.176-.073.928.928 0 01-.14-.097.27.27 0 01-.074-.128l-.091-.37a.168.168 0 01.006-.123.246.246 0 01.091-.103.302.302 0 01.14-.067.659.659 0 01.195-.024l4.331-.055c.073 0 .146.006.207.018a.819.819 0 01.183.073.518.518 0 01.128.098.239.239 0 01.08.127l.097.365a.184.184 0 010 .128.212.212 0 01-.073.091c-.037.037-.092.055-.147.08a.838.838 0 01-.188.023" fill="#5B6466"/><path fill="#C3E7FF" d="M331.848 159.603l-22.446.231-5.336-25.276 19.59-.25z"/><path d="M333.626 159.96a1.184 1.184 0 01-.188.383 1.229 1.229 0 01-.354.304 1.448 1.448 0 01-.481.213 2.865 2.865 0 01-.59.09l-22.045.244a3.094 3.094 0 01-.89-.091 2.964 2.964 0 01-.779-.322 1.985 1.985 0 01-.578-.487 1.5 1.5 0 01-.305-.626l-5.494-27.302v3.533c0 .231.091.632.091.632l4.91 25.162a1.6 1.6 0 00.298.626c.146.188.347.353.573.492.225.134.487.25.767.317.28.073.573.109.877.09 0 0 22.136-.194 22.61-.194.476 0 1.603-.352 1.603-1.13 0-.791-.025-1.934-.025-1.934" fill="#879296"/><path d="M294.587 157.507c0-.073-.006-.14-.019-.219-.17-.796-.347-1.593-.517-2.383-.177-.803-1.273-1.447-2.455-1.447h-.432c1.023.091 1.936.669 2.089 1.38.17.766.335 1.532.5 2.298.176.773-.665 1.399-1.865 1.399h-9.258v4.463c1.992 0 6.219 0 9.581-.006a2.373 2.373 0 002.376-2.371v-3.114z" fill="#FF312C"/><path d="M248.148 157.092c.219-1.1.462-2.28.633-3.168.049-.23.329-.407.664-.456h-.615c-.396.006-.768.219-.816.493a1070.78 1070.78 0 00-.847 4.299c-.006.024-.006.054-.006.079 0 .079.006 2.067 0 2.778a1.89 1.89 0 001.888 1.891c10.952 0 22.745-.006 33.58-.006v-4.469c-10.561.006-22.537.012-33.3.012a1.203 1.203 0 01-1.181-1.453" fill="#FF5148"/><path d="M247.16 160.44v-2.102c0-.025 0-.049.006-.073.231-1.198.463-2.39.7-3.576h-.877a1.35 1.35 0 00-1.322 1.065c-.158.766-.329 1.532-.493 2.298a.854.854 0 00-.018.17c.012.237 0 2.104.006 2.171.018.39.34.705.749.705h1.249v-.656z" fill="#949494"/><path d="M247.16 158.339c0-.025 0-.055.006-.08.231-1.191.463-2.383.7-3.575h-.877c-.64 0-1.188.45-1.322 1.07-.158.767-.329 1.533-.493 2.299a.752.752 0 00.737.912h1.249v-.626z" fill="#ABABAB"/><path d="M282.047 153.446c-10.818 0-21.648.006-32.472.012-.383 0-.737.206-.792.468-.17.888-.414 2.067-.633 3.168a1.2 1.2 0 001.182 1.453c10.763 0 22.732-.006 33.3-.012l-.585-5.09" fill="#FF7471"/><path d="M293.754 157.14c-.164-.767-.335-1.539-.5-2.305-.164-.772-1.224-1.392-2.369-1.386h-8.838c.195 1.696.396 3.386.585 5.083h9.252c1.206 0 2.04-.62 1.87-1.393" fill="#FF635F"/><path d="M292.535 160.88l-.11-.59c-.439 0-.883.006-1.328.006v.566l.018.079-15.593-.036a.452.452 0 00-.42.45v.565c0 .25.2.456.456.456l16.16.043a.835.835 0 00.835-.79v-.621a.496.496 0 00-.018-.128" fill="#949494"/><path d="M292.427 160.292c-.438 0-.889.006-1.334.006l.122.639-15.69-.03a.457.457 0 00-.427.45c0 .249.201.455.457.455l16.166.043a.825.825 0 00.816-.973l-.11-.59z" fill="#ABABAB"/><path d="M246.696 173.602c0-.152-.055-.316-.146-.48-5.653-9.4-11.3-18.8-16.952-28.207-.871-1.43-4.477-2.597-8.059-2.597H87.45c-3.576 0-7.182 1.168-8.06 2.597-5.652 9.406-11.293 18.807-16.945 28.207a.929.929 0 00-.146.45c-.025.444-.006 2.93 0 3.089.018 1.192 2.826 2.092 6.864 2.092h170.663c4.014 0 6.816-.894 6.871-2.074.006-.164.006-2.65 0-3.077" fill="#BDC1C3"/><path d="M239.823 175.718H69.16c-4.587 0-7.59-1.162-6.719-2.597 5.653-9.4 11.3-18.8 16.952-28.207.871-1.429 4.477-2.59 8.059-2.59h134.091c3.576 0 7.182 1.161 8.059 2.59 5.652 9.407 11.293 18.807 16.945 28.207.878 1.435-2.138 2.597-6.724 2.597z" fill="#E0E4E7"/><path d="M236.31 164.404H72.816c3.85-6.804 7.694-13.608 11.537-20.406h140.402c3.844 6.798 7.7 13.602 11.555 20.406" fill="#BEC3C5"/><path d="M176.546 173.52c.086.583-1.352 1.051-3.191 1.051h-37.723c-1.846 0-3.271-.468-3.186-1.052.323-2.292.658-4.578.987-6.865.091-.59 1.565-1.058 3.295-1.058h35.536c1.73 0 3.204.468 3.296 1.058l.986 6.865" fill="#BDC1C3"/><path d="M97.284 142.321c-.195.414-.39.84-.591 1.253H212.29c-.195-.414-.396-.84-.585-1.253H97.284z" fill="#30373D"/><path d="M92.709 145.468c0 .207.396.37.962.37h5.001c.652 0 1.255-.206 1.359-.455a.99.99 0 00.036-.08.194.194 0 00.018-.084c-.006-.085 0-.523 0-.548-.012-.206-.408-.364-.98-.364h-4.958c-.634 0-1.25.2-1.37.45-.02.03-.031.054-.044.079a.171.171 0 00-.024.09c.006.092 0 .518 0 .542m116.375-.166c.018.03.025.06.037.085.11.25.718.45 1.358.45h5c.567 0 .951-.158.963-.359.006-.03.006-.468 0-.56a.187.187 0 00-.018-.078c-.012-.03-.03-.055-.043-.085-.121-.25-.737-.45-1.376-.45h-4.965c-.572 0-.974.158-.968.377v.547a.31.31 0 00.012.073m-8.947 0a.46.46 0 01.03.085c.098.25.677.45 1.329.45h5c.567 0 .97-.158.994-.365v-.56a.162.162 0 00-.019-.072c-.012-.03-.018-.055-.036-.085-.098-.25-.7-.45-1.346-.45h-4.965c-.59 0-1.005.17-.999.389 0 .018.006.462 0 .547a.22.22 0 00.012.061m-8.952 0c.006.03.019.06.025.085.073.25.651.45 1.297.45h5c.586 0 1.006-.158 1.018-.383.006-.024 0-.468 0-.553 0-.019 0-.037-.012-.061-.006-.03-.018-.055-.024-.085-.086-.25-.67-.45-1.316-.45h-4.964c-.58 0-1.012.17-1.03.383-.006.024 0 .48 0 .565 0 .012 0 .037.006.049m-8.946 0c.006.03.012.06.024.085.055.25.615.45 1.26.45h4.996c.609 0 1.053-.176 1.047-.407v-.542c0-.018 0-.036-.006-.048-.006-.03-.018-.055-.024-.085-.067-.25-.64-.45-1.286-.45h-4.952c-.64 0-1.114.2-1.06.45.007.03-.018.444 0 .547m-8.94 0c.007.03.007.06.013.085.036.25.584.45 1.23.45h4.995c.646 0 1.127-.2 1.072-.45-.006-.024.024-.45 0-.547-.006-.03-.006-.055-.012-.085-.055-.25-.61-.45-1.255-.45h-4.958c-.64 0-1.121.2-1.085.45.007.03-.018.45 0 .547m-8.946.083c.018.25.554.45 1.194.45h5.013c.64 0 1.133-.2 1.096-.45-.006-.024.012-.45 0-.547-.006-.03-.006-.055-.012-.085-.037-.25-.573-.45-1.212-.45h-4.965c-.64 0-1.139.2-1.12.45l.006.632m-8.952 0c.006.25.536.45 1.169.45h5.007c.633 0 1.145-.2 1.127-.45l-.006-.632c-.019-.25-.548-.45-1.182-.45h-4.964c-.628 0-1.151.2-1.151.45v.632zm-8.953 0c-.018.25.5.45 1.14.45h5c.64 0 1.164-.2 1.164-.45v-.632c.006-.25-.512-.45-1.152-.45h-4.964c-.633 0-1.163.2-1.182.45-.006.03-.006.055-.006.085-.006.091 0 .523 0 .547m-8.953 0c-.036.25.463.45 1.11.45h5c.633 0 1.176-.2 1.194-.45 0-.024.006-.054.006-.085.006-.085 0-.517 0-.547.018-.25-.481-.45-1.115-.45h-4.964c-.634 0-1.188.2-1.218.45-.006.03-.013.055-.013.085-.012.097 0 .523 0 .547m-8.952.048c.012.225.463.401 1.072.401h4.995c.652 0 1.194-.2 1.237-.45a.36.36 0 01.012-.079c.012-.097-.006-.517 0-.547.036-.25-.451-.456-1.097-.456h-4.952c-.64 0-1.188.206-1.242.456-.006.03-.013.048-.019.079 0 .012-.006.024-.006.036.006.092 0 .541 0 .56m-8.958 0c-.006.225.432.401 1.042.401h4.994c.658 0 1.219-.2 1.273-.45l.019-.079c.024-.103-.006-.517 0-.547.054-.25-.415-.456-1.066-.456h-4.952c-.646 0-1.206.206-1.28.456-.006.03-.018.048-.024.079-.006.012-.006.024-.006.042v.554zm-8.964.017c.006.22.426.383 1.023.383h5c.646 0 1.225-.2 1.298-.45.006-.024.018-.054.025-.079.006-.012.006-.024.006-.036.006-.091 0-.541 0-.56.006-.224-.433-.4-1.036-.4h-4.958c-.646 0-1.23.2-1.316.45-.012.03-.018.054-.03.078-.006.012-.006.025-.006.043-.013.097-.006.547-.006.571m-8.953.006c-.006.213.408.377.993.377h4.995c.652 0 1.243-.2 1.328-.45a.422.422 0 01.03-.079c.006-.024.013-.048.013-.066a7.59 7.59 0 010-.53c.024-.224-.403-.4-1.006-.4h-4.958c-.633 0-1.236.2-1.34.45a.99.99 0 01-.036.078c-.013.025-.013.049-.019.067 0 .097.006.53 0 .553m-9.654 3.824h5.135c.664 0 1.285-.2 1.388-.45.28-.65.567-1.295.841-1.945a.069.069 0 00.018-.049 9.28 9.28 0 000-.584c-.018-.206-.42-.358-.993-.358h-5.019c-.645 0-1.267.2-1.388.45-.323.644-.634 1.289-.957 1.94a.147.147 0 00-.018.097c.006.066-.006.51 0 .535.006.212.408.364.993.364m87.371-2.393c.127.645.255 1.295.377 1.94.049.25.634.456 1.285.456h5.141c.622 0 1.079-.176 1.09-.408l-.005-.54a.084.084 0 000-.055c-.165-.645-.335-1.29-.494-1.94-.067-.25-.64-.444-1.285-.444h-5.025c-.603 0-1.066.17-1.084.395-.007.019.006.499 0 .548-.007.018 0 .03 0 .048m8.743 0c.165.645.342 1.295.512 1.94.067.25.658.456 1.322.456h5.135c.609 0 1.054-.176 1.054-.395 0-.019-.007-.48 0-.542 0-.024 0-.042-.013-.066l-.62-1.94c-.08-.25-.665-.444-1.317-.444h-5.013c-.603 0-1.047.164-1.066.383-.006.018 0 .51 0 .572 0 .012 0 .024.006.036m16.906 1.473a.308.308 0 00-.012-.08c-.256-.644-.506-1.294-.762-1.939-.097-.25-.7-.444-1.346-.444h-5.031c-.585 0-1.017.164-1.03.377l.007.554c-.007.018 0 .042.006.06.213.645.426 1.296.651 1.94.08.25.683.45 1.34.45h5.148c.603 0 1.035-.17 1.029-.39 0-.017-.006-.467 0-.528m-107.119 8.23c-.018-.207-.47-.377-1.09-.377H88.4c-.7 0-1.365.207-1.493.456-.31.644-.633 1.295-.95 1.94a.183.183 0 00-.018.073v.553c0 .213.444.37 1.084.37h8.6c.713 0 1.377-.2 1.48-.45.263-.65.53-1.294.799-1.939.012-.024.012-.042.012-.067v-.56zm85.485.077c-.055-.243-.664-.45-1.37-.45H176.6c-.694 0-1.236.2-1.2.45v.547c.098.645.201 1.295.293 1.94.036.25.651.45 1.364.45h5.543c.719 0 1.26-.2 1.206-.45v-.547l-.408-1.94zm9.993 1.996c0-.019 0-.037-.006-.055-.183-.645-.365-1.295-.542-1.94-.073-.243-.688-.45-1.383-.45h-5.44c-.657 0-1.15.177-1.163.402 0 .018.006.492 0 .54v.056l.427 1.94c.06.248.67.45 1.388.45h5.556c.651 0 1.139-.171 1.163-.396v-.547zm9.595.011c0-.024 0-.048-.012-.067-.226-.644-.445-1.295-.67-1.94-.092-.243-.725-.45-1.432-.45h-5.433c-.652 0-1.133.177-1.145.396 0 .018.006.486 0 .547 0 .018 0 .037.006.055.189.644.378 1.295.566 1.94.073.249.707.45 1.42.45h5.549c.664 0 1.145-.17 1.15-.396v-.535zm20.248.018a.214.214 0 00-.018-.085c-.323-.645-.634-1.295-.956-1.94-.128-.243-.786-.45-1.487-.45h-15.928c-.634 0-1.115.176-1.096.401l.006.53c-.006.024 0 .042.006.066l.694 1.94c.091.25.737.45 1.438.45h16.25c.653 0 1.097-.164 1.091-.371 0-.03-.006-.468 0-.541m-12.509-6.894a.162.162 0 00-.019-.073l-.822-1.94c-.103-.25-.725-.45-1.389-.45h-5.165c-.579 0-1.005.152-1.042.353-.006.03 0 .505 0 .571-.006.025 0 .049.013.08.231.638.469 1.289.706 1.933.092.25.719.45 1.395.45h5.275c.615 0 1.048-.164 1.048-.377v-.547zm-9.113-.006c0-.024 0-.042-.006-.067-.232-.644-.463-1.295-.689-1.94-.097-.249-.706-.45-1.37-.45h-5.16c-.609 0-1.06.165-1.078.384 0 .024.007.492 0 .553 0 .024 0 .043.007.067.194.639.383 1.29.572 1.934.08.249.695.45 1.37.45h5.276c.609 0 1.06-.165 1.078-.377v-.554zm-9.119-.018c0-.018 0-.036-.006-.049a232.18 232.18 0 00-.56-1.94c-.068-.249-.659-.45-1.329-.45h-5.153c-.676 0-1.163.201-1.108.45v.554c.158.639.304 1.29.444 1.934.061.249.652.45 1.334.45h5.269c.64 0 1.109-.177 1.109-.402v-.547zm-9.119-.047c-.134-.645-.28-1.296-.42-1.94-.055-.25-.634-.456-1.298-.456h-5.159c-.658 0-1.17.207-1.127.456v.547c.098.645.207 1.29.305 1.94.042.25.627.45 1.303.45h5.27c.639 0 1.12-.177 1.132-.401 0-.019-.006-.5 0-.554 0-.018 0-.03-.006-.042m-9.387-1.942c-.043-.25-.621-.45-1.267-.45h-5.171c-.67 0-1.182.2-1.158.45v.553c.061.639.116 1.29.177 1.934.018.25.585.45 1.267.45h5.281c.664 0 1.2-.2 1.157-.45v-.547c-.097-.645-.189-1.295-.286-1.94m-8.988 0c-.018-.25-.572-.45-1.236-.45h-5.16c-.663 0-1.2.2-1.193.45.006.176 0 .541 0 .553.018.639.03 1.29.042 1.934.007.25.56.45 1.243.45h5.269c.682 0 1.212-.2 1.194-.45v-.547a211.2 211.2 0 00-.159-1.94m-8.97 0c0-.25-.548-.45-1.206-.45h-5.165c-.658 0-1.213.2-1.225.45l-.091 1.94v.547c-.012.25.53.45 1.212.45h5.275c.676 0 1.23-.2 1.224-.45v-.547c-.006-.645-.012-1.295-.024-1.94m-10.154-.451h-5.153c-.67 0-1.237.2-1.267.45-.067.65-.146 1.295-.22 1.946v.54c-.03.25.5.457 1.182.457h5.27c.681 0 1.236-.207 1.248-.456.042-.645.079-1.29.11-1.934v-.553c.012-.25-.506-.45-1.17-.45m-8.941 0h-5.171c-.664 0-1.237.2-1.285.45-.116.65-.238 1.295-.354 1.946-.012.054 0 .56 0 .571-.006.231.488.426 1.146.426h5.28c.67 0 1.255-.207 1.28-.456.085-.645.17-1.29.243-1.934v-.553c.037-.25-.487-.45-1.139-.45m-8.945 0h-5.166c-.664 0-1.255.2-1.316.45-.164.65-.323 1.295-.493 1.946 0 .012-.006.018-.006.036.006.055 0 .53 0 .541 0 .231.48.42 1.12.42h5.275c.689 0 1.267-.207 1.316-.456.128-.645.25-1.29.378-1.934v-.553c.042-.25-.451-.45-1.109-.45m-15.002 3.39h5.27c.687 0 1.284-.2 1.351-.45.17-.65.341-1.295.512-1.94.006-.017.006-.036.006-.054-.006-.06 0-.529 0-.547-.018-.225-.475-.401-1.09-.401h-5.16c-.67 0-1.266.206-1.346.456-.207.644-.42 1.289-.627 1.94-.006.011-.006.036-.006.054v.541c-.018.225.457.401 1.09.401m-9.137 0h5.27c.682 0 1.297-.2 1.382-.45.213-.65.426-1.295.64-1.94.012-.017.012-.042.012-.06-.006-.067 0-.517 0-.535.012-.225-.445-.407-1.06-.407h-5.16c-.67 0-1.285.206-1.388.456-.25.644-.506 1.289-.755 1.94-.013.017-.013.042-.013.066v.53c-.024.224.433.4 1.072.4m-13.503 0h9.63c.677 0 1.31-.2 1.408-.45.262-.65.517-1.295.78-1.94.005-.024.012-.048.012-.078-.007-.067 0-.523 0-.547-.013-.213-.439-.377-1.03-.377h-9.423c-.67 0-1.297.206-1.425.456-.323.644-.634 1.289-.957 1.94a.168.168 0 00-.018.078v.541c-.012.213.414.377 1.023.377m134.589 9.418c0-.03-.006-.06-.024-.097-.055-.104-.103-.225-.158-.329-.128-.249-.816-.456-1.535-.456h-5.635c-.664 0-1.145.177-1.133.395v.536c0 .018 0 .048.013.073.048.109.097.225.152.328.103.255.786.456 1.517.456h5.683c.64 0 1.096-.152 1.12-.359v-.547zm-56.718-8.912c-.03-.256-.615-.457-1.29-.457h-5.294c-.676 0-1.224.2-1.212.456v.547c.024.645.055 1.296.079 1.94.012.25.59.444 1.285.444h5.41c.693 0 1.242-.195 1.217-.444v-.553c-.067-.645-.128-1.29-.195-1.934m-9.154 2.488c-.006-.164 0-.529 0-.553-.024-.645-.049-1.29-.067-1.934-.012-.255-.567-.456-1.255-.456h-5.293c-.682 0-1.237.201-1.237.456-.018.645-.036 1.29-.048 1.934-.006.018 0 .39 0 .553-.012.25.548.444 1.242.444h5.41c.694 0 1.254-.194 1.248-.444m-9.28-2.487c.006-.256-.536-.457-1.218-.457h-5.3c-.682 0-1.254.2-1.273.456-.067.645-.127 1.29-.188 1.934v.553c-.019.25.523.444 1.218.444h5.415c.7 0 1.267-.195 1.273-.444l.073-1.94c0-.024-.006-.395 0-.547m-10.398-.457h-5.299c-.676 0-1.273.2-1.316.456-.103.65-.207 1.289-.31 1.94v.547c-.043.25.493.45 1.194.45h5.402c.701 0 1.28-.2 1.31-.45l.195-1.94v-.547c.03-.255-.5-.456-1.176-.456m-9.178 0h-5.306c-.676 0-1.279.2-1.34.456-.146.65-.298 1.289-.445 1.94-.006.012-.006.03-.006.048.006.049 0 .53 0 .541.013.225.512.408 1.158.408h5.42c.683 0 1.286-.2 1.329-.45.11-.645.225-1.295.329-1.94v-.547c.048-.255-.47-.456-1.14-.456m-17.88 2.945l.603-1.94c.012-.018.012-.042.012-.06-.006-.061 0-.517 0-.535.006-.231-.469-.408-1.102-.408h-5.306c-.676 0-1.297.201-1.395.456l-.712 1.934a.216.216 0 00-.013.06v.554c.007.219.463.383 1.097.383h5.421c.694 0 1.316-.194 1.395-.444m-23.639.445h12.858c.7 0 1.34-.194 1.432-.444.25-.65.493-1.295.737-1.945.012-.019.012-.043.012-.061v-.566c-.018-.206-.463-.377-1.072-.377H90.058c-.682 0-1.328.207-1.456.463-.316.644-.633 1.283-.956 1.933-.006.024-.012.055-.018.073 0 .073.006.523 0 .547-.012.213.426.377 1.06.377m11.207-7.262c0 .22.42.377 1.017.377h5.141c.664 0 1.273-.2 1.364-.45.232-.644.47-1.295.713-1.94.006-.017.006-.036.006-.06v-.547c.006-.22-.426-.383-1.023-.383h-5.031c-.64 0-1.25.194-1.353.444l-.822 1.94c-.012.024-.012.048-.012.072v.547zm8.881.006c.018.213.45.377 1.041.377h5.141c.664 0 1.255-.206 1.322-.456a234 234 0 00.579-1.94c.006-.017.006-.036.006-.054-.006-.06 0-.523 0-.541.006-.225-.433-.395-1.048-.395h-5.019c-.646 0-1.236.194-1.328.444-.231.65-.457 1.295-.688 1.94-.006.024-.012.042-.006.066 0 .067-.006.535 0 .56m8.869-.019c.018.22.475.39 1.078.39h5.14c.658 0 1.243-.201 1.292-.45l.45-1.94v-.049c-.005-.055 0-.529 0-.541-.005-.231-.468-.401-1.071-.401h-5.026c-.64 0-1.23.194-1.303.444l-.554 1.94c-.006.017-.006.036-.006.054.006.06 0 .535 0 .553m15.591-2.993h-5.014c-.651 0-1.212.195-1.273.444l-.42 1.946c-.006.012-.006.03-.006.043.006.048 0 .523 0 .535 0 .23.481.42 1.109.42h5.128c.67 0 1.237-.207 1.273-.457.098-.644.208-1.289.311-1.94v-.547c.03-.249-.457-.444-1.108-.444m8.714 0h-5.025c-.646 0-1.194.195-1.23.444-.104.65-.195 1.295-.293 1.946v.541c-.036.25.47.456 1.127.456h5.135c.664 0 1.218-.206 1.243-.456.06-.644.115-1.289.176-1.94v-.547c.018-.249-.487-.444-1.133-.444m9.869.446c.006-.25-.512-.444-1.158-.444h-5.031c-.64 0-1.176.195-1.2.444-.049.645-.098 1.295-.152 1.94v.547c-.019.25.5.45 1.157.45h5.135c.664 0 1.2-.2 1.206-.45.018-.644.03-1.295.043-1.94 0-.006-.007-.37 0-.547m8.738 0c-.012-.25-.542-.444-1.182-.444h-5.037c-.634 0-1.17.195-1.17.444-.006.645-.018 1.295-.018 1.94v.547c-.006.25.53.45 1.188.45h5.14c.665 0 1.189-.2 1.176-.45v-.547c-.03-.645-.06-1.295-.097-1.94m8.743 0c-.03-.25-.584-.444-1.224-.444h-5.025c-.645 0-1.163.195-1.145.444v.547l.11 1.94c.018.25.566.45 1.224.45h5.141c.658 0 1.176-.2 1.145-.45v-.547c-.079-.645-.146-1.295-.225-1.94m9.101 1.989v-.049c-.128-.644-.243-1.295-.365-1.94-.043-.249-.603-.443-1.255-.443h-5.02c-.645 0-1.144.194-1.108.444v.547c.073.645.159 1.295.244 1.94.024.249.59.45 1.255.45h5.128c.628 0 1.103-.177 1.121-.402 0-.018-.006-.498 0-.547m28.19-2.435c-.56 0-.969.146-1 .36 0 .017.007.492 0 .559 0 .024.007.048.013.073.262.65.524 1.295.78 1.94.097.249.718.455 1.376.455h9.38c.585 0 .987-.158 1-.358v-.566c0-.024 0-.055-.019-.073-.316-.65-.64-1.295-.962-1.946-.116-.249-.737-.444-1.389-.444h-9.18zM107.8 156.596c-.024-.213-.487-.377-1.127-.377h-5.427c-.695 0-1.34.2-1.438.45-.256.644-.511 1.295-.773 1.94a.218.218 0 00-.012.066v.548c0 .219.469.383 1.114.383h5.55c.718 0 1.364-.2 1.449-.45l.658-1.94a.152.152 0 00.006-.055v-.565zm8.292-.38h-5.427c-.694 0-1.328.2-1.413.45l-.646 1.946v.588c-.006.225.488.408 1.152.408h5.537c.724 0 1.364-.207 1.431-.456.177-.645.347-1.29.524-1.94 0-.012.006-.03 0-.042l.006-.554c-.006-.225-.5-.401-1.164-.401m10.6.417c-.006-.231-.511-.414-1.175-.414h-5.434c-.694 0-1.315.201-1.382.45-.165.645-.33 1.295-.506 1.94 0 .012-.006.03-.006.043v.547c0 .23.512.407 1.182.407h5.543c.719 0 1.334-.2 1.389-.45l.39-1.94v-.582zm8.251-.416h-5.446c-.688 0-1.297.2-1.346.45l-.377 1.946v.583c.018.231.536.414 1.206.414h5.555c.712 0 1.322-.207 1.352-.456.085-.645.177-1.29.262-1.94v-.547c.03-.243-.512-.45-1.206-.45m9.404 0h-5.427c-.7 0-1.292.2-1.316.45-.08.65-.164 1.295-.237 1.946v.559c0 .243.542.438 1.236.438h5.537c.725 0 1.316-.207 1.334-.456l.122-1.94c0-.03-.012-.39 0-.547.012-.243-.542-.45-1.249-.45m10.696.451c0-.243-.56-.45-1.267-.45h-5.434c-.7 0-1.273.2-1.285.45l-.104 1.94c0 .03.013.395 0 .547-.012.25.549.45 1.261.45h5.55c.718 0 1.29-.2 1.29-.45 0-.182-.005-1.842-.011-2.487m9.446 0c-.018-.243-.597-.45-1.292-.45h-5.433c-.7 0-1.267.2-1.26.45 0 .17.018 1.842.024 2.487.006.25.59.45 1.303.45h5.543c.725 0 1.273-.2 1.255-.45v-.547l-.14-1.94zm9.451 0c-.036-.243-.627-.45-1.333-.45h-5.428c-.694 0-1.248.2-1.23.45.012.146 0 .51 0 .547l.164 1.94c.019.25.622.45 1.334.45h5.543c.713 0 1.261-.2 1.225-.45v-.547l-.275-1.94m38.338-7.333c-.603 0-1.029.164-1.017.383v.541a.21.21 0 00.018.08l.841 1.933c.104.25.75.456 1.42.456h1.674c.457.991.914 1.994 1.37 2.991.11.25.768.444 1.463.444h2.442c.597 0 1.036-.152 1.054-.358v-.56a.21.21 0 00-.018-.079c-.89-1.794-1.773-3.587-2.662-5.381-.122-.25-.768-.45-1.42-.45h-5.165zm-86.282 10.73c-.018-.225-.53-.402-1.212-.402h-8.631c-.713 0-1.352.201-1.426.45-.182.645-.359 1.295-.542 1.934-.006.018-.006.036-.006.06v.554c.019.219.524.39 1.194.39h8.808c.743 0 1.37-.202 1.425-.457.128-.644.262-1.289.39-1.933 0-.013.006-.03 0-.043v-.553zM186.1 162.1c0-.018 0-.036-.007-.054-.14-.639-.286-1.29-.426-1.934-.055-.249-.689-.45-1.407-.45h-7.109c-.67 0-1.206.183-1.23.414v.553c0 .012 0 .018.006.03l.292 1.934c.043.255.664.456 1.389.456h7.26c.683 0 1.213-.176 1.231-.401v-.547zm-74.487-2.44h-5.561c-.725 0-1.37.2-1.456.45-.231.65-.463 1.295-.694 1.94-.006.018-.006.042-.006.06v.548c0 .218.493.395 1.169.395h5.677c.743 0 1.389-.207 1.462-.462.189-.645.384-1.283.572-1.934.007-.018.007-.036.007-.055v-.54c0-.226-.494-.402-1.17-.402m-9.648 0H96.39c-.719 0-1.389.2-1.492.45-.274.65-.548 1.295-.822 1.94a.218.218 0 00-.013.066v.554c.013.213.488.383 1.152.383h5.683c.724 0 1.4-.207 1.492-.462.231-.645.469-1.283.707-1.934.006-.018.006-.042.006-.06v-.554c-.006-.219-.5-.383-1.14-.383m-9.653 0h-5.579c-.713 0-1.395.2-1.517.45-.316.65-.633 1.295-.95 1.94a.144.144 0 00-.018.072v.56c.012.213.469.37 1.115.37h5.689c.73 0 1.4-.206 1.517-.461.28-.645.56-1.283.84-1.934.012-.018.012-.042.018-.06v-.56c-.006-.213-.469-.377-1.114-.377m82.117.451c-.036-.25-.64-.45-1.364-.45h-44.192c-.712 0-1.334.2-1.382.45-.128.645-.25 1.295-.372 1.934-.006.018-.006.03-.006.048v.548c.024.23.56.407 1.243.407h45.093c.676 0 1.212-.176 1.254-.401v-.56c.007-.018.007-.024 0-.042-.09-.639-.176-1.29-.274-1.934m21.474 2.001c0-.018 0-.042-.006-.067-.189-.638-.371-1.289-.566-1.933-.067-.25-.713-.45-1.426-.45h-5.567c-.682 0-1.188.176-1.206.401v.541c0 .018 0 .037.006.055.146.644.292 1.289.45 1.933.056.256.695.457 1.432.457h5.683c.664 0 1.17-.165 1.2-.384v-.553zm19.208.018a.238.238 0 00-.019-.085c-.274-.638-.548-1.289-.822-1.933-.104-.25-.767-.45-1.486-.45h-5.574c-.64 0-1.114.164-1.133.377v.553c0 .024 0 .049.013.067.231.644.469 1.289.706 1.933.085.256.755.457 1.486.457h5.69c.657 0 1.132-.165 1.139-.384v-.535zm-9.821-.012c0-.024 0-.048-.012-.073-.043-.103-.08-.225-.116-.328-.092-.25-.755-.456-1.48-.456h-5.635c-.676 0-1.187.182-1.187.407v.541c0 .019 0 .037.006.05.036.115.067.23.103.333.073.256.731.457 1.456.457h5.69c.67 0 1.169-.17 1.175-.39v-.54z" fill="#818C91"/><path d="M215.14 155.165c-.287-.644-.58-1.289-.866-1.933-.11-.256-.755-.463-1.431-.463h-5.3c-.62 0-1.071.177-1.071.396 0 .024.006.474 0 .547 0 .018.006.042.012.06.25.651.505 1.296.755 1.946.098.25.743.444 1.432.444h5.409c.627 0 1.066-.158 1.078-.364 0-.03-.006-.487 0-.554a.21.21 0 00-.019-.079m-9.345 0l-.73-1.933c-.098-.256-.72-.463-1.402-.463h-5.305c-.64 0-1.103.183-1.09.414 0 .018.006.468 0 .535 0 .018 0 .043.012.055.2.65.408 1.295.615 1.945.08.25.694.444 1.407.444h5.41c.639 0 1.096-.164 1.096-.383v-.54c.006-.02 0-.05-.013-.074m-9.344 0c-.202-.644-.397-1.289-.604-1.933-.073-.256-.688-.463-1.364-.463h-5.306c-.633 0-1.114.183-1.127.408 0 .018.007.492 0 .547 0 .018 0 .037.007.049.158.65.322 1.295.487 1.945.06.25.676.444 1.37.444h5.415c.64 0 1.11-.164 1.127-.383v-.56c0-.017 0-.036-.006-.054m-9.35 0c-.153-.644-.305-1.289-.463-1.933-.061-.256-.664-.463-1.34-.463h-5.294c-.645 0-1.139.183-1.157.414-.006.018.006.499 0 .547-.006.018 0 .03 0 .043.116.65.238 1.295.347 1.945.049.25.658.444 1.353.444h5.409c.64 0 1.126-.164 1.15-.389.007-.018-.005-.504 0-.553 0-.018 0-.037-.005-.055m-9.679-1.935c-.042-.256-.627-.457-1.31-.457h-5.292c-.695 0-1.207.2-1.176.456v.547c.067.645.14 1.296.22 1.94.024.25.59.444 1.303.444h5.403c.706 0 1.23-.195 1.187-.444v-.553c-.11-.645-.219-1.29-.335-1.934m-56.397-.457h-5.299c-.676 0-1.297.2-1.377.456-.188.65-.383 1.289-.572 1.94a.114.114 0 00-.012.048c.006.061 0 .53 0 .541 0 .225.487.408 1.133.408h5.415c.682 0 1.31-.2 1.358-.45l.475-1.94c.006-.018.006-.036.006-.048-.006-.055 0-.53 0-.542 0-.23-.493-.413-1.127-.413" fill="#818C91"/><path d="M100.031 144.839c-.11.249-.706.45-1.364.45h-4.995c-.64 0-1.066-.201-.938-.45a.556.556 0 01.043-.085c.121-.25.737-.45 1.37-.45h4.958c.646 0 1.066.2.963.45-.012.03-.025.054-.037.085m116.393 0c.128.249-.292.45-.944.45h-5c-.64 0-1.25-.201-1.36-.45-.011-.03-.018-.055-.036-.085-.11-.25.323-.45.956-.45h4.965c.64 0 1.255.2 1.376.45.013.03.03.054.043.085m-8.952 0c.11.249-.33.45-.975.45h-5c-.652 0-1.237-.201-1.328-.45-.007-.03-.019-.055-.03-.085-.092-.25.352-.45.986-.45h4.958c.652 0 1.255.2 1.352.45.019.03.025.054.037.085m-8.958 0c.09.249-.36.45-1.006.45h-5c-.646 0-1.225-.201-1.298-.45-.006-.03-.018-.055-.024-.085-.073-.25.39-.45 1.023-.45h4.964c.646 0 1.225.2 1.316.45.006.03.018.054.025.085m-8.953 0c.073.249-.396.45-1.041.45h-4.995c-.646 0-1.206-.201-1.26-.45a.447.447 0 01-.025-.085c-.055-.25.42-.45 1.06-.45h4.952c.645 0 1.212.2 1.285.45.006.03.018.054.024.085m-8.951 0c.054.249-.427.45-1.073.45h-4.995c-.651 0-1.194-.201-1.23-.45-.006-.03-.006-.055-.012-.085-.037-.25.444-.45 1.084-.45h4.958c.64 0 1.2.2 1.255.45.006.03.006.054.012.085m-8.953 0c.037.249-.457.45-1.102.45h-5.007c-.64 0-1.176-.201-1.194-.45 0-.03-.006-.055-.006-.085-.018-.25.481-.45 1.115-.45h4.97c.633 0 1.176.2 1.212.45.006.03.006.054.012.085m-8.952 0c.018.249-.493.45-1.133.45h-5c-.634 0-1.164-.201-1.17-.45v-.085c0-.25.524-.45 1.151-.45h4.964c.634 0 1.164.2 1.182.45 0 .03.006.054.006.085m-8.952 0c0 .249-.524.45-1.164.45h-5c-.64 0-1.158-.201-1.14-.45a.4.4 0 01.007-.085c.018-.25.548-.45 1.181-.45h4.965c.64 0 1.157.2 1.15.45v.085zm-8.952 0c-.019.249-.56.45-1.194.45h-5.007c-.64 0-1.14-.201-1.103-.45 0-.03.006-.055.012-.085.031-.25.58-.45 1.219-.45h4.958c.64 0 1.139.2 1.12.45 0 .03-.005.054-.005.085m-8.953 0c-.043.249-.591.45-1.237.45h-4.994c-.652 0-1.121-.201-1.066-.45l.018-.085c.049-.25.597-.45 1.242-.45h4.953c.645 0 1.133.2 1.096.45-.006.03-.012.054-.012.085m-8.952 0c-.055.249-.622.45-1.273.45h-4.995c-.646 0-1.109-.201-1.036-.45.006-.03.019-.055.025-.085.067-.25.633-.45 1.279-.45h4.952c.652 0 1.12.2 1.066.45l-.018.085m-8.953 0c-.073.249-.651.45-1.297.45h-5c-.653 0-1.097-.201-1.012-.45.012-.03.018-.055.03-.085.086-.25.67-.45 1.316-.45h4.958c.64 0 1.103.2 1.03.45-.006.03-.019.054-.025.085m-8.958 0c-.091.249-.676.45-1.328.45h-4.995c-.645 0-1.084-.201-.974-.45l.036-.085c.104-.25.707-.45 1.334-.45h4.965c.64 0 1.084.2.993.45-.013.03-.025.054-.03.085m-10.447 3.444c-.11.249-.725.45-1.395.45H92.01c-.658 0-1.09-.201-.969-.45.317-.645.634-1.296.956-1.94.116-.25.744-.45 1.383-.45h5.025c.652 0 1.085.2.975.45-.274.644-.56 1.295-.84 1.94m8.88 0c-.098.249-.701.45-1.371.45h-5.135c-.664 0-1.115-.201-1.005-.45l.816-1.94c.11-.25.719-.45 1.358-.45h5.026c.657 0 1.108.2 1.017.45-.238.644-.475 1.295-.707 1.94m8.864 0c-.074.249-.658.45-1.328.45h-5.141c-.658 0-1.121-.201-1.03-.45.232-.645.457-1.296.689-1.94.085-.25.676-.45 1.327-.45h5.02c.651 0 1.108.2 1.041.45-.195.644-.39 1.295-.578 1.94m8.874 0c-.054.249-.633.45-1.297.45h-5.141c-.652 0-1.139-.201-1.066-.45l.548-1.94c.073-.25.67-.45 1.304-.45h5.025c.652 0 1.127.2 1.072.45l-.445 1.94zm8.876 0c-.037.249-.603.45-1.273.45h-5.129c-.664 0-1.151-.201-1.096-.45.134-.645.274-1.296.414-1.94.06-.25.621-.45 1.273-.45h5.013c.658 0 1.145.2 1.109.45l-.311 1.94m8.875 0c-.025.249-.579.45-1.243.45h-5.135c-.658 0-1.163-.201-1.127-.45.098-.645.19-1.296.287-1.94.036-.25.59-.45 1.236-.45h5.025c.646 0 1.152.2 1.127.45-.055.644-.11 1.295-.17 1.94m8.869 0c-.006.249-.542.45-1.206.45h-5.135c-.658 0-1.175-.201-1.157-.45.049-.645.103-1.296.152-1.94.024-.25.56-.45 1.2-.45h5.025c.652 0 1.17.2 1.164.45a210.02 210.02 0 01-.043 1.94m8.875 0c.012.249-.512.45-1.17.45h-5.147c-.657 0-1.187-.201-1.181-.45 0-.645.012-1.296.012-1.94 0-.25.536-.45 1.175-.45h5.032c.645 0 1.17.2 1.181.45.037.644.067 1.295.098 1.94m8.875 0c.03.249-.487.45-1.145.45h-5.141c-.658 0-1.206-.201-1.225-.45l-.11-1.94c-.018-.25.5-.45 1.146-.45h5.025c.64 0 1.194.2 1.224.45.08.644.147 1.295.226 1.94m8.875 0c.043.249-.45.45-1.12.45h-5.13c-.663 0-1.23-.201-1.254-.45-.085-.645-.17-1.296-.244-1.94-.036-.25.463-.45 1.109-.45h5.019c.652 0 1.212.2 1.255.45.122.644.237 1.295.365 1.94m8.869 0c.061.249-.414.45-1.084.45h-5.135c-.658 0-1.243-.201-1.285-.45-.128-.645-.25-1.296-.384-1.94-.049-.25.439-.45 1.084-.45h5.025c.646 0 1.219.2 1.286.45.158.644.329 1.295.493 1.94m8.869 0c.086.249-.377.45-1.047.45h-5.135c-.658 0-1.255-.201-1.316-.45-.176-.645-.347-1.296-.511-1.94-.067-.25.402-.45 1.053-.45h5.02c.645 0 1.236.2 1.309.45l.627 1.94zm8.881 0c.098.249-.365.45-1.017.45h-5.147c-.658 0-1.26-.201-1.34-.45-.225-.645-.439-1.296-.652-1.94-.085-.25.378-.45 1.017-.45h5.032c.645 0 1.249.2 1.346.45.256.644.506 1.295.761 1.94m13.099 0c.128.249-.305.45-.975.45h-9.38c-.664 0-1.28-.201-1.383-.45a257.78 257.78 0 00-.78-1.94c-.09-.25.348-.45.987-.45h9.18c.657 0 1.273.2 1.395.45.322.644.64 1.295.956 1.94M97.105 158.61c-.11.248-.767.45-1.48.45h-8.6c-.714 0-1.195-.202-1.067-.45.317-.645.634-1.296.95-1.94.128-.244.792-.457 1.487-.457h8.43c.694 0 1.175.213 1.078.456-.268.645-.536 1.296-.798 1.94m10.029.001c-.085.248-.73.45-1.443.45h-5.55c-.718 0-1.212-.202-1.108-.45.262-.645.518-1.296.773-1.94.098-.244.744-.457 1.438-.457h5.433c.707 0 1.2.213 1.115.456l-.658 1.94zm9.589 0c-.067.248-.7.45-1.425.45h-5.543c-.707 0-1.225-.202-1.146-.45l.64-1.94c.085-.244.725-.457 1.42-.457h5.42c.713 0 1.23.213 1.164.456-.177.645-.353 1.296-.53 1.94m9.577.001c-.055.248-.664.45-1.39.45h-5.542c-.713 0-1.237-.202-1.17-.45.17-.645.341-1.296.506-1.94.067-.244.682-.457 1.376-.457h5.434c.706 0 1.224.213 1.175.456l-.39 1.94zm9.589 0c-.03.248-.64.45-1.358.45h-5.55c-.706 0-1.254-.202-1.206-.45l.372-1.94c.049-.244.664-.457 1.352-.457h5.446c.694 0 1.236.213 1.206.456-.092.645-.177 1.296-.262 1.94m9.583.001c-.019.248-.61.45-1.334.45H138.6c-.72 0-1.273-.202-1.237-.45l.238-1.94c.03-.244.621-.457 1.321-.457h5.422c.712 0 1.26.213 1.254.456l-.127 1.94zm9.583 0c0 .248-.573.45-1.292.45h-5.549c-.712 0-1.273-.202-1.26-.45l.11-1.94c.005-.244.578-.457 1.278-.457h5.434c.706 0 1.267.213 1.267.456.006.645.006 1.296.012 1.94m9.576.001c.019.248-.536.45-1.254.45h-5.543c-.713 0-1.298-.202-1.304-.45-.006-.645-.018-1.296-.024-1.94-.006-.244.56-.457 1.26-.457h5.434c.694 0 1.273.213 1.291.456l.14 1.94zm9.584 0c.036.248-.512.45-1.225.45h-5.543c-.712 0-1.315-.202-1.334-.45l-.158-1.94c-.024-.244.53-.457 1.224-.457h5.428c.712 0 1.297.213 1.333.456l.275 1.94m9.595.001c.054.248-.488.45-1.207.45h-5.543c-.718 0-1.327-.202-1.364-.45-.097-.645-.195-1.296-.299-1.94-.036-.244.506-.457 1.2-.457h5.434c.7 0 1.315.213 1.37.456l.408 1.94zm9.576 0c.067.248-.45.45-1.157.45h-5.556c-.718 0-1.327-.202-1.388-.45l-.427-1.94c-.055-.244.463-.457 1.164-.457h5.44c.694 0 1.309.213 1.382.456.177.645.36 1.296.542 1.94m9.589.001c.091.248-.414.45-1.14.45h-5.548c-.713 0-1.347-.202-1.42-.45-.188-.645-.377-1.296-.566-1.94-.073-.244.438-.457 1.139-.457h5.433c.707 0 1.34.213 1.432.456.225.645.444 1.296.67 1.94m20.243.001c.127.248-.354.45-1.072.45h-16.252c-.7 0-1.346-.202-1.437-.45l-.695-1.94c-.091-.244.402-.457 1.09-.457h15.923c.7 0 1.358.213 1.486.456.323.645.634 1.296.957 1.94m-20.915-8.824c-.098-.25.371-.45 1.03-.45h5.165c.664 0 1.285.2 1.388.45l.823 1.94c.103.243-.354.456-1.03.456h-5.275c-.682 0-1.303-.213-1.395-.456-.237-.645-.475-1.295-.706-1.94m15.138-.451h-5.165c-.658 0-1.109.2-.999.45l.84 1.946c.11.243.75.45 1.42.45h1.681c.45.99.908 1.988 1.364 2.985.11.25.768.45 1.468.45h2.437c.682 0 1.151-.2 1.035-.45-.889-1.794-1.772-3.587-2.661-5.381-.122-.25-.768-.45-1.42-.45m-24.126.451c-.073-.25.408-.45 1.078-.45h5.153c.664 0 1.273.2 1.37.45.226.645.457 1.295.689 1.94.091.243-.396.456-1.066.456h-5.281c-.676 0-1.292-.213-1.365-.456-.195-.645-.383-1.295-.578-1.94m-8.976 0c-.055-.25.432-.45 1.108-.45h5.153c.67 0 1.255.2 1.328.45.19.645.378 1.295.56 1.94.074.243-.413.456-1.102.456h-5.269c-.682 0-1.273-.213-1.334-.456a111.16 111.16 0 00-.444-1.94m-8.971 0c-.042-.25.47-.45 1.133-.45h5.153c.67 0 1.243.2 1.298.45.146.645.286 1.295.42 1.94.055.243-.445.456-1.12.456h-5.27c-.682 0-1.26-.213-1.303-.456l-.31-1.94m-8.977 0c-.024-.25.488-.45 1.158-.45h5.171c.652 0 1.224.2 1.267.45.097.645.189 1.295.286 1.94.043.243-.493.456-1.157.456h-5.281c-.682 0-1.249-.213-1.267-.456-.055-.645-.116-1.295-.177-1.94m-8.982 0c-.006-.25.53-.45 1.194-.45h5.16c.663 0 1.218.2 1.236.45.055.645.11 1.295.158 1.94.018.243-.511.456-1.194.456h-5.269c-.682 0-1.236-.213-1.242-.456-.012-.645-.025-1.295-.043-1.94m-8.976 0c.012-.25.566-.45 1.224-.45h5.165c.658 0 1.206.2 1.206.45.013.645.019 1.295.025 1.94.006.243-.548.456-1.225.456h-5.275c-.682 0-1.224-.213-1.212-.456l.092-1.94m-8.976 0c.03-.25.597-.45 1.26-.45h5.16c.664 0 1.181.2 1.17.45l-.11 1.94c-.013.243-.567.456-1.255.456h-5.263c-.682 0-1.212-.213-1.182-.456l.22-1.94m-8.976 0c.048-.25.621-.45 1.285-.45h5.171c.652 0 1.176.2 1.14.45-.08.645-.159 1.295-.244 1.94-.03.243-.615.456-1.285.456h-5.275c-.683 0-1.194-.213-1.152-.456.122-.645.238-1.295.36-1.94m-8.977 0c.067-.25.652-.45 1.322-.45h5.16c.663 0 1.156.2 1.108.45-.122.645-.25 1.295-.372 1.94-.049.243-.633.456-1.316.456h-5.274c-.683 0-1.182-.213-1.115-.456.164-.645.329-1.295.487-1.94m-8.975 0c.084-.25.675-.45 1.345-.45h5.16c.663 0 1.15.2 1.084.45l-.512 1.94c-.067.243-.664.456-1.352.456h-5.269c-.676 0-1.163-.213-1.084-.456.213-.645.42-1.295.627-1.94m-8.982 0c.104-.25.719-.45 1.389-.45h5.16c.657 0 1.132.2 1.047.45l-.64 1.94c-.085.243-.706.456-1.382.456h-5.27c-.682 0-1.163-.213-1.06-.456.25-.645.506-1.295.756-1.94m-13.247 0c.128-.25.755-.45 1.42-.45h9.428c.664 0 1.121.2 1.018.45-.262.645-.518 1.295-.78 1.94-.098.243-.731.456-1.407.456h-9.63c-.682 0-1.127-.213-1.005-.456.323-.645.633-1.295.956-1.94m24.43 10.326c.073-.25.706-.45 1.42-.45h8.63c.731 0 1.261.2 1.219.45-.134.645-.262 1.295-.396 1.934-.055.255-.676.456-1.42.456h-8.814c-.724 0-1.26-.201-1.187-.456l.548-1.934m61.197 0c-.042-.25.512-.45 1.225-.45h7.108c.719 0 1.352.2 1.407.45.14.645.287 1.295.427 1.934.06.255-.494.456-1.225.456h-7.26c-.725 0-1.347-.201-1.39-.456l-.292-1.934m-71.333 0c.092-.25.731-.45 1.456-.45h5.561c.725 0 1.237.2 1.17.45-.195.645-.39 1.295-.579 1.934-.073.255-.719.456-1.456.456h-5.683c-.73 0-1.249-.201-1.157-.456.231-.639.457-1.29.688-1.934m-9.696 0c.11-.25.774-.45 1.493-.45h5.573c.707 0 1.224.2 1.133.45-.232.645-.47 1.295-.707 1.934-.091.255-.767.456-1.492.456h-5.683c-.737 0-1.243-.201-1.14-.456.275-.639.55-1.29.823-1.934m-9.684 0c.128-.25.804-.45 1.517-.45h5.58c.712 0 1.199.2 1.095.45-.28.645-.56 1.295-.84 1.934-.116.255-.786.456-1.517.456H85.36c-.73 0-1.224-.201-1.096-.456.316-.639.633-1.29.95-1.934m87.852-.451h-44.191c-.713 0-1.34.2-1.383.45-.128.65-.25 1.295-.371 1.94-.055.255.505.45 1.236.45h45.087c.737 0 1.291-.195 1.26-.45l-.273-1.94c-.037-.25-.646-.45-1.365-.45m22.83 2.387c.073.255-.463.45-1.194.45h-5.683c-.737 0-1.376-.195-1.431-.45-.159-.638-.305-1.289-.451-1.934-.06-.249.481-.456 1.2-.456h5.567c.713 0 1.359.207 1.426.456.189.645.377 1.296.566 1.934m20.57-.333c-.11-.249.39-.45 1.12-.45h5.63c.724 0 1.412.201 1.534.45l.165.335c.121.255-.372.45-1.097.45h-5.689c-.731 0-1.407-.195-1.517-.45l-.146-.335m-10.38-1.603c-.097-.25.408-.45 1.127-.45h5.573c.72 0 1.377.2 1.487.45.274.645.548 1.295.822 1.934.11.255-.396.456-1.127.456h-5.69c-.73 0-1.394-.201-1.485-.456a192.25 192.25 0 01-.707-1.934m-9.22 1.603c-.073-.249.457-.45 1.175-.45h5.64c.726 0 1.39.201 1.475.45.043.11.08.225.122.335.091.255-.433.45-1.17.45h-5.683c-.725 0-1.389-.195-1.456-.45-.036-.11-.067-.225-.103-.335" fill="#30373D"/><path d="M206.484 153.23c-.097-.256.378-.457 1.06-.457h5.3c.676 0 1.321.2 1.431.456.286.645.579 1.29.865 1.934.11.249-.365.456-1.06.456h-5.409c-.688 0-1.334-.207-1.431-.456-.25-.645-.506-1.29-.756-1.934m-9.208.001c-.085-.256.396-.457 1.085-.457h5.305c.676 0 1.304.2 1.395.456l.73 1.934c.098.249-.383.456-1.077.456h-5.415c-.707 0-1.328-.207-1.401-.456-.213-.645-.42-1.29-.622-1.934m-9.22.001c-.067-.256.439-.457 1.121-.457h5.305c.677 0 1.292.2 1.365.456.2.645.402 1.29.603 1.934.079.249-.427.456-1.12.456h-5.416c-.7 0-1.31-.207-1.37-.456-.165-.645-.33-1.29-.488-1.934m-9.214.001c-.049-.256.475-.457 1.157-.457h5.3c.676 0 1.279.2 1.334.456.164.645.31 1.29.463 1.934.067.249-.451.456-1.146.456h-5.409c-.694 0-1.303-.207-1.346-.456-.115-.645-.231-1.29-.353-1.934m-9.202.001c-.03-.256.481-.457 1.176-.457h5.293c.688 0 1.273.2 1.31.456.115.645.225 1.29.335 1.934.042.249-.482.456-1.182.456h-5.41c-.706 0-1.278-.207-1.303-.456-.079-.645-.146-1.29-.219-1.934m-9.22.001c-.012-.256.536-.457 1.212-.457h5.293c.682 0 1.261.2 1.292.456.067.645.134 1.29.195 1.934.024.249-.518.456-1.219.456h-5.403c-.7 0-1.273-.207-1.285-.456-.03-.645-.06-1.29-.085-1.934m-9.208.001c0-.256.554-.457 1.236-.457h5.294c.688 0 1.242.2 1.254.456.019.645.043 1.29.067 1.934.006.249-.554.456-1.248.456h-5.41c-.694 0-1.254-.207-1.242-.456.012-.645.03-1.29.049-1.934m-9.22.001c.018-.256.597-.457 1.273-.457h5.299c.682 0 1.224.2 1.218.456-.024.645-.048 1.29-.067 1.934-.006.249-.578.456-1.273.456h-5.421c-.688 0-1.236-.207-1.212-.456.055-.645.116-1.29.183-1.934m-9.221.001c.043-.256.634-.457 1.316-.457h5.3c.676 0 1.205.2 1.175.456-.06.645-.128 1.29-.195 1.934-.03.249-.615.456-1.31.456h-5.402c-.7 0-1.237-.207-1.194-.456l.31-1.934m-9.208.001c.061-.256.658-.457 1.34-.457h5.306c.67 0 1.188.2 1.139.456-.104.645-.22 1.29-.33 1.934-.042.249-.645.456-1.327.456h-5.421c-.694 0-1.212-.207-1.151-.456.146-.645.298-1.29.444-1.934m-9.213.001c.078-.256.694-.457 1.376-.457h5.3c.663 0 1.175.2 1.114.456-.152.645-.31 1.29-.47 1.934-.054.249-.675.456-1.358.456h-5.415c-.694 0-1.2-.207-1.126-.456.194-.645.39-1.29.578-1.934m-9.208.001c.098-.256.713-.457 1.395-.457h5.305c.677 0 1.164.2 1.085.456-.195.645-.396 1.29-.597 1.934-.08.249-.707.456-1.401.456h-5.415c-.695 0-1.182-.207-1.085-.456l.713-1.934m-16.536.001c.128-.256.773-.457 1.45-.457h12.602c.676 0 1.151.2 1.054.456-.244.645-.487 1.29-.737 1.934-.085.249-.731.456-1.425.456H88.69c-.7 0-1.163-.207-1.042-.456.323-.645.634-1.29.957-1.934" fill="#30373D"/><path d="M229.011 137.244a5.084 5.084 0 01-5.092 5.077H85.071a5.084 5.084 0 01-5.093-5.077V62.758a5.084 5.084 0 015.093-5.077h138.848a5.086 5.086 0 015.092 5.083v74.48z" fill="#FBFBFB"/><path fill="#E3E4E8" d="M89.509 66.173h129.29v29.778H89.509z"/><path d="M89.509 115.39h35.638v.826H89.509zm0 4.824h35.638v.827H89.509zm0 4.826h35.638v.826H89.509zm0 4.824h35.638v.827H89.509zm47.241-14.474h35.637v.826H136.75zm0 4.824h35.637v.827H136.75zm0 4.826h35.637v.826H136.75zm0 4.824h35.637v.827H136.75zm47.24-14.474h35.638v.826H183.99zm0 4.824h35.638v.827H183.99zm0 4.826h35.638v.826H183.99zm0 4.824h35.638v.827H183.99z" fill="#D0D1D8"/><ellipse fill="#E3E4E8" cx="107.742" cy="106.704" rx="6.63" ry="6.617"/><ellipse fill="#E3E4E8" cx="154.983" cy="106.704" rx="6.63" ry="6.617"/><ellipse fill="#E3E4E8" cx="202.223" cy="106.704" rx="6.63" ry="6.617"/><path d="M109.697 74.209a65.92 65.92 0 00-.846 3.128c-.244 1.001-.365 1.867-.365 2.597v4.415c.199.022.315.033.348.033a5.14 5.14 0 01.266-.017c.044 0 .066.067.066.2 0 .287-.033.464-.1.53-.066.067-.22.1-.464.1-.609 0-1.364-.02-2.266-.058a331.48 331.48 0 00-2.796-.108h-4.896a7.08 7.08 0 01-.415.017c-.221 0-.401-.033-.54-.1-.138-.066-.207-.193-.207-.381 0-.078.064-.144.191-.2.127-.055.29-.082.49-.082a2.877 2.877 0 01-.034-.515c0-.62.023-1.272.067-1.958.044-.686.133-1.5.265-2.44.2-1.062.343-1.842.432-2.34.166-.907.249-1.748.249-2.523 0-.121.055-.285.166-.49.11-.204.221-.306.332-.306.221 0 .365.08.431.24.067.16.1.396.1.706v.498c0 .365-.122 1.194-.365 2.489-.155.808-.26 1.444-.316 1.909-.121.896-.238 1.8-.348 2.713-.11.913-.166 1.574-.166 1.983l1.045-.05c.388-.033.77-.05 1.146-.05.22 0 .525.006.912.017.388.011.653.017.797.017a11.46 11.46 0 01-.158-1.236 18.738 18.738 0 01-.058-1.502c0-.277.047-.797.141-1.56.094-.764.219-1.55.374-2.357.11-.587.215-1.2.315-1.842.055-.354.108-.706.158-1.054.05-.349.15-.609.298-.78a.691.691 0 01.54-.257c.088 0 .171.044.249.132a.442.442 0 01.116.299c0 .155-.05.537-.15 1.145-.099.609-.229 1.38-.39 2.315-.16.935-.268 1.569-.323 1.9-.221 1.218-.332 1.904-.332 2.059 0 .42-.005.769-.017 1.045a862.8 862.8 0 00-.066 1.71c.874 0 1.626.005 2.257.016.63.011 1.184.022 1.66.033a.902.902 0 01-.033-.249v-.215c0-.078.005-.227.016-.448.011-.222.017-.415.017-.581v-2.954c0-1.384.15-2.7.448-3.95.343-1.45.752-2.175 1.228-2.175.133 0 .254.05.365.15.11.1.166.227.166.382zm10.875 8.397c0 .122-.282.376-.847.764-.564.387-1.095.691-1.593.913a8.581 8.581 0 01-1.767.605 7.892 7.892 0 01-1.701.191c-.355 0-.81-.205-1.37-.614-.558-.41-.926-.846-1.103-1.311a22.7 22.7 0 01-.266 1.162c-.122.431-.293.647-.514.647-.233 0-.393-.072-.482-.216-.044-.066-.094-.249-.149-.547a17.368 17.368 0 01-.183-2.506c0-.454-.033-.814-.1-1.08a14.763 14.763 0 01-.248-.746c0-.133.041-.246.124-.34a.411.411 0 01.324-.141c.243 0 .46.149.647.448.188.298.282.691.282 1.178 0 .266.011.606.034 1.02l.033.64c.077-.321.193-.648.348-.98.2-.42.443-.79.73-1.111.355-.377.659-.653.913-.83.343-.244.67-.365.98-.365.188 0 .367.074.539.224.171.149.257.296.257.44 0 .199-.083.381-.249.547-.166.166-.41.31-.73.432a4.36 4.36 0 00-.938.498c-.304.21-.523.431-.655.663.199.531.426.946.68 1.245.42.51.918.764 1.494.764.498 0 .946-.053 1.344-.158.398-.105.896-.28 1.494-.523.498-.2 1.007-.442 1.527-.73.243-.133.486-.271.73-.415h.249c.11 0 .166.077.166.232zm4.618-2.788c0 .2-.1.343-.299.432a1.25 1.25 0 01-.481.083c.088.21.163.473.224.788.06.315.091.584.091.805 0 .686-.21 1.36-.63 2.025-.487.763-1.063 1.145-1.727 1.145-.52 0-.97-.163-1.352-.49-.382-.326-.592-.716-.63-1.17a13.392 13.392 0 01-.059-1.079c0-.398.025-.744.075-1.037.05-.293.13-.622.24-.987.078-.255.233-.526.465-.814.232-.287.415-.431.548-.431.276 0 .415.133.415.398 0 .133-.05.31-.15.531l-.282.63c-.11.31-.196.695-.257 1.154-.061.46-.091.905-.091 1.336 0 .266.094.498.282.697.188.2.442.3.763.3.299 0 .581-.222.847-.665.265-.442.398-.896.398-1.36a8.64 8.64 0 00-.075-1.287c-.05-.315-.119-.54-.207-.672-.277-.088-.476-.171-.598-.249-.21-.133-.315-.282-.315-.448 0-.432.171-.675.514-.73a.861.861 0 01.747.2c.122.098.277.276.465.53.21.022.426.039.647.05.288.044.432.15.432.315zm13.795 2.938c0 .066-.138.199-.415.398a18.41 18.41 0 01-.995.647 10.14 10.14 0 01-1.627.813c-.542.21-.979.316-1.31.316-.753 0-1.257-.15-1.511-.448-.255-.3-.382-.874-.382-1.726v-1.411c-.188.354-.39.689-.606 1.004a15.77 15.77 0 01-.738.988c-.42.53-.802.912-1.145 1.145-.443.298-.957.448-1.544.448-.487 0-.954-.23-1.402-.689-.448-.46-.672-.882-.672-1.27 0-.132.055-.284.166-.456.11-.171.249-.257.415-.257.254 0 .434.036.539.108.105.072.158.273.158.605 0 .764.354 1.146 1.062 1.146.31 0 .653-.166 1.029-.498.299-.266.641-.664 1.029-1.195.254-.354.52-.764.796-1.228a8.33 8.33 0 00.614-1.212.785.785 0 01.357-.448c.172-.1.313-.15.423-.15.288 0 .485.073.59.216.105.144.157.349.157.614 0 .089-.033.399-.1.93-.066.53-.099.907-.099 1.128 0 .598.053 1.035.158 1.311.105.277.34.415.705.415.387 0 .775-.072 1.162-.215.276-.1.683-.296 1.22-.59.536-.293.893-.484 1.07-.572.299-.155.504-.232.614-.232.188 0 .282.121.282.365zm9.647-.382c0 .1-.166.304-.498.614-.398.365-.824.68-1.278.946a9.916 9.916 0 01-1.991.888 6.26 6.26 0 01-1.843.29c-.53 0-.935-.268-1.211-.805-.277-.536-.415-1.347-.415-2.43-.343.685-.647 1.21-.913 1.576-.564.785-1.095 1.178-1.593 1.178-.454 0-.755-.127-.905-.382-.149-.254-.224-.67-.224-1.244 0-.764.266-1.632.797-2.606.664-1.206 1.455-1.809 2.373-1.809.343 0 .592.033.747.1.155.066.338.204.548.414.121-.022.238.064.348.258.11.193.166.412.166.655 0 .299-.016.758-.05 1.378-.033.62-.05 1.012-.05 1.178 0 .52.04.869.117 1.046.133.31.41.464.83.464.409 0 .769-.033 1.078-.1.543-.11 1.123-.342 1.743-.696.387-.21.874-.565 1.46-1.062.244-.2.377-.3.399-.3.276.045.398.194.365.449zm-7.336-2.19a.711.711 0 00.05-.25c0-.298-.127-.448-.382-.448-.453 0-.932.385-1.435 1.154-.504.769-.755 1.391-.755 1.867 0 .243.02.453.058.63.039.177.102.266.19.266.277 0 .78-.63 1.511-1.892l.763-1.328zm26.778-6.473c0 .166-.01.27-.033.315-.022.044-.105.066-.249.066l-.846-.066a60.713 60.713 0 00-.863 3.294c-.232 1.013-.349 1.867-.349 2.565 0 .53.02 1.172.058 1.925.04.752.08 1.549.125 2.39v.331c0 .189-.022.319-.066.39-.045.072-.155.108-.332.108-.266 0-.43-.323-.49-.97a210.54 210.54 0 00-.141-1.461 34.923 34.923 0 01-.1-1.278 25.139 25.139 0 01-.05-1.585c0-1.018.144-2.14.432-3.369a30.77 30.77 0 01.714-2.456l-1.179-.125a11.31 11.31 0 00-.979-.074c-.276 0-.741.088-1.394.265-.42.122-.835.238-1.245.349-.376 1.128-.735 2.824-1.078 5.087-.343 2.262-.515 3.93-.515 5.003a.695.695 0 01-.14.423.442.442 0 01-.374.191c-.11 0-.194-.119-.25-.356a4.093 4.093 0 01-.082-.905c0-.431.033-1.06.1-1.884a96.54 96.54 0 01.24-2.555c.094-.88.235-1.95.423-3.212.078-.53.16-1.068.25-1.61h-.283a.897.897 0 01-.398-.074c-.1-.05-.15-.153-.15-.307 0-.111.108-.227.324-.349.216-.122.401-.2.556-.232 0-.2.05-.376.15-.531.099-.155.226-.233.381-.233.255 0 .443.045.564.133.122.089.2.227.233.415.298-.1.727-.19 1.286-.274a9.845 9.845 0 011.402-.124c.874 0 1.818.085 2.83.257 1.012.171 1.518.346 1.518.523zm5.332 6.107c0 .2-.1.343-.299.432a1.25 1.25 0 01-.481.083c.089.21.163.473.224.788.06.315.091.584.091.805 0 .686-.21 1.36-.63 2.025-.487.763-1.062 1.145-1.726 1.145-.52 0-.971-.163-1.353-.49-.382-.326-.592-.716-.63-1.17a13.392 13.392 0 01-.059-1.079c0-.398.025-.744.075-1.037.05-.293.13-.622.24-.987.078-.255.233-.526.465-.814.233-.287.415-.431.548-.431.277 0 .415.133.415.398 0 .133-.05.31-.15.531l-.282.63c-.11.31-.196.695-.257 1.154-.06.46-.091.905-.091 1.336 0 .266.094.498.282.697.188.2.443.3.763.3.3 0 .581-.222.847-.665.265-.442.398-.896.398-1.36 0-.543-.025-.971-.074-1.287-.05-.315-.12-.54-.208-.672-.277-.088-.476-.171-.597-.249-.21-.133-.316-.282-.316-.448 0-.432.172-.675.515-.73a.861.861 0 01.747.2c.121.098.276.276.464.53.21.022.426.039.648.05.287.044.431.15.431.315zm11.887 2.788c0 .122-.282.376-.846.764-.565.387-1.096.691-1.594.913a8.581 8.581 0 01-1.767.605 7.885 7.885 0 01-1.701.191c-.354 0-.81-.205-1.37-.614-.558-.41-.926-.846-1.103-1.311-.11.531-.2.918-.266 1.162-.121.431-.293.647-.514.647-.232 0-.393-.072-.481-.216-.045-.066-.094-.249-.15-.547a17.368 17.368 0 01-.183-2.506c0-.454-.032-.814-.099-1.08a14.762 14.762 0 01-.249-.746c0-.133.042-.246.125-.34a.411.411 0 01.323-.141c.244 0 .46.149.648.448.188.298.282.691.282 1.178 0 .266.01.606.033 1.02l.033.64c.078-.321.194-.648.349-.98.199-.42.442-.79.73-1.111.354-.377.658-.653.913-.83.343-.244.669-.365.979-.365.188 0 .368.074.54.224.17.149.256.296.256.44 0 .199-.083.381-.248.547-.166.166-.41.31-.73.432a4.29 4.29 0 00-.938.498c-.305.21-.523.431-.656.663.2.531.426.946.68 1.245.42.51.919.764 1.494.764.498 0 .946-.053 1.344-.158.399-.105.897-.28 1.494-.523.498-.2 1.007-.442 1.527-.73.243-.133.487-.271.73-.415h.25c.11 0 .165.077.165.232zm8.17.233c0 .132-.277.387-.83.763-.553.376-1.107.692-1.66.946a8.175 8.175 0 01-1.734.573 8.27 8.27 0 01-1.701.19c-.653 0-1.223-.182-1.71-.547-.608-.454-.912-1.096-.912-1.925 0-.222-.003-.451-.009-.69a31.792 31.792 0 01-.008-.738c0-.232.005-.456.017-.672.01-.216.033-.412.066-.589.077-.387.299-.71.664-.97.365-.26.752-.39 1.162-.39.564 0 1.084.132 1.56.397.542.31.813.703.813 1.179 0 .442-.155.802-.465 1.079-.221.199-.564.376-1.029.53-.332.1-.639.203-.921.308-.282.105-.584.218-.904.34 0 .42.132.797.398 1.128.332.42.796.631 1.394.631.52 0 1.02-.055 1.502-.166a13.89 13.89 0 001.635-.498 11.86 11.86 0 001.51-.713c.476-.266.72-.399.73-.399.188 0 .307.014.357.042.05.027.075.091.075.19zm-5.477-2.473c0-.21-.125-.368-.374-.473-.249-.105-.567-.158-.954-.158-.122 0-.268.072-.44.216-.171.144-.268.28-.29.406a8.337 8.337 0 00-.066.764c-.023.382-.034.606-.034.672a6.56 6.56 0 00.797-.265c.343-.133.608-.247.797-.34.188-.095.329-.22.423-.374a.865.865 0 00.14-.448zm10.592 1.062c0 .797-.22 1.615-.663 2.456-.498.94-1.068 1.41-1.71 1.41-.387 0-.713-.12-.979-.364s-.398-.587-.398-1.03c0-.707.143-1.061.431-1.061.266 0 .398.121.398.365l.017.547a.99.99 0 00.108.449c.072.143.18.215.324.215.365 0 .686-.243.962-.73.343-.597.515-1.405.515-2.423a.98.98 0 00-.332-.763c-.222-.2-.46-.3-.714-.3-.265 0-.534.087-.805.258-.27.172-.55.44-.838.805l-.116.664a17.38 17.38 0 00-.133 2.124c0 .266.006.708.017 1.328l.016.979c0 .531.033 1.093.1 1.685.066.592.105.943.116 1.053 0 .144.1.399.299.764.11.199.166.354.166.465 0 .31-.039.517-.116.622-.078.105-.266.158-.565.158-.232 0-.412-.15-.54-.449-.126-.298-.19-.674-.19-1.128l-.183-3.253v-2.937c0-.576.028-1.19.083-1.843.133-1.57.2-2.378.2-2.423 0-.121-.025-.262-.075-.423l-.158-.506c0-.21.036-.351.108-.423.072-.072.197-.108.374-.108s.329.094.456.282a.98.98 0 01.19.548v1.593c.244-.266.471-.46.681-.581a1.948 1.948 0 011.013-.266c.453 0 .88.2 1.278.598.442.442.663.99.663 1.643zm12.087.946c0 .1-.166.304-.498.614-.399.365-.825.68-1.278.946a9.916 9.916 0 01-1.992.888 6.26 6.26 0 01-1.842.29c-.531 0-.935-.268-1.211-.805-.277-.536-.415-1.347-.415-2.43-.343.685-.648 1.21-.913 1.576-.564.785-1.095 1.178-1.593 1.178-.454 0-.755-.127-.905-.382-.15-.254-.224-.67-.224-1.244 0-.764.266-1.632.797-2.606.664-1.206 1.455-1.809 2.373-1.809.343 0 .592.033.747.1.155.066.337.204.547.414.122-.022.238.064.349.258.11.193.166.412.166.655 0 .299-.017.758-.05 1.378-.033.62-.05 1.012-.05 1.178 0 .52.04.869.117 1.046.132.31.409.464.83.464.409 0 .768-.033 1.078-.1.542-.11 1.123-.342 1.743-.696.387-.21.874-.565 1.46-1.062.244-.2.376-.3.399-.3.276.045.398.194.365.449zm-7.336-2.19a.711.711 0 00.05-.25c0-.298-.127-.448-.382-.448-.453 0-.932.385-1.435 1.154-.504.769-.756 1.391-.756 1.867 0 .243.02.453.059.63.038.177.102.266.19.266.277 0 .78-.63 1.51-1.892l.764-1.328z" fill="#68696D"/><path d="M224.455 137.244a.536.536 0 01-.536.535H85.07a.536.536 0 01-.536-.535V62.758c0-.292.238-.53.536-.53h138.85c.298 0 .536.244.536.536v74.48zm-.536-79.563H85.07a5.084 5.084 0 00-5.092 5.077v74.486a5.084 5.084 0 005.092 5.077h138.85a5.084 5.084 0 005.092-5.077v-74.48a5.086 5.086 0 00-5.092-5.083z" fill="#1A1D26"/><path fill="#FFF" d="M2.333 185.325h68.812v-8.738H2.333z"/><path fill="#EFF6E7" d="M2.333 184.529h68.812v-.475H2.333zm0-1.35h68.812v-.469H2.333zm0-1.344h68.812v-.468H2.333zm0-1.338h68.812v-.468H2.333zm0-1.35h68.812v-.468H2.333zm0-1.344h68.812v-.468H2.333z"/><path d="M74.554 179.992v2.627a3.41 3.41 0 01-3.41 3.405H.003v1.702h71.14c2.82 0 5.122-2.286 5.122-5.107v-2.627c0-2.815-2.303-5.108-5.123-5.108H.004v1.703h71.14a3.41 3.41 0 013.41 3.405" fill="#595959"/><path d="M71.146 176.59v8.737H2.334v-3.247l-2.333 3.946h71.145a3.412 3.412 0 003.411-3.411v-2.62a3.41 3.41 0 00-3.41-3.406" fill="#2A2A2A"/><path fill="#595959" d="M15.588 150.32L.001 174.885h71.175l5.677-24.565z"/><path d="M76.268 179.992v2.627c0 .2-.019.395-.043.583 0 0 5.05-25.702 5.05-25.811v-2.67a4.402 4.402 0 00-4.398-4.402h-.025l-5.677 24.565c2.815.018 5.093 2.299 5.093 5.108" fill="#404040"/><use fill="url(#a)" xlink:href="#b"/><use fill="#E6E6E6" xlink:href="#b"/><path fill="#50936E" d="M9.125 174.879h57.129v-1.824H9.124z"/><path d="M24.145 174.879h7.822v-12.392h-7.822z"/><path fill="#50936E" d="M9.125 164.317h57.129v-1.824H9.124z"/><path fill="#79C3C9" d="M9.122 162.492H66.25l4.459-16.065H19.27z"/><path fill="#2B513C" d="M70.486 150.414l-3.35 12.198v5.223l3.332-12.507z"/><path fill="#2B513C" d="M67.137 162.611l3.551-12.927.025-3.253-4.465 16.059v12.392l4.41-17.05.006-3.229-3.527 13.231z"/><path d="M74.12 151.644c0-1.222.146-2.444.45-3.636l2.413-9.76v-2.413L73.93 147.85a15.064 15.064 0 00-.475 3.794v10.586c0 .17.128.262.256.262.097 0 .207-.067.25-.201l3.02-14.873v-2.876l-2.862 13.572v-6.47z" fill="#E0E0E0"/><path d="M73.454 162.231v-10.586c0-.644.037-1.289.128-1.933H2.474v12.78H73.71v-.011c-.128 0-.256-.086-.256-.25" fill="#CECECE"/><path d="M73.454 162.231v-1.392H2.474v1.654H73.71v-.012c-.128 0-.256-.086-.256-.25" fill="#C1C1C1"/><path fill="#84CEA0" d="M15.46 162.493h12.93v-12.781H15.459z"/><path fill="#84CDA0" d="M15.46 162.493h12.93v-1.648H15.459z"/><path d="M73.58 149.714H2.47v1.648h70.987c.012-.547.049-1.095.122-1.648" fill="#D8D8D8"/><path fill="#84CDA0" d="M15.46 151.36h12.93v-1.648H15.459z"/><path d="M73.93 147.85l3.052-12.016H12.39l-9.917 13.882h71.103c.079-.626.195-1.247.353-1.867" fill="#E5E5E5"/><path d="M74.573 148.01a14.611 14.611 0 00-.451 3.636v6.47l2.589-12.259v-6.488l-2.138 8.64z" fill="#F4F4F4"/><path d="M22.75 125.45l-8.973 12.843a5.489 5.489 0 014.508-2.353h48.169l4.136-12.435H26.684a5.004 5.004 0 00-3.935 1.946" fill="#6CAD84"/><path d="M67.869 135.45v.305l-3.673 11.51H18.28l-.371.584c.122.012.25.037.371.037h48.175l3.783-12.435h-2.37z" fill="#3C7254"/><path fill="#F4F4F4" d="M66.453 137.766h-2.254v9.498l3.667-11.51v-2.31z"/><path fill="#E6E6E6" d="M18.28 147.267h45.915v-9.498H18.28z"/><path fill="#CCC" d="M18.28 139.144h45.915v-.517H18.28zm0 1.459h45.915v-.51H18.28zm0 1.465h45.915v-.51H18.28zm0 1.466h45.915v-.511H18.28zm0 1.459h45.915v-.51H18.28zm0 1.465h45.915v-.516H18.28z"/><path d="M14.624 144.233v-2.821c0-2.013 1.651-3.643 3.661-3.643h48.17v-1.83h-48.17c-3.027 0-5.488 2.45-5.488 5.473v2.821c0 3.022 2.46 5.479 5.488 5.479h48.17v-1.825h-48.17a3.669 3.669 0 01-3.66-3.654" fill="#50936E"/><path d="M18.282 137.766c-2.01 0-3.66 1.636-3.66 3.649v2.815c0 1.891 1.455 3.423 3.282 3.618l.378-.584v-9.498z" fill="#48494F"/><path fill="#3C7254" d="M66.453 135.937l4.136-12.434v1.593l-4.136 12.672z"/><path fill="#6CAD84" d="M66.453 149.714v-1.83l3.783-12.435v1.684z"/><path d="M160.075 189.902c-.08-.499-.298-1.125-.847-1.508l-28.14 2.694c.31.14.541.42.584.772.024.31-.11.584-.317.79l28.72-2.748z" fill="#585C60"/><path d="M130.636 191.013l-4.994.492a.775.775 0 00-.311.098.922.922 0 00-.566.54l-2.023 5.321a.958.958 0 00.555 1.228.951.951 0 001.224-.553l1.815-4.797 4.471-.438a.957.957 0 00.865-1.04.957.957 0 00-1.036-.851" fill="#383C3F"/><path d="M150.558 191.066l-28.123-2.62c-.555.383-.774 1.003-.86 1.501l28.727 2.676c-.213-.2-.353-.474-.323-.784a.971.971 0 01.579-.773" fill="#585C60"/><path d="M151.016 190.99l4.994.473a.816.816 0 01.311.104.91.91 0 01.567.535l2.022 5.314a.956.956 0 01-.536 1.234.958.958 0 01-1.23-.547l-1.828-4.791-4.47-.432a.955.955 0 01-.866-1.04.953.953 0 011.036-.85" fill="#383C3F"/><path d="M152.74 198.708c-6.693.006-7.954-2.657-8.168-8.233 0-.079.013-2.043 1.176-2.304.012-.012.03-.012.043-.025 1.809-.516 4.099-.808 6.469-.808 2.29-.006 4.446.255 6.243.754.012.012.043.018.067.012 1.45.316 1.565 1.897 1.565 2.377.007 4.938-1.254 8.221-7.394 8.227m-23.805.03c-6.146.013-7.413-3.27-7.425-8.202.006-.486.116-2.073 1.56-2.377a.344.344 0 00.073-.025c1.784-.498 3.94-.766 6.237-.772 2.37 0 4.666.286 6.469.803 0 0 .03.006.049.012 1.17.267 1.175 2.225 1.175 2.304-.195 5.576-1.462 8.252-8.138 8.258m34.574-11.42c-.737-.23-10.848-3.076-17.92-.942-.792.237-1.37.614-1.797 1.058-1.98 1.27-3.966 1.27-5.945.012-.433-.45-1.005-.82-1.791-1.058-7.084-2.116-17.195.76-17.926.985-.737.231 0 3.26.542 3.26.53 0 .974-.031 1.041 1.228.232 3.91 1.706 8.421 9.247 8.415 6.353-.006 8.759-2.45 9.581-6.354.195-.906.628-3.32 2.284-3.32 1.639-.006 2.096 2.463 2.297 3.38.853 3.868 3.27 6.276 9.587 6.264 7.541-.006 9.015-4.524 9.222-8.44.073-1.259.518-1.228 1.054-1.228.53 0 1.261-3.028.524-3.26" fill="#1C2329"/><path d="M226.418 41.209c0 .906-.75 1.653-1.663 1.653h-17.878a1.661 1.661 0 01-1.656-1.653V23.362c0-.918.743-1.66 1.656-1.66h17.878c.914 0 1.663.742 1.663 1.66V41.21z" fill="#B2B2B2"/><path fill="#919191" d="M207.009 41.308h16.3V25.043h-16.3z"/><path fill="#F1F2F2" d="M207.66 40.658h16.3V24.392h-16.3z"/><path fill="#4192C8" d="M207.66 29.816h16.3v-5.418h-16.3z"/><path d="M215.002 37.83v1.222h-4.184l-.006-.808c.012-.25.158-.584.432-1.01.012-.012.317-.437.914-1.277.87-1.203 1.31-2.2 1.31-2.991 0-.371-.08-.633-.256-.772-.11-.104-.299-.152-.536-.152-.226 0-.396.133-.536.395a1.45 1.45 0 00-.153.644v.268h-1.23v-.268c0-.887.237-1.526.706-1.903.33-.267.768-.395 1.31-.395.603 0 1.09.176 1.48.529.427.401.64.985.64 1.739 0 .82-.317 1.72-.98 2.688-.165.255-.446.626-.83 1.13a13.91 13.91 0 00-.7.961h2.62zm5.771-1.253c0 .845-.244 1.484-.731 1.952-.408.383-.914.571-1.505.571-1.291 0-1.998-.693-2.114-2.073h1.328c.092.493.348.73.75.73a.723.723 0 00.536-.207c.2-.207.298-.523.298-.973 0-.365-.091-.663-.292-.894-.207-.25-.482-.37-.829-.37h-.444V34.06h.444c.244-.025.457-.128.652-.329.201-.219.298-.474.298-.766 0-.626-.231-.936-.694-.936-.341 0-.542.267-.615.809h-1.249c.073-1.387.731-2.08 1.962-2.08.548 0 .992.17 1.327.499.42.395.616.966.616 1.708 0 .712-.268 1.24-.792 1.593.292.17.542.444.737.803.207.377.317.778.317 1.216" fill="#48494F"/><path d="M222.266 25.818a1.114 1.114 0 01-2.23 0 1.116 1.116 0 112.23 0" fill="#383C40"/><path d="M221.165 26.43h-.03a.761.761 0 01-.761-.76v-.086c-.195-.079-.317-.34-.317-.754 0-.407.122-.87.317-1.259v-1.945c-.835 1.04-1.444 2.724-1.444 4.14 0 1.697.871 2.348 1.95 1.46.359-.298.687-.736.974-1.24a.748.748 0 01-.689.443" fill="#919191"/><path d="M221.932 25.67c0 .419-.34.76-.767.76h-.03a.76.76 0 01-.756-.76v-4.598c0-.42.341-.76.755-.76h.03c.427 0 .768.34.768.76v4.597z" fill="#E0E0E0"/><path d="M211.368 25.818a1.116 1.116 0 11-2.23-.006 1.116 1.116 0 012.23.006" fill="#383C40"/><path d="M211.03 25.67c0 .419-.348.76-.768.76h-.03a.761.761 0 01-.762-.76v-4.598c0-.42.34-.76.761-.76h.03c.42 0 .768.34.768.76v4.597z" fill="#E0E0E0"/><path d="M210.262 26.43h-.03a.761.761 0 01-.762-.76v-.086c-.19-.079-.317-.34-.317-.754 0-.407.128-.87.317-1.259v-1.945c-.835 1.04-1.438 2.724-1.438 4.14 0 1.697.865 2.348 1.943 1.46.36-.298.689-.736.975-1.24a.748.748 0 01-.688.443" fill="#919191"/><path d="M157.69 15.156l-.03-.091c-.652-1.569-1.536-3.734-5.653-3.734h-.086c-4.117 0-5.006 2.159-5.652 3.734l-.043.091c-.085.225-.207.42-.34.608.304-.079.626-.091.937-.049.049-.085.098-.17.14-.255l.037-.091c.633-1.526 1.334-3.253 4.921-3.253h.086c3.581 0 4.288 1.727 4.91 3.253l.042.091c.036.085.091.158.128.243a2.42 2.42 0 011.054.189 3.142 3.142 0 01-.451-.736m4.306.817a.878.878 0 00-.92 1.112l-17.603 24.03a.873.873 0 00-.908.797.87.87 0 00.798.949.864.864 0 00.957-.79 1.065 1.065 0 00-.019-.244l17.67-24.11a.876.876 0 00.024-1.745" fill="#E6E6E6"/><path d="M163.56 19.749l-4.89-3.57a2.527 2.527 0 00-3.534.542l-.548.754c.152-.207 2.278 1.088 4.757 2.906 2.48 1.806 4.362 3.436 4.21 3.642l.548-.754a2.51 2.51 0 00-.543-3.52" fill="#C6C6C6"/><path d="M159.79 20.702l-.549.742c2.284 1.636 4.179 2.779 4.313 2.578.146-.195-1.51-1.648-3.765-3.32m-5.201-3.223c-.14.195 1.522 1.648 3.77 3.32l.542-.741c-2.284-1.636-4.172-2.78-4.312-2.579" fill="#939393"/><path d="M160.188 41.117l-17.604-24.03a.767.767 0 00.03-.317.87.87 0 00-.95-.796.879.879 0 00-.804.948.892.892 0 00.829.797l17.67 24.115c-.018.073-.024.158-.018.237.043.48.475.84.956.79a.88.88 0 00.798-.954.873.873 0 00-.907-.79" fill="#E6E6E6"/><path d="M140.1 19.749l4.898-3.57a2.52 2.52 0 013.526.542l.549.754c-.153-.207-2.278 1.088-4.758 2.906-2.479 1.806-4.36 3.436-4.209 3.642l-.554-.754a2.517 2.517 0 01.548-3.52" fill="#C6C6C6"/><path d="M140.106 24.024c.14.195 2.028-.942 4.306-2.584l-.542-.735c-2.254 1.672-3.904 3.125-3.764 3.32m4.653-3.971l.543.748c2.253-1.678 3.91-3.126 3.77-3.326-.146-.195-2.034.942-4.313 2.578" fill="#939393"/><path d="M163.097 30.369c0 6.141-4.983 11.121-11.135 11.121s-11.14-4.98-11.14-11.121 4.988-11.121 11.14-11.121 11.135 4.98 11.135 11.12" fill="#BCBCBC"/><path d="M162.199 30.369c0 5.643-4.587 10.221-10.24 10.221-5.652 0-10.233-4.578-10.233-10.221 0-5.655 4.58-10.221 10.233-10.221 5.653 0 10.24 4.566 10.24 10.22" fill="#A3A3A3"/><path d="M161.443 30.369c0 5.223-4.245 9.461-9.484 9.461-5.232 0-9.472-4.238-9.472-9.461s4.24-9.461 9.472-9.461c5.239 0 9.484 4.238 9.484 9.46" fill="#E9EBEC"/><path d="M152.562 30.369a.603.603 0 01-.603.596.599.599 0 010-1.198c.33 0 .603.267.603.602" fill="#000"/><path d="M150.968 39.487l.055.006.055-.499c-.018-.006-.03-.006-.055-.006l-.055.499zm-5.19-2.317l.05.036.334-.377c-.006-.012-.024-.024-.036-.03l-.348.37zm2.413 1.569l.06.024.195-.456a.092.092 0 00-.048-.024l-.207.456zm1.833.602l.055.006.103-.493c-.018 0-.042 0-.054-.006l-.104.493zm-.932-.25l.055.013.152-.48a.284.284 0 00-.055-.02l-.152.487zm-2.558-1.32l.042.037.299-.413c-.012-.012-.037-.018-.049-.024l-.292.4zm-2.85-4.748l-.476.152.018.055.481-.152a.15.15 0 00-.024-.055zm-.226-.882l-.494.104.013.06.493-.109a.177.177 0 01-.012-.055zm.091 1.934l.018.049.463-.201c-.006-.024-.018-.037-.024-.055l-.457.207zm1.56 2.414l.036.036.372-.334c-.007-.012-.019-.024-.03-.043l-.379.34zm-.61-.742l.03.037.415-.298c-.006-.013-.024-.03-.03-.049l-.415.31zm16.105-4.5c0 .013 0 .037-.006.055l.5.049.006-.055-.5-.048zm-.377 1.83l.469.153.018-.055-.481-.152c0 .018-.006.03-.006.055zm-.341.846l.463.2.024-.048-.457-.207a.389.389 0 00-.03.055zm-.92 1.563l.414.298.037-.037-.415-.31a.416.416 0 01-.036.049zm1.492-3.29l.494.11.006-.061-.488-.104a.177.177 0 01-.012.055zm-17.146-.948l-.5.048.006.055.506-.049c-.006-.018-.006-.042-.012-.054zm13.735 6.147l.299.413.048-.036-.304-.401c-.012.006-.03.012-.043.024zm-3.301 1.46l.103.492.049-.006-.104-.493c-.018.006-.036.006-.048.006zm.877-.232l.146.48.061-.012-.158-.486a.206.206 0 00-.05.018zm3.77-2.432l.378.334.037-.036-.372-.34c-.006.018-.024.03-.043.042zm-.64.638l.342.377.036-.036-.335-.371c-.018.006-.036.018-.042.03zm-4.915 2.165l.049.499.055-.006-.049-.499c-.018 0-.03 0-.055.006zm2.632-.687l.207.456.048-.024-.2-.456a.205.205 0 00-.055.024zm-7.024-15.882l-.194-.456-.061.024.207.456a.092.092 0 00.048-.024zm8.601.906c.012.012.03.024.043.036l.304-.413-.048-.025-.299.402zm1.346 1.21c.019.012.037.024.043.042l.372-.34-.037-.037-.378.335zm-.64-.639a.309.309 0 00.043.037l.335-.371-.036-.043-.341.377zm-2.283-1.477a.213.213 0 00.054.024l.201-.456-.048-.024-.207.456zm-.847-.316c.012.006.024.006.049.018l.158-.48-.06-.025-.147.487zm5.981 7.375l.5-.048-.006-.061-.5.054a.187.187 0 01.006.055zm-17.28-.055l-.506-.054-.006.06.5.05c.006-.013.006-.037.012-.056zm17.146-.833l.488-.109-.006-.055-.494.104a.18.18 0 01.012.06zm-1.504-3.344c.012.006.024.024.036.043l.415-.304-.037-.043-.414.304zm1.407 1.41l-.024-.054-.463.207a.168.168 0 01.03.048l.457-.2zm-.14 1.047l.481-.152-.018-.055-.47.158c0 .012.007.036.007.049zm-6.487-5.832c.012 0 .03 0 .048.013l.104-.499-.049-.012-.103.498zm-8.23 2.664l-.371-.335-.037.037.378.34c.012-.018.024-.03.03-.042zm-1.017.45l.415.304a.122.122 0 01.03-.043l-.414-.304-.03.043zm-.792 2.669l-.48-.158-.019.055.475.152c.012-.013.018-.037.024-.049zm.323-.845l-.463-.207-.018.055.457.2c.006-.024.018-.036.024-.048zm-.56 1.72l-.493-.103-.013.055.494.11a.18.18 0 01.012-.061zm2.308-4.967l.348.37.036-.036-.335-.377-.049.043zm.756-.614l.292.413c.012-.012.037-.024.049-.036l-.299-.402-.042.025zm3.49-1.563l.104.499c.012-.013.036-.013.054-.013l-.103-.498-.055.012zm.944-.146l.055.499c.024-.006.037-.006.055-.012l-.055-.5-.055.013zm-1.876.401l.152.48c.025-.011.043-.011.055-.017l-.152-.487-.055.024zm3.746.086c.025.006.037.006.055.012l.049-.499-.055-.012-.049.499zm-.954 17.14v.846h.152v-.846h-.153zm-4.678-.456l.14.086.42-.73c-.043-.03-.085-.049-.134-.08l-.426.724zm8.948-.644l.42.73.14-.086-.42-.723c-.049.03-.092.048-.14.079zm4.324-7.485v.158h.84v-.158h-.84zm-1.175 4.402l.725.42.085-.134-.737-.42c-.018.037-.049.085-.073.134zm-15.49.286l.073.134.737-.42c-.03-.049-.055-.097-.08-.134l-.73.42zm15.49-8.926a.694.694 0 01.073.133l.737-.42-.085-.139-.725.426zm-3.15-3.09c.05.025.092.056.14.074l.421-.724-.14-.073-.42.724zm-4.27-1.094h.153v-.845h-.152v.845zm-7.26 4.184l-.737-.426-.073.14.73.42a.706.706 0 01.08-.134zm2.583-3.74l.426.724c.049-.018.091-.049.134-.073l-.42-.724-.14.073zm-4.611 7.978v.158h.846c0-.024-.006-.055-.006-.073 0-.03.006-.055.006-.085h-.846z" fill="#000002"/><path d="M151.2 22.35v2.286a.1.1 0 00.042.08.256.256 0 00.128.036h.353v.14h-1.315v-.14h.304c.067 0 .11-.012.14-.043a.18.18 0 00.043-.128v-1.72c0-.037-.012-.067-.043-.085-.03-.025-.054-.043-.097-.043h-.42v-.122c.2-.024.347-.06.475-.103.116-.043.22-.091.31-.158h.08zm1.41 2.135c-.055.079.219.115.828.115.092 0 .159-.024.201-.079.03-.042.085-.176.128-.389h.134l-.06.76h-1.645v-.097l.53-.608c.298-.322.48-.523.536-.602a1.39 1.39 0 00.188-.347.793.793 0 00.05-.304c0-.146-.031-.261-.117-.346-.085-.092-.195-.128-.34-.128-.171 0-.305.03-.409.115-.11.08-.158.165-.158.244 0 .036.006.06.018.073a.183.183 0 00.104.042c.121.037.182.098.182.22 0 .06-.03.109-.06.151-.037.043-.098.061-.159.061a.238.238 0 01-.201-.103.385.385 0 01-.091-.268c0-.128.036-.237.103-.34a.597.597 0 01.293-.25.867.867 0 01.414-.097.94.94 0 01.414.091.62.62 0 01.286.256.628.628 0 01.098.334.665.665 0 01-.055.255.652.652 0 01-.14.244c-.11.133-.207.243-.323.34l-.481.401a1.86 1.86 0 00-.268.256m6.829 5.718a.77.77 0 01.408.213c.134.121.195.28.195.462 0 .213-.08.377-.226.504-.17.146-.396.22-.664.22a.989.989 0 01-.426-.08.586.586 0 01-.262-.212.636.636 0 01-.091-.317c0-.09.018-.164.06-.219a.263.263 0 01.171-.073c.073 0 .122.013.158.055a.243.243 0 01.055.164.233.233 0 01-.03.116.318.318 0 01-.104.091c-.055.024-.079.055-.079.08 0 .03.024.078.061.12a.372.372 0 00.164.11c.074.03.165.043.275.043.2 0 .335-.049.432-.14.091-.097.128-.25.128-.456 0-.219-.03-.377-.11-.462-.079-.091-.2-.14-.353-.14a.907.907 0 00-.152.018c-.055.006-.092.012-.11.012-.043 0-.073-.006-.091-.03-.019-.018-.03-.03-.03-.06a.07.07 0 01.03-.056c.018-.012.048-.018.097-.018h.104l.085.006c.158 0 .268-.036.341-.121.092-.08.116-.201.116-.365 0-.2-.024-.347-.104-.432a.413.413 0 00-.329-.134.65.65 0 00-.335.08c-.073.042-.115.097-.115.133 0 .018.024.06.073.11.06.054.091.115.091.182 0 .055-.012.097-.055.128a.206.206 0 01-.134.054.203.203 0 01-.152-.073.301.301 0 01-.055-.188c0-.14.043-.25.134-.347.14-.146.323-.219.573-.219a.81.81 0 01.548.189c.14.128.201.28.201.456 0 .134-.037.25-.11.34-.067.092-.195.177-.383.256m-7.454 6.674a.51.51 0 00-.378.17c-.091.103-.14.262-.14.462 0 .22.049.383.14.499a.435.435 0 00.366.164c.14 0 .255-.049.34-.158.08-.11.129-.274.129-.487 0-.23-.043-.395-.116-.492a.417.417 0 00-.341-.158zm-.548.176a.972.972 0 01.304-.273.755.755 0 01.353-.08c.195 0 .366.061.506.201a.74.74 0 01.207.53.898.898 0 01-.237.625.843.843 0 01-.61.25.746.746 0 01-.45-.134c-.134-.091-.238-.231-.33-.426a1.589 1.589 0 01-.127-.662c0-.274.049-.523.158-.742.11-.225.232-.39.396-.505a.886.886 0 01.506-.17c.164 0 .316.055.457.152a.349.349 0 01.146.28c0 .079-.019.14-.067.176-.043.055-.092.079-.17.079a.19.19 0 01-.147-.06c-.055-.037-.073-.086-.073-.147 0-.03.018-.079.049-.121a.164.164 0 00.036-.104c0-.03-.012-.055-.049-.079a.368.368 0 00-.182-.042.57.57 0 00-.33.115.867.867 0 00-.243.377c-.073.189-.103.39-.103.608v.152zm-6.483-8.008a.403.403 0 00-.341.17c-.08.116-.128.286-.128.511 0 .213.048.371.128.468.091.11.213.158.347.158.14 0 .262-.054.365-.164a.764.764 0 00.134-.468c0-.207-.048-.37-.14-.492a.486.486 0 00-.365-.183zm.518 1.137a.992.992 0 01-.28.274.787.787 0 01-.36.091.764.764 0 01-.506-.2c-.146-.128-.225-.31-.225-.56a.85.85 0 01.25-.62.844.844 0 01.59-.256c.256 0 .47.11.64.317.17.212.25.498.25.881 0 .316-.043.584-.14.797a1.18 1.18 0 01-.366.486.998.998 0 01-.524.158.742.742 0 01-.444-.127.369.369 0 01-.152-.292.27.27 0 01.06-.189.236.236 0 01.165-.067c.06 0 .122.025.146.061a.17.17 0 01.073.14c0 .043-.024.085-.067.128-.012.036-.024.067-.024.085 0 .036.018.06.055.085a.44.44 0 00.2.036.54.54 0 00.33-.097.682.682 0 00.237-.352c.067-.159.092-.365.092-.615v-.164zm13.58 4.311l-9.204-5.296.067-.115 9.216 5.29z" fill="#000"/><path fill="#000" d="M152.23 29.92l-2.456 5.193-1.857 1.217.414-2.183z"/><path fill="#000" d="M152.01 30.372l5.554-4.816.549-1.106-1.146.492-5.043 5.35z"/><path d="M150.706 18.46h.743v.809c.17-.006.341-.024.512-.024.207 0 .408.018.615.03v-.815h.798a.286.286 0 00.286-.286v-.553a.284.284 0 00-.286-.28h-2.668a.284.284 0 00-.286.28v.553c0 .159.128.286.286.286" fill="#443846"/><path d="M194.01 10.726c0 5.874-3.763 10.635-8.393 10.635-4.635 0-8.393-4.76-8.393-10.635 0-5.873 3.758-9.041 8.393-9.041 4.63 0 8.394 3.168 8.394 9.041" fill="#77B95D"/><path d="M187.027 8.639c-.158.614-.14 1.192.013 1.605.34-.286.633-.778.804-1.392.158-.614.134-1.198-.013-1.605-.34.285-.64.772-.804 1.392m4.146 4.899c-.164.614-.146 1.192.006 1.611.341-.291.64-.79.804-1.398.159-.614.14-1.198-.012-1.611-.335.285-.646.778-.798 1.398m-2.45-7.678c-.043.633.085 1.204.304 1.581.28-.34.487-.888.536-1.52.043-.632-.079-1.198-.304-1.58-.287.34-.488.887-.536 1.52m2.064 3.309c-.159.62-.14 1.198.012 1.612.341-.286.634-.785.804-1.393.158-.614.134-1.198-.012-1.611-.341.28-.646.784-.804 1.392m-4.539 4.374c-.037.632.103 1.197.335 1.574.268-.346.463-.893.505-1.526.03-.638-.103-1.198-.335-1.575-.274.34-.469.888-.505 1.527m5.901 2.544c-.36.523-.53 1.076-.53 1.52.414-.152.871-.523 1.218-1.052.366-.523.536-1.082.53-1.52-.402.152-.859.53-1.218 1.052m-4.431 1.045c-.159.615-.134 1.204.012 1.612.335-.28.64-.779.798-1.399.164-.608.14-1.192-.006-1.605-.342.286-.646.772-.804 1.392m-2.082-8.779c.067.632.292 1.167.578 1.502.213-.383.323-.955.262-1.587-.06-.633-.274-1.174-.566-1.502-.22.383-.335.954-.274 1.587m-2.029 7.98c.11.627.372 1.15.676 1.46.195-.395.262-.973.153-1.6-.11-.626-.366-1.143-.677-1.465-.188.402-.261.98-.152 1.605m-1.38.316c.317.547.743.948 1.139 1.136.037-.443-.091-1.009-.414-1.55-.323-.553-.743-.955-1.14-1.143-.036.438.098 1.003.415 1.556m11.385-6.733c-.25.584-.317 1.161-.213 1.593.365-.231.737-.687.98-1.27.25-.585.317-1.156.22-1.594-.366.231-.743.687-.987 1.27m-2.457-6.128c-.243.584-.316 1.162-.213 1.593.366-.23.737-.68.98-1.264.257-.584.318-1.168.22-1.593-.371.23-.737.675-.987 1.264m.725 1.304c-.401.486-.633 1.022-.663 1.465.426-.115.907-.45 1.303-.936.409-.493.634-1.028.677-1.465-.427.115-.914.443-1.316.936m-1.981 8.364c.129.62.409 1.137.725 1.429.177-.396.226-.98.104-1.6-.134-.62-.408-1.137-.725-1.435-.183.402-.231.986-.103 1.606m-7.823-1.918c.128.62.402 1.137.725 1.441.177-.407.226-.985.098-1.605-.128-.627-.402-1.137-.72-1.435-.182.395-.23.973-.103 1.599m1.22-5.336c.048.633.25 1.18.53 1.52.225-.377.353-.948.31-1.58-.048-.633-.25-1.186-.524-1.52-.225.382-.359.948-.316 1.58m3.009-4.278c.043.632.256 1.174.53 1.52.226-.383.354-.942.311-1.58-.055-.64-.256-1.18-.536-1.52-.225.376-.353.948-.305 1.58m-2.581.887c.231.59.597 1.047.962 1.29.104-.432.055-1.01-.182-1.593-.232-.596-.597-1.052-.963-1.295-.11.425-.055 1.009.183 1.599M178.95 15.93c.39.5.87.846 1.29.968-.024-.438-.237-.98-.627-1.478-.39-.505-.859-.845-1.285-.973.018.438.238.985.621 1.484m1-11.865c.164.608.469 1.113.81 1.393.146-.414.164-.997.006-1.605-.164-.615-.463-1.113-.804-1.393-.152.408-.164.991-.012 1.605m1.344 1.687c.061.633.268 1.174.548 1.508.22-.377.341-.948.28-1.58-.048-.633-.261-1.18-.542-1.515-.219.377-.34.955-.286 1.587" fill="#4EA824"/><path d="M178.354 4.194c2.65 2.785 4.636 7.807 2.437 9.887-2.187 2.08-7.736.42-10.38-2.36-2.637-2.784-2.296-5.964-.097-8.044 2.193-2.08 5.397-2.262 8.04.517" fill="#97D469"/><path d="M174.113 6.335c.201.371.47.632.725.76.037-.286-.048-.65-.25-1.021-.194-.365-.462-.633-.724-.754-.037.285.048.65.25 1.015m4.157.466c.201.365.475.633.731.76.03-.291-.048-.656-.243-1.021-.201-.37-.476-.632-.731-.76-.03.28.048.663.243 1.021m-2.141-1.894c.195.365.469.626.725.76.042-.286-.043-.657-.244-1.022-.201-.37-.475-.632-.725-.754-.037.28.049.65.244 1.016m-.179 4.106c.268.316.591.517.871.59-.03-.28-.189-.633-.457-.949-.268-.316-.584-.523-.865-.59.03.28.183.633.451.949m3.939-1.446c.072.413.23.76.432.955.121-.256.17-.633.11-1.04-.074-.414-.238-.754-.433-.955-.134.262-.183.639-.11 1.04m-1.624 2.482c.195.365.47.632.725.754.037-.28-.049-.65-.244-1.015-.207-.365-.475-.627-.737-.754-.024.28.055.656.256 1.015m-4.937-3.221c.311.267.658.42.944.456-.067-.274-.274-.602-.584-.87-.317-.274-.67-.426-.95-.462.066.28.274.608.59.876m2.629 4.688c.335.249.689.377.975.389-.085-.274-.31-.578-.646-.827-.335-.25-.694-.377-.974-.39.085.268.31.572.645.828m-.511.766c.396.121.773.121 1.053.024-.176-.225-.5-.426-.901-.547-.396-.116-.78-.116-1.048-.024.177.225.494.431.896.547m2.349-8.29c.146.39.378.687.621.852.067-.28.037-.657-.103-1.04-.146-.395-.378-.7-.615-.858-.067.28-.043.663.097 1.046m-3.914-1.796c.147.383.378.687.616.851.073-.28.042-.662-.104-1.046-.146-.389-.378-.693-.615-.85-.067.273-.037.656.103 1.045m.929.285c.03.42.164.766.352.991.14-.243.232-.614.201-1.027-.036-.414-.176-.76-.353-.991-.146.243-.231.62-.2 1.027m2.83 4.846c.336.243.695.359.988.359-.098-.268-.335-.566-.676-.803-.342-.237-.695-.365-.987-.359.097.268.329.56.676.803m-4.569 2.6c.348.238.707.365.993.36-.097-.268-.335-.566-.676-.803-.34-.238-.694-.36-.987-.353.092.267.33.56.67.796m-1.826-3.07c.311.274.652.444.938.487-.06-.28-.262-.608-.56-.894-.31-.28-.652-.45-.932-.48.061.28.25.608.554.887m-.5-3.375c.305.28.652.444.932.48-.06-.28-.262-.602-.56-.881a1.915 1.915 0 00-.938-.487c.06.28.262.614.566.888m-.815 1.582c.372.17.75.225 1.036.177-.146-.25-.433-.499-.81-.675-.378-.17-.75-.225-1.036-.177.146.25.433.505.81.675m3.641 8.349c.408.067.786.006 1.048-.121-.214-.195-.555-.359-.963-.42-.414-.06-.792-.006-1.047.116.207.194.548.365.962.425M168.7 7.347c.36.22.725.317 1.011.298-.115-.261-.371-.547-.718-.76-.354-.219-.72-.322-1.005-.304.11.262.365.548.712.766m.048 1.301c.408.06.786.006 1.041-.128-.207-.194-.554-.358-.962-.413-.408-.055-.786-.006-1.042.122.207.2.555.358.963.42" fill="#4EA824"/><path d="M192.714 42.866h-17.073c-2.674-7.899-5.111-15.944-5.781-23.836h28.647c-.682 7.892-3.119 15.937-5.793 23.836" fill="#E8E8E8"/><path d="M192.714 42.866h-17.073c-2.748-.864-3.588-2.968-4.13-3.837h25.339c-.554.87-1.389 2.973-4.136 3.837" fill="#DDD"/><path d="M198.121 26.322c.323-1.605.603-3.198.81-4.791h-29.505c.207 1.593.487 3.186.81 4.791h27.885z" fill="#FFF"/><path fill="#6CAD84" d="M74.763 50.843h164.28v-7.978H74.762z"/><path d="M134.395 36.613c0-4.305-.651-7.783-1.456-7.783l-53.115.024c.81 0 1.462 3.484 1.462 7.783 0 3.442-.524 6.227-1.163 6.227l53.103-.019c.645 0 1.17-2.79 1.17-6.232" fill="#CECECE"/><path d="M133.64 37.064c0-1.763-.268-3.192-.603-3.192l-53.103.024c.329 0 .597 1.43.597 3.192 0 1.411-.213 2.548-.481 2.554l53.109-.03c.262 0 .481-1.143.481-2.548" fill="#BABABA"/><path d="M132.296 37.863c0-2.201.335-3.989.743-3.989l-53.11.025c-.407 0-.748 1.787-.742 3.982 0 2.755.42 4.986.938 4.986l53.097-.024c-.512 0-.926-2.225-.926-4.98" fill="#EDEDED"/><path d="M132.938 28.828l-53.115.024c-.822 0-1.523 2.943-1.742 6.975l53.11-.025c.218-4.031.913-6.974 1.747-6.974" fill="#FFF"/><path d="M111.179 37.485a5.008 5.008 0 01-4.666 4.141l3.35 7.771 1.95-2.955 3.496.62-4.13-9.577zm-9.886.007l-4.13 9.576 3.496-.614 1.95 2.95 3.356-7.778a5.008 5.008 0 01-4.672-4.134m4.943-5.879a5.03 5.03 0 013.051 1.034V28.67h-6.097v3.977a5.013 5.013 0 013.046-1.034" fill="#FF6C50"/><path d="M111.262 36.628a5.026 5.026 0 01-5.025 5.016 5.017 5.017 0 110-10.033 5.022 5.022 0 015.025 5.017" fill="#FFD65B"/><path d="M109.555 36.628a3.317 3.317 0 01-3.32 3.313 3.317 3.317 0 01-3.32-3.313 3.317 3.317 0 013.32-3.314 3.317 3.317 0 013.32 3.314" fill="#E7B041"/><path d="M243.55 156.774c0 3.113-8.577 5.63-19.164 5.63-10.58 0-19.156-2.517-19.156-5.63-1.377 12.672 1.9 26.128 7.906 38.794l-.006.012c0 1.824 5.043 3.295 11.256 3.295 6.22 0 11.25-1.471 11.25-3.295 6.007-12.678 9.29-26.134 7.913-38.806" fill="#E3E4E8"/><path d="M215.163 161.708c-5.92-.96-9.935-2.809-9.935-4.937-1.37 12.672 1.907 26.128 7.907 38.794l-.006.012c0 1.824 5.043 3.295 11.262 3.295.457 0 .902-.006 1.346-.024-6.018-6.518-10.27-20.613-10.574-37.14" fill="#D8DAE1"/><path d="M243.775 164.505a58.451 58.451 0 01-.262 4.105c3.076.322 5.513 2.833 5.513 5.99v1.246c0 3.38-2.747 6.117-6.128 6.117h-2.04a78.66 78.66 0 01-1.286 4.073h3.326c5.628 0 10.203-4.572 10.203-10.19v-1.247c0-5.308-4.118-9.644-9.326-10.094" fill="#D5D6D8"/><path d="M243.55 156.774c0 3.113-8.577 5.63-19.164 5.63-10.58 0-19.156-2.517-19.156-5.63 0-3.101 8.576-5.618 19.156-5.618 10.587 0 19.163 2.517 19.163 5.618" fill="#D3D3D3"/><path d="M239.986 158.52c-3.021-1.63-8.838-2.736-15.6-2.736-6.76 0-12.578 1.106-15.593 2.736 2.388 1.848 8.467 3.162 15.593 3.162 7.133 0 13.206-1.314 15.6-3.162" fill="#623A1A"/><path d="M224.39 161.679c-9.223 0-16.703-2.19-16.703-4.907 0-2.7 7.48-4.89 16.702-4.89 9.223 0 16.696 2.19 16.696 4.89 0 2.718-7.473 4.907-16.696 4.907m0-10.52c-10.58 0-19.162 2.518-19.162 5.613 0 3.113 8.582 5.63 19.162 5.63 10.58 0 19.163-2.517 19.163-5.63 0-3.095-8.582-5.613-19.163-5.613" fill="#FFF"/></g></svg>