<svg width="29" height="29" xmlns="http://www.w3.org/2000/svg"><g fill="none" fill-rule="evenodd"><path d="M27.593 0c.746 0 1.357.61 1.357 1.357v26.236c0 .746-.611 1.357-1.357 1.357H1.357A1.361 1.361 0 010 27.593V1.357C0 .611.61 0 1.357 0h26.236z" fill="#99B9CE"/><path d="M2.714 5.88h23.522c.497 0 .904.407.904.905v19.45a.907.907 0 01-.904.905H2.714a.907.907 0 01-.905-.904V6.786c0-.499.407-.906.905-.906z" fill="#FFF"/><path d="M11.76 2.036h14.476c.497 0 .904.407.904.904a.907.907 0 01-.904.905H11.76a.907.907 0 01-.905-.905c0-.497.407-.904.905-.904z" fill="#7B97A9"/><path d="M4.976 8.142h18.998c.498 0 .905.407.905.905v5.428a.907.907 0 01-.905.905H4.976a.907.907 0 01-.905-.905V9.047c0-.498.407-.905.905-.905zm0 9.725h7.463c.498 0 .905.407.905.905v4.976a.907.907 0 01-.905.904H4.976a.907.907 0 01-.905-.904v-4.976c0-.498.407-.905.905-.905zm19.224 0h-8.368a.666.666 0 00-.679.679c0 .384.294.678.679.678H24.2a.666.666 0 00.679-.678.68.68 0 00-.679-.679zm0 2.714h-8.368a.666.666 0 00-.679.679c0 .384.294.678.679.678H24.2a.666.666 0 00.679-.678.68.68 0 00-.679-.679zm0 2.714h-8.368a.666.666 0 00-.679.679c0 .384.294.678.679.678H24.2a.666.666 0 00.679-.678.68.68 0 00-.679-.679z" fill="#E3E4E8"/><path d="M15.04 9.951c-.135 1.154-.769 1.787-1.922 1.923 1.153.136 1.787.769 1.922 1.922.136-1.153.77-1.786 1.923-1.922-1.154-.136-1.787-.77-1.923-1.923zm-7.69.905c-.09.882-.588 1.38-1.47 1.47.882.09 1.38.588 1.47 1.47.09-.882.589-1.38 1.47-1.47-.881-.09-1.38-.588-1.47-1.47z" fill="#FF6C50"/><path d="M10.404 9.5c-.068.678-.453 1.062-1.131 1.13.678.068 1.063.452 1.13 1.13.069-.678.453-1.062 1.132-1.13-.679-.068-1.063-.452-1.131-1.13zm9.386 2.26c-.068.611-.407.95-1.018 1.019.61.067.95.407 1.018 1.017.068-.61.407-.95 1.018-1.017-.611-.068-.95-.408-1.018-1.018zm2.375-2.26c-.068.678-.453 1.062-1.131 1.13.678.068 1.063.452 1.13 1.13.068-.678.453-1.062 1.131-1.13-.678-.068-1.063-.452-1.13-1.13z" fill="#818389"/><path d="M2.714 2.036a.907.907 0 00-.905.904c0 .498.407.905.905.905a.907.907 0 00.905-.905.907.907 0 00-.905-.904zm2.714 0a.907.907 0 00-.905.904c0 .498.407.905.905.905a.907.907 0 00.905-.905.907.907 0 00-.905-.904zm2.714 0a.907.907 0 00-.905.904c0 .498.408.905.905.905a.907.907 0 00.905-.905.907.907 0 00-.905-.904z" fill="#7B97A9"/></g></svg>