<svg width="401" height="180" xmlns="http://www.w3.org/2000/svg" xmlns:xlink="http://www.w3.org/1999/xlink"><defs><path id="a" d="M99.172 73.955L99.142.476.972.516l.03 73.48z"/><path d="M31.576.333c-4.453 0-8.944 1.455-10.036 3.235C14.5 15.29 7.477 27.004.437 38.718a1.169 1.169 0 00-.183.56c-.03.554-.007 3.653 0 3.85.024 1.485 3.52 2.606 8.55 2.606h212.531c4.998 0 8.488-1.114 8.557-2.583.007-.205.007-3.305 0-3.835 0-.19-.069-.394-.183-.598-7.039-11.714-14.07-23.428-21.11-35.15-1.085-1.78-5.575-3.235-10.036-3.235H31.576z" id="b"/><path d="M31.58.34c-4.46 0-8.951 1.447-10.035 3.228C14.505 15.29 7.473 27.003.434 38.717-.65 40.505 3.089 41.952 8.8 41.952h212.532c5.712 0 9.467-1.447 8.374-3.235-7.039-11.714-14.063-23.427-21.103-35.15C207.511 1.788 203.02.34 198.568.34H31.58z" id="d"/><path d="M14.61.15C9.822 8.62 5.036 17.1.241 25.578h203.604c-4.802-8.479-9.604-16.957-14.39-25.428H14.609z" id="f"/><path d="M5.723.305c-2.154 0-3.99.583-4.104 1.318-.41 2.849-.827 5.698-1.228 8.554-.107.728 1.668 1.311 3.966 1.311h46.978c2.29 0 4.08-.583 3.975-1.31l-1.23-8.555C53.967.888 52.131.305 49.977.305H5.723z" id="h"/><path d="M1.068.338C.825.853.583 1.383.332 1.898h143.959c-.244-.515-.494-1.045-.73-1.56H1.069z" id="j"/><path d="M2.292.534c-.789 0-1.555.25-1.707.56-.022.038-.037.069-.053.099a.218.218 0 00-.03.114c.008.113 0 .643 0 .674 0 .258.493.462 1.199.462h6.227c.811 0 1.563-.258 1.692-.568.015-.03.03-.06.045-.099a.238.238 0 00.022-.106c-.006-.106 0-.651 0-.682C9.673.73 9.18.534 8.467.534H2.291z" id="l"/><path d="M1.247.531C.534.531.034.73.04 1.001v.682c0 .03.009.06.016.091.023.038.03.076.045.106.138.31.896.56 1.692.56h6.228c.705 0 1.184-.196 1.198-.446.008-.038.008-.584 0-.697a.226.226 0 00-.022-.099c-.015-.038-.038-.068-.053-.105C8.992.78 8.226.53 7.429.53H1.247z" id="n"/><path d="M1.545.531C.81.531.294.744.3 1.016c0 .024.007.576 0 .682a.25.25 0 00.015.076.9.9 0 01.038.106c.122.31.842.56 1.654.56h6.227c.706 0 1.207-.196 1.237-.454v-.697a.21.21 0 00-.022-.09c-.016-.039-.024-.07-.047-.106C9.283.78 8.532.53 7.727.53H1.545z" id="p"/><path d="M1.844.531c-.72 0-1.26.213-1.282.478-.008.03 0 .599 0 .705 0 .014 0 .045.008.06.007.038.022.076.03.106.09.31.811.56 1.615.56h6.228c.728 0 1.252-.196 1.267-.476.008-.03 0-.583 0-.69 0-.023 0-.046-.015-.076-.008-.038-.023-.068-.031-.105C9.559.78 8.83.53 8.026.53H1.844z" id="r"/><path d="M1.58.531c-.798 0-1.39.25-1.32.562.007.037-.023.552 0 .681a.428.428 0 00.03.106c.068.31.766.56 1.57.56h6.22c.759 0 1.312-.22 1.305-.507V1.26c0-.022 0-.046-.008-.06-.008-.039-.023-.07-.03-.106C9.263.78 8.55.53 7.747.53H1.578z" id="t"/><path d="M1.878.531c-.797 0-1.396.25-1.35.562.007.037-.023.56 0 .681.007.038.007.076.015.106.045.31.728.56 1.532.56h6.22c.804 0 1.404-.25 1.335-.56-.008-.03.03-.56 0-.682-.008-.038-.008-.068-.014-.105C9.546.78 8.856.53 8.052.53H1.878z" id="v"/><path d="M1.606.529c-.797 0-1.419.25-1.396.56l.008.789c.022.31.69.56 1.487.56h6.243c.795 0 1.41-.25 1.364-.56-.007-.03.016-.56 0-.682-.007-.038-.007-.068-.015-.106-.045-.31-.713-.561-1.51-.561h-6.18z" id="x"/><path d="M1.905.529c-.782 0-1.434.25-1.434.56v.789c.007.31.667.56 1.456.56h6.235c.79 0 1.426-.25 1.404-.56l-.007-.788C9.536.78 8.875.529 8.087.529H1.905z" id="z"/><path d="M1.633.529c-.789 0-1.449.25-1.471.56-.009.039-.009.069-.009.107-.007.113 0 .651 0 .682-.022.31.622.56 1.42.56H7.8c.797 0 1.449-.25 1.449-.56V1.09C9.256.78 8.612.529 7.815.529H1.633z" id="B"/><path d="M1.939.529c-.79 0-1.48.25-1.518.56-.007.039-.015.069-.015.107-.015.121 0 .651 0 .682-.045.31.577.56 1.38.56h6.228c.79 0 1.465-.25 1.488-.56 0-.03.007-.069.007-.106.008-.106 0-.644 0-.682.023-.31-.6-.561-1.388-.561H1.94z" id="D"/><path d="M1.667.528C.87.528.188.786.12 1.096l-.023.098c0 .016-.008.03-.008.046.008.114 0 .674 0 .697.016.28.577.5 1.335.5h6.22c.812 0 1.488-.25 1.54-.56 0-.03.008-.069.015-.099.016-.121-.007-.644 0-.682.046-.31-.56-.568-1.364-.568H1.667z" id="F"/><path d="M1.966.528c-.804 0-1.502.258-1.593.568-.008.038-.022.06-.03.098-.008.016-.008.03-.008.053v.69c-.008.28.539.5 1.297.5h6.22c.82 0 1.517-.25 1.586-.56.007-.03.015-.069.023-.099.03-.129-.008-.644 0-.682.067-.31-.516-.568-1.328-.568H1.966z" id="H"/><path d="M1.695.534c-.805 0-1.533.251-1.64.56-.014.04-.022.07-.037.1-.007.015-.007.03-.007.052-.016.122-.008.682-.008.713.008.273.531.477 1.274.477h6.228c.805 0 1.525-.25 1.616-.56.007-.03.023-.069.03-.1.008-.014.008-.03.008-.045.007-.113 0-.674 0-.697.007-.28-.54-.5-1.29-.5H1.695z" id="J"/><path d="M1.994.534c-.79 0-1.54.251-1.67.56a.974.974 0 01-.045.1c-.016.03-.016.06-.023.083 0 .12.007.66 0 .69-.007.265.508.47 1.236.47h6.221c.811 0 1.547-.25 1.653-.561a.503.503 0 01.038-.1.361.361 0 00.015-.082 10.494 10.494 0 010-.66c.03-.28-.5-.5-1.251-.5H1.994z" id="L"/><path d="M3.052.234c-.804 0-1.578.25-1.73.56C.92 1.599.535 2.402.133 3.213c-.023.045-.031.083-.023.12.007.084-.008.637 0 .668.007.265.508.454 1.236.454H7.74c.828 0 1.601-.25 1.73-.56.349-.81.705-1.614 1.047-2.425a.086.086 0 00.023-.06 11.83 11.83 0 000-.728c-.023-.257-.524-.447-1.237-.447h-6.25z" id="N"/><path d="M1.475.237C.724.237.147.45.125.73c-.008.023.007.621 0 .681-.008.023 0 .038 0 .06.158.804.319 1.615.47 2.418.06.31.789.568 1.6.568h6.403c.774 0 1.343-.22 1.357-.508l-.008-.674a.099.099 0 000-.067C9.743 2.404 9.531 1.6 9.333.79 9.25.48 8.536.237 7.733.237H1.475z" id="P"/><path d="M1.502.237C.75.237.197.442.174.714c-.007.023 0 .637 0 .713 0 .015 0 .03.008.045.205.803.425 1.614.637 2.417.083.31.82.568 1.647.568H8.86c.758 0 1.312-.22 1.312-.492 0-.023-.007-.6 0-.675 0-.03 0-.052-.015-.082L9.383.79C9.285.48 8.556.237 7.745.237H1.502z" id="R"/><path d="M1.498.24C.77.24.23.442.216.707l.007.69c-.007.022 0 .053.008.075.266.804.531 1.614.812 2.417.099.311.85.561 1.668.561h6.41c.752 0 1.29-.212 1.282-.485 0-.022-.007-.583 0-.659a.365.365 0 00-.015-.098c-.318-.804-.63-1.614-.948-2.417-.121-.31-.873-.553-1.676-.553H1.498z" id="T"/><path d="M3.116.568c-.872 0-1.699.258-1.858.568C.87 1.939.469 2.75.074 3.553a.231.231 0 00-.023.091v.69c0 .264.554.461 1.351.461h10.71c.888 0 1.715-.249 1.844-.56.326-.81.66-1.614.994-2.417.015-.03.015-.053.015-.083v-.697c-.023-.258-.584-.47-1.358-.47H3.117z" id="V"/><path d="M1.79.003C.924.003.25.253.295.565v.681c.121.804.25 1.614.364 2.418.046.31.811.56 1.699.56h6.903c.895 0 1.57-.25 1.502-.56v-.682L10.256.565C10.187.262 9.429.003 8.548.003H1.79z" id="X"/><path d="M1.55.005c-.82 0-1.434.22-1.449.5 0 .023.008.614 0 .675v.067l.532 2.418c.076.31.833.56 1.729.56H9.28c.811 0 1.418-.211 1.449-.492v-.682c0-.022 0-.046-.008-.068-.227-.804-.455-1.614-.675-2.417-.091-.303-.857-.56-1.722-.56H1.55z" id="Z"/><path d="M1.877.005c-.812 0-1.41.22-1.426.493 0 .022.008.605 0 .681 0 .022 0 .046.008.068l.705 2.417c.091.311.88.56 1.768.56h6.91c.827 0 1.426-.21 1.434-.492v-.666c0-.03 0-.061-.016-.083-.28-.804-.553-1.614-.833-2.418-.115-.303-.903-.56-1.783-.56H1.877z" id="ab"/><path d="M1.619.003c-.788 0-1.388.22-1.365.5l.007.66c-.007.03 0 .053.008.083l.864 2.418c.115.31.919.56 1.792.56h20.237c.812 0 1.366-.205 1.358-.462 0-.038-.008-.584 0-.675a.273.273 0 00-.023-.105c-.402-.803-.788-1.614-1.19-2.417-.16-.303-.98-.562-1.851-.562H1.619z" id="ad"/><path d="M1.443.537c-.72 0-1.251.19-1.297.44-.007.038 0 .628 0 .712-.007.03 0 .061.015.099.288.795.584 1.606.88 2.409.114.31.895.56 1.737.56h6.57c.765 0 1.304-.204 1.304-.469v-.683a.2.2 0 00-.023-.09L9.605 1.099c-.129-.31-.903-.56-1.73-.56H1.444z" id="af"/><path d="M1.708.538C.95.538.388.742.365 1.015c0 .03.008.614 0 .69 0 .03 0 .053.008.083.243.796.478 1.606.713 2.41.099.311.865.56 1.707.56h6.569c.759 0 1.32-.204 1.343-.47v-.69c0-.029 0-.052-.008-.082A313.95 313.95 0 019.84 1.1C9.718.788 8.96.538 8.133.538H1.708z" id="ah"/><path d="M1.404.538c-.842 0-1.45.25-1.38.56v.69c.196.796.378 1.606.552 2.41.077.311.812.56 1.662.56h6.561c.797 0 1.38-.22 1.38-.5v-.682c0-.023 0-.045-.006-.06-.228-.803-.463-1.614-.698-2.417C9.39.788 8.655.538 7.82.538H1.404z" id="aj"/><path d="M1.662.532C.842.532.205.79.258 1.1v.682c.122.803.26 1.606.38 2.417.054.31.782.561 1.623.561h6.562c.796 0 1.395-.22 1.411-.5 0-.023-.008-.622 0-.69 0-.022 0-.038-.008-.053-.167-.803-.35-1.614-.523-2.417-.069-.31-.79-.568-1.616-.568H1.662z" id="al"/><path d="M1.92.537c-.835 0-1.472.25-1.442.561v.69c.076.795.145 1.606.22 2.409.023.31.729.56 1.578.56h6.576c.828 0 1.496-.25 1.442-.56v-.681c-.121-.804-.235-1.614-.356-2.418-.053-.31-.775-.56-1.578-.56H1.92z" id="an"/><path d="M1.612.537c-.826 0-1.494.25-1.487.561.008.22 0 .674 0 .69.023.795.039 1.606.053 2.409.008.31.698.56 1.547.56h6.562c.85 0 1.51-.25 1.487-.56v-.681c-.06-.804-.13-1.614-.197-2.418-.023-.31-.713-.56-1.54-.56H1.612z" id="ap"/><path d="M1.873.537c-.82 0-1.51.25-1.525.561L.234 3.516v.681c-.015.31.66.56 1.51.56h6.569c.842 0 1.532-.25 1.524-.56v-.681c-.008-.804-.015-1.614-.03-2.418 0-.31-.683-.56-1.501-.56H1.873z" id="ar"/><path d="M2.146.536c-.834 0-1.54.25-1.578.561-.083.81-.181 1.614-.273 2.424v.675c-.037.31.622.568 1.472.568H8.33c.85 0 1.54-.258 1.555-.568.053-.804.098-1.607.136-2.41v-.689c.015-.311-.63-.561-1.456-.561H2.146z" id="at"/><path d="M2.39.536c-.826 0-1.539.25-1.6.561-.144.81-.295 1.614-.439 2.424-.016.068 0 .697 0 .712-.008.289.607.531 1.425.531h6.577c.835 0 1.563-.258 1.594-.568.105-.804.211-1.607.303-2.41v-.689c.045-.311-.607-.561-1.419-.561h-6.44z" id="av"/><path d="M2.66.536c-.827 0-1.563.25-1.638.561-.206.81-.403 1.614-.616 2.424 0 .015-.007.023-.007.046.007.068 0 .658 0 .674 0 .288.6.523 1.396.523h6.569c.857 0 1.578-.258 1.638-.568.16-.804.311-1.607.47-2.41v-.689c.053-.311-.56-.561-1.38-.561H2.659z" id="ax"/><path d="M2.918.533c-.834 0-1.577.257-1.676.568-.257.803-.523 1.606-.78 2.417-.009.015-.009.045-.009.068v.675c-.023.28.57.5 1.358.5h6.562c.857 0 1.6-.25 1.684-.561.212-.81.425-1.614.637-2.417a.2.2 0 00.008-.068c-.008-.075 0-.66 0-.682-.023-.28-.593-.5-1.358-.5H2.918z" id="az"/><path d="M3.184.533c-.834 0-1.6.257-1.729.568-.31.803-.63 1.606-.94 2.417C.5 3.54.5 3.57.5 3.6v.66c-.03.28.538.5 1.335.5h6.561c.85 0 1.616-.25 1.722-.561.265-.81.531-1.614.797-2.417.015-.023.015-.053.015-.076-.008-.083 0-.644 0-.666.015-.281-.554-.508-1.32-.508H3.184z" id="aB"/><path d="M3.266.533c-.835 0-1.616.257-1.775.568C1.088 1.904.7 2.707.3 3.518a.215.215 0 00-.024.099v.673c-.014.266.517.47 1.275.47h11.993c.841 0 1.632-.25 1.752-.56.326-.81.645-1.614.972-2.417.007-.03.015-.06.015-.099-.008-.083 0-.651 0-.681-.015-.265-.546-.47-1.282-.47H3.266z" id="aD"/><path d="M1.52.026C.694.026.094.246.11.518v.667c0 .023 0 .06.015.09.06.137.121.282.19.41.129.318.978.568 1.888.568H9.28c.797 0 1.366-.189 1.396-.447v-.682a.257.257 0 00-.03-.12c-.068-.13-.13-.282-.197-.41-.16-.311-1.017-.568-1.913-.568H1.52z" id="aF"/><path d="M1.963.266c-.841 0-1.525.25-1.509.57v.681c.03.804.068 1.614.099 2.417.015.31.735.553 1.6.553H8.89c.865 0 1.547-.243 1.517-.553v-.69c-.083-.803-.159-1.606-.243-2.409-.037-.318-.766-.569-1.607-.569H1.963z" id="aH"/><path d="M1.927.268c-.85 0-1.54.25-1.54.568-.023.804-.046 1.606-.06 2.41-.008.023 0 .485 0 .69-.015.31.683.552 1.547.552H8.61c.865 0 1.563-.242 1.555-.552-.007-.205 0-.66 0-.69-.03-.804-.06-1.606-.083-2.41C10.066.52 9.376.268 8.519.268H1.927z" id="aJ"/><path d="M1.893.266c-.85 0-1.562.25-1.585.57-.083.802-.16 1.605-.235 2.408v.69c-.022.31.653.553 1.517.553h6.743c.873 0 1.578-.243 1.586-.553l.09-2.417c0-.03-.007-.493 0-.682.009-.318-.667-.569-1.516-.569h-6.6z" id="aL"/><path d="M2.433.265C1.592.265.848.515.795.833L.41 3.25v.682c-.054.311.614.561 1.486.561h6.729c.872 0 1.593-.25 1.63-.56l.243-2.418V.833c.038-.318-.621-.568-1.463-.568h-6.6z" id="aN"/><path d="M2.398.265c-.843 0-1.594.25-1.67.568C.547 1.644.358 2.44.176 3.25c-.008.015-.008.038-.008.061.008.061 0 .66 0 .674.015.28.637.508 1.442.508h6.75c.85 0 1.6-.25 1.654-.56.137-.804.281-1.615.41-2.418V.833c.06-.318-.585-.568-1.419-.568H2.398z" id="aP"/><path d="M2.896.268c-.841 0-1.616.25-1.736.568-.296.804-.593 1.606-.888 2.41a.258.258 0 00-.015.075v.69c.007.273.576.477 1.365.477h6.751c.865 0 1.639-.242 1.737-.552.25-.804.5-1.614.751-2.418.016-.022.016-.053.016-.075-.008-.076 0-.644 0-.668.007-.288-.585-.507-1.374-.507H2.896z" id="aR"/><path d="M3.471.262c-.85 0-1.654.258-1.813.576-.394.803-.788 1.6-1.19 2.41-.008.03-.016.068-.023.09 0 .091.007.652 0 .683-.016.264.53.47 1.32.47h16.013c.872 0 1.669-.243 1.783-.554.31-.81.614-1.614.917-2.425.015-.022.015-.053.015-.076V.732c-.022-.258-.576-.47-1.334-.47H3.47z" id="aT"/><path d="M3.052.237c-.796 0-1.555.243-1.683.554L.344 3.208c-.015.03-.015.06-.015.09v.683c0 .272.523.47 1.267.47h6.402c.827 0 1.586-.25 1.7-.561.288-.803.583-1.614.887-2.417a.256.256 0 00.007-.076V.715c.008-.273-.53-.478-1.274-.478H3.052z" id="aV"/><path d="M3.076.237c-.804 0-1.54.243-1.654.554-.288.81-.57 1.614-.857 2.417-.007.03-.015.053-.007.083 0 .083-.008.667 0 .697.022.265.56.47 1.296.47h6.402c.828 0 1.563-.257 1.646-.568.243-.803.486-1.614.721-2.417.008-.023.008-.046.008-.068-.008-.076 0-.652 0-.675.007-.28-.539-.493-1.304-.493H3.076z" id="aX"/><path d="M2.52.237C1.726.237.99.48.899.791l-.69 2.417C.2 3.23.2 3.253.2 3.276c.008.076 0 .667 0 .69.023.272.592.485 1.343.485h6.402c.819 0 1.547-.25 1.608-.561l.562-2.417v-.06c-.009-.069 0-.66 0-.675-.009-.288-.585-.5-1.336-.5H2.52z" id="aZ"/><path d="M2.541.236C1.73.236 1.032.48.956.79L.433 3.214c-.008.015-.008.038-.008.053.008.06 0 .652 0 .667 0 .288.6.523 1.38.523h6.388c.835 0 1.54-.258 1.585-.569.122-.803.258-1.606.387-2.417V.79c.038-.31-.569-.553-1.38-.553H2.54z" id="bb"/><path d="M1.978.236C1.173.236.49.48.445.79.316 1.6.202 2.403.08 3.214v.674c-.045.31.584.569 1.403.569H7.88c.827 0 1.517-.258 1.548-.569.075-.803.144-1.606.22-2.417V.79C9.668.48 9.04.236 8.234.236H1.978z" id="bd"/><path d="M1.987.24C1.19.24.522.48.492.791c-.061.803-.121 1.613-.19 2.417v.681c-.023.311.623.561 1.442.561h6.394c.827 0 1.494-.25 1.502-.56.023-.804.038-1.614.054-2.418 0-.008-.009-.461 0-.681C9.7.482 9.056.239 8.252.239H1.987z" id="bf"/><path d="M1.999.24C1.209.24.542.48.542.791.535 1.595.52 2.405.52 3.209v.681c-.006.311.661.561 1.48.561h6.4c.827 0 1.48-.25 1.464-.56v-.682c-.038-.804-.076-1.614-.121-2.417-.015-.31-.676-.553-1.472-.553H2z" id="bh"/><path d="M1.449.24C.644.24 0 .48.022.791v.681L.16 3.89c.023.311.705.561 1.524.561h6.403c.819 0 1.463-.25 1.426-.56v-.682c-.099-.804-.183-1.614-.281-2.417-.037-.31-.728-.553-1.525-.553H1.45z" id="bj"/><path d="M1.466.24C.661.24.04.482.086.792v.683c.09.802.196 1.613.303 2.416.03.311.735.561 1.562.561h6.387c.782 0 1.373-.22 1.396-.5 0-.023-.007-.622 0-.682v-.06c-.16-.804-.304-1.615-.455-2.418C9.226.482 8.528.24 7.716.24h-6.25z" id="bl"/><path d="M1.512.236C.815.236.307.418.27.684c0 .022.007.613 0 .696 0 .03.007.06.015.091.327.81.652 1.614.97 2.417.123.31.896.569 1.715.569h11.682c.728 0 1.23-.197 1.244-.448v-.704c0-.03 0-.068-.023-.091-.394-.81-.796-1.614-1.199-2.425-.144-.31-.918-.553-1.729-.553H1.512z" id="bn"/><path d="M3.152.006c-.865 0-1.67.25-1.79.56-.32.804-.638 1.614-.965 2.417a.285.285 0 00-.015.084v.682c0 .273.584.477 1.388.477h6.91c.896 0 1.7-.25 1.806-.56l.819-2.417c.008-.023.008-.039.008-.069V.475c-.03-.264-.607-.469-1.404-.469H3.152z" id="bp"/><path d="M2.91.002c-.865 0-1.653.25-1.76.561L.347 2.988v.735c-.008.28.606.507 1.433.507h6.895c.903 0 1.7-.257 1.783-.568.22-.803.432-1.606.652-2.417 0-.015.008-.038 0-.053l.008-.69c-.008-.28-.622-.5-1.45-.5H2.91z" id="br"/><path d="M2.667.005c-.864 0-1.638.25-1.721.56C.74 1.37.536 2.18.316 2.984c0 .015-.008.038-.008.053v.682c0 .288.638.507 1.472.507h6.903c.895 0 1.661-.25 1.729-.56l.485-2.418V.52C10.89.232 10.26.005 9.434.005H2.667z" id="bt"/><path d="M2.419.002C1.562.002.803.252.743.563l-.47 2.425v.727c.022.288.667.515 1.502.515h6.918c.887 0 1.645-.257 1.683-.568.107-.803.22-1.606.327-2.417V.563C10.74.26 10.065.003 9.2.003H2.419z" id="bv"/><path d="M2.181.002C1.31.002.573.252.543.563c-.098.81-.205 1.614-.297 2.425v.697c0 .303.676.545 1.54.545h6.896c.902 0 1.639-.257 1.662-.568l.15-2.417c0-.038-.014-.485 0-.682C10.51.26 9.82.003 8.94.003H2.181z" id="bx"/><path d="M1.943.003c-.872 0-1.585.25-1.6.562l-.13 2.417c0 .037.016.492 0 .682-.014.31.684.56 1.571.56h6.911c.894 0 1.608-.25 1.608-.56 0-.228-.007-2.296-.015-3.1 0-.302-.699-.56-1.578-.56H1.943z" id="bz"/><path d="M1.705.003C.833.003.128.253.135.565c0 .211.023 2.295.03 3.099.008.31.736.56 1.624.56h6.903c.902 0 1.585-.25 1.561-.56v-.682L10.08.565C10.057.262 9.336.003 8.472.003H1.705z" id="bB"/><path d="M2.028.003C1.164.003.473.253.496.565c.015.181 0 .636 0 .681l.205 2.418c.023.31.774.56 1.661.56h6.903c.888 0 1.57-.25 1.525-.56v-.682L10.448.565c-.045-.303-.781-.562-1.66-.562h-6.76z" id="bD"/><path d="M1.754.536C1.003.536.472.74.487 1.013v.674c0 .03.007.061.022.099.35.803.698 1.606 1.047 2.41.13.31.934.568 1.768.568H5.41c.568 1.235 1.137 2.485 1.707 3.727.136.312.955.554 1.82.554h3.042c.744 0 1.29-.19 1.312-.447V7.9a.288.288 0 00-.022-.099c-1.108-2.235-2.208-4.47-3.315-6.705-.153-.31-.956-.56-1.768-.56H1.754z" id="bF"/><path d="M2.903.311c-.888 0-1.684.25-1.775.562C.9 1.675.68 2.486.453 3.282c-.008.022-.008.045-.008.076v.69c.023.271.652.484 1.487.484H12.9c.926 0 1.707-.25 1.776-.568.16-.804.326-1.606.485-2.41 0-.015.008-.038 0-.053V.812c-.022-.28-.66-.5-1.51-.5H2.904z" id="bH"/><path d="M1.905.311C1.071.311.404.54.373.827v.69c0 .014 0 .022.007.037l.365 2.41c.053.318.826.568 1.73.568h9.041c.85 0 1.51-.22 1.532-.5V3.35c0-.023 0-.046-.007-.068-.175-.796-.357-1.607-.531-2.41-.07-.31-.858-.56-1.753-.56H1.905z" id="bJ"/><path d="M2.866.31c-.903 0-1.706.248-1.813.559L.188 3.287c-.008.022-.008.052-.008.075v.682c0 .273.615.492 1.457.492h7.07c.925 0 1.729-.257 1.82-.576.235-.803.478-1.598.713-2.409.007-.022.007-.045.007-.068V.808c0-.28-.614-.499-1.456-.499H2.866z" id="bL"/><path d="M3.377.31c-.895 0-1.73.248-1.859.559-.34.81-.682 1.614-1.023 2.418a.253.253 0 00-.016.082v.69c.016.266.607.477 1.434.477H8.99c.903 0 1.745-.257 1.859-.576.288-.803.584-1.598.88-2.409.008-.022.008-.053.008-.076V.786c-.009-.272-.623-.477-1.42-.477h-6.94z" id="bN"/><path d="M3.319.31c-.888 0-1.737.248-1.89.559-.393.81-.788 1.614-1.182 2.418a.17.17 0 00-.023.09v.698c.015.264.584.461 1.388.461h7.085c.91 0 1.744-.257 1.888-.576.35-.803.699-1.598 1.047-2.409.016-.022.016-.053.023-.076V.778C11.648.514 11.072.31 10.267.31H3.32z" id="bP"/><path d="M2.21.31C1.325.31.55.56.49.871c-.16.803-.313 1.614-.464 2.41-.008.022-.008.037-.008.06v.682c.031.288.699.507 1.549.507H57.72c.843 0 1.51-.22 1.563-.5v-.697c.008-.022.008-.03 0-.053-.114-.795-.22-1.606-.341-2.409-.046-.31-.797-.56-1.7-.56H2.212z" id="bR"/><path d="M1.583.31C.733.31.103.53.081.81v.675c0 .023 0 .046.007.069.183.802.365 1.606.562 2.41.068.317.865.568 1.783.568H9.51c.827 0 1.457-.205 1.494-.478v-.69c0-.022 0-.052-.008-.083-.235-.795-.463-1.606-.705-2.41-.083-.31-.887-.56-1.775-.56H1.583z" id="bT"/><path d="M1.712.31C.915.31.324.517.3.782v.689c0 .03 0 .06.016.084.288.802.584 1.606.88 2.41.106.317.94.568 1.851.568h7.085c.82 0 1.41-.205 1.418-.478v-.667a.304.304 0 00-.022-.106c-.341-.795-.683-1.606-1.025-2.41-.128-.31-.955-.56-1.85-.56H1.712z" id="bV"/><path d="M1.702.026C.861.026.223.254.223.533v.676c0 .022 0 .045.008.06.045.144.084.288.129.417.09.318.91.568 1.813.568h7.085c.834 0 1.456-.212 1.464-.486v-.673c0-.03 0-.06-.016-.091-.052-.129-.098-.28-.144-.41-.113-.31-.94-.568-1.842-.568H1.702z" id="bX"/><path d="M1.559.262C.784.262.223.482.223.754c0 .031.008.592 0 .682a.27.27 0 00.015.076c.312.81.63 1.614.94 2.425.122.311.927.553 1.784.553h6.736c.78 0 1.327-.197 1.342-.455 0-.038-.008-.606 0-.689 0-.03-.008-.06-.023-.098-.356-.803-.72-1.607-1.077-2.41C9.804.52 9 .262 8.158.262h-6.6z" id="bZ"/><path d="M1.52.262C.722.262.146.49.161.778c0 .022.007.583 0 .666 0 .023 0 .053.015.068.25.81.508 1.614.766 2.425.099.311.865.553 1.752.553H9.43c.797 0 1.366-.205 1.366-.477v-.675c.007-.022 0-.06-.015-.09l-.91-2.41C9.75.52 8.976.262 8.127.262H1.519z" id="cb"/><path d="M1.488.262C.699.262.1.49.085.77c0 .022.007.613 0 .682 0 .023 0 .045.007.06.198.81.403 1.614.607 2.425.076.311.843.553 1.707.553H9.15c.797 0 1.381-.205 1.404-.477v-.697c0-.023 0-.046-.008-.068-.25-.803-.493-1.607-.75-2.41-.092-.318-.858-.576-1.7-.576H1.488z" id="cd"/><path d="M1.466.262C.66.262.046.49.025.778c-.009.022.006.62 0 .681-.009.023 0 .038 0 .053.144.81.295 1.614.432 2.425.06.311.819.553 1.683.553h6.736c.797 0 1.404-.205 1.434-.484.008-.024-.008-.63 0-.69 0-.023 0-.046-.008-.068a283.9 283.9 0 00-.576-2.41C9.65.52 8.9.262 8.057.262H1.466z" id="cf"/><path d="M1.999.266c-.865 0-1.502.25-1.464.57v.681c.083.804.175 1.614.273 2.417.03.31.735.553 1.623.553H9.16c.88 0 1.532-.243 1.478-.553v-.69a288.8 288.8 0 00-.416-2.409C10.168.517 9.44.266 8.59.266H1.999z" id="ch"/><path d="M2.939.265c-.842 0-1.616.25-1.714.568C.99 1.644.747 2.44.512 3.25a.137.137 0 00-.015.061c.007.076 0 .66 0 .674 0 .28.607.508 1.41.508h6.744c.85 0 1.63-.25 1.691-.56.198-.804.395-1.615.592-2.418.008-.023.008-.044.008-.06-.008-.068 0-.66 0-.675 0-.288-.614-.515-1.404-.515h-6.6z" id="cj"/><path d="M2.293.53c-.79 0-1.555.25-1.708.56a.798.798 0 00-.052.107c-.159.31.371.56 1.168.56h6.22c.82 0 1.563-.25 1.7-.56.014-.038.03-.069.045-.107.129-.31-.395-.56-1.199-.56H2.293z" id="cl"/><path d="M1.247.53C.458.53-.08.78.057 1.09c.022.038.03.07.044.107.138.31.896.56 1.692.56h6.228c.812 0 1.335-.25 1.176-.56-.015-.038-.038-.069-.053-.107C8.992.78 8.226.53 7.429.53H1.247z" id="cn"/><path d="M1.545.53C.757.53.204.78.317 1.09c.015.038.03.07.038.107.114.31.842.56 1.654.56h6.228c.803 0 1.35-.25 1.213-.56-.015-.038-.023-.069-.046-.107C9.283.78 8.532.53 7.721.53H1.545z" id="cp"/><path d="M1.845.53C1.055.53.479.78.57 1.09c.008.038.023.07.03.107.092.31.812.56 1.616.56h6.228c.804 0 1.366-.25 1.251-.56-.007-.038-.022-.069-.03-.107C9.552.78 8.832.53 8.028.53H1.845z" id="cr"/><path d="M1.58.53C.785.53.194.78.26 1.09a.564.564 0 00.031.107c.069.31.767.56 1.57.56h6.221c.803 0 1.388-.25 1.297-.56-.008-.038-.023-.069-.03-.107C9.256.78 8.551.53 7.746.53H1.581z" id="ct"/><path d="M1.88.53C1.083.53.483.78.529 1.09c.007.038.007.07.015.107.046.31.721.56 1.533.56h6.22c.804 0 1.403-.25 1.335-.56-.008-.038-.008-.069-.015-.107C9.548.78 8.851.53 8.054.53H1.88z" id="cv"/><path d="M1.6.53C.81.53.189.78.212 1.09c0 .038.007.07.007.107.023.31.69.56 1.487.56H7.94c.804 0 1.42-.25 1.374-.56-.008-.038-.008-.069-.016-.107C9.254.78 8.578.53 7.79.53H1.6z" id="cx"/><path d="M1.906.53C1.125.53.472.78.472 1.09v.107c.008.31.668.56 1.457.56h6.227c.797 0 1.434-.25 1.411-.56 0-.038-.007-.069-.007-.107C9.536.78 8.877.53 8.088.53H1.906z" id="cz"/><path d="M1.635.53c-.79 0-1.45.25-1.472.56-.007.038-.007.07-.007.107-.024.31.622.56 1.418.56h6.228c.796 0 1.449-.25 1.449-.56V1.09C9.258.78 8.613.53 7.816.53H1.635z" id="cB"/><path d="M1.94.53C1.146.53.463.78.425 1.09a.462.462 0 00-.015.107c-.046.31.576.56 1.373.56h6.235c.788 0 1.465-.25 1.486-.56 0-.038.008-.069.008-.107.023-.31-.599-.56-1.395-.56H1.94z" id="cD"/><path d="M1.669.53C.865.53.182.78.12 1.09l-.02.107c-.069.31.515.56 1.327.56h6.22c.804 0 1.487-.25 1.54-.56 0-.038.007-.069.015-.107.046-.31-.56-.56-1.365-.56H1.669z" id="cF"/><path d="M1.967.53c-.804 0-1.51.25-1.592.56-.008.038-.024.07-.03.107-.092.31.484.56 1.289.56h6.22c.812 0 1.516-.25 1.585-.56l.023-.107C9.53.78 8.946.53 8.134.53H1.967z" id="cH"/><path d="M1.695.53C.892.53.164.78.058 1.09c-.015.038-.023.07-.039.107-.106.31.448.56 1.26.56h6.227c.804 0 1.525-.25 1.616-.56.008-.038.023-.069.03-.107.091-.31-.484-.56-1.281-.56H1.695z" id="cJ"/><path d="M1.987.53c-.781 0-1.532.25-1.66.56l-.047.107c-.136.31.41.56 1.214.56h6.22c.812 0 1.54-.25 1.654-.56.008-.038.022-.069.038-.107.114-.31-.44-.56-1.237-.56H1.987z" id="cL"/><path d="M3.047.233c-.797 0-1.578.25-1.722.561C.923 1.597.528 2.408.133 3.211c-.151.31.387.56 1.207.56h6.394c.835 0 1.6-.25 1.737-.56.35-.803.706-1.614 1.048-2.417.136-.31-.403-.56-1.215-.56H3.047z" id="cN"/><path d="M3.054.233c-.796 0-1.555.25-1.69.561L.346 3.211c-.137.31.424.56 1.25.56h6.396c.834 0 1.585-.25 1.706-.56.289-.803.584-1.614.88-2.417.115-.31-.447-.56-1.266-.56h-6.26z" id="cP"/><path d="M3.078.233c-.81 0-1.547.25-1.653.561-.288.803-.569 1.614-.857 2.417-.114.31.463.56 1.281.56h6.403c.835 0 1.563-.25 1.654-.56.235-.803.477-1.614.72-2.417.084-.31-.485-.56-1.297-.56h-6.25z" id="cR"/><path d="M2.517.233c-.79 0-1.532.25-1.623.561L.21 3.211c-.09.31.517.56 1.328.56H7.94c.827 0 1.548-.25 1.616-.56L10.11.794c.068-.31-.524-.56-1.335-.56H2.517z" id="cT"/><path d="M2.54.233c-.81 0-1.509.25-1.585.561C.78 1.597.607 2.408.44 3.211c-.068.31.538.56 1.365.56h6.387c.834 0 1.54-.25 1.585-.56.13-.803.259-1.614.387-2.417.046-.31-.561-.56-1.38-.56H2.54z" id="cV"/><path d="M1.979.233c-.804 0-1.494.25-1.54.561-.121.803-.235 1.614-.356 2.417-.046.31.583.56 1.403.56H7.88c.827 0 1.517-.25 1.547-.56.077-.803.145-1.614.213-2.417.03-.31-.6-.56-1.403-.56H1.98z" id="cX"/><path d="M1.988.233C1.19.233.524.483.494.794c-.061.803-.13 1.614-.19 2.417-.023.31.622.56 1.441.56h6.394c.828 0 1.495-.25 1.503-.56.022-.803.037-1.614.053-2.417.007-.31-.638-.56-1.45-.56H1.989z" id="cZ"/><path d="M2.004.233C1.207.233.54.483.54.794c0 .803-.016 1.614-.016 2.417-.008.31.652.56 1.472.56h6.41c.82 0 1.472-.25 1.456-.56-.038-.803-.076-1.614-.122-2.417-.014-.31-.667-.56-1.471-.56H2.004z" id="db"/><path d="M1.45.233C.644.233 0 .483.022.794L.16 3.211c.023.31.705.56 1.524.56h6.403c.82 0 1.464-.25 1.425-.56-.098-.803-.18-1.614-.28-2.417-.038-.31-.729-.56-1.525-.56H1.449z" id="dd"/><path d="M1.466.233C.661.233.04.483.086.794c.09.803.196 1.614.303 2.417.03.31.735.56 1.562.56h6.387c.835 0 1.45-.25 1.396-.56-.16-.803-.304-1.614-.455-2.417-.053-.31-.751-.56-1.563-.56h-6.25z" id="df"/><path d="M1.474.233C.67.233.064.483.124.794.29 1.597.442 2.408.6 3.211c.054.31.782.56 1.6.56h6.396c.834 0 1.426-.25 1.35-.56-.205-.803-.418-1.614-.615-2.417-.083-.31-.796-.56-1.6-.56H1.473z" id="dh"/><path d="M1.498.233C.686.233.102.483.185.794c.206.803.418 1.614.638 2.417.075.31.819.56 1.639.56h6.394c.834 0 1.41-.25 1.305-.56L9.38.794c-.09-.31-.827-.56-1.63-.56H1.5z" id="dj"/><path d="M1.499.233C.702.233.125.483.232.794c.265.803.53 1.614.812 2.417.098.31.849.56 1.668.56h6.41c.812 0 1.389-.25 1.267-.56-.32-.803-.63-1.614-.948-2.417-.122-.31-.873-.56-1.676-.56H1.499z" id="dl"/><path d="M1.51.233C.713.233.167.483.28.794c.327.803.653 1.614.972 2.417.129.31.895.56 1.722.56h11.682c.834 0 1.373-.25 1.213-.56-.394-.803-.788-1.614-1.191-2.417-.151-.31-.917-.56-1.737-.56H1.511z" id="dn"/><path d="M3.11.568c-.865 0-1.692.265-1.85.568C.864 1.94.47 2.75.075 3.554c-.16.311.44.56 1.327.56h10.71c.888 0 1.707-.249 1.844-.56.326-.804.66-1.614.994-2.418.12-.303-.478-.568-1.342-.568H3.11z" id="dp"/><path d="M3.15.568c-.865 0-1.67.265-1.79.568C1.04 1.94.721 2.75.395 3.554c-.13.311.485.56 1.38.56h6.91c.889 0 1.692-.249 1.799-.56l.82-2.418c.105-.303-.51-.568-1.389-.568H3.15z" id="dr"/><path d="M2.914.568c-.865 0-1.662.265-1.768.568L.35 3.554c-.099.311.547.56 1.426.56h6.903c.903 0 1.691-.249 1.775-.56l.66-2.418c.084-.303-.561-.568-1.448-.568H2.914z" id="dt"/><path d="M2.663.568c-.864 0-1.63.265-1.714.568C.745 1.94.532 2.75.32 3.554c-.083.311.57.56 1.457.56H8.68c.902 0 1.661-.249 1.729-.56l.486-2.418c.06-.303-.585-.568-1.464-.568H2.663z" id="dv"/><path d="M2.421.568c-.857 0-1.623.265-1.684.568L.274 3.554c-.06.311.622.56 1.503.56h6.91c.895 0 1.654-.249 1.691-.56.107-.804.213-1.614.326-2.418.039-.303-.636-.568-1.501-.568H2.42z" id="dx"/><path d="M2.186.568c-.873 0-1.609.265-1.647.568L.244 3.554c-.046.311.645.56 1.54.56h6.895c.903 0 1.638-.249 1.661-.56l.16-2.418c.007-.303-.675-.568-1.563-.568H2.186z" id="dz"/><path d="M1.943.568c-.872 0-1.585.265-1.592.568L.214 3.554c-.015.311.683.56 1.57.56h6.911c.894 0 1.608-.249 1.608-.56-.007-.804-.007-1.614-.015-2.418 0-.303-.699-.568-1.578-.568H1.943z" id="dB"/><path d="M1.708.568C.836.568.13.833.138 1.136c.007.804.023 1.614.03 2.418.008.311.737.56 1.624.56h6.902c.896 0 1.586-.249 1.563-.56l-.174-2.418C10.06.833 9.339.568 8.474.568H1.708z" id="dD"/><path d="M2.028.568c-.864 0-1.555.265-1.524.568l.197 2.418c.023.311.774.56 1.661.56h6.903c.888 0 1.57-.249 1.525-.56l-.342-2.418c-.045-.303-.773-.568-1.66-.568h-6.76z" id="dF"/><path d="M1.785.568c-.864 0-1.54.265-1.494.568.13.804.25 1.614.371 2.418.046.311.805.56 1.7.56h6.904c.895 0 1.569-.249 1.5-.56l-.507-2.418C10.19.833 9.424.568 8.552.568H1.785z" id="dH"/><path d="M1.55.568C.678.568.033.833.101 1.136l.532 2.418c.076.311.833.56 1.729.56H9.28c.88 0 1.524-.249 1.441-.56a318.67 318.67 0 01-.675-2.418C9.955.833 9.189.568 8.324.568H1.55z" id="dJ"/><path d="M1.877.568c-.872 0-1.51.265-1.418.568l.705 2.418c.091.311.88.56 1.768.56h6.91c.903 0 1.533-.249 1.418-.56-.28-.804-.553-1.614-.833-2.418-.115-.303-.903-.568-1.783-.568H1.877z" id="dL"/><path d="M1.628.568C.77.568.156.833.27 1.136l.864 2.418c.114.311.918.56 1.79.56h20.239c.895 0 1.495-.249 1.335-.56-.402-.804-.789-1.614-1.191-2.418-.16-.303-.979-.568-1.85-.568H1.626z" id="dN"/><path d="M1.444.537c-.819 0-1.402.25-1.282.561.288.804.585 1.614.88 2.418.114.302.888.568 1.737.568h6.57c.842 0 1.41-.266 1.281-.568-.341-.804-.682-1.614-1.024-2.418-.128-.31-.902-.56-1.729-.56H1.444z" id="dP"/><path d="M1.75.536c-.818 0-1.38.25-1.243.561.349.81.698 1.614 1.046 2.424.137.303.934.56 1.768.56h2.093c.562 1.236 1.131 2.478 1.7 3.721.137.31.956.56 1.828.56h3.034c.85 0 1.434-.25 1.29-.56-1.108-2.235-2.208-4.47-3.316-6.705C9.8.786 8.995.536 8.184.536H1.75z" id="dR"/><path d="M1.714.537C.88.537.279.787.37 1.098c.242.804.478 1.614.72 2.418.091.302.858.568 1.7.568h6.577c.834 0 1.44-.266 1.327-.568-.289-.804-.577-1.614-.858-2.418-.121-.31-.88-.56-1.706-.56H1.714z" id="dT"/><path d="M1.405.537c-.842 0-1.449.25-1.38.561.189.804.379 1.614.553 2.418.076.302.812.568 1.661.568h6.562c.857 0 1.464-.266 1.373-.568a269.63 269.63 0 00-.698-2.418c-.091-.31-.82-.56-1.654-.56H1.405z" id="dV"/><path d="M1.666.537C.84.537.202.787.255 1.098L.64 3.516c.054.302.774.568 1.624.568h6.562c.842 0 1.464-.266 1.395-.568A139.6 139.6 0 009.7 1.098c-.068-.31-.781-.56-1.616-.56H1.666z" id="dX"/><path d="M1.92.537c-.835 0-1.472.25-1.442.561.076.804.153 1.614.22 2.418.023.302.729.568 1.578.568h6.576c.828 0 1.496-.266 1.442-.568-.121-.804-.235-1.614-.356-2.418-.053-.31-.767-.56-1.578-.56H1.92z" id="dZ"/><path d="M1.612.537c-.828 0-1.495.25-1.488.561.023.804.038 1.614.053 2.418.008.302.698.568 1.548.568h6.562c.85 0 1.51-.266 1.486-.568-.06-.804-.129-1.614-.197-2.418-.023-.31-.713-.56-1.54-.56H1.612z" id="eb"/><path d="M1.872.537c-.82 0-1.51.25-1.525.561L.233 3.516c-.015.302.66.568 1.51.568h6.57c.84 0 1.531-.266 1.524-.568-.008-.804-.015-1.614-.03-2.418 0-.31-.683-.56-1.503-.56H1.872z" id="ed"/><path d="M2.14.537c-.826 0-1.531.25-1.57.561L.299 3.516c-.038.302.622.568 1.472.568h6.553c.858 0 1.547-.266 1.563-.568l.137-2.418c.014-.31-.63-.56-1.457-.56H2.141z" id="ef"/><path d="M2.395.537c-.827 0-1.54.25-1.6.561-.153.804-.297 1.614-.448 2.418-.053.302.584.568 1.433.568h6.57c.833 0 1.562-.266 1.6-.568.106-.804.205-1.614.304-2.418.045-.31-.608-.56-1.42-.56h-6.44z" id="eh"/><path d="M2.663.537c-.834 0-1.562.25-1.646.561A253.87 253.87 0 01.41 3.516c-.083.302.54.568 1.389.568h6.569c.85 0 1.577-.266 1.638-.568.152-.804.311-1.614.462-2.418.061-.31-.553-.56-1.38-.56H2.663z" id="ej"/><path d="M2.917.537c-.834 0-1.57.25-1.676.561C.983 1.902.725 2.712.46 3.516c-.098.302.508.568 1.35.568h6.562c.857 0 1.6-.266 1.684-.568.213-.804.425-1.614.637-2.418.084-.31-.523-.56-1.35-.56H2.917z" id="el"/><path d="M3.186.537c-.834 0-1.6.25-1.729.561-.311.804-.63 1.614-.941 2.418-.129.302.47.568 1.32.568h6.562c.841 0 1.615-.266 1.722-.568l.795-2.418c.108-.31-.485-.56-1.303-.56H3.186z" id="en"/><path d="M3.26.537c-.827 0-1.609.25-1.768.561-.401.804-.789 1.614-1.19 2.418-.153.302.401.568 1.25.568h11.994c.842 0 1.63-.266 1.752-.568.326-.804.645-1.614.97-2.418.13-.31-.44-.56-1.266-.56H3.26z" id="ep"/><path d="M2.898.31c-.887 0-1.676.25-1.767.561-.227.803-.455 1.614-.682 2.41-.091.318.576.568 1.479.568h10.976c.925 0 1.699-.25 1.768-.569.166-.795.326-1.606.492-2.409.053-.31-.607-.56-1.517-.56H2.898z" id="er"/><path d="M1.906.31C1.019.31.328.56.38.871l.364 2.41c.054.318.827.568 1.73.568h9.042c.91 0 1.6-.25 1.524-.569-.174-.795-.356-1.606-.53-2.409-.069-.31-.857-.56-1.753-.56H1.906z" id="et"/><path d="M2.864.31c-.903 0-1.7.25-1.813.561-.289.803-.57 1.614-.858 2.41-.113.318.532.568 1.441.568h7.078c.918 0 1.722-.25 1.813-.569.235-.795.478-1.606.72-2.409.084-.31-.553-.56-1.456-.56H2.864z" id="ev"/><path d="M3.376.31c-.895 0-1.722.25-1.858.561-.341.803-.683 1.614-1.024 2.41-.13.318.5.568 1.417.568H8.99c.902 0 1.744-.25 1.858-.569.295-.795.591-1.606.88-2.409.114-.31-.531-.56-1.411-.56H3.376z" id="ex"/><path d="M3.318.31c-.888 0-1.73.25-1.889.561-.394.803-.788 1.614-1.183 2.41-.16.318.455.568 1.365.568h7.085c.91 0 1.744-.25 1.889-.569.35-.795.697-1.606 1.046-2.409.13-.31-.477-.56-1.365-.56H3.318z" id="ez"/><path d="M2.214.31C1.326.31.546.557.49.868c-.159.81-.31 1.614-.462 2.418-.068.318.63.56 1.54.56h56.148c.918 0 1.608-.242 1.57-.56l-.34-2.417c-.044-.31-.803-.56-1.699-.56H2.214z" id="eB"/><path d="M1.583.305C.688.305.013.564.088.874c.183.803.365 1.614.562 2.41.068.317.865.56 1.783.56H9.51c.91 0 1.578-.243 1.486-.56-.235-.796-.47-1.607-.705-2.41-.083-.31-.887-.569-1.775-.569H1.583z" id="eD"/><path d="M1.523.03C.613.03-.009.282.128.593c.06.136.121.28.182.416.136.32.978.561 1.889.561h7.085c.902 0 1.516-.242 1.365-.56l-.205-.417C10.292.282 9.435.03 8.532.03H1.523z" id="eF"/><path d="M1.717.31C.82.31.192.56.313.871c.288.803.584 1.614.88 2.41.114.318.94.568 1.851.568h7.085c.91 0 1.54-.25 1.403-.569-.341-.795-.683-1.606-1.024-2.409-.137-.31-.956-.56-1.85-.56H1.716z" id="eH"/><path d="M1.696.03C.802.03.141.282.233.593c.045.136.083.28.128.416.084.32.91.561 1.813.561h7.078c.918 0 1.57-.242 1.456-.56-.053-.137-.099-.28-.151-.417C10.45.282 9.624.03 8.72.03H1.696z" id="eJ"/><path d="M1.56.266C.71.266.116.516.238.836c.312.802.63 1.605.941 2.408.12.311.925.569 1.782.569h6.736c.866 0 1.457-.258 1.32-.569-.356-.803-.72-1.606-1.077-2.409C9.804.517 9 .266 8.157.266H1.56z" id="eL"/><path d="M1.524.266c-.858 0-1.456.25-1.35.57.25.802.508 1.605.773 2.408.092.311.865.569 1.745.569h6.743c.865 0 1.465-.258 1.343-.569L9.868.835C9.755.517 8.973.266 8.131.266H1.524z" id="eN"/><path d="M1.49.266C.64.266.01.516.092.836.29 1.637.495 2.44.7 3.243c.076.311.835.569 1.707.569H9.15c.865 0 1.495-.258 1.397-.569L9.795.835c-.091-.318-.857-.569-1.7-.569H1.49z" id="eP"/><path d="M1.462.266C.612.266-.04.516.02.836c.152.802.296 1.605.44 2.408.053.311.812.569 1.677.569h6.736c.865 0 1.509-.258 1.425-.569-.189-.803-.37-1.606-.576-2.409-.068-.318-.82-.569-1.661-.569h-6.6z" id="eR"/><path d="M1.997.266c-.866 0-1.503.25-1.465.57.092.802.175 1.605.274 2.408.03.311.743.569 1.623.569h6.736c.872 0 1.525-.258 1.472-.569-.137-.803-.273-1.606-.418-2.409-.045-.318-.773-.569-1.63-.569H1.996z" id="eT"/><path d="M1.962.266c-.843 0-1.525.25-1.51.57.03.802.068 1.605.106 2.408.015.311.728.569 1.6.569h6.729c.873 0 1.547-.258 1.517-.569-.075-.803-.16-1.606-.243-2.409-.037-.318-.759-.569-1.608-.569H1.962z" id="eV"/><path d="M1.926.266c-.85 0-1.54.25-1.54.57a242.56 242.56 0 00-.06 2.408c-.015.311.682.569 1.547.569h6.736c.865 0 1.563-.258 1.555-.569-.03-.803-.06-1.606-.084-2.409-.015-.318-.704-.569-1.562-.569H1.926z" id="eX"/><path d="M1.892.266C1.05.266.328.516.306.836a120.9 120.9 0 00-.228 2.407c-.03.311.652.569 1.51.569h6.75c.866 0 1.58-.258 1.586-.569.023-.803.054-1.606.084-2.409C10.015.517 9.34.266 8.49.266h-6.6z" id="eZ"/><path d="M2.433.266c-.848 0-1.585.25-1.638.57L.41 3.243c-.054.311.614.569 1.486.569h6.729c.864 0 1.593-.258 1.63-.569.084-.803.168-1.606.243-2.409.038-.318-.621-.569-1.463-.569h-6.6z" id="fb"/><path d="M2.399.266c-.85 0-1.593.25-1.669.57C.548 1.637.358 2.44.176 3.243c-.076.311.57.569 1.433.569h6.752c.85 0 1.6-.258 1.654-.569.136-.803.28-1.606.409-2.409.06-.318-.584-.569-1.418-.569H2.399z" id="fd"/><path d="M2.941.266c-.849 0-1.615.25-1.714.57-.235.802-.478 1.605-.72 2.408-.092.311.539.569 1.403.569h6.743c.85 0 1.623-.258 1.692-.569.198-.803.394-1.606.584-2.409.076-.318-.561-.569-1.388-.569h-6.6z" id="ff"/><path d="M2.9.266c-.851 0-1.617.25-1.739.57-.295.802-.59 1.605-.887 2.408-.121.311.485.569 1.35.569h6.744c.865 0 1.646-.258 1.745-.569.25-.803.5-1.606.744-2.409.098-.318-.509-.569-1.351-.569H2.899z" id="fh"/><path d="M3.467.266c-.842 0-1.646.25-1.805.57C1.259 1.637.872 2.44.47 3.243c-.152.311.424.569 1.297.569H17.78c.865 0 1.669-.258 1.775-.569.31-.803.614-1.606.917-2.409.122-.318-.47-.569-1.311-.569H3.467z" id="fj"/><path d="M6.382.19C2.878.19.04 3.024.04 6.517v92.817c0 3.493 2.838 6.327 6.342 6.327h172.912c3.504 0 6.341-2.834 6.341-6.327V6.524c0-3.5-2.837-6.334-6.341-6.334H6.382z" id="fl"/><path d="M6.38.19C2.877.19.04 3.024.04 6.517v92.817c0 3.493 2.836 6.327 6.34 6.327h172.914c3.503 0 6.34-2.834 6.34-6.327V6.524c0-3.5-2.837-6.334-6.34-6.334H6.38zm-.667 99.144V6.517c0-.364.296-.66.668-.66h172.913a.67.67 0 01.667.667v92.81a.668.668 0 01-.667.667H6.38a.668.668 0 01-.668-.667z" id="fn"/><path id="fp" d="M175.43.37v79.135H.224V.37H175.43z"/><path id="fr" d="M175.43 10.878V.279H.224v10.599H175.43z"/><path id="ft" d="M.224 94.877H175.43V.279H.224z"/></defs><g fill="none" fill-rule="evenodd"><path fill="#30363D" d="M268.652 157.663H400.67V85.666H268.652z"/><path fill="#48494F" d="M268.652 156.09H400.67V84.093H268.652z"/><path fill="#30363D" d="M268.652 86.118H400.67v-2.025H268.652zm0-2.035H400.67V67.815H268.652z"/><path fill="#F8F9FC" d="M287.952 67.815h-18.694l22.194 16.268h18.693zm37.945 0h-18.695l22.196 16.268h18.694zm37.95 0h-18.699l22.198 16.268h18.696zm36.823 12.879V67.815h-17.576z"/><path fill="#30363D" d="M399.377 39.999L267.813 50.873l1.34 16.213 131.569-10.873z"/><path fill="#F8F9FC" d="M288.389 65.496l-18.632 1.54 20.777-18.04 18.628-1.538zm37.816-3.125l-18.633 1.539 20.779-18.041 18.629-1.538zm37.819-3.126l-18.634 1.541 20.778-18.04 18.632-1.542zm35.633-15.867l1.065 12.835-17.516 1.448z"/><path fill="#484F59" d="M287.777 77.345h-16.302V54.646h8.866l7.436 4.922z"/><path d="M275.494 74.376a1.18 1.18 0 11-2.36-.001 1.18 1.18 0 012.36.001zm0-16.641a1.18 1.18 0 11-2.36 0 1.18 1.18 0 012.36 0m10.236 16.641a1.18 1.18 0 01-2.362 0 1.18 1.18 0 012.363 0" fill="#30363D"/><path fill="#E5E8EC" d="M276.797 105.168h114.94v-1.572h-114.94zm0-7.025h69.743v-3.637h-69.743z"/><path fill="#E5E8EC" d="M333.475 112.668h1.575v-8.183h-1.575zm-37.714 33.806h1.576v-8.182h-1.576zm11.422-7.075h1.575v-26.106h-1.575zm49.991 0h1.576v-26.106h-1.576z"/><path fill="#E5E8EC" d="M276.797 113.555h114.94v-1.572h-114.94zm0-4.649h19.358v-1.18h-19.358zm5.51 10.613h19.36v-1.178h-19.36zm40.545 0h19.359v-1.178h-19.36zm44.48 0h19.359v-1.178h-19.36zM276.797 143.5h7.55v-1.181h-7.55zm0-3.737h114.94v-1.572h-114.94z"/><path d="M117.88 72.497c2.486 0 4.5 2.012 4.5 4.494v75.501a4.497 4.497 0 01-4.5 4.493H7.675a4.497 4.497 0 01-4.5-4.493v-75.5a4.498 4.498 0 014.5-4.495h110.203z" fill="#CBCCD1"/><path d="M121.696 152.492c0 2.1-1.712 3.81-3.816 3.81H7.676a3.819 3.819 0 01-3.817-3.81V76.991a3.819 3.819 0 013.817-3.811H117.88a3.818 3.818 0 013.816 3.811v75.501z" fill="#E3E4E8"/><path d="M8.496 113.984a.758.758 0 110 1.516.758.758 0 010-1.516" fill="#596273"/><path d="M117.45 110.796c.467 0 .847.378.847.845v6.2c0 .467-.38.845-.847.845h-1.694a.846.846 0 01-.846-.845v-6.2c0-.467.379-.845.846-.845h1.694z" fill="#CDD5D7"/><path fill="#59B3C5" d="M12.976 151.493h98.204V77.99H12.976z"/><path fill="#66CDE1" d="M44.265 151.493h31.438l-62.727-38.546v19.318zm48.866 0l-80.155-49.257v7.35l68.195 41.907z"/><use fill="#68696D" xlink:href="#a" transform="translate(12 77.512)"/><path fill="#28282C" d="M111.212 151.67l-98.168.185-.032-16.364 98.17-.183z"/><path fill="#EBEBEB" d="M99.097 143.77l-74.393.14v-.743l74.39-.138z"/><path fill="#5AA6D9" d="M61.703 143.84l-36.999.07v-.743l36.996-.07z"/><path d="M17.289 141.75c0 .007-.005.024-.005.059l.007 3.489a.134.134 0 00.007.055.233.233 0 00.052-.022l3.023-1.752a.16.16 0 00.047-.035c-.005-.004-.018-.017-.047-.032l-3.03-1.74a.176.176 0 00-.054-.022" fill="#FFF"/><path d="M65.467 101.57c-5.376.008-9.73 4.373-9.719 9.743.011 5.372 4.379 9.717 9.756 9.707 5.379-.01 9.73-4.373 9.72-9.743-.01-5.37-4.377-9.718-9.757-9.706" fill="#28282C"/><path d="M69.442 111.361l-6.47 3.747a.368.368 0 01-.11.045.326.326 0 01-.016-.118l-.017-7.47c.002-.067.01-.107.012-.12a.31.31 0 01.116.047l6.484 3.723c.06.035.088.06.101.068a.33.33 0 01-.1.078m36.393 33.977a.215.215 0 01-.152-.062.214.214 0 010-.302 2.249 2.249 0 00-.006-3.175.213.213 0 010-.3.212.212 0 01.303 0 2.67 2.67 0 01.006 3.774.22.22 0 01-.151.065" fill="#FFF"/><path d="M105.213 144.72a.213.213 0 01-.15-.364c.257-.26.4-.604.398-.968 0-.368-.143-.71-.401-.969a.211.211 0 01-.002-.3.214.214 0 01.302 0c.34.337.527.786.528 1.269.003.478-.183.93-.523 1.268a.22.22 0 01-.152.063m-2.285-.598h.464a.223.223 0 01.134.048l.694.552-.007-2.664-.69.557a.222.222 0 01-.134.046h-.465l.004 1.461zm1.505 1.258a.224.224 0 01-.132-.046l-.983-.783-.604.002a.213.213 0 01-.213-.215l-.005-1.888a.212.212 0 01.213-.215l.605-.001.98-.786a.21.21 0 01.225-.027c.074.036.122.11.123.193l.007 3.552a.22.22 0 01-.123.193.213.213 0 01-.093.02z" fill="#FFF"/><path d="M62.46 143.472a1.16 1.16 0 11-2.318.003 1.16 1.16 0 012.319-.003" fill="#EBEBEB"/><path d="M59.15 147.82l.381-.002-.002-1.206c0-.037.001-.073.004-.11l-.317.271a.069.069 0 01-.048.019.07.07 0 01-.033-.008.058.058 0 01-.022-.02l-.07-.095.526-.456h.18l.003 1.605h.348v.168l-.949.001v-.168zm1.239.029c0-.021.004-.041.012-.06a.14.14 0 01.035-.05.172.172 0 01.12-.046.175.175 0 01.12.046.15.15 0 01.048.11.15.15 0 01-.012.06.158.158 0 01-.09.082.179.179 0 01-.065.012.17.17 0 01-.067-.012.169.169 0 01-.054-.032.156.156 0 01-.047-.11m-.003-.926c0-.021.005-.041.013-.06a.14.14 0 01.035-.05.172.172 0 01.12-.046.17.17 0 01.156.095.15.15 0 01.012.06.14.14 0 01-.048.11.17.17 0 01-.054.033.192.192 0 01-.132 0 .15.15 0 01-.088-.082.15.15 0 01-.014-.06m1.207-.73c.076 0 .146.011.21.033a.45.45 0 01.281.251.54.54 0 01.012.391.725.725 0 01-.08.162c-.033.05-.072.1-.116.148-.044.049-.09.098-.14.148l-.465.478a.97.97 0 01.197-.03l.594-.001c.024 0 .043.007.057.021a.074.074 0 01.021.054v.134l-1.182.002v-.075c0-.016.003-.032.009-.048a.136.136 0 01.03-.046l.567-.57c.046-.049.09-.094.128-.139a1.06 1.06 0 00.1-.133.627.627 0 00.063-.135.477.477 0 00.022-.147.355.355 0 00-.025-.136.262.262 0 00-.068-.096.283.283 0 00-.102-.058.404.404 0 00-.248.001.331.331 0 00-.217.245.097.097 0 01-.03.052.083.083 0 01-.052.016h-.013l-.016-.002-.115-.02a.63.63 0 01.068-.214.504.504 0 01.298-.252.657.657 0 01.212-.034m1.458-.003c.076 0 .145.011.208.032a.467.467 0 01.163.091.41.41 0 01.108.143.489.489 0 01.018.336.359.359 0 01-.159.202.563.563 0 01-.127.056c.115.03.202.08.26.152a.41.41 0 01.087.27.5.5 0 01-.358.49.702.702 0 01-.23.038.721.721 0 01-.241-.035.487.487 0 01-.284-.243 1.125 1.125 0 01-.075-.183l.093-.04a.134.134 0 01.052-.011c.017 0 .032.003.045.01a.065.065 0 01.028.033.196.196 0 01.005.01l.005.012.043.081c.016.03.039.058.066.085a.367.367 0 00.26.093c.062 0 .117-.01.163-.03a.333.333 0 00.209-.304.418.418 0 00-.02-.131.224.224 0 00-.069-.102.36.36 0 00-.139-.069.881.881 0 00-.226-.023v-.161a.66.66 0 00.192-.024.365.365 0 00.13-.064.243.243 0 00.073-.098.335.335 0 00.023-.126.341.341 0 00-.024-.133.256.256 0 00-.167-.15.408.408 0 00-.247.002.334.334 0 00-.218.245.1.1 0 01-.03.052.08.08 0 01-.051.016h-.013a.08.08 0 01-.016-.002l-.115-.02a.641.641 0 01.067-.214.506.506 0 01.3-.252.657.657 0 01.211-.034" fill="#AAA"/><path d="M59.15 147.82l.381-.002-.002-1.206c0-.037.001-.073.004-.11l-.317.271a.069.069 0 01-.048.019.07.07 0 01-.033-.008.058.058 0 01-.022-.02l-.07-.095.526-.456h.18l.003 1.605h.348v.168l-.949.001v-.168zm1.239.029c0-.021.004-.041.012-.06a.14.14 0 01.035-.05.172.172 0 01.12-.046.175.175 0 01.12.046.15.15 0 01.048.11.15.15 0 01-.012.06.158.158 0 01-.09.082.179.179 0 01-.065.012.17.17 0 01-.067-.012.169.169 0 01-.054-.032.156.156 0 01-.047-.11m-.003-.926c0-.021.005-.041.013-.06a.14.14 0 01.035-.05.172.172 0 01.12-.046.17.17 0 01.156.095.15.15 0 01.012.06.14.14 0 01-.048.11.17.17 0 01-.054.033.192.192 0 01-.132 0 .15.15 0 01-.088-.082.15.15 0 01-.014-.06m1.207-.73c.076 0 .146.011.21.033a.45.45 0 01.281.251.54.54 0 01.012.391.725.725 0 01-.08.162c-.033.05-.072.1-.116.148-.044.049-.09.098-.14.148l-.465.478a.97.97 0 01.197-.03l.594-.001c.024 0 .043.007.057.021a.074.074 0 01.021.054v.134l-1.182.002v-.075c0-.016.003-.032.009-.048a.136.136 0 01.03-.046l.567-.57c.046-.049.09-.094.128-.139a1.06 1.06 0 00.1-.133.627.627 0 00.063-.135.477.477 0 00.022-.147.355.355 0 00-.025-.136.262.262 0 00-.068-.096.283.283 0 00-.102-.058.404.404 0 00-.248.001.331.331 0 00-.217.245.097.097 0 01-.03.052.083.083 0 01-.052.016h-.013l-.016-.002-.115-.02a.63.63 0 01.068-.214.504.504 0 01.298-.252.657.657 0 01.212-.034m1.458-.003c.076 0 .145.011.208.032a.467.467 0 01.163.091.41.41 0 01.108.143.489.489 0 01.018.336.359.359 0 01-.159.202.563.563 0 01-.127.056c.115.03.202.08.26.152a.41.41 0 01.087.27.5.5 0 01-.358.49.702.702 0 01-.23.038.721.721 0 01-.241-.035.487.487 0 01-.284-.243 1.125 1.125 0 01-.075-.183l.093-.04a.134.134 0 01.052-.011c.017 0 .032.003.045.01a.065.065 0 01.028.033.196.196 0 01.005.01l.005.012.043.081c.016.03.039.058.066.085a.367.367 0 00.26.093c.062 0 .117-.01.163-.03a.333.333 0 00.209-.304.418.418 0 00-.02-.131.224.224 0 00-.069-.102.36.36 0 00-.139-.069.881.881 0 00-.226-.023v-.161a.66.66 0 00.192-.024.365.365 0 00.13-.064.243.243 0 00.073-.098.335.335 0 00.023-.126.341.341 0 00-.024-.133.256.256 0 00-.167-.15.408.408 0 00-.247.002.334.334 0 00-.218.245.1.1 0 01-.03.052.08.08 0 01-.051.016h-.013a.08.08 0 01-.016-.002l-.115-.02a.641.641 0 01.067-.214.506.506 0 01.3-.252.657.657 0 01.211-.034" fill="#AAA"/><path d="M316.273 3.732c-6.327.005-11.458 5.164-11.455 11.521.005 6.36 5.14 11.51 11.47 11.504 6.332-.004 11.463-5.162 11.456-11.52-.003-6.356-5.141-11.51-11.471-11.505" fill="#D6D8DE"/><path d="M320.937 15.332l-7.62 4.424a.347.347 0 01-.13.05.417.417 0 01-.018-.138l-.01-8.842c.006-.08.015-.128.016-.144.02.005.069.016.134.06l7.628 4.413c.07.043.102.072.118.082a.404.404 0 01-.118.095" fill="#F8F9FC"/><path d="M363.665 16.653c-3.966.004-7.183 3.238-7.18 7.222.002 3.988 3.222 7.216 7.19 7.212 3.968-.003 7.185-3.237 7.18-7.221-.002-3.985-3.222-7.216-7.19-7.213" fill="#D6D8DE"/><path d="M366.588 23.925l-4.776 2.773a.217.217 0 01-.082.031.253.253 0 01-.01-.086l-.007-5.543c.003-.05.009-.08.01-.09.013.003.043.01.084.037l4.781 2.767c.044.027.065.045.074.052a.265.265 0 01-.074.059" fill="#F8F9FC"/><path d="M378.155.718a3.773 3.773 0 00-3.761 3.783 3.772 3.772 0 003.767 3.778 3.772 3.772 0 003.76-3.783 3.772 3.772 0 00-3.766-3.778" fill="#D6D8DE"/><path d="M379.687 4.527l-2.502 1.453a.123.123 0 01-.043.016.131.131 0 01-.006-.045l-.003-2.904a.296.296 0 01.005-.046.114.114 0 01.044.019l2.505 1.45c.022.013.033.023.038.026a.128.128 0 01-.038.03" fill="#F8F9FC"/><path d="M82.522 54.482c0 1.182-.893 2.14-1.997 2.14h-3.872v8.023l-9.488-8.023H42.452c-1.107 0-2.002-.958-2.002-2.14V30.204c0-1.184.895-2.14 2.002-2.14h38.073c1.104 0 1.997.956 1.997 2.14v24.278z" fill="#D7D8DF"/><path d="M66.278 49.447a.943.943 0 01-.946.946H51.848a.944.944 0 01-.946-.946v-8.6c0-.522.425-.946.946-.946h13.484c.524 0 .946.424.946.946v8.6z" fill="#F8F9FC"/><path fill="#F8F9FC" d="M66.188 42.571l5.184-2.573v10.295l-5.184-2.573zm-8.359-6.259a3.232 3.232 0 01-3.233 3.23 3.233 3.233 0 01-3.235-3.23 3.232 3.232 0 013.235-3.228 3.23 3.23 0 013.233 3.228m6.938 0a3.229 3.229 0 01-3.23 3.23 3.23 3.23 0 110-6.458 3.227 3.227 0 013.23 3.228"/><path d="M66.188 44.51H50.903v4.937c0 .526.424.946.945.946h13.484c.524 0 .946-.42.946-.946v-1.681l-.09-.046v-3.21z" fill="#F8F9FC"/><path fill="#F8F9FC" d="M66.188 45.785v1.935l.09.046 5.094 2.527v-4.508z"/><g transform="translate(86.66 128.783)"><mask id="c" fill="#fff"><use xlink:href="#b"/></mask><path fill="#BCC1C3" mask="url(#c)" d="M-4.922 50.888h239.98V-4.82H-4.923z"/></g><g transform="translate(86.66 128.783)"><mask id="e" fill="#fff"><use xlink:href="#d"/></mask><path fill="#E0E4E7" mask="url(#e)" d="M-4.914 47.106h239.97v-51.92H-4.915z"/></g><g transform="translate(99.772 131.06)"><mask id="g" fill="#fff"><use xlink:href="#f"/></mask><path fill="#BEC3C5" mask="url(#g)" d="M-4.918 30.731h213.924V-5.004H-4.918z"/></g><g transform="translate(173.883 157.818)"><mask id="i" fill="#fff"><use xlink:href="#h"/></mask><path fill="#BCC1C3" mask="url(#i)" d="M-4.775 16.642h65.25v-21.49h-65.25z"/></g><g transform="translate(129.416 128.783)"><mask id="k" fill="#fff"><use xlink:href="#j"/></mask><path fill="#30373D" mask="url(#k)" d="M-4.829 7.052h154.28V-4.817H-4.83z"/></g><g transform="translate(124.285 131.06)"><mask id="m" fill="#fff"><use xlink:href="#l"/></mask><path fill="#818C91" mask="url(#m)" d="M-4.66 7.596h19.508V-4.62H-4.659z"/></g><g transform="translate(269.656 131.06)"><mask id="o" fill="#fff"><use xlink:href="#n"/></mask><path fill="#818C91" mask="url(#o)" d="M-5.12 7.594h19.506V-4.622H-5.119z"/></g><g transform="translate(258.255 131.06)"><mask id="q" fill="#fff"><use xlink:href="#p"/></mask><path fill="#818C91" mask="url(#q)" d="M-4.86 7.594h19.492V-4.622H-4.859z"/></g><g transform="translate(246.853 131.06)"><mask id="s" fill="#fff"><use xlink:href="#r"/></mask><path fill="#818C91" mask="url(#s)" d="M-4.602 7.594h19.476V-4.622H-4.602z"/></g><g transform="translate(236.021 131.06)"><mask id="u" fill="#fff"><use xlink:href="#t"/></mask><path fill="#818C91" mask="url(#u)" d="M-4.91 7.594h19.456V-4.622H-4.91z"/></g><g transform="translate(224.62 131.06)"><mask id="w" fill="#fff"><use xlink:href="#v"/></mask><path fill="#818C91" mask="url(#w)" d="M-4.642 7.594h19.445V-4.622H-4.642z"/></g><g transform="translate(213.788 131.06)"><mask id="y" fill="#fff"><use xlink:href="#x"/></mask><path fill="#818C91" mask="url(#y)" d="M-4.951 7.592h19.43V-4.625h-19.43z"/></g><g transform="translate(202.387 131.06)"><mask id="A" fill="#fff"><use xlink:href="#z"/></mask><path fill="#818C91" mask="url(#A)" d="M-4.69 7.592h19.417V-4.625H-4.689z"/></g><g transform="translate(191.555 131.06)"><mask id="C" fill="#fff"><use xlink:href="#B"/></mask><path fill="#818C91" mask="url(#C)" d="M-5.01 7.592h19.42V-4.625H-5.01z"/></g><g transform="translate(180.153 131.06)"><mask id="E" fill="#fff"><use xlink:href="#D"/></mask><path fill="#818C91" mask="url(#E)" d="M-4.76 7.592h19.433V-4.625H-4.76z"/></g><g transform="translate(169.322 131.06)"><mask id="G" fill="#fff"><use xlink:href="#F"/></mask><path fill="#818C91" mask="url(#G)" d="M-5.07 7.59h19.436V-4.626H-5.07z"/></g><g transform="translate(157.92 131.06)"><mask id="I" fill="#fff"><use xlink:href="#H"/></mask><path fill="#818C91" mask="url(#I)" d="M-4.826 7.59h19.459V-4.626H-4.826z"/></g><g transform="translate(147.089 131.06)"><mask id="K" fill="#fff"><use xlink:href="#J"/></mask><path fill="#818C91" mask="url(#K)" d="M-5.16 7.59h19.483V-4.62H-5.16z"/></g><g transform="translate(135.687 131.06)"><mask id="M" fill="#fff"><use xlink:href="#L"/></mask><path fill="#818C91" mask="url(#M)" d="M-4.904 7.59h19.486V-4.62H-4.904z"/></g><g transform="translate(122.575 133.337)"><mask id="O" fill="#fff"><use xlink:href="#N"/></mask><path fill="#818C91" mask="url(#O)" d="M-5.055 9.608h20.76V-4.92h-20.76z"/></g><g transform="translate(232.6 133.337)"><mask id="Q" fill="#fff"><use xlink:href="#P"/></mask><path fill="#818C91" mask="url(#Q)" d="M-5.04 9.61h20.155V-4.916H-5.04z"/></g><g transform="translate(243.432 133.337)"><mask id="S" fill="#fff"><use xlink:href="#R"/></mask><path fill="#818C91" mask="url(#S)" d="M-4.99 9.61h20.322V-4.916H-4.99z"/></g><g transform="translate(254.264 133.337)"><mask id="U" fill="#fff"><use xlink:href="#T"/></mask><path fill="#818C91" mask="url(#U)" d="M-4.945 9.604h20.509v-14.52H-4.945z"/></g><g transform="translate(116.304 145.862)"><mask id="W" fill="#fff"><use xlink:href="#V"/></mask><path fill="#818C91" mask="url(#W)" d="M-5.11 9.95h25.235V-4.587H-5.109z"/></g><g transform="translate(227.47 146.432)"><mask id="Y" fill="#fff"><use xlink:href="#X"/></mask><path fill="#818C91" mask="url(#Y)" d="M-4.867 9.378H15.93V-5.15H-4.867z"/></g><g transform="translate(239.442 146.432)"><mask id="aa" fill="#fff"><use xlink:href="#Z"/></mask><path fill="#818C91" mask="url(#aa)" d="M-5.06 9.38h20.95V-5.149H-5.06z"/></g><g transform="translate(250.844 146.432)"><mask id="ac" fill="#fff"><use xlink:href="#ab"/></mask><path fill="#818C91" mask="url(#ac)" d="M-4.709 9.378h21.146V-5.149H-4.71z"/></g><g transform="translate(262.815 146.432)"><mask id="ae" fill="#fff"><use xlink:href="#ad"/></mask><path fill="#818C91" mask="url(#ae)" d="M-4.907 9.378H29.68V-5.15H-4.907z"/></g><g transform="translate(261.105 137.323)"><mask id="ag" fill="#fff"><use xlink:href="#af"/></mask><path fill="#818C91" mask="url(#ag)" d="M-5.018 9.91h20.83V-4.616h-20.83z"/></g><g transform="translate(249.703 137.323)"><mask id="ai" fill="#fff"><use xlink:href="#ah"/></mask><path fill="#818C91" mask="url(#ai)" d="M-4.795 9.912h20.66V-4.616h-20.66z"/></g><g transform="translate(238.872 137.323)"><mask id="ak" fill="#fff"><use xlink:href="#aj"/></mask><path fill="#818C91" mask="url(#ak)" d="M-5.143 9.912h20.484V-4.616H-5.143z"/></g><g transform="translate(227.47 137.323)"><mask id="am" fill="#fff"><use xlink:href="#al"/></mask><path fill="#818C91" mask="url(#am)" d="M-4.905 9.913h20.299V-4.622H-4.905z"/></g><g transform="translate(216.069 137.323)"><mask id="ao" fill="#fff"><use xlink:href="#an"/></mask><path fill="#818C91" mask="url(#ao)" d="M-4.683 9.91h20.14V-4.616h-20.14z"/></g><g transform="translate(205.237 137.323)"><mask id="aq" fill="#fff"><use xlink:href="#ap"/></mask><path fill="#818C91" mask="url(#aq)" d="M-5.036 9.91h19.971V-4.616h-19.97z"/></g><g transform="translate(193.835 137.323)"><mask id="as" fill="#fff"><use xlink:href="#ar"/></mask><path fill="#818C91" mask="url(#as)" d="M-4.927 9.91h19.925V-4.616H-4.927z"/></g><g transform="translate(182.434 137.323)"><mask id="au" fill="#fff"><use xlink:href="#at"/></mask><path fill="#818C91" mask="url(#au)" d="M-4.867 9.917h20.048V-4.618H-4.867z"/></g><g transform="translate(171.032 137.323)"><mask id="aw" fill="#fff"><use xlink:href="#av"/></mask><path fill="#818C91" mask="url(#aw)" d="M-4.817 9.917h20.23V-4.618h-20.23z"/></g><g transform="translate(159.63 137.323)"><mask id="ay" fill="#fff"><use xlink:href="#ax"/></mask><path fill="#818C91" mask="url(#ay)" d="M-4.761 9.917h20.397V-4.618H-4.76z"/></g><g transform="translate(148.229 137.323)"><mask id="aA" fill="#fff"><use xlink:href="#az"/></mask><path fill="#818C91" mask="url(#aA)" d="M-4.708 9.914h20.57V-4.62h-20.57z"/></g><g transform="translate(136.827 137.323)"><mask id="aC" fill="#fff"><use xlink:href="#aB"/></mask><path fill="#818C91" mask="url(#aC)" d="M-4.662 9.914H16.09V-4.62H-4.662z"/></g><g transform="translate(120.295 137.323)"><mask id="aE" fill="#fff"><use xlink:href="#aD"/></mask><path fill="#818C91" mask="url(#aE)" d="M-4.884 9.914h26.327V-4.62H-4.884z"/></g><g transform="translate(278.778 152.694)"><mask id="aG" fill="#fff"><use xlink:href="#aF"/></mask><path fill="#818C91" mask="url(#aG)" d="M-5.051 7.407h20.888V-5.128H-5.051z"/></g><g transform="translate(208.658 141.877)"><mask id="aI" fill="#fff"><use xlink:href="#aH"/></mask><path fill="#818C91" mask="url(#aI)" d="M-4.707 9.64h20.274V-4.886H-4.707z"/></g><g transform="translate(197.256 141.877)"><mask id="aK" fill="#fff"><use xlink:href="#aJ"/></mask><path fill="#818C91" mask="url(#aK)" d="M-4.837 9.642h20.163V-4.885H-4.837z"/></g><g transform="translate(185.854 141.877)"><mask id="aM" fill="#fff"><use xlink:href="#aL"/></mask><path fill="#818C91" mask="url(#aM)" d="M-5.088 9.64h20.259V-4.886H-5.088z"/></g><g transform="translate(173.883 141.877)"><mask id="aO" fill="#fff"><use xlink:href="#aN"/></mask><path fill="#818C91" mask="url(#aO)" d="M-4.755 9.647H15.66V-4.888H-4.755z"/></g><g transform="translate(162.48 141.877)"><mask id="aQ" fill="#fff"><use xlink:href="#aP"/></mask><path fill="#818C91" mask="url(#aQ)" d="M-4.993 9.647h20.58V-4.888h-20.58z"/></g><g transform="translate(139.108 141.877)"><mask id="aS" fill="#fff"><use xlink:href="#aR"/></mask><path fill="#818C91" mask="url(#aS)" d="M-4.904 9.642h20.941V-4.885h-20.94z"/></g><g transform="translate(118.015 141.877)"><mask id="aU" fill="#fff"><use xlink:href="#aT"/></mask><path fill="#818C91" mask="url(#aU)" d="M-4.716 9.644h30.37V-4.891h-30.37z"/></g><g transform="translate(133.407 133.337)"><mask id="aW" fill="#fff"><use xlink:href="#aV"/></mask><path fill="#818C91" mask="url(#aW)" d="M-4.831 9.604h20.584v-14.52H-4.83z"/></g><g transform="translate(144.238 133.337)"><mask id="aY" fill="#fff"><use xlink:href="#aX"/></mask><path fill="#818C91" mask="url(#aY)" d="M-4.607 9.612h20.398V-4.916H-4.607z"/></g><g transform="translate(155.64 133.337)"><mask id="ba" fill="#fff"><use xlink:href="#aZ"/></mask><path fill="#818C91" mask="url(#ba)" d="M-4.96 9.604h20.235v-14.52H-4.96z"/></g><g transform="translate(166.471 133.337)"><mask id="bc" fill="#fff"><use xlink:href="#bb"/></mask><path fill="#818C91" mask="url(#bc)" d="M-4.735 9.61h20.062V-4.918H-4.735z"/></g><g transform="translate(177.873 133.337)"><mask id="be" fill="#fff"><use xlink:href="#bd"/></mask><path fill="#818C91" mask="url(#be)" d="M-5.082 9.61h19.89V-4.918h-19.89z"/></g><g transform="translate(188.705 133.337)"><mask id="bg" fill="#fff"><use xlink:href="#bf"/></mask><path fill="#818C91" mask="url(#bg)" d="M-4.859 9.604h19.713v-14.52H-4.859z"/></g><g transform="translate(199.536 133.337)"><mask id="bi" fill="#fff"><use xlink:href="#bh"/></mask><path fill="#818C91" mask="url(#bi)" d="M-4.64 9.604h19.666v-14.52H-4.64z"/></g><g transform="translate(210.938 133.337)"><mask id="bk" fill="#fff"><use xlink:href="#bj"/></mask><path fill="#818C91" mask="url(#bk)" d="M-5.139 9.604h19.813v-14.52H-5.139z"/></g><g transform="translate(221.77 133.337)"><mask id="bm" fill="#fff"><use xlink:href="#bl"/></mask><path fill="#818C91" mask="url(#bm)" d="M-5.078 9.605h19.973v-14.52H-5.078z"/></g><g transform="translate(265.096 133.337)"><mask id="bo" fill="#fff"><use xlink:href="#bn"/></mask><path fill="#818C91" mask="url(#bo)" d="M-4.892 9.61h25.948V-4.918H-4.892z"/></g><g transform="translate(132.267 146.432)"><mask id="bq" fill="#fff"><use xlink:href="#bp"/></mask><path fill="#818C91" mask="url(#bq)" d="M-4.778 9.38h21.252V-5.148H-4.778z"/></g><g transform="translate(144.238 146.432)"><mask id="bs" fill="#fff"><use xlink:href="#br"/></mask><path fill="#818C91" mask="url(#bs)" d="M-4.814 9.384h21.092V-5.151H-4.814z"/></g><g transform="translate(156.21 146.432)"><mask id="bu" fill="#fff"><use xlink:href="#bt"/></mask><path fill="#818C91" mask="url(#bu)" d="M-4.852 9.38h20.91V-5.149h-20.91z"/></g><g transform="translate(168.182 146.432)"><mask id="bw" fill="#fff"><use xlink:href="#bv"/></mask><path fill="#818C91" mask="url(#bw)" d="M-4.888 9.384h20.752V-5.151H-4.888z"/></g><g transform="translate(180.153 146.432)"><mask id="by" fill="#fff"><use xlink:href="#bx"/></mask><path fill="#818C91" mask="url(#by)" d="M-4.914 9.384h20.57V-5.151h-20.57z"/></g><g transform="translate(192.125 146.432)"><mask id="bA" fill="#fff"><use xlink:href="#bz"/></mask><path fill="#818C91" mask="url(#bA)" d="M-4.947 9.378h20.411V-5.15h-20.41z"/></g><g transform="translate(204.097 146.432)"><mask id="bC" fill="#fff"><use xlink:href="#bB"/></mask><path fill="#818C91" mask="url(#bC)" d="M-5.025 9.378h20.44V-5.15h-20.44z"/></g><g transform="translate(215.498 146.432)"><mask id="bE" fill="#fff"><use xlink:href="#bD"/></mask><path fill="#818C91" mask="url(#bE)" d="M-4.664 9.378h20.617V-5.15H-4.664z"/></g><g transform="translate(271.937 137.323)"><mask id="bG" fill="#fff"><use xlink:href="#bF"/></mask><path fill="#818C91" mask="url(#bG)" d="M-4.674 14.198h23.126V-4.618H-4.674z"/></g><g transform="translate(151.08 150.417)"><mask id="bI" fill="#fff"><use xlink:href="#bH"/></mask><path fill="#818C91" mask="url(#bI)" d="M-4.715 9.686h25.04V-4.842h-25.04z"/></g><g transform="translate(228.04 150.417)"><mask id="bK" fill="#fff"><use xlink:href="#bJ"/></mask><path fill="#818C91" mask="url(#bK)" d="M-4.788 9.686H18.21V-4.842H-4.788z"/></g><g transform="translate(138.537 150.417)"><mask id="bM" fill="#fff"><use xlink:href="#bL"/></mask><path fill="#818C91" mask="url(#bM)" d="M-4.98 9.69h21.389V-4.845h-21.39z"/></g><g transform="translate(125.996 150.417)"><mask id="bO" fill="#fff"><use xlink:href="#bN"/></mask><path fill="#818C91" mask="url(#bO)" d="M-4.682 9.69h21.579V-4.845H-4.682z"/></g><g transform="translate(114.024 150.417)"><mask id="bQ" fill="#fff"><use xlink:href="#bP"/></mask><path fill="#818C91" mask="url(#bQ)" d="M-4.937 9.69h21.753V-4.845H-4.937z"/></g><g transform="translate(167.612 150.417)"><mask id="bS" fill="#fff"><use xlink:href="#bR"/></mask><path fill="#818C91" mask="url(#bS)" d="M-5.142 9.684H64.45V-4.844H-5.142z"/></g><g transform="translate(242.292 150.417)"><mask id="bU" fill="#fff"><use xlink:href="#bT"/></mask><path fill="#818C91" mask="url(#bU)" d="M-5.08 9.685h21.245V-4.843H-5.08z"/></g><g transform="translate(265.666 150.417)"><mask id="bW" fill="#fff"><use xlink:href="#bV"/></mask><path fill="#818C91" mask="url(#bW)" d="M-4.86 9.685h21.57V-4.843H-4.86z"/></g><g transform="translate(254.264 152.694)"><mask id="bY" fill="#fff"><use xlink:href="#bX"/></mask><path fill="#818C91" mask="url(#bY)" d="M-4.937 7.407h20.82V-5.128h-20.82z"/></g><g transform="translate(266.236 141.877)"><mask id="ca" fill="#fff"><use xlink:href="#bZ"/></mask><path fill="#818C91" mask="url(#ca)" d="M-4.937 9.644H16.2V-4.891H-4.937z"/></g><g transform="translate(254.834 141.877)"><mask id="cc" fill="#fff"><use xlink:href="#cb"/></mask><path fill="#818C91" mask="url(#cc)" d="M-4.999 9.644h20.96V-4.891H-5z"/></g><g transform="translate(243.432 141.877)"><mask id="ce" fill="#fff"><use xlink:href="#cd"/></mask><path fill="#818C91" mask="url(#ce)" d="M-5.075 9.644h20.789V-4.891h-20.79z"/></g><g transform="translate(232.03 141.877)"><mask id="cg" fill="#fff"><use xlink:href="#cf"/></mask><path fill="#818C91" mask="url(#cg)" d="M-5.14 9.644h20.613V-4.891H-5.14z"/></g><g transform="translate(220.06 141.877)"><mask id="ci" fill="#fff"><use xlink:href="#ch"/></mask><path fill="#818C91" mask="url(#ci)" d="M-4.627 9.64h20.43V-4.886h-20.43z"/></g><g transform="translate(150.51 141.877)"><mask id="ck" fill="#fff"><use xlink:href="#cj"/></mask><path fill="#818C91" mask="url(#ck)" d="M-4.664 9.647h20.767V-4.888H-4.664z"/></g><g transform="translate(124.285 131.06)"><mask id="cm" fill="#fff"><use xlink:href="#cl"/></mask><path fill="#30373D" mask="url(#cm)" d="M-4.656 6.91h19.501V-4.623h-19.5z"/></g><g transform="translate(269.656 131.06)"><mask id="co" fill="#fff"><use xlink:href="#cn"/></mask><path fill="#30373D" mask="url(#co)" d="M-5.126 6.91h19.512V-4.623H-5.126z"/></g><g transform="translate(258.255 131.06)"><mask id="cq" fill="#fff"><use xlink:href="#cp"/></mask><path fill="#30373D" mask="url(#cq)" d="M-4.858 6.91h19.49V-4.623h-19.49z"/></g><g transform="translate(246.853 131.06)"><mask id="cs" fill="#fff"><use xlink:href="#cr"/></mask><path fill="#30373D" mask="url(#cs)" d="M-4.6 6.91h19.47V-4.623H-4.6z"/></g><g transform="translate(236.021 131.06)"><mask id="cu" fill="#fff"><use xlink:href="#ct"/></mask><path fill="#30373D" mask="url(#cu)" d="M-4.905 6.91h19.453V-4.623H-4.905z"/></g><g transform="translate(224.62 131.06)"><mask id="cw" fill="#fff"><use xlink:href="#cv"/></mask><path fill="#30373D" mask="url(#cw)" d="M-4.634 6.91h19.432V-4.623H-4.634z"/></g><g transform="translate(213.788 131.06)"><mask id="cy" fill="#fff"><use xlink:href="#cx"/></mask><path fill="#30373D" mask="url(#cy)" d="M-4.95 6.91h19.427V-4.623H-4.949z"/></g><g transform="translate(202.387 131.06)"><mask id="cA" fill="#fff"><use xlink:href="#cz"/></mask><path fill="#30373D" mask="url(#cA)" d="M-4.688 6.91H14.73V-4.623H-4.688z"/></g><g transform="translate(191.555 131.06)"><mask id="cC" fill="#fff"><use xlink:href="#cB"/></mask><path fill="#30373D" mask="url(#cC)" d="M-5.006 6.91h19.417V-4.623H-5.006z"/></g><g transform="translate(180.153 131.06)"><mask id="cE" fill="#fff"><use xlink:href="#cD"/></mask><path fill="#30373D" mask="url(#cE)" d="M-4.754 6.91h19.426V-4.623H-4.754z"/></g><g transform="translate(169.322 131.06)"><mask id="cG" fill="#fff"><use xlink:href="#cF"/></mask><path fill="#30373D" mask="url(#cG)" d="M-5.067 6.91h19.431V-4.623H-5.067z"/></g><g transform="translate(157.92 131.06)"><mask id="cI" fill="#fff"><use xlink:href="#cH"/></mask><path fill="#30373D" mask="url(#cI)" d="M-4.826 6.91h19.454V-4.623H-4.826z"/></g><g transform="translate(147.089 131.06)"><mask id="cK" fill="#fff"><use xlink:href="#cJ"/></mask><path fill="#30373D" mask="url(#cK)" d="M-5.154 6.91h19.477V-4.623H-5.154z"/></g><g transform="translate(135.687 131.06)"><mask id="cM" fill="#fff"><use xlink:href="#cL"/></mask><path fill="#30373D" mask="url(#cM)" d="M-4.901 6.91h19.483V-4.623H-4.901z"/></g><g transform="translate(122.575 133.337)"><mask id="cO" fill="#fff"><use xlink:href="#cN"/></mask><path fill="#30373D" mask="url(#cO)" d="M-5.053 8.925H15.7V-4.92H-5.053z"/></g><g transform="translate(133.407 133.337)"><mask id="cQ" fill="#fff"><use xlink:href="#cP"/></mask><path fill="#30373D" mask="url(#cQ)" d="M-4.834 8.925h20.589V-4.92h-20.59z"/></g><g transform="translate(144.238 133.337)"><mask id="cS" fill="#fff"><use xlink:href="#cR"/></mask><path fill="#30373D" mask="url(#cS)" d="M-4.607 8.925h20.402V-4.92H-4.607z"/></g><g transform="translate(155.64 133.337)"><mask id="cU" fill="#fff"><use xlink:href="#cT"/></mask><path fill="#30373D" mask="url(#cU)" d="M-4.96 8.925h20.236V-4.92H-4.96z"/></g><g transform="translate(166.471 133.337)"><mask id="cW" fill="#fff"><use xlink:href="#cV"/></mask><path fill="#30373D" mask="url(#cW)" d="M-4.727 8.925h20.054V-4.92H-4.727z"/></g><g transform="translate(177.873 133.337)"><mask id="cY" fill="#fff"><use xlink:href="#cX"/></mask><path fill="#30373D" mask="url(#cY)" d="M-5.08 8.925h19.882V-4.92H-5.081z"/></g><g transform="translate(188.705 133.337)"><mask id="da" fill="#fff"><use xlink:href="#cZ"/></mask><path fill="#30373D" mask="url(#da)" d="M-4.857 8.925h19.712V-4.92H-4.857z"/></g><g transform="translate(199.536 133.337)"><mask id="dc" fill="#fff"><use xlink:href="#db"/></mask><path fill="#30373D" mask="url(#dc)" d="M-4.636 8.925h19.659V-4.92h-19.66z"/></g><g transform="translate(210.938 133.337)"><mask id="de" fill="#fff"><use xlink:href="#dd"/></mask><path fill="#30373D" mask="url(#de)" d="M-5.138 8.925h19.813V-4.92H-5.138z"/></g><g transform="translate(221.77 133.337)"><mask id="dg" fill="#fff"><use xlink:href="#df"/></mask><path fill="#30373D" mask="url(#dg)" d="M-5.078 8.925h19.975V-4.92H-5.078z"/></g><g transform="translate(232.6 133.337)"><mask id="di" fill="#fff"><use xlink:href="#dh"/></mask><path fill="#30373D" mask="url(#di)" d="M-5.04 8.925h20.154V-4.92H-5.041z"/></g><g transform="translate(243.432 133.337)"><mask id="dk" fill="#fff"><use xlink:href="#dj"/></mask><path fill="#30373D" mask="url(#dk)" d="M-4.983 8.925h20.317V-4.92H-4.983z"/></g><g transform="translate(254.264 133.337)"><mask id="dm" fill="#fff"><use xlink:href="#dl"/></mask><path fill="#30373D" mask="url(#dm)" d="M-4.941 8.925h20.507V-4.92H-4.941z"/></g><g transform="translate(265.096 133.337)"><mask id="do" fill="#fff"><use xlink:href="#dn"/></mask><path fill="#30373D" mask="url(#do)" d="M-4.895 8.925h25.952V-4.92H-4.895z"/></g><g transform="translate(116.304 145.862)"><mask id="dq" fill="#fff"><use xlink:href="#dp"/></mask><path fill="#30373D" mask="url(#dq)" d="M-5.11 9.268h25.237V-4.585H-5.11z"/></g><g transform="translate(132.267 145.862)"><mask id="ds" fill="#fff"><use xlink:href="#dr"/></mask><path fill="#30373D" mask="url(#ds)" d="M-4.781 9.268h21.257V-4.585H-4.78z"/></g><g transform="translate(144.238 145.862)"><mask id="du" fill="#fff"><use xlink:href="#dt"/></mask><path fill="#30373D" mask="url(#du)" d="M-4.82 9.268h21.102V-4.585H-4.82z"/></g><g transform="translate(156.21 145.862)"><mask id="dw" fill="#fff"><use xlink:href="#dv"/></mask><path fill="#30373D" mask="url(#dw)" d="M-4.849 9.268h20.907V-4.585H-4.849z"/></g><g transform="translate(168.182 145.862)"><mask id="dy" fill="#fff"><use xlink:href="#dx"/></mask><path fill="#30373D" mask="url(#dy)" d="M-4.89 9.268h20.757V-4.585H-4.89z"/></g><g transform="translate(180.153 145.862)"><mask id="dA" fill="#fff"><use xlink:href="#dz"/></mask><path fill="#30373D" mask="url(#dA)" d="M-4.919 9.268h20.58V-4.585H-4.92z"/></g><g transform="translate(192.125 145.862)"><mask id="dC" fill="#fff"><use xlink:href="#dB"/></mask><path fill="#30373D" mask="url(#dC)" d="M-4.947 9.268h20.411V-4.585h-20.41z"/></g><g transform="translate(204.097 145.862)"><mask id="dE" fill="#fff"><use xlink:href="#dD"/></mask><path fill="#30373D" mask="url(#dE)" d="M-5.022 9.268h20.44V-4.585h-20.44z"/></g><g transform="translate(215.498 145.862)"><mask id="dG" fill="#fff"><use xlink:href="#dF"/></mask><path fill="#30373D" mask="url(#dG)" d="M-4.658 9.268h20.61V-4.585h-20.61z"/></g><g transform="translate(227.47 145.862)"><mask id="dI" fill="#fff"><use xlink:href="#dH"/></mask><path fill="#30373D" mask="url(#dI)" d="M-4.872 9.268h20.804V-4.585H-4.872z"/></g><g transform="translate(239.442 145.862)"><mask id="dK" fill="#fff"><use xlink:href="#dJ"/></mask><path fill="#30373D" mask="url(#dK)" d="M-5.064 9.268h20.953V-4.585H-5.064z"/></g><g transform="translate(250.844 145.862)"><mask id="dM" fill="#fff"><use xlink:href="#dL"/></mask><path fill="#30373D" mask="url(#dM)" d="M-4.71 9.268h21.145V-4.585H-4.71z"/></g><g transform="translate(262.815 145.862)"><mask id="dO" fill="#fff"><use xlink:href="#dN"/></mask><path fill="#30373D" mask="url(#dO)" d="M-4.904 9.268h34.588V-4.585H-4.904z"/></g><g transform="translate(261.105 137.323)"><mask id="dQ" fill="#fff"><use xlink:href="#dP"/></mask><path fill="#30373D" mask="url(#dQ)" d="M-5.014 9.237h20.823V-4.617H-5.014z"/></g><g transform="translate(271.937 137.323)"><mask id="dS" fill="#fff"><use xlink:href="#dR"/></mask><path fill="#30373D" mask="url(#dS)" d="M-4.675 13.516h23.123V-4.618H-4.675z"/></g><g transform="translate(249.703 137.323)"><mask id="dU" fill="#fff"><use xlink:href="#dT"/></mask><path fill="#30373D" mask="url(#dU)" d="M-4.799 9.237H15.87V-4.617H-4.8z"/></g><g transform="translate(238.872 137.323)"><mask id="dW" fill="#fff"><use xlink:href="#dV"/></mask><path fill="#30373D" mask="url(#dW)" d="M-5.141 9.237h20.485V-4.617H-5.141z"/></g><g transform="translate(227.47 137.323)"><mask id="dY" fill="#fff"><use xlink:href="#dX"/></mask><path fill="#30373D" mask="url(#dY)" d="M-4.909 9.237h20.297V-4.617H-4.909z"/></g><g transform="translate(216.069 137.323)"><mask id="ea" fill="#fff"><use xlink:href="#dZ"/></mask><path fill="#30373D" mask="url(#ea)" d="M-4.683 9.237h20.14V-4.617h-20.14z"/></g><g transform="translate(205.237 137.323)"><mask id="ec" fill="#fff"><use xlink:href="#eb"/></mask><path fill="#30373D" mask="url(#ec)" d="M-5.037 9.237h19.97V-4.617h-19.97z"/></g><g transform="translate(193.835 137.323)"><mask id="ee" fill="#fff"><use xlink:href="#ed"/></mask><path fill="#30373D" mask="url(#ee)" d="M-4.927 9.237h19.924V-4.617H-4.927z"/></g><g transform="translate(182.434 137.323)"><mask id="eg" fill="#fff"><use xlink:href="#ef"/></mask><path fill="#30373D" mask="url(#eg)" d="M-4.865 9.237h20.048V-4.617H-4.865z"/></g><g transform="translate(171.032 137.323)"><mask id="ei" fill="#fff"><use xlink:href="#eh"/></mask><path fill="#30373D" mask="url(#ei)" d="M-4.817 9.237h20.233V-4.617H-4.817z"/></g><g transform="translate(159.63 137.323)"><mask id="ek" fill="#fff"><use xlink:href="#ej"/></mask><path fill="#30373D" mask="url(#ek)" d="M-4.757 9.237h20.39V-4.617h-20.39z"/></g><g transform="translate(148.229 137.323)"><mask id="em" fill="#fff"><use xlink:href="#el"/></mask><path fill="#30373D" mask="url(#em)" d="M-4.711 9.237H15.86V-4.617H-4.711z"/></g><g transform="translate(136.827 137.323)"><mask id="eo" fill="#fff"><use xlink:href="#en"/></mask><path fill="#30373D" mask="url(#eo)" d="M-4.662 9.237h20.75V-4.617h-20.75z"/></g><g transform="translate(120.295 137.323)"><mask id="eq" fill="#fff"><use xlink:href="#ep"/></mask><path fill="#30373D" mask="url(#eq)" d="M-4.884 9.237h26.332V-4.617H-4.884z"/></g><g transform="translate(151.08 150.417)"><mask id="es" fill="#fff"><use xlink:href="#er"/></mask><path fill="#30373D" mask="url(#es)" d="M-4.72 9.002h25.048V-4.843H-4.72z"/></g><g transform="translate(228.04 150.417)"><mask id="eu" fill="#fff"><use xlink:href="#et"/></mask><path fill="#30373D" mask="url(#eu)" d="M-4.782 9.002h22.99V-4.843h-22.99z"/></g><g transform="translate(138.537 150.417)"><mask id="ew" fill="#fff"><use xlink:href="#ev"/></mask><path fill="#30373D" mask="url(#ew)" d="M-4.98 9.002h21.393V-4.843H-4.98z"/></g><g transform="translate(125.996 150.417)"><mask id="ey" fill="#fff"><use xlink:href="#ex"/></mask><path fill="#30373D" mask="url(#ey)" d="M-4.684 9.002h21.585V-4.843H-4.684z"/></g><g transform="translate(114.024 150.417)"><mask id="eA" fill="#fff"><use xlink:href="#ez"/></mask><path fill="#30373D" mask="url(#eA)" d="M-4.94 9.002h21.75V-4.843H-4.94z"/></g><g transform="translate(167.612 150.417)"><mask id="eC" fill="#fff"><use xlink:href="#eB"/></mask><path fill="#30373D" mask="url(#eC)" d="M-5.136 9H64.45V-4.844H-5.136z"/></g><g transform="translate(242.292 150.417)"><mask id="eE" fill="#fff"><use xlink:href="#eD"/></mask><path fill="#30373D" mask="url(#eE)" d="M-5.078 8.997h21.244V-4.848H-5.078z"/></g><g transform="translate(278.778 152.694)"><mask id="eG" fill="#fff"><use xlink:href="#eF"/></mask><path fill="#30373D" mask="url(#eG)" d="M-5.051 6.722h20.884V-5.123H-5.051z"/></g><g transform="translate(265.666 150.417)"><mask id="eI" fill="#fff"><use xlink:href="#eH"/></mask><path fill="#30373D" mask="url(#eI)" d="M-4.862 9.002H16.71V-4.843H-4.862z"/></g><g transform="translate(254.264 152.694)"><mask id="eK" fill="#fff"><use xlink:href="#eJ"/></mask><path fill="#30373D" mask="url(#eK)" d="M-4.936 6.722h20.818V-5.123H-4.936z"/></g><g transform="translate(266.236 141.877)"><mask id="eM" fill="#fff"><use xlink:href="#eL"/></mask><path fill="#30373D" mask="url(#eM)" d="M-4.937 8.966h21.135V-4.887H-4.937z"/></g><g transform="translate(254.834 141.877)"><mask id="eO" fill="#fff"><use xlink:href="#eN"/></mask><path fill="#30373D" mask="url(#eO)" d="M-4.999 8.966h20.954V-4.887H-5z"/></g><g transform="translate(243.432 141.877)"><mask id="eQ" fill="#fff"><use xlink:href="#eP"/></mask><path fill="#30373D" mask="url(#eQ)" d="M-5.075 8.966h20.792V-4.887H-5.075z"/></g><g transform="translate(232.03 141.877)"><mask id="eS" fill="#fff"><use xlink:href="#eR"/></mask><path fill="#30373D" mask="url(#eS)" d="M-5.144 8.966h20.61V-4.887h-20.61z"/></g><g transform="translate(220.06 141.877)"><mask id="eU" fill="#fff"><use xlink:href="#eT"/></mask><path fill="#30373D" mask="url(#eU)" d="M-4.63 8.966H15.8V-4.887H-4.63z"/></g><g transform="translate(208.658 141.877)"><mask id="eW" fill="#fff"><use xlink:href="#eV"/></mask><path fill="#30373D" mask="url(#eW)" d="M-4.709 8.966h20.275V-4.887H-4.71z"/></g><g transform="translate(197.256 141.877)"><mask id="eY" fill="#fff"><use xlink:href="#eX"/></mask><path fill="#30373D" mask="url(#eY)" d="M-4.835 8.966h20.16V-4.887h-20.16z"/></g><g transform="translate(185.854 141.877)"><mask id="fa" fill="#fff"><use xlink:href="#eZ"/></mask><path fill="#30373D" mask="url(#fa)" d="M-5.083 8.966h20.251V-4.887H-5.083z"/></g><g transform="translate(173.883 141.877)"><mask id="fc" fill="#fff"><use xlink:href="#fb"/></mask><path fill="#30373D" mask="url(#fc)" d="M-4.755 8.966H15.66V-4.887H-4.755z"/></g><g transform="translate(162.48 141.877)"><mask id="fe" fill="#fff"><use xlink:href="#fd"/></mask><path fill="#30373D" mask="url(#fe)" d="M-4.99 8.966h20.579V-4.887h-20.58z"/></g><g transform="translate(150.51 141.877)"><mask id="fg" fill="#fff"><use xlink:href="#ff"/></mask><path fill="#30373D" mask="url(#fg)" d="M-4.663 8.966h20.759V-4.887H-4.663z"/></g><g transform="translate(139.108 141.877)"><mask id="fi" fill="#fff"><use xlink:href="#fh"/></mask><path fill="#30373D" mask="url(#fi)" d="M-4.902 8.966h20.93V-4.887h-20.93z"/></g><g transform="translate(118.015 141.877)"><mask id="fk" fill="#fff"><use xlink:href="#fj"/></mask><path fill="#30373D" mask="url(#fk)" d="M-4.714 8.966H25.65V-4.887H-4.714z"/></g><g transform="translate(108.893 23.46)"><mask id="fm" fill="#fff"><use xlink:href="#fl"/></mask><path fill="#FAFAFB" mask="url(#fm)" d="M-5.12 110.814h195.916V-4.963H-5.12z"/></g><g transform="translate(108.893 23.46)"><mask id="fo" fill="#fff"><use xlink:href="#fn"/></mask><path fill="#1A1D26" mask="url(#fo)" d="M-5.121 110.814h195.916V-4.963H-5.121z"/></g><g transform="translate(114.024 28.583)"><g transform="translate(0 15.372)"><mask id="fq" fill="#fff"><use xlink:href="#fp"/></mask><path d="M-.094.37v72.368H-.15V83.09c0 .918.79 1.66 1.767 1.66h173.687c.979 0 1.766-.742 1.766-1.66v-1.312h.056V.37H-.094z" fill="#FFF" mask="url(#fq)"/></g><mask id="fs" fill="#fff"><use xlink:href="#fr"/></mask><path d="M175.304-.637H1.617C.641-.637-.15.07-.15.95v9.929h177.22V.949c0-.879-.788-1.586-1.766-1.586" fill="#CDD5D7" mask="url(#fs)"/><path d="M3.94 2.562c0 .56-.475 1.014-1.06 1.014-.584 0-1.065-.454-1.065-1.014 0-.557.481-1.012 1.066-1.012.584 0 1.059.455 1.059 1.012m3.117 0c0 .56-.475 1.014-1.061 1.014-.59 0-1.062-.454-1.062-1.014 0-.557.473-1.012 1.062-1.012.586 0 1.06.455 1.06 1.012m3.116 0c0 .56-.474 1.014-1.059 1.014-.587 0-1.063-.454-1.063-1.014 0-.557.476-1.012 1.063-1.012.585 0 1.059.455 1.059 1.012" fill="#B7BEC0"/><mask id="fu" fill="#fff"><use xlink:href="#ft"/></mask><path fill="#FFF" mask="url(#fu)" d="M14.658 9.408h136.924V5H14.658z"/><path fill="#B7BEC0" mask="url(#fu)" d="M3.268 8.61L1.597 7.013l1.671-1.596.616.594-1.05 1.002 1.05 1.004z"/><path fill="#B7BEC0" mask="url(#fu)" d="M2.588 7.431h3.08v-.836h-3.08zm7.744 1.179l-.616-.592 1.046-1.004-1.046-1.002.616-.594 1.671 1.596z"/><path fill="#B7BEC0" mask="url(#fu)" d="M7.93 7.431h3.086v-.836H7.93z"/><path fill="#E3E4E8" mask="url(#fu)" d="M-.15 16.203h177.22v-5.67H-.15z"/><path fill="#F8F9FC" mask="url(#fu)" d="M3.924 14.16h9.338v-.704H3.924zm11.978 0h9.336v-.704h-9.336zm11.981 0h9.336v-.704h-9.336zm11.977 0h9.34v-.704h-9.34zm11.979 0h9.339v-.704h-9.34zm11.981 0h9.336v-.704H63.82z"/><path fill="#48494F" mask="url(#fu)" d="M153.368 8.934h13.456V5h-13.456z"/><path fill="#D7D8DA" mask="url(#fu)" d="M3.924 21.048h24.693v-1.405H3.924zm0 2.116h15.845V22.11H3.924zm17.523 0h8.694V22.11h-8.694zm10.693 0h8.692V22.11H32.14zm10.698 0h8.692V22.11h-8.692zm10.213 0H65.49V22.11H53.05zm14.439 0h8.689V22.11h-8.69z"/><path fill="#6CAD84" mask="url(#fu)" d="M3.789 80.033h114.564V28.237H3.789z"/><path fill="#28282C" mask="url(#fu)" d="M3.807 88.683h114.557v-8.65H3.807z"/><path fill="#BCBCBC" mask="url(#fu)" d="M36.275 84.572h55.684v-.395H36.275z"/><path fill="#5AA6D9" mask="url(#fu)" d="M36.275 84.572h26.014v-.395H36.275z"/><path fill="#BCBCBC" mask="url(#fu)" d="M102.225 84.572h6.157v-.395h-6.157z"/><path fill="#00D1C9" mask="url(#fu)" d="M102.225 84.572h2.671v-.395h-2.67z"/><path d="M67.15 53.97c0 3.206-2.716 5.805-6.067 5.805-3.35 0-6.065-2.599-6.065-5.804 0-3.203 2.714-5.803 6.065-5.803 3.351 0 6.068 2.6 6.068 5.803" fill="#30363D" mask="url(#fu)"/><path fill="#FFF" mask="url(#fu)" d="M63.139 53.97l-1.671 1.387-1.678 1.387v-5.547l1.678 1.386zm36.806 30.814h.276c.033 0 .065.012.086.028l.417.323v-1.546l-.417.318a.132.132 0 01-.086.026h-.276v.85zm.912.734c-.03 0-.055-.015-.086-.03l-.593-.454h-.368a.128.128 0 01-.127-.128v-1.094c0-.072.058-.123.127-.123h.368l.593-.458a.132.132 0 01.138-.016c.046.024.076.063.076.114v2.062a.12.12 0 01-.076.112c-.02.006-.034.015-.052.015zm-74.01-.336h-.969a.133.133 0 01-.11-.055l-.252-.37a.123.123 0 01.037-.173c.064-.04.142-.025.178.035l.218.316h.898c.07 0 .126.059.126.125a.124.124 0 01-.126.122m-1.602-1.015a.126.126 0 01-.11-.056l-.206-.324h-.85a.128.128 0 01-.13-.127c0-.066.059-.121.13-.121h.926c.045 0 .086.02.11.058l.243.386a.121.121 0 01-.044.169.164.164 0 01-.069.015"/><path d="M25.005 85.177h-.926c-.071 0-.131-.054-.131-.121 0-.066.06-.124.13-.124h.85l.838-1.335a.132.132 0 01.112-.058h.97a.124.124 0 110 .249h-.896l-.837 1.335a.131.131 0 01-.11.054" fill="#FFF" mask="url(#fu)"/><path d="M26.387 84.271a.144.144 0 01-.096-.036.123.123 0 010-.178l.41-.393-.41-.392a.122.122 0 010-.177c.048-.046.132-.046.185 0l.5.481a.13.13 0 010 .18l-.5.48a.169.169 0 01-.09.035m.001 1.389a.13.13 0 01-.096-.039.121.121 0 010-.176l.41-.394-.41-.39a.123.123 0 010-.179c.048-.047.132-.047.185 0l.5.483a.126.126 0 010 .176l-.5.48a.15.15 0 01-.09.038" fill="#FFF" mask="url(#fu)"/><path d="M31.57 84.356a.157.157 0 01-.101-.04.118.118 0 01.016-.177l.547-.45-.547-.458a.117.117 0 01-.016-.176.142.142 0 01.187-.01l.665.545c.025.026.044.06.044.1 0 .03-.019.065-.044.089l-.665.547a.126.126 0 01-.086.03" fill="#7EC8EF" mask="url(#fu)"/><path d="M30.157 85.089a.137.137 0 01-.08-.03.81.81 0 01-.337-.656c0-.456.388-.827.864-.827h1.52a.13.13 0 01.128.127c0 .066-.062.12-.128.12h-1.52c-.328 0-.605.262-.605.58a.56.56 0 00.24.462c.053.041.063.12.02.175a.125.125 0 01-.102.049" fill="#7EC8EF" mask="url(#fu)"/><path d="M31.244 85.704a.132.132 0 01-.087-.028l-.667-.551a.125.125 0 01-.044-.091.14.14 0 01.044-.095l.667-.545c.052-.045.14-.038.18.012.051.05.042.128-.013.176l-.55.452.55.452c.055.046.064.124.013.176-.022.033-.057.042-.093.042" fill="#7EC8EF" mask="url(#fu)"/><path d="M32.202 85.143h-1.515a.126.126 0 01-.13-.124c0-.07.059-.126.13-.126h1.515a.59.59 0 00.607-.577c0-.18-.087-.35-.238-.462a.118.118 0 01-.02-.173.128.128 0 01.18-.02.79.79 0 01.34.655c0 .457-.39.827-.869.827" fill="#7EC8EF" mask="url(#fu)"/><path d="M114.827 85.836h-2.833c-.075 0-.13-.053-.13-.12v-2.71c0-.07.055-.127.13-.127h1.406c.073 0 .135.056.135.126 0 .065-.062.122-.135.122h-1.277v2.464h2.578v-1.218c0-.072.058-.127.126-.127.074 0 .135.055.135.127v1.344c0 .066-.06.119-.135.119m0-1.973a.126.126 0 01-.126-.123v-.613h-.639c-.073 0-.133-.057-.133-.122 0-.07.06-.126.133-.126h.765c.074 0 .135.056.135.126v.735c0 .067-.06.123-.135.123" fill="#FFF" mask="url(#fu)"/><path d="M113.61 84.29a.146.146 0 01-.091-.033.116.116 0 010-.175l1.116-1.064a.138.138 0 01.185 0 .125.125 0 010 .176l-1.115 1.063a.148.148 0 01-.094.034m-96.904.068l-.713.48-.71.483v-1.923l.71.478zm.145 1.127h.327v-2.252h-.327zm-9.398-1.127l.715.48.708.483v-1.923l-.708.478zm-.44 1.127h.324v-2.252h-.324zm4.091 0h.622v-2.252h-.622zm1.137 0h.621v-2.252h-.621z" fill="#FFF" mask="url(#fu)"/><path d="M93.233 84.688h.225v-.64c0-.019 0-.038.002-.058l-.187.143a.038.038 0 01-.014.008.062.062 0 01-.014.002.046.046 0 01-.02-.004.044.044 0 01-.013-.01l-.041-.05.31-.242h.107v.85h.205v.09h-.56v-.09zm.682.017a.08.08 0 01.007-.033.092.092 0 01.02-.026.1.1 0 01.065-.024.112.112 0 01.067.024.073.073 0 01.02.026c.004.01.007.021.007.033a.072.072 0 01-.008.032.072.072 0 01-.019.026.098.098 0 01-.03.017.095.095 0 01-.037.006.096.096 0 01-.036-.006.088.088 0 01-.03-.017.09.09 0 01-.02-.026.08.08 0 01-.006-.032m0-.491a.08.08 0 01.026-.058.1.1 0 01.066-.024.09.09 0 01.037.006c.011.004.02.01.03.018a.069.069 0 01.02.026c.004.01.007.02.007.032a.07.07 0 01-.008.032.073.073 0 01-.019.026.112.112 0 01-.03.018.123.123 0 01-.073 0 .1.1 0 01-.03-.018.078.078 0 01-.026-.059m.669-.385c.04 0 .08.006.116.018a.266.266 0 01.093.052.24.24 0 01.085.192.266.266 0 01-.017.096.552.552 0 01-.109.165l-.077.078-.258.253a.442.442 0 01.109-.016h.329c.013 0 .024.004.03.011a.038.038 0 01.013.03v.07h-.655v-.04a.07.07 0 01.022-.05l.315-.301c.026-.026.05-.05.07-.073a.664.664 0 00.056-.07.32.32 0 00.035-.073.245.245 0 00.012-.077.169.169 0 00-.014-.072.132.132 0 00-.037-.052.164.164 0 00-.056-.03.224.224 0 00-.194.03.177.177 0 00-.064.1.05.05 0 01-.016.027.046.046 0 01-.03.008h-.015l-.064-.011a.335.335 0 01.037-.114.28.28 0 01.166-.133.37.37 0 01.118-.018m.806 0a.37.37 0 01.115.017.276.276 0 01.091.049.223.223 0 01.081.175.253.253 0 01-.013.08.189.189 0 01-.087.106.306.306 0 01-.071.029.276.276 0 01.145.081.214.214 0 01.048.142.265.265 0 01-.096.205.324.324 0 01-.104.056.415.415 0 01-.126.02.42.42 0 01-.134-.02.286.286 0 01-.094-.05.278.278 0 01-.063-.079.596.596 0 01-.042-.096l.053-.021a.07.07 0 01.028-.006c.01 0 .017.001.024.005.008.004.013.01.017.018l.003.005.001.006.024.043a.19.19 0 00.095.08c.023.01.051.015.086.015a.231.231 0 00.09-.017.186.186 0 00.103-.098.177.177 0 00.013-.062.22.22 0 00-.01-.07.121.121 0 00-.04-.054.194.194 0 00-.076-.036.496.496 0 00-.125-.013v-.085a.407.407 0 00.106-.012.22.22 0 00.072-.034.128.128 0 00.041-.052.178.178 0 00.013-.067.177.177 0 00-.013-.07.139.139 0 00-.037-.05.156.156 0 00-.056-.03.24.24 0 00-.137 0 .198.198 0 00-.055.03.17.17 0 00-.041.045.213.213 0 00-.025.055.053.053 0 01-.016.028.044.044 0 01-.028.008h-.008a.074.074 0 00-.008-.001l-.064-.01a.289.289 0 01.203-.247.37.37 0 01.118-.018" fill="#BCBCBC" mask="url(#fu)"/><path d="M93.233 84.688h.225v-.64c0-.019 0-.038.002-.058l-.187.143a.038.038 0 01-.014.008.062.062 0 01-.014.002.046.046 0 01-.02-.004.044.044 0 01-.013-.01l-.041-.05.31-.242h.107v.85h.205v.09h-.56v-.09zm.682.017a.08.08 0 01.007-.033.092.092 0 01.02-.026.1.1 0 01.065-.024.112.112 0 01.067.024.073.073 0 01.02.026c.004.01.007.021.007.033a.072.072 0 01-.008.032.072.072 0 01-.019.026.098.098 0 01-.03.017.095.095 0 01-.037.006.096.096 0 01-.036-.006.088.088 0 01-.03-.017.09.09 0 01-.02-.026.08.08 0 01-.006-.032m0-.491a.08.08 0 01.026-.058.1.1 0 01.066-.024.09.09 0 01.037.006c.011.004.02.01.03.018a.069.069 0 01.02.026c.004.01.007.02.007.032a.07.07 0 01-.008.032.073.073 0 01-.019.026.112.112 0 01-.03.018.123.123 0 01-.073 0 .1.1 0 01-.03-.018.078.078 0 01-.026-.059m.669-.385c.04 0 .08.006.116.018a.266.266 0 01.093.052.24.24 0 01.085.192.266.266 0 01-.017.096.552.552 0 01-.109.165l-.077.078-.258.253a.442.442 0 01.109-.016h.329c.013 0 .024.004.03.011a.038.038 0 01.013.03v.07h-.655v-.04a.07.07 0 01.022-.05l.315-.301c.026-.026.05-.05.07-.073a.664.664 0 00.056-.07.32.32 0 00.035-.073.245.245 0 00.012-.077.169.169 0 00-.014-.072.132.132 0 00-.037-.052.164.164 0 00-.056-.03.224.224 0 00-.194.03.177.177 0 00-.064.1.05.05 0 01-.016.027.046.046 0 01-.03.008h-.015l-.064-.011a.335.335 0 01.037-.114.28.28 0 01.166-.133.37.37 0 01.118-.018m.806 0a.37.37 0 01.115.017.276.276 0 01.091.049.223.223 0 01.081.175.253.253 0 01-.013.08.189.189 0 01-.087.106.306.306 0 01-.071.029.276.276 0 01.145.081.214.214 0 01.048.142.265.265 0 01-.096.205.324.324 0 01-.104.056.415.415 0 01-.126.02.42.42 0 01-.134-.02.286.286 0 01-.094-.05.278.278 0 01-.063-.079.596.596 0 01-.042-.096l.053-.021a.07.07 0 01.028-.006c.01 0 .017.001.024.005.008.004.013.01.017.018l.003.005.001.006.024.043a.19.19 0 00.095.08c.023.01.051.015.086.015a.231.231 0 00.09-.017.186.186 0 00.103-.098.177.177 0 00.013-.062.22.22 0 00-.01-.07.121.121 0 00-.04-.054.194.194 0 00-.076-.036.496.496 0 00-.125-.013v-.085a.407.407 0 00.106-.012.22.22 0 00.072-.034.128.128 0 00.041-.052.178.178 0 00.013-.067.177.177 0 00-.013-.07.139.139 0 00-.037-.05.156.156 0 00-.056-.03.24.24 0 00-.137 0 .198.198 0 00-.055.03.17.17 0 00-.041.045.213.213 0 00-.025.055.053.053 0 01-.016.028.044.044 0 01-.028.008h-.008a.074.074 0 00-.008-.001l-.064-.01a.289.289 0 01.203-.247.37.37 0 01.118-.018" fill="#BCBCBC" mask="url(#fu)"/><path fill="#D7D8DA" mask="url(#fu)" d="M145.85 29.552h22.055v-1.408H145.85zm0 2.663h25.159V31.16h-25.16zm-.103 2.473h21.963v-1.063h-21.963zm0 2.374h24.455v-1.056h-24.455zm-.001 2.566h5.465v-1.055h-5.465z"/><path fill="#E3E4E8" mask="url(#fu)" d="M121.587 40.597h22.196V28.22h-22.196z"/><path d="M132.683 32.32c-1.208 0-2.182.932-2.182 2.087 0 1.15.974 2.084 2.182 2.084 1.204 0 2.185-.933 2.185-2.084 0-1.155-.981-2.088-2.185-2.088" fill="#50936E" mask="url(#fu)"/><path d="M133.57 34.423l-1.453.8c-.014.006-.016.009-.023.009 0-.003-.002-.011-.002-.024v-1.605c0-.016.002-.02.002-.023l.023.007 1.454.803a.031.031 0 01.02.018l-.02.015" fill="#F8F9FC" mask="url(#fu)"/><path fill="#D7D8DA" mask="url(#fu)" d="M145.85 45.65h22.055v-1.41H145.85zm0 2.662h25.159v-1.057h-25.16zm-.103 2.471h21.963v-1.058h-21.963zm0 2.377h24.455v-1.056h-24.455zm-.001 2.565h5.465v-1.057h-5.465z"/><path fill="#E3E4E8" mask="url(#fu)" d="M121.587 56.693h22.196V44.317h-22.196z"/><path d="M132.683 48.414c-1.208 0-2.182.935-2.182 2.088 0 1.155.974 2.089 2.182 2.089 1.204 0 2.185-.934 2.185-2.089 0-1.153-.981-2.088-2.185-2.088" fill="#50936E" mask="url(#fu)"/><path d="M133.57 50.522l-1.453.798c-.014.008-.016.01-.023.012 0-.004-.002-.012-.002-.03v-1.6c0-.014.002-.02.002-.026.003.004.01.005.023.012l1.454.798c.013.01.018.016.02.016a.073.073 0 01-.02.02" fill="#F8F9FC" mask="url(#fu)"/><path fill="#D7D8DA" mask="url(#fu)" d="M145.85 61.75h22.055v-1.412H145.85zm0 2.658h25.159v-1.056h-25.16zm-.103 2.472h21.963v-1.056h-21.963zm0 2.375h24.455v-1.054h-24.455zm-.001 2.564h5.465v-1.053h-5.465z"/><path fill="#E3E4E8" mask="url(#fu)" d="M121.587 72.79h22.196V60.414h-22.196z"/><path d="M132.683 64.514c-1.208 0-2.182.935-2.182 2.087 0 1.151.974 2.087 2.182 2.087 1.204 0 2.185-.936 2.185-2.087 0-1.152-.981-2.087-2.185-2.087" fill="#50936E" mask="url(#fu)"/><path d="M133.57 66.615l-1.453.804c-.014.006-.016.006-.023.008 0-.002-.002-.01-.002-.028V65.8c0-.017.002-.026.002-.029.003.003.01.003.023.012l1.454.802c.013.01.018.013.02.017-.002.002-.007.007-.02.013" fill="#F8F9FC" mask="url(#fu)"/><path fill="#D7D8DA" mask="url(#fu)" d="M145.85 77.845h22.055v-1.412H145.85zm0 2.665h25.159v-1.06h-25.16zm-.103 2.464h21.963v-1.056h-21.963zm0 2.379h24.455v-1.057h-24.455zm-.001 2.566h5.465v-1.056h-5.465z"/><path fill="#E3E4E8" mask="url(#fu)" d="M121.587 88.883h22.196v-12.37h-22.196z"/><path d="M132.683 80.612c-1.208 0-2.182.937-2.182 2.088 0 1.15.974 2.084 2.182 2.084 1.204 0 2.185-.935 2.185-2.084 0-1.151-.981-2.088-2.185-2.088" fill="#50936E" mask="url(#fu)"/><path d="M133.57 82.71l-1.453.805c-.014.006-.016.01-.023.01l-.002-.026v-1.602c0-.016.002-.024.002-.03.003.006.01.006.023.014l1.454.8c.013.008.018.01.02.02-.002 0-.007.007-.02.01" fill="#F8F9FC" mask="url(#fu)"/></g><g transform="translate(0 132)"><circle fill="#5AA6D9" cx="14.5" cy="14.5" r="14.5"/><path fill="#F0F1F3" d="M27.963 8.82l-1.812-3.14-9.838 5.68V0h-3.625v11.36l-9.84-5.68-1.812 3.14 9.839 5.68-9.839 5.68 1.813 3.14 9.838-5.681v11.36h3.626V17.64l9.838 5.68 1.812-3.14-9.838-5.68z"/><circle fill="#3A7DAA" cx="14.5" cy="14.5" r="9.969"/><circle fill="#4192C8" cx="14.5" cy="14.5" r="7.25"/></g><g transform="translate(15 143)"><circle fill="#6CAD84" cx="15" cy="15" r="15"/><path fill="#F0F1F3" d="M28.927 9.123l-1.874-3.247-10.178 5.876V0h-3.75v11.752L2.947 5.876 1.072 9.123 11.25 15 1.072 20.876l1.875 3.247 10.178-5.876V30h3.75V18.247l10.178 5.876 1.874-3.247L18.75 15z"/><circle fill="#50936E" cx="15" cy="15" r="10.313"/><circle fill="#6CAD84" cx="15" cy="15" r="7.5"/></g><g transform="translate(311 136)"><circle fill="#FF6C50" cx="14.5" cy="14.5" r="14.5"/><path fill="#F0F1F3" d="M27.963 8.82l-1.812-3.14-9.838 5.68V0h-3.625v11.36l-9.84-5.68-1.812 3.14 9.839 5.68-9.839 5.68 1.813 3.14 9.838-5.681v11.36h3.626V17.64l9.838 5.68 1.812-3.14-9.838-5.68z"/><circle fill="#CF4C33" cx="14.5" cy="14.5" r="9.969"/><circle fill="#FF6C50" cx="14.5" cy="14.5" r="7.25"/></g><g transform="translate(298 150)"><circle fill="#6CAD84" cx="15" cy="15" r="15"/><path fill="#F0F1F3" d="M28.927 9.123l-1.874-3.247-10.178 5.876V0h-3.75v11.752L2.947 5.876 1.072 9.123 11.25 15 1.072 20.876l1.875 3.247 10.178-5.876V30h3.75V18.247l10.178 5.876 1.874-3.247L18.75 15z"/><circle fill="#50936E" cx="15" cy="15" r="10.313"/><circle fill="#6CAD84" cx="15" cy="15" r="7.5"/></g></g></svg>