<svg xmlns="http://www.w3.org/2000/svg" width="44.444" height="50"><path d="M43.483 9.276c-.018.193-1.757 19.588-5.827 40.135a.732.732 0 01-.718.59h-.052a209.227 209.227 0 01-13.603-1.484 205.355 205.355 0 01-10.2-1.765.733.733 0 01-.522-1.026L30.637 6.769a.733.733 0 01.778-.415 215.82 215.82 0 0111.497 2.143.732.732 0 01.571.779z" fill="#6c7dad"/><path d="M31.786 45.567a.732.732 0 01-.678.692c-.027 0-1.152.084-2.977.184-2.812.152-7.287.345-11.977.345-7.729 0-14.881-.522-14.953-.528a.732.732 0 01-.677-.692C-.653 22.693.512 1.43.524 1.217a.733.733 0 01.677-.689A230.59 230.59 0 0116.155 0c4.675 0 9.138.191 11.951.343 1.839.1 2.975.183 3 .185a.733.733 0 01.678.689c.014.213 1.179 21.475.002 44.35z" fill="#ffdc99"/><path d="M31.787 45.568a.732.732 0 01-.678.692c-.027 0-1.152.084-2.977.184 1.131-25.006.136-43.4-.025-46.1 1.839.1 2.975.183 3 .185a.733.733 0 01.678.689c.013.215 1.178 21.475.002 44.35z" fill="#e4bb6b"/><path d="M6.717 10.46c.53-.006 1.408-.012 2.343 0 .134.418.261.848.375 1.282a.733.733 0 001.417-.372 35.43 35.43 0 00-2.309-6.113.732.732 0 00-1.309 0 35.439 35.439 0 00-2.304 6.111.733.733 0 001.417.372c.114-.433.241-.862.37-1.28zm1.172-3.113c.2.467.43 1.027.66 1.643H7.228a44.44 44.44 0 01.666-1.644zm19.492 33.669a35.419 35.419 0 00-2.309-6.113.732.732 0 00-1.309 0 35.445 35.445 0 00-2.309 6.113.733.733 0 001.417.372c.114-.434.241-.863.375-1.282.53-.006 1.408-.012 2.343 0 .134.418.261.848.375 1.282a.733.733 0 00.708.546.741.741 0 00.187-.024.732.732 0 00.522-.894zm-3.624-2.379c.231-.617.46-1.176.661-1.644.2.467.43 1.027.66 1.643h-1.321zM26.132 20.6c0 8.009-9.821 10.729-9.975 10.771s-9.976-2.7-9.976-10.772c0-7.245 9.976-6.3 9.976-.865 0-2.513 2.136-4.066 4.432-4.292a4.827 4.827 0 015.543 5.158z" fill="#e65a40"/><path d="M26.132 20.601c0 8.009-9.821 10.73-9.975 10.771 3.075-2.443 6.361-6.228 6.361-11.227a5.886 5.886 0 00-1.932-4.7 4.827 4.827 0 015.546 5.156z" fill="#d3472e"/><path d="M43.485 9.275c-.018.193-1.757 19.588-5.827 40.135a.732.732 0 01-.718.59h-.052c-.025 0-1.029-.073-2.659-.22 3.345-20.136 5.465-37.176 6.026-41.836 1.633.328 2.636.549 2.658.554a.732.732 0 01.572.777z" fill="#62719d"/></svg>