<svg width="40" height="40" xmlns="http://www.w3.org/2000/svg" xmlns:xlink="http://www.w3.org/1999/xlink"><defs><linearGradient x1="50%" y1="0%" x2="50%" y2="97.991%" id="b"><stop stop-color="#539B6D" offset="0%"/><stop stop-color="#1C7062" offset="100%"/></linearGradient><linearGradient x1="50%" y1="0%" x2="50%" y2="97.272%" id="c"><stop stop-color="#25715C" offset="0%"/><stop stop-color="#206551" offset="100%"/></linearGradient><linearGradient x1="50%" y1="0%" x2="50%" y2="100%" id="e"><stop stop-color="#25725A" offset="0%"/><stop stop-color="#0A4933" offset="100%"/></linearGradient><mask id="d" maskContentUnits="userSpaceOnUse" maskUnits="objectBoundingBox" x="-.907" y="-.907" width="29.087" height="29.087"><path fill="#fff" d="M5.456 5.456h29.087v29.087H5.456z"/><use xlink:href="#a"/></mask><mask id="f" maskContentUnits="userSpaceOnUse" maskUnits="objectBoundingBox" x="0" y="0" width="27.273" height="27.273" fill="#fff"><use xlink:href="#a"/></mask><path d="M20 33.636c7.531 0 13.636-6.105 13.636-13.636 0-7.531-6.105-13.636-13.636-13.636-7.531 0-13.636 6.105-13.636 13.636 0 7.531 6.105 13.636 13.636 13.636z" id="a"/></defs><g fill="none" fill-rule="evenodd"><path d="M20 40c11.046 0 20-8.954 20-20S31.046 0 20 0 0 8.954 0 20s8.954 20 20 20z" fill="url(#b)"/><use stroke="url(#c)" mask="url(#d)" stroke-width="1.814" xlink:href="#a"/><use stroke="url(#e)" mask="url(#f)" stroke-width="1.08" xlink:href="#a"/><path d="M23.636 2.578a2.052 2.052 0 01-2.045 2.052H18.41a2.048 2.048 0 01-2.045-2.052V1.356c0-.2.152-.398.35-.44 0 0 1.468-.37 3.286-.37s3.286.37 3.286.37c.193.043.35.234.35.44v1.222zm12.273 9.385a2.052 2.052 0 01-2.881-.298l-2.003-2.473a2.048 2.048 0 01.308-2.88l.95-.77a.464.464 0 01.562-.004s1.211.907 2.356 2.32c1.144 1.413 1.78 2.787 1.78 2.787a.465.465 0 01-.122.55l-.95.768zm.258 15.457a2.052 2.052 0 01-1.54-2.454l.717-3.101a2.048 2.048 0 012.46-1.531l1.19.275a.464.464 0 01.35.44s.03 1.513-.378 3.285a14.951 14.951 0 01-1.1 3.118.465.465 0 01-.508.243l-1.19-.275zm-11.876 9.87a2.052 2.052 0 01.939-2.74l2.86-1.395a2.048 2.048 0 012.738.948l.535 1.098a.464.464 0 01-.122.55s-1.157.975-2.79 1.772a14.951 14.951 0 01-3.116 1.108.465.465 0 01-.508-.242l-.536-1.098zM9.172 34.104a2.052 2.052 0 012.738-.948l2.86 1.395a2.048 2.048 0 01.94 2.74l-.537 1.1a.464.464 0 01-.508.241s-1.481-.31-3.115-1.108a14.951 14.951 0 01-2.791-1.772.465.465 0 01-.122-.55l.535-1.098zm-6.975-13.77a2.052 2.052 0 012.46 1.532l.715 3.1a2.048 2.048 0 01-1.54 2.455l-1.19.275a.464.464 0 01-.508-.243s-.69-1.346-1.1-3.118C.625 22.563.656 21.05.656 21.05a.465.465 0 01.35-.44l1.19-.275zm6.47-14.021a2.052 2.052 0 01.308 2.88l-2.003 2.473c-.71.878-2 1.012-2.881.298l-.95-.769a.464.464 0 01-.122-.55s.636-1.373 1.78-2.786c1.145-1.413 2.356-2.32 2.356-2.32a.465.465 0 01.562.004l.95.77z" fill="#FEFEFE"/></g></svg>