<svg width="37" height="24" xmlns="http://www.w3.org/2000/svg"><g fill="none"><path d="M34.222 22.235V.956a.928.928 0 00-.925-.925H3.71a.928.928 0 00-.925.925v21.279h31.438z" fill="#68696D"/><path fill="#9FD0F1" d="M3.94 1.188h29.126v19.891H3.94z"/><path fill="#FFF" d="M0 22.235h36.994v1H0z"/><path fill="#E2E4E8" d="M35.15 23.97H1.857l-1.85-1.157H37z"/><path d="M21.607 22.257h-6.22c.059.499.348.89.71.89h4.799c.362 0 .652-.391.71-.89z" opacity=".7" fill="#FFF"/><path d="M25.157 17.163H11.845a1.669 1.669 0 01-1.664-1.664V6.633c0-.916.748-1.664 1.664-1.664h13.312c.915 0 1.663.748 1.663 1.664v8.866c0 .915-.748 1.664-1.663 1.664z" fill="#FFF"/><path fill="#68696D" d="M15.25 13.968l2.216-2.261v5.456h2.068v-5.456l2.217 2.26 1.476-1.44-4.726-4.82-4.727 4.82z"/></g></svg>