<svg width="88" height="79" xmlns="http://www.w3.org/2000/svg"><g fill="none" fill-rule="evenodd"><path d="M64.827 47.974c.119 2.323.163 4.585.15 6.525-.04 6.572.028 10.348-1.298 16.762-.613 2.843-3.666 6.082-6.498 6.448-8.177 1-16.514 1.286-24.691 1.289-8.167-.003-16.494-.29-24.66-1.29-2.83-.365-5.878-3.604-6.49-6.447C.015 64.847.043 61.071.002 54.5c-.03-4.934.343-11.948 1.338-16.763.612-2.842 3.66-6.081 6.49-6.446 8.108-.993 16.551-1.28 24.66-1.29 2.904.004 5.85.043 8.809.137 3.298 10.02 12.524 17.349 23.528 17.837z" fill="#666" fill-rule="nonzero"/><path d="M60.667 47.452c.19 2.495.266 5.006.252 7.077-.035 5.478-.011 8.627-1.17 13.973-.537 2.37-3.207 5.07-5.683 5.373-7.151.833-14.443 1.073-21.594 1.076-7.141-.003-14.424-.244-21.566-1.076-2.474-.304-5.14-3.004-5.676-5.373-1.157-5.347-1.134-8.496-1.17-13.973-.026-4.112.302-9.959 1.17-13.972.537-2.369 3.203-5.068 5.676-5.373 7.093-.827 14.474-1.068 21.566-1.076a245.8 245.8 0 0110.632.223c3.582 6.636 9.964 11.537 17.563 13.121z" fill="#E6E6E6" fill-rule="nonzero"/><path fill="#999" d="M50.81 56.577h6.086v-2.063h-6.085zm0-4.125h6.086V50.39h-6.085zm.584-8.939a25.924 25.924 0 005.34 2.787 3.046 3.046 0 01-2.88 2.069 3.05 3.05 0 01-3.043-3.056c0-.674.216-1.296.583-1.8zm2.46 15.089a3.049 3.049 0 00-3.043 3.055 3.05 3.05 0 003.043 3.056 3.05 3.05 0 003.042-3.056 3.049 3.049 0 00-3.042-3.055z"/><path d="M47.828 43.335c-.42-1.892-2.519-4.05-4.466-4.293-5.58-.661-9.36-.853-14.942-.86-5.573.007-9.345.198-14.918.86-1.944.242-4.041 2.4-4.462 4.293-.683 3.208-.941 7.879-.92 11.164.028 4.377.01 6.892.92 11.165.42 1.892 2.518 4.05 4.462 4.293 5.613.666 9.306.858 14.918.86 5.622-.002 9.322-.193 14.942-.86 1.947-.242 4.045-2.4 4.466-4.293.91-4.273.893-6.787.921-11.165.021-3.285-.237-7.956-.921-11.164z" fill="#ED7161" fill-rule="nonzero"/><path d="M22.375 46.314v16.369l12.142-8.185z" fill="#FFF" fill-rule="nonzero"/><circle fill="#6CAD84" cx="66" cy="22" r="22"/><path d="M50.1 19h4.31v1.22h-2.94v1.46c.113-.02.252-.04.415-.06a4.52 4.52 0 011.515.08 2.1 2.1 0 01.805.365c.223.17.398.393.525.67s.19.615.19 1.015c0 .393-.065.737-.195 1.03a1.9 1.9 0 01-.56.73c-.243.193-.537.34-.88.44-.343.1-.728.15-1.155.15a17.564 17.564 0 01-1.53-.09 4.376 4.376 0 01-.5-.08V19zm2.13 5.97c.173 0 .335-.022.485-.065.15-.043.282-.11.395-.2a.96.96 0 00.27-.345c.067-.14.1-.31.1-.51 0-.24-.037-.433-.11-.58a.867.867 0 00-.3-.345 1.105 1.105 0 00-.435-.165 3.056 3.056 0 00-.875-.015 2.91 2.91 0 00-.29.045v2.13c.073.02.185.033.335.04.15.007.292.01.425.01zm3.83-2.47c0-1.167.257-2.065.77-2.695.513-.63 1.247-.945 2.2-.945.5 0 .937.087 1.31.26.373.173.683.42.93.74s.43.703.55 1.15c.12.447.18.943.18 1.49 0 1.167-.258 2.065-.775 2.695-.517.63-1.248.945-2.195.945-.507 0-.947-.087-1.32-.26a2.426 2.426 0 01-.925-.74 3.285 3.285 0 01-.545-1.15 5.74 5.74 0 01-.18-1.49zm1.44 0c0 .353.03.678.09.975.06.297.152.552.275.765a1.4 1.4 0 00.475.5c.193.12.423.18.69.18.487 0 .863-.19 1.13-.57.267-.38.4-.997.4-1.85 0-.34-.028-.657-.085-.95a2.65 2.65 0 00-.265-.77 1.38 1.38 0 00-.47-.515 1.294 1.294 0 00-.71-.185c-.487 0-.863.195-1.13.585-.267.39-.4 1.002-.4 1.835zm9.89.57h-2.56V26h-1.37v-7h1.37v2.85h2.56V19h1.37v7h-1.37v-2.93zm5.4-.98l.2.91h.06l.16-.94L74.26 19h1.41l-1.86 4.84c-.147.38-.288.71-.425.99s-.283.512-.44.695c-.157.183-.332.32-.525.41-.193.09-.42.135-.68.135a2.58 2.58 0 01-.535-.045 1.44 1.44 0 01-.445-.195l.35-1.11a.96.96 0 00.31.11c.093.013.193.02.3.02.313 0 .533-.247.66-.74L69.76 19h1.61l1.42 3.09zm8.56 3.62a2.091 2.091 0 01-.815.33c-.33.067-.668.1-1.015.1-.42 0-.818-.065-1.195-.195a2.556 2.556 0 01-.995-.63c-.287-.29-.515-.667-.685-1.13-.17-.463-.255-1.025-.255-1.685 0-.687.095-1.262.285-1.725.19-.463.437-.837.74-1.12a2.73 2.73 0 011.015-.61 3.552 3.552 0 011.12-.185c.4 0 .738.027 1.015.08.277.053.505.117.685.19l-.27 1.16a1.983 1.983 0 00-.545-.16 4.977 4.977 0 00-.765-.05c-.553 0-.998.197-1.335.59-.337.393-.505 1.003-.505 1.83 0 .36.04.688.12.985.08.297.202.55.365.76.163.21.367.373.61.49.243.117.525.175.845.175.3 0 .553-.03.76-.09.207-.06.387-.137.54-.23l.28 1.12z" fill="#FFF"/></g></svg>