<svg width="52" height="52" xmlns="http://www.w3.org/2000/svg"><g fill="none"><path d="M24.596 0H3.406A3.405 3.405 0 000 3.404v17.153a3.405 3.405 0 003.405 3.404h1.398V31l9.687-7.04h10.105A3.405 3.405 0 0028 20.558V3.404A3.403 3.403 0 0024.596 0z" fill="#6CAD84"/><path d="M1.797 22.356V3.8a1.8 1.8 0 011.8-1.8h22.545c.464 0 .906.093 1.307.263A3.37 3.37 0 0024.342.2H3.368a3.37 3.37 0 00-3.37 3.37v16.985a3.37 3.37 0 002.063 3.107 3.35 3.35 0 01-.264-1.306z" fill="#7ECC9B"/><path d="M29.516 0H24c1.924 0 3.484 1.527 3.484 3.41v17.18c0 1.883-1.56 3.41-3.484 3.41h5.516C31.44 24 33 22.473 33 20.59V3.41C33 1.526 31.44 0 29.516 0z" fill="#5C9671"/><path d="M22.405 21h21.19A3.405 3.405 0 0147 24.404v17.153a3.405 3.405 0 01-3.405 3.404h-1.398V52l-9.687-7.04H22.405A3.405 3.405 0 0119 41.558V24.404A3.404 3.404 0 0122.405 21z" fill="#E65A40"/><path d="M20.771 43.26V24.702a1.8 1.8 0 011.8-1.8h22.545c.464 0 .905.094 1.307.264a3.37 3.37 0 00-3.107-2.064H22.341a3.37 3.37 0 00-3.37 3.37v16.985a3.37 3.37 0 002.064 3.107 3.338 3.338 0 01-.264-1.306z" fill="#FF6D52"/><path d="M48.653 21h-5.28c1.849 0 3.348 1.524 3.348 3.404v17.153c0 1.88-1.5 3.404-3.347 3.404H42V52h5.28v-7.04h1.373c1.848 0 3.347-1.524 3.347-3.403V24.404C52 22.524 50.501 21 48.653 21z" fill="#CB4B33"/><path d="M37.008 34.775h-7.916a1.548 1.548 0 010-3.094h7.916a1.548 1.548 0 010 3.094z" fill="#F8F3F3"/><path d="M37.008 35.225h-7.916a1.999 1.999 0 01-1.997-1.997c0-1.102.896-1.997 1.997-1.997h7.916c1.101 0 1.997.895 1.997 1.997a1.999 1.999 0 01-1.997 1.997zm-7.916-3.093c-.604 0-1.097.492-1.097 1.097s.493 1.097 1.097 1.097h7.916a1.098 1.098 0 000-2.194h-7.916z"/><path d="M17.681 10.1h-2.41V7.689a1.548 1.548 0 00-3.095 0v2.41H9.765a1.548 1.548 0 000 3.095h2.411v2.411a1.548 1.548 0 003.094 0v-2.411h2.411a1.548 1.548 0 000-3.094z" fill="#F8F3F3"/><path d="M13.724 17.602a1.999 1.999 0 01-1.997-1.997v-1.962H9.766a1.999 1.999 0 01-1.997-1.997c0-1.102.895-1.997 1.997-1.997h1.96V7.688a1.998 1.998 0 013.995 0v1.96h1.961c1.102 0 1.997.896 1.997 1.998a1.999 1.999 0 01-1.997 1.997h-1.96v1.962a2 2 0 01-1.998 1.997zM9.766 10.55a1.098 1.098 0 000 2.194h2.41a.45.45 0 01.45.45v2.412a1.099 1.099 0 002.194 0l.001-2.412a.45.45 0 01.45-.45h2.411a1.098 1.098 0 000-2.194h-2.41a.45.45 0 01-.45-.45V7.689a1.099 1.099 0 00-2.194 0l-.001 2.41a.45.45 0 01-.45.45H9.766z"/></g></svg>