<svg width="24" height="24" xmlns="http://www.w3.org/2000/svg"><g fill="none"><circle fill="#6CAD84" cx="11.979" cy="11.979" r="11.979"/><path d="M23.734 4.923l-2.115-2.097a.757.757 0 00-1.049 0l-9.04 9.34-3.912-3.855a.757.757 0 00-1.048 0l-1.872 1.853a.734.734 0 000 1.03l6.252 6.194a.76.76 0 00.617.206.76.76 0 00.618-.206L23.734 5.971c.28-.3.28-.768 0-1.048z" fill="#F9F9F9"/><path d="M12.185 17.388L23.734 5.971a.734.734 0 000-1.03l-.337-.318-11.848 11.642-6.551-6.382-.281.28a.734.734 0 000 1.03l6.251 6.196a.76.76 0 00.618.205.742.742 0 00.6-.206z" fill="#E2E4E8"/></g></svg>