<svg xmlns="http://www.w3.org/2000/svg" width="20" height="20"><path d="M0 0h20v20H0z" fill="none"/><path d="M16.301 9.039l-.243-.495-.478.26a2.515 2.515 0 01-1.157.277 2.565 2.565 0 01-2.522-2.573v-.914a6.581 6.581 0 00-1.414-4.066L10.059 1 4.677 7.815a7.142 7.142 0 00-1.676 4.435 6.983 6.983 0 002.045 5.03 6.975 6.975 0 005.03 2.12 7.05 7.05 0 006.225-10.361zm-4.317 6.3a1.937 1.937 0 00.31 0 2.339 2.339 0 01-2.23 3.018 2.342 2.342 0 01-1.815-3.827l1.677-2.146a2.045 2.045 0 01.109.671v.4a1.911 1.911 0 001.945 1.886z" fill-rule="evenodd" fill="#e65a40"/><path d="M14.149 16.259a5.825 5.825 0 01-1.125.862 3.154 3.154 0 00.332-1.412 3.211 3.211 0 00-.4-1.516l-.235-.447-.453.231a.82.82 0 01-.764-.053.8.8 0 01-.377-.657v-.383A2.981 2.981 0 0010.474 11l-.412-.51-2.526 3.136a3.236 3.236 0 00-.761 2.035 3.154 3.154 0 00.326 1.439 5.782 5.782 0 01-1.141-.894 5.591 5.591 0 01-1.669-4.064 5.667 5.667 0 011.384-3.535l4.363-5.5a5.178 5.178 0 01.763 2.693v.87a3.5 3.5 0 003.47 3.469 3.444 3.444 0 001.117-.168 5.706 5.706 0 01.469 2.258 5.616 5.616 0 01-1.692 4.029z" fill="#ff7157" fill-rule="evenodd"/></svg>