<svg width="26" height="30" xmlns="http://www.w3.org/2000/svg"><g fill="none"><path d="M.4 29.348c.206-4.782 4.16-8.609 8.991-8.609h6.261c4.832 0 8.787 3.827 8.992 8.609H.4z" fill="#CBEAFF"/><path d="M15.652 21.13c4.484 0 8.177 3.445 8.574 7.827H.818c.397-4.382 4.09-7.827 8.573-7.827h6.261m0-.782h-6.26A9.392 9.392 0 000 29.739h25.043a9.392 9.392 0 00-9.39-9.391z" fill="#5AA5D8"/><path d="M12.522 23.087c-2.52 0-3.373-1.644-3.522-1.985v-4.276h7.043v4.276c-.147.337-.999 1.985-3.521 1.985z" fill="#EAD8B5"/><path d="M15.652 17.217v3.8c-.188.382-.987 1.679-3.13 1.679-2.137 0-2.94-1.297-3.13-1.68v-3.799h6.26m.783-.782H8.609v4.744s.834 2.3 3.913 2.3c3.079 0 3.913-2.3 3.913-2.3v-4.744z" fill="#D3C29F"/><path d="M18.112 14.254a1.846 1.846 0 01-1.844-1.844c0-1.017.827-1.845 1.844-1.845 1.536 0 1.845.421 1.845 1.1 0 1.106-.912 2.59-1.845 2.59zm-11.18 0c-.933 0-1.845-1.483-1.845-2.59 0-.679.31-1.1 1.845-1.1a1.846 1.846 0 010 3.69z" fill="#FFEBC3"/><path d="M18.112 10.957c1.453 0 1.453.376 1.453.708 0 .966-.814 2.199-1.453 2.199a1.455 1.455 0 010-2.907m-11.18 0a1.454 1.454 0 010 2.906c-.639 0-1.454-1.232-1.454-2.199 0-.331 0-.707 1.454-.707m11.18-.783a2.236 2.236 0 100 4.472c1.235 0 2.236-1.747 2.236-2.982 0-1.234-1.001-1.49-2.236-1.49zm-11.18 0c-1.235 0-2.236.256-2.236 1.49 0 1.236 1 2.983 2.236 2.983a2.236 2.236 0 100-4.473z" fill="#D3C29F"/><path d="M12.522 19.957c-.473 0-.917-.171-1.285-.494l-.072-.062-.09-.024a5.858 5.858 0 01-4.423-5.681V6.419a2.595 2.595 0 012.592-2.593H15.8a2.596 2.596 0 012.59 2.594v7.277a5.858 5.858 0 01-4.422 5.681l-.091.024-.071.062a1.928 1.928 0 01-1.285.494z" fill="#FFEBC3"/><path d="M15.799 4.217c1.213 0 2.201.988 2.201 2.202v7.277a5.469 5.469 0 01-4.128 5.303l-.183.046-.141.124c-.206.181-.55.396-1.026.396s-.82-.215-1.026-.396l-.142-.124-.182-.046a5.469 5.469 0 01-4.129-5.303V6.419c0-1.214.988-2.202 2.202-2.202h6.554m0-.782H9.244a2.984 2.984 0 00-2.983 2.984v7.277a6.257 6.257 0 004.718 6.061c.413.363.95.59 1.543.59a2.33 2.33 0 001.542-.59 6.257 6.257 0 004.719-6.061V6.419a2.984 2.984 0 00-2.984-2.984z" fill="#D3C29F"/><path d="M18.391 12.913v-2.74c0-2.845-2.373-4.368-2.475-4.431l-.312-.196-.215.3c-.066.092-1.658 2.26-5.098 2.26-.9 0-3.639 0-3.639 2.85v1.957h-.14c-.341-.768-1.425-3.39-1.425-5.625C5.087 3.163 7.917.39 12.13.39c3.005 0 3.907 2.023 3.944 2.11l.103.237.258.001c1.308 0 3.522.91 3.522 4.316 0 2.053-1.102 5.003-1.439 5.858h-.127z" fill="#A6714E"/><path d="M12.13.783c2.726 0 3.552 1.797 3.582 1.866l.202.481h.52c1.445 0 3.131 1.028 3.131 3.925 0 1.202-.397 2.738-.782 3.947v-.828c0-3.06-2.55-4.695-2.659-4.764l-.627-.393-.428.604c-.015.02-1.519 2.092-4.778 2.092-2.674.001-4.03 1.092-4.03 3.244v.245c-.384-1.113-.783-2.586-.783-3.915 0-3.89 2.674-6.504 6.652-6.504m0-.783C7.576 0 4.696 3.116 4.696 7.287c0 2.763 1.565 6.017 1.565 6.017h.782v-2.347c0-2.088 1.584-2.46 3.248-2.46 3.702 0 5.418-2.424 5.418-2.424S18 7.513 18 10.173v3.131h.783s1.565-3.731 1.565-6.249c0-3.535-2.252-4.707-3.913-4.707 0 0-.98-2.348-4.305-2.348z" fill="#7A4F34"/></g></svg>