<svg width="40" height="40" xmlns="http://www.w3.org/2000/svg"><g fill="none" fill-rule="evenodd"><path d="M0 0h40v40H0z"/><path d="M20 3.333C10.8 3.333 3.333 10.8 3.333 20c0 9.2 7.467 16.667 16.667 16.667 9.2 0 16.667-7.467 16.667-16.667C36.667 10.8 29.2 3.333 20 3.333zm1.667 28.334h-3.334v-3.334h3.334v3.334zm3.45-12.917l-1.5 1.533c-1.2 1.217-1.95 2.217-1.95 4.717h-3.334v-.833c0-1.834.75-3.5 1.95-4.717l2.067-2.1c.617-.6.983-1.433.983-2.35 0-1.833-1.5-3.333-3.333-3.333A3.343 3.343 0 0016.667 15h-3.334A6.665 6.665 0 0120 8.333 6.665 6.665 0 0126.667 15c0 1.467-.6 2.8-1.55 3.75z" fill="#6CAD84" fill-rule="nonzero"/></g></svg>