<svg xmlns="http://www.w3.org/2000/svg" xmlns:xlink="http://www.w3.org/1999/xlink" width="40" height="57.665"><defs><linearGradient id="b" x1=".499" x2=".499" y2=".999" gradientUnits="objectBoundingBox"><stop offset="0" stop-color="#e90000"/><stop offset="1" stop-color="#ba0000"/></linearGradient><linearGradient id="a" x1=".505" y1=".013" x2=".505" y2="1" gradientUnits="objectBoundingBox"><stop offset="0" stop-color="#333"/><stop offset="1"/></linearGradient><linearGradient id="c" x1=".506" y1=".013" x2=".506" y2="1" xlink:href="#a"/><linearGradient id="d" x1=".5" y1="-.002" x2=".5" y2=".998" xlink:href="#a"/><linearGradient id="e" x1=".498" y1=".005" x2=".498" y2=".998" xlink:href="#a"/></defs><path data-name="Path 6" d="M358.065 34.8h-33.93a3.039 3.039 0 00-3.035 3.035v51.6a3.039 3.039 0 003.035 3.035h33.93a3.039 3.039 0 003.035-3.04v-51.6a3.09 3.09 0 00-3.035-3.03z" transform="translate(-321.1 -34.8)" fill="url(#b)"/><path data-name="Path 7" d="M28.677 25.837v-3.619l1.945-.856 1.6-1.051 1.206-1.634.428-1.751-.233-1.673-.272-1.751-.739-1.206-1.012-1.051-1.673-.739-1.868-.623-2.451.389-1.167-1.479-2.763-.778-2.1-.428-2.023.117-2.257.856-1.673.739-1.4 1.128-1.868-.272-2.218.506-1.868 1.206-1.128 2.374-.389 2.49.973 2.724 1.868 1.868 1.868.817v3.7l.078.817.039 13.268-1.712 1.907-.739 1.167.272 2.023 1.089 1.167 1.09.778.039 1.946 1.868.7 3.658.428h2.763l2.412-.428 1.6-1.4.9-2.179 2.023.934 2.568.078 2.763-.856 2.529-1.907.856-2.14.117-4.4-.778-4.669-2.3-.428-1.44-1.946-.467-2.335-.117-1.712z" fill="#fff"/><circle data-name="Ellipse 1" cx="1.167" cy="1.167" r="1.167" transform="translate(19.299 33.813)" fill="#ee3338"/><circle data-name="Ellipse 2" cx="1.167" cy="1.167" r="1.167" transform="translate(11.634 33.813)" fill="#ee3338"/><path data-name="Path 8" d="M349.9 117.6a1.915 1.915 0 003.191 0 5.069 5.069 0 01-1.6.272 5.488 5.488 0 01-1.591-.272z" transform="translate(-338.694 -85.382)" fill="url(#a)"/><path data-name="Path 9" d="M369.6 117.6a1.915 1.915 0 003.191 0 5.069 5.069 0 01-1.6.272 5.488 5.488 0 01-1.591-.272z" transform="translate(-350.728 -85.382)" fill="url(#c)"/><path data-name="Path 10" d="M360.777 79.114l-.156-.428-.467-.039c-2.1-.156-3.23-1.128-3.346-5.875v-.545h-.039V71.1h.039v-2.14a6.774 6.774 0 00-1.634-13.346 7.811 7.811 0 00-1.634.195 10.364 10.364 0 00-13.658-.078v.039l-.078.078a7.81 7.81 0 00-1.634-.195A6.774 6.774 0 00336.536 69v5.33a7.841 7.841 0 01-.895-.272l-.467 1.44a11.371 11.371 0 001.362.389v7.938a3.853 3.853 0 01-.661-.428l-.934 1.167a7.16 7.16 0 001.6.934v.467a4.486 4.486 0 00-2.529 4.163 3.828 3.828 0 002.529 3.619v1.479l.156.195c.117.117 1.012 1.284 3.541 1.284h5.525a5.584 5.584 0 003.735-1.362 4.6 4.6 0 001.245-2.257 3.839 3.839 0 002.412.895h.272a8.68 8.68 0 002.1-.233 7.373 7.373 0 005.136-3.152c2.837-4.439.231-11.209.114-11.482zm-7.588-1.362c.7 2.49 2.179 4.086 4.2 4.591.428 1.362 1.751 5.875 0 8.366a2.038 2.038 0 01-.389.428 9.61 9.61 0 00.194-4.319 15.418 15.418 0 00-.739-3.191l-.155-.427-.428-.078c-3.7-.661-4.319-7.626-4.241-10.428l1.051.117a16.763 16.763 0 00.508 4.942zm-6.42-6.77a39.863 39.863 0 00-8.755.856v-1.167a43.058 43.058 0 0117.276-.039V71.8a38.825 38.825 0 00-8.52-.818zm-13.891-8.677a5.3 5.3 0 015.292-5.292 5.8 5.8 0 01.817.078 6.675 6.675 0 00-.506 4.319l1.479-.311a5.371 5.371 0 011.051-4.436 9.085 9.085 0 015.642-2.023 9.669 9.669 0 015.409 1.79 4.806 4.806 0 00-1.751 2.218 4.619 4.619 0 00.039 3.152 4.733 4.733 0 001.712 2.179l.817-1.245a3.018 3.018 0 01-1.167-1.44 2.8 2.8 0 010-2.1 3.435 3.435 0 011.829-1.868 5.53 5.53 0 011.634-.272 5.279 5.279 0 011.479 10.35l.039-.856a43.477 43.477 0 00-4.9-.584c-1.362-.078-2.8-.156-4.241-.156v1.518c1.4 0 2.8.039 4.125.156 1.245.078 2.49.195 3.619.35v1.246a38.826 38.826 0 00-8.521-.817 40.377 40.377 0 00-8.755.856v-1.481h-.039a12.658 12.658 0 008.249-3.969l-1.089-1.051a10.982 10.982 0 01-8.444 3.541l-.039 1.245a5.36 5.36 0 01-3.779-5.097zm2.646 27.7a3.02 3.02 0 011.012-2.374v4.319a2.434 2.434 0 01-1.011-1.941zm12.876 4.129a3.875 3.875 0 01-1.4.778 10.294 10.294 0 00.467-3.463v-3.735a6.461 6.461 0 01-1.517.584v3.191c.039 1.128-.156 2.918-.7 3.5a.3.3 0 01-.233.117h-.817v-6.459a4.961 4.961 0 01-.778.039 4.708 4.708 0 01-.739-.039v6.459h-1.751v-6.77a8.78 8.78 0 01-1.517-.584v7.315a3.4 3.4 0 01-1.44-.506v-8.715a8.51 8.51 0 001.4.117 7.154 7.154 0 004.047-1.167 7.339 7.339 0 004.008 1.167 7.176 7.176 0 004.514-1.518l-.934-1.167a6.013 6.013 0 01-7.121 0l-.467-.389-.467.389a5.806 5.806 0 01-3.58 1.167 5.729 5.729 0 01-1.4-.156v-8.21a11.319 11.319 0 001.206.156 1.162 1.162 0 102.14.623 1.4 1.4 0 00-.078-.428 2.393 2.393 0 01.545.039.517.517 0 01.272.117 1.777 1.777 0 01.389 1.323v4.358h2.957v-1.518h-1.44v-2.84a3.09 3.09 0 00-.895-2.451 2.2 2.2 0 00-1.44-.506 34.022 34.022 0 01-3.658-.389v-1.207a38.857 38.857 0 018.755-.895q1.751 0 3.385.117c0 .195 0 .817.039 1.673a26.647 26.647 0 01-5.175.739l.078 1.518c.623-.039 1.206-.078 1.79-.117a1.267 1.267 0 00-.156.545 1.167 1.167 0 102.335 0 1.256 1.256 0 00-.311-.817c.545-.078 1.051-.195 1.556-.311.35 3.191 1.44 7.782 4.9 8.755.506 1.673 1.206 5.292 0 6.926a1.919 1.919 0 01-1.012.739c1.012-2.023.195-5.72.117-6.187l-.117-.584h-.584a4.317 4.317 0 00-4.241 4.241v.661c0 .428.039.934.039 1.284a3.557 3.557 0 01-.971 2.491zm3.619-2.062a2.267 2.267 0 01-1.206-1.868v-.35A2.9 2.9 0 01353 87.013c.272 1.6.428 3.891-.272 4.747a.845.845 0 01-.705.312zm7.549-2.685c.778-3.5-.778-7.743-.856-7.938l-.156-.389-.428-.078c-1.712-.272-2.879-1.518-3.463-3.619a13.93 13.93 0 01-.428-4.241c.389.078.778.156 1.128.233.078 2.412.428 6.148 4.2 6.732.473 1.401 1.835 6.148.006 9.3z" transform="translate(-327.392 -46.04)" fill="url(#d)"/><path data-name="Path 11" d="M356.1 137.2a2.875 2.875 0 005.292 0 6.7 6.7 0 01-5.292 0z" transform="translate(-342.481 -97.356)" fill="url(#e)"/></svg>