<svg width="44" height="44" xmlns="http://www.w3.org/2000/svg"><g fill="none"><path d="M43.416 16.6a1.286 1.286 0 00-1.225-.107L21.32 25.585 1.926 16.507a1.287 1.287 0 00-1.242.084c-.372.24-.598.654-.598 1.1v24.965a1.3 1.3 0 001.295 1.304h41.324A1.3 1.3 0 0044 42.656V17.69c0-.44-.22-.85-.584-1.09z" fill="#3186C0"/><path d="M43.416 16.6a1.286 1.286 0 00-1.225-.107L21.32 25.585l-.01-.005v18.38h21.395A1.3 1.3 0 0044 42.656V17.69c0-.44-.22-.85-.584-1.09zM5.766 6.355a1.293 1.293 0 00-1.449.78L.185 17.191a1.309 1.309 0 00.65 1.683l4.133 1.934a1.285 1.285 0 001.242-.083c.372-.24.598-.654.598-1.1V7.635c0-.623-.437-1.159-1.042-1.28z" fill="#5AA5D8"/><path d="M43.901 17.191L39.77 7.135a1.293 1.293 0 00-1.45-.78 1.302 1.302 0 00-1.041 1.28V19.49c0 .44.22.849.583 1.09a1.288 1.288 0 001.225.107l4.132-1.8c.65-.282.954-1.038.683-1.697z" fill="#5AA5D8"/><path d="M20.907 28.2a1.286 1.286 0 001.06.011l17.9-7.863v-19A1.3 1.3 0 0038.572.043H5.513a1.3 1.3 0 00-1.295 1.305v19.11l16.69 7.742z" fill="#F4F4F4"/><path d="M38.572.043H21.31v28.27a1.291 1.291 0 00.657-.102l17.901-7.863v-19A1.3 1.3 0 0038.572.043z" fill="#E2E2E2"/><path d="M32.569 15.74c-.365-.5-.534-1.113-.534-1.731v-.01c0-5.508-4.493-9.972-10.037-9.972-1.213 0-2.375.214-3.45.606a2.978 2.978 0 01-1.817.086 4.945 4.945 0 00-1.674-.17c-2.45.167-4.423 2.162-4.55 4.6a4.826 4.826 0 00.92 3.107c.365.501.534 1.113.534 1.731v.011c0 5.507 4.494 9.972 10.037 9.972 1.213 0 2.375-.215 3.45-.607a2.978 2.978 0 011.817-.085c.528.147 1.09.21 1.674.17 2.45-.168 4.423-2.163 4.55-4.6a4.826 4.826 0 00-.92-3.108zm-10.203-3.53c2.023.479 5.082 1.201 5.082 4.548 0 1.648-.817 2.906-2.302 3.541-1.059.453-2.257.514-3.29.514-3.174 0-5.179-2.451-5.262-2.556a1.493 1.493 0 01.239-2.108 1.516 1.516 0 012.121.238c.005.005 1.204 1.373 2.902 1.427 2.045.064 2.512-.54 2.572-1.056.074-.63-.49-1.093-2.761-1.63-1.925-.454-4.835-1.141-4.835-4.224 0-.96.393-4.091 5.45-4.091 3.193 0 5.078 2.497 5.156 2.603.494.668.35 1.607-.322 2.097a1.516 1.516 0 01-2.104-.31c-.035-.046-1.114-1.238-2.73-1.39-1.223-.116-2.43.322-2.43.97 0 .685.347.915 2.514 1.427z" fill="#5AA5D8"/></g></svg>