<svg width="41" height="30" xmlns="http://www.w3.org/2000/svg"><g fill="none" fill-rule="evenodd"><path d="M38.548 6.258h-17.16c-1.355 0-2.453 1.118-2.453 2.498v14.986c0 1.379 1.098 2.497 2.452 2.497h7.39c-.034.363-.006 3.748.004 3.758.172.06 3.509-3.256 4.033-3.758h5.734c1.354 0 2.452-1.118 2.452-2.497V8.756c0-1.38-1.098-2.498-2.452-2.498z" fill="#CCC"/><path d="M23.29.024h-1.8C21.41.02 21.335 0 21.254 0H4.48c-.08 0-.156.02-.236.024H2.452C1.098.024 0 1.142 0 2.522v17.483c0 1.379 1.098 2.497 2.452 2.497h6.895c.128.102 3.914 3.899 4.098 3.837.01-.01.04-3.78-.001-3.837h9.846c1.354 0 2.452-1.118 2.452-2.497V2.522c0-1.38-1.098-2.498-2.452-2.498z" fill="#6CAD84"/><path d="M19 10.014c-1.016 0-1.839.84-1.839 1.874 0 1.034.823 1.873 1.839 1.873 1.015 0 1.839-.84 1.839-1.873 0-1.034-.824-1.874-1.839-1.874zm-6.129 0c-1.016 0-1.839.84-1.839 1.874 0 1.034.823 1.873 1.839 1.873 1.015 0 1.839-.84 1.839-1.873 0-1.034-.824-1.874-1.839-1.874zm-6.13 0c-1.015 0-1.838.84-1.838 1.874 0 1.034.823 1.873 1.839 1.873 1.015 0 1.839-.84 1.839-1.873 0-1.034-.824-1.874-1.84-1.874z" fill="#FFF"/></g></svg>