<svg width="26" height="22" xmlns="http://www.w3.org/2000/svg"><g fill="none"><path d="M25.109 18.365L14.969 1.483A2.368 2.368 0 0012.914.335c-.86 0-1.626.43-2.056 1.148L.717 18.365c-.43.765-.478 1.626-.047 2.392.43.765 1.195 1.195 2.104 1.195h20.23c.861 0 1.674-.43 2.105-1.195.43-.718.43-1.627 0-2.392z" fill="#FC6"/><path d="M12.913 13.87a1.41 1.41 0 01-1.435-1.435V7.652a1.41 1.41 0 011.435-1.435 1.41 1.41 0 011.435 1.435v4.783a1.41 1.41 0 01-1.435 1.435zm0 4.782c-.383 0-.765-.143-1.004-.43-.048-.048-.144-.144-.192-.24-.047-.095-.095-.143-.143-.239-.048-.095-.048-.19-.096-.286 0-.096-.048-.192-.048-.287 0-.383.144-.766.43-1.005.527-.526 1.483-.526 2.01 0 .287.287.43.622.43 1.005 0 .095 0 .19-.048.287 0 .095-.048.19-.095.286a1.045 1.045 0 01-.144.24.84.84 0 01-.191.239c-.144.287-.526.43-.909.43z" fill="#28282C"/></g></svg>