<svg width="99" height="97" xmlns="http://www.w3.org/2000/svg"><g fill="none" fill-rule="evenodd"><path d="M20.25 23.004v69.992c0 1.92 1.327 2.903 3.16 2.34l22.944-7.06c2.883-.888 7.411-.887 10.292 0l22.944 7.06c1.838.565 3.16-.414 3.16-2.34V23.004a3.75 3.75 0 00-3.743-3.754H23.993a3.75 3.75 0 00-3.743 3.754z" stroke="#E2E4E8" stroke-width="2.5" fill="#FFF"/><path d="M51.502 35.5c.515 0 .987.307 1.215.79l4.357 9.25c.197.418.58.709 1.021.776l9.745 1.483c.512.077.934.452 1.094.965a1.469 1.469 0 01-.343 1.455l-7.051 7.2c-.32.325-.465.795-.39 1.255l1.664 10.167a1.453 1.453 0 01-.54 1.389 1.31 1.31 0 01-1.427.108l-8.717-4.8a1.3 1.3 0 00-1.26 0l-8.718 4.8c-.456.25-1.01.209-1.427-.108a1.452 1.452 0 01-.539-1.39l1.664-10.166a1.46 1.46 0 00-.39-1.255l-7.05-7.2a1.466 1.466 0 01-.344-1.455c.16-.513.583-.888 1.094-.965l9.747-1.483a1.361 1.361 0 001.02-.777l4.36-9.248c.229-.484.7-.791 1.215-.791z" fill="#FC6"/><path fill="#FFD34D" d="M9.86 20.743H6.39V17.28H4.465v3.463H.996v1.919h3.47v3.463h1.923v-3.463h3.47z"/><path d="M15.774 14.662a2.62 2.62 0 01-2.623 2.618 2.62 2.62 0 01-2.624-2.618 2.62 2.62 0 012.624-2.617 2.62 2.62 0 012.623 2.617" fill="#F2BA49"/><path d="M49.857 3.203a3.207 3.207 0 01-3.21 3.204 3.207 3.207 0 01-3.21-3.204A3.207 3.207 0 0146.647 0a3.207 3.207 0 013.21 3.203" fill="#FFD34D"/><path d="M57.048 8.457c0 1.132-.92 2.05-2.054 2.05a2.053 2.053 0 01-2.055-2.05c0-1.132.92-2.05 2.055-2.05 1.134 0 2.054.918 2.054 2.05" fill="#F2BA49"/><path d="M91.337 14.164c0 1.195-.97 2.163-2.168 2.163A2.167 2.167 0 0187 14.164c0-1.195.972-2.164 2.169-2.164s2.168.969 2.168 2.164M98.9 46.766h-2.997v-2.99h-1.66v2.99h-2.998v1.657h2.998v2.99h1.66v-2.99H98.9z" fill="#FFD34D"/><path d="M4.62 47.594c0 1.133-.92 2.05-2.055 2.05a2.053 2.053 0 01-2.054-2.05c0-1.132.92-2.05 2.054-2.05 1.135 0 2.055.918 2.055 2.05" fill="#F2BA49"/></g></svg>