<svg width="56" height="56" xmlns="http://www.w3.org/2000/svg"><g fill="none" fill-rule="evenodd"><path d="M24.111 11.234L6.889 28.448 0 55.991l27.555-6.886 17.223-17.214z" fill="#FFF" fill-rule="nonzero"/><path d="M2.915 44.336L0 55.991l11.66-2.915a12.015 12.015 0 00-8.745-8.74z" fill="#666" fill-rule="nonzero"/><path d="M28.023 48.638l-.467.467s.236-.168.467-.467zm15.033-25.354L32.722 12.955l-5.167-5.163L7.357 27.98c.575-.444 1.642-.866 2.976.468 2.028 2.028 1.723 5.165 1.723 5.165s4.86 1.415 6.888 3.443c2.028 2.027 3.445 6.884 3.445 6.884s3.138-.305 5.166 1.722c1.335 1.335.913 2.4.467 2.976l20.2-20.19-5.166-5.164zM6.89 28.448l.468-.468c-.3.231-.468.468-.468.468z" fill="#FC6"/><path d="M50.824 5.19c-5.718-5.713-15.106-5.83-20.704 0-.843.88-2.566 2.602-2.566 2.602l20.668 20.656s1.722-1.72 2.602-2.564c5.834-5.594 5.715-14.979-.001-20.693z" fill="#ED7161" fill-rule="nonzero"/><path d="M49.563 26.64L29.365 6.45a1.725 1.725 0 00-2.436 0l-.713.713a1.722 1.722 0 000 2.434l20.198 20.189a1.722 1.722 0 002.435 0l.714-.713a1.72 1.72 0 000-2.434z" fill="#E6E6E6" fill-rule="nonzero"/></g></svg>