<svg width="99" height="99" xmlns="http://www.w3.org/2000/svg"><g fill="none" fill-rule="evenodd"><path d="M92.873.002L92.856 0H5.713l-.017.002C2.55.012 0 2.494 0 5.559v87.677c0 3.168 2.558 5.74 5.713 5.74h87.143c3.155 0 5.715-2.572 5.715-5.74V5.56c0-3.065-2.55-5.547-5.698-5.557z" fill="#E3E4E8"/><path d="M89.33 18.552H6.17v71.154c0 1.71 1.38 3.096 3.08 3.096h80.08c1.7 0 3.08-1.386 3.08-3.096V18.552h-3.08z" fill="#FFF"/><path d="M49.29 37.114c-6.806 0-12.32 5.54-12.32 12.375a3.088 3.088 0 003.08 3.094c1.7 0 3.08-1.386 3.08-3.094 0-3.417 2.757-6.187 6.16-6.187 3.401 0 6.16 2.77 6.16 6.187 0 6.415-9.24 4.449-9.24 15.469h6.16c0-5.897 9.24-5.154 9.24-15.469 0-6.835-5.517-12.375-12.32-12.375zm0 30.938a3.086 3.086 0 00-3.08 3.095 3.086 3.086 0 003.08 3.092c1.7 0 3.08-1.384 3.08-3.092 0-1.71-1.38-3.095-3.08-3.095z" fill="#6CAD84"/><path d="M70.85 6.178l-.016.002H9.249c-1.7 0-3.08 1.386-3.08 3.094a3.088 3.088 0 003.08 3.093h61.6c1.7 0 3.08-1.386 3.08-3.093 0-1.71-1.38-3.096-3.08-3.096zm9.24 0c-1.7 0-3.08 1.386-3.08 3.096a3.087 3.087 0 003.08 3.092c1.7 0 3.08-1.386 3.08-3.092 0-1.71-1.38-3.096-3.08-3.096zm9.24 0c-1.7 0-3.08 1.386-3.08 3.096a3.087 3.087 0 003.08 3.092c1.7 0 3.08-1.386 3.08-3.092 0-1.71-1.38-3.096-3.08-3.096z" fill="#FFF"/></g></svg>