<svg data-name="illustration 2" xmlns="http://www.w3.org/2000/svg" width="113.561" height="153.854"><g data-name="Group 28"><g data-name="Group 21"><g data-name="Group 20"><g data-name="Group 19" transform="translate(0 94.244)"><path data-name="Rectangle 19" fill="#f0f0f0" d="M112.334 56.655h-9.745V2.58h9.745z"/><path data-name="Rectangle 20" fill="#f0f0f0" d="M110.463 59.61H3.097v-2.956h107.366z"/><path data-name="Rectangle 21" fill="#f5f5f5" d="M1.226 2.579h101.363v54.075H1.226z"/><path data-name="Rectangle 22" fill="#f0f0f0" d="M113.561 2.579h-9.96V0h9.96z"/><path data-name="Rectangle 23" fill="#fafafa" d="M0 0h103.6v2.579H0z"/><path data-name="Path 348" d="M99.085 22.092H4.73v-14.1h94.355zm-93.7-.655h93.046V8.648H5.385z" fill="#e0e0e0"/><path data-name="Path 349" d="M99.085 51.241H4.73V26.004h94.355zm-93.7-.655h93.046V26.659H5.385z" fill="#e0e0e0"/><rect data-name="Rectangle 24" width="68.93" height="2.098" rx="1.049" transform="rotate(180 43.187 5.21)" fill="#e0e0e0"/><rect data-name="Rectangle 25" width="68.93" height="2.098" rx="1.049" transform="rotate(180 43.187 14.215)" fill="#e0e0e0"/></g></g></g><g data-name="Group 26"><path data-name="Path 356" d="M101.855 67.108H64.739l-7.221 25.714h37.116z" fill="#e6e6e6"/><path data-name="Path 357" d="M94.634 92.825l-.15 1.421H57.366l.15-1.421z" fill="#e6e6e6"/><path data-name="Path 358" d="M100.712 67.108H63.596l-7.221 25.714h37.116z" fill="#f0f0f0"/><path data-name="Path 359" d="M93.074 91.147l5.971-22.275c.085-.318-.074-.589-.346-.589H64.576a.645.645 0 00-.562.5l-5.967 22.275c-.085.318.074.589.346.589h34.123a.645.645 0 00.558-.5z" fill="#fff"/><path data-name="Path 360" d="M83.82 92.825l-.15 1.421H42.798l.15-1.421z" fill="#f0f0f0"/></g><g data-name="Group 27"><path data-name="Rectangle 37" fill="#f0f0f0" d="M19.493 0h90.048v55.58H19.493z"/><path data-name="Rectangle 38" fill="#fff" d="M22.049 2.556h84.936v50.468H22.049z"/><path data-name="Rectangle 39" fill="#e6e6e6" d="M110.464 55.58h-.923V0h.923z"/></g></g><g data-name="Group 32"><g data-name="Group 30"><path data-name="Path 362" d="M36.9 26.31a9.91 9.91 0 013.491-4.3 12.873 12.873 0 016.163-2.328 15.357 15.357 0 017.606 1.113 15.98 15.98 0 015.99 3.939 11.385 11.385 0 012.911 5.435 9.789 9.789 0 01-.468 5.709 8.474 8.474 0 01-2.378 3.452 12.487 12.487 0 01-3.2 1.993q-1.68.709-5.922 2.276a19.144 19.144 0 00-1.938.842 6.067 6.067 0 00-1.21.79 5.759 5.759 0 00-.788.839q-.336.442-1.109 1.581a3.051 3.051 0 01-4.08 1.456 3.333 3.333 0 01-1.89-1.747 3.657 3.657 0 01.111-2.932 9.72 9.72 0 014.971-5.509 43.467 43.467 0 014.069-1.651q2.2-.784 3.209-1.225a7.818 7.818 0 001.863-1.137 4.206 4.206 0 001.262-1.742 4.846 4.846 0 00-.16-4.041 5.954 5.954 0 00-3.361-2.946 5.821 5.821 0 00-4.689-.214 12.126 12.126 0 00-3.888 3.284q-2 2.54-4.425 1.585a3.473 3.473 0 01-2.012-1.958 3.308 3.308 0 01-.128-2.564zm1.424 32.855a4.31 4.31 0 01-2.319-2.078 3.8 3.8 0 01-.049-3.275 3.905 3.905 0 012.188-2.261 4.075 4.075 0 013.186-.01 4.026 4.026 0 012.3 5.3 3.828 3.828 0 01-2.254 2.353 4.164 4.164 0 01-3.052-.024z" fill="#aeb0b5" opacity=".5"/></g><g data-name="Group 31"><path data-name="Path 363" d="M71.869 23.248a4.61 4.61 0 01-.723-2.473 5.991 5.991 0 01.736-2.977 7.151 7.151 0 012.437-2.62 7.439 7.439 0 013.093-1.254 5.3 5.3 0 012.852.321 4.556 4.556 0 012.064 1.688 3.943 3.943 0 01.695 1.824 5.823 5.823 0 01-.083 1.754q-.172.83-.692 2.871a8.878 8.878 0 00-.19.965 2.832 2.832 0 00-.017.672 2.693 2.693 0 00.113.523q.08.246.312.843a1.42 1.42 0 01-.52 1.948 1.552 1.552 0 01-1.169.262 1.7 1.7 0 01-1.094-.817 4.528 4.528 0 01-.8-3.361 20.2 20.2 0 01.443-2q.279-1.048.378-1.553a3.628 3.628 0 00.057-1.014 1.959 1.959 0 00-.334-.944 2.255 2.255 0 00-1.591-1.006 2.772 2.772 0 00-2.018.509 2.708 2.708 0 00-1.321 1.74 5.638 5.638 0 00.231 2.358 1.692 1.692 0 01-.562 2.115 1.617 1.617 0 01-1.282.254 1.543 1.543 0 01-1.015-.628zm12.967 8.138a2.009 2.009 0 01-1.409.339 1.768 1.768 0 01-1.268-.847 1.815 1.815 0 01-.288-1.436 1.9 1.9 0 01.838-1.224 1.875 1.875 0 012.639.519 1.781 1.781 0 01.306 1.485 1.937 1.937 0 01-.819 1.164z" fill="#aeb0b5" opacity=".1"/></g></g></svg>