<svg width="103" height="113" xmlns="http://www.w3.org/2000/svg"><g fill="none"><path d="M48.08 87.651c0 5.135-10.709 9.3-23.918 9.3-13.21 0-23.918-4.165-23.918-9.3v-9.3H48.08v9.3z" fill="#EDB937"/><path d="M24.162 70.654c13.21 0 23.917 3.806 23.917 8.498 0 4.693-10.708 8.497-23.917 8.497-13.21 0-23.918-3.805-23.918-8.497 0-4.693 10.708-8.498 23.918-8.498z" fill="#FAD24D"/><path d="M48.08 75.99c0 5.134-10.708 9.299-23.917 9.299-13.21 0-23.918-4.165-23.918-9.3v-9.3H48.08v9.3z" fill="#EDB937"/><path d="M24.163 58.992c13.209 0 23.917 3.805 23.917 8.498s-10.708 8.497-23.917 8.497c-13.21 0-23.918-3.805-23.918-8.497 0-4.693 10.709-8.498 23.918-8.498z" fill="#FAD24D"/><path d="M48.08 64.218c0 5.135-10.709 9.3-23.918 9.3-13.21 0-23.918-4.165-23.918-9.3v-9.3H48.08v9.3z" fill="#EDB937"/><path d="M24.162 47.222c13.21 0 23.917 3.805 23.917 8.497 0 4.693-10.708 8.498-23.917 8.498-13.21 0-23.918-3.806-23.918-8.498 0-4.693 10.708-8.497 23.918-8.497z" fill="#FAD24D"/><path d="M48.08 52.45c0 5.135-10.708 9.3-23.917 9.3-13.21 0-23.918-4.165-23.918-9.3v-9.3H48.08v9.3z" fill="#EDB937"/><path d="M24.163 35.452c13.209 0 23.917 3.805 23.917 8.498s-10.708 8.497-23.917 8.497c-13.21 0-23.918-3.805-23.918-8.497 0-4.693 10.708-8.498 23.918-8.498z" fill="#FAD24D"/><path d="M48.08 40.678c0 5.135-10.709 9.3-23.918 9.3-13.21 0-23.918-4.165-23.918-9.3v-9.3H48.08v9.3z" fill="#EDB937"/><path d="M24.162 23.681c13.21 0 23.917 3.806 23.917 8.498 0 4.693-10.708 8.498-23.917 8.498-13.21 0-23.918-3.806-23.918-8.498 0-4.693 10.708-8.498 23.918-8.498z" fill="#FAD24D"/><path d="M48.08 28.908c0 5.135-10.709 9.3-23.918 9.3-13.21 0-23.918-4.165-23.918-9.3v-9.3H48.08v9.3z" fill="#EDB937"/><path d="M24.162 11.912c13.21 0 23.917 3.805 23.917 8.498s-10.708 8.497-23.917 8.497c-13.21 0-23.918-3.805-23.918-8.497 0-4.693 10.708-8.498 23.918-8.498z" fill="#FAD24D"/><path d="M48.08 17.138c0 5.135-10.709 9.3-23.918 9.3-13.21 0-23.918-4.165-23.918-9.3v-9.3H48.08v9.3z" fill="#EDB937"/><path d="M24.163.14c13.209 0 23.917 3.806 23.917 8.5 0 4.693-10.708 8.498-23.917 8.498-13.21 0-23.918-3.806-23.918-8.498 0-4.694 10.708-8.5 23.918-8.5z" fill="#FAD24D"/><path d="M17.25 12.822a24.59 24.59 0 004.481.608c1.501.06 2.883-.008 4.158-.21 1.271-.2 2.33-.497 3.181-.893.68-.316 1.137-.652 1.382-1.007.234-.356.253-.714.05-1.072-.172-.34-.521-.658-1.042-.952-.515-.295-1.26-.672-2.232-1.121l4.658-2.163c.94.48 1.099.983.496 1.506-.509.445-.275.802.696 1.067.514.141 1.086.195 1.72.168.632-.028 1.136-.128 1.511-.303.336-.155.584-.36.746-.613.158-.252.208-.53.147-.828-.066-.387-.353-.738-.862-1.06-.508-.32-1.252-.644-2.225-.972l1.21-.562c.612-.284.606-.512-.026-.684-.622-.17-1.248-.11-1.875.181l-1.188.552c-2.175-.494-4.215-.7-6.117-.613-1.898.086-3.494.428-4.778 1.025-.986.458-1.514.908-1.588 1.35-.078.441.163.861.713 1.263.548.4 1.345.843 2.388 1.333L17.65 11.24c-.52-.246-.844-.487-.976-.72-.132-.233-.131-.453-.01-.66.13-.205.367-.486.716-.842.16-.165.17-.326.024-.48-.152-.158-.45-.296-.895-.417a5.802 5.802 0 00-1.809-.176c-.66.032-1.167.132-1.523.298-.485.225-.846.493-1.073.804-.226.306-.281.65-.177 1.025.11.374.443.752.994 1.133.55.382 1.355.753 2.41 1.112l-.013.007-.693.322c-.394.183-.29.449.23.591h.002c.521.142 1.27.109 1.663-.074l.729-.339v-.002zm8.516-5.353l4.289-1.993c-1.016-.139-1.908-.202-2.678-.187-.77.016-1.47.17-2.089.457-.587.273-.817.54-.684.798.132.26.518.567 1.162.924zM24.32 9.525l-4.906 2.279c1.146.202 2.215.272 3.215.21 1-.066 1.8-.236 2.407-.518.65-.302.888-.607.714-.916-.171-.308-.647-.66-1.43-1.054zm78.616 78.126c0 5.135-10.709 9.3-23.918 9.3-13.21 0-23.917-4.165-23.917-9.3v-9.3h47.835v9.3z" fill="#EDB937"/><path d="M79.018 70.654c13.21 0 23.918 3.806 23.918 8.498 0 4.693-10.709 8.497-23.918 8.497-13.21 0-23.917-3.805-23.917-8.497 0-4.693 10.708-8.498 23.917-8.498z" fill="#FAD24D"/><path d="M102.936 75.99c0 5.134-10.708 9.299-23.918 9.299-13.209 0-23.917-4.165-23.917-9.3v-9.3h47.835v9.3z" fill="#EDB937"/><path d="M79.018 58.992c13.21 0 23.918 3.805 23.918 8.498s-10.708 8.497-23.918 8.497c-13.209 0-23.917-3.805-23.917-8.497 0-4.693 10.708-8.498 23.917-8.498z" fill="#FAD24D"/><path d="M102.936 64.218c0 5.135-10.709 9.3-23.918 9.3-13.21 0-23.917-4.165-23.917-9.3v-9.3h47.835v9.3z" fill="#EDB937"/><path d="M79.018 47.222c13.21 0 23.918 3.805 23.918 8.497 0 4.693-10.709 8.498-23.918 8.498-13.21 0-23.917-3.806-23.917-8.498 0-4.693 10.708-8.497 23.917-8.497z" fill="#FAD24D"/><path d="M102.936 52.45c0 5.135-10.708 9.3-23.918 9.3-13.209 0-23.917-4.165-23.917-9.3v-9.3h47.835v9.3z" fill="#EDB937"/><path d="M79.018 35.453c13.21 0 23.918 3.805 23.918 8.498s-10.708 8.497-23.918 8.497c-13.209 0-23.917-3.805-23.917-8.497 0-4.693 10.709-8.498 23.917-8.498z" fill="#FAD24D"/><path d="M72.105 48.135c1.497.344 2.99.544 4.482.607 1.501.06 2.881-.008 4.156-.21 1.272-.2 2.33-.497 3.182-.892.68-.316 1.137-.651 1.382-1.007.235-.356.252-.714.05-1.07-.172-.341-.522-.66-1.042-.954-.514-.294-1.26-.671-2.232-1.12l4.657-2.165c.94.481 1.099.984.496 1.507-.51.445-.275.801.696 1.067.514.14 1.086.194 1.72.167.633-.028 1.137-.128 1.512-.303.335-.156.583-.36.745-.614.158-.252.209-.53.147-.828-.066-.387-.353-.738-.862-1.06-.508-.32-1.253-.644-2.225-.971l1.21-.563c.612-.283.605-.511-.026-.684-.623-.17-1.248-.11-1.875.182l-1.189.552c-2.174-.495-4.213-.7-6.116-.613-1.898.085-3.494.427-4.778 1.024-.986.458-1.515.908-1.589 1.35-.078.44.164.862.713 1.263.549.4 1.346.843 2.39 1.333l-5.206 2.418c-.52-.246-.843-.487-.975-.72-.132-.233-.13-.453-.01-.66.13-.204.366-.487.716-.841.158-.165.17-.326.023-.482-.152-.156-.45-.294-.895-.415a5.771 5.771 0 00-1.808-.176c-.662.031-1.168.133-1.524.298-.484.226-.845.493-1.072.804-.227.307-.282.65-.177 1.024.11.374.443.752.995 1.134.55.382 1.353.752 2.41 1.111l-.014.007-.693.321c-.394.184-.29.45.23.591h.002c.521.143 1.268.11 1.663-.074l.73-.34h.001v.002zm8.516-5.353l4.288-1.993c-1.016-.138-1.907-.202-2.678-.187-.77.017-1.469.17-2.088.457-.588.274-.818.54-.685.799.133.259.52.567 1.163.924zm-1.445 2.057l-4.906 2.278c1.145.203 2.215.272 3.215.21 1-.066 1.8-.236 2.407-.518.65-.301.888-.606.713-.916-.171-.308-.646-.66-1.429-1.054zm-8.59 58.759c0 5.135-10.709 9.3-23.918 9.3s-23.917-4.165-23.917-9.3v-9.3h47.835v9.3z" fill="#EDB937"/><path d="M46.667 86.6c13.21 0 23.918 3.806 23.918 8.498 0 4.694-10.709 8.498-23.918 8.498S22.75 99.791 22.75 95.098c0-4.692 10.709-8.498 23.917-8.498z" fill="#FAD24D"/><path d="M39.755 99.282c1.497.344 2.99.544 4.482.607 1.5.06 2.881-.008 4.156-.21 1.272-.2 2.33-.497 3.182-.893.68-.315 1.136-.651 1.382-1.007.234-.355.252-.713.05-1.07-.172-.341-.522-.66-1.042-.953-.515-.295-1.26-.672-2.232-1.121l4.656-2.164c.94.48 1.1.984.496 1.506-.508.445-.275.802.697 1.068.514.14 1.086.194 1.72.167.632-.028 1.136-.128 1.512-.302.335-.156.583-.36.745-.614.157-.253.209-.53.146-.828-.065-.387-.352-.738-.861-1.06-.509-.32-1.253-.644-2.225-.971l1.21-.563c.611-.283.605-.511-.026-.684-.623-.17-1.248-.11-1.876.181l-1.188.552c-2.175-.494-4.213-.699-6.117-.612-1.897.085-3.493.427-4.777 1.024-.987.458-1.515.908-1.589 1.35-.078.441.164.862.713 1.263.548.4 1.345.843 2.389 1.333L40.153 97.7c-.52-.246-.843-.487-.975-.72-.132-.233-.131-.453-.01-.66.13-.205.366-.486.715-.842.16-.165.17-.326.024-.48-.153-.158-.45-.296-.895-.417a5.771 5.771 0 00-1.808-.176c-.662.032-1.169.132-1.524.298-.485.225-.846.493-1.073.804-.226.307-.282.65-.176 1.025.11.374.442.752.994 1.133.55.382 1.354.754 2.41 1.112l-.014.007-.692.322c-.395.183-.29.449.23.591h.001c.522.143 1.269.109 1.663-.074l.73-.339.002-.001zm8.516-5.354l4.288-1.992c-1.016-.14-1.907-.202-2.678-.187-.77.016-1.469.17-2.088.457-.587.273-.818.54-.685.798.133.26.52.568 1.163.924zm-1.445 2.057l-4.906 2.279c1.144.202 2.215.272 3.215.21 1-.066 1.798-.236 2.406-.519.65-.301.888-.606.713-.915-.17-.309-.647-.661-1.428-1.054v-.001z" fill="#EDB937"/></g></svg>