<svg width="70" height="65" xmlns="http://www.w3.org/2000/svg"><g fill="none" fill-rule="evenodd"><path d="M62.546 9.38h-25.71V7.525A1.846 1.846 0 0035 5.671c-1.015 0-1.836.83-1.836 1.854V9.38H7.454c-1.015 0-1.837.83-1.837 1.854v3.708c0 1.024.822 1.854 1.837 1.854h25.71v33.39a1.742 1.742 0 00-1.18.515L20.83 61.96a1.792 1.792 0 000 2.518 1.75 1.75 0 002.493 0l9.84-9.935v6.754c0 1.023.821 1.855 1.836 1.855a1.846 1.846 0 001.836-1.855v-6.753l9.839 9.934a1.75 1.75 0 002.493 0 1.792 1.792 0 000-2.518L38.015 50.7a1.744 1.744 0 00-1.179-.516V16.796h25.71c1.014 0 1.837-.83 1.837-1.854v-3.708a1.846 1.846 0 00-1.837-1.854z" fill="#AFB0B5"/><path d="M67.667.044H2.333C1.21.044.303 1.047.303 2.268v47.856c0 1.222.907 2.225 2.03 2.225H67.71c1.123 0 2.03-1.003 2.03-2.225V2.268c-.042-1.221-.95-2.224-2.073-2.224z" fill="#6CAD84"/><path fill="#FFF" d="M2.42 2.181h65.16v39.742H2.42z"/><path fill="#FF6C50" d="M29.383 12.133v19.934L44.074 22.1z"/><path fill="#396E51" d="M43.296 43.93v4.973l3.716-2.487z"/><path fill="#396E51" d="M46.667 43.93v4.973l3.673-2.487z"/><path fill="#396E51" d="M50.123 43.93h1.642v4.973h-1.642zm-23.419 4.973V43.93l-3.716 2.486z"/><path fill="#396E51" d="M23.333 48.903V43.93l-3.673 2.486z"/><path fill="#396E51" d="M18.191 43.93h1.642v4.973h-1.642zm14.951 0v4.973l3.716-2.487z"/></g></svg>