<svg width="16" height="16" xmlns="http://www.w3.org/2000/svg"><path d="M8 0c.236 0 .452.14.556.362l1.992 4.228c.09.19.265.324.467.354l4.455.678a.627.627 0 01.5.442.67.67 0 01-.157.665l-3.223 3.29a.669.669 0 00-.179.575l.761 4.648a.664.664 0 01-.247.634.599.599 0 01-.652.05L8.288 13.73a.594.594 0 00-.576 0l-3.985 2.195a.597.597 0 01-.653-.05.664.664 0 01-.246-.634l.76-4.648a.668.668 0 00-.178-.574L.187 6.729a.67.67 0 01-.157-.665.628.628 0 01.5-.442l4.456-.678a.622.622 0 00.466-.355L7.445.362A.618.618 0 018.001 0z" fill="#E6B24D" fill-rule="evenodd"/></svg>