<svg xmlns="http://www.w3.org/2000/svg" viewBox="0 0 496 496"><g fill="#333"><path d="M160 355.312l-59.72-59.72C92.36 287.672 88 277.144 88 265.936 88 242.816 106.816 224 129.936 224c11.2 0 21.736 4.36 29.656 12.28l.408.408.408-.408c7.92-7.92 18.456-12.28 29.656-12.28 7.768 0 15.44 2.232 22.176 6.456l-8.488 13.56c-10.312-6.448-23.776-4.68-32.04 3.576L160 259.312l-11.72-11.72c-4.896-4.896-11.416-7.592-18.344-7.592C115.632 240 104 251.632 104 265.936c0 6.928 2.696 13.448 7.592 18.344L160 332.688l42.344-42.344 11.312 11.312L160 355.312zM280 392h16v24h-16z"/><path d="M272 496H48c-13.232 0-24-10.768-24-24V120c0-13.232 10.768-24 24-24h160v16H48c-4.416 0-8 3.584-8 8v352c0 4.416 3.584 8 8 8h224c4.416 0 8-3.584 8-8v-40h16v40c0 13.232-10.768 24-24 24z"/></g><path d="M448 400H224c-13.232 0-24-10.768-24-24V24c0-13.232 10.768-24 24-24h224c13.232 0 24 10.768 24 24v352c0 13.232-10.768 24-24 24z" fill="#ffa64d"/><path d="M408 190.064c0-11.2-4.36-21.736-12.28-29.656L336 100.688l-59.72 59.72c-7.92 7.92-12.28 18.448-12.28 29.656 0 21.728 16.672 39.44 37.856 41.528L293.752 264h84.496l-8.112-32.416c21.192-2.08 37.864-19.792 37.864-41.52zM314.248 248l4.544-18.2c6.24-2.016 12.024-5.312 16.8-10.08l.408-.408.408.408c4.776 4.776 10.56 8.072 16.8 10.08l4.544 18.2h-43.504zm51.816-32c-6.928 0-13.448-2.696-18.344-7.592L336 196.688l-11.72 11.72c-4.896 4.896-11.416 7.592-18.344 7.592C291.632 216 280 204.368 280 190.064c0-6.928 2.696-13.448 7.592-18.344L336 123.312l48.408 48.408c4.896 4.896 7.592 11.416 7.592 18.344C392 204.368 380.368 216 366.064 216zM232 32h16v16h-16zm192 320h16v16h-16zM56 128h16v16H56zm192 320h16v16h-16z" fill="#333"/></svg>