<svg width="47" height="46" fill="none" xmlns="http://www.w3.org/2000/svg"><path d="M24.814 0h-3.18C12.987 0 6 7.009 6 15.607v13.472c0 .488.348.825.836.825h1.59c.586 0 1.05-.416 1.05-1.002V15.827c0-.585-.464-1.103-1.05-1.103h-.68c.438-7.225 6.5-12.986 13.888-12.986h3.18c3.705 0 7.18 1.434 9.786 4.04a13.73 13.73 0 014.015 8.946h-.681c-.586 0-1.023.518-1.023 1.103v13.075c0 .586.437 1.003 1.023 1.003h.675A13.86 13.86 0 0128.6 42.332a2.22 2.22 0 00-1.742-.813h-7.445a2.271 2.271 0 00-2.256 2.258v.024c0 1.235 1.02 2.199 2.256 2.199h7.445c1.145 0 2.08-.842 2.214-1.952a15.631 15.631 0 0011.314-15.013V15.607c0-4.177-1.608-8.103-4.547-11.042A15.48 15.48 0 0024.814 0zM0 18.08v8.482c0 1.415 1.178 2.611 2.593 2.611H4.39V15.547H2.593C1.178 15.547 0 16.665 0 18.08zm43.859-2.533H42v13.626h1.859c1.415 0 2.53-1.196 2.53-2.611V18.08a2.511 2.511 0 00-2.53-2.533z" fill="#000"/></svg>