<svg width="140" height="144" xmlns="http://www.w3.org/2000/svg"><g fill="none" fill-rule="evenodd"><path d="M21.057 37.105C42.39 15.835 70 13 70 13s27.612 2.835 48.943 24.105c0 0 3.738 66.527-49.265 83.895h.645C17.32 103.632 21.057 37.105 21.057 37.105z" fill="#FC6"/><path d="M70.01 32c-4.887 0-8.862 3.931-8.862 8.764v5.005c0 .057-.07.152-.127.17-.479.159-.868.296-1.224.432a1.213 1.213 0 00-.746 1.083v11.5c0 .453.319.919.74 1.084a27.888 27.888 0 0010.218 1.929 27.89 27.89 0 0010.218-1.93 1.22 1.22 0 00.74-1.083v-11.5c0-.456-.32-.921-.746-1.084a28.4 28.4 0 00-1.224-.43c-.056-.019-.126-.115-.126-.171v-5.006c0-4.832-3.976-8.763-8.862-8.763zm-2.414 18.956c0-1.319 1.08-2.386 2.413-2.386 1.333 0 2.413 1.067 2.413 2.386 0 .875-.498 1.606-1.206 2.021v3.946a1.2 1.2 0 01-1.207 1.194 1.2 1.2 0 01-1.207-1.194v-3.946c-.708-.415-1.206-1.146-1.206-2.02zm8.228-10.193v4.319a27.994 27.994 0 00-11.63 0v-4.319c0-3.17 2.61-5.75 5.815-5.75 3.206 0 5.815 2.58 5.815 5.75z" fill="#F2BA49"/><path d="M32.764 42.284c.367 13.554 4.352 52.946 37.243 66.615 15.856-6.56 26.899-19.715 32.832-39.114 3.415-11.169 4.235-21.65 4.396-27.5-15.068-13.103-32.92-16.765-37.259-17.489-4.312.699-22.052 4.267-37.212 17.488zM70.003 114l-.866-.343c-37.36-14.785-40.92-59.141-41.12-72.384L28 40.195l.8-.72c16.375-14.749 35.39-18.593 40.828-19.42l.36-.055.359.057c5.472.86 24.589 4.803 40.85 19.414l.803.72-.016 1.082c-.094 5.82-.818 17.444-4.63 29.901-6.482 21.2-18.757 35.493-36.485 42.484l-.866.342z" fill="#F2BA49"/><path fill="#E65A40" d="M0 75l12.88 12.857L0 100.712V101h41V75z"/><path fill="#AC3A25" d="M14 93l27 8v-8z"/><path fill="#E65A40" d="M140 75l-12.88 12.857L140 100.712V101H99V75z"/><path fill="#FF6C50" d="M14 93h112V65H14z"/><path fill="#AC3A25" d="M126 93l-27 8v-8z"/><path fill="#FFD34D" d="M20.991 24.294h-4.303V20h-2.385v4.294H10v2.38h4.303v4.294h2.385v-4.294h4.303z"/><path d="M36.506 10.246a3.249 3.249 0 01-3.253 3.245A3.25 3.25 0 0130 10.246 3.25 3.25 0 0133.253 7a3.249 3.249 0 013.253 3.246" fill="#F2BA49"/><path d="M60.962 3.972a3.977 3.977 0 01-3.981 3.973A3.977 3.977 0 0153 3.972 3.977 3.977 0 0156.98 0a3.977 3.977 0 013.982 3.972" fill="#FFD34D"/><path d="M83.095 7.542a2.545 2.545 0 01-2.547 2.542A2.545 2.545 0 0178 7.542 2.545 2.545 0 0180.548 5a2.545 2.545 0 012.547 2.542" fill="#F2BA49"/><path d="M114.378 15.683a2.686 2.686 0 01-2.688 2.683 2.687 2.687 0 01-2.69-2.683A2.687 2.687 0 01111.69 13a2.686 2.686 0 012.688 2.683m20.114 38.025h-3.716V50h-2.06v3.708H125v2.054h3.717v3.708h2.059v-3.708h3.716z" fill="#FFD34D"/><path d="M15.095 49.542a2.545 2.545 0 01-2.547 2.542A2.545 2.545 0 0110 49.542 2.545 2.545 0 0112.548 47a2.545 2.545 0 012.547 2.542" fill="#F2BA49"/><path d="M29.06 86L23.9 72.66h3.24l3.7 10.26 3.68-10.26h3.24L32.62 86h-3.56zM39 86V72.66h2.84V86H39zm5.48 0V72.66h6.24c2.9 0 4.48 1.96 4.48 4.3 0 2.32-1.6 4.26-4.48 4.26h-3.4V86h-2.84zm7.82-9.06c0-1.1-.84-1.84-1.96-1.84h-3.02v3.68h3.02c1.12 0 1.96-.72 1.96-1.84zM70 86l-4.04-5.34-1.04 1.24V86h-2.84V72.66h2.84v5.96l4.72-5.96h3.5l-5.3 6.26L73.5 86H70zm3.72-2.5c1.34 0 2.54-.86 3-6.84l.32-4h9.48V86h-2.86V75.16h-4.24l-.14 1.86c-.66 8.22-2.84 9.22-5.56 9.22V83.5zm23.9-10.84h3.18L95.88 83.2c-.88 1.9-2.1 3.04-4.48 3.04-.56 0-1.26-.1-1.72-.28l.62-2.44c.26.14.6.2.94.2.88 0 1.4-.36 1.9-1.26l-5.4-9.8H91l3.64 7.06 2.98-7.06zm14.16 0v2.44h-6.9v2.44h3.46c2.84 0 4.42 1.94 4.42 4.24 0 2.3-1.56 4.22-4.42 4.22h-6.3V72.66h9.74zm-6.9 7.34v3.54h3.08c1.1 0 1.9-.7 1.9-1.76 0-1.08-.8-1.78-1.9-1.78h-3.08z" fill="#FFF" fill-rule="nonzero"/><g transform="translate(50 100)" stroke="#FFF"><circle stroke-width="4" fill="#6CAD84" cx="20" cy="20" r="22"/><path stroke-width="2.667" fill="#FFF" d="M17.714 26.667L12 20.909l1.611-1.624 4.103 4.123 8.675-8.741L28 16.302z"/></g></g></svg>