<svg width="30" height="26" xmlns="http://www.w3.org/2000/svg"><path d="M12.215.238c-2.153.039-3.726.68-4.681 1.938-1.132 1.49-1.337 3.76-.622 6.73-.263.321-.462.81-.384 1.462.155 1.29.656 1.82 1.079 2.03.201 1.012.759 2.15 1.298 2.688v.274c.005.594.002 1.109-.055 1.774-.359.823-1.55 1.305-2.925 1.847-2.286.9-5.127 2.009-5.34 5.559l-.036.621h23.479l-.037-.621c-.014-.247-.053-.471-.091-.695-.012-.057-.026-.11-.037-.165-.037-.169-.062-.336-.11-.494-.013-.045-.04-.082-.055-.128-.057-.166-.112-.34-.182-.493-.012-.025-.026-.048-.037-.073a4.654 4.654 0 00-.274-.494c-1.045-1.637-2.924-2.38-4.535-3.017-1.37-.542-2.567-1.024-2.926-1.847-.057-.663-.041-1.164-.036-1.756v-.292c.525-.537 1.065-1.671 1.261-2.688.412-.213.926-.745 1.08-2.03.077-.638-.11-1.122-.367-1.445.341-1.158 1.036-4.176-.164-6.107a3.177 3.177 0 00-1.006-1.006 3.566 3.566 0 00-.585-.31 4.089 4.089 0 00-.677-.202c-.553-.697-1.613-1.06-3.035-1.06zm7.625.585c-.83.016-1.55.15-2.176.384.33.286.622.624.86 1.006 1.261 2.032.868 4.802.42 6.546.25.526.332 1.124.256 1.755-.162 1.36-.663 2.133-1.188 2.579-.24.887-.663 1.799-1.134 2.432-.005.443-.01.818.018 1.261.318.36 1.385.778 2.194 1.098 1.792.708 4.295 1.707 5.45 4.114h5.339l-.037-.622c-.182-3.049-2.61-4.007-4.553-4.772-1.079-.426-2.098-.832-2.395-1.482a15.308 15.308 0 01-.037-1.462v-.202c.467-.486.896-1.447 1.06-2.249.362-.203.785-.674.915-1.755.064-.54-.078-.956-.292-1.244.294-1.017.85-3.545-.165-5.175-.432-.694-1.083-1.122-1.938-1.298-.49-.594-1.388-.914-2.597-.914z" fill="#5AA5D8"/></svg>