<svg width="57" height="57" xmlns="http://www.w3.org/2000/svg"><g fill="none" fill-rule="evenodd"><path d="M53.438 0H3.562A3.562 3.562 0 000 3.562v49.875A3.563 3.563 0 003.563 57h49.874A3.563 3.563 0 0057 53.437V3.562A3.562 3.562 0 0053.437 0z" fill="#FAFAFA"/><path d="M32.063 0v57h3.562V0h-3.563zM21.374 57h3.563V0h-3.563v57zm-10.688 0h3.563V0h-3.563v57z" fill="#E3E4E8"/><path fill="#E65A40" d="M42.75 0h3.563v57H42.75z"/><path d="M46.074 11.218a1.918 1.918 0 00-1.543-.55 1.92 1.92 0 00-1.543.55L23.156 31.05l-9.145-9.143a1.918 1.918 0 00-1.542-.55 1.92 1.92 0 00-1.544.55L0 32.83v5.466l12.469-12.469 9.204 9.205c.407.407.95.587 1.483.555a1.918 1.918 0 001.482-.555L44.531 15.14 57 27.608v-5.465L46.074 11.218z" fill="#FF6C50"/><path d="M12.469 19.593a3.563 3.563 0 100 7.126 3.563 3.563 0 000-7.126zM23.156 30.28a3.562 3.562 0 10-.001 7.124 3.562 3.562 0 00.001-7.124zM44.531 8.906a3.562 3.562 0 10-.001 7.124 3.562 3.562 0 00.001-7.124z" fill="#FF6C50"/></g></svg>