<svg xmlns="http://www.w3.org/2000/svg" xmlns:xlink="http://www.w3.org/1999/xlink" width="130.432" height="152.299"><defs><linearGradient id="a" x1=".245" y1=".078" x2="1.202" y2="1.323" gradientUnits="objectBoundingBox"><stop offset="0" stop-color="#a34a9e"/><stop offset="1" stop-color="#343168"/></linearGradient><linearGradient id="g" x1=".189" y1=".298" x2="1.355" y2="1.056" xlink:href="#a"/><linearGradient id="b" x1=".529" y1=".709" x2=".478" y2="-.469" gradientUnits="objectBoundingBox"><stop offset="0" stop-color="#343168" stop-opacity="0"/><stop offset="1" stop-color="#1b1464"/></linearGradient><linearGradient id="c" x1=".279" y1=".279" x2="1.109" y2="1.109" gradientUnits="objectBoundingBox"><stop offset="0" stop-color="#d4f7ff"/><stop offset="1" stop-color="#a2e3e9"/></linearGradient><linearGradient id="h" x1="1.14" y1=".849" x2="-.545" y2="-.459" xlink:href="#b"/><linearGradient id="i" x1=".371" y1=".285" x2="1.505" y2="1.091" xlink:href="#c"/><linearGradient id="j" x1=".279" y1=".279" x2="1.109" y2="1.109" xlink:href="#c"/><linearGradient id="k" x1=".5" y1=".166" x2=".5" y2="2.152" xlink:href="#b"/><linearGradient id="l" x1=".5" y1=".179" x2=".5" y2="3.012" xlink:href="#b"/><linearGradient id="m" x1=".326" y1=".062" x2=".978" y2="1.705" xlink:href="#a"/><linearGradient id="n" x1=".34" y1=".212" x2=".908" y2="1.295" xlink:href="#a"/><linearGradient id="o" x1=".446" y1=".203" x2=".722" y2="1.718" xlink:href="#a"/><linearGradient id="p" x1=".508" y1=".17" x2=".487" y2=".998" xlink:href="#c"/><linearGradient id="q" x1=".497" y1=".226" x2=".516" y2="1.739" xlink:href="#c"/><linearGradient id="r" x1=".479" y1=".324" x2=".526" y2=".721" xlink:href="#c"/><linearGradient id="s" x1=".475" y1=".272" x2=".576" y2="1.191" xlink:href="#c"/><linearGradient id="t" x1=".548" y1=".679" x2="-.089" y2="-.638" xlink:href="#b"/><linearGradient id="u" x1=".503" y1=".467" x2=".185" y2="-.434" xlink:href="#b"/><linearGradient id="v" x1=".35" y1=".112" x2=".627" y2="1.132" xlink:href="#c"/><linearGradient id="d" x1=".508" y1=".502" x2="1.198" y2=".491" gradientUnits="objectBoundingBox"><stop offset="0" stop-color="#a2e3e9" stop-opacity="0"/><stop offset="1" stop-color="#518cd2"/></linearGradient><linearGradient id="w" x1="-1.442" y1=".112" x2="-1.165" y2="1.132" xlink:href="#c"/><linearGradient id="x" x1="-2.982" y1=".502" x2="-2.292" y2=".491" xlink:href="#d"/><linearGradient id="y" x1=".375" y1=".136" x2=".601" y2="1.086" xlink:href="#c"/><linearGradient id="e" x1=".297" y1=".214" x2="-.003" y2="-.129" gradientUnits="objectBoundingBox"><stop offset="0" stop-color="#a34a9e" stop-opacity="0"/><stop offset="1" stop-color="#343168"/></linearGradient><linearGradient id="z" x1=".36" y1=".383" x2="-.071" y2="-.072" xlink:href="#e"/><linearGradient id="f" x1=".006" y1="-.116" x2=".733" y2=".79" gradientUnits="objectBoundingBox"><stop offset="0" stop-color="#ffe548"/><stop offset=".176" stop-color="#ffde50"/><stop offset=".445" stop-color="#ffca65"/><stop offset=".771" stop-color="#ffaa87"/><stop offset="1" stop-color="#ff90a4"/></linearGradient><linearGradient id="A" x1=".006" y1="-.116" x2=".732" y2=".79" xlink:href="#f"/></defs><g transform="translate(-36.613 .001)"><path d="M114.078 202.192l-59.514-16.378v73.45a3.793 3.793 0 002.786 3.657l48.205 13.266a32.121 32.121 0 0017.045 0l48.205-13.266a3.793 3.793 0 002.786-3.657V225.6l-6.24-13.528 6.24-13.528v-12.73z" transform="translate(-12.591 -130.326)" fill="url(#a)"/><path d="M253.859 202.192v75.147a32.119 32.119 0 008.522-1.151l48.205-13.266a3.793 3.793 0 002.786-3.657V225.6l-4.592-13.528 4.592-13.528v-12.73z" transform="translate(-152.371 -130.326)" fill="url(#g)"/><path d="M114.078 202.193l-59.514-16.378v6.772l80.242 80.242 36-9.907a3.793 3.793 0 002.786-3.657V225.6l-5.373-13.528 5.373-13.528v-12.729z" transform="translate(-12.591 -130.327)" fill="url(#b)"/><circle cx="14.317" cy="14.317" r="14.317" transform="translate(46.093 61.116)" fill="url(#c)"/><path d="M94.3 231.383a14.315 14.315 0 10-19.548-19.548z" transform="translate(-26.753 -143.545)" fill="url(#h)"/><circle cx="14.907" cy="14.907" r="14.907" transform="translate(84.028 108.172)" fill="url(#c)"/><path d="M403.433 225.2a14.907 14.907 0 100 27.056z" transform="translate(-242.431 -156.981)" fill="url(#i)"/><circle cx="5.714" cy="5.714" r="5.714" transform="translate(67.976 94.743)" fill="url(#c)"/><circle cx="5.714" cy="5.714" r="5.714" transform="translate(134.118 117.365)" fill="url(#c)"/><circle cx="5.714" cy="5.714" r="5.714" transform="translate(95.773 81.744)" fill="url(#c)"/><circle cx="8.554" cy="8.554" r="8.554" transform="translate(47.42 112.41)" fill="url(#j)"/><circle cx="8.554" cy="8.554" r="8.554" transform="translate(118.284 92.341)" fill="url(#c)"/><path d="M253.859 392.349a14.9 14.9 0 000-29.37z" transform="translate(-152.371 -254.585)" fill="url(#k)"/><path d="M259.573 279.453a5.714 5.714 0 00-5.714-5.714v11.429a5.715 5.715 0 005.714-5.715z" transform="translate(-152.37 -191.994)" fill="url(#l)"/><path d="M98.131 91.086l-4.8 1.321-8.611 6.845-26.537 2.827-16.268 4.477a4.135 4.135 0 00-3.038 3.987v10.695a4.135 4.135 0 003.038 3.987L98.131 140.7a18.639 18.639 0 009.89 0l56.216-15.47a4.135 4.135 0 003.038-3.987v-10.7a4.135 4.135 0 00-3.038-3.987l-21.038-5.79-20.346-.07-9.977-8.275-4.854-1.336a18.636 18.636 0 00-9.891.001z" transform="translate(-1.588 -63.417)" fill="url(#m)"/><path d="M253.859 165.658v16.3a18.635 18.635 0 004.945-.668l19.94-5.488 36.276-9.983a4.135 4.135 0 003.038-3.987v-10.691a4.128 4.128 0 00-1.133-2.839z" transform="translate(-152.371 -104.016)" fill="url(#n)"/><path d="M105.737 125.06l23.853-6.56 4.65-6.039 15.529.486L168.8 107.7a4.123 4.123 0 00-1.905-1.148l-21.038-5.79L127.2 100l-11.662-7.575-4.854-1.336a18.639 18.639 0 00-9.89 0l-4.8 1.321-13.071 6.235-22.079 3.435-16.268 4.477a4.123 4.123 0 00-1.905 1.148l19.035 5.238 13.331-.465 6.848 6.018z" transform="translate(-4.249 -63.418)" fill="url(#o)"/><path d="M203.656 124.2l-7.731 4.666-12.46.89-63.965-17.735 15.237-4.193 4.954-1.363z" transform="translate(-58.136 -74.672)" fill="url(#p)"/><path d="M106.411 124.2l8.615 4.98 11.576.576 63.962-17.732-15.238-4.193-4.954-1.363z" transform="translate(-48.955 -74.672)" fill="url(#q)"/><path d="M333.733 188.394l1.032-.284 19.147-5.269v-17l-20.179 5.559z" transform="translate(-208.393 -116.319)" fill="url(#r)"/><path d="M126.591 188.395l-1.032-.284-19.147-5.269v-17l20.179 5.553z" transform="translate(-48.955 -116.32)" fill="url(#s)"/><path d="M263.976 147.335l-30.049-30.049a12.354 12.354 0 00-21.442 8.37 3.208 3.208 0 001.367 2.5l25.855 25.855z" transform="translate(-123.352 -79.466)" fill="url(#t)"/><path d="M214.98 147.246a26.994 26.994 0 00-3.934-4.861L187.87 119.21a32.086 32.086 0 00-31.2-8.248l-1.824.5c.612 2.6 2.631 5.111 4.715 7.122l34.436 34.436z" transform="translate(-82.924 -77.019)" fill="url(#u)"/><path d="M183.218 103.33s-8-27.817-23.253-20.148 4.65 20.148 4.65 20.148 11.121 4.242 18.603 0z" transform="translate(-82.48 -57.404)" fill="url(#v)"/><path d="M159.555 109.93a7.749 7.749 0 00-3.076 2.466c2.307 5.369 9.727 10.021 9.727 10.021a33.46 33.46 0 006.214 1.547l.024-.006a2.125 2.125 0 001.651-2.746c-1.659-4.493-6.588-15.281-14.541-11.283z" transform="translate(-84.071 -76.491)" fill="url(#d)"/><path d="M256.372 103.33s8-27.817 23.253-20.148-4.65 20.148-4.65 20.148-11.121 4.242-18.603 0z" transform="translate(-154.134 -57.404)" fill="url(#w)"/><path d="M306.5 109.93a7.749 7.749 0 013.076 2.466c-2.307 5.369-9.727 10.021-9.727 10.021a33.46 33.46 0 01-6.214 1.547l-.024-.006a2.125 2.125 0 01-1.651-2.746c1.659-4.493 6.588-15.281 14.541-11.283z" transform="translate(-179.011 -76.491)" fill="url(#x)"/><path d="M237.195 125.655c0 6.824-24.711 6.824-24.711 0a12.355 12.355 0 1124.711 0z" transform="translate(-123.352 -79.466)" fill="url(#y)"/><path d="M192.621 162.342l-74.279-74.278q-1.633.095-3.265.213-3.218.233-6.429.558l-.277.029q-1.418.145-2.835.308l-.407.046q-3.048.356-6.088.795l-.723.107q-1.145.169-2.29.35c-.269.042-.538.084-.807.128q-1.469.237-2.937.492s4.241 10.356 6.167 13.36l78.118 77.86z" transform="translate(-39.042 -61.766)" fill="url(#e)"/><path d="M132.466 225.57L48.647 141.4a1.366 1.366 0 00-2.289 0 31.062 31.062 0 01-9.136 9.224 1.366 1.366 0 000 2.274l74.061 73.831a14.263 14.263 0 0021.183-1.159z" transform="translate(0 -98.743)" fill="url(#z)"/><path d="M90 24.236a62.122 62.122 0 00-18.268 18.447 2.731 2.731 0 01-4.579 0 62.117 62.117 0 00-18.272-18.447 2.731 2.731 0 010-4.547A62.117 62.117 0 0067.153 1.241a2.731 2.731 0 014.579 0A62.122 62.122 0 0090 19.689a2.731 2.731 0 010 4.547z" transform="translate(-7.751)" fill="url(#f)"/><path d="M57.783 152.9a31.06 31.06 0 00-9.136 9.224 1.366 1.366 0 01-2.289 0 31.058 31.058 0 00-9.136-9.224 1.366 1.366 0 010-2.274 31.058 31.058 0 009.136-9.224 1.366 1.366 0 012.289 0 31.059 31.059 0 009.136 9.224 1.366 1.366 0 010 2.274z" transform="translate(0 -98.744)" fill="url(#f)"/><path d="M421.626 405.877a31.057 31.057 0 00-9.136 9.224 1.366 1.366 0 01-2.289 0 31.054 31.054 0 00-9.136-9.224 1.366 1.366 0 010-2.274 31.058 31.058 0 009.136-9.224 1.365 1.365 0 012.289 0 31.058 31.058 0 009.136 9.224 1.366 1.366 0 010 2.274z" transform="translate(-255.191 -276.173)" fill="url(#f)"/><path d="M396.586 63.41a31.059 31.059 0 00-9.136 9.224 1.366 1.366 0 01-2.289 0 31.058 31.058 0 00-9.136-9.224 1.366 1.366 0 010-2.274 31.059 31.059 0 009.136-9.224 1.366 1.366 0 012.289 0 31.058 31.058 0 009.136 9.224 1.365 1.365 0 010 2.274z" transform="translate(-237.628 -35.975)" fill="url(#A)"/><path d="M67.585 448.572a31.059 31.059 0 00-9.136 9.224 1.366 1.366 0 01-2.289 0 31.057 31.057 0 00-9.136-9.224 1.366 1.366 0 010-2.274 31.058 31.058 0 009.136-9.224 1.366 1.366 0 012.289 0 31.058 31.058 0 009.136 9.224 1.365 1.365 0 010 2.274z" transform="translate(-6.875 -306.119)" fill="url(#f)"/></g></svg>