<svg width="350" height="277" xmlns="http://www.w3.org/2000/svg"><g fill="none" fill-rule="evenodd"><path fill="#E3E4E8" d="M229.652 187.368h95.345v75.637h-95.345z"/><path fill="#C6C7CA" d="M38.23 147.986h88.308v16.785H21z"/><path fill="#E3E4E8" d="M21 164.322h104.672v98.683H21z"/><path fill="#C6C7CA" d="M307.463 170.511h-88.31v16.782h105.54z"/><path fill="#E65A40" d="M126 121.658h104.672v141.347H126z"/><path fill="#D13618" d="M143.054 104.872h78.225l9.183 16.785H126z"/><path fill="#FAFAFA" d="M177.12 183.809h-.181l-10.203 3.546-1.536-3.907 12.828-4.411h6.772v37.786h-7.676v-33.014z"/><path d="M57.4 240.614v-4.969l5.21-3.968c11.117-8.299 15.764-12.467 15.764-16.855 0-3.519-2.433-5.303-7.23-5.303-3.871 0-7.018 1.677-8.542 2.676l-1.236.812-3.3-5.718 1.114-.735c3.588-2.365 8.369-3.726 13.114-3.726 10.243 0 14.827 5.73 14.827 11.413 0 7.188-6.494 12.652-15.67 19.593l-.13.092H88.2v6.688H57.4zm218.303 0c-3.907 0-7.197-1.311-8.832-2.426l-.871-.601 2.042-5.958 1.382.862c1.067.672 3.585 1.801 6.225 1.801 2 0 3.516-.534 4.51-1.593.795-.843 1.24-2.054 1.22-3.302-.053-4.902-5.622-5.151-6.74-5.151h-3.668v-6.065h3.669c2.264 0 5.638-1.103 5.638-4.126 0-2.273-1.477-3.521-4.149-3.521-2.15 0-4.291 1.025-5.47 1.898l-1.389 1.043-2.119-5.875.833-.617c1.712-1.27 5.09-2.756 8.967-2.756 7.081 0 10.248 4.587 10.248 9.137 0 3.094-1.363 5.712-3.83 7.506 3.089 1.656 4.985 4.784 5.031 8.587-.004 5.385-3.976 11.157-12.697 11.157z" fill="#AFB0B5"/><path fill="#F2BA49" d="M177.75 64.508h4.118v23.827h-4.119zm-6.815 2.193c-27.482 0-33.473-34.87-34.746-50.15-.15-2.118.524-4.236 1.947-5.75 1.423-1.588 3.445-2.42 5.541-2.42h10.26v4.16h-10.335c-.973 0-1.797.379-2.47 1.06-.675.68-.974 1.588-.9 2.571 1.199 14.524 6.815 48.033 32.575 46.293l.3 4.16c-.674.076-1.498.076-2.172.076zm17.822 0c27.483 0 33.473-34.87 34.746-50.15.15-2.118-.524-4.236-1.947-5.75-1.422-1.588-3.444-2.42-5.541-2.42h-10.259v4.16h10.259c.974 0 1.797.379 2.471 1.06.674.68.974 1.588.899 2.571-1.198 14.524-6.815 48.033-32.575 46.293l-.3 4.16c.75.076 1.573.076 2.247.076z"/><path d="M179.846 68.97c15.95 0 28.98-30.03 30.478-68.456h-60.956c1.498 38.427 14.528 68.457 30.478 68.457z" fill="#FC6"/><path d="M195.572 91.285c-3.445-5.068-9.136-8.396-15.726-8.396-6.515 0-12.28 3.328-15.725 8.396h31.45z" fill="#F2BA49"/><path fill="#28282C" d="M160.077 91.285h39.614v1.588h-39.614zm0 19.44h39.614v1.588h-39.614z"/><path fill="#48494F" d="M161.574 92.874h36.618v17.852h-36.618z"/><g fill="#E3E4E8"><path d="M118.546 56.584s1.791-3.934-.953-8.152c-2.745-4.228-7.045-5.064-7.045-5.064s-1.978 4.65.705 8.766c2.669 4.116 7.293 4.45 7.293 4.45zm7.693.676s4.407-1.42 6.038-6.056c1.627-4.646-1.392-8.686-1.392-8.686s-3.973 1.838-5.648 6.594c-1.668 4.762 1.002 8.148 1.002 8.148zm1.698 5.224c-1.038 4.94 2.052 7.952 2.052 7.952s4.19-1.994 5.201-6.8c1.007-4.814-2.514-8.427-2.514-8.427s-3.697 2.336-4.74 7.275zm9.763 16.593s3.981-2.371 4.535-7.257c.559-4.89-3.29-8.152-3.29-8.152s-3.462 2.678-4.043 7.698c-.572 5.015 2.798 7.711 2.798 7.711zm10.184 8.157s3.134-3.431 2.265-8.268c-.878-4.841-5.497-6.862-5.497-6.862s-2.55 3.57-1.659 8.54c.896 4.966 4.89 6.59 4.89 6.59zM122.2 46.327s3.666-2.265 3.715-7.316c.049-5.046-3.06-8.134-3.06-8.134s-4.22 2.763-4.269 7.69c-.053 4.912 3.613 7.76 3.613 7.76zm-1.282 20.393s.554-4.28-3.307-7.511c-3.871-3.222-8.22-2.75-8.22-2.75s-.524 5.028 3.24 8.174c3.774 3.137 8.287 2.087 8.287 2.087zm5.737 9.63s-.408-4.312-4.89-6.586c-4.487-2.287-8.624-.846-8.624-.846s.603 5.02 4.975 7.245c4.367 2.216 8.54.187 8.54.187zm.39 2.616c-4.965-.819-8.472 1.807-8.472 1.807s2.088 4.596 6.92 5.397c4.838.792 8.203-2.411 8.203-2.411s-1.69-3.974-6.65-4.793zm9.675 7.85c-5.02-.214-8.198 2.807-8.198 2.807s2.62 4.326 7.52 4.535c4.894.204 7.847-3.378 7.847-3.378s-2.141-3.755-7.17-3.964z"/><path d="M123.348 49.055l-2.341-.539c-.058.258-5.45 25.782 30.925 44.605l1.1-2.136c-34.623-17.92-29.901-40.96-29.684-41.93zM241.15 56.61s4.62-.329 7.299-4.45c2.677-4.116.7-8.766.7-8.766s-4.3.837-7.045 5.064c-2.753 4.219-.953 8.152-.953 8.152zm-7.696.677s2.678-3.387 1.01-8.148c-1.675-4.761-5.648-6.599-5.648-6.599s-3.024 4.04-1.388 8.686c1.623 4.641 6.026 6.06 6.026 6.06zm-3.751 13.176s3.09-3.013 2.053-7.948c-1.033-4.94-4.735-7.28-4.735-7.28s-3.52 3.614-2.514 8.428c1.002 4.806 5.196 6.8 5.196 6.8zm-8.947-6.769s-3.849 3.267-3.29 8.152c.554 4.886 4.531 7.262 4.531 7.262s3.365-2.7 2.798-7.715c-.581-5.02-4.04-7.699-4.04-7.699zm-11.204 15.294c-.87 4.846 2.265 8.268 2.265 8.268s3.995-1.62 4.89-6.586c.892-4.97-1.657-8.539-1.657-8.539s-4.63 2.02-5.498 6.857zm27.945-32.634s3.663-2.848 3.61-7.76c-.05-4.922-4.266-7.69-4.266-7.69s-3.112 3.088-3.06 8.134c.054 5.05 3.716 7.316 3.716 7.316zm12.809 10.132s-4.35-.468-8.22 2.75c-3.866 3.23-3.307 7.51-3.307 7.51s4.518 1.056 8.286-2.086c3.76-3.146 3.241-8.174 3.241-8.174zM237.932 69.79c-4.487 2.279-4.895 6.582-4.895 6.582s4.168 2.029 8.54-.196c4.37-2.225 4.974-7.244 4.974-7.244s-4.137-1.429-8.62.859zm-5.281 9.203c-4.961.819-6.65 4.792-6.65 4.792s3.365 3.204 8.202 2.412c4.837-.797 6.925-5.398 6.925-5.398s-3.515-2.62-8.477-1.806zm-16.848 11.805s2.953 3.582 7.848 3.377c4.895-.209 7.52-4.53 7.52-4.53s-3.18-3.025-8.198-2.816c-5.02.218-7.17 3.97-7.17 3.97z"/><path d="M238.686 48.543l-2.341.538c.217.97 4.948 24.011-29.684 41.93l1.1 2.137c36.374-18.823 30.982-44.347 30.925-44.605z"/></g><path fill="#E9AE39" d="M179.815 12.008l3.983 8.04 8.908 1.289-6.446 6.257 1.521 8.837-7.966-4.172-7.968 4.172 1.522-8.837-6.446-6.257 8.908-1.29z"/><path fill="#7F8287" d="M11.2 263.005h319.2v9.796H11.2z"/><path fill="#4B4D50" d="M0 267.204h350V277H0z"/></g></svg>