<svg width="25" height="32" xmlns="http://www.w3.org/2000/svg"><g fill="none" fill-rule="evenodd"><path d="M15.888 24.925a3.5 3.5 0 00.554-.042c.12.383.181.782.181 1.194 0 1.082-.43 2.1-1.21 2.865a4.135 4.135 0 01-2.913 1.183h-.008a4.124 4.124 0 01-2.92-1.218 3.978 3.978 0 01-1.195-2.89c.013-.928.355-1.83.963-2.541l3.02-3.734c.13.376.199.773.199 1.173v.693c0 1.819 1.493 3.307 3.33 3.317z" fill="#FC6"/><path d="M23.54 13.967l-.44-.81-.833.413a4.518 4.518 0 01-2.045.47c-2.462-.014-4.464-2.02-4.464-4.473V7.991c0-2.556-.892-5.066-2.51-7.067L12.5 0 2.913 11.85a12.164 12.164 0 00-2.912 7.696c-.048 3.281 1.235 6.394 3.613 8.767A12.506 12.506 0 0012.477 32h.023c3.335 0 6.47-1.274 8.83-3.587 2.367-2.32 3.67-5.404 3.67-8.687 0-2.006-.505-3.998-1.46-5.76zm-7.652 10.958a3.5 3.5 0 00.554-.042c.12.383.181.782.181 1.194 0 1.082-.43 2.1-1.21 2.865a4.135 4.135 0 01-2.913 1.183h-.008a4.124 4.124 0 01-2.92-1.218 3.978 3.978 0 01-1.195-2.89c.013-.928.355-1.83.963-2.541l3.02-3.734c.13.376.199.773.199 1.173v.693c0 1.819 1.493 3.307 3.33 3.317z" fill="#E65A40"/><path d="M19.918 27.403A10.605 10.605 0 0117.886 29a6.064 6.064 0 00-.104-5.449l-.435-.822-.827.42c-.202.102-.42.153-.65.152-.782-.004-1.42-.662-1.42-1.466v-.704a5.656 5.656 0 00-1.209-3.491l-.741-.94-4.591 5.819a6.055 6.055 0 00-1.39 3.77c-.013.94.191 1.852.59 2.68a10.772 10.772 0 01-2.07-1.656c-2-2.045-3.078-4.725-3.038-7.546a10.627 10.627 0 012.453-6.634l.008-.01L12.451 3a9.734 9.734 0 011.387 4.996v1.602c0 3.537 2.829 6.43 6.306 6.45a6.299 6.299 0 001.999-.311c.562 1.314.857 2.745.857 4.185 0 2.827-1.095 5.484-3.082 7.48z" fill="#FF7157"/></g></svg>