<svg width="44" height="44" xmlns="http://www.w3.org/2000/svg"><g fill="none" fill-rule="evenodd"><path d="M15.247 4.41c-.155-.465-.567-.826-1.057-.877l-2.708-.413L10.271.67C10.039.232 9.574 0 9.11 0c-.465 0-.929.232-1.16.67L6.737 3.12l-2.707.413c-.49.051-.903.412-1.057.876-.155.464-.026.98.335 1.315l1.96 1.908-.465 2.707c-.077.49.13.98.516 1.264.413.31.928.335 1.367.103l2.423-1.29 2.424 1.29c.954.49 2.063-.31 1.882-1.367l-.464-2.707 1.96-1.908c.36-.335.49-.85.335-1.315zm18.049 0c-.155-.465-.568-.826-1.057-.877L29.53 3.12 28.32.67C28.087.232 27.623 0 27.16 0c-.464 0-.928.232-1.16.67l-1.212 2.45-2.707.413c-.49.051-.903.412-1.058.876-.154.464-.025.98.336 1.315l1.96 1.908-.465 2.707c-.077.49.13.98.516 1.264.387.31.928.335 1.367.103l2.423-1.29 2.424 1.29c.206.103.412.155.619.155.257 0 .515-.077.747-.258a1.32 1.32 0 00.516-1.264L31 7.632l1.96-1.908c.36-.335.49-.85.335-1.315zm9.59 12.1l-2.697-.412-1.212-2.45c-.232-.438-.696-.67-1.16-.67-.464 0-.929.232-1.16.67l-1.212 2.45-2.708.413c-.49.051-.902.412-1.057.876-.155.464-.026.98.335 1.315l1.96 1.908-.464 2.708c-.18 1.057.928 1.856 1.882 1.366l2.424-1.29 2.423 1.29c.954.49 2.063-.31 1.882-1.366l-.464-2.708 1.95-1.908c.773-.747.335-2.037-.722-2.191z" fill="#FED766"/><path d="M28.053 32.35a2.883 2.883 0 012.888 2.888 2.888 2.888 0 01-2.888 2.914h-2.578a2.889 2.889 0 012.887 2.914 2.883 2.883 0 01-2.887 2.887h-8.096c-3.868 0-7.736-.902-11.19-2.578l-3.507-8.922.051-.103 3.455-9.05 2.991-1.495c4.977-2.501 6.11-6.188 6.343-8.225a1.727 1.727 0 01.593-1.367c.387-.36.928-.515 1.444-.438a5.163 5.163 0 014.357 5.105c0 1.418-.49 2.76-1.392 3.868h7.53a2.883 2.883 0 012.887 2.887 2.889 2.889 0 01-2.888 2.914 2.888 2.888 0 012.888 2.914 2.883 2.883 0 01-2.888 2.887z" fill="#FFBFAB" fill-rule="nonzero"/><path d="M15.247 4.41c.155.463.026.979-.335 1.314l-1.96 1.908.464 2.707c.18 1.058-.928 1.857-1.882 1.367l-2.424-1.29V0c.465 0 .929.232 1.16.67l1.212 2.45 2.708.413c.49.051.902.412 1.057.876zm18.049 0c.155.463.026.979-.335 1.314L31 7.632l.464 2.707c.078.49-.129.98-.515 1.264a1.2 1.2 0 01-.748.258c-.206 0-.413-.052-.619-.155l-2.424-1.29V0c.465 0 .928.232 1.16.67l1.212 2.45 2.708.413c.49.051.902.412 1.057.876zm10.312 14.292l-1.95 1.908.464 2.708c.181 1.057-.928 1.856-1.881 1.366l-2.424-1.29V12.979c.464 0 .928.232 1.16.67l1.212 2.45 2.697.412c1.057.155 1.495 1.445.722 2.192z" fill="#E6B24D"/><path d="M28.053 38.152h-2.578a2.889 2.889 0 012.887 2.914 2.883 2.883 0 01-2.887 2.887h-8.096c-3.868 0-7.736-.902-11.19-2.578l-3.507-8.922.051-.103h25.32a2.883 2.883 0 012.888 2.888 2.888 2.888 0 01-2.888 2.914z" fill="#FFA78F" fill-rule="nonzero"/><path d="M6.188 23.3v18.075H1.29a1.277 1.277 0 01-1.289-1.29v-15.47c0-.722.567-1.289 1.29-1.289h4.846l.052-.026z" fill="#6C7DAD" fill-rule="nonzero"/><path d="M6.188 32.35v9.025H1.29a1.277 1.277 0 01-1.289-1.29V32.35h6.188z" fill="#515F87" fill-rule="nonzero"/></g></svg>