<svg width="56" height="35" xmlns="http://www.w3.org/2000/svg"><g fill="none"><path d="M45.342 16.606L43.948 4.76l-2.613.336.001-.002-5.066-2.981a2.943 2.943 0 00-1.778-.397l-7.998.774c-.983.095-1.862.681-2.358 1.574l-5.638 10.149c-.416.749-.09 1.71.686 2.016l.23.091c.444.175.9.277 1.356.317l-.714.65-1.43 1.302-4.064 3.627a1.874 1.874 0 00-.169 2.563l.413.493a2.165 2.165 0 003.148.225l1.553 1.864a2.177 2.177 0 001.956.783c.428-.055.844-.24 1.193-.558l1.551 1.863a2.178 2.178 0 001.958.783 2.173 2.173 0 001.192-.556l.844.762a2.165 2.165 0 003.15.226l1.146-1.046 9.638-7.85.01-.01 3.803-.004-.606-5.148z" fill="#F29F5C"/><path d="M41.212 18.706l-.01.01-9.638 7.85-1.147 1.046c-.93.847-2.34.746-3.15-.226l-.843-.762a2.172 2.172 0 01-1.193.556 2.178 2.178 0 01-1.957-.783l-1.552-1.863a2.175 2.175 0 01-1.192.558 2.177 2.177 0 01-1.956-.783l-1.554-1.864a2.156 2.156 0 01-2.764.138 1.881 1.881 0 00.138 2.196l.412.493a2.165 2.165 0 003.148.225l1.554 1.864a2.177 2.177 0 001.956.783c.427-.055.844-.24 1.192-.558l1.552 1.863a2.178 2.178 0 001.957.783 2.173 2.173 0 001.193-.556l.843.762a2.165 2.165 0 003.15.226l1.147-1.046 9.638-7.85.01-.01 3.803-.004-.421-3.574-4.316.526z" fill="#D37D42"/><path d="M42.967 23.83l-5.164-4.656-1.436-1.294-1.027-.926-4.418-3.982.51-4.543c.172-1.536-.752-2.974-2.178-3.387l-9.63-2.786c-1.019-.295-2.096.2-2.578 1.183l-1.211 2.473-5.199-.37-1.331 11.855-.579 5.151 5.06.352.01.01 10.572 9.53 1.152 1.04a2.166 2.166 0 003.149-.245l1.542-1.87c.35.315.768.497 1.195.55a2.179 2.179 0 001.954-.795l1.542-1.873c.35.316.767.5 1.195.552a2.178 2.178 0 001.952-.795l1.543-1.873a2.165 2.165 0 003.147-.243l.41-.496c.626-.76.545-1.907-.182-2.562z" fill="#F9C295"/><g fill="#E59F6A"><path d="M42.967 23.83l-1.573-1.418c.511.709.5 1.717-.076 2.418l-.435.527a2.298 2.298 0 01-3.34.258l-1.64 1.987a2.312 2.312 0 01-2.071.844 2.306 2.306 0 01-1.27-.586l-1.636 1.988a2.313 2.313 0 01-2.074.844 2.304 2.304 0 01-1.269-.584l-1.637 1.986a2.345 2.345 0 01-1.122.757l.696.629a2.166 2.166 0 003.15-.245l1.54-1.87c.35.316.769.497 1.196.55a2.18 2.18 0 001.954-.795l1.542-1.873c.35.316.767.5 1.195.552a2.178 2.178 0 001.952-.795l1.543-1.872a2.165 2.165 0 003.147-.244l.41-.496c.626-.76.545-1.907-.182-2.562z"/><path d="M40.115 26.508l-2.83-2.551a.78.78 0 00-1.134.087.868.868 0 00.084 1.186l2.825 2.547.532-.645c.213.191.45.33.7.425a.869.869 0 00-.177-1.049zm-4.524 3.163a.868.868 0 00-.168-1.063l-2.541-2.292a.78.78 0 00-1.134.088.868.868 0 00.084 1.186l2.541 2.292.004.003.525-.638c.21.19.443.33.689.424z"/></g><g fill="#F29F5C"><path d="M14.05 22.889l-.612.845c-.667.922-.494 2.234.387 2.931.88.698 2.135.517 2.802-.404l.613-.846c.667-.921.493-2.234-.387-2.931-.881-.698-2.136-.517-2.803.405z"/><path d="M17.78 24.668l-1.153 1.593c-.667.92-.494 2.233.387 2.93.88.698 2.136.517 2.803-.404l1.153-1.593c.667-.921.494-2.233-.387-2.931-.88-.698-2.135-.516-2.802.405z"/><path d="M21.389 26.616l-1.572 2.17c-.667.922-.494 2.234.387 2.932.88.697 2.135.516 2.802-.405l1.572-2.171c.667-.921.494-2.233-.387-2.931-.88-.698-2.135-.516-2.802.405z"/><path d="M24.67 29.016l-1.664 2.297c-.667.92-.494 2.233.387 2.93.88.698 2.136.517 2.803-.404l1.663-2.297c.667-.921.494-2.233-.387-2.93-.88-.698-2.136-.517-2.803.404zM41.336 5.094L36.27 2.113a2.943 2.943 0 00-1.778-.397l-7.998.774c-.983.095-1.862.681-2.358 1.574l-5.638 10.149c-.416.749-.09 1.71.686 2.016l.23.091c2.067.816 4.4.122 5.747-1.71l2.16-2.94s5.192 6.287 10.908-1.055"/></g><path d="M55.387 23.338L52.737.83a.85.85 0 00-.303-.56.78.78 0 00-.593-.172l-6.196.798c-1.609.207-2.757 1.745-2.558 3.428l2.127 18.074c.183 1.556 1.454 2.7 2.916 2.7.12 0 .24-.008.362-.024l6.195-.797c.44-.057.754-.477.7-.938z" fill="#E65A40"/><path d="M55.387 23.338l-.291-2.47a.836.836 0 01-.593.379l-6.495.836a2.967 2.967 0 01-.378.024c-1.094 0-2.085-.61-2.633-1.552l.217 1.842c.183 1.556 1.454 2.7 2.916 2.7.12 0 .24-.008.361-.024l6.196-.797c.44-.057.754-.477.7-.938z" fill="#CA4F38"/><path d="M10.248.895L4.052.097a.779.779 0 00-.593.172.85.85 0 00-.303.56l-2.65 22.51c-.054.46.26.88.7.937l6.195.797c.122.016.242.023.362.023 1.462 0 2.733-1.143 2.916-2.7l2.127-18.074c.199-1.682-.95-3.22-2.558-3.427z" fill="#5AA5D8"/><path d="M.506 23.338l.291-2.47a.836.836 0 00.593.379l6.495.836c.127.016.253.024.378.024 1.094 0 2.085-.61 2.633-1.552l-.217 1.842c-.183 1.556-1.454 2.7-2.916 2.7-.12 0-.24-.008-.361-.024l-6.196-.797c-.44-.057-.754-.477-.7-.938z" fill="#4A8CB7"/><g transform="translate(3.93 18.052)" fill="#EBEEF2"><ellipse cx="46.316" cy="1.682" rx="1.554" ry="1.626"/><ellipse cx="1.629" cy="1.682" rx="1.554" ry="1.626"/></g></g></svg>