<svg width="36" height="40" xmlns="http://www.w3.org/2000/svg"><g fill="none" fill-rule="evenodd"><path d="M19.702 31.612l-1.688 1.707a1.183 1.183 0 01-1.687 0 1.216 1.216 0 010-1.707l1.687-1.707a1.217 1.217 0 000-1.706l-1.551-1.57a1.216 1.216 0 010-1.706 1.183 1.183 0 011.687 0l1.552 1.569a3.653 3.653 0 010 5.12z" fill="#CF513A" fill-rule="nonzero"/><path d="M22.234 39.293a2.368 2.368 0 01-3.376 0l-8.439-8.534 3.376-3.414 8.439 8.534a2.433 2.433 0 010 3.414z" fill="#E65A40" fill-rule="nonzero"/><path d="M10.352 20.45l5.232 5.29-.101 3.312-5.908 5.974c-1.4 1.416-3.696 1.382-5.097-.034l-3.375-3.414c-1.384-1.4-1.367-3.67.034-5.086l5.907-5.974 3.308-.069z" fill="#AEB0B5" fill-rule="nonzero"/><path d="M12.951 23.078l2.633 2.663-.101 3.311-5.908 5.974c-1.4 1.417-3.696 1.383-5.097-.034l-1.654-1.673 10.127-10.24z" fill="#68696D" fill-rule="nonzero"/><path d="M25.184 4.828a1.2 1.2 0 01-1.193-1.207V1.207A1.2 1.2 0 0125.182 0a1.2 1.2 0 011.194 1.207V3.62a1.2 1.2 0 01-1.193 1.207zm9.548 7.242l-2.388-.001a1.2 1.2 0 01-1.193-1.207 1.2 1.2 0 011.193-1.207l2.388.001a1.2 1.2 0 011.193 1.207 1.2 1.2 0 01-1.193 1.207zm-1.528-9.474a1.205 1.205 0 010 1.707l-2.531 2.56a1.173 1.173 0 01-1.688 0 1.205 1.205 0 010-1.707l2.532-2.56a1.173 1.173 0 011.687 0z" fill="#FED766"/><path d="M18.858 5.156l11.815 11.948c.337.342.76 3.943 1.198 4.011l-3.325.7c-4.928.99-9.603 3.738-12.776 6.947l-.287.29-8.44-8.534.288-.29c3.341-3.38 5.806-7.852 6.818-12.972l.692-3.5 4.017 1.4zM9.575 26.492a1.205 1.205 0 010 1.707l-1.687 1.706a1.173 1.173 0 01-1.688 0 1.205 1.205 0 010-1.706l1.688-1.707a1.173 1.173 0 011.687 0z" fill="#E2E4E8" fill-rule="nonzero"/><path d="M24.765 11.13l5.908 5.974c.337.342.76 3.943 1.198 4.011l-3.325.7c-4.928.99-9.603 3.738-12.776 6.947l-.287.29-4.22-4.267L24.765 11.13zM9.575 26.492a1.205 1.205 0 010 1.707l-1.687 1.706a1.173 1.173 0 01-1.688 0l3.375-3.413z" fill="#C9CDD3" fill-rule="nonzero"/><path d="M18.858 1.743l15.19 15.361a2.44 2.44 0 010 3.414c-.101.102-.236.17-.371.239-.54.375-1.182.512-1.806.358a2.117 2.117 0 01-1.198-.597L15.483 5.156c-.389-.392-.574-.887-.642-1.4a2.41 2.41 0 01.287-1.484c.118-.188.203-.376.355-.53a2.375 2.375 0 013.375 0z" fill="#E65A40" fill-rule="nonzero"/><path d="M26.453 9.423l7.595 7.681a2.44 2.44 0 010 3.414c-.101.102-.236.17-.371.239-.54.375-1.182.512-1.806.358a2.117 2.117 0 01-1.198-.597l-7.595-7.68 3.375-3.415z" fill="#CF513A" fill-rule="nonzero"/></g></svg>