<svg width="95" height="89" xmlns="http://www.w3.org/2000/svg"><g fill="none"><path d="M67.108 62.198a1.637 1.637 0 01-1.196-2.755l22.915-24.552a1.637 1.637 0 012.392 2.236L68.305 61.68a1.64 1.64 0 01-1.197.519zm-39.283 0c-.453 0-.886-.188-1.196-.52L3.714 37.129a1.637 1.637 0 012.393-2.237l22.915 24.552a1.637 1.637 0 01-1.197 2.755zm50.741 1.636a1.637 1.637 0 01-1.158-2.794l8.184-8.183a1.637 1.637 0 012.315 2.314l-8.184 8.184c-.307.307-.723.48-1.157.48zm-62.198 0c-.434 0-.85-.172-1.157-.48l-8.184-8.183a1.637 1.637 0 112.314-2.314l8.184 8.183a1.637 1.637 0 01-1.157 2.794z" fill="#FC6"/><path d="M80.202 14.731v13.094a1.637 1.637 0 01-3.273 0V14.731h3.273z" fill="#3186C0"/><path d="M47.467 58.924a1.637 1.637 0 01-1.637-1.637v-3.273a1.637 1.637 0 113.273 0v3.273c0 .904-.732 1.637-1.636 1.637zm8.183 0a1.637 1.637 0 01-1.157-2.794l3.274-3.273a1.637 1.637 0 012.314 2.314l-3.273 3.274a1.64 1.64 0 01-1.157.48zm-16.367 0c-.434 0-.85-.172-1.157-.48l-3.274-3.273a1.637 1.637 0 012.314-2.314l3.274 3.273a1.637 1.637 0 01-1.157 2.794z" fill="#FC6"/><path d="M67.108 44.193a62.12 62.12 0 01-39.283 0V14.731h39.283v29.462z" fill="#3186C0"/><path d="M67.108 25.954V14.731H27.825v29.462a62.12 62.12 0 0039.283 0v-4.91a62.08 62.08 0 01-19.924 3.185c-7.912-.114-14.303-6.492-14.432-14.404l10.845 4.649a9.82 9.82 0 007.739 0l15.772-6.759z" fill="#3186C0"/><path fill="#5AA5D8" d="M47.467 29.462l34.372-14.731L47.467 0 13.094 14.731z"/><circle fill="#5AA5D8" cx="78.566" cy="29.462" r="4.092"/><path d="M90.023 81.84l-42.556-8.185V70.74a6.546 6.546 0 018.249-6.321l30.673 8.254a4.91 4.91 0 013.634 4.747v4.42z" fill="#E2E4E8"/><path d="M4.91 81.84l42.557-8.185V70.74a6.546 6.546 0 00-8.25-6.321L8.544 72.673A4.91 4.91 0 004.91 77.42v4.42z" fill="#E2E4E8"/><path d="M55.716 69.33a6.547 6.547 0 00-7.948 4.382l42.214 8.127a4.91 4.91 0 00-3.6-4.244l-30.666-8.266zm-16.499 0L8.544 77.582a4.91 4.91 0 00-3.593 4.256l42.214-8.118a6.547 6.547 0 00-7.948-4.392z" fill="#AEB0B5"/><path d="M67.851 13.01a39.273 39.273 0 01-30.948 0l-9.896-4.242-13.913 5.963 34.373 14.731 34.372-14.731-9.002-3.858-4.986 2.136z" fill="#5AA5D8"/><path d="M0 81.84v6.546l40.92-4.233v.96a3.274 3.274 0 003.273 3.273h3.274V74.028a1.636 1.636 0 00-1.964-1.602L0 81.839z" fill="#6CAD84"/><path d="M47.467 74.028v14.358h3.273a3.274 3.274 0 003.274-3.273v-.96l40.92 4.233V81.84L49.43 72.426a1.637 1.637 0 00-1.964 1.602z" fill="#6CAD84"/><path d="M0 85.113v3.273l40.92-4.233v.96a3.274 3.274 0 003.273 3.273h3.274v-5.054a6.547 6.547 0 00-7.873-6.403L0 85.113z" fill="#6CAD84"/><path d="M47.467 83.332v5.054h3.273a3.274 3.274 0 003.274-3.273v-.96l40.92 4.233v-3.273L55.34 76.929a6.547 6.547 0 00-7.873 6.403z" fill="#6CAD84"/></g></svg>