<svg width="32" height="40" xmlns="http://www.w3.org/2000/svg"><g fill="none" fill-rule="evenodd"><path d="M29.317 36.542l-3.15.374-1.9 2.53a1.388 1.388 0 01-2.309-.136l-9.335-16.106 8.394-4.828 9.336 16.107a1.379 1.379 0 01-1.036 2.059z" fill="#FF6C50"/><path d="M2.683 36.542l3.15.374 1.9 2.53a1.388 1.388 0 002.309-.136l9.335-16.106-8.394-4.828-9.336 16.107a1.379 1.379 0 001.036 2.059z" fill="#FF6C50"/><ellipse fill="#FC6" cx="16" cy="15.862" rx="15.924" ry="15.862"/><path d="M16 30.345c-8.017 0-14.54-6.497-14.54-14.483C1.46 7.877 7.983 1.38 16 1.38s14.54 6.497 14.54 14.483c0 7.986-6.523 14.483-14.54 14.483zm0-27.586c-7.254 0-13.155 5.878-13.155 13.103S8.747 28.966 16 28.966c7.253 0 13.155-5.879 13.155-13.104S23.254 2.76 16 2.76z" fill="#EFB43E"/><ellipse fill="#FFE2A6" cx="16" cy="15.862" rx="11.77" ry="11.724"/><path d="M25.51 9.626a3.803 3.803 0 01-2.86-2.85.097.097 0 00-.19 0 3.803 3.803 0 01-2.861 2.85.096.096 0 000 .19 3.803 3.803 0 012.86 2.849.097.097 0 00.19 0 3.803 3.803 0 012.86-2.85.096.096 0 000-.19zm-4.92 4.099a2.467 2.467 0 01-1.768-1.761.08.08 0 00-.157 0 2.467 2.467 0 01-1.768 1.76c-.087.023-.087.135 0 .158.864.223 1.544.9 1.768 1.76a.08.08 0 00.157 0 2.467 2.467 0 011.769-1.76c.086-.023.086-.135 0-.157z" fill="#FFF"/></g></svg>