<svg width="40" height="40" xmlns="http://www.w3.org/2000/svg"><g fill="none"><circle fill="#FF7157" cx="19.997" cy="19.997" r="19.997"/><path d="M9 19.62h10.62V9H9v10.62zm3.034-6.068h1.518v-1.518a.759.759 0 011.517 0v1.518h1.517a.759.759 0 010 1.517H15.07v1.517a.759.759 0 01-1.517 0V15.07h-1.518a.759.759 0 010-1.517zM20.38 9v10.62H31V9H20.38zm7.586 6.069h-4.552a.759.759 0 010-1.517h4.552a.759.759 0 010 1.517zM20.38 31H31V20.38H20.38V31zm3.034-7.207h4.552a.759.759 0 010 1.517h-4.552a.759.759 0 010-1.517zm0 2.276h4.552a.759.759 0 010 1.517h-4.552a.759.759 0 010-1.517zM9 31h10.62V20.38H9V31zm2.877-6.67a.758.758 0 111.073-1.073l1.36 1.36 1.36-1.36a.758.758 0 111.073 1.072l-1.36 1.36 1.36 1.36a.758.758 0 11-1.072 1.074l-1.36-1.36-1.36 1.36a.755.755 0 01-1.074 0 .758.758 0 010-1.073l1.36-1.36-1.36-1.36z" fill="#FFF"/></g></svg>