<svg width="46" height="56" xmlns="http://www.w3.org/2000/svg" xmlns:xlink="http://www.w3.org/1999/xlink"><defs><rect id="a" x="28" y="0" width="15" height="15" rx="7.5"/></defs><g transform="translate(0 2)" fill="none" fill-rule="evenodd"><path d="M43.125 42.5c-1.352-1.351-12.938-7.188-12.938-7.188H15.813S4.226 41.15 2.876 42.5C.172 45.203 0 54 0 54h46s-.172-8.797-2.875-11.5z" fill="#6CAD84"/><path d="M28.75 33.876h-11.5l-1.438 1.437s2.424 4.313 7.188 4.313c4.763 0 7.188-4.313 7.188-4.313l-1.438-1.437z" fill="#50936E"/><path d="M27.313 29.563h-8.625l-1.438 4.313c0 .793 3.518 2.875 4.313 2.875h2.875c.793 0 4.312-2.082 4.312-2.875l-1.438-4.313z" fill="#DBB59A"/><path d="M26.282 9.806a9.517 9.517 0 006.685 6.853c.063.447.096.915.096 1.404 0 4.313-1.438 7.187-2.876 10.063-1.437 2.874-4.37 5.75-7.187 5.75s-5.75-2.876-7.188-5.75c-1.437-2.876-2.874-5.75-2.874-10.064 0-5.75 4.505-8.625 10.062-8.625 1.15 0 2.253.123 3.282.37z" fill="#F6CBAD"/><path d="M26.03 8.257a9.468 9.468 0 002.666 5.873c-.454 1.57-3.654 2.496-5.696 2.496h-5.75c-2.652 0-3.795 2.988-4.165 4.89-.09-.691-.148-1.37-.148-2.016 0-3.868.75-8.624 2.876-8.624C15.813 9.243 19.633 8 23 8c1.131 0 2.136.09 3.03.257zm6.919 8.397c.087.935.114 1.893.114 2.846a6.45 6.45 0 00-.8-3.066c.225.082.453.155.686.22z" fill="#818389"/><use fill="#FF6C50" xlink:href="#a"/><rect stroke="#FFF" stroke-width="2" x="27" y="-1" width="17" height="17" rx="8.5"/><rect stroke="#FFF" stroke-width=".6" fill="#FFF" x="31.333" y="6.667" width="8.333" height="1.47" rx=".735"/></g></svg>