<svg xmlns="http://www.w3.org/2000/svg" xmlns:xlink="http://www.w3.org/1999/xlink" width="20" height="20"><defs><linearGradient id="b" x1="-.024" y1=".5" x2=".989" y2=".5" gradientUnits="objectBoundingBox"><stop offset="0" stop-color="#fff9df"/><stop offset=".593" stop-color="#ffe177"/><stop offset="1" stop-color="#feb137"/></linearGradient><linearGradient id="a" x1="-.68" y1=".5" x2=".83" y2=".5" gradientUnits="objectBoundingBox"><stop offset="0" stop-color="#ffe177"/><stop offset="1" stop-color="#feb137"/></linearGradient><linearGradient id="c" x1=".17" x2=".801" xlink:href="#a"/><linearGradient id="d" x1="-.215" y1=".5" x2="1.185" y2=".5" gradientUnits="objectBoundingBox"><stop offset="0" stop-color="#feb137"/><stop offset="1" stop-color="#eca026"/></linearGradient><linearGradient id="e" x1="-.251" x2="1.163" xlink:href="#b"/></defs><circle cx="10" cy="10" r="10" fill="url(#b)"/><path d="M235.764 0q-.391 0-.774.03a9.867 9.867 0 010 19.673q.383.03.774.03a9.866 9.866 0 000-19.733z" transform="translate(-225.898)" fill="url(#a)"/><circle cx="6.969" cy="6.969" r="6.969" transform="translate(2.898 2.898)" fill="url(#c)"/><path d="M235.764 74.89a7.046 7.046 0 00-.774.043 6.969 6.969 0 010 13.851 6.969 6.969 0 10.774-13.895z" transform="translate(-225.898 -71.992)" fill="url(#d)"/><path d="M175.055 119.36v-1.929c.859.066 1.11.489 1.546.489.581 0 .819-.727.819-1.083 0-.912-1.546-1.123-2.365-1.149v-.33c0-.185-.251-.357-.5-.357-.291 0-.5.172-.5.357v.37a2.7 2.7 0 00-2.642 2.682c0 1.691 1.427 2.259 2.642 2.722v2.14c-.978-.172-1.427-.951-1.982-.951-.5 0-.9.661-.9 1.11 0 .846 1.295 1.665 2.88 1.718v.33c0 .185.211.357.5.357.251 0 .5-.172.5-.357v-.383a2.808 2.808 0 002.6-2.88c.005-1.786-1.395-2.407-2.598-2.856zm-.872-.317c-.5-.211-.846-.449-.846-.832 0-.317.251-.621.846-.74zm.74 4.215v-1.77c.476.225.806.5.806.938 0 .474-.357.726-.806.831z" transform="translate(-164.548 -110.55)" fill="url(#e)"/></svg>