<svg xmlns="http://www.w3.org/2000/svg" viewBox="0 0 496 496"><path d="M344 192H152V96c0-52.936 43.064-96 96-96s96 43.064 96 96v96z" fill="#f9ba48"/><g fill="#333"><path d="M88 168h16v56H88zm272 104c0 61.76-50.24 112-112 112s-112-50.24-112-112V168h-16v104c0 59.512 40.888 109.52 96 123.784V480h-96v16h256v-16h-96v-84.216c55.112-14.264 96-64.272 96-123.784V168h-16v104zm-96 208h-32v-81.112c5.256.664 10.568 1.112 16 1.112s10.744-.448 16-1.112V480zm128-312h16v56h-16z"/><circle cx="200" cy="152" r="8"/><circle cx="232" cy="152" r="8"/><circle cx="264" cy="152" r="8"/><circle cx="184" cy="120" r="8"/><circle cx="296" cy="152" r="8"/><circle cx="216" cy="120" r="8"/><circle cx="248" cy="120" r="8"/><circle cx="280" cy="120" r="8"/><circle cx="168" cy="152" r="8"/><circle cx="312" cy="120" r="8"/><circle cx="200" cy="96" r="8"/><circle cx="328" cy="152" r="8"/><circle cx="232" cy="96" r="8"/><circle cx="264" cy="96" r="8"/><circle cx="168" cy="96" r="8"/><circle cx="296" cy="96" r="8"/><circle cx="184" cy="72" r="8"/><circle cx="328" cy="96" r="8"/><circle cx="216" cy="72" r="8"/><circle cx="248" cy="72" r="8"/><circle cx="280" cy="72" r="8"/><circle cx="200" cy="48" r="8"/><circle cx="312" cy="72" r="8"/><circle cx="232" cy="48" r="8"/><circle cx="264" cy="48" r="8"/><circle cx="216" cy="16" r="8"/><circle cx="296" cy="48" r="8"/><circle cx="248" cy="16" r="8"/><circle cx="280" cy="16" r="8"/><path d="M248 368c52.936 0 96-43.064 96-96v-96H152v96c0 52.936 43.064 96 96 96zm80-176v16H168v-16h160zm-160 32h160v48c0 44.112-35.888 80-80 80s-80-35.888-80-80v-48z"/></g></svg>