<svg xmlns="http://www.w3.org/2000/svg" viewBox="0 0 512 512"><linearGradient id="a" gradientUnits="userSpaceOnUse" x1="236.938" y1="387.868" x2="236.938" y2="107.248" gradientTransform="matrix(1.0667 0 0 -1.0667 3.267 557.533)"><stop offset="0" stop-color="#00a6f9"/><stop offset="1" stop-color="#0071e2"/></linearGradient><circle cx="256" cy="256" r="256" fill="url(#a)"/><radialGradient id="b" cx="236.938" cy="282.688" r="294.12" gradientTransform="matrix(1.0667 0 0 -1.0667 3.267 557.533)" gradientUnits="userSpaceOnUse"><stop offset="0" stop-color="#00a6f9"/><stop offset="1" stop-color="#0071e2"/></radialGradient><circle cx="256" cy="256" r="195.84" fill="url(#b)"/><linearGradient id="c" gradientUnits="userSpaceOnUse" x1="448.326" y1="179.676" x2="172.726" y2="455.286" gradientTransform="matrix(1.0667 0 0 -1.0667 3.267 557.533)"><stop offset="0" stop-color="#008bf2" stop-opacity="0"/><stop offset="1" stop-color="#0046e2"/></linearGradient><path d="M446.925 299.75a193.277 193.277 0 01-17.024 46.387L239.245 155.469c-4.672-4.288-7.014-9.28-7.014-15.002 0-5.965 2.342-11.034 7.014-15.194 4.672-4.147 10.253-6.234 16.755-6.234 6.49 0 12.083 2.086 16.755 6.234l174.17 174.477z" fill="url(#c)"/><linearGradient id="d" gradientUnits="userSpaceOnUse" x1="373.368" y1="104.719" x2="97.758" y2="380.329" gradientTransform="matrix(1.0667 0 0 -1.0667 3.267 557.533)"><stop offset="0" stop-color="#008bf2" stop-opacity="0"/><stop offset="1" stop-color="#0046e2"/></linearGradient><path d="M420.698 362.01c-27.238 42.214-70.259 73.293-120.73 84.877-20.634-20.582-58.253-58.112-58.381-58.214-3.904-2.854-5.85-5.978-5.85-9.357V221.517c0-3.904 1.882-7.078 5.645-9.549 3.763-2.47 8.64-3.699 14.618-3.699s10.906 1.229 14.81 3.699L420.698 362.01z" fill="url(#d)"/><path d="M232.233 140.47c0-5.971 2.337-11.039 7.012-15.196 4.675-4.151 10.258-6.234 16.755-6.234 6.49 0 12.08 2.082 16.755 6.234 4.675 4.157 7.012 9.225 7.012 15.196 0 5.716-2.337 10.715-7.012 15.002-4.675 4.285-10.266 6.43-16.755 6.43-6.496 0-12.08-2.145-16.755-6.43-4.675-4.287-7.012-9.285-7.012-15.002zm3.506 238.852V221.517c0-3.899 1.881-7.075 5.65-9.547 3.762-2.467 8.633-3.702 14.611-3.702 5.973 0 10.911 1.235 14.805 3.702 3.897 2.47 5.844 5.648 5.844 9.547v157.805c0 3.378-2.014 6.497-6.038 9.353-4.03 2.863-8.9 4.287-14.611 4.287-5.718 0-10.521-1.424-14.417-4.287-3.897-2.857-5.844-5.975-5.844-9.353z" fill="#fff"/></svg>