<svg width="48" height="46" fill="none" xmlns="http://www.w3.org/2000/svg"><path d="M46.064 27.018c-.761-1.155-1.114-2.567-1.113-3.993V23c0-12.703-9.38-23-20.95-23-2.532 0-4.958.495-7.204 1.398-1.215.49-2.546.583-3.791.198a9.387 9.387 0 00-3.494-.392C4.397 1.591.28 6.193.014 11.814c-.126 2.683.606 5.172 1.922 7.168.762 1.155 1.114 2.567 1.113 3.993V23c0 12.703 9.38 23 20.95 23 2.532 0 4.958-.495 7.204-1.398 1.215-.49 2.546-.583 3.791-.198 1.1.34 2.276.484 3.494.392 5.115-.387 9.233-4.989 9.498-10.61.127-2.683-.606-5.172-1.922-7.168zm-21.297-8.141c4.224 1.102 10.608 2.769 10.608 10.489 0 3.802-1.706 6.703-4.803 8.168-2.211 1.045-4.713 1.186-6.869 1.186-6.625 0-10.809-5.655-10.984-5.896-1.085-1.494-.861-3.67.5-4.862 1.36-1.191 3.343-.945 4.428.548.01.013 2.512 3.168 6.056 3.291 4.268.149 5.244-1.245 5.37-2.435.154-1.454-1.024-2.52-5.764-3.758-4.018-1.05-10.091-2.635-10.091-9.744 0-2.214.82-9.438 11.375-9.438 6.664 0 10.598 5.76 10.762 6.006 1.031 1.54.73 3.705-.672 4.836-1.396 1.127-3.356.805-4.391-.716-.074-.105-2.326-2.855-5.7-3.207-2.552-.266-5.072.744-5.072 2.237 0 1.582.724 2.114 5.247 3.295z" fill="#00ADF2"/></svg>