<svg width="98" height="98" xmlns="http://www.w3.org/2000/svg"><g fill="none" fill-rule="evenodd"><path d="M91.852.003c-.006 0-.01-.003-.017-.003H5.651c-.006 0-.011.003-.017.003C2.52.013 0 2.46 0 5.48v86.413a5.653 5.653 0 005.65 5.656h86.185a5.654 5.654 0 005.651-5.656V5.48c0-3.02-2.52-5.468-5.634-5.477z" fill="#E3E4E8"/><path d="M88.348 18.286H6.1v70.129a3.05 3.05 0 003.047 3.05h79.2a3.048 3.048 0 003.046-3.05V18.286h-3.046z" fill="#FFF"/><circle fill="#FF6C50" cx="30.471" cy="36.584" r="6.092"/><circle fill="#50936E" cx="48.748" cy="36.584" r="6.092"/><circle fill="#4192C8" cx="67.025" cy="36.584" r="6.092"/><circle fill="#E65A40" cx="30.471" cy="54.861" r="6.092"/><circle fill="#6CAD84" cx="48.748" cy="54.861" r="6.092"/><circle fill="#E65A40" cx="67.025" cy="54.861" r="6.092"/><circle fill="#4192C8" cx="30.471" cy="73.138" r="6.092"/><circle fill="#50936E" cx="48.748" cy="73.138" r="6.092"/><circle fill="#FF6C50" cx="67.025" cy="73.138" r="6.092"/><path d="M70.07 6.09c-.106 0-.206.022-.309.033H9.148a3.047 3.047 0 000 6.092H70.07a3.047 3.047 0 003.046-3.046l-.002-.014.002-.013A3.048 3.048 0 0070.07 6.09zm9.14 0a3.049 3.049 0 000 6.098 3.048 3.048 0 003.045-3.046A3.048 3.048 0 0079.21 6.09zm9.138 0a3.049 3.049 0 000 6.098 3.048 3.048 0 003.046-3.046 3.048 3.048 0 00-3.046-3.051z" fill="#FFF"/></g></svg>