<svg width="44" height="44" xmlns="http://www.w3.org/2000/svg"><g fill="none"><path d="M43.416 16.6a1.286 1.286 0 00-1.225-.107L21.32 25.585 1.926 16.507a1.287 1.287 0 00-1.242.084c-.372.24-.598.654-.598 1.1v24.965a1.3 1.3 0 001.295 1.304h41.324A1.3 1.3 0 0044 42.656V17.69c0-.44-.22-.85-.584-1.09z" fill="#E6B24D"/><path d="M43.416 16.6a1.286 1.286 0 00-1.225-.107L21.32 25.585l-.01-.005v18.38h21.395A1.3 1.3 0 0044 42.656V17.69c0-.44-.22-.85-.584-1.09zM5.766 6.355a1.293 1.293 0 00-1.449.78L.185 17.191a1.309 1.309 0 00.65 1.683l4.133 1.934a1.285 1.285 0 001.242-.083c.372-.24.598-.654.598-1.1V7.635c0-.623-.437-1.159-1.042-1.28z" fill="#FC6"/><path d="M43.901 17.191L39.77 7.135a1.293 1.293 0 00-1.45-.78 1.302 1.302 0 00-1.041 1.28V19.49c0 .44.22.849.583 1.09a1.288 1.288 0 001.225.107l4.132-1.8c.65-.282.954-1.038.683-1.697z" fill="#E6B24D"/><path d="M20.907 28.2a1.286 1.286 0 001.06.011l17.9-7.863v-19A1.3 1.3 0 0038.572.043H5.513a1.3 1.3 0 00-1.295 1.305v19.11l16.69 7.742z" fill="#F4F4F4"/><path d="M38.572.043H21.31v28.27a1.291 1.291 0 00.657-.102l17.901-7.863v-19A1.3 1.3 0 0038.572.043z" fill="#E2E2E2"/><path d="M22.043 6.16c-4.39 0-7.96 3.598-7.96 8.022 0 4.423 3.57 8.022 7.96 8.022 4.389 0 7.96-3.599 7.96-8.022 0-4.424-3.571-8.023-7.96-8.023z" fill="#6CAD84"/><path d="M21.171 17.048c-.339 0-.676-.133-.929-.396l-1.964-2.037a1.312 1.312 0 01.027-1.845 1.288 1.288 0 011.83.026l1.127 1.17 2.786-2.347a1.288 1.288 0 011.824.164 1.312 1.312 0 01-.163 1.838L22 16.744a1.284 1.284 0 01-.83.304z" fill="#FFF"/><path d="M25.872 11.783a1.288 1.288 0 00-1.824-.164l-2.739 2.307v3.114a1.28 1.28 0 00.692-.296l3.708-3.123a1.312 1.312 0 00.163-1.838z" fill="#FFF"/></g></svg>