<svg width="56" height="35" xmlns="http://www.w3.org/2000/svg"><defs><linearGradient x1="50%" y1="0%" x2="50%" y2="100%" id="a"><stop stop-color="#FDC830" offset="0%"/><stop stop-color="#F37335" offset="100%"/></linearGradient><linearGradient x1="41.629%" y1="150.472%" x2="41.629%" y2="0%" id="b"><stop stop-color="#39393E" offset="0%"/><stop stop-color="#28282C" offset="100%"/></linearGradient></defs><g fill="none"><path d="M11.635.497h-8.05L0 18.402h5.726l.89-4.45H9.44c4.55 0 8.082-3.474 8.082-7.891 0-3.214-2.373-5.564-5.887-5.564zM8.892 9.444H7.52l.893-4.46h1.29c1.247 0 1.846.69 1.846 1.745 0 1.395-.967 2.658-2.548 2.713l-.11.002zM34.6 6.007c0-3.25-2.394-5.51-5.997-5.51h-7.989L17.03 18.402h5.704l1.003-5.006h1.707l1.437 5.006h6.03l-1.913-6.2c2.16-1.217 3.546-3.306 3.601-6.024l.002-.17zm-9.241-.715h1.533c1.173 0 1.75.596 1.754 1.464 0 1.266-.95 2.31-2.455 2.31h-1.588l.756-3.774zM44.138 18.9C50.918 18.9 56 14.48 56 7.91 56 3.292 52.668 0 47.36 0c-6.78 0-11.87 4.42-11.87 10.986 0 4.57 3.265 7.843 8.477 7.913l.17.001zm.91-5.265c-2.14 0-3.471-1.3-3.471-3.332 0-2.659 2.007-5.038 4.869-5.038 2.136 0 3.467 1.294 3.467 3.328 0 2.662-1.996 5.042-4.865 5.042z" fill="url(#a)"/><path d="M4.046 32.831c2.35 0 4.324-1.28 5.198-3.806H7.287c-.562 1.215-1.679 1.97-2.996 1.97-1.443 0-2.343-.917-2.343-2.306 0-1.95 1.601-3.753 3.554-3.753 1.23 0 2.021.702 2.207 1.837h1.924C9.563 24.636 7.94 23.1 5.72 23.1A5.696 5.696 0 000 28.824c0 2.294 1.625 4.007 4.046 4.007zm15.457-9.537h-6.184l-.543 1.914c-1.207 4.214-1.59 5.155-2.412 5.698h-.733L8.954 34.3h1.774l.331-1.663h5.703l-.33 1.663h1.773l.677-3.394h-.902l1.523-7.612zm-4.8 1.728h2.53l-1.181 5.884h-3.504l.054-.063c.694-.828 1.199-2.368 2.101-5.821zm12.589-.017l.345-1.71H22.06l-1.869 9.342h5.722l.345-1.724h-3.801l.436-2.17h3.31l.336-1.67h-3.31l.416-2.068h3.646zm10.112-1.71h-6.168l-1.87 5.97c-.316 1.015-.831 1.513-1.585 1.513h-.511l-.377 1.882h.6c1.935 0 3.1-.948 3.797-3.245l1.328-4.39h2.519l-1.527 7.612h1.925l1.87-9.343zm9.551 0h-2.357l-3.905 4.126.826-4.127h-1.925l-1.87 9.343h1.925l.96-4.801 2.696 4.8h2.128l-2.746-4.853 4.268-4.489zm7.648 0H56l-1.87 9.342h-1.924l1.143-5.688-5.58 5.688H46.43l1.87-9.343h1.924l-1.128 5.62 5.506-5.62z" fill="url(#b)"/></g></svg>