<svg width="100" height="100" xmlns="http://www.w3.org/2000/svg"><g fill="none" fill-rule="evenodd"><path d="M.824 62.519v9.725h7.07s4.421 12.82 22.545 19.227l4.64 7.958h8.62l2.652-6.41h22.323l1.99 6.41h6.85s18.753-12.293 17.934-33.153h3.726v-3.315h-4.018c-.39-2.876-1.156-5.9-2.392-9.061 0 0-7.294-18.344-34.258-18.344-26.962 0-27.625 3.314-27.625 3.314s-4.862-8.399-15.03-7.957c0 0 4.642 6.852 3.979 13.704 0 0-12.378 11.491-12.82 16.576L.824 62.519zm19.007-4.643a1.88 1.88 0 113.758.004 1.88 1.88 0 01-3.758-.004z" fill="#F8AABD"/><path fill="#632736" d="M69.54 47.554H35.856l.958-3.359h31.77z"/><g transform="translate(32.143)"><circle fill="#FC6" cx="20.238" cy="20.238" r="20.238"/><circle fill="#E4B24D" cx="20.238" cy="20.238" r="17.708"/><circle fill="#FC6" cx="20.468" cy="20.468" r="12.649"/><path d="M24.838 22.832c0-2.502-2.116-3.238-4.03-3.735v-2.575c.828.202 1.638.588 2.282 1.196l1.453-1.914c-.993-.901-2.244-1.49-3.735-1.637v-1.748h-1.747v1.71c-2.466.24-3.956 1.822-3.956 3.699 0 2.484 2.06 3.22 3.956 3.68v2.888a5.433 5.433 0 01-2.926-1.564L14.72 24.82c1.012 1.012 2.41 1.748 4.342 1.914v1.656h1.747v-1.675c2.705-.276 4.03-1.858 4.03-3.882zm-7.047-5.225c0-.662.497-1.14 1.435-1.233v2.337c-.846-.22-1.435-.534-1.435-1.104zm2.852 6.844v-2.575c.883.257 1.527.57 1.527 1.25 0 .608-.478 1.178-1.527 1.325z" fill="#E4B24D"/></g></g></svg>