<svg width="47" height="34" fill="none" xmlns="http://www.w3.org/2000/svg"><path d="M7.45 33.588c.229.229.515.344.802.344.286 0 .573-.115.802-.344l31.64-31.64a1.108 1.108 0 000-1.604 1.108 1.108 0 00-1.606 0L7.45 31.983c-.458.401-.458 1.146 0 1.605zm16.049-23.5c.86 0 1.662.172 2.465.458.573.23 1.26-.057 1.49-.63.229-.574-.058-1.261-.63-1.49-1.09-.402-2.179-.631-3.325-.631-5.044 0-9.17 4.127-9.17 9.17 0 1.147.228 2.236.63 3.325.172.459.63.745 1.089.745.114 0 .286 0 .4-.057.574-.23.86-.917.631-1.49-.286-.86-.458-1.663-.458-2.522 0-3.783 3.095-6.878 6.878-6.878zm.001 13.756a5.915 5.915 0 01-1.72-.23c-.63-.171-1.26.23-1.376.803-.171.63.23 1.261.803 1.376.802.23 1.547.287 2.293.287 5.043 0 9.17-4.127 9.17-9.171 0-.745-.114-1.548-.286-2.293-.172-.63-.803-.974-1.376-.802-.63.172-.974.802-.802 1.375.172.573.229 1.147.229 1.72-.057 3.84-3.152 6.935-6.935 6.935z" fill="#000"/><path d="M10.947 26.08c.402 0 .803-.23.975-.574a1.111 1.111 0 00-.401-1.547c-2.809-1.663-5.732-3.898-8.77-6.707C12.896 7.623 20.863 4.642 29.29 7.337c.63.171 1.26-.115 1.433-.746.172-.63-.115-1.26-.745-1.433-9.457-2.98-18.57.459-29.633 11.235-.23.229-.344.515-.344.802v.057c0 .287.115.63.344.803 3.439 3.381 6.706 5.904 10.03 7.852.172.172.344.172.573.172zM47 17.31v-.058c0-.286-.114-.63-.343-.802-3.382-3.267-6.42-5.79-9.458-7.738-.516-.344-1.26-.172-1.605.344-.344.516-.172 1.261.344 1.605 2.637 1.72 5.33 3.898 8.311 6.649-9.17 8.655-17.424 11.75-25.792 9.629a1.098 1.098 0 00-1.376.86c-.172.63.23 1.26.86 1.375 1.834.459 3.668.688 5.502.688 7.509 0 15.19-3.84 23.213-11.693.23-.286.344-.573.344-.86z" fill="#000"/></svg>