<svg width="18" height="20" xmlns="http://www.w3.org/2000/svg"><g fill="#6CAD84"><path d="M7.623 10.137c2.817 0 3.83-2.82 4.095-5.136C12.045 2.148 10.695 0 7.623 0S3.201 2.147 3.528 5c.266 2.317 1.279 5.137 4.095 5.137z"/><path d="M13.781 11.31c.09 0 .18.004.27.009a2.153 2.153 0 00-.47-.496c-.541-.404-1.242-.536-1.862-.78a8.056 8.056 0 01-.825-.37c-.856.939-1.972 1.43-3.271 1.43s-2.415-.491-3.27-1.43a8.056 8.056 0 01-.826.37c-.62.244-1.32.376-1.861.78-.936.699-1.178 2.27-1.368 3.342a19.216 19.216 0 00-.293 2.687c-.024.696.32.793.902 1.004.73.263 1.483.458 2.24.618 1.465.31 2.974.547 4.476.557a17.995 17.995 0 002.183-.158 4.8 4.8 0 01-.852-2.735 4.833 4.833 0 014.827-4.827z"/><path d="M13.781 12.276a3.862 3.862 0 100 7.724 3.862 3.862 0 000-7.724zm1.69 4.525h-1.027v1.027a.663.663 0 11-1.325 0V16.8h-1.027a.663.663 0 110-1.325h1.027v-1.027a.663.663 0 011.325 0v1.027h1.027a.663.663 0 010 1.325z"/></g></svg>