<svg xmlns="http://www.w3.org/2000/svg" width="16.85" height="21.96"><path d="M15.86 9.59L15.57 9l-.57.31a3 3 0 01-1.38.33 3.06 3.06 0 01-3-3.07V5.48A7.85 7.85 0 008.93.63L8.42 0 2 8.13a8.52 8.52 0 00-2 5.29 8.33 8.33 0 002.44 6 8.32 8.32 0 006 2.53 8.41 8.41 0 007.42-12.36zm-5.47 10.27a2.77 2.77 0 01-2 .82 2.79 2.79 0 01-2-.84 2.78 2.78 0 01-.16-3.73l2-2.56a2.44 2.44 0 01.13.8v.48a2.28 2.28 0 002.25 2.28 2.31 2.31 0 00.37 0 2.8 2.8 0 01-.69 2.78zm3.08-1.27a7.21 7.21 0 01-1.39 1.08 4 4 0 00.41-1.77A4.07 4.07 0 0012 16l-.29-.56-.56.29a1 1 0 01-1.41-.89v-.48A3.77 3.77 0 008.93 12l-.51-.64-3.12 3.93a4.09 4.09 0 00-.94 2.55 4 4 0 00.4 1.81 7.16 7.16 0 01-1.41-1.12 7.06 7.06 0 01-2.06-5.1A7.16 7.16 0 013 9l5.39-6.89a6.56 6.56 0 01.94 3.37v1.09a4.35 4.35 0 004.29 4.35 4.2 4.2 0 001.38-.21 7.24 7.24 0 01.58 2.83 7.09 7.09 0 01-2.11 5.05z" fill="#aeb0b5" fill-rule="evenodd"/></svg>