<svg width="60" height="44" xmlns="http://www.w3.org/2000/svg"><g fill="none" fill-rule="evenodd"><path d="M40.91 33c-1.283-1.293-12.274-6.875-12.274-6.875H15S4.01 31.707 2.727 33C.164 35.586 0 44 0 44h43.636s-.163-8.414-2.727-11z" fill="#6CAD84"/><path d="M27.273 24.75h-10.91L15 26.127s2.3 4.125 6.818 4.125c4.519 0 6.818-4.125 6.818-4.125l-1.363-1.375z" fill="#50936E"/><path d="M25.91 20.626h-8.183l-1.363 4.125c0 .759 3.337 2.75 4.09 2.75h2.728c.753 0 4.09-1.991 4.09-2.75l-1.363-4.125z" fill="#DBB59A"/><path d="M21.818 1.375c-5.272 0-9.545 2.75-9.545 8.25 0 4.126 1.363 6.875 2.727 9.626 1.364 2.749 4.146 5.5 6.818 5.5 2.672 0 5.455-2.751 6.818-5.5 1.364-2.751 2.728-5.5 2.728-9.626 0-5.5-4.275-8.25-9.546-8.25z" fill="#F6CBAD"/><path d="M21.818 0C18.624 0 15 1.19 15 2.75c-2.017 0-2.727 4.55-2.727 8.25 0 .617.054 1.267.14 1.928.35-1.82 1.435-4.677 3.95-4.677h5.455c2.089 0 5.455-1.03 5.455-2.751 1.77-.023 4.09 2.517 4.09 5.5 0-5.406-.875-11-9.545-11z" fill="#818389"/><path d="M39.273 11.509c1.07 1.279 2.635 2.058 4.914 2.058 2.953 0 5.033-1.738 5.033-4.516 0-2.717-2.001-4.296-4.22-4.296-1.269 0-2.359.52-2.993 1.16V2.057h6.341V0h-8.66v7.453l1.646.48c.832-.8 1.763-1.16 2.893-1.16 1.625 0 2.655.94 2.655 2.378 0 1.299-1.05 2.338-2.715 2.338-1.486 0-2.675-.56-3.567-1.578l-1.327 1.598zm16.486-4.236h3.666V5.914H55.76V1.918h-1.466v3.996h-3.666v1.359h3.666v4.136h1.466V7.273z" fill="#5AA6D9"/></g></svg>