<svg width="40" height="37" xmlns="http://www.w3.org/2000/svg"><path d="M20 0L0 8.333l6.667 2.777v8.727C5.71 20.75 5 21.922 5 23.333c0 2.07 1.43 3.605 3.239 4.356 2.168 5.183 6.511 8.978 11.761 8.978 5.25 0 9.593-3.795 11.761-8.978 1.81-.75 3.239-2.286 3.239-4.356 0-1.411-.71-2.584-1.667-3.496V11.11l3.334-1.39v8.613H40v-10L20 0zm-8.333 16.667h16.666c.92 0 1.667.746 1.667 1.666v3.086l.837.479c.506.29.83.794.83 1.435 0 .859-.615 1.522-1.436 1.634l-.976.137-.355.918c-1.718 4.477-5.136 7.311-8.9 7.311-3.764 0-7.182-2.834-8.9-7.31l-.355-.919-.976-.137c-.82-.112-1.436-.775-1.436-1.634 0-.641.324-1.145.83-1.435l.837-.479v-3.086c0-.92.747-1.666 1.667-1.666z" fill="#E65A40"/></svg>