<svg width="56" height="56" xmlns="http://www.w3.org/2000/svg"><path d="M28 0C12.564 0 0 12.564 0 28s12.564 28 28 28 28-12.564 28-28S43.436 0 28 0zm-4.389 5.09l.465 4.663a18.553 18.553 0 00-6.198 2.579l-2.985-3.65a23.183 23.183 0 018.718-3.592zm8.778 0a23.183 23.183 0 018.718 3.592l-2.985 3.65a18.553 18.553 0 00-6.198-2.58l.465-4.662zM8.682 14.893l3.65 2.985a18.553 18.553 0 00-2.58 6.198l-4.662-.465a23.183 23.183 0 013.592-8.718zm38.636 0a23.183 23.183 0 013.592 8.718l-4.663.465a18.553 18.553 0 00-2.579-6.198l3.65-2.985zM28 16.333c6.442 0 11.667 5.225 11.667 11.667S34.442 39.667 28 39.667 16.333 34.442 16.333 28 21.558 16.333 28 16.333zM9.753 31.923a18.553 18.553 0 002.579 6.199l-3.65 2.985a23.183 23.183 0 01-3.592-8.718l4.663-.465zm36.494 0l4.663.466a23.183 23.183 0 01-3.592 8.718l-3.65-2.985a18.553 18.553 0 002.58-6.198zM17.878 43.669a18.553 18.553 0 006.198 2.58l-.465 4.662a23.183 23.183 0 01-8.718-3.592l2.985-3.65zm20.244 0l2.985 3.65a23.183 23.183 0 01-8.718 3.592l-.465-4.663a18.553 18.553 0 006.198-2.579z" fill="#6CAD84"/></svg>