<svg width="26" height="34" xmlns="http://www.w3.org/2000/svg"><g fill="none" fill-rule="evenodd"><path d="M13 0S9.06 4.69 0 4.69v11.187c0 5.843 2.557 11.477 7.188 15.086C8.826 32.241 10.759 33.341 13 34c2.24-.66 4.173-1.759 5.812-3.037C23.442 27.353 26 21.72 26 15.877V4.69C16.94 4.69 13 0 13 0z" fill="#99B9CE"/><path d="M13 30.284a14.386 14.386 0 01-3.621-2.086c-3.653-2.847-5.834-7.453-5.834-12.32v-7.89C7.913 7.437 11.014 5.929 13 4.59c1.986 1.339 5.087 2.846 9.455 3.399v7.888c0 4.868-2.18 9.474-5.833 12.321A14.4 14.4 0 0113 30.284z" fill="#4192C8"/><path d="M15.955 22.276l-1.588-6.3a2.331 2.331 0 00.997-1.907A2.354 2.354 0 0013 11.724a2.354 2.354 0 00-2.364 2.345c0 .788.396 1.482.997 1.907l-1.588 6.3h5.91z" fill="#FAFAFA"/></g></svg>