<svg width="40" height="40" xmlns="http://www.w3.org/2000/svg"><g fill="none" fill-rule="evenodd"><path d="M39.633 5.802a1.22 1.22 0 00-.959-.48H8.384c-.387 0-.754.192-.99.52-.235.33-.315.755-.216 1.154l3.993 15.914c.147.585.64.987 1.205.987.02 0 .042 0 .062-.002l23.804-1.278c.576-.032 1.06-.481 1.165-1.088l2.495-14.636a1.387 1.387 0 00-.27-1.091z" fill="#FFC107"/><path d="M31.19 18.628c-.69 0-1.248-.596-1.248-1.33v-5.323c0-.734.558-1.33 1.247-1.33.689 0 1.248.596 1.248 1.33v5.323c0 .734-.56 1.33-1.248 1.33zm-7.486 0c-.689 0-1.248-.596-1.248-1.33v-5.323c0-.734.559-1.33 1.248-1.33.688 0 1.247.596 1.247 1.33v5.323c0 .734-.559 1.33-1.247 1.33zm-7.486 0c-.688 0-1.247-.596-1.247-1.33v-5.323c0-.734.559-1.33 1.247-1.33.689 0 1.248.596 1.248 1.33v5.323c0 .734-.559 1.33-1.248 1.33z" fill="#FAFAFA"/><g fill="#455A64"><ellipse cx="16.218" cy="35.925" rx="3.743" ry="3.992"/><ellipse cx="31.189" cy="35.925" rx="3.743" ry="3.992"/><path d="M33.684 29.273h-19.96c-.567 0-1.061-.405-1.206-.988L6.103 2.661H1.248C.558 2.661 0 2.065 0 1.331 0 .596.559 0 1.248 0H7.06c.567 0 1.06.404 1.205.987l6.415 25.624h19.003c.689 0 1.248.596 1.248 1.33 0 .735-.56 1.33-1.248 1.33z"/></g></g></svg>