<svg width="21" height="20" xmlns="http://www.w3.org/2000/svg"><g fill="none"><path d="M20.21 7.292l-6.592-.611L10.999.6a.528.528 0 00-.97 0L7.41 6.68l-6.593.612a.528.528 0 00-.3.923l4.975 4.37-1.456 6.459a.528.528 0 00.785.57l5.693-3.38 5.693 3.38a.528.528 0 00.785-.57l-1.456-6.459 4.975-4.37a.528.528 0 00-.3-.923z" fill="#FC6"/><path d="M11.951 2.811L11 .6a.528.528 0 00-.97 0L7.41 6.68l-6.593.612a.528.528 0 00-.3.923l4.975 4.37-1.456 6.459a.528.528 0 00.785.57l.758-.45c1.242-8.04 4.734-13.943 6.372-16.353z" fill="#E6B24D"/></g></svg>