<svg width="16" height="16" xmlns="http://www.w3.org/2000/svg"><defs><linearGradient x1="14.645%" y1="85.355%" x2="85.355%" y2="14.646%" id="a"><stop stop-color="gray" offset="0%"/><stop stop-color="#F2F2F2" offset="100%"/></linearGradient><linearGradient x1="-6.857%" y1="106.917%" x2="90.217%" y2="9.723%" id="c"><stop stop-color="#CCC" offset="0%"/><stop stop-color="#E6E6E6" offset="82%"/><stop stop-color="#F2F2F2" offset="100%"/></linearGradient><linearGradient x1="-9.866%" y1="-808.068%" x2="109.187%" y2="-688.867%" id="d"><stop stop-color="#CCC" offset="0%"/><stop stop-color="#E6E6E6" offset="82%"/><stop stop-color="#F2F2F2" offset="100%"/></linearGradient><linearGradient x1="24.647%" y1="-1016.064%" x2="69.993%" y2="-970.661%" id="e"><stop stop-color="#CCC" offset="0%"/><stop stop-color="#E6E6E6" offset="82%"/><stop stop-color="#F2F2F2" offset="100%"/></linearGradient><linearGradient x1="-12.025%" y1="-1058.517%" x2="129.691%" y2="-916.624%" id="f"><stop stop-color="#CCC" offset="0%"/><stop stop-color="#E6E6E6" offset="82%"/><stop stop-color="#F2F2F2" offset="100%"/></linearGradient><linearGradient x1="50%" y1="108.029%" x2="50%" y2="12.256%" id="g"><stop stop-color="#666" offset="0%"/><stop stop-color="#8B8B8B" offset="33.253%"/><stop stop-color="#CCC" offset="100%"/></linearGradient><linearGradient x1="97.886%" y1="60.143%" x2="2.114%" y2="60.143%" id="h"><stop stop-color="#666" offset="0%"/><stop stop-color="#8B8B8B" offset="33.253%"/><stop stop-color="#CCC" offset="100%"/></linearGradient><linearGradient x1="50%" y1="12.256%" x2="50%" y2="108.029%" id="i"><stop stop-color="#666" offset="0%"/><stop stop-color="#8B8B8B" offset="33.253%"/><stop stop-color="#CCC" offset="100%"/></linearGradient><linearGradient x1="15.377%" y1="73.406%" x2="84.623%" y2="73.406%" id="j"><stop stop-color="#666" offset="0%"/><stop stop-color="#8B8B8B" offset="33.253%"/><stop stop-color="#CCC" offset="100%"/></linearGradient><linearGradient x1="-47.758%" y1="147.758%" x2="100.426%" y2="-.426%" id="k"><stop stop-color="#999" offset="0%"/><stop stop-color="#E6E6E6" offset="100%"/></linearGradient><linearGradient x1="2.044%" y1="97.956%" x2="71.343%" y2="28.66%" id="l"><stop stop-color="gray" offset="28%"/><stop stop-color="#CCC" offset="100%"/></linearGradient><linearGradient x1="-38.3%" y1="138.3%" x2="136.983%" y2="-36.983%" id="m"><stop stop-color="#CCC" offset="0%"/><stop stop-color="#F2F2F2" offset="17%"/><stop stop-color="#FFF" offset="100%"/></linearGradient><linearGradient x1="3.324%" y1="80.888%" x2="136.309%" y2="-27.683%" id="n"><stop stop-color="#B3B3B3" offset="0%"/><stop stop-color="#E6E6E6" offset="17%"/><stop stop-color="#FFF" offset="100%"/></linearGradient><radialGradient cx="50%" cy="50%" fx="50%" fy="50%" r="50%" id="b"><stop stop-color="#606060" offset="0%"/><stop stop-color="#689171" stop-opacity=".87" offset="13%"/><stop stop-color="#B0CDB7" stop-opacity=".63" offset="37%"/><stop stop-color="#C9DDCF" stop-opacity=".33" offset="67%"/><stop stop-color="#E5EFE7" stop-opacity="0" offset="100%"/></radialGradient></defs><g fill="none"><circle fill="url(#a)" cx="8" cy="8" r="8"/><circle fill="url(#b)" cx="8" cy="8" r="8"/><path d="M12.98 3.008a7.531 7.531 0 00-2.313-1.589c-.697.71-1.404 1.427-2.12 2.152a611.342 611.342 0 003.869 3.875 691.75 691.75 0 012.15-2.123 7.54 7.54 0 00-1.588-2.313l.001-.002z" fill="url(#c)"/><path d="M3.006 3.008A7.54 7.54 0 001.418 5.32c.709.698 1.425 1.405 2.15 2.123 1.291-1.281 2.59-2.58 3.87-3.875a736.96 736.96 0 01-2.121-2.151c-.863.38-1.647.92-2.311 1.59z" fill="url(#d)"/><path d="M3.006 12.992a7.525 7.525 0 002.312 1.589c.697-.71 1.404-1.427 2.12-2.152A611.342 611.342 0 003.57 8.554c-.722.717-1.439 1.424-2.15 2.123a7.55 7.55 0 001.587 2.315z" fill="url(#e)"/><path d="M12.98 12.992a7.54 7.54 0 001.587-2.312 856.371 856.371 0 01-2.15-2.123 572.675 572.675 0 00-3.87 3.875c.716.723 1.423 1.44 2.121 2.151a7.531 7.531 0 002.311-1.59z" fill="url(#f)"/><path d="M10.668 1.42a6.61 6.61 0 00-5.351 0c.397 1.013.805 2.032 1.224 3.055a280.94 280.94 0 012.903 0 249.5 249.5 0 001.224-3.056z" fill="url(#g)"/><path d="M1.418 5.322a6.628 6.628 0 000 5.356c1.013-.397 2.03-.806 3.053-1.225-.005-.969-.005-1.937 0-2.906a259.22 259.22 0 00-3.053-1.225z" fill="url(#h)"/><path d="M10.668 14.58a221.866 221.866 0 00-1.224-3.055c-.968.005-1.935.005-2.903 0a263.008 263.008 0 00-1.224 3.056 6.61 6.61 0 005.351 0z" fill="url(#i)"/><path d="M14.567 10.678a6.63 6.63 0 000-5.356c-1.014.397-2.031.806-3.053 1.225.005.969.005 1.937 0 2.906 1.021.417 2.039.825 3.053 1.225z" fill="url(#j)"/><circle fill="url(#k)" cx="8" cy="8" r="5.834"/><path d="M8 2.353a5.647 5.647 0 11-3.993 1.654A5.61 5.61 0 018 2.353m0-.187a5.834 5.834 0 100 11.669 5.834 5.834 0 000-11.67z" fill="#FFF"/><path d="M8 3.01C5.281 3.014 3.015 5.28 3.01 8c.005 2.719 2.271 4.985 4.99 4.99 2.719-.005 4.985-2.271 4.99-4.99-.004-2.719-2.27-4.985-4.99-4.99z" fill="url(#l)"/><path d="M8 3.93C5.77 3.934 3.933 5.77 3.93 8c0 2.23 1.84 4.067 4.07 4.07 2.23.001 4.067-1.84 4.07-4.07.001-2.23-1.84-4.067-4.07-4.07z" fill="url(#m)"/><path d="M8.67 10.727c-2.24 0-4.072-1.829-4.067-4.062a4.05 4.05 0 01.16-1.112A4.027 4.027 0 003.93 8c.002 2.23 1.838 4.067 4.069 4.07 1.848 0 3.421-1.264 3.913-2.96a4.09 4.09 0 01-3.244 1.617z" fill="url(#n)"/><path d="M4.462 9.194l.528-2.396h1.264a.697.697 0 01.704.708c0 .348-.23.934-1.06.934h-.545l-.165.754h-.726zm1.473-1.386c.133 0 .273-.08.273-.219 0-.108-.076-.158-.198-.158h-.434l-.083.377h.442zm.84.962l.431-.517c.166.216.503.367.826.367.137 0 .19-.063.19-.105 0-.2-1.145-.193-1.145-.894 0-.417.344-.859 1.027-.859.392 0 .783.137 1.045.4l-.434.502a1.093 1.093 0 00-.73-.29c-.093 0-.147.042-.147.096 0 .19 1.15.201 1.15.895 0 .502-.396.873-1.013.873-.51 0-.963-.184-1.2-.468zm2.267.424l.528-2.396h1.264a.697.697 0 01.704.708c0 .348-.23.934-1.06.934h-.546l-.165.754h-.725zm1.472-1.386c.133 0 .273-.08.273-.219 0-.108-.075-.158-.197-.158h-.434l-.082.377h.44z" fill="#000"/></g></svg>