<svg width="60" height="47" xmlns="http://www.w3.org/2000/svg"><g fill="none" fill-rule="evenodd"><path fill="#F2BA49" d="M29.119 26.746h1.731v9.879h-1.731zm-2.863.91c-11.547 0-14.065-14.459-14.6-20.794-.062-.878.22-1.756.819-2.383.597-.659 1.447-1.004 2.328-1.004h4.31V5.2h-4.341c-.41 0-.756.157-1.039.439a1.324 1.324 0 00-.377 1.066c.503 6.022 2.863 19.916 13.686 19.194l.126 1.725c-.283.032-.629.032-.912.032zm7.488 0c11.547 0 14.065-14.459 14.6-20.794.062-.878-.22-1.756-.819-2.383-.597-.659-1.447-1.004-2.328-1.004h-4.31V5.2h4.31c.409 0 .755.157 1.038.439.283.282.41.659.378 1.066-.504 6.022-2.863 19.916-13.687 19.194l-.126 1.725c.315.032.661.032.944.032z"/><path d="M30 28.596c6.702 0 12.176-12.45 12.806-28.383H17.194c.63 15.932 6.104 28.383 12.806 28.383z" fill="#FC6"/><path d="M36.607 37.848c-1.447-2.1-3.838-3.48-6.607-3.48a8.016 8.016 0 00-6.607 3.48h13.214z" fill="#F2BA49"/><path fill="#28282C" d="M21.694 37.848h16.644v.659H21.694zm0 8.061h16.644v.659H21.694z"/><path fill="#48494F" d="M22.323 38.507h15.386v7.402H22.323z"/><g fill="#E3E4E8"><path d="M4.244 23.46s.752-1.63-.4-3.38C2.69 18.329.882 17.982.882 17.982s-.83 1.928.296 3.635c1.122 1.706 3.065 1.845 3.065 1.845zm3.232.281s1.851-.589 2.537-2.511c.684-1.926-.585-3.601-.585-3.601s-1.67.762-2.373 2.734c-.7 1.974.42 3.378.42 3.378zm.714 2.166c-.437 2.048.862 3.297.862 3.297s1.76-.827 2.185-2.82c.423-1.995-1.056-3.494-1.056-3.494s-1.554.97-1.992 3.017zm4.101 6.88s1.673-.984 1.906-3.01c.235-2.027-1.382-3.38-1.382-3.38s-1.455 1.111-1.7 3.193c-.24 2.079 1.176 3.197 1.176 3.197zm4.279 3.382s1.317-1.423.952-3.428c-.368-2.008-2.31-2.845-2.31-2.845s-1.07 1.48-.696 3.54c.376 2.06 2.054 2.733 2.054 2.733zM5.779 19.208s1.54-.94 1.56-3.033c.021-2.092-1.285-3.373-1.285-3.373S4.281 13.948 4.26 15.99c-.022 2.037 1.519 3.218 1.519 3.218zm-.539 8.455s.233-1.774-1.39-3.114C2.225 23.213.398 23.41.398 23.41s-.22 2.085 1.362 3.39c1.585 1.3 3.481.864 3.481.864zm2.41 3.993s-.17-1.788-2.054-2.73c-1.885-.949-3.623-.351-3.623-.351s.253 2.08 2.09 3.003c1.835.92 3.588.078 3.588.078zm.165 1.084c-2.087-.339-3.56.75-3.56.75s.877 1.906 2.908 2.238c2.032.328 3.446-1 3.446-1S9.9 33.08 7.815 32.74zm4.065 3.255c-2.11-.088-3.445 1.164-3.445 1.164s1.101 1.794 3.16 1.88c2.056.085 3.297-1.4 3.297-1.4s-.9-1.557-3.012-1.644z"/><path d="M6.261 20.339l-.983-.223c-.025.107-2.29 10.69 12.993 18.494l.462-.886C4.186 30.294 6.17 20.741 6.261 20.339zm49.497 3.133s1.941-.137 3.067-1.845c1.125-1.707.294-3.635.294-3.635s-1.807.347-2.96 2.1c-1.157 1.749-.4 3.38-.4 3.38zm-3.234.28s1.125-1.404.425-3.378c-.704-1.974-2.373-2.736-2.373-2.736s-1.27 1.675-.583 3.601c.681 1.925 2.531 2.513 2.531 2.513zm-1.576 5.463s1.299-1.249.863-3.295c-.434-2.048-1.99-3.018-1.99-3.018s-1.479 1.498-1.056 3.494c.42 1.992 2.183 2.819 2.183 2.819zm-3.759-2.806s-1.617 1.354-1.382 3.38c.232 2.026 1.904 3.01 1.904 3.01s1.413-1.12 1.175-3.198c-.244-2.082-1.697-3.192-1.697-3.192zm-4.708 6.341c-.365 2.01.952 3.428.952 3.428s1.679-.672 2.055-2.73c.375-2.061-.697-3.541-.697-3.541s-1.945.837-2.31 2.843zm11.742-13.531s1.539-1.18 1.517-3.218c-.02-2.04-1.793-3.188-1.793-3.188s-1.307 1.28-1.285 3.373c.022 2.094 1.561 3.033 1.561 3.033zm5.382 4.201s-1.827-.194-3.454 1.14c-1.624 1.34-1.39 3.114-1.39 3.114s1.899.438 3.482-.865c1.58-1.304 1.362-3.389 1.362-3.389zm-5.199 5.516c-1.886.945-2.057 2.73-2.057 2.73s1.751.84 3.588-.082c1.837-.923 2.09-3.004 2.09-3.004s-1.738-.592-3.621.356zm-2.219 3.816c-2.085.34-2.794 1.987-2.794 1.987s1.414 1.328 3.446 1c2.032-.33 2.91-2.238 2.91-2.238s-1.477-1.087-3.562-.75zm-7.079 4.894s1.24 1.486 3.297 1.4c2.057-.086 3.16-1.877 3.16-1.877S50.229 35.914 48.12 36c-2.108.09-3.012 1.645-3.012 1.645z"/><path d="M54.722 20.127l-.983.223c.091.402 2.079 9.955-12.472 17.385l.462.886c15.283-7.805 13.018-18.387 12.993-18.494z"/></g><path d="M23.115 6.299h1.19l1.807 4.707L27.92 6.3h1.19l-2.345 5.814H25.46L23.115 6.3zm6.648 0h1.047v5.814h-1.047V6.3zm2.317 0h2.622c.406 0 .755.081 1.047.244.292.163.516.384.671.663.155.279.233.584.233.915 0 .331-.078.636-.233.915-.155.28-.38.5-.676.663a2.131 2.131 0 01-1.042.244h-1.575v2.17H32.08V6.3zm3.213 1.15c-.191-.168-.436-.252-.734-.252h-1.432v1.848h1.432c.298 0 .543-.084.734-.253a.851.851 0 00.286-.671.851.851 0 00-.286-.671z" fill="#DCA639"/></g></svg>