<svg xmlns="http://www.w3.org/2000/svg" viewBox="0 0 89.26 66.04"><defs><style>.a{fill:#dadbe1}.a,.b,.d,.e{fill-rule:evenodd}.b{fill:#d64226}.d{fill:#e2e4e8}.e{fill:#ff6c50}</style></defs><path class="a" d="M20.07 3.54a3.06 3.06 0 00-1.83.66 2.74 2.74 0 00-.64 3.94c1.88 2.7 4.88 4.52 8.94 5.42a24.33 24.33 0 00-4.38-8.93 2.66 2.66 0 00-2.09-1.09zm8.72 14h-.21c-6.36-.77-11-3.23-13.85-7.32a6.31 6.31 0 011.39-8.8 6.15 6.15 0 018.75 1 28.42 28.42 0 015.66 13.14A1.78 1.78 0 0130 17a1.74 1.74 0 01-1.21.51zm17.88-14a2.66 2.66 0 00-2.09 1.1 24.36 24.36 0 00-4.38 8.93c4.06-.9 7.06-2.71 8.94-5.42a2.74 2.74 0 00-.64-3.95 3.06 3.06 0 00-1.83-.66zm-8.72 14A1.75 1.75 0 0136.7 17a1.78 1.78 0 01-.5-1.47 28.44 28.44 0 015.66-13.14 6.15 6.15 0 018.76-1A6.31 6.31 0 0152 10.18c-2.84 4.08-7.5 6.54-13.85 7.32z"/><path class="b" d="M66.73 17.79v11.78H0V17.79a2 2 0 012-2.05h62.7a2 2 0 012.03 2.05z"/><path class="b" d="M63.59 27.18v33.45a2.83 2.83 0 01-2.82 2.85H6a2.83 2.83 0 01-2.82-2.85V27.18z"/><path fill="#ba412b" fill-rule="evenodd" d="M63.59 29.57v4.78H3.15v-4.78h60.44z"/><path class="d" d="M38.35 13.53V63.6H29.2V13.53a4.41 4.41 0 014.38-4.43H34a4.41 4.41 0 014.35 4.43z"/><path class="a" d="M56.59 24.23a2.15 2.15 0 00-1.28.46 1.91 1.91 0 00-.45 2.75 9.85 9.85 0 006.26 3.78A16.94 16.94 0 0058.05 25a1.86 1.86 0 00-1.46-.77zm6.1 9.77h-.15c-4.45-.54-7.71-2.26-9.7-5.1a4.39 4.39 0 011-6.14 4.32 4.32 0 016.13.7 19.78 19.78 0 014 9.16 1.24 1.24 0 01-.35 1 1.22 1.22 0 01-.93.38zm12.52-9.77a1.86 1.86 0 00-1.47.76 17 17 0 00-3.07 6.23 9.85 9.85 0 006.26-3.78 1.91 1.91 0 00-.45-2.75 2.15 2.15 0 00-1.27-.46zM69.1 34a1.22 1.22 0 01-.87-.36 1.24 1.24 0 01-.35-1 19.79 19.79 0 014-9.16 4.32 4.32 0 016.13-.7 4.39 4.39 0 011 6.14c-2 2.85-5.25 4.56-9.7 5.1z"/><path class="e" d="M89.26 34.17v8.21H42.54v-8.21A1.43 1.43 0 0144 32.74h43.83a1.43 1.43 0 011.43 1.43z"/><path class="e" d="M87.05 40.72V64a2 2 0 01-2 2H46.72a2 2 0 01-2-2V40.72z"/><path fill="#e65a40" fill-rule="evenodd" d="M87.05 42.39v3.33h-42.3v-3.33h42.3z"/><path class="d" d="M69.1 31.12V66h-6.41V31.12A3.08 3.08 0 0165.76 28H66a3.08 3.08 0 013.1 3.12z"/></svg>