<svg xmlns="http://www.w3.org/2000/svg" width="20" height="20"><path d="M0 0h20v20H0z" fill="none"/><path d="M3.93 17.998H2.465A1.457 1.457 0 011 16.548V7.854a1.457 1.457 0 011.465-1.45H3.93a1.457 1.457 0 011.465 1.45v8.694a1.459 1.459 0 01-1.465 1.45z" fill="#4e906b"/><path d="M18.572 9.9a3.513 3.513 0 00-3.53-3.493h-2.915a6.607 6.607 0 00.308-1.985C12.435 2.072 11.161 1 9.991 1 8.234 1 8.234 2.854 8.234 3.754a3.908 3.908 0 01-1.742 2.7 2.864 2.864 0 01.367 1.406v8.69a3.9 3.9 0 01-.029.391A16.464 16.464 0 0013.067 18h1.111a3.584 3.584 0 003.558-2.928l-.059-.015c.719-1.478.895-5.117.895-5.157z" fill="#6cad84"/></svg>