<svg width="66" height="55" xmlns="http://www.w3.org/2000/svg"><g fill="none" fill-rule="evenodd"><path d="M26.643.217H3.463C5.493 6.713 6.768 16.555 6.768 27.5S5.494 48.287 3.463 54.783h23.18c-2.032-6.496-3.306-16.338-3.306-27.283S24.651 6.713 26.643.217z" fill="#434655"/><path d="M3.463.217H1.75C.913.217.236 1.004.236 1.988v51.063c0 .984.677 1.772 1.514 1.772h1.713c2.03-6.496 3.305-16.339 3.305-27.284S5.494 6.713 3.463.217zm26.446 52.834V1.95c0-.984-.677-1.772-1.514-1.772h-1.712c-2.032 6.496-3.306 16.339-3.306 27.284s1.274 20.787 3.306 27.283h1.712c.837.04 1.514-.748 1.514-1.693z" fill="#AFB0B5"/><ellipse fill="#818389" cx="15.053" cy="17.421" rx="12.904" ry="12.756"/><ellipse fill="#D1D4D0" cx="15.053" cy="17.421" rx="9.081" ry="8.976"/><ellipse fill="#5AA6D9" cx="15.053" cy="17.421" rx="8.085" ry="7.992"/><ellipse fill="#3A7DAA" cx="15.053" cy="17.421" rx="5.297" ry="5.236"/><ellipse fill="#D1D4D0" opacity=".37" transform="rotate(-45 11.7 13.853)" cx="11.7" cy="13.853" rx="4.222" ry="2.047"/><path d="M15.053 47.776c-1.832 0-3.306-1.457-3.306-3.268v-7.992c0-1.811 1.474-3.268 3.306-3.268s3.305 1.457 3.305 3.268v7.992c0 1.81-1.473 3.268-3.305 3.268z" fill="#68696D"/><ellipse fill="#FF6C50" cx="15.053" cy="37.264" rx="2.27" ry="2.244"/><path d="M21.226 51.319H8.88a.541.541 0 01-.557-.551c0-.315.239-.551.557-.551h12.307c.319 0 .558.236.558.55.04.276-.2.552-.518.552z" fill="#818389"/><path d="M60.497 25.965v-8.386c0-1.103.916-1.969 1.991-1.969h3.227V9.98c0-.826-.678-1.496-1.514-1.496H34.57c-.837 0-1.514.67-1.514 1.496v23.583c0 .827.677 1.496 1.514 1.496H64.2c.836 0 1.514-.67 1.514-1.496v-5.59h-3.227c-1.075 0-1.991-.906-1.991-2.008z" fill="#AFB0B5"/><path d="M62.488 15.61a1.986 1.986 0 00-1.991 1.969v8.386c0 1.102.916 1.968 1.991 1.968h3.227V15.61h-3.227zm-32.579-1.575h3.186v15.472h-3.186z" fill="#434655"/></g></svg>