<svg width="92" height="87" xmlns="http://www.w3.org/2000/svg"><g fill="none" fill-rule="evenodd"><path d="M23 69.365c-4.762 0-8.625 3.858-8.625 8.618 0 4.758 3.863 8.617 8.625 8.617 4.762 0 8.625-3.859 8.625-8.617 0-4.761-3.863-8.618-8.625-8.618zm0 11.49a2.873 2.873 0 110-5.745 2.874 2.874 0 012.875 2.873A2.876 2.876 0 0123 80.855zm37.375-11.49c-4.764 0-8.625 3.858-8.625 8.618 0 4.758 3.861 8.617 8.625 8.617 4.762 0 8.625-3.859 8.625-8.617 0-4.761-3.863-8.618-8.625-8.618zm0 11.49a2.875 2.875 0 01-2.875-2.872 2.874 2.874 0 012.875-2.873 2.874 2.874 0 012.875 2.873 2.876 2.876 0 01-2.875 2.872z" fill="#434655"/><path d="M48.875 6.17h-34.5A2.873 2.873 0 0011.5 9.043v37.343a2.874 2.874 0 002.875 2.873h34.5a2.875 2.875 0 002.875-2.873V9.042a2.873 2.873 0 00-2.875-2.871z" fill="#5AA6D9"/><path d="M65.761 33.75L46.951 1.83C46.15.474 44.38.01 42.996.792l-30.075 17.01c-1.385.785-1.859 2.518-1.06 3.874l18.811 31.92c.801 1.355 2.57 1.82 3.954 1.038l30.076-17.011c1.385-.783 1.859-2.518 1.058-3.872z" fill="#6CAD84"/><path d="M60.375.426h-5.75a2.874 2.874 0 00-2.875 2.872v43.087a2.875 2.875 0 002.875 2.873h5.75a2.875 2.875 0 002.875-2.873V3.298A2.873 2.873 0 0060.375.426z" fill="#FF6C50"/><path d="M77.625 20.532v-5.744H2.875A2.874 2.874 0 000 17.661c0 .295.058.574.14.843L5.75 52.13a2.875 2.875 0 002.875 2.873h63.25v-5.745h-6.998l.503-5.745h9.37v-5.745h-8.865l.503-5.746h11.237v-5.744H66.89l.503-5.746h10.232zm-51.75 5.746h-6.368l-.503-5.746h6.871v5.746zm5.75-5.746h5.75v5.746h-5.75v-5.746zm-17.89 5.746H7.188l-.96-5.746h7.004l.503 5.746zm-3.672 17.235h5.18l.503 5.745h-4.725l-.959-5.745zm-.96-5.745l-.958-5.746h6.092l.503 5.746H9.104zm10.907-5.746h5.865v5.746h-5.362l-.503-5.746zm11.615 0h5.75v5.746h-5.75v-5.746zm11.5 0h5.75v5.746h-5.75v-5.746zm0-5.744v-5.746h5.75v5.746h-5.75zm-21.637 22.98c.001-.104.013-.205.004-.312l-.476-5.433h4.859v5.745h-4.387zm10.137 0v-5.745h5.75v5.745h-5.75zm11.5 0v-5.745h5.75v5.745h-5.75zm15.98 0h-4.48v-5.745h4.984l-.503 5.745zm1.006-11.49h-5.486v-5.746h5.99l-.505 5.746zm1.007-11.49h-6.493v-5.746h6.996l-.503 5.746z" fill="#434655"/><path d="M83.375.426h-5.75L67.084 63.62H11.5a2.874 2.874 0 00-2.875 2.873 2.875 2.875 0 002.875 2.872h60.375L82.416 6.171h6.709a2.873 2.873 0 100-5.745h-5.75z" fill="#AFB0B5"/></g></svg>