<svg width="26" height="30" xmlns="http://www.w3.org/2000/svg"><g fill="none" fill-rule="evenodd"><path d="M13 0C7.851 0 5.571 2.813 5.571 7.5v13.125H20.43V7.5C20.429 2.812 17.39 0 13 0z" fill="#A67C52"/><path d="M14.857 14.063h-3.714l-.929 3.75V30h5.572V17.813z" fill="#DBB59A"/><path d="M1.857 22.5C.111 24.263 0 30 0 30h13L9.286 18.75S2.73 21.619 1.857 22.5zm22.286 0c-.873-.881-7.429-3.75-7.429-3.75L13 30h13s-.111-5.737-1.857-7.5z" fill="#5AA6D9"/><path d="M4.643 22.5l4.643.938L12.07 30H13l-2.786-12.187L4.643 22.5zm11.143-4.687L13 30h.929l2.785-6.563 4.643-.937-5.571-4.687z" fill="#FFF"/><path d="M15.555 5.609c-.727 1.623-3.234 2.829-6.27 2.829H7.443c.04 1.836.21 3.262.915 4.687.929 1.875 2.823 3.75 4.643 3.75 1.82 0 3.714-1.875 4.643-3.75.823-1.661.916-3.326.927-5.64-.019-1.068-2.015-1.876-3.015-1.876z" fill="#F6CBAD"/><path d="M21.166 6.113C20.355 3.155 17.01.938 13 .938c-4.01 0-7.355 2.217-8.166 5.175-.62.343-1.12.837-1.12 1.387v1.875c0 1.036 1.76 1.875 2.786 1.875V7.5c0-2.588 2.91-4.687 6.5-4.687s6.5 2.099 6.5 4.687v1.875c0 2.01-1.255 3.72-3.015 4.386a1.388 1.388 0 00-1.164-.636h-1.857a1.4 1.4 0 00-1.393 1.407 1.4 1.4 0 001.393 1.406h1.857c.137 0 .267-.026.392-.063 2.738-.365 4.94-2.444 5.503-5.14.597-.341 1.07-.823 1.07-1.36V7.5c0-.55-.5-1.044-1.12-1.387z" fill="#4D4D4D"/></g></svg>