<svg width="139" height="85" xmlns="http://www.w3.org/2000/svg"><g fill="#5AA6D9" fill-rule="evenodd"><path d="M10.291 59.535c.126.187.193.313.202.38.009.067-.067.154-.229.263l-1.001.567a82.559 82.559 0 001.531 4.362c.508 1.316 1.026 2.366 1.556 3.15.403.598.912 1.306 1.526 2.123l1.955 2.596.252.373c.142.212.216.375.221.49.005.114-.092.238-.29.373-.3.2-.728-.04-1.288-.722-.56-.683-.982-1.195-1.267-1.537a47.505 47.505 0 01-1.082-1.363 34.197 34.197 0 01-1.26-1.746c-.772-1.146-1.463-2.52-2.073-4.12a41.98 41.98 0 01-1.063-3.305c-.373.197-.846.448-1.418.753-.572.304-.958.524-1.157.658-.31.21-.765.661-1.364 1.355-.38.455-.758.9-1.134 1.335.434 1.556 1.318 3.737 2.65 6.543 1.333 2.807 2.406 4.814 3.221 6.022a.945.945 0 01.163.584.599.599 0 01-.275.497c-.124.084-.307.013-.55-.213-.243-.225-.503-.544-.78-.955-.328-.486-.767-1.217-1.318-2.196a133.648 133.648 0 01-1.67-3.059 108.807 108.807 0 01-1.963-3.935c-.316-.656-.63-1.323-.943-2l-.317.213a1.214 1.214 0 01-.504.218c-.15.02-.283-.058-.4-.233-.085-.124-.052-.337.098-.637s.3-.528.449-.683a1.306 1.306 0 01-.236-.71c-.006-.25.079-.434.253-.552.285-.192.53-.285.734-.278.204.008.396.105.576.291.26-.338.673-.766 1.237-1.283.565-.516 1.059-.917 1.481-1.202a22.999 22.999 0 013.374-1.855c1.268-.574 1.969-.761 2.103-.562zm10.044 3.227c.15.225.148.462-.008.712a1.691 1.691 0 01-.478.459c.26.17.542.408.85.717.308.309.546.588.714.837.52.772.797 1.691.829 2.757.032 1.228-.324 2.094-1.07 2.597a2.727 2.727 0 01-1.891.473c-.677-.078-1.209-.357-1.597-.839a18.218 18.218 0 01-.884-1.17 8.54 8.54 0 01-.704-1.224 11.092 11.092 0 01-.48-1.294c-.105-.345-.137-.767-.095-1.267.043-.5.139-.8.288-.901.31-.21.567-.165.769.134.1.15.179.386.235.71l.162.925c.11.432.306.93.587 1.493.28.563.584 1.087.911 1.573.202.299.484.489.847.57.362.082.724.001 1.084-.242.336-.226.485-.689.447-1.388-.038-.7-.233-1.31-.586-1.834-.412-.61-.765-1.074-1.06-1.391-.296-.317-.543-.517-.744-.6-.378.11-.664.168-.86.173-.337.01-.568-.079-.694-.265-.328-.486-.32-.89.023-1.212.042-.046.112-.103.211-.17.212-.142.471-.2.78-.172.212.02.52.102.925.246.253-.135.508-.28.765-.435.356-.168.598-.158.724.028zm12.113-4.039c.126.133.052.5-.22 1.1a31.645 31.645 0 00-.735 1.746 14.923 14.923 0 01-1.614 2.977c-.624.884-1.254 1.54-1.888 1.967-.658.444-1.384.535-2.176.272-.792-.263-1.432-.756-1.92-1.478-.57-.847-.999-1.817-1.285-2.91-.426-1.598-.21-2.686.648-3.264.46-.31.94-.47 1.438-.481.5-.01.867.158 1.102.507.176.261.165.46-.034.593-.161.11-.38.094-.655-.047-.276-.14-.52-.139-.73.004-.535.36-.712 1.023-.531 1.988.163.832.518 1.653 1.064 2.463.454.672.933 1.074 1.437 1.205.442.118.886.027 1.334-.275.348-.235.804-.724 1.37-1.468a13.915 13.915 0 001.44-2.33c.139-.275.439-.93.898-1.965.189-.417.34-.663.451-.739.162-.109.278-.15.349-.126.07.024.156.112.257.261zm13.142-8.185c.05.075-.004.329-.163.763a24.47 24.47 0 01-.628 1.483c-.357.784-.76 1.5-1.21 2.148-.449.647-.86 1.096-1.233 1.348-.845.57-1.524.783-2.037.64-.512-.143-1.092-.695-1.739-1.654l-1.07-1.587c.057.54.084 1.07.08 1.589a21.01 21.01 0 01-.079 1.67c-.07.917-.208 1.636-.417 2.158-.27.671-.735 1.23-1.394 1.673-.547.37-1.246.465-2.098.288-.852-.177-1.425-.484-1.719-.92-.1-.15-.154-.363-.16-.64-.006-.276.084-.478.27-.603.287-.193.516-.289.689-.288.172.002.385.19.637.563.58.859 1.267 1.02 2.062.484.348-.235.608-.682.778-1.34.134-.525.217-1.234.249-2.125.017-.591.004-1.253-.038-1.986-.042-.733-.118-1.342-.23-1.829a1.065 1.065 0 01.061-.775c.117-.242.238-.405.362-.488.323-.218.598-.286.826-.204.227.082.441.273.643.572.067.1.265.473.594 1.121.328.648.577 1.097.745 1.346.453.672.844 1.125 1.172 1.356.328.232.697.21 1.108-.067a4.486 4.486 0 001.14-1.123c.236-.322.544-.851.924-1.588.38-.736.636-1.222.768-1.455.218-.401.389-.643.513-.727.211-.143.41-.077.594.197zm8.602-5.666c.101.15-.016.645-.352 1.488a15.599 15.599 0 01-1.147 2.322 11.063 11.063 0 01-1.513 1.959 11.2 11.2 0 01-1.766 1.504c-.734.494-1.512.72-2.336.678-1.028-.049-1.857-.54-2.487-1.475a41.257 41.257 0 00-.533-.769 43.247 43.247 0 01-.57-.825c-.176-.261-.34-.518-.491-.769a6.049 6.049 0 01-.373-.713c-.207-.495-.204-1.027.009-1.596.212-.57.549-1.01 1.009-1.32a4.258 4.258 0 012.055-.733c.844-.062 1.446.174 1.808.71.336.498.435 1.02.297 1.566-.098.392-.349.851-.753 1.378-.297.363-.565.711-.802 1.043-.237.332-.49.688-.757 1.069.319.473.753.796 1.304.968.692.222 1.373.106 2.045-.346a9.04 9.04 0 001.561-1.325c.457-.49.943-1.09 1.458-1.8.372-.522.756-1.17 1.155-1.947.333-.66.506-.993.518-1.002.211-.142.356-.217.432-.223.077-.007.154.046.23.158zm-8.03 1.366c-.16-.236-.419-.32-.778-.25-.36.071-.757.253-1.192.547-.137.092-.247.284-.33.576-.084.291-.09.517-.018.677.072.16.24.464.505.91s.423.707.473.782c.178-.193.409-.493.694-.903.284-.41.496-.738.636-.986a1.36 1.36 0 00.192-.741 1.176 1.176 0 00-.182-.612zM61.17 42.83c.748 1.109 1.224 1.902 1.43 2.38.204.478.42 1.247.647 2.308.185.89.166 1.854-.057 2.892-.283 1.296-.847 2.23-1.692 2.8-.87.586-1.744.831-2.623.735-.729-.088-1.231-.337-1.509-.748-.243-.362-.216-.643.082-.844.162-.109.36-.124.593-.046.188.09.332.156.432.198.38.16.73.232 1.053.213.322-.018.657-.144 1.005-.379.66-.444 1.127-1.158 1.404-2.142.276-.984.291-1.927.044-2.83-.247-.902-.486-1.592-.718-2.07-.232-.478-.52-.972-.864-1.483-.185-.274-.52-.704-1.007-1.291-.487-.587-.807-.928-.962-1.023.292.781.315 1.572.068 2.373-.246.8-.643 1.385-1.19 1.754-.634.428-1.203.63-1.706.607-.674-.034-1.264-.425-1.768-1.172-.512-.76-.76-1.716-.742-2.87.017-1.37.463-2.532 1.339-3.485a3.061 3.061 0 01.31-.264c.274-.184.486-.164.637.06.084.125-.02.494-.311 1.107-.156.305-.306.605-.45.901-.283.626-.35 1.332-.199 2.119.117.628.326 1.166.628 1.614.185.274.39.444.615.51.317.094.63.036.942-.173.51-.344.83-.94.962-1.79a6.438 6.438 0 00-.006-1.9 9.834 9.834 0 00-.702-.94l-.631-.715c-.244-.36-.155-.684.268-.97.186-.125.813.308 1.88 1.3 1.068.993 2 2.081 2.798 3.264zm13.813-12.74c.117.173.057.68-.181 1.52s-.533 1.597-.884 2.269a10.764 10.764 0 01-1.156 1.785c-.42.518-.834.916-1.244 1.192-.796.537-1.488.818-2.076.844-.589.025-1.167-.142-1.735-.502-.155-.095-.366-.274-.634-.537a7.023 7.023 0 01-.61-.663 5.967 5.967 0 00-.282.205 6.753 6.753 0 01-.208.154l-.43.289c-.148.1-.308.2-.478.296l-1.901 1.282c.046.042.115.145.207.309.093.164.162.266.208.308.226.228.404.398.534.51.406.36.642.59.71.69.15.224.23.434.235.63.005.195-.117.377-.365.544-.323.218-.67.167-1.04-.154s-.745-.762-1.123-1.322l-.504-.748c-.447.302-.826.223-1.137-.238-.101-.15.051-.406.457-.77-.21-.312-.448-.704-.713-1.178a19.069 19.069 0 00-.486-.84c-.143-.212-.21-.407-.203-.584.007-.177.154-.361.44-.554.186-.126.379-.061.578.194a17.448 17.448 0 01.951 1.37c.082.135.17.27.262.408.134.199.233.332.296.398l2.488-1.679c.206-.138.41-.285.612-.44l.187-.126-.92-1.444c-.27-.399-.414-.727-.434-.985-.02-.258.056-.446.23-.564.274-.184.67.11 1.192.882.445.66.845 1.22 1.2 1.678.354.458.686.81.995 1.054.607.497 1.104.773 1.494.827.39.055.82-.078 1.292-.396.311-.21.603-.46.876-.754.272-.292.658-.833 1.156-1.622.31-.48.69-1.417 1.144-2.81.183-.559.319-.867.406-.926.21-.143.367-.14.468.01l.126.187zm9.656-5.753c.1.15-.017.645-.353 1.488a15.599 15.599 0 01-1.146 2.322 11.063 11.063 0 01-1.513 1.959c-.581.6-1.17 1.101-1.767 1.504-.733.494-1.512.72-2.336.679-1.028-.05-1.857-.542-2.487-1.476a41.088 41.088 0 00-.532-.769 43.247 43.247 0 01-.57-.825c-.176-.261-.34-.518-.492-.769a6.049 6.049 0 01-.372-.713c-.207-.495-.204-1.027.008-1.596.213-.57.55-1.01 1.01-1.32a4.258 4.258 0 012.054-.733c.844-.062 1.447.175 1.808.71.336.498.435 1.02.297 1.566-.097.392-.348.851-.752 1.378-.298.363-.565.711-.802 1.043-.237.332-.49.689-.758 1.069.32.473.754.796 1.304.968.693.222 1.374.106 2.045-.346a9.04 9.04 0 001.562-1.325c.456-.49.942-1.09 1.458-1.8.371-.522.756-1.17 1.155-1.947.333-.66.505-.993.518-1.002.211-.142.355-.217.432-.223.077-.007.153.046.229.158zm-8.03 1.366c-.16-.236-.42-.32-.779-.249-.359.07-.756.252-1.191.546-.137.092-.247.284-.33.576-.084.292-.09.518-.018.677.072.16.24.464.505.91.265.447.423.707.473.782.178-.193.409-.493.693-.903a13.1 13.1 0 00.637-.986 1.36 1.36 0 00.192-.741 1.176 1.176 0 00-.182-.612zm17.072-7.465c.101.15-.016.645-.352 1.488a15.599 15.599 0 01-1.146 2.322 11.063 11.063 0 01-1.514 1.959 11.2 11.2 0 01-1.766 1.504c-.734.494-1.512.72-2.336.678-1.028-.049-1.857-.54-2.487-1.475a41.257 41.257 0 00-.533-.769 43.247 43.247 0 01-.57-.825c-.176-.261-.34-.518-.491-.769a6.049 6.049 0 01-.373-.713c-.207-.495-.204-1.027.009-1.596.212-.57.549-1.01 1.009-1.32a4.258 4.258 0 012.055-.733c.844-.062 1.447.174 1.808.71.336.498.435 1.02.297 1.566-.098.392-.349.851-.753 1.378-.297.363-.565.711-.802 1.043-.237.332-.49.688-.757 1.069.319.473.754.796 1.304.968.692.222 1.374.106 2.045-.347a9.04 9.04 0 001.561-1.324c.457-.49.943-1.09 1.458-1.8.372-.522.757-1.17 1.155-1.947.333-.66.506-.993.518-1.002.211-.142.356-.217.433-.223.076-.007.153.046.228.158zm-8.03 1.366c-.16-.236-.419-.32-.778-.25-.36.071-.757.253-1.192.547-.137.092-.247.284-.33.576-.084.291-.09.517-.018.677.072.16.24.464.505.91s.423.707.473.782c.178-.193.41-.494.694-.903.284-.41.496-.738.636-.986a1.36 1.36 0 00.192-.741 1.176 1.176 0 00-.182-.612zM46.207 79.041c.638.946.994 1.848 1.066 2.706.077.999-.258 1.75-1.003 2.253-.585.394-1.191.567-1.82.52-.628-.047-1.237-.334-1.827-.86a13.938 13.938 0 01-1.729-1.878 40.742 40.742 0 01-1.561-2.154c-.04.154-.08.29-.12.406-.038.117-.138.23-.3.339-.1.067-.25.091-.452.074-.202-.018-.332-.07-.39-.158-.093-.137-.066-.5.08-1.087.06-.258.148-.571.262-.938-.067-.1-.389-.53-.966-1.292a42.32 42.32 0 01-1.269-1.74c-1.318-1.955-2-3.38-2.042-4.275-.039-.808.309-1.459 1.042-1.953.448-.302.933-.367 1.456-.194.523.172 1.323.802 2.4 1.888.117.12.238.26.364.42.126.16.239.314.34.463.747 1.109 1.084 2.358 1.01 3.75a6.787 6.787 0 01-.812 2.939l.617.915c.21.311.43.625.662.94.353.523.714 1 1.085 1.429.371.429.787.85 1.247 1.265.23.261.545.425.943.492.397.067.776-.02 1.137-.264.435-.293.584-.756.447-1.389-.107-.507-.371-1.072-.791-1.695-.353-.523-.904-.917-1.652-1.182-.749-.265-1.322-.264-1.72.004a2.99 2.99 0 01-.721.378c-.208.068-.379.002-.513-.197a.914.914 0 01-.15-.565.6.6 0 01.274-.498c.92-.62 1.968-.756 3.143-.407 1.022.308 1.776.822 2.263 1.545zm-7.929-7.372c-.503-.53-.94-.924-1.312-1.18-.56-.402-.97-.515-1.231-.339-.299.202-.343.612-.133 1.231.21.62.751 1.577 1.625 2.872.252.374.5.768.744 1.184.618 1.05.974 1.644 1.066 1.781.275-.638.414-1.384.416-2.238.01-1.112-.237-2.041-.741-2.788a3.446 3.446 0 00-.434-.523zm22.474-1.107c.184.274.006 1.056-.535 2.345-.643 1.54-1.525 2.686-2.643 3.44-.485.328-.96.521-1.426.582a2.273 2.273 0 01-1.725-.467 13.379 13.379 0 01-.988-.842c-.32-.3-.606-.583-.858-.849.289.91.33 1.984.124 3.22-.207 1.235-.528 2-.963 2.293-.447.302-.902.418-1.364.35-.558-.077-1.122-.43-1.692-1.061-.214-.236-.61-.784-1.19-1.643-.571-.847-.96-1.464-1.166-1.85-.16-.237-.222-.476-.186-.718.036-.241.135-.417.296-.526a.525.525 0 01.493-.074c.167.06.376.277.628.65.025.038.16.264.404.68.244.414.454.753.63 1.014l.983 1.457c.474.623.923.792 1.345.507.299-.202.478-.82.538-1.858.064-.95.03-1.75-.103-2.404a4.654 4.654 0 01-.112-1.392c.033-.475.142-.775.329-.901.298-.201.868.175 1.71 1.129.612.692 1.063 1.159 1.351 1.399.44.356.838.545 1.196.566.358.021.785-.136 1.283-.471.783-.528 1.41-1.26 1.883-2.194.356-.893.719-1.79 1.088-2.691.136-.092.25-.11.343-.055.092.056.2.177.327.364zm7.321-1.813c.748 1.109 1.224 1.902 1.429 2.38.205.478.42 1.247.648 2.308.185.89.166 1.854-.057 2.892-.283 1.296-.847 2.229-1.692 2.8-.87.586-1.744.831-2.623.735-.729-.088-1.231-.338-1.509-.748-.243-.362-.216-.643.082-.844.162-.109.36-.124.593-.046.188.09.332.156.432.197.38.161.73.232 1.053.214.322-.018.657-.144 1.005-.379.66-.444 1.127-1.158 1.404-2.142.276-.984.291-1.927.044-2.83-.247-.902-.486-1.592-.718-2.07a12.13 12.13 0 00-.865-1.483c-.184-.274-.52-.704-1.006-1.291-.487-.587-.807-.928-.962-1.023.292.781.315 1.572.068 2.373-.246.8-.643 1.385-1.19 1.754-.634.428-1.203.63-1.706.607-.674-.034-1.264-.425-1.768-1.172-.512-.76-.76-1.716-.742-2.87.017-1.37.463-2.532 1.339-3.485a2.534 2.534 0 01.31-.264c.274-.184.486-.164.637.06.084.125-.02.493-.311 1.107a45.86 45.86 0 00-.45.901c-.283.626-.35 1.332-.199 2.119.117.628.326 1.166.628 1.614.185.274.39.444.615.51.317.094.63.036.941-.173.51-.344.83-.94.963-1.79a6.438 6.438 0 00-.006-1.9 9.834 9.834 0 00-.702-.94 91.24 91.24 0 00-.632-.715c-.243-.361-.154-.684.269-.97.186-.125.813.308 1.88 1.3 1.068.993 2 2.081 2.798 3.264zm10.754-9.917c.1.15-.017.646-.353 1.488a15.599 15.599 0 01-1.146 2.323 11.063 11.063 0 01-1.514 1.958c-.58.6-1.17 1.102-1.766 1.504-.733.495-1.512.721-2.336.68-1.028-.05-1.857-.542-2.487-1.476-.168-.25-.345-.506-.532-.77a43.247 43.247 0 01-.57-.824c-.177-.262-.34-.518-.492-.77a6.049 6.049 0 01-.373-.713c-.207-.494-.204-1.026.009-1.596.213-.569.55-1.009 1.009-1.319a4.258 4.258 0 012.055-.734c.844-.062 1.447.175 1.808.71.336.499.435 1.02.297 1.567-.097.392-.348.85-.753 1.377-.297.364-.564.712-.801 1.044-.237.332-.49.688-.758 1.068.32.473.754.796 1.304.969.692.221 1.374.106 2.045-.347a9.04 9.04 0 001.561-1.325c.457-.489.943-1.089 1.459-1.799.371-.522.756-1.171 1.155-1.948.332-.659.505-.993.518-1.001.21-.143.355-.217.432-.224.077-.006.153.046.229.158zm-8.03 1.367c-.16-.237-.42-.32-.779-.25-.36.07-.757.253-1.192.546-.136.092-.246.284-.33.576-.083.292-.09.518-.017.678.071.16.24.463.505.91.265.446.422.707.473.781.177-.192.408-.493.693-.902.284-.41.497-.738.637-.987a1.36 1.36 0 00.191-.74 1.176 1.176 0 00-.181-.612zm10.789-8.174c.151.224.149.461-.008.712a1.691 1.691 0 01-.478.458c.26.17.543.408.85.717.308.31.546.588.714.837.521.772.797 1.691.829 2.757.033 1.228-.324 2.094-1.07 2.597a2.727 2.727 0 01-1.89.474c-.677-.079-1.21-.358-1.598-.84a18.218 18.218 0 01-.884-1.17 8.54 8.54 0 01-.703-1.224 11.092 11.092 0 01-.48-1.294c-.106-.345-.138-.767-.095-1.267.042-.5.138-.8.287-.9.311-.21.567-.166.769.133.1.15.18.387.235.711l.162.924c.111.432.307.93.587 1.493.28.563.584 1.087.912 1.573.201.299.483.49.846.57.362.082.724.002 1.084-.242.336-.226.485-.689.447-1.388-.038-.7-.233-1.31-.586-1.834-.411-.61-.765-1.074-1.06-1.39-.295-.318-.543-.518-.743-.6-.378.11-.665.167-.86.172-.338.01-.569-.078-.695-.265-.328-.486-.32-.89.024-1.212.04-.046.111-.102.21-.17.212-.142.472-.2.78-.172.212.02.52.102.925.246.253-.134.508-.28.765-.434.357-.169.598-.16.724.028zm48.609-38.475c-.056.086-.419-.038-1.048-.304-.628-.266-1.525-.673-2.662-1.119a35.796 35.796 0 00-4.104-1.339 31.776 31.776 0 00-5.298-.905 30.16 30.16 0 00-3.554-.086c-2.355.082-4.59.436-6.58.933a34.36 34.36 0 00-5.176 1.75c-1.437.614-2.567 1.203-3.358 1.604-.395.2-.707.354-.929.445-.222.09-.354.117-.389.07-.034-.047.031-.167.192-.349a7.24 7.24 0 01.764-.717c.697-.58 1.77-1.35 3.198-2.13a26.863 26.863 0 015.292-2.181 28.262 28.262 0 016.932-1.12 27.405 27.405 0 013.768.13c2.034.211 3.91.64 5.545 1.168a25.373 25.373 0 014.15 1.752c1.117.598 1.957 1.165 2.505 1.594.548.43.807.718.752.804z"/><path d="M122.252 17.665c-.006-.11.426-.24 1.212-.362.786-.123 1.926-.24 3.338-.337 1.413-.097 3.098-.173 4.981-.23 1.883-.057 3.964-.094 6.172-.125a25.925 25.925 0 01-1.414-1.256c-1.678-1.605-3.04-3.326-4.157-4.982a40.096 40.096 0 01-2.682-4.642c-1.509-3.278-2.344-5.396-2.123-5.51.221-.114 1.455 1.798 3.24 4.934.76 1.435 1.65 3.125 2.71 4.909 1.06 1.784 2.292 3.658 3.786 5.401a25.479 25.479 0 001.255 1.363c-2.288.235-4.457.448-6.42.619-1.961.17-3.716.296-5.182.37-1.466.073-2.643.093-3.454.064-.811-.03-1.256-.107-1.262-.216z"/></g></svg>