<svg width="20" height="26" xmlns="http://www.w3.org/2000/svg"><g fill="none" fill-rule="evenodd"><path d="M15.78 3.032h2.184c.689 0 1.247.566 1.247 1.264v19.456c0 .698-.558 1.264-1.247 1.264H15.78V3.032z" fill="#E2E4E8"/><path fill="#FFF" fill-rule="nonzero" d="M16.228 9.981h2.983v2.211h-2.983zm0 5.939h2.983v2.21h-2.983z"/><path d="M15.78 25.016H1.249A1.256 1.256 0 010 23.752V2.211C0 1.513.559.948 1.248.948H15.78c.689 0 1.247.565 1.247 1.263v21.541c0 .698-.558 1.264-1.247 1.264z" fill="#FFF"/><path d="M4.054 25.963H2.495a.314.314 0 01-.312-.315V.316c0-.175.14-.316.312-.316h1.56c.172 0 .311.141.311.316v25.332c0 .174-.14.315-.312.315z" fill="#68696D" fill-rule="nonzero"/><path d="M15.126 23.595h-4.803a.47.47 0 01-.468-.474.47.47 0 01.468-.474h4.803a.47.47 0 01.468.474c0 .261-.21.474-.468.474zm0-1.895H11.82a.47.47 0 01-.468-.474c0-.262.21-.474.468-.474h3.306c.258 0 .468.212.468.474 0 .261-.21.473-.468.473z" fill="#FF6C50" fill-rule="nonzero"/></g></svg>