<svg width="63" height="47" xmlns="http://www.w3.org/2000/svg" xmlns:xlink="http://www.w3.org/1999/xlink"><defs><ellipse id="a" cx="14.974" cy="14.928" rx="14.974" ry="14.928"/></defs><g fill="none" fill-rule="evenodd"><path d="M43.831 35.25c-1.374-1.38-13.15-7.344-13.15-7.344h-14.61S4.295 33.87 2.922 35.25C.175 38.012 0 47 0 47h46.753s-.175-8.988-2.922-11.75z" fill="#FF8872"/><path d="M29.22 26.438H17.533l-1.46 1.469s2.463 4.406 7.305 4.406c4.84 0 7.305-4.406 7.305-4.406l-1.461-1.469z" fill="#E65A40"/><path d="M27.76 22.032h-8.766l-1.462 4.406c0 .811 3.576 2.938 4.384 2.938h2.922c.806 0 4.383-2.127 4.383-2.938l-1.461-4.406z" fill="#DBB59A"/><path d="M23.377 1.469c-5.649 0-10.228 2.937-10.228 8.812 0 4.407 1.461 7.344 2.922 10.282 1.461 2.937 4.443 5.875 7.306 5.875 2.862 0 5.844-2.938 7.305-5.875 1.46-2.938 2.922-5.875 2.922-10.282 0-5.875-4.58-8.812-10.227-8.812z" fill="#F6CBAD"/><path d="M23.377 0c-3.423 0-7.306 1.27-7.306 2.938-2.16 0-2.922 4.86-2.922 8.812 0 .66.059 1.353.15 2.06.376-1.944 1.538-4.997 4.233-4.997h5.845c2.237 0 5.844-1.1 5.844-2.938 1.896-.025 4.383 2.689 4.383 5.875C33.604 5.976 32.665 0 23.377 0z" fill="#818389"/><g fill-rule="nonzero"><g transform="translate(30 7.477)"><use fill="#6CAD84" fill-rule="evenodd" xlink:href="#a"/><ellipse stroke="#F6F7F8" stroke-width="2.143" cx="14.974" cy="14.928" rx="16.045" ry="16"/></g><path d="M57.515 14.265l-13.243 13.67.023 1.469h.609L59.246 17.88a15.161 15.161 0 00-1.731-3.616z" fill="#44805F"/><path d="M59.667 13.612l-2.644-2.613c-.35-.35-.936-.35-1.31 0l-11.3 11.64-4.89-4.805c-.351-.35-.936-.35-1.31 0l-2.34 2.31a.913.913 0 000 1.282l7.814 7.721c.21.21.491.28.772.257.281.023.562-.047.772-.257l14.436-14.229c.351-.373.351-.956 0-1.306z" fill="#F2F1EF"/><path d="M45.231 29.147l14.436-14.229a.913.913 0 000-1.283l-.421-.396-14.81 14.508-8.189-7.954-.351.35a.913.913 0 000 1.283l7.815 7.721c.21.21.49.28.772.257a.929.929 0 00.748-.257z" fill="#E6E5E3"/></g></g></svg>