<svg xmlns="http://www.w3.org/2000/svg" width="57.355" height="56"><defs><style>.a{fill:#fecbaa}.d{fill:#ffae85}.g{fill:#fedfc5}</style></defs><path class="a" d="M34.337 46.051L21.305 33.019a2.087 2.087 0 112.951-2.951L20.9 26.712a2.085 2.085 0 012.752-3.123l-1.277-1.277a2.086 2.086 0 01-.613-1.478 1.957 1.957 0 01.028-.339 2.087 2.087 0 013.537-1.135l1.462 1.462a2.087 2.087 0 01-.586-1.81 2.065 2.065 0 01.584-1.143 2.089 2.089 0 012.953 0l8.469 8.469.024-.034a3.816 3.816 0 015.4 0l3.949 3.949a4.051 4.051 0 011.187 2.859v2.471a4.36 4.36 0 001.278 3.08l.88.88-10.072 10.072-1.125-1.125a4.363 4.363 0 00-2.8-1.268 4.049 4.049 0 01-2.6-1.178zm0 0"/><path d="M40.205 50.281L51.64 38.849a.964.964 0 011.364 0l4.071 4.071a.964.964 0 010 1.364L45.64 55.717a.964.964 0 01-1.364 0l-4.072-4.071a.965.965 0 010-1.364zm0 0" fill="#ffc95f"/><path d="M51.941 43.98a.864.864 0 100-1.223.865.865 0 000 1.223zm0 0" fill="#e6b24d"/><path class="d" d="M41.126 29.261l-2.916-2.916.024-.034a3.8 3.8 0 011.475-.916l2.642 2.642a.865.865 0 01-1.224 1.224zm0 0"/><path class="a" d="M23.018 46.056L36.05 33.024a2.087 2.087 0 10-2.951-2.951l3.356-3.355a2.085 2.085 0 00-2.752-3.123l1.277-1.277a2.085 2.085 0 00.613-1.478 1.958 1.958 0 00-.028-.34 2.087 2.087 0 00-3.537-1.134l-1.462 1.462a2.087 2.087 0 10-2.951-2.951l-8.47 8.467-.024-.033a3.817 3.817 0 00-5.4 0L9.772 30.26a4.051 4.051 0 00-1.187 2.859v2.47a4.358 4.358 0 01-1.278 3.08l-.88.88 10.072 10.072 1.125-1.125a4.363 4.363 0 012.8-1.268 4.049 4.049 0 002.6-1.178zm0 0"/><path d="M17.15 50.282L5.718 38.85a.964.964 0 00-1.364 0L.283 42.921a.964.964 0 000 1.364l11.432 11.432a.965.965 0 001.364 0l4.071-4.071a.965.965 0 000-1.364zm0 0" fill="#e65a40"/><path d="M13.248 51.815a.864.864 0 10-1.223 0 .865.865 0 001.223 0zm0 0" fill="#d1513a"/><path class="d" d="M16.229 29.263l2.916-2.916-.024-.033a3.8 3.8 0 00-1.475-.916l-2.642 2.641a.866.866 0 001.224 1.224zm0 0"/><path class="g" d="M37.012 14.824v18.43a2.087 2.087 0 11-4.173 0V38a2.083 2.083 0 01-.61 1.477 2.083 2.083 0 01-2.685.227 2.085 2.085 0 01-.859-1.442v1.807a2.086 2.086 0 01-.612 1.478 1.976 1.976 0 01-.259.221 2.087 2.087 0 01-3.3-1.7V38a2.087 2.087 0 11-4.173 0V26.023l-.04.007a3.816 3.816 0 01-3.817-3.822v-5.585a4.053 4.053 0 011.183-2.861l1.745-1.748a4.36 4.36 0 001.274-3.081V7.687h14.243v1.591a4.364 4.364 0 001.083 2.876 4.049 4.049 0 011 2.671zm0 0"/><path class="d" d="M36.053 30.071a2.089 2.089 0 00-2.954 0l3.356-3.356a2.085 2.085 0 00-2.752-3.123l1.277-1.277a2.086 2.086 0 00.613-1.478 1.965 1.965 0 00-.028-.34 2.088 2.088 0 00-3.537-1.134l-1.462 1.462a2.087 2.087 0 10-2.951-2.951l-8.469 8.469-.024-.033a3.8 3.8 0 00-1.475-.916 3.836 3.836 0 00-1.981-.123 5.59 5.59 0 002.941 2.224v10.5a3.822 3.822 0 004.563 3.748 3.829 3.829 0 002.214 1.943l10.667-10.667a2.087 2.087 0 000-2.953zm0 0"/><path class="d" d="M38.742 33.252v-7.371a3.872 3.872 0 00-.51.428l-.024.034-8.469-8.469a2.089 2.089 0 00-2.953 0 2.065 2.065 0 00-.584 1.143 2.087 2.087 0 00.586 1.81l-1.462-1.462a2.086 2.086 0 00-3.537 1.135 2 2 0 00-.028.339 2.086 2.086 0 00.613 1.478l1.277 1.277a2.083 2.083 0 00-3.338 1.313 2.045 2.045 0 00-.027.334 2.08 2.08 0 00.613 1.476l3.356 3.356a2.087 2.087 0 10-2.951 2.951l8.73 8.73a3.834 3.834 0 00.717.067 3.784 3.784 0 002.234-.723 3.858 3.858 0 00.466-.4 3.794 3.794 0 001.118-2.7v-.941c.117.011.236.016.355.016a3.824 3.824 0 003.817-3.821zm0 0"/><path class="g" d="M37.012 14.824v18.43a2.087 2.087 0 01-2.086 2.09h-.1a2.065 2.065 0 01-1.121-.393 2.086 2.086 0 01-.866-1.694v4.746a2.083 2.083 0 01-.61 1.477 2.083 2.083 0 01-2.685.227 2.085 2.085 0 01-.859-1.442v1.804a2.086 2.086 0 01-.612 1.478 1.976 1.976 0 01-.259.221 2.087 2.087 0 01-3.3-1.7V38a2.087 2.087 0 11-4.173 0V26.023l-.04.007a3.816 3.816 0 01-3.817-3.822v-5.585a4.053 4.053 0 011.183-2.861l1.745-1.748a4.373 4.373 0 001.274-3.081V7.687h14.243v1.591a3.953 3.953 0 00.137 1.076 4.339 4.339 0 00.945 1.8 4.081 4.081 0 011 2.671zm0 0"/><path class="a" d="M37.012 14.825v18.43a2.087 2.087 0 01-2.086 2.09h-.1a2.065 2.065 0 01-1.121-.393l.035-17.759a2.716 2.716 0 00-.069-.493 8.027 8.027 0 00-8.03-6.478h-5.156a4.343 4.343 0 00.2-1.288V7.687h14.243v1.592a3.954 3.954 0 00.137 1.076 4.34 4.34 0 00.945 1.8 4.081 4.081 0 011 2.671zm0 0"/><path d="M35.851 7.687H19.683a.965.965 0 01-.964-.964V.964A.965.965 0 0119.683 0h16.168a.965.965 0 01.964.964v5.759a.965.965 0 01-.964.964zm0 0" fill="#5aa5d8"/><path d="M23.288 3.843a.864.864 0 10-.864.866.865.865 0 00.864-.866zm0 0" fill="#398cc4"/><path class="a" d="M33.704 23.612v11.339a2.085 2.085 0 01-.866-1.694v4.746a2.081 2.081 0 01-.61 1.477 2.024 2.024 0 01-.255.217V23.612a.866.866 0 011.732 0zm-4.16.001v16.09a2.086 2.086 0 01-.86-1.441v1.806a2.085 2.085 0 01-.612 1.478 1.981 1.981 0 01-.259.221V23.613a.866.866 0 011.731 0zm-4.17-.001v18.152a2.086 2.086 0 01-.866-1.694v-2.068a2.087 2.087 0 01-.866 1.694V23.612a.866.866 0 011.731 0zm-5.037-1.713v4.124l-.041.007a3.8 3.8 0 01-1.69-.394V21.9a.866.866 0 111.731 0zm0 0"/></svg>