<svg xmlns="http://www.w3.org/2000/svg" width="31.879" height="32"><path d="M25.266 0H6.55A6.6 6.6 0 000 6.625v15a6.569 6.569 0 005.615 6.5v2.945a.935.935 0 001.6.647l3.469-3.534h14.58a6.6 6.6 0 006.613-6.562v-15A6.659 6.659 0 0025.266 0z" fill="#e65a40"/><path d="M10.154 19.428l-1.358-.2-.607-1.233a.935.935 0 00-1.678 0l-.607 1.233-1.358.2a.938.938 0 00-.519 1.6l.983.96-.232 1.355a.936.936 0 001.358.988l1.215-.64 1.215.64a.936.936 0 001.358-.988l-.232-1.355.983-.96a.938.938 0 00-.519-1.6zm8.559 0l-1.358-.2-.612-1.23a.935.935 0 00-1.678 0l-.607 1.233-1.358.2a.938.938 0 00-.519 1.6l.983.96-.232 1.355a.936.936 0 001.358.988l1.215-.64 1.215.64a.936.936 0 001.358-.988l-.232-1.355.983-.96a.938.938 0 00-.519-1.6zm9.315.638a.936.936 0 00-.755-.638l-1.358-.2-.607-1.233a.935.935 0 00-1.678 0l-.607 1.233-1.358.2a.938.938 0 00-.519 1.6l.983.96-.232 1.355a.936.936 0 001.358.988l1.215-.64 1.215.64a.936.936 0 001.358-.988l-.232-1.355.983-.96a.939.939 0 00.234-.962zM18.716 6.625a2.807 2.807 0 10-2.807 2.812 2.813 2.813 0 002.807-2.812zm-2.807 2.812a4.689 4.689 0 00-4.679 4.687.937.937 0 00.936.938h7.486a.937.937 0 00.936-.937 4.688 4.688 0 00-4.679-4.687z" fill="#f4fbff"/></svg>