<svg xmlns="http://www.w3.org/2000/svg" width="40" height="40"><path d="M32.5 40h-25A7.5 7.5 0 010 32.5v-25A7.5 7.5 0 017.5 0h25A7.5 7.5 0 0140 7.5v25a7.5 7.5 0 01-7.5 7.5z" fill="#c4dece"/><path d="M32 24.16a1.62 1.62 0 00-1.6-1.64 1.64 1.64 0 000-3.28h-6.56a14.59 14.59 0 001-5.81A2.44 2.44 0 0022.4 11h-.48a.82.82 0 00-.77.62c-.79 3.16-2 6.79-5.15 7.52V31l2.77.94a7.77 7.77 0 002.53.43h7.5a1.64 1.64 0 000-3.28h1.6a1.64 1.64 0 000-3.28 1.63 1.63 0 001.6-1.65zm-20-6.57H8.8a.81.81 0 00-.8.82v14.77a.81.81 0 00.8.82H12a2.43 2.43 0 002.4-2.46V20.05a2.43 2.43 0 00-2.4-2.46zm0 13.13a.82.82 0 11.8-.84.81.81 0 01-.8.82zm7-21.1l-1.12-1.16a.79.79 0 00-1.12 0 .84.84 0 000 1.16l1.13 1.16a.79.79 0 001.11 0 .83.83 0 000-1.16zm9.06-1.16a.78.78 0 00-1.11 0l-1.16 1.16a.84.84 0 000 1.16.8.8 0 001.12 0l1.13-1.16a.84.84 0 00.02-1.16zM22.4 6a.8.8 0 00-.8.8v1.72a.8.8 0 001.6 0v-1.7a.8.8 0 00-.78-.82z" fill="#6cad84"/></svg>