<svg width="33" height="48" xmlns="http://www.w3.org/2000/svg"><g fill="none"><path d="M16.5 48c-.434 0-.843-.2-1.11-.542C14.763 46.652.031 27.604.031 16.468.031 7.389 7.42 0 16.5 0c9.08 0 16.469 7.388 16.469 16.469 0 11.135-14.732 30.183-15.36 30.989A1.406 1.406 0 0116.5 48z" fill="#DCDEE4"/><path d="M26.347 12.987c-.43-1.21-1.572-1.406-2.002-1.406H8.655c-.43 0-1.572.196-2.002 1.406a10.39 10.39 0 00-.597 3.482c0 1.22.21 2.392.597 3.481.43 1.21 1.572 1.406 2.002 1.406h15.69c.43 0 1.572-.196 2.002-1.406a10.39 10.39 0 00.597-3.481c0-1.22-.21-2.392-.597-3.482z" fill="#5AA5D8"/><path d="M6.654 12.987h19.692C24.91 8.935 21.04 6.025 16.5 6.025s-8.41 2.91-9.846 6.962z" fill="#FCFDFF"/><path d="M26.346 19.95H6.654c1.437 4.052 5.307 6.963 9.846 6.963s8.41-2.91 9.846-6.963z" fill="#FF7157"/></g></svg>