<svg width="32" height="55" xmlns="http://www.w3.org/2000/svg"><g fill="none"><path d="M12.303 31.513v7.211c0 .847-.69 1.534-1.542 1.534H8.737C4.244 40.258.6 43.88.6 48.348V55h30.76v-6.653c0-4.467-3.642-8.09-8.135-8.09H21.2a1.538 1.538 0 01-1.542-1.533v-7.21h-7.355z" fill="#F9C295"/><path d="M23.224 40.258H21.2a1.538 1.538 0 01-1.542-1.534v-7.21h-3.667v8.426c0 .847.69 1.533 1.542 1.533h2.024c4.493 0 8.136 3.622 8.136 8.09V55h3.666v-6.653c0-4.467-3.642-8.09-8.135-8.09z" fill="#E59F6A"/><path d="M23.224 40.258h-1.763l-5.368 3.56-5.514-3.56H8.737C4.244 40.258.6 43.88.6 48.348V55h30.76v-6.653c0-4.467-3.642-8.09-8.135-8.09z" fill="#E65A40"/><path d="M23.224 40.258h-1.763l-1.835 1.217c4.461.037 8.067 3.643 8.067 8.088V55h3.666v-6.653c0-4.467-3.642-8.09-8.135-8.09z" fill="#FE7A61"/><path d="M30.038 20.903V12.71c0-3.868 0-9.725-7.112-9.725V3s-5.521-4.216-12-2.652C3.147 2.227 1.814 8.526 1.814 12.394v8.51h28.224z" fill="#CECFD4"/><path d="M22.926 2.984V3s-5.521-4.216-12-2.652A13.96 13.96 0 007.942 1.42C14.12.292 19.26 4.216 19.26 4.216V4.2c7.111 0 7.111 5.857 7.111 9.724v6.98h3.667v-8.195c0-3.868 0-9.725-7.112-9.725z" fill="#AFB1B7"/><path d="M25.05 36.202a.834.834 0 01-.668-.333.826.826 0 01.169-1.16 9.867 9.867 0 003.97-7.88v-2.797a.83.83 0 01.833-.828c.46 0 .833.37.833.828v2.796a11.53 11.53 0 01-4.638 9.209.831.831 0 01-.499.165z" fill="#28282C"/><path d="M3.762 25.83A3.253 3.253 0 01.5 22.587a3.253 3.253 0 013.262-3.244h24.437a3.253 3.253 0 013.262 3.244 3.253 3.253 0 01-3.262 3.243H3.762z" fill="#6C7DAD"/><path d="M9.434 10.498c-3.397 0-4.88 2.763-4.88 5.139v7.919c0 6.275 5.116 11.362 11.427 11.362 6.31 0 11.426-5.087 11.426-11.362v-7.919c0-2.928-1.814-5.249-4.814-5.249l-13.159.11z" fill="#F9C295"/><path d="M22.593 10.388l-13.159.11c-1.416 0-2.498.481-3.28 1.213l12.773-.107c3 0 4.813 2.32 4.813 5.249v7.918c0 4.334-2.441 8.102-6.03 10.017 5.49-.828 9.697-5.542 9.697-11.232v-7.919c0-2.928-1.814-5.249-4.814-5.249z" fill="#E59F6A"/><path fill="#6CAD84" d="M19.818 51.124h7.998V55h-7.998z"/><path d="M26.719 35.539a1.61 1.61 0 01-1.614 1.605c-.89 0-1.613-.719-1.613-1.605s.723-1.605 1.613-1.605a1.61 1.61 0 011.614 1.605z" fill="#6C7DAD"/><path fill="#6CAD84" d="M15.37 42.767h1.667V55H15.37z"/><path d="M19.982 26.412a3.435 3.435 0 01-3.445 3.426h-1.11a3.435 3.435 0 01-3.445-3.426h8z" fill="#D37D42"/><path d="M16.149 42.767l-5.526-3.827a1.116 1.116 0 00-1.349.06l-.997.83a1.101 1.101 0 00.046 1.73l4.708 3.522a1.115 1.115 0 001.561-.225l1.557-2.09zm.055 0l1.556 2.09a1.115 1.115 0 001.56.225l4.71-3.522a1.101 1.101 0 00.045-1.73l-.997-.83a1.116 1.116 0 00-1.348-.06l-5.526 3.827z" fill="#6CAD84"/></g></svg>