<svg width="30" height="37" xmlns="http://www.w3.org/2000/svg"><g fill="none" fill-rule="evenodd"><path d="M13.61 29.497v-2.076c-.05-.043-.105-.077-.152-.124l-7.421-7.54c-.386-.332.62.32.99.14l2.901.67 8.936 8.93H13.61zm5.803 0h6.963V26.62a4.77 4.77 0 001.914-3.82c0-.643-.131-1.254-.362-1.812l-8.516 8.51z" fill="#F6CBAD"/><path d="M11.014 0L.182 10.826l5.867 5.864c.398-.362.92-.589 1.497-.589h6.383a2.24 2.24 0 012.234 2.233 2.24 2.24 0 01-2.234 2.233H9.927l9.211 9.205 10.833-10.826L11.014 0z" fill="#E8E8D3"/><path fill="#ECF0F1" d="M12.333 29.497h15.319v7.017H12.333z"/><path d="M22.546 36.515H12.333v-7.018h6.017a4.195 4.195 0 014.196 4.194v2.824z" fill="#AFB0B5"/><ellipse fill="#68696D" cx="18.397" cy="33.006" rx="1.596" ry="1.595"/><path d="M17.378 6.342a2.232 2.232 0 10-2.94-2.939l2.94 2.939z" fill="#F6CBAD"/><path d="M20.57 9.531a2.232 2.232 0 10-2.94-2.938l2.94 2.938z" fill="#F6CBAD"/><path d="M23.761 12.721a2.232 2.232 0 10-2.94-2.938l2.94 2.938z" fill="#F6CBAD"/><path d="M26.953 15.91a2.232 2.232 0 10-2.94-2.938l2.94 2.939z" fill="#F6CBAD"/><path d="M13.929 20.566H7.546a2.24 2.24 0 01-2.234-2.232A2.24 2.24 0 017.546 16.1h6.383a2.24 2.24 0 012.234 2.233 2.24 2.24 0 01-2.234 2.232z" fill="#E0B495"/><path d="M15.076 7.669a.638.638 0 01-.903 0L12.774 6.27c-1.036.688-2.486.688-3.52 0l-2.8 2.798a3.199 3.199 0 010 3.518l1.4 1.398a.637.637 0 11-.903.902l-2.257-2.255.452-.451a1.916 1.916 0 000-2.707l-.452-.45L9.21 4.51l.451.451c.723.723 1.984.723 2.708 0l.452-.45 2.257 2.255a.637.637 0 01-.001.902zm10.381 9.472l-2.256-2.255a.638.638 0 10-.903.902l1.4 1.398a3.199 3.199 0 000 3.519l-2.799 2.797c-1.036-.688-2.486-.688-3.52 0l-1.4-1.398a.638.638 0 10-.902.902l2.257 2.255.45-.45c.725-.724 1.985-.723 2.71 0l.45.45 4.514-4.51-.451-.451a1.916 1.916 0 010-2.707l.45-.452zm1.354 1.353a.638.638 0 10-.902.902.638.638 0 00.902-.902zm-8.124 7.218a.637.637 0 10.902.902.637.637 0 10-.902-.902zM11.466 4.06a.637.637 0 10-.903-.902.637.637 0 10.903.902zM3.34 10.375a.637.637 0 10.903.902.637.637 0 10-.903-.902z" fill="#6CAD84"/><path d="M19.138 10.826a5.747 5.747 0 00-8.124 0 5.73 5.73 0 00-1.549 5.275h4.463a2.24 2.24 0 012.234 2.233 2.233 2.233 0 01-2.025 2.211 5.738 5.738 0 005.001-9.719z" fill="#6CAD84"/></g></svg>