<svg width="60" height="60" xmlns="http://www.w3.org/2000/svg"><g fill="none" fill-rule="evenodd"><path fill="#68696D" d="M1 .5h58v6H1z"/><path fill="#E3E4E8" d="M3 6.5h54v42H3z"/><circle fill="#FF6C50" cx="30" cy="27.5" r="15"/><path fill="#FFF" d="M26 34.5v-14l11 7z"/><path d="M59 49.5H1a1 1 0 110-2h58a1 1 0 110 2z" fill="#68696D"/><path d="M30 52.5a1 1 0 01-1-1v-3a1 1 0 112 0v3a1 1 0 01-1 1z" fill="#68696D"/><path d="M30 59.5c-2.206 0-4-1.794-4-4s1.794-4 4-4 4 1.794 4 4-1.794 4-4 4zm0-6c-1.103 0-2 .897-2 2s.897 2 2 2 2-.897 2-2-.897-2-2-2z" fill="#68696D"/></g></svg>