<svg width="23" height="34" xmlns="http://www.w3.org/2000/svg"><g fill="none"><path d="M6.546 0H1.302C.608 0 .045.578.045 1.29v11.513c0 .744.288 1.457.8 1.982l3.71 3.81h1.99L11.5 8.162 6.546 0zm15.152 0h-5.244L11.5 8.163l4.954 10.431h1.99l3.711-3.809a2.84 2.84 0 00.8-1.982V1.29c0-.712-.563-1.29-1.257-1.29z" fill="#6C7DAD"/><path d="M1.965 15.935l2.59 2.66h1.99l3.483-7.333c-3.261.407-6.128 2.147-8.063 4.673zm11.007-4.673l3.482 7.332h1.99l2.591-2.659c-1.935-2.526-4.802-4.266-8.063-4.673z" fill="#57658D"/><path fill="#5AA5D8" d="M6.546 0h9.908v18.594H6.546z"/><path d="M16.454 12.257A11.794 11.794 0 0011.5 11.17c-1.764 0-3.44.389-4.954 1.087v6.337h9.908v-6.337z" fill="#4D92C0"/><ellipse fill="#AED1E9" cx="11.5" cy="23.611" rx="10.124" ry="10.389"/><ellipse fill="#E4F4FF" cx="11.5" cy="23.611" rx="7.297" ry="7.488"/><path d="M11.531 18.681c1.441 0 2.895.931 2.895 2.64 0 2.766-3.84 3.671-3.84 4.832v.114h3.256c.31 0 .584.396.584.855 0 .458-.273.88-.584.88H9.42c-.348 0-.845-.243-.845-.613v-1.236c0-2.002 3.914-3.15 3.914-4.769 0-.408-.249-.905-.944-.905-.497 0-.932.255-.932.956 0 .37-.385.727-1.02.727-.496 0-.869-.23-.869-1.033 0-1.555 1.392-2.448 2.808-2.448z" fill="#A4BFD6"/></g></svg>