<svg width="99" height="97" xmlns="http://www.w3.org/2000/svg"><g fill="none" fill-rule="evenodd"><path d="M20.25 23.004v69.992c0 1.918 1.32 2.891 3.15 2.32l22.454-7.017c2.879-.9 7.413-.9 10.292 0L78.6 95.315c1.832.572 3.151-.398 3.151-2.32v-69.99a3.752 3.752 0 00-3.745-3.755h-54.01a3.752 3.752 0 00-3.745 3.754z" stroke="#E2E4E8" stroke-width="2.5" fill="#FFF"/><g fill-rule="nonzero"><path d="M31 73l3.44-10.32a19.551 19.551 0 01-2.75-10.025C31.69 41.8 40.49 33 51.345 33S71 41.8 71 52.655 62.2 72.31 51.345 72.31c-3.303 0-6.413-.818-9.145-2.257L31 73z" fill="#FF7157"/><path d="M63.885 59.197c-.908-1.716-4.255-3.677-4.255-3.677-.757-.432-1.67-.48-2.102.29 0 0-1.088 1.304-1.365 1.491-1.263.856-2.433.823-3.615-.358l-2.745-2.746-2.746-2.745c-1.181-1.182-1.214-2.352-.358-3.615.187-.277 1.491-1.365 1.491-1.365.77-.432.722-1.345.29-2.102 0 0-1.961-3.347-3.677-4.255a1.88 1.88 0 00-2.209.333l-1.212 1.212c-3.846 3.846-1.952 8.188 1.894 12.034l3.515 3.516 3.515 3.515c3.846 3.846 8.188 5.74 12.035 1.894l1.212-1.213c.584-.585.718-1.48.332-2.21z" fill="#FFF"/></g><path fill="#FF7157" d="M9.86 20.743H6.39V17.28H4.465v3.463H.996v1.919h3.47v3.463h1.923v-3.463h3.47z"/><path d="M15.774 14.662a2.62 2.62 0 01-2.623 2.618 2.62 2.62 0 01-2.624-2.618 2.62 2.62 0 012.624-2.617 2.62 2.62 0 012.623 2.617" fill="#C73F1B"/><path d="M49.857 3.203a3.207 3.207 0 01-3.21 3.204 3.207 3.207 0 01-3.21-3.204A3.207 3.207 0 0146.647 0a3.207 3.207 0 013.21 3.203" fill="#FF7157"/><path d="M57.048 8.457c0 1.132-.92 2.05-2.054 2.05a2.053 2.053 0 01-2.055-2.05c0-1.132.92-2.05 2.055-2.05 1.134 0 2.054.918 2.054 2.05" fill="#C73F1B"/><path d="M91.337 14.164c0 1.195-.97 2.163-2.168 2.163A2.167 2.167 0 0187 14.164c0-1.195.972-2.164 2.169-2.164s2.168.969 2.168 2.164M98.9 46.766h-2.997v-2.99h-1.66v2.99h-2.998v1.657h2.998v2.99h1.66v-2.99H98.9z" fill="#FF7157"/><path d="M4.62 47.594c0 1.133-.92 2.05-2.055 2.05a2.053 2.053 0 01-2.054-2.05c0-1.132.92-2.05 2.054-2.05 1.135 0 2.055.918 2.055 2.05" fill="#C73F1B"/></g></svg>