<svg width="68" height="68" xmlns="http://www.w3.org/2000/svg"><g fill="none" fill-rule="evenodd"><path d="M63.75.025H4.25A4.248 4.248 0 000 4.272V38.24a4.25 4.25 0 004.25 4.247h59.5A4.25 4.25 0 0068 38.241V4.27A4.248 4.248 0 0063.75.026z" fill-rule="nonzero" fill="#AFB0B5"/><path d="M8.5 29.749v2.124c0 1.172.952 2.122 2.125 2.122h46.75c1.173 0 2.125-.95 2.125-2.122v-2.124h-51z" fill-rule="nonzero" fill="#999"/><path d="M8.5 17.01h51v12.738h-51z" fill-rule="nonzero" fill="#666"/><path d="M57.375 8.518h-46.75A2.125 2.125 0 008.5 10.64v6.37h51v-6.37a2.125 2.125 0 00-2.125-2.123z" fill="#FFF" fill-rule="nonzero"/><path d="M17 63.718a4.248 4.248 0 004.25 4.246h25.5A4.248 4.248 0 0051 63.718V17.01H17v46.708z" fill="#559C75"/><path d="M46.75 25.543V17.01h-25.5v8.599c3.124-2.658 7.684-4.348 12.778-4.356 5.07-.006 9.608 1.657 12.722 4.289zm-25.5 16.909v16.995c2.328.016 4.221 1.925 4.232 4.27h17.045c0-.01-.004-.02-.004-.029-.01-2.352 1.878-4.251 4.213-4.242l.014.001V42.408c-3.124 2.653-7.679 4.338-12.765 4.344-5.078.007-9.62-1.662-12.735-4.3zm16.982 12.776c.01 2.352-1.877 4.251-4.213 4.242-2.335-.01-4.236-1.924-4.246-4.274-.01-2.353 1.878-4.252 4.213-4.242 2.337.008 4.237 1.923 4.246 4.274zM34 38.238a4.202 4.202 0 01-3.033-1.294c-1.853 1.196-4.208 2.379-6.057 2.99 2.316 1.56 5.53 2.53 9.089 2.529 7.054 0 12.772-3.804 12.773-8.495.001-4.69-5.717-8.492-12.77-8.491-3.585 0-6.82.986-9.14 2.567 1.857.607 4.234 1.797 6.104 3.005a4.202 4.202 0 013.033-1.297 4.236 4.236 0 014.229 4.243A4.237 4.237 0 0134 38.238z" fill="#81D4A0"/></g></svg>