<svg width="80" height="80" xmlns="http://www.w3.org/2000/svg"><g fill="none"><circle fill="#E65A40" cx="40" cy="40" r="40"/><path d="M42.182 3.429H7.778a4.186 4.186 0 00-4.186 4.185V32.92a4.186 4.186 0 004.185 4.185h34.405a4.186 4.186 0 004.185-4.185V7.614a4.186 4.186 0 00-4.185-4.185z" fill="#28282C"/><path d="M42.182 0H7.778a4.186 4.186 0 00-4.186 4.186V29.49a4.186 4.186 0 004.185 4.186h34.405a4.186 4.186 0 004.185-4.186V4.186A4.186 4.186 0 0042.182 0z" fill="#48494F"/><g transform="translate(7.813 2.656)"><path d="M7.312 5.011L6.267.838a.972.972 0 00-.943-.736h-4.3a.972.972 0 00-.973.972v.017c0 .537.435.972.972.972h2.76c.448 0 .837.306.944.74l.723 2.944 3.67 14.95c.107.434.497.74.945.74H26.95a.972.972 0 00.943-.74l3.375-13.745a.972.972 0 00-.944-1.205H8.255a.973.973 0 01-.943-.736zm1.912 2.697h1.065c.487 0 .899.36.964.843l.088.659a.972.972 0 01-.963 1.102h-.994a.972.972 0 01-.945-.743l-.16-.659a.972.972 0 01.945-1.202zm1.108 4.565h.57c.488 0 .9.36.964.842l.108.801a.972.972 0 01-.964 1.102h-.483a.972.972 0 01-.945-.743l-.195-.8a.972.972 0 01.945-1.202zm.332 6.46l-.134-.552a.972.972 0 01.945-1.202h.06c.486 0 .898.36.963.843l.074.552a.972.972 0 01-1.908.359zm5.89.742H15.55a.972.972 0 01-.964-.843l-.074-.551a.972.972 0 01.963-1.102h1.079c.537 0 .972.436.972.973v.551a.973.973 0 01-.972.972zm0-4.457H14.95a.972.972 0 01-.964-.843l-.108-.8a.972.972 0 01.964-1.102h1.71c.537 0 .973.435.973.972v.8a.972.972 0 01-.972.973zm0-4.707h-2.235a.973.973 0 01-.964-.843l-.089-.658a.972.972 0 01.964-1.102h2.324c.537 0 .972.436.972.973v.658a.972.972 0 01-.972.972zm4.91 9.164H20.46a.972.972 0 01-.973-.972v-.551c0-.537.436-.973.973-.973h1.078a.972.972 0 01.964 1.102l-.075.551a.972.972 0 01-.963.843zm.599-4.457H20.46a.972.972 0 01-.973-.972v-.801c0-.537.436-.972.973-.972h1.71a.972.972 0 01.964 1.101l-.108.801a.972.972 0 01-.963.843zm.632-4.707h-2.236a.972.972 0 01-.972-.972v-.658c0-.537.435-.973.972-.973h2.324a.972.972 0 01.964 1.102l-.089.658a.972.972 0 01-.963.843zm2.71 9.164a.972.972 0 01-.964-1.101l.074-.552a.972.972 0 01.964-.843h.06c.63 0 1.093.59.944 1.202l-.134.551a.972.972 0 01-.944.743zm1.082-4.457h-.484a.972.972 0 01-.963-1.102l.107-.8a.972.972 0 01.964-.843h.57c.63 0 1.094.59.945 1.201l-.194.801a.973.973 0 01-.945.743zm-.815-5.808l.088-.659a.972.972 0 01.964-.843h1.066c.63 0 1.093.59.944 1.202l-.16.658a.972.972 0 01-.944.743h-.994a.972.972 0 01-.964-1.101z" fill="#FC6"/><circle fill="#FFD15C" cx="23.085" cy="26.413" r="2.549"/><circle fill="#FC6" cx="12.65" cy="26.413" r="2.549"/></g><path d="M63.654 48.71v16.986c0 2.448-.309 4.87-.908 7.21A39.805 39.805 0 0140 80a39.8 39.8 0 01-22.699-7.061 17.06 17.06 0 01-.971-5.688V50.98c0-1.388.561-2.643 1.47-3.552a5.024 5.024 0 018.576 3.553l.001-27.862a4.64 4.64 0 011.365-3.295c.289-.29.616-.54.973-.744a4.62 4.62 0 012.354-.62 4.66 4.66 0 014.627 4.658v20.104a4.659 4.659 0 119.32 0v1.585c0-1.288.522-2.452 1.364-3.296a4.66 4.66 0 017.954 3.296v3.902a4.66 4.66 0 019.32 0z" fill="#F9EED7"/><g fill="#E8DBC4"><path d="M26.377 50.981V67.76s-.421-17.199-5.024-21.801a5.023 5.023 0 015.024 5.023z"/><path d="M31.07 18.462l-.033-.001a4.62 4.62 0 00-2.322.62 4.556 4.556 0 00-1.253 1.052l-.009.01a4.639 4.639 0 00-1.076 2.977v27.861c0-.161-.008-.32-.023-.478v16.592a17.503 17.503 0 002.36-8.779l.001-33.333c0-1.96 1.375-6.137 4.178-6.137a4.65 4.65 0 00-1.824-.384zm9.319 20.103l-.033-.002a4.63 4.63 0 00-2.322.62 4.556 4.556 0 00-1.253 1.052l-.009.01a4.639 4.639 0 00-1.076 2.978l-.022 10.642a17.503 17.503 0 002.36-8.779c0-1.96 1.375-6.137 4.178-6.137a4.65 4.65 0 00-1.823-.384zm9.319 1.585l-.033-.001c-.846 0-1.64.225-2.321.62a4.556 4.556 0 00-1.254 1.052l-.008.01a4.639 4.639 0 00-1.076 2.977l-.023 10.642a17.503 17.503 0 002.36-8.779c0-1.96 1.375-6.137 4.179-6.137a4.65 4.65 0 00-1.824-.384zm9.319 3.902l-.033-.001c-.846 0-1.639.225-2.321.62a4.556 4.556 0 00-1.253 1.052l-.01.01a4.639 4.639 0 00-1.075 2.977l-.023 10.642a17.503 17.503 0 002.36-8.779c0-1.96 1.375-6.137 4.179-6.137a4.649 4.649 0 00-1.824-.384z"/></g></g></svg>