<svg width="55" height="55" xmlns="http://www.w3.org/2000/svg"><g fill="none" fill-rule="evenodd"><path d="M51.563 0H3.437A3.437 3.437 0 000 3.437v48.125A3.439 3.439 0 003.438 55h48.124A3.438 3.438 0 0055 51.562V3.437A3.437 3.437 0 0051.562 0z" fill="#FFF" fill-rule="nonzero"/><path d="M30.938 0v55h3.437V0h-3.438zM20.624 55h3.438V0h-3.438v55zm-10.313 0h3.438V0h-3.438v55z" fill="#F3F3F3"/><path d="M41.25 0h3.438v55H41.25z" fill="#88C057" fill-rule="nonzero"/><path d="M55 5.93L44.54 9.943c-.408-.408-1.04.302-1.571.351a1.853 1.853 0 00-1.49.53L22.344 29.96l-8.824-8.823a1.85 1.85 0 00-1.489-.53 1.853 1.853 0 00-1.489.53L0 31.678v5.274l12.031-12.031 8.882 8.882c.393.392.916.566 1.43.535a1.851 1.851 0 001.43-.535L42.97 14.609c.868-1.038 1.524-1.66 1.968-1.868.444-.207 3.797-1.455 10.059-3.746L55 5.93z" fill="#ED7161"/><path d="M12.031 18.905a3.438 3.438 0 100 6.876 3.438 3.438 0 000-6.876zM22.344 29.22a3.437 3.437 0 10-.001 6.874 3.437 3.437 0 000-6.874zM43.03 8.594a3.437 3.437 0 100 6.874 3.437 3.437 0 000-6.874z" fill="#ED7161"/></g></svg>