<svg width="20" height="26" xmlns="http://www.w3.org/2000/svg"><g fill="none"><path d="M9.954 12.716c2.891 0 5.235-2.847 5.235-6.358 0-3.512-.77-6.358-5.235-6.358S4.72 2.846 4.72 6.358c0 3.511 2.343 6.358 5.234 6.358z" fill="#5AA5D8"/><path d="M.08 22.423c0-.214-.002-.06 0 0zm19.773.167c.004-.058.001-.406 0 0z" fill="#000"/><path d="M19.83 22.167c-.097-6.117-.896-7.86-7.01-8.963 0 0-.86 1.096-2.866 1.096-2.006 0-2.866-1.096-2.866-1.096C1.04 14.294.194 16.012.082 21.968c-.009.486-.013.512-.015.455l.001.643S1.524 26 9.954 26s9.886-2.934 9.886-2.934v-.475c-.001.035-.004-.033-.01-.424z" fill="#5AA5D8"/></g></svg>