<svg width="50" height="56" xmlns="http://www.w3.org/2000/svg"><g fill="none" fill-rule="evenodd"><path d="M47.202 7.494L18.232.122c-1.999-.509-4.054.618-4.59 2.517L1.999 43.908c-.536 1.9.651 3.852 2.65 4.361l28.969 7.373c1.999.508 4.055-.619 4.59-2.518l11.643-41.27c.537-1.9-.65-3.852-2.65-4.36z" fill="#5AA6D9"/><path d="M33.333 5.405H3.703C1.659 5.405 0 7.015 0 9v43.156c0 1.986 1.658 3.597 3.704 3.597h29.63c2.045 0 3.703-1.61 3.703-3.597V9.001c0-1.986-1.658-3.596-3.704-3.596z" fill="#E3E4E8"/><path d="M31.481 9.001H5.556c-1.023 0-1.852.805-1.852 1.798v39.559c0 .994.83 1.8 1.852 1.8H31.48c1.023 0 1.852-.806 1.852-1.8V10.799c0-.994-.83-1.798-1.852-1.798z" fill="#FFF"/><path d="M24.713 28.12a5.11 5.11 0 00-2.118.469c.91-.933 1.48-2.168 1.48-3.535 0-2.903-2.506-5.256-5.594-5.256-3.09 0-5.595 2.353-5.595 5.256 0 1.286.51 2.449 1.326 3.361a5.164 5.164 0 00-1.879-.353c-2.715 0-4.915 2.067-4.915 4.619 0 2.55 2.2 4.618 4.915 4.618 1.809 0 3.373-.928 4.225-2.295.273 1.23.99 5.85-3.482 6.37H23.65s-4.604-.46-3.255-6.502c.824 1.46 2.437 2.466 4.318 2.466 2.71 0 4.906-2.063 4.906-4.609 0-2.545-2.197-4.609-4.906-4.609z" fill="#434655"/></g></svg>