<svg width="42" height="44" xmlns="http://www.w3.org/2000/svg"><g fill="none"><path fill="#336E95" d="M42 34.954L30.738 44l4.154-9.046-4.154-9.046z"/><path d="M30.738 25.908l7.57 9.046L30.738 44v-3.415H15.692C7.026 40.585 0 33.559 0 24.892v-3.784c0-3.008.846-5.817 2.312-8.204l8.95 7.188v4.8a4.435 4.435 0 004.43 4.431h15.046v-3.415z" fill="#3A7DAA"/><path fill="#4192C8" d="M0 9.046L11.262 0 7.108 9.046l4.154 9.046z"/><path d="M11.262 18.092l-7.57-9.046L11.262 0v3.415h15.046C34.974 3.415 42 10.441 42 19.108v3.784c0 3.008-.846 5.817-2.312 8.204l-8.95-7.188v-4.8a4.435 4.435 0 00-4.43-4.431H11.262v3.415z" fill="#5AA5D8"/></g></svg>