<svg width="62" height="88" xmlns="http://www.w3.org/2000/svg"><g fill="#D7D7D7"><path d="M61.867 29.913v-9.907a6.876 6.876 0 00-6.869-6.87 6.877 6.877 0 00-6.87 6.87v9.907a8.047 8.047 0 01-6.455 7.923l.313-7.871h3.193a1.3 1.3 0 000-2.6H42.09l.367-9.22h3.233a1.3 1.3 0 000-2.598h-3.175a11.387 11.387 0 00-2.447-6.69l2.1-2.83A1.3 1.3 0 1040.08 4.48l-1.87 2.516a11.372 11.372 0 00-5.909-2.466V1.3a1.3 1.3 0 10-2.599 0v3.233a11.37 11.37 0 00-5.909 2.466l-1.868-2.518a1.3 1.3 0 00-2.088 1.549l2.1 2.83a11.383 11.383 0 00-2.45 6.688h-3.169a1.3 1.3 0 000 2.6h3.233l.366 9.217h-3.093a1.3 1.3 0 000 2.6h3.197l.883 22.199a8.1 8.1 0 01-7.026-8.015v-9.914a6.877 6.877 0 00-6.869-6.87 6.877 6.877 0 00-6.869 6.87v9.906c.017 11.85 9.47 21.529 21.314 21.826l.772 19.433H1.441a1.3 1.3 0 100 2.6h59.126a1.3 1.3 0 000-2.6H39.783l1.336-33.675c11.617-.596 20.734-10.18 20.748-21.812zm-11.139 0v-9.907a4.274 4.274 0 014.27-4.27 4.276 4.276 0 014.27 4.27v9.907c-.013 10.156-7.91 18.558-18.045 19.2l.342-8.614a10.633 10.633 0 009.163-10.586zM2.74 44.14v-9.906a4.274 4.274 0 014.27-4.27 4.278 4.278 0 014.27 4.27v9.914a10.705 10.705 0 009.729 10.644l.341 8.573c-10.368-.35-18.596-8.85-18.61-19.225zM24.827 85.4l-1.262-31.838v-.021c0-.008-.005-.031-.005-.048l-.986-24.764c0-.022.007-.042.007-.064a1.216 1.216 0 00-.015-.148l-.484-12.179a8.93 8.93 0 1117.845 0l-.485 12.192c-.007.045-.012.09-.014.136 0 .02.006.039.006.059l-.42 10.567c0 .017-.004.034 0 .05v.01L37.181 85.4H24.827z"/><path d="M26.377 44.929a1.3 1.3 0 00-1.247 1.35l1.145 28.808a1.3 1.3 0 001.298 1.249h.052a1.3 1.3 0 001.247-1.35l-1.146-28.81a1.308 1.308 0 00-1.349-1.247z"/></g></svg>