<svg height="512" viewBox="0 0 64 64" width="512" xmlns="http://www.w3.org/2000/svg"><path d="M49.946 25h7.108l2-6h-7.108zm-30.892-6H12v6h5.054zm.892 6h7.108l2-6h-7.108zm10 0h7.108l2-6h-7.108zm10 0h7.108l2-6h-7.108zM16.829 10.617l-5.109 1.067.181 6.158 4.184-.874zM26 45.674V28.326L42.109 37zm-7.074-29.299l6.97-1.456.744-6.351-6.969 1.455zm9.811-2.049l6.969-1.456.745-6.352-6.97 1.456zm9.81-2.049l6.97-1.456.744-6.352-6.969 1.456zm9.811-2.049l6.969-1.456.745-6.352-6.97 1.456z" fill="#f0bc5e"/><path d="M63 24v-4c0-1.103-.897-2-2-2H16.036l43.37-9.058a2.015 2.015 0 001.553-2.375l-.812-3.961a1.998 1.998 0 00-.865-1.277 1.98 1.98 0 00-1.503-.287l-45.6 9.524A2.306 2.306 0 0010.675 10c-.742 0-1.445.358-1.88.958l-7.169 9.858A3.232 3.232 0 001 22.736c0 1.352.826 2.514 2 3.009V53c-1.103 0-2 .897-2 2v1c0 3.86 3.14 7 7 7h48c3.86 0 7-3.14 7-7v-1c0-1.103-.897-2-2-2V26c1.103 0 2-.897 2-2zm-2 0H13v-4h48zM9 26h46v23H9zM58.188 3.007l.809 3.977L13 16.591v-4.152zM3.242 21.993l7.17-9.859a.325.325 0 01.588.191V24H4.264a1.265 1.265 0 01-1.022-2.007zM61 56c0 2.757-2.243 5-5 5H8c-2.757 0-5-2.243-5-5l-.001-1H24v1c0 1.654 1.346 3 3 3h10c1.654 0 3-1.346 3-3v-1h21zm-35-1h12v1c0 .551-.449 1-1 1H27c-.551 0-1-.449-1-1zm33-2H5V26h2v23c0 1.103.897 2 2 2h46c1.103 0 2-.897 2-2V26h2z"/><circle cx="8" cy="21" r="1"/><path d="M55 57h2v2h-2zm-4 0h2v2h-2z"/></svg>