<svg width="102" height="102" xmlns="http://www.w3.org/2000/svg"><g fill="none" fill-rule="evenodd"><path d="M100.132 36.93L65.072 1.868a6.374 6.374 0 00-9.017 0L1.868 56.055a6.374 6.374 0 000 9.015l35.062 35.062a6.374 6.374 0 009.018 0l54.184-54.187a6.37 6.37 0 000-9.015z" fill="#FC6"/><path fill="#FF6C50" d="M85.788 22.587l-6.375-6.375L44.625 51l-18.85-18.85-6.376 6.374L38.25 57.375 16.212 79.413l6.375 6.375L44.625 63.75l18.85 18.85 6.376-6.374L51 57.375z"/><path d="M63.75 47.813c-5.239 0-16.221 4.033-19.125 6.374-2.904-2.34-13.886-6.374-19.125-6.374-9.563 0-9.563 6.374-9.563 9.562 0 3.188 0 9.563 9.563 9.563 5.239 0 16.221-4.034 19.125-6.376 2.904 2.342 13.886 6.376 19.125 6.376 9.563 0 9.563-6.376 9.563-9.563 0-3.188 0-9.563-9.563-9.563zM25.5 60.563c-3.188 0-3.188-3.188-3.188-3.188s0-3.188 3.188-3.188c5.28 0 12.75 3.188 12.75 3.188s-7.47 3.188-12.75 3.188zm38.25 0c-5.282 0-12.75-3.188-12.75-3.188s7.468-3.188 12.75-3.188c3.188 0 3.188 3.188 3.188 3.188s0 3.188-3.188 3.188z" fill="#E65A40"/><path d="M41.438 51a3.187 3.187 0 00-3.188 3.188v6.374a3.188 3.188 0 003.188 3.188h6.374A3.188 3.188 0 0051 60.562v-6.374A3.187 3.187 0 0047.812 51h-6.374z" fill="#FF947F"/></g></svg>