<svg width="105" height="95" xmlns="http://www.w3.org/2000/svg"><g fill="none" fill-rule="evenodd"><path d="M102 65.55L57.688 43.468c-3.06-1.525-8.02-1.525-11.079 0L2.294 65.549c-3.058 1.523-3.058 3.997 0 5.52l44.314 22.084c3.059 1.523 8.019 1.523 11.079 0l44.312-22.084c3.06-1.523 3.06-3.997.002-5.52z" fill="#AFB0B3"/><path d="M102 51.847l-44.313-22.08c-3.06-1.525-8.02-1.525-11.079 0L2.294 51.847c-3.058 1.524-3.058 3.997 0 5.52l44.314 22.084c3.059 1.523 8.019 1.523 11.079 0l44.312-22.084c3.06-1.523 3.06-3.996.002-5.52z" fill="#C5C7CA"/><path d="M102 38.145l-44.313-22.08c-3.06-1.525-8.02-1.525-11.079 0L2.294 38.145c-3.058 1.524-3.058 3.997 0 5.52L46.608 65.75c3.059 1.523 8.019 1.523 11.079 0l44.312-22.084c3.06-1.523 3.06-3.996.002-5.52z" fill="#E3E4E8"/><path d="M102 23.227L57.688 1.143c-3.06-1.523-8.02-1.523-11.079 0L2.294 23.227c-3.058 1.523-3.058 3.995 0 5.52l44.314 22.082c3.059 1.523 8.019 1.523 11.079 0l44.312-22.082c3.06-1.525 3.06-3.997.002-5.52zm-49.785 15.78c-12.599 0-22.812-5.817-22.812-12.992 0-7.176 10.213-12.993 22.812-12.993 12.597 0 22.812 5.817 22.812 12.993 0 7.175-10.215 12.992-22.812 12.992z" fill="#FF6C50"/></g></svg>