<svg width="70" height="61" xmlns="http://www.w3.org/2000/svg"><g fill="#F0F1F3" fill-rule="evenodd"><path d="M34.736 53.951l13.483 6.692L69.6 15.967 38.628.027 34.484 8.25 30.97 1.09 0 17.03l20.268 43.59 14.468-6.669zm4.84-51.029L66.76 16.914l-19.544 40.84-28.207-13.999L39.576 2.922zm-9.574 1.074l3.27 6.662-17.154 34.053 16.156 8.018-10.954 5.05-18.5-39.791L30.001 3.996z"/><path d="M41.142 8.366l-1.927-.955 1.077-2.138 1.927.955zM7.757 18.101l1.077 2.138-1.927.956-1.077-2.138zm37.92 34.206l1.926.956-1.077 2.138-1.926-.956zM38.18 39.44l.305.502.93.02c2.933 0 12.732-.427 15.712-5.91 1.643-3.025 1.532-7.3-1.513-8.93-1.885-1.01-4.605-1.246-6.452-.582a5.73 5.73 0 00-.296-1.369c-.504-1.443-1.55-2.647-2.944-3.394-.87-.467-1.895-.713-2.964-.713-2.54 0-4.964 1.32-6.033 3.284-3.322 6.11 2.985 16.646 3.255 17.092zm-1.36-16.077c.682-1.253 2.42-2.162 4.137-2.162.713 0 1.385.157 1.943.457.919.492 1.604 1.277 1.93 2.211a3.376 3.376 0 01-.212 2.754l1.895 1.015c.664-1.221 2.367-1.353 3.07-1.353 1.061 0 2.16.261 3.01.717 1.954 1.046 1.62 4.233.641 6.035-2.376 4.367-11.461 4.753-13.512 4.782-1.773-3.127-5.05-10.504-2.902-14.456z"/></g></svg>