<svg width="36" height="47" xmlns="http://www.w3.org/2000/svg"><g fill="none" fill-rule="evenodd"><path d="M35.073 43.26a2.993 2.993 0 01-2.985 2.984H5.093a2.993 2.993 0 01-2.986-2.985V8.434A2.993 2.993 0 015.094 5.45h26.995a2.993 2.993 0 012.985 2.984V43.26z" fill="#E65A40"/><path fill="#E3E4E8" d="M27.61 44.632L.926 40.546l5.016-32.79 26.682 4.086z"/><path fill="#FFF" d="M4.162 9.44l26.933-1.73 2.126 33.102-26.933 1.73z"/><path d="M25.704 7.19c-1.391-.465-3.034-.979-3.967-1.615a3.156 3.156 0 00.512-1.714c0-1.839-1.592-3.33-3.556-3.33-1.963 0-3.555 1.491-3.555 3.33 0 .628.188 1.213.511 1.714-.931.636-2.575 1.15-3.966 1.614-1.968.656-1.715 3.178-1.715 3.178H27.42s.251-2.522-1.716-3.178zm-7.01-1.602c-1.02 0-1.845-.773-1.845-1.728 0-.952.826-1.727 1.844-1.727 1.02 0 1.846.774 1.846 1.727 0 .955-.827 1.728-1.846 1.728z" fill="#818389"/></g></svg>