<svg width="57" height="60" xmlns="http://www.w3.org/2000/svg"><g fill="none" fill-rule="evenodd"><path d="M36.092 4.611c.001.05.008.1.008.15 0 1.297-.26 2.533-.73 3.66 8.24 3.447 14.03 11.596 14.03 21.104 0 1.298-.113 2.57-.321 3.81h3.846c.178-1.245.275-2.517.275-3.81 0-11.374-7.106-21.08-17.108-24.913zM3.8 29.524c0-3.165.654-6.172 1.813-8.912a34.103 34.103 0 01-2.061-4.384A26.562 26.562 0 000 29.524C0 44.25 11.91 56.19 26.6 56.19c4.08 0 7.944-.923 11.4-2.569v-4.307a22.647 22.647 0 01-11.4 3.066c-12.592 0-22.8-10.233-22.8-22.856z" fill="#AFB0B5"/><path d="M29.283 26.976C27.84 25.53 7.22 7.203 5.778 8.65c-1.443 1.446 16.84 22.118 18.282 23.562a3.685 3.685 0 005.223 0 3.708 3.708 0 000-5.236z" fill="#6CAD84"/><ellipse fill="#6CAD84" cx="26.6" cy="4.761" rx="3.8" ry="3.81"/><path d="M49.4 44.762h-3.8v-3.81h7.6c1.049 0 1.9-.853 1.9-1.904a1.902 1.902 0 00-1.9-1.905h-9.5c-1.049 0-1.9.852-1.9 1.905v.387c0 .01-.003.018-.003.027v7.25c0 .744.453 1.381 1.101 1.676.245.115.514.183.802.183h5.7c2.099 0 3.8 1.705 3.8 3.809a3.805 3.805 0 01-3.8 3.81 3.805 3.805 0 01-3.8-3.81 1.903 1.903 0 00-1.9-1.905c-1.049 0-1.9.854-1.9 1.905 0 4.209 3.403 7.62 7.6 7.62 4.197 0 7.6-3.411 7.6-7.62 0-4.207-3.403-7.618-7.6-7.618z" fill="#FF6C50"/></g></svg>