<svg width="51" height="52" xmlns="http://www.w3.org/2000/svg"><g fill="none" fill-rule="evenodd"><path d="M47.813 0H3.187A3.194 3.194 0 000 3.2V48c0 1.768 1.427 3.2 3.188 3.2h44.624A3.194 3.194 0 0051 48V3.2C51 1.433 49.573 0 47.812 0z" fill-rule="nonzero" fill="#CCC"/><path d="M46.219 41.6H4.78c-.88 0-1.593.717-1.593 1.6v3.2c0 .884.713 1.6 1.593 1.6h41.44c.88 0 1.593-.716 1.593-1.6v-3.2c0-.883-.713-1.6-1.593-1.6zm0-38.4H4.78c-.88 0-1.593.717-1.593 1.6V8c0 .884.713 1.6 1.593 1.6h41.44c.88 0 1.593-.716 1.593-1.6V4.8c0-.883-.713-1.6-1.593-1.6zm0 28.8H4.78c-.88 0-1.593.717-1.593 1.6v3.2c0 .884.713 1.6 1.593 1.6h41.44c.88 0 1.593-.716 1.593-1.6v-3.2c0-.883-.713-1.6-1.593-1.6zm0-9.6H4.78c-.88 0-1.593.717-1.593 1.6v3.2c0 .884.713 1.6 1.593 1.6h41.44c.88 0 1.593-.716 1.593-1.6V24c0-.883-.713-1.6-1.593-1.6z" fill="#FFF"/><path d="M46.219 12.8H4.78c-.88 0-1.593.717-1.593 1.6v3.2c0 .883.713 1.6 1.593 1.6h41.44c.88 0 1.593-.717 1.593-1.6v-3.2c0-.883-.713-1.6-1.593-1.6z" fill-rule="nonzero" fill="#E6E6E6"/></g></svg>