<svg width="85" height="85" xmlns="http://www.w3.org/2000/svg"><g fill="none" fill-rule="evenodd"><path d="M45.156 47.632H5.311v34.399c0 1.46 1.19 2.646 2.658 2.646a2.652 2.652 0 002.656-2.646V52.924h34.531v26.462c0 2.923 2.379 5.292 5.313 5.292h23.906c2.934 0 5.313-2.37 5.313-5.292V47.632H45.156z" fill="#E2E4E8"/><path d="M71.719 52.924H53.125a2.651 2.651 0 00-2.656 2.647v5.292c0 1.46 1.19 2.646 2.656 2.646h18.594a2.652 2.652 0 002.656-2.646V55.57a2.651 2.651 0 00-2.656-2.647zm0 15.877H53.125a2.651 2.651 0 00-2.656 2.646v5.293c0 1.46 1.19 2.646 2.656 2.646h18.594a2.652 2.652 0 002.656-2.646v-5.293a2.651 2.651 0 00-2.656-2.646z" fill="#818389"/><path d="M62.422 58.215c.733 0 1.328-.592 1.328-1.323s-.595-1.324-1.328-1.324c-.735 0-1.328.593-1.328 1.324 0 .73.593 1.323 1.328 1.323zm0 13.231c-.735 0-1.328.593-1.328 1.323s.593 1.323 1.328 1.323c.733 0 1.328-.592 1.328-1.323 0-.73-.595-1.323-1.328-1.323z" fill="#E2E4E8"/><path d="M82.344 42.338H2.656A2.652 2.652 0 000 44.985c0 1.46 1.19 2.646 2.656 2.646h79.688A2.652 2.652 0 0085 44.985a2.653 2.653 0 00-2.656-2.647z" fill="#818389"/><path d="M61.092 0H23.906a2.651 2.651 0 00-2.656 2.646v26.462h42.5V2.646C63.75 1.186 62.56 0 61.092 0z" fill="#48494F"/><path d="M21.25 29.11v5.291a2.652 2.652 0 002.656 2.648h13.28l-2.655 5.29H50.47l-2.655-5.29h13.28A2.652 2.652 0 0063.75 34.4v-5.29h-42.5z" fill="#AFB0B5"/></g></svg>