<svg width="13" height="12" fill="none" xmlns="http://www.w3.org/2000/svg"><path d="M5.924 1.347a.625.625 0 011.152 0l.836 1.995c.198.473.644.797 1.155.84l2.156.177a.625.625 0 01.356 1.097l-1.64 1.411a1.375 1.375 0 00-.44 1.358l.496 2.105a.625.625 0 01-.933.678L7.214 9.885a1.375 1.375 0 00-1.428 0l-1.848 1.123a.625.625 0 01-.933-.678L3.5 8.225a1.375 1.375 0 00-.44-1.358L1.42 5.456a.625.625 0 01.356-1.097l2.156-.178a1.375 1.375 0 001.155-.839l.836-1.995z" stroke="#8C8C8C" stroke-width=".75"/></svg>