<svg width="27" height="29" xmlns="http://www.w3.org/2000/svg"><g fill="none" fill-rule="evenodd"><path d="M14.4 17.219c-.994 0-1.8-.405-1.8-.907v5.438c0 .501.806.906 1.8.906.17 0 12.6-.906 12.6-.906v-5.438s-12.43.907-12.6.907z" fill="#D46557"/><path d="M14.4 11.781c-.994 0-1.8-.405-1.8-.906v5.438c0 .5.806.906 1.8.906.17 0 12.6-.907 12.6-.907v-5.437s-12.43.906-12.6.906z" fill="#408EC2"/><path d="M14.4 6.344c-.994 0-1.8-.405-1.8-.907v5.438c0 .501.806.906 1.8.906.17 0 12.6-.906 12.6-.906V5.437s-12.43.907-12.6.907z" fill="#E6E6E6"/><path d="M12.6 16.313v5.437c0-.5.806-.906 1.8-.906s1.8-.406 1.8-.907v-3.625h-3.6z" fill="#BA594C"/><path d="M14.4 13.594c-.244 0-9 .906-9 .906v5.438s8.756-.906 9-.906c.994 0 1.8.405 1.8.905V14.5c0-.5-.806-.906-1.8-.906z" fill="#ED7161"/><path d="M14.4 8.156c-.244 0-9 .906-9 .906V14.5s8.756-.906 9-.906c.994 0 1.8.405 1.8.906V9.062c0-.5-.806-.906-1.8-.906z" fill="#48A0DC"/><path d="M14.4 2.719c-.244 0-9 .906-9 .906v5.438s8.756-.907 9-.907c.994 0 1.8.406 1.8.906V3.625c0-.5-.806-.906-1.8-.906z" fill="#E6E6E6"/><path d="M8.1 27.187H5.4V3.374c.535-.315.9-.893.9-1.562A1.806 1.806 0 004.5 0c-.994 0-1.8.811-1.8 1.812 0 .67.364 1.247.9 1.562v23.813H.9c-.497 0-.9.406-.9.907 0 .5.403.906.9.906h7.2c.497 0 .9-.406.9-.906s-.403-.907-.9-.907z" fill="#CCC"/></g></svg>