<svg width="29" height="32" xmlns="http://www.w3.org/2000/svg"><g fill="none"><path d="M10.667 28.632v-8.983c0-1.86 2.387-3.368 5.333-3.368a8.09 8.09 0 011.965.239V0H0v31.439h13.054c-1.438-.604-2.387-1.635-2.387-2.807" fill="#5AA5D8"/><path d="M19.65 15.391V.001h-1.685v19c0-1.425.65-2.705 1.684-3.61M2.807 11.842a7.287 7.287 0 016.175-3.42 7.286 7.286 0 016.176 3.42v-5.68a3.088 3.088 0 01-3.354-3.354L6.16 2.806A3.088 3.088 0 012.806 6.16v5.681zm7.86 12.298v-1.322c-.541.128-1.104.2-1.685.2a7.286 7.286 0 01-6.175-3.422v5.681a3.087 3.087 0 013.354 3.354h4.506V24.14zm2.807-21.052a1.405 1.405 0 012.807 0 1.405 1.405 0 01-2.807 0m-11.79 0a1.405 1.405 0 012.807 0 1.405 1.405 0 01-2.807 0m0 25.262a1.405 1.405 0 012.807 0 1.405 1.405 0 01-2.807 0" fill="#3186C0"/><path d="M12.305 17.223c1.179-2.105.046-4.31.046-4.31-.479-.14-1.882.278-2.043.732a2.791 2.791 0 00-1.887-.733c-.912 0-1.298.955-1.576 1.05-.136.047-.277.07-.417.073-.42.007-.811-.21-1.093-.519l-2.092-2.295a7.26 7.26 0 00-1.559 4.498c0 1.7.586 3.259 1.559 4.499l2.073-2.279c.34-.374.843-.6 1.34-.514.071.013.141.03.211.054.18.06 1.063 1.001 1.257 1.023.588 1.387 1.871.832 2.752.22.263-.58.76-1.093 1.43-1.499" fill="#3186C0"/><path d="M28.632 12.912c0 1.86-2.388 3.369-5.334 3.369-2.945 0-5.333-1.508-5.333-3.369 0-1.86 2.388-3.368 5.333-3.368 2.946 0 5.334 1.508 5.334 3.368" fill="#99D6FF"/><path d="M23.298 29.754a8.037 8.037 0 01-2.138-.283c-.256.627-.787 1.182-1.51 1.612.954.567 2.235.917 3.648.917 2.946 0 5.334-1.508 5.334-3.368v-2.246c0 1.86-2.388 3.368-5.334 3.368" fill="#86BADD"/><path d="M23.298 27.509a8.09 8.09 0 01-1.965-.24v1.363c0 .29-.064.57-.173.839a8.037 8.037 0 002.138.283c2.946 0 5.334-1.508 5.334-3.368V24.14c0 1.86-2.388 3.369-5.334 3.369" fill="#99D6FF"/><path d="M23.298 25.263a8.09 8.09 0 01-1.965-.239v2.246a8.09 8.09 0 001.965.239c2.946 0 5.334-1.508 5.334-3.369v-2.245c0 1.86-2.388 3.368-5.334 3.368" fill="#86BADD"/><path d="M23.298 23.018a8.09 8.09 0 01-1.965-.24v2.246a8.09 8.09 0 001.965.24c2.946 0 5.334-1.509 5.334-3.37V19.65c0 1.86-2.388 3.369-5.334 3.369" fill="#99D6FF"/><path d="M23.298 20.772a8.09 8.09 0 01-1.965-.24v2.246a8.09 8.09 0 001.965.24c2.946 0 5.334-1.508 5.334-3.369v-2.245c0 1.86-2.388 3.368-5.334 3.368" fill="#86BADD"/><path d="M23.298 18.526a7.896 7.896 0 01-2.554-.41c.374.46.59.98.59 1.533v.884a8.09 8.09 0 001.964.239c2.946 0 5.334-1.508 5.334-3.368v-2.246c0 1.86-2.388 3.368-5.334 3.368" fill="#99D6FF"/><path d="M17.965 12.912v3.608c0 .553.007.005.381.465.938.324 1.91.529 2.398 1.13.759.262 1.63.411 2.554.411 2.946 0 5.334-1.508 5.334-3.368v-2.246c0 1.86-2.388 3.369-5.334 3.369-2.945 0-5.333-1.508-5.333-3.369z" fill="#86BADD"/><path d="M16 29.754c-2.946 0-5.333-1.508-5.333-3.368v2.246C10.667 30.492 13.054 32 16 32s5.333-1.508 5.333-3.368v-2.246c0 1.86-2.387 3.368-5.333 3.368" fill="#99D6FF"/><path d="M16 27.509c-2.946 0-5.333-1.508-5.333-3.369v2.246c0 1.86 2.387 3.368 5.333 3.368s5.333-1.508 5.333-3.368V24.14c0 1.86-2.387 3.369-5.333 3.369" fill="#86BADD"/><path d="M16 25.263c-2.946 0-5.333-1.508-5.333-3.368v2.245c0 1.86 2.387 3.369 5.333 3.369S21.333 26 21.333 24.14v-2.245c0 1.86-2.387 3.368-5.333 3.368" fill="#99D6FF"/><path d="M16 23.018c-2.946 0-5.333-1.508-5.333-3.369v2.246c0 1.86 2.387 3.368 5.333 3.368s5.333-1.508 5.333-3.368v-2.246c0 1.86-2.387 3.369-5.333 3.369" fill="#86BADD"/><path d="M21.333 19.65c0 1.86-2.387 3.368-5.333 3.368s-5.333-1.508-5.333-3.369c0-1.86 2.387-3.368 5.333-3.368s5.333 1.508 5.333 3.368" fill="#99D6FF"/><path d="M23.018 9.553V0h-1.685v9.783a8.026 8.026 0 011.685-.23" fill="#3186C0"/><path d="M21.333 9.783V0H19.65v10.46a6.288 6.288 0 011.684-.677" fill="#86BADD"/></g></svg>