<svg width="72" height="72" xmlns="http://www.w3.org/2000/svg"><g fill="none" fill-rule="evenodd"><path d="M0 54v13.5A4.5 4.5 0 004.5 72h63a4.5 4.5 0 004.5-4.5V54H0zm63-36a4.5 4.5 0 00-4.5-4.5h-6.75V9H54a2.25 2.25 0 002.25-2.249v-4.5A2.251 2.251 0 0054 0H40.5a2.251 2.251 0 00-2.25 2.251v4.5A2.25 2.25 0 0040.5 9h2.25v4.5H13.5A4.5 4.5 0 009 18v13.5h54V18z" fill="#818389"/><path d="M65.25 58.5H6.75a2.251 2.251 0 00-2.25 2.251v4.5A2.25 2.25 0 006.75 67.5h58.5a2.25 2.25 0 002.25-2.249v-4.5a2.251 2.251 0 00-2.25-2.251zM63 31.5H9L0 54.001h72z" fill="#E3E4E8"/><path fill="#818389" d="M58.5 36.001H36V49.5h27z"/><path d="M56.25 18h-18A2.251 2.251 0 0036 20.251v4.5a2.25 2.25 0 002.25 2.25h18a2.25 2.25 0 002.25-2.25v-4.5A2.251 2.251 0 0056.25 18z" fill="#5AA6D9"/><path d="M29.25 20.251h-13.5a2.25 2.25 0 100 4.5h13.5a2.251 2.251 0 000-4.5z" fill="#48494F"/><path d="M15.75 22.5v22.501a2.25 2.25 0 002.25 2.25h9a2.25 2.25 0 002.25-2.25V22.5h-13.5z" fill="#FFF"/></g></svg>