<svg width="31" height="31" xmlns="http://www.w3.org/2000/svg"><g fill="none" fill-rule="evenodd"><path fill="#48494F" d="M22.196 3.145l7.2 7.2-.282.283H31V3.145zm-9.276 0H3.742a3.741 3.741 0 100 7.483h2.261l-.282-.283 7.2-7.2z"/><path d="M8.842 4.472a27.06 27.06 0 01-1.048.056.534.534 0 00.019 1.068h.02c.367-.013.732-.032 1.088-.058a.534.534 0 00-.08-1.066zM5.66 4.58c-.373.01-.738.024-1.088.046a.535.535 0 00.032 1.068l.034-.001c.339-.021.69-.034 1.05-.044a.536.536 0 00.52-.549c-.007-.295-.262-.506-.549-.52zm-3.33.4c-.485.16-.856.372-1.133.65a.534.534 0 10.755.755c.154-.153.393-.284.71-.389a.535.535 0 00-.332-1.015zm24.394-.232h-1.069a.534.534 0 100 1.07h1.07a.534.534 0 100-1.07zm3.207 0h-1.069a.534.534 0 100 1.07h1.069a.534.534 0 100-1.07z" fill="#68696D"/><path d="M29.694 10.628L19.134.083a.074.074 0 00-.104 0L8.47 10.628h21.223z" fill="#E8E8D3"/><path d="M8.485 10.628l9.073-9.073L16.087.083a.074.074 0 00-.105 0L5.423 10.628h3.062z" fill="#C6C6A9"/><path d="M25.298 10.962l.165-.165-6.35-6.342a.043.043 0 00-.062 0l-6.347 6.342.165.165h12.429z" fill="#6CAD84"/><path d="M0 6.886V27.65a3.288 3.288 0 003.288 3.288H31v-20.31H3.741A3.741 3.741 0 010 6.886z" fill="#68696D"/><path d="M27.793 13.3h-1.069a.534.534 0 110-1.069h1.07a.534.534 0 110 1.07zm-3.207 0h-1.069a.534.534 0 110-1.069h1.07a.534.534 0 110 1.07zm-3.207 0H20.31a.534.534 0 110-1.069h1.07a.534.534 0 110 1.07zm-3.207 0h-1.069a.534.534 0 110-1.069h1.07a.534.534 0 110 1.07zm-3.206 0h-1.07a.534.534 0 110-1.069h1.07a.534.534 0 110 1.07zm-3.207 0h-1.07a.534.534 0 110-1.069h1.07a.534.534 0 110 1.07zm-3.207 0h-1.07a.534.534 0 110-1.069h1.07a.534.534 0 110 1.07zm-3.207 0h-1.07a.534.534 0 110-1.069h1.07a.534.534 0 110 1.07zm-3.158-.337a.53.53 0 01-.222-.048 4.28 4.28 0 01-1.023-.658.536.536 0 01.7-.809 3.2 3.2 0 00.767.494.534.534 0 01-.222 1.021zm25.606 16.372h-1.069a.534.534 0 110-1.07h1.07a.534.534 0 110 1.07zm-3.207 0h-1.069a.534.534 0 110-1.07h1.07a.534.534 0 110 1.07zm-3.207 0H20.31a.534.534 0 110-1.07h1.07a.534.534 0 110 1.07zm-3.207 0h-1.069a.534.534 0 110-1.07h1.07a.534.534 0 110 1.07zm-3.206 0h-1.07a.534.534 0 110-1.07h1.07a.534.534 0 110 1.07zm-3.207 0h-1.07a.534.534 0 110-1.07h1.07a.534.534 0 110 1.07zm-3.207 0h-1.07a.534.534 0 110-1.07h1.07a.534.534 0 110 1.07zm-3.207 0h-1.07a.534.534 0 110-1.07h1.07a.534.534 0 110 1.07zm-3.158-.337a.53.53 0 01-.222-.049 4.28 4.28 0 01-1.023-.658.536.536 0 01.7-.808c.231.2.49.367.767.494a.534.534 0 01-.222 1.02z" fill="#AFB0B5"/><path d="M31 24.079h-6.414a3.207 3.207 0 110-6.414H31v6.414z" fill="#28282C"/><path d="M31 23.455h-6.414a3.207 3.207 0 110-6.414H31v6.414z" fill="#34343A"/><circle fill="#6CAD84" cx="25.121" cy="20.248" r="1.603"/></g></svg>