<svg width="86" height="79" xmlns="http://www.w3.org/2000/svg"><g fill="none" fill-rule="evenodd"><path fill="#6CAD84" fill-rule="nonzero" d="M63.86 41.404V76.49H7.72V41.404H2.104V27.368h67.369v14.036z"/><path d="M42.807 27.368H2.105v14.036H7.72v32.42c23.228-7.298 34.667-24 35.088-46.456z" fill="#92DDAE" fill-rule="nonzero"/><path fill="#4D7F60" fill-rule="nonzero" d="M62.456 27.368v14.036H7.72v7.017h49.123v28.07h7.018V41.404h5.614V27.368z"/><path d="M7.72 41.404H5.473l2.245 2.245z"/><path fill="#FFF" fill-rule="nonzero" d="M28.772 23.158h14.035V76.49H28.772z"/><path d="M84.632 74.737c-.14-.07-.21-.14-.351-.21-.14-.07-.21-.07-.421-.141a2.081 2.081 0 00-1.895.561c-.421.421-.632.913-.632 1.474 0 .14 0 .28.07.35 0 .141.07.282.14.422.071.14.141.21.211.35.07.141.14.211.281.352.07.07.21.21.351.28.14.07.21.14.35.211.141.07.282.07.352.14.14 0 .28.07.42.07.562 0 1.124-.21 1.474-.56.14-.071.211-.211.281-.352.07-.14.14-.21.21-.42.07-.141.07-.282.141-.352 0-.14.07-.28.07-.42 0-.562-.21-1.124-.561-1.474-.21-.07-.351-.211-.491-.281zM31.368.35c-.49-.28-1.052-.421-1.543-.28-.562.14-1.053.42-1.334.911-.28.492-.42 1.053-.28 1.614l2.807 14.036c.07.912.982 1.614 1.964 1.614.14 0 .281 0 .422-.07.56-.14 1.052-.422 1.333-.913.28-.491.42-1.052.28-1.614L32.212 1.614c-.07-.491-.422-.982-.843-1.263zm9.053 6.737c-.561-.14-1.123 0-1.544.28-.491.281-.772.772-.912 1.334l-1.404 7.017c-.14.562 0 1.123.281 1.614.28.492.772.772 1.333.913.14 0 .281.07.421.07.983 0 1.895-.702 2.036-1.684l1.403-7.018c.14-.561 0-1.123-.28-1.614a1.814 1.814 0 00-1.334-.912z" fill="#28282C" fill-rule="nonzero"/><path d="M76.421 74.386H65.965V43.509h3.509c1.193 0 2.105-.913 2.105-2.105V27.368c0-1.193-.912-2.105-2.105-2.105h-6.807c1.544-2.105 2.175-4.772 1.754-7.509-.632-3.86-3.579-7.017-7.368-8-4.281-1.122-8.562.562-10.948 4.281l-4.42 7.018h-11.79l-4.421-6.948c-2.456-3.86-6.878-5.544-11.228-4.21-4.421 1.193-7.228 4.982-7.228 9.544 0 2.105.631 4.14 1.894 5.824H2.105C.912 25.263 0 26.175 0 27.368v14.036c0 1.192.912 2.105 2.105 2.105h24.562v30.877H9.825V48.421c0-1.193-.913-2.105-2.106-2.105-1.193 0-2.105.912-2.105 2.105v28.07c0 1.193.912 2.105 2.105 2.105h68.772c1.263 0 2.316-1.192 2.035-2.526-.14-.982-1.122-1.684-2.105-1.684zM26.667 39.298H4.21v-9.824h22.456v9.824zm0-14.035h-9.614a5.81 5.81 0 01-5.825-5.824c0-3.228 2.246-4.983 4.21-5.544a6.141 6.141 0 011.685-.21c1.684 0 3.579.701 4.842 2.666l4.702 7.438v1.474zm14.035 49.123h-9.825V25.263h9.825v49.123zm4.21-50.597l4.702-7.438c1.754-2.737 4.561-3.018 6.526-2.456 1.965.561 4.21 2.386 4.21 5.544a5.81 5.81 0 01-5.824 5.824h-9.614V23.79zm0 5.685h22.456v9.824H44.912v-9.824zm16.842 44.912H44.912V43.509h16.842v30.877z" fill="#28282C" fill-rule="nonzero"/></g></svg>