<svg width="83" height="88" xmlns="http://www.w3.org/2000/svg"><g fill="none" fill-rule="evenodd"><path d="M19.28 82.499c0 2.751 5.508 5.5 22.033 5.5 16.524 0 22.033-2.749 22.033-5.5V79.75H19.28v2.749zM2.755 85.25c1.378 0 8.261-1.288 8.261-2.751V77L.001 79.75s1.376 5.5 2.754 5.5zM71.608 77v5.499c0 1.461 6.885 2.751 8.26 2.751 1.378 0 2.756-5.5 2.756-5.5L71.608 77z" fill="#D45038"/><path d="M77.116 21.999c-2.754-2.749-11.016-8.25-11.016-8.25H16.526S8.264 19.25 5.51 21.999c-2.755 2.75-5.51 16.5-5.51 22V79.75c2.1 0 11.016-.756 11.016-2.75 0-4.636 1.52-15.517 2.756-22 1.743-9.167 2.754-8.25 2.754-8.25V77c0 2.75 5.508 5.499 24.787 5.499S66.1 79.75 66.1 77c-.002-1.38 0-30.25 0-30.25s1.01-.917 2.752 8.25c1.234 6.483 2.756 17.364 2.756 22 0 1.994 8.916 2.75 11.016 2.75V43.999c0-5.5-2.754-19.25-5.508-22z" fill="#FF6C50"/><path d="M35.805 16.499a2.752 2.752 0 00-2.754 2.751v13.749a2.752 2.752 0 002.754 2.75 2.753 2.753 0 002.754-2.75V19.25a2.754 2.754 0 00-2.754-2.751zm11.016 0a2.752 2.752 0 00-2.754 2.751v11a2.751 2.751 0 002.754 2.749 2.752 2.752 0 002.754-2.749v-11a2.753 2.753 0 00-2.754-2.751z" fill="#FFF"/><path d="M60.592 57.75c-1.033 0-2.755 1.633-2.755 2.749 0 1.317 4.992 13.751 8.263 13.751V66c-1.636 0-4.334-8.25-5.508-8.25zm-38.558 0c-1.176 0-3.873 8.25-5.508 8.25v8.25c3.27 0 8.262-12.434 8.262-13.751 0-1.116-1.721-2.749-2.754-2.749z" fill="#D45138"/><path d="M46.821 0H35.805S24.788 4.175 24.788 8.25c0 5.478 13.77 13.749 13.77 13.749s.517 5.501 2.755 5.501 2.754-5.501 2.754-5.501 13.77-8.271 13.77-13.749C57.837 4.175 46.821 0 46.821 0z" fill="#873728"/><path d="M35.805 0c-8.263 0-19.279 8.656-19.279 13.749 0 0 9.95 8.25 22.033 8.25 0 0-8.263-8.627-8.263-13.749 0-3.68 5.509-8.25 5.509-8.25zM66.1 13.749C66.1 8.656 55.083 0 46.82 0c0 0 5.508 4.57 5.508 8.25 0 5.122-8.262 13.749-8.262 13.749 12.084 0 22.033-8.25 22.033-8.25z" fill="#E65A40"/></g></svg>