<svg width="48" height="48" xmlns="http://www.w3.org/2000/svg"><g fill="none"><path d="M36.522 17.098v2.254c0 .79-.559 1.47-1.335 1.625l-4.14.826a13.153 13.153 0 01-1.21 2.916l2.342 3.506a1.654 1.654 0 01-.208 2.09l-1.596 1.595a1.663 1.663 0 01-2.095.207l-3.513-2.338c-.912.513-1.891.921-2.921 1.209l-.828 4.13a1.66 1.66 0 01-1.628 1.333h-2.26a1.66 1.66 0 01-1.627-1.332l-.828-4.131a13.216 13.216 0 01-2.922-1.209L8.24 32.117a1.662 1.662 0 01-2.094-.207L4.55 30.316a1.655 1.655 0 01-.208-2.09l2.342-3.507a13.157 13.157 0 01-1.21-2.916l-4.14-.826A1.658 1.658 0 010 19.352v-2.254c0-.79.559-1.47 1.335-1.624l4.139-.827a13.153 13.153 0 011.21-2.916l-2.34-3.506a1.654 1.654 0 01.207-2.09L6.147 4.54a1.663 1.663 0 012.095-.207l3.512 2.337c.913-.513 1.892-.92 2.922-1.208l.828-4.131A1.659 1.659 0 0117.132 0h2.258a1.66 1.66 0 011.628 1.332l.828 4.131c1.03.288 2.009.696 2.921 1.208l3.513-2.337a1.662 1.662 0 012.095.207l1.597 1.594c.56.558.646 1.433.207 2.09l-2.341 3.506c.514.911.922 1.888 1.21 2.916l4.14.827a1.658 1.658 0 011.334 1.624z" fill="#AEB0B5"/><path d="M26.275 18.225c0 4.418-3.588 8-8.014 8-4.426 0-8.015-3.582-8.015-8 0-4.417 3.589-7.999 8.015-7.999s8.014 3.582 8.014 8z" fill="#E2E4E8"/><path d="M22.246 18.225a3.982 3.982 0 01-3.985 3.978 3.982 3.982 0 01-3.986-3.978 3.982 3.982 0 013.986-3.977 3.982 3.982 0 013.985 3.977z" fill="#818389"/><path d="M19.826 18.225a3.98 3.98 0 01-2.775 3.79 3.98 3.98 0 01-2.776-3.79 3.98 3.98 0 012.776-3.79 3.98 3.98 0 012.775 3.79z" fill="#AEB0B5"/><path d="M48 35.19v1.48c0 .52-.367.966-.877 1.068l-2.72.543a8.644 8.644 0 01-.796 1.916l1.54 2.304a1.087 1.087 0 01-.137 1.374l-1.05 1.047a1.093 1.093 0 01-1.376.136l-2.308-1.536c-.6.338-1.244.605-1.92.794l-.544 2.715a1.09 1.09 0 01-1.07.876h-1.484a1.09 1.09 0 01-1.07-.876l-.544-2.715a8.68 8.68 0 01-1.92-.794l-2.308 1.536a1.093 1.093 0 01-1.377-.136l-1.05-1.047a1.087 1.087 0 01-.136-1.374l1.54-2.304a8.646 8.646 0 01-.796-1.916l-2.72-.543A1.09 1.09 0 0124 36.67v-1.48c0-.52.367-.967.877-1.068l2.72-.543c.19-.676.457-1.318.795-1.917l-1.539-2.303a1.087 1.087 0 01.137-1.374l1.05-1.048a1.093 1.093 0 011.376-.136l2.308 1.536a8.682 8.682 0 011.92-.794l.544-2.715a1.09 1.09 0 011.07-.875h1.484c.52 0 .968.366 1.07.875l.544 2.715a8.68 8.68 0 011.92.794l2.308-1.536a1.093 1.093 0 011.377.136l1.049 1.048c.368.367.425.942.136 1.374l-1.539 2.303c.338.599.607 1.241.796 1.917l2.72.543c.51.101.877.548.877 1.067z" fill="#3A7DAA"/><path d="M42 35.93c0 3.307-2.686 5.988-6 5.988s-6-2.68-6-5.988c0-3.307 2.686-5.988 6-5.988s6 2.68 6 5.988z" fill="#5AA5D8"/><path d="M39.6 35.93a3.596 3.596 0 01-3.6 3.593 3.596 3.596 0 01-3.6-3.593 3.596 3.596 0 013.6-3.593c1.988 0 3.6 1.608 3.6 3.593z" fill="#3A7DAA"/><path d="M37.2 35.93a3.594 3.594 0 01-2.4 3.388 3.594 3.594 0 01-2.4-3.388 3.594 3.594 0 012.4-3.388 3.594 3.594 0 012.4 3.388z" fill="#4192C8"/></g></svg>