<svg width="70" height="81" xmlns="http://www.w3.org/2000/svg"><g fill="none" fill-rule="evenodd"><path d="M25.525.177c-2.798-.737-5.676.894-6.427 3.643l-16.3 59.743c-.75 2.75.912 5.576 3.71 6.314L47.066 80.55c2.798.735 5.677-.895 6.427-3.646l16.3-59.743c.751-2.751-.91-5.577-3.71-6.312L25.526.177z" fill="#FF6C50"/><path d="M46.667 7.824H5.185C2.322 7.824 0 10.155 0 13.03v62.475c0 2.875 2.322 5.206 5.185 5.206h41.482c2.863 0 5.185-2.33 5.185-5.206V13.03c0-2.875-2.322-5.206-5.185-5.206z" fill="#E3E4E8"/><path d="M44.074 13.03H7.778a2.598 2.598 0 00-2.593 2.603v57.268a2.6 2.6 0 002.593 2.604h36.296a2.6 2.6 0 002.593-2.604V15.633a2.597 2.597 0 00-2.593-2.603z" fill="#FFF"/><path d="M34.598 40.708a6.958 6.958 0 00-2.964.679c1.274-1.351 2.07-3.139 2.07-5.117 0-4.203-3.507-7.609-7.831-7.609-4.326 0-7.832 3.406-7.832 7.609 0 1.861.714 3.544 1.856 4.865a7.02 7.02 0 00-2.63-.511c-3.802 0-6.882 2.992-6.882 6.686 0 3.691 3.08 6.685 6.882 6.685a6.889 6.889 0 005.915-3.322c.38 1.781 1.384 8.469-4.876 9.222H33.11s-6.445-.666-4.556-9.413a6.865 6.865 0 006.044 3.57c3.793 0 6.868-2.987 6.868-6.672 0-3.684-3.075-6.672-6.868-6.672z" fill="#434655"/></g></svg>