<svg width="80" height="80" xmlns="http://www.w3.org/2000/svg"><g fill="none"><path d="M12.493 32.21H2.336A2.337 2.337 0 010 29.874v-2.658a2.336 2.336 0 012.336-2.336h10.157v7.33z" fill="#68696D"/><path d="M0 27.216v2.657a2.337 2.337 0 002.336 2.337h2.487v-7.33H2.336A2.337 2.337 0 000 27.215z" fill="#6CAD84"/><path fill="#68696D" d="M57.099 32.392h12.346v15.176H57.099z"/><path d="M79.028 54.174l-11.979-6.15a.666.666 0 01-.362-.593V32.529c0-.25.14-.478.362-.592l11.979-6.15a.667.667 0 01.972.592V53.58c0 .5-.528.822-.972.594z" fill="#48494F"/><path d="M71.605 29.598l-4.557 2.34a.666.666 0 00-.361.591v14.903c0 .249.14.478.361.592l4.557 2.34V29.597z" fill="#AEB0B5"/><path d="M53.337 55.081H16.899a7.074 7.074 0 01-7.074-7.074V24.879H58.57c1.018 0 1.842.825 1.842 1.843v21.285a7.074 7.074 0 01-7.074 7.074z" fill="#E2E4E8"/><path fill="#68696D" d="M15.958 32.21h30.496v15.54H15.958z"/><path d="M75.637 79.15L.829 4.344A2.5 2.5 0 014.363.81l74.808 74.806a2.5 2.5 0 01-3.534 3.534z" fill="#E65A40"/><path d="M50.888 38.153a1.172 1.172 0 01-1.172-1.172v-4.377a1.172 1.172 0 112.344 0v4.377c0 .647-.525 1.172-1.172 1.172z" fill="#48494F"/></g></svg>