<svg width="36" height="36" xmlns="http://www.w3.org/2000/svg"><g fill="none"><path fill="#E65A40" d="M11.348 35.303v-8.826l6.304 4.413z"/><path d="M2.522 24.586c0-1.234 1.062-2.373 2.847-3.304a9.65 9.65 0 01.591-1.722C2.312 20.945 0 22.963 0 25.217c0 3.62 5.94 6.644 13.87 7.386v-2.529c-6.523-.63-11.348-2.845-11.348-5.488zm26.815-5.029c.245.53.441 1.108.595 1.724 1.786.931 2.85 2.07 2.85 3.305 0 2.811-5.456 5.138-12.609 5.589v2.52c8.551-.525 15.13-3.668 15.13-7.478 0-2.256-2.314-4.274-5.966-5.66z" fill="#E65A40"/><path d="M7.668 23.923c.124-3.863 3.304-6.968 7.197-6.968h5.574c3.892 0 7.073 3.105 7.196 6.968H7.668z" fill="#CBEAFF"/><path d="M20.439 17.187c3.686 0 6.712 2.877 6.952 6.503H7.912c.24-3.626 3.267-6.503 6.953-6.503h5.574m0-.464h-5.574a7.432 7.432 0 00-7.433 7.432h20.439a7.432 7.432 0 00-7.432-7.432z" fill="#5AA5D8"/><path d="M17.652 19.505c-2.741 0-3.4-1.587-3.484-1.83v-3.507h6.967v3.507c-.083.24-.74 1.83-3.483 1.83z" fill="#EAD8B5"/><path d="M20.903 14.4v3.233c-.115.294-.78 1.64-3.251 1.64-2.478 0-3.14-1.354-3.252-1.64V14.4h6.503m.465-.465h-7.433v3.776s.583 2.026 3.717 2.026c3.133 0 3.716-2.026 3.716-2.026v-3.776z" fill="#D3C29F"/><path d="M22.297 11.845c-.897 0-1.626-.73-1.626-1.626 0-.896.73-1.625 1.626-1.625 1.17 0 1.626.282 1.626 1.006 0 .98-.789 2.245-1.626 2.245zm-9.29 0c-.838 0-1.626-1.265-1.626-2.245 0-.724.455-1.006 1.625-1.006.897 0 1.626.729 1.626 1.625 0 .897-.729 1.626-1.626 1.626z" fill="#FFEBC3"/><path d="M22.297 8.826c1.287 0 1.393.366 1.393.774 0 .842-.702 2.013-1.393 2.013a1.395 1.395 0 01-1.394-1.394c0-.768.625-1.393 1.394-1.393m-9.29 0a1.395 1.395 0 01-.001 2.787c-.69 0-1.393-1.171-1.393-2.013 0-.408.107-.774 1.393-.774m9.29-.465a1.858 1.858 0 000 3.716c1.027 0 1.859-1.45 1.859-2.477 0-1.026-.832-1.239-1.858-1.239zm-9.29 0c-1.026 0-1.858.213-1.858 1.24 0 1.025.832 2.476 1.858 2.476a1.858 1.858 0 000-3.716z" fill="#D3C29F"/><path d="M17.652 16.49a1.5 1.5 0 01-1.15-.546l-.047-.059-.075-.018a5.325 5.325 0 01-4.07-5.183V5.8a2.427 2.427 0 012.424-2.424h5.835A2.427 2.427 0 0122.994 5.8v4.884a5.325 5.325 0 01-4.071 5.183l-.074.018-.049.059a1.495 1.495 0 01-1.148.546z" fill="#FFEBC3"/><path d="M20.57 3.608c1.208 0 2.191.983 2.191 2.192v4.884a5.093 5.093 0 01-3.893 4.957l-.148.036-.098.118a1.262 1.262 0 01-.97.463c-.372 0-.725-.169-.97-.463l-.098-.117-.149-.036a5.094 5.094 0 01-3.893-4.958V5.8c0-1.209.983-2.192 2.192-2.192h5.835m0-.465h-5.835A2.656 2.656 0 0012.077 5.8v4.884a5.573 5.573 0 004.248 5.409c.318.382.791.63 1.327.63a1.72 1.72 0 001.326-.63 5.572 5.572 0 004.248-5.41V5.8a2.657 2.657 0 00-2.657-2.657z" fill="#D3C29F"/><path d="M22.994 10.916V9.29c0-2.4-2.396-3.67-2.498-3.723l-.146-.075-.121.113c-.014.014-1.458 1.346-4.494 1.346-1.66 0-3.425.997-3.425 2.848v1.117h-.056c-.187-.686-.873-3.335-.873-5.342 0-2.655 2.05-5.342 5.967-5.342 2.714 0 3.42 1.643 3.45 1.713l.059.145h.155c1.446 0 2.91 1.219 2.91 3.548 0 1.831-.688 4.573-.875 5.278h-.053z" fill="#A6714E"/><path d="M17.348.465c2.542 0 3.208 1.505 3.233 1.566l.117.292h.314c1.331 0 2.678 1.138 2.678 3.315 0 1.058-.235 2.43-.467 3.525-.081-2.457-2.515-3.747-2.62-3.802l-.295-.152-.24.23c-.014.012-1.374 1.28-4.333 1.28-1.636 0-3.367.919-3.625 2.633-.24-1.102-.497-2.56-.497-3.778 0-2.539 1.97-5.11 5.735-5.11m0-.464c-3.919 0-6.2 2.668-6.2 5.574 0 2.374.93 5.574.93 5.574h.464V9.8c0-1.794 1.764-2.616 3.193-2.616 3.18 0 4.654-1.41 4.654-1.41s2.372 1.231 2.372 3.517v1.858h.465s.929-3.347.929-5.51c0-2.466-1.577-3.78-3.143-3.78 0 0-.743-1.858-3.664-1.858z" fill="#7A4F34"/></g></svg>