<svg xmlns="http://www.w3.org/2000/svg" width="40" height="40"><defs><style>.b{fill:#ffcb5b}.c{fill:#99b4cd}.d{fill:#d3e2eb}.e{fill:#7fa4c7}</style></defs><path fill="transparent" d="M0 0h40v40H0z"/><path class="b" d="M30.491 13.767a10.905 10.905 0 00-21.806-.12 10.7 10.7 0 004.254 8.653 2.274 2.274 0 01.91 1.807v1.9h11.478v-1.9a2.272 2.272 0 01.909-1.806 10.7 10.7 0 004.256-8.534z"/><path class="c" d="M5.815 14.28h-2.3a.513.513 0 110-1.026h2.3a.513.513 0 110 1.026zm-.142 7.933a.521.521 0 01-.45-.257.51.51 0 01.19-.7l1.988-1.133a.523.523 0 01.71.188.51.51 0 01-.19.7l-1.988 1.133a.523.523 0 01-.26.069zm27.83.001a.523.523 0 01-.259-.069l-1.988-1.133a.509.509 0 01-.19-.7.523.523 0 01.71-.188l1.988 1.133a.509.509 0 01.19.7.521.521 0 01-.451.257zm2.153-7.934h-2.3a.513.513 0 110-1.026h2.3a.513.513 0 110 1.026zm-4.14-6.8a.52.52 0 01-.45-.257.51.51 0 01.19-.7l1.988-1.133a.523.523 0 01.71.188.509.509 0 01-.19.7l-1.988 1.133a.522.522 0 01-.26.069zm-23.856 0a.522.522 0 01-.259-.069L5.413 6.278a.51.51 0 01-.19-.7.523.523 0 01.71-.188l1.988 1.133a.51.51 0 01.19.7.521.521 0 01-.451.257z"/><path class="d" d="M20.736 23.918a.516.516 0 01-.52-.513v-1.754H18.96v1.754a.52.52 0 01-1.039 0v-1.754h-.628a1.646 1.646 0 111.667-1.646v.62h1.256v-.62a1.667 1.667 0 111.667 1.646h-.628v1.754a.516.516 0 01-.519.513zm.52-3.293h.628a.62.62 0 10-.628-.62zm-3.963-1.241a.62.62 0 100 1.24h.628v-.62a.625.625 0 00-.629-.624z"/><path class="c" d="M21.883 26.009h-4.591v-2.061a.551.551 0 01.554-.547h3.479a.551.551 0 01.554.547zm3.009-16.316l-.964-.238a4.479 4.479 0 00-.212-.507l.511-.841a.561.561 0 00-.086-.692l-.99-.977a.579.579 0 00-.7-.085l-.852.5a4.593 4.593 0 00-.513-.209l-.241-.952a.573.573 0 00-.557-.429h-1.4a.573.573 0 00-.557.429l-.241.952a4.587 4.587 0 00-.513.209l-.852-.5a.579.579 0 00-.7.085l-.989.977a.561.561 0 00-.086.692l.511.841a4.468 4.468 0 00-.212.507l-.964.238a.568.568 0 00-.435.55v1.382a.568.568 0 00.435.55l.964.238a4.468 4.468 0 00.212.507l-.511.841a.561.561 0 00.086.692l.989.977a.579.579 0 00.7.085l.852-.5a4.591 4.591 0 00.513.209l.241.952a.572.572 0 00.557.429h1.4a.573.573 0 00.557-.429l.241-.952a4.6 4.6 0 00.513-.209l.852.5a.579.579 0 00.7-.085l.99-.977a.561.561 0 00.086-.692l-.511-.841a4.479 4.479 0 00.212-.507l.964-.238a.568.568 0 00.435-.55v-1.382a.568.568 0 00-.435-.55z"/><path class="e" d="M24.892 9.692l-.964-.238a4.473 4.473 0 00-.212-.507l.511-.841a.561.561 0 00-.086-.692l-.99-.977a.579.579 0 00-.7-.085l-.612.362.709.7a.561.561 0 01.086.692l-.511.841a4.468 4.468 0 01.212.507l.964.238a.568.568 0 01.435.55v1.382a.568.568 0 01-.435.55l-.964.238a4.469 4.469 0 01-.212.507l.511.841a.561.561 0 01-.086.692l-.709.7.612.362a.579.579 0 00.7-.085l.99-.977a.561.561 0 00.086-.692l-.511-.841a4.474 4.474 0 00.212-.507l.964-.238a.568.568 0 00.435-.55v-1.381a.568.568 0 00-.435-.551z"/><path class="b" d="M19.153 9.882a1.153 1.153 0 011.5.613 1.128 1.128 0 01-.621 1.48 1.153 1.153 0 01-1.5-.612 1.128 1.128 0 01.621-1.48z"/><path d="M19.967 3.006a11.316 11.316 0 00-1.184.022 10.824 10.824 0 0110.11 10.738 10.7 10.7 0 01-4.256 8.534 2.272 2.272 0 00-.909 1.806v1.9h1.593v-1.9a2.272 2.272 0 01.909-1.806 10.7 10.7 0 004.256-8.534 10.83 10.83 0 00-10.519-10.76z" fill="#ffb85b"/><path d="M23.031 34.391h-6.886v.42A2.2 2.2 0 0018.362 37h2.452a2.2 2.2 0 002.217-2.189z" fill="#595a66"/><path d="M21.438 34.391v.42A2.2 2.2 0 0119.221 37h1.593a2.2 2.2 0 002.217-2.189v-.42z" fill="#50515c"/><path class="c" d="M25.326 27.591H13.849v5.5a1.652 1.652 0 001.663 1.642h8.152a1.652 1.652 0 001.663-1.642z"/><path class="e" d="M23.737 27.591v5.5a1.652 1.652 0 01-1.663 1.642h1.593a1.652 1.652 0 001.663-1.642v-5.5z"/><path class="d" d="M25.326 27.934a1.133 1.133 0 100-2.267H13.849a1.133 1.133 0 100 2.267zm.001 2.779H13.85a.513.513 0 110-1.026h11.477a.513.513 0 110 1.026zm0 2.267H13.85a.513.513 0 110-1.026h11.477a.513.513 0 110 1.026z"/><path d="M25.326 25.667h-1.593a1.133 1.133 0 110 2.267h1.593a1.133 1.133 0 100-2.267z" fill="#b0c4d8"/></svg>