<svg width="36" height="40" xmlns="http://www.w3.org/2000/svg"><g fill="none"><path d="M34.074 17.707c0 9.029-7.387 16.417-16.416 16.417-1.29 0-2.463-.118-3.636-.47L6.4 38.815l1.173-8.091c-3.87-3.049-6.332-7.74-6.332-13.016 0-9.03 7.387-16.417 16.417-16.417 9.029 0 16.416 7.387 16.416 16.417z" fill="#FC6"/><path d="M33.723 14.423c-2.932-2.58-6.684-4.104-10.906-4.104-9.029 0-16.417 7.388-16.417 16.417 0 1.173.118 2.228.352 3.283-3.4-3.048-5.511-7.387-5.511-12.195 0-9.03 7.387-16.417 16.417-16.417 7.974-.117 14.54 5.512 16.065 13.016z" opacity=".1" fill="#6E531E"/><path d="M7.573 30.723l-.235 1.524c-.234-.703-.469-1.524-.586-2.228.352.235.587.47.821.704z" fill="#77C587"/><path d="M5.814 39.752c-.352-.234-.586-.703-.586-1.172L6.4 31.075C2.414 27.675.068 22.866.068 17.589.068 7.857 7.925 0 17.658 0c9.732 0 17.59 7.857 17.59 17.59 0 9.732-7.857 17.589-17.59 17.589-1.173 0-2.346-.117-3.401-.352l-7.153 4.808c-.47.352-.938.469-1.29.117zm11.844-37.29A15.214 15.214 0 002.413 17.708c0 4.69 2.111 9.146 5.864 12.078.351.234.469.703.469 1.055l-.821 5.512 5.394-3.636c.234-.234.586-.234.938-.117 1.173.235 2.228.352 3.4.352a15.214 15.214 0 0015.245-15.244A15.214 15.214 0 0017.658 2.463z" fill="#28282C"/><path d="M17.658 24.039c-.704 0-1.173-.47-1.173-1.173v-3.87c0-.703.469-1.172 1.173-1.172a2.903 2.903 0 002.931-2.932 2.903 2.903 0 00-2.931-2.931 2.903 2.903 0 00-2.932 2.931c0 .704-.469 1.173-1.173 1.173-.703 0-1.172-.469-1.172-1.173a5.255 5.255 0 015.277-5.276 5.255 5.255 0 015.277 5.276c0 2.463-1.76 4.574-4.105 5.16v2.814c0 .587-.469 1.173-1.172 1.173zm-.821 3.049c-.47-.47-.47-1.29 0-1.642a1.134 1.134 0 011.641 0 1.134 1.134 0 010 1.642c-.469.586-1.172.469-1.641 0z" fill="#28282C"/></g></svg>