<svg width="28" height="36" xmlns="http://www.w3.org/2000/svg"><g fill="none" fill-rule="evenodd"><path d="M22.064 11.518c-.733-.82-1.871-1.925-2.355.571-.165.85-.55 1.503-.88 2.03-.355-1.843-1.424-3.75-2.432-5.037-.377-.48-1.715-2.394-1.972-5.594-.038-.478-.592-.702-.938-.38-3.31 3.079-5.127 7.313-5.195 12.08 0 0-1.378-1.191-2.127-3.405-.201-.597-.982-.71-1.32-.183a5.324 5.324 0 00-.18.3C2.111 16.528.883 22.147 2.02 27.374c1.899 8.753 14.46 11.2 21.11 5.699 6.506-5.383 4.438-15.402-1.065-21.554z" fill="#FF6C50"/><path d="M20.056 17.917c-.541-.605-1.382-1.422-1.74.422-.121.627-.405 1.11-.649 1.5-.262-1.362-1.052-2.771-1.796-3.721-.279-.355-1.267-1.768-1.457-4.132a.413.413 0 00-.693-.28c-2.445 2.273-3.787 5.4-3.837 8.921 0 0-1.018-.879-1.57-2.515-.15-.44-.726-.524-.976-.135a3.94 3.94 0 00-.133.223C5.32 21.617 4.411 25.767 5.25 29.628c1.403 6.465 10.68 8.273 15.593 4.21 4.805-3.977 3.278-11.377-.787-15.921z" fill="#E4583D"/><path d="M18.223 23.759c-.366-.41-.935-.962-1.178.286-.082.424-.274.751-.44 1.015-.177-.922-.712-1.876-1.215-2.519-.189-.24-.858-1.197-.986-2.797a.28.28 0 00-.47-.19c-1.655 1.54-2.563 3.656-2.597 6.04 0 0-.689-.596-1.063-1.703-.101-.298-.491-.355-.66-.091-.033.05-.063.101-.09.15-1.277 2.314-1.891 5.123-1.324 7.736.95 4.377 7.23 5.6 10.555 2.85a5.517 5.517 0 001.988-3.738c.216-2.224-.62-4.914-2.52-7.04z" fill="#FFC107"/><path d="M16.522 29.18c-.204-.228-.521-.536-.656.16a1.63 1.63 0 01-.245.565c-.099-.514-.397-1.045-.678-1.403-.105-.134-.477-.667-.549-1.559a.156.156 0 00-.261-.106c-.922.858-1.428 2.037-1.447 3.365 0 0-.384-.331-.593-.948a.205.205 0 00-.368-.051 1.445 1.445 0 00-.05.084c-.71 1.289-1.053 2.854-.737 4.31.72 3.32 6.626 3.22 6.988-.495.12-1.24-.345-2.738-1.404-3.922z" fill="#EAE9E8"/><path d="M9.1 4.784c1.484-1.236 1.48-3.55 0-4.784-1.484 1.237-1.481 3.55 0 4.784zm17.788 9.926c1.484-1.236 1.48-3.55 0-4.784-.679.565-1.481 3.55 0 4.784zm-26.285.942a2.255 2.255 0 000-3.448c-.489.407-1.067 2.559 0 3.448zm18.524-7.419a2.255 2.255 0 000-3.449 2.256 2.256 0 000 3.449z" fill="#F85738"/></g></svg>