<svg xmlns="http://www.w3.org/2000/svg" width="90.667" height="90.294"><g transform="translate(0 -1.051)"><path d="M90.667 45.916v35.776a9.654 9.654 0 01-9.653 9.653H9.652a9.656 9.656 0 01-9.5-7.912 9.807 9.807 0 01-.154-1.741v-21.9c5.209 0 9.781-4.343 16.166-7.84l19.9-4.122a23.859 23.859 0 015.873 1.44l7.026 3.926c4.278 2.866 7.586 5.764 16 5.764 16.658.001 17.914-13.044 25.704-13.044z" fill="#fc6"/><path d="M90.666 45.916v11.927c-7.542.834-12.131 4.4-25.329 5.373-14.986 1.11-29.272-5.507-36.029-7.494-6.128-1.8-20.13 9.481-29.307 11.6v-7.525c5.209 0 9.781-4.343 16.166-7.84l19.9-4.122a23.859 23.859 0 015.873 1.44l7.026 3.926c4.278 2.866 7.586 5.764 16 5.764 16.654-.004 17.91-13.049 25.7-13.049zM72.472 75.909l-1.895 13.385s-2.318 1.034-5.216 2.046h-11.27c0-5.299 18.381-15.431 18.381-15.431zm-39.797 4.83L4.53 89.874a9.664 9.664 0 01-4.374-6.441L29.308 70.61z" fill="#ebb64c"/><path d="M24.937 46.111v7.026h-4.461a8.445 8.445 0 01-8.437-8.422v-18.74a3.475 3.475 0 012.853-3.429 2.437 2.437 0 01.668-.076 3.5 3.5 0 013.505 3.505v18.74a1.405 1.405 0 001.411 1.4h4.461z" fill="#6cad84"/><path d="M24.937 46.111v4.188h-1.669a8.448 8.448 0 01-8.437-8.437V23.138a2.614 2.614 0 01.061-.592 2.437 2.437 0 01.668-.076 3.5 3.5 0 013.505 3.505v18.74a1.405 1.405 0 001.411 1.4h4.461z" fill="#6cad84"/><path d="M48.972 37.568v18.74a8.445 8.445 0 01-8.437 8.422h-4.461v-7.026h4.461a1.405 1.405 0 001.411-1.4v-18.74a3.516 3.516 0 016.874-1.032 3.834 3.834 0 01.152 1.036z" fill="#4d8e6a"/><path d="M48.972 37.568v18.74a8.445 8.445 0 01-8.437 8.422h-4.461v-4.553h3.915a5.181 5.181 0 005.174-5.174v-14.78a3.637 3.637 0 013.141-3.672c.182-.015.349-.015.516-.015a3.846 3.846 0 01.152 1.032z" fill="#6cad84"/><path d="M36.075 15.93v59.68a5.574 5.574 0 01-3.384 5.128h-.015a5.437 5.437 0 01-2.17.44 5.563 5.563 0 01-5.569-5.569V15.93a5.563 5.563 0 015.569-5.569 5.436 5.436 0 012.17.44h.015a5.535 5.535 0 013.384 5.129z" fill="#4d8e6a"/><path d="M36.075 15.93v59.68a5.574 5.574 0 01-3.384 5.129h-.015a5.584 5.584 0 01-3.369-5.129V15.93a5.584 5.584 0 013.369-5.129h.015a5.535 5.535 0 013.384 5.129z" fill="#6cad84"/><circle cx="14.621" cy="14.621" r="14.621" transform="translate(61.422 1.051)" fill="#ffebc4"/><circle cx="11.381" cy="11.381" r="11.381" transform="translate(64.662 4.291)" fill="#fc6"/><path d="M38.302 22.779h-2.237a1.388 1.388 0 110-2.776h2.237a1.388 1.388 0 110 2.776z" fill="#6cad84"/><path d="M24.937 17.318H22.7a1.388 1.388 0 110-2.776h2.237a1.388 1.388 0 110 2.776z" fill="#4d8e6a"/><path d="M12.039 31.661H9.802a1.388 1.388 0 010-2.776h2.237a1.388 1.388 0 010 2.776zm0 9.128H9.802a1.388 1.388 0 010-2.776h2.237a1.388 1.388 0 010 2.776zm39.171 1.004h-2.239a1.388 1.388 0 010-2.776h2.237a1.388 1.388 0 110 2.776zm0 10.468h-2.239a1.388 1.388 0 010-2.776h2.237a1.388 1.388 0 110 2.776z" fill="#6cad84"/><path d="M64.298 71.543h-3.486a5.617 5.617 0 01-5.611-5.611v-3.588a1.388 1.388 0 112.776 0v3.588a2.839 2.839 0 002.835 2.835h3.486a1.388 1.388 0 110 2.775z" fill="#e2dac7"/><path d="M82.957 71.543h-3.486a1.388 1.388 0 010-2.776h3.486a2.839 2.839 0 002.835-2.835v-3.588a1.388 1.388 0 112.776 0v3.588a5.618 5.618 0 01-5.611 5.611z" fill="#fbf5e6"/><path d="M24.937 61.636H22.7a1.388 1.388 0 110-2.776h2.237a1.388 1.388 0 110 2.776z" fill="#4d8e6a"/><path d="M38.302 32.034h-2.237a1.388 1.388 0 110-2.776h2.237a1.388 1.388 0 110 2.776z" fill="#6cad84"/><path d="M79.472 70.155v5.05a2.82 2.82 0 01-2.816 2.683h-.326v7.166a4.437 4.437 0 01-3.053 4.217 4.364 4.364 0 01-1.388.224 4.44 4.44 0 01-4.441-4.441v-7.166h-.326a2.819 2.819 0 01-2.816-2.683v-5.05a6.145 6.145 0 016.145-6.145h2.881a6.146 6.146 0 016.14 6.145z" fill="#fbf5e6"/><path d="M71.885 89.495a4.44 4.44 0 01-4.441-4.441v-7.166h-.326a2.819 2.819 0 01-2.82-2.82v-4.913a6.145 6.145 0 016.145-6.145h1c-1.034 0-1.872 2.752-1.872 6.145v4.913c0 1.558.385 2.82.858 2.82h.1v7.166c.002 2.453.609 4.441 1.356 4.441z" fill="#e2dac7"/><path d="M73.274 77.883v11.383a4.364 4.364 0 01-1.388.224 4.414 4.414 0 01-1.388-.222V77.883a1.388 1.388 0 112.776 0zm-4.534-4.066a1.388 1.388 0 01-1.388 1.388h-3.049v-2.776h3.053a1.388 1.388 0 011.384 1.388zm10.732-1.388v2.776h-3.049a1.388 1.388 0 110-2.776h3.053z" fill="#4d4d4d"/><path d="M44.594 81.496a1.387 1.387 0 111.345-1.046 1.4 1.4 0 01-1.345 1.046zm1.48 4.441a1.387 1.387 0 111.352-1.083 1.4 1.4 0 01-1.352 1.083zm-24.424 0a1.388 1.388 0 111.344-1.046 1.4 1.4 0 01-1.344 1.046zm-9.992-1.11a1.387 1.387 0 111.352-1.083 1.4 1.4 0 01-1.352 1.083zm39.597-1.484a1.387 1.387 0 111.368-1.159 1.4 1.4 0 01-1.368 1.159zM15.729 70.394a1.388 1.388 0 111.36-1.116 1.4 1.4 0 01-1.36 1.116zm69.942 8.882a1.388 1.388 0 111.372-1.184 1.4 1.4 0 01-1.372 1.184zm-76.973.739a1.387 1.387 0 111.345-1.046 1.4 1.4 0 01-1.345 1.046zm-2.592 4.812a1.387 1.387 0 111.356-1.083 1.4 1.4 0 01-1.356 1.083z" fill="#dcaa45"/></g></svg>