<svg width="40" height="40" xmlns="http://www.w3.org/2000/svg"><g fill="none" fill-rule="evenodd"><path d="M0 0h40v40H0z"/><path d="M18.692 3v7.846h2.616V5.881c7.315.695 13.077 6.62 13.077 14.119A14.367 14.367 0 0120 34.385 14.367 14.367 0 015.615 20c0-2.748.767-5.302 2.095-7.478l-2.227-1.37A16.98 16.98 0 003 20c0 9.379 7.621 17 17 17s17-7.621 17-17S29.379 3 20 3h-1.308zm-6.559 7.826a1.31 1.31 0 00-1.205.827 1.276 1.276 0 00.306 1.42l7.847 7.846a1.3 1.3 0 001.266.368c.46-.122.818-.48.94-.94.113-.46-.02-.94-.368-1.266l-7.846-7.847a1.307 1.307 0 00-.94-.408z" fill="#5AA5D8" fill-rule="nonzero"/></g></svg>