<svg width="40" height="40" xmlns="http://www.w3.org/2000/svg"><g fill="none" fill-rule="evenodd"><path d="M0 0h40v40H0z"/><path d="M16.321 2c-3.84 0-6.964 3.105-6.964 6.923 0 .195.044.379.065.563.86-.379 1.774-.714 2.764-.974a4.158 4.158 0 014.135-3.743 4.16 4.16 0 013.918 2.77c.631.01 1.24.021 1.86.064.23-.335.512-.638.773-.962C21.915 3.947 19.357 2 16.322 2zm13.875 2.77c-.098 0-.185.02-.283.043-1.437.356-2.775 1.276-3.972 2.466-.914.92-1.545 2.12-2.122 3.332-1.154-.152-2.318-.303-3.667-.303-4.331 0-8.325.681-11.372 2.617a10.486 10.486 0 00-3.427 3.538 4.128 4.128 0 01-.61-.314c-.544-.379-.957-.79-.957-1.687 0-.25.12-.671.348-.942.218-.27.446-.443 1.045-.443.5.01.968-.26 1.218-.682a1.36 1.36 0 000-1.406 1.394 1.394 0 00-1.218-.681c-1.36 0-2.525.627-3.2 1.45A4.232 4.232 0 001 14.461c0 1.925 1.153 3.288 2.176 3.98.403.27.773.411 1.11.552a12.984 12.984 0 00-.5 3.602c0 3.775 2.307 7.01 5.571 9.26v4.76c0 .767.62 1.384 1.393 1.384h5.571c.773 0 1.393-.617 1.393-1.385V34.97c.86.108 1.698.26 2.612.26 1.023 0 1.991-.173 2.96-.303v1.687c.01.768.63 1.385 1.393 1.385h5.571c.773 0 1.393-.617 1.393-1.385V31.77c1.72-1.168 3.286-2.488 4.244-4.154 0-.01 0-.01.01-.01-.021.021.164-.228.403-.39a1.51 1.51 0 01.914-.292h1.393c.773 0 1.393-.617 1.393-1.385V20c0-.768-.62-1.385-1.393-1.385h-1.393c-.37 0-.598-.097-.74-.173-.13-.086-.163-.292-.043.054-.838-2.271-2.514-3.959-4.734-5.354l-.054-6.999a1.39 1.39 0 00-1.447-1.374zm-1.317 3.84l.033 4.25.761-.346a1.384 1.384 0 00-.816 1.201c-.01.52.261 1.017.73 1.266 2.306 1.255 3.536 2.563 4.232 4.467.25.671.631.996 1.186 1.33.566.358 1.317.607 2.21.607v2.769a4.41 4.41 0 00-2.482.768c-.61.41-1 .844-1.262 1.32-.827 1.45-2.187 2.78-3.928 3.829a1.366 1.366 0 00-.686 1.179v3.98h-2.786v-1.838a1.36 1.36 0 00-.511-1.082 1.416 1.416 0 00-1.164-.281 19.303 19.303 0 01-4.07.433 18.08 18.08 0 01-3.722-.39 1.451 1.451 0 00-1.164.292c-.326.26-.511.66-.511 1.071v1.796h-2.786v-3.916c0-.487-.25-.93-.675-1.19-3.08-1.871-4.897-4.587-4.897-7.529 0-3.71 1.36-5.852 3.7-7.334 2.35-1.493 5.855-2.185 9.88-2.185 1.513 0 2.863.14 4.136.346a1.397 1.397 0 001.556-.973c.37-1.115 1.153-2.294 2.078-3.224.338-.325.61-.368.958-.617zm1.371 10.005c-.762 0-1.393.617-1.393 1.385s.631 1.385 1.393 1.385a1.385 1.385 0 100-2.77z" fill="#6CAD84" fill-rule="nonzero" stroke="#F9F9F9" stroke-width=".2"/></g></svg>