<svg width="40" height="40" fill="none" xmlns="http://www.w3.org/2000/svg"><circle cx="20" cy="20" r="19" stroke="#8A0DDF" stroke-width="2"/><path d="M23.477 27.853a.75.75 0 000 1.5v-1.5zm6.05 1.5a.75.75 0 100-1.5v1.5zm-6.05 0h.443v-1.5h-.443v1.5zm.443 0h5.607v-1.5H23.92v1.5z" fill="#8A0DDF"/><path d="M28.39 26.8l2.148 1.787-2.148 1.815" stroke="#8A0DDF" stroke-width="1.2" stroke-miterlimit="10" stroke-linecap="round" stroke-linejoin="round"/><path d="M17.68 13.601l-2.149-1.786L17.68 10" stroke="#8A0DDF" stroke-width="1.5" stroke-miterlimit="10" stroke-linecap="round" stroke-linejoin="round"/><path d="M15.868 11.928c5.436 0 9.866 3.744 9.866 8.338 0 4.594-4.396 8.337-9.8 8.337H11" stroke="#8A0DDF" stroke-width="1.5" stroke-miterlimit="10" stroke-linecap="round" stroke-linejoin="round"/></svg>