<svg width="95" height="62" xmlns="http://www.w3.org/2000/svg"><g fill="none" fill-rule="evenodd"><path d="M65.75 13.5h-17.5v-1.25a1.25 1.25 0 00-2.5 0v1.25h-17.5c-.69 0-1.25.56-1.25 1.25v2.5c0 .69.56 1.25 1.25 1.25h17.5v22.509a1.19 1.19 0 00-.803.347l-7.591 7.591a1.2 1.2 0 101.697 1.697l6.697-6.696V48.5a1.25 1.25 0 102.5 0v-4.552l6.697 6.696a1.2 1.2 0 001.697-1.696l-7.592-7.592a1.192 1.192 0 00-.802-.348V18.5h17.5c.69 0 1.25-.56 1.25-1.25v-2.5c0-.69-.56-1.25-1.25-1.25z" fill="#666"/><path d="M28.25 18.5V41a2.5 2.5 0 002.5 2.5h32.5a2.5 2.5 0 002.5-2.5V18.5h-37.5z" fill="#CCC" fill-rule="nonzero"/><path d="M30.75 18.5v21.25c0 .69.56 1.25 1.25 1.25h30c.69 0 1.25-.56 1.25-1.25V18.5h-32.5z" fill="#FFF" fill-rule="nonzero"/><path d="M55.75 26h-2.5c-.69 0-1.25.56-1.25 1.25V36c0 .69.56 1.25 1.25 1.25h2.5c.69 0 1.25-.56 1.25-1.25v-8.75c0-.69-.56-1.25-1.25-1.25z" fill="#3A7DAA" fill-rule="nonzero"/><path d="M48.25 22.25h-2.5c-.69 0-1.25.56-1.25 1.25V36c0 .69.56 1.25 1.25 1.25h2.5c.69 0 1.25-.56 1.25-1.25V23.5c0-.69-.56-1.25-1.25-1.25z" fill="#50936E" fill-rule="nonzero"/><path d="M40.75 29.75h-2.5c-.69 0-1.25.56-1.25 1.25v5c0 .69.56 1.25 1.25 1.25h2.5c.69 0 1.25-.56 1.25-1.25v-5c0-.69-.56-1.25-1.25-1.25z" fill="#E65A40" fill-rule="nonzero"/></g></svg>