<svg width="248" height="132" xmlns="http://www.w3.org/2000/svg"><g fill="none" fill-rule="evenodd"><g transform="matrix(-1 0 0 1 248 5)"><path d="M62.222 0H7.778C3.483 0 0 3.5 0 7.815v109.418c0 4.316 3.482 7.815 7.778 7.815h54.444c4.295 0 7.778-3.5 7.778-7.815V7.815C70 3.5 66.517 0 62.222 0z" fill="#434655"/><path d="M58.333 7.815H11.667c-2.147 0-3.89 1.751-3.89 3.91v7.815c0 2.157 1.743 3.908 3.89 3.908h46.666c2.147 0 3.89-1.75 3.89-3.908v-7.815c0-2.159-1.743-3.91-3.89-3.91zm0 23.447H11.667c-2.147 0-3.89 1.75-3.89 3.907v7.816c0 2.159 1.743 3.91 3.89 3.91h46.666c2.147 0 3.89-1.751 3.89-3.91v-7.816c0-2.157-1.743-3.907-3.89-3.907zM11.667 101.6h7.777a3.9 3.9 0 003.89-3.906c0-2.159-1.743-3.91-3.89-3.91h-7.777c-2.147 0-3.89 1.751-3.89 3.91 0 2.155 1.743 3.906 3.89 3.906zm7.777 7.815h-7.777c-2.147 0-3.89 1.751-3.89 3.91 0 2.157 1.743 3.908 3.89 3.908h7.777c2.147 0 3.89-1.75 3.89-3.908 0-2.159-1.743-3.91-3.89-3.91z" fill="#818389"/><ellipse fill="#6CAD84" cx="35" cy="70.338" rx="7.778" ry="7.815"/></g><path d="M28.438 0h132.125C165.774 0 170 4.21 170 9.401v84.615c0 5.192-4.226 9.4-9.438 9.4H28.438c-5.211 0-9.437-4.208-9.437-9.4V9.401C19 4.21 23.226 0 28.438 0z" fill="#434655"/><path d="M155.281 10c2.605 0 4.719 2.106 4.719 4.7v75.212c0 2.595-2.114 4.703-4.719 4.703H32.594c-2.605 0-4.719-2.106-4.719-4.703V14.701c0-2.595 2.114-4.701 4.719-4.701H155.28z" fill="#F0F1F3"/><path d="M73.813 63.75c1.322-1.322 12.656-7.031 12.656-7.031h14.062s11.335 5.71 12.656 7.031C115.832 66.394 116 75 116 75H71s.169-8.606 2.813-11.25z" fill="#6CAD84"/><path d="M87.875 55.313h11.25l1.406 1.406s-2.37 4.22-7.031 4.22c-4.66 0-7.031-4.22-7.031-4.22l1.406-1.406z" fill="#50936E"/><path d="M89.281 51.094h8.438l1.406 4.22c0 .775-3.442 2.812-4.219 2.812h-2.812c-.776 0-4.219-2.037-4.219-2.813l1.406-4.219z" fill="#DBB59A"/><path d="M93.5 31.406c5.437 0 9.844 2.813 9.844 8.438 0 4.22-1.406 7.031-2.813 9.844-1.406 2.812-4.275 5.625-7.031 5.625-2.755 0-5.625-2.813-7.031-5.625-1.406-2.813-2.813-5.625-2.813-9.844 0-5.625 4.408-8.438 9.844-8.438z" fill="#F6CBAD"/><path d="M93.5 30c3.294 0 7.031 1.216 7.031 2.813 2.08 0 2.813 4.653 2.813 8.437 0 .631-.056 1.296-.144 1.972-.363-1.86-1.48-4.784-4.075-4.784H93.5c-2.154 0-5.625-1.053-5.625-2.813-1.825-.024-4.219 2.574-4.219 5.625 0-5.529.904-11.25 9.844-11.25zm-17.875 73.418h37.75l4.719 28.204H70.906z" fill="#818389"/><path d="M66.188 122.22h56.624c5.212 0 9.438 4.208 9.438 9.402h-75.5c0-5.194 4.226-9.401 9.438-9.401z" fill="#AFB0B5"/><g transform="matrix(-1 0 0 1 35 82)"><path d="M30.227 7.812H4.773c-.878 0-1.591.7-1.591 1.562l1.59 39.06c0 .862.713 1.562 1.592 1.562h22.272c.879 0 1.591-.7 1.591-1.562l1.591-39.06c0-.862-.713-1.562-1.59-1.562z" fill="#E3E4E8"/><path d="M31.818 15.624H3.182c-.878 0-1.591.7-1.591 1.563l1.59 18.747c0 .863.714 1.563 1.592 1.563h25.454c.878 0 1.591-.7 1.591-1.563l1.591-18.747c0-.864-.713-1.563-1.59-1.563z" fill="#6CAD84"/><ellipse fill="#50936E" cx="17.5" cy="26.561" rx="6.364" ry="6.25"/><path d="M33.41 6.25H1.59C.714 6.25 0 6.95 0 7.811c0 .862.713 1.562 1.59 1.562h31.82c.877 0 1.59-.7 1.59-1.562 0-.863-.713-1.563-1.59-1.563z" fill="#50936E"/><path d="M30.227 3.125L4.773 0c-.878 0-1.591.7-1.591 1.563v4.686h28.636V4.687c0-.862-.713-1.562-1.59-1.562z" fill="#6CAD84"/></g></g></svg>