<svg width="95" height="62" xmlns="http://www.w3.org/2000/svg"><g fill="none" fill-rule="evenodd"><path d="M65 45H29a1.5 1.5 0 100 3h36a1.5 1.5 0 000-3z" fill="#E6B85C" fill-rule="nonzero"/><path d="M63.5 31.5c-1.071 0-2.141-6.864-3.212-10.8A2.994 2.994 0 0059 15a3 3 0 00-3 3c0 .865.372 1.64.958 2.187C54.569 23.645 51.093 30 50 30c-1.5 0-1.5-13.5-3-13.5S45.5 30 44 30c-1.093 0-4.569-6.355-6.958-9.813A2.985 2.985 0 0038 18a3 3 0 10-6 0c0 1.194.704 2.216 1.712 2.7-1.07 3.936-2.141 10.8-3.212 10.8-1.5 0-4.5-12-4.5-12L30.5 45h33L68 19.5s-3 12-4.5 12z" fill="#CCA352"/><path d="M69.5 18C68 18 59 30 57.5 30s-9-15-10.5-15-9 15-10.5 15-10.5-12-12-12S29 45 29 45h36s6-27 4.5-27z" fill="#FC6" fill-rule="nonzero"/><path d="M47 12a3 3 0 100 6 3 3 0 000-6zm-22.5 3c-.829 0-1.5 1.342-1.5 3 0 1.657.671 3 1.5 3 .828 0 1.5-1.343 1.5-3 0-1.658-.672-3-1.5-3zm45 0c-.829 0-1.5 1.342-1.5 3 0 1.657.671 3 1.5 3s1.5-1.343 1.5-3c0-1.658-.671-3-1.5-3z" fill="#ED7161"/><path d="M48.5 37.5v-7.502a1.5 1.5 0 00-1.5-1.5h-1.5a1.5 1.5 0 000 3.002v6a1.5 1.5 0 100 2.998h3a1.5 1.5 0 000-2.998z" fill="#FFF"/></g></svg>