<svg width="95" height="62" xmlns="http://www.w3.org/2000/svg"><g fill="none"><path d="M60 8H33a1.5 1.5 0 00-1.5 1.5l3 21c.375 2.001 1.5 3 1.5 3L46.5 44 57 33.5s1.078-1.046 1.5-3l3-21A1.5 1.5 0 0060 8z" fill="#ED7161"/><path d="M42 8l1.5 33h6L51 8z" fill="#BA594C"/><path d="M56.924 42.934a1.19 1.19 0 00-.892-.835l-5.795-.876-2.73-5.59A1.155 1.155 0 0046.49 35c-.422 0-.811.242-1.017.632l-2.729 5.59-5.795.877c-.42.084-.762.404-.892.835-.131.43-.03.902.265 1.23l4.173 4.058-.923 6.387a1.27 1.27 0 00.467 1.152 1.107 1.107 0 001.178.124l5.273-2.996 5.273 2.996c.156.078.324.114.489.114.243 0 .485-.08.689-.237.342-.266.52-.708.468-1.153l-.924-6.387 4.175-4.059c.294-.327.395-.799.264-1.23z" fill="#FC6"/><path d="M61.5 8h-30A1.5 1.5 0 0030 9.5v3a1.5 1.5 0 001.5 1.5h30a1.5 1.5 0 001.5-1.5v-3A1.5 1.5 0 0061.5 8z" fill="#A67C52"/></g></svg>