<svg width="95" height="62" xmlns="http://www.w3.org/2000/svg"><g fill="none" fill-rule="evenodd"><path d="M27.813 37.462C25.168 40.065 25 51.308 25 51.308h16.875l-1.406-20.77s-11.335 5.622-12.657 6.924zm39.374 0c-1.322-1.302-12.656-6.924-12.656-6.924l-1.406 20.77H70s-.169-11.243-2.813-13.846z" fill="#666" fill-rule="nonzero"/><path d="M34.844 37.462l2.812 1.385-2.812 2.768 5.625 9.693h4.218l-4.218-18-5.625 4.154zm25.312 0l-5.625-4.154-4.218 18h4.218l5.625-9.693-2.812-2.768 2.812-1.385z" fill="#4D4D4D" fill-rule="nonzero"/><path d="M40.469 30.54v2.768l4.218 18h5.626l4.218-18V30.54z" fill="#FFF" fill-rule="nonzero"/><path d="M53.125 29.154h-11.25l-1.406 1.384 1.406 6.924 5.625-5.539 5.625 5.539 1.406-6.924z" fill="#E6E6E6" fill-rule="nonzero"/><path d="M50.313 37.462l-2.813-2.77-2.813 2.77c0 1.385 1.407 1.385 1.407 1.385l-1.407 12.46h5.626l-1.407-12.46s1.407 0 1.407-1.385z" fill="#9B7CAB"/><path d="M51.719 27.77H43.28l-1.406 4.153c0 .764 3.442 2.77 4.219 2.77h2.812c.777 0 4.219-2.006 4.219-2.77l-1.406-4.153z" fill="#BD9C84" fill-rule="nonzero"/><path d="M47.5 7c-5.437 0-9.844 4.154-9.844 9.692 0 4.154 1.407 6.923 2.813 9.693 1.406 2.769 4.275 5.538 7.031 5.538 2.755 0 5.625-2.77 7.031-5.538 1.407-2.77 2.813-5.539 2.813-9.693C57.344 11.154 52.936 7 47.5 7z" fill="#F6CBAD" fill-rule="nonzero"/><path d="M54.531 16.693h-4.218c-.777 0-1.407.62-1.407 1.385h-2.812a1.396 1.396 0 00-1.407-1.384l-4.218-.001-2.813 1.385v1.384l2.813-1.384v1.384c0 .765.146 2.77 2.812 2.77 2.71 0 2.813-2.005 2.813-2.77h2.812c0 .766.147 2.77 2.813 2.77 2.71 0 2.812-2.005 2.812-2.77v-1.384l2.813 1.384v-1.384l-2.813-1.385z" fill="#4D4D4D"/></g></svg>