<svg width="95" height="62" xmlns="http://www.w3.org/2000/svg"><g fill="none"><path d="M65.873 13.821L43.857 8.095c-1.52-.395-3.082.48-3.49 1.955L31.52 42.107c-.407 1.476.495 2.992 2.014 3.388l22.016 5.727c1.52.395 3.083-.48 3.49-1.956l8.848-32.057c.408-1.477-.494-2.993-2.014-3.388z" fill="#48A0DC"/><path d="M55.333 12.198H32.815A2.804 2.804 0 0030 14.992v33.523a2.804 2.804 0 002.815 2.794h22.518a2.804 2.804 0 002.815-2.794V14.992a2.804 2.804 0 00-2.815-2.794z" fill="#D8D8D8"/><path d="M53.926 14.992H34.222c-.777 0-1.407.625-1.407 1.397v30.728c0 .772.63 1.398 1.407 1.398h19.704c.777 0 1.407-.626 1.407-1.398V16.39c0-.773-.63-1.397-1.407-1.397z" fill="#FFF"/><path d="M48.782 29.844a3.82 3.82 0 00-1.61.363c.692-.725 1.124-1.683 1.124-2.745 0-2.255-1.903-4.083-4.25-4.083-2.349 0-4.253 1.828-4.253 4.083 0 .999.388 1.902 1.008 2.61a3.85 3.85 0 00-1.428-.274c-2.064 0-3.736 1.606-3.736 3.588 0 1.98 1.672 3.587 3.736 3.587 1.375 0 2.563-.72 3.211-1.782.207.955.752 4.543-2.646 4.948h8.036s-3.499-.358-2.474-5.051a3.733 3.733 0 003.282 1.916c2.059 0 3.728-1.603 3.728-3.58 0-1.978-1.67-3.58-3.728-3.58z" fill="#4D4D4D"/></g></svg>