<svg width="40" height="40" xmlns="http://www.w3.org/2000/svg"><g fill="none" fill-rule="evenodd"><path d="M0 0h40v40H0z"/><path d="M17.6 2C8.998 2 2 8.998 2 17.6s6.998 15.6 15.6 15.6c.43 0 .85-.032 1.27-.066a13.904 13.904 0 01-1.462-2.343C10.22 30.687 4.4 24.812 4.4 17.6c0-7.277 5.923-13.2 13.2-13.2 7.277 0 13.2 5.923 13.2 13.2 0 .47-.027.932-.075 1.388.509-.096 1.024-.188 1.552-.188.292 0 .572.046.857.075.034-.422.066-.843.066-1.275C33.2 8.998 26.202 2 17.6 2zm-1.2 4.8v12h7.2v-2.4h-4.8V6.8h-2.4zm8.123 14.4c-2.874 0-5.273 2.097-5.643 4.833-.045.224-.08.46-.08.717 0 3.178 2.413 5.764 4.617 7.664a30.411 30.411 0 004.392 3.131l.591.333.59-.333s2.19-1.23 4.393-3.13C35.587 32.513 38 29.927 38 26.75c0-.258-.033-.492-.075-.708-.364-2.744-2.771-4.842-5.648-4.842-1.557 0-2.844.737-3.877 1.73-1.034-.992-2.322-1.73-3.877-1.73zm0 2.4a3.34 3.34 0 012.86 1.57l1.022 1.655 1.017-1.655a3.328 3.328 0 012.855-1.57c1.727 0 3.078 1.23 3.276 2.77l.01.047.009.052c.017.078.028.165.028.281 0 1.838-1.787 4.124-3.783 5.845-1.702 1.468-2.95 2.162-3.417 2.438-.468-.276-1.715-.97-3.417-2.438-1.996-1.721-3.783-4.007-3.783-5.845 0-.12.012-.206.028-.277l.014-.056.005-.051c.2-1.537 1.548-2.766 3.276-2.766z" fill="#6C7DAD" fill-rule="nonzero"/></g></svg>