<svg width="257" height="49" xmlns="http://www.w3.org/2000/svg"><defs><linearGradient x1="44.298%" y1="100.002%" x2="44.298%" y2="-.009%" id="a"><stop stop-color="#096FD2" offset="0%"/><stop stop-color="#0E8EE9" offset="100%"/></linearGradient><linearGradient x1="50.498%" y1="99.973%" x2="51.246%" y2=".006%" id="b"><stop stop-color="#096FD2" offset="0%"/><stop stop-color="#0E8EE9" offset="100%"/></linearGradient><linearGradient x1="50.773%" y1="99.875%" x2="50.773%" y2="-.049%" id="c"><stop stop-color="#096FD2" offset="0%"/><stop stop-color="#0E8EE9" offset="100%"/></linearGradient><linearGradient x1="48.24%" y1="99.968%" x2="48.24%" y2=".003%" id="d"><stop stop-color="#096FD2" offset="0%"/><stop stop-color="#0E8EE9" offset="100%"/></linearGradient><linearGradient x1="50.027%" y1="99.929%" x2="50.027%" y2=".002%" id="e"><stop stop-color="#096FD2" offset="0%"/><stop stop-color="#0E8EE9" offset="100%"/></linearGradient><linearGradient x1="45.677%" y1="99.977%" x2="45.677%" y2="-.011%" id="f"><stop stop-color="#096FD2" offset="0%"/><stop stop-color="#0E8EE9" offset="100%"/></linearGradient><linearGradient x1="35.04%" y1="100.019%" x2="35.04%" y2=".006%" id="g"><stop stop-color="#096FD2" offset="0%"/><stop stop-color="#0E8EE9" offset="100%"/></linearGradient><linearGradient x1="26.619%" y1="99.922%" x2="26.619%" y2=".02%" id="h"><stop stop-color="#096FD2" offset="0%"/><stop stop-color="#0E8EE9" offset="100%"/></linearGradient><linearGradient x1="46.573%" y1="100.012%" x2="46.573%" y2=".028%" id="i"><stop stop-color="#096FD2" offset="0%"/><stop stop-color="#0E8EE9" offset="100%"/></linearGradient><linearGradient x1="18.516%" y1="99.99%" x2="18.516%" y2=".013%" id="j"><stop stop-color="#096FD2" offset="0%"/><stop stop-color="#0E8EE9" offset="100%"/></linearGradient><linearGradient x1="49.962%" y1="100.283%" x2="49.962%" y2="-.032%" id="k"><stop stop-color="#096FD2" offset="0%"/><stop stop-color="#0E8EE9" offset="100%"/></linearGradient><linearGradient x1="37.424%" y1="100.103%" x2="37.412%" y2=".055%" id="l"><stop stop-color="#096FD2" offset="0%"/><stop stop-color="#0E8EE9" offset="100%"/></linearGradient></defs><g fill="none" fill-rule="evenodd"><path d="M179.572 27.8a18.86 18.86 0 00.447-4.087c0-10.52-8.642-19.047-19.304-19.047a19.66 19.66 0 00-3.301.279 11.246 11.246 0 00-5.956-1.695c-6.183 0-11.195 4.946-11.195 11.045 0 2.04.562 3.948 1.539 5.587a18.889 18.889 0 00-.39 3.83c0 10.52 8.642 19.047 19.303 19.047 1.208 0 2.389-.11 3.535-.32a11.266 11.266 0 005.292 1.311c6.183 0 11.195-4.945 11.195-11.045 0-1.763-.42-3.427-1.165-4.906zm-8.956 5.015c-.893 1.247-2.213 2.235-3.922 2.936-1.693.694-3.723 1.046-6.033 1.046-2.772 0-5.097-.48-6.911-1.43a9.021 9.021 0 01-3.178-2.783c-.82-1.167-1.236-2.325-1.236-3.442 0-.698.27-1.303.805-1.798.529-.491 1.207-.74 2.015-.74.663 0 1.235.197 1.7.585.445.371.826.92 1.132 1.63.342.774.715 1.427 1.11 1.94.378.495.923.91 1.618 1.235.7.327 1.643.493 2.804.493 1.596 0 2.904-.336 3.888-1 .961-.647 1.429-1.424 1.429-2.376 0-.752-.244-1.343-.746-1.807-.525-.484-1.218-.862-2.06-1.12-.877-.27-2.068-.561-3.541-.866-1.996-.421-3.692-.922-5.044-1.487a.387.387 0 01-.015-.007c-1.385-.58-2.5-1.386-3.316-2.394-.83-1.024-1.25-2.308-1.25-3.817 0-1.439.442-2.736 1.311-3.855.864-1.11 2.124-1.974 3.747-2.566 1.602-.585 3.508-.881 5.664-.881 1.724 0 3.24.196 4.505.584 1.272.391 2.345.92 3.188 1.569.849.654 1.48 1.355 1.877 2.082.4.735.604 1.466.604 2.173 0 .68-.267 1.299-.792 1.838-.529.542-1.196.817-1.983.817-.715 0-1.274-.172-1.662-.511-.362-.315-.736-.807-1.152-1.514-.482-.902-1.064-1.613-1.733-2.115-.648-.486-1.733-.734-3.222-.734-1.384 0-2.51.275-3.345.815-.805.52-1.197 1.118-1.197 1.826 0 .434.126.796.385 1.108.275.331.662.621 1.15.863.508.251 1.03.451 1.555.594.536.147 1.436.365 2.67.646a47.778 47.778 0 014.268 1.102c1.286.406 2.396.907 3.302 1.488a6.532 6.532 0 012.177 2.268c.52.914.785 2.043.785 3.354 0 1.57-.455 3-1.351 4.25z" fill="#01AFF0"/><path fill="url(#a)" d="M3.795 7.062H2.299V1.68H.47V.432h5.169V1.68H3.795z" transform="translate(76 41.462)"/><path d="M6.924 7.232c-.387 0-1.105-.076-1.577-.59-.383-.418-.577-1.03-.577-1.819 0-1.015.313-1.757.93-2.206a2.184 2.184 0 011.258-.391c.479 0 1.35.148 1.813 1.138.242.558.288 1.175.26 1.779H6.148c.011.466.098 1.014.792 1.03.379.01.593-.189.684-.625h1.307l-.008.095a1.64 1.64 0 01-.431 1.035c-.318.353-.89.555-1.569.555v-.001zm.656-3.095c-.017-.399-.152-.833-.664-.833-.554 0-.688.526-.72.833H7.58z" fill="url(#b)" transform="translate(76 41.462)"/><path d="M11.15 7.17c-.983.035-1.521-.607-1.533-1.436 0-.38.125-1.077.96-1.482.49-.173.659-.215 1.656-.257l.013.945c-1.43-.033-1.386.785-1.025 1.096.33.284 1.075.101 1.023-1.099l-.029-.943c-.002-.232-.013-.35-.055-.483-.1-.3-.42-.314-.483-.314a.482.482 0 00-.408.211c-.079.128-.079.253-.079.353v.087H9.784l.003-.09c.008-.228.027-.76.52-1.132.338-.253.793-.382 1.353-.382.409 0 1.16.08 1.597.61.319.403.319.977.319 1.165l.009 1.814c0 .426.032.794.1 1.125l.022.106-1.301.006c-.03-.046-.055-.458-.055-.458h-.01c-.017.094-.496.535-1.03.558" fill="url(#c)" transform="translate(76 41.462)"/><path d="M20.035 7.062v-2.74c0-.559-.109-.93-.64-.93-.64 0-.692.573-.692 1.322V7.06h-1.437V4.294c0-.437-.048-.903-.623-.903-.709 0-.709.628-.709.93v2.74h-1.437V3.312c0-.25-.014-.517-.043-.84l-.008-.095h1.388l.032.438c.198-.231.57-.537 1.262-.537.454 0 1.042.135 1.361.747.3-.496.75-.738 1.374-.738.887 0 1.264.538 1.386.769.226.386.224.913.223 1.297V7.06h-1.437z" fill="url(#d)" transform="translate(76 41.462)"/><path fill="url(#e)" d="M24.602 6.154L26.504.441h.74L24.95 7.062h-.74L21.9.442h.784z" transform="translate(76 41.462)"/><path d="M27.774 7.062V2.405h.68v4.657h-.68zm-.043-5.777V.44h.765v.845h-.765z" fill="url(#f)" transform="translate(76 41.462)"/><path d="M31.302 7.197c-1.352 0-1.958-1.237-1.958-2.463 0-1.187.623-2.463 1.992-2.463 1.33.012 2.035.942 2.035 2.674h-3.303c.027.54.229 1.583 1.396 1.583.557 0 1.03-.413 1.153-1.003l.015-.069h.713C33 7.023 32.069 7.174 31.302 7.194v.003zm1.34-2.917c-.088-.854-.557-1.342-1.297-1.342-.8 0-1.17.703-1.252 1.342h2.549z" fill="url(#g)" transform="translate(76 41.462)"/><path fill="url(#h)" d="M36.798 2.405h.712l1.22 3.588 1.175-3.588h.755l-1.655 4.657h-.61l-1.263-3.718-1.292 3.718h-.624l-1.641-4.657h.74l1.234 3.627z" transform="translate(76 41.462)"/><path d="M42.787 7.197c-1.352 0-1.958-1.237-1.958-2.463 0-1.187.623-2.463 1.992-2.463 1.402.001 2.05 1.077 2.035 2.674h-3.303c.027.54.229 1.583 1.396 1.583.56-.015 1.009-.332 1.168-1.072h.713c-.35 1.535-1.286 1.724-2.043 1.738v.003zm1.34-2.917c-.088-.854-.557-1.342-1.297-1.342-.8 0-1.17.703-1.252 1.342h2.549z" fill="url(#i)" transform="translate(76 41.462)"/><path d="M45.822 7.062v-3.56c.006-.356-.024-.678-.042-1.004l-.006-.093h.698l.017.434c.207-.335.543-.553.905-.568a2.56 2.56 0 01.153-.004c.122 0 .245.007.364.013l.08.004.001.084v.613c-1.19-.213-1.455.6-1.47 1.18l-.028 2.9" fill="url(#j)" transform="translate(76 41.462)"/><path d="M39.778 0H9.093C6.866.029 5.08 1.834 5.09 4.043v30.863c-.01 2.218 1.79 4.026 4.025 4.043h30.686c2.235-.017 4.035-1.825 4.025-4.043V4.043a4.008 4.008 0 00-1.178-2.855A4.07 4.07 0 0039.778 0zM24.443 35.579c-8.897-.068-16.057-7.276-15.997-16.105-.06-8.828 7.1-16.036 15.997-16.104 8.902.062 16.068 7.271 16.009 16.104.06 8.833-7.107 16.043-16.009 16.105z" fill="url(#k)" transform="translate(76)"/><path fill="url(#l)" d="M39.294 19.474l-11.102-5.161.892 3.307h-9.276l.892-3.307-11.102 5.165 11.11 5.162-.892-3.308h9.275L28.2 24.64l11.095-5.162" transform="translate(76)"/><path d="M2 25h68m118 0h68" stroke="#AFB0B5" stroke-width="3" stroke-linecap="round" stroke-dasharray="4,5"/></g></svg>