<svg width="248" height="132" xmlns="http://www.w3.org/2000/svg"><g fill="none" fill-rule="evenodd"><g transform="translate(0 5)"><path d="M62.222 0H7.778C3.483 0 0 3.5 0 7.815v109.418c0 4.316 3.482 7.815 7.778 7.815h54.444c4.295 0 7.778-3.5 7.778-7.815V7.815C70 3.5 66.517 0 62.222 0z" fill="#434655"/><path d="M58.333 7.815H11.667c-2.147 0-3.89 1.751-3.89 3.91v7.815c0 2.157 1.743 3.908 3.89 3.908h46.666c2.147 0 3.89-1.75 3.89-3.908v-7.815c0-2.159-1.743-3.91-3.89-3.91zm0 23.447H11.667c-2.147 0-3.89 1.75-3.89 3.907v7.816c0 2.159 1.743 3.91 3.89 3.91h46.666c2.147 0 3.89-1.751 3.89-3.91v-7.816c0-2.157-1.743-3.907-3.89-3.907zM11.667 101.6h7.777a3.9 3.9 0 003.89-3.906c0-2.159-1.743-3.91-3.89-3.91h-7.777c-2.147 0-3.89 1.751-3.89 3.91 0 2.155 1.743 3.906 3.89 3.906zm7.777 7.815h-7.777c-2.147 0-3.89 1.751-3.89 3.91 0 2.157 1.743 3.908 3.89 3.908h7.777c2.147 0 3.89-1.75 3.89-3.908 0-2.159-1.743-3.91-3.89-3.91z" fill="#818389"/><ellipse fill="#FF6C50" cx="35" cy="70.338" rx="7.778" ry="7.815"/></g><path d="M87.438 0C82.225 0 78 4.21 78 9.401v84.615c0 5.192 4.226 9.4 9.438 9.4h132.125c5.211 0 9.437-4.208 9.437-9.4V9.401C229 4.21 224.774 0 219.562 0H87.438z" fill="#434655"/><path d="M92.719 10C90.114 10 88 12.106 88 14.7v75.212c0 2.595 2.114 4.703 4.719 4.703h122.687c2.605 0 4.719-2.106 4.719-4.703V14.701c0-2.595-2.114-4.701-4.719-4.701H92.72z" fill="#F0F1F3"/><path d="M181.86 41.546c.03.664-1.801 1.82-2.374 2.17.1.282.376 1.332 0 2.825.978 1.288 1.99 3.913 2.082 4.214.253.837.197 2.43-1 3.383-.814.646-1.079.738-1.24.794a.307.307 0 00-.128.07c-.027.139-.03.282-.01.423.023.378.05.896-.179 1.367-.39.8-1.604 2.516-3.343 3.963-1.088.892-2.188 1.808-3.758 1.808h-.14c-.094.173-.39.58-1.274 1.13-.25.167-.54.26-.838.267-.699 0-1.084-.586-1.091-.596-.007-.01-.863.059-.863.059.004.353-.023.705-.08 1.053.116.31.682 1.95.725 4.434.046 2.685-.592 5.26-1.244 6.41-.63 1.11-.943 1.29-1.397 1.486-.431.19-2.402-.117-4.281-1.83-.503.447-1.027.87-1.571 1.263a1.004 1.004 0 01-.559.207c-.352 0-.57-.283-.705-.467-.032-.042-.06-.08-.09-.113-.14-.16-.155-.49-.177-.913-.022-.392-.046-.836-.175-1.143a.551.551 0 00-.279-.34.224.224 0 00-.165.017l-.826.44-.636-.733a.142.142 0 01-.03-.066l-3.738-.09c.81.413 1.358 1.1 1.457 2.684l.007.12-3.58.626-.043-.093s-.217-.46-.543-.51c-.17-.027-.352.066-.543.274-.751.822-1.884 1.087-2.491 1.23 0 0-2.638.597-3.48.597-1.815 0-4.189-.333-4.338-.356h-.03l-.023-.017a.772.772 0 01-.28-.999l.054-.106.109.037s.317.09 1.083-.13a6.794 6.794 0 001.2-.547c.558-.294 1.084-.565 1.498-.6a5.26 5.26 0 01.495-.013c.332 0 .497 0 .787-.204a.63.63 0 00.187-.694c-.099-.27-.378-.394-.787-.347a.871.871 0 01-.116.007c-1.193 0-3.096-1.854-3.179-1.936l-.016-.017-.01-.02c-.014-.032-.356-.77.434-1.886.76-1.075 2.256-2.63 3.34-3.281l.031-.02 4.691-.014a6.124 6.124 0 01-.17-.814h-.962a.854.854 0 01-.4-.116 2.836 2.836 0 01-1.423-2.186l-.046.01h-.164c-2.18 0-4.608-1.594-5.323-2.097-.596.697-1.966 2.084-1.966 2.084l-.1-.294c-.461-1.509-1.935-4.147-2.033-4.202a.875.875 0 00-.25-.098c-.15 0-2.276-.017-2.846-.952-.078-.126-.237-.33-.29-.33h-.013c-.02 0-.504-.05-.899-.744a1.514 1.514 0 01-.197-.677h-.022c-.032-.01-.747-.272-.759-1.197-.012-.674.306-1.906.29-1.933-.076-.107-1.775-2.57-2.218-3.969a1.928 1.928 0 01-.432-.193c-.048-.03-.206-.1-.652-.088-1.047.016-1.473-1.17-1.491-1.218l-.024-.07.042-.056c.032-.044 3.195-4.462 3.91-5.874.224-.479.405-.977.54-1.49.368-1.213.78-2.592 2.211-4.155 1.387-1.519 8.301-9 15.948-9.664.62-.053 1.282-.107 1.983-.183 3.42-.378 7.743-.97 13.755 1.993 7.915 3.9 12.202 9.716 14.01 12.836.464-.08 2.316-.366 3.206.054.145.054.246.19.255.346zm-2.523 1.94c.977-.586 2.273-1.537 2.257-1.927 0-.02 0-.066-.102-.113-.907-.424-3.288 0-3.311.01l-.093.017-.046-.08c-1.77-3.077-5.917-8.817-13.836-12.718-5.945-2.928-10.07-2.391-13.457-2.018-.698.08-2.072.393-2.695.483-2.538.37-6.4 2.453-8.564 3.77-.79.48-1.354.86-1.554 1.016-1.466 1.167-3.4 3.1-4.776 4.603-1.376 1.502-2.073 2.697-2.429 3.885a9.333 9.333 0 01-.558 1.534c-.692 1.359-3.492 5.29-3.89 5.85.095.227.48.989 1.208.96a1.96 1.96 0 011.005.217v-.023a.097.097 0 01.022.013c-.28-1.256.026-1.65.066-1.696a.084.084 0 01.029-.022c.047-.02.1-.01.14.022.053.051-.079.565.227 1.798.306 1.232 1.816 3.682 2.02 4.015a.054.054 0 01.006-.012v.007l.007-.014c.093-.122.206-.225.336-.304.152-.1.328-.157.51-.167a.705.705 0 01.591.283c.154.173.256.387.294.617l.016-.013c.102-.076.188-.132.243-.166l.042-.023c.245-.096.64.096.803.498.11.368.15.754.115 1.137.069 0 .137.007.204.024a.643.643 0 01.409.334c.162.319.096.635.024.969-.09.424.056 1.604.063 1.614.368.576 1.013.81 1.437 1.044l.078.044c.022.012.172-.034.234-.007.014.007.323.09.956-.184.065-.03.036.141-.02.19a1.32 1.32 0 01-.198.14 1.068 1.068 0 01-.689.128.05.05 0 00.01.014h-.027c.56.807 1.278 2.977 1.537 3.815a.141.141 0 01.014-.02v.01c1.107-1.857 3.314-4.32 4.368-4.97a.73.73 0 01.444-.15c.07.015.042.142-.014.191a40.63 40.63 0 00-1.869 1.787c.41.133.838.203 1.269.209a4.85 4.85 0 00.931-.084c.036-.007.073-.012.112-.022l.042.223-.115.023c-.317.068-.64.109-.965.12a4.422 4.422 0 01-1.373-.236l-.995 1.12c.558.394 3.33 2.3 5.52 2.017.79-.1 2.095-.356 2.015-.663-.07-.267-.253-1.523-.609-2.347-.016-.04-.036-.08-.053-.117l.14-.07c.022.043.042.084.06.127.584 1.303 1.107 3.503 1.225 3.981h.444c.419-1.016 1.564-1.852 2.5-2.536.638-.467.892-.496 1.409-1.26.537-.794.817-1.945.628-3.375-.092-.693-.904-1.314-.863-1.376a.13.13 0 01.184-.04c.034.023.838.565.943 1.38.201 1.51-.244 2.684-.652 3.532a2.73 2.73 0 01-.095.176h.803s1.299-1.18 1.35-1.13a.143.143 0 010 .19l-1.241 1.207h-1.095c-.238.25-.5.474-.78.67-1.996 1.51-2.573 2.217-2.92 2.896a2.124 2.124 0 00-.125.423c-.172.566-.233 1.347.065 1.965v.021c.896 1.79 2.728 2.327 4.062 2.307 1.534.018 3.06.22 4.548.6 1.008.293 2.824.18 3.491.081.698-.1 1.913-.716 2.306-.896.47-.216 2.628-1.162 3.607-3.21.511-1.064.521-1.806.559-2.456.049-.952-.08-3.377-.116-3.815-.044-.58-.537-1.18-.482-1.23a.138.138 0 01.188.01c.024.026.616.682.67 1.165.041.377.114 2.727.14 3.532a.097.097 0 01.045-.01h.738c-.153-.664-.655-3.06-.14-3.833l.106-.163c.152-.248.322-.484.51-.706a.835.835 0 01.458-.26 15.78 15.78 0 012.487-3.073c-.81-.407-.968-.848-1.117-1.272a1.77 1.77 0 00-.42-.738 2.71 2.71 0 00-1.535-.729h-.007c.121.663.033 1.744-.379 2.377a7.482 7.482 0 00-.28.46 4.261 4.261 0 01-1.24 1.44c-.602.46-.727.594-.763.848-.069.45-.672.848-1.418.87h-.053c-.48 0-.87-.237-1.188-.423l-.059-.037a1.359 1.359 0 01-.51-.523c0-.01 0-.017-.008-.024-.17.052-.342.089-.518.11-1.117.636-2.483.81-3.406.81a4.382 4.382 0 01-2.25-.565c-1.614-.947-1.955-2.903-1.97-2.976a3.701 3.701 0 01-.672-1.097 3.553 3.553 0 01-.121-1.32c.02-.398.092-.791.217-1.17l.199.067c-.107.358-.157.73-.151 1.104.01.434.089.863.234 1.271a4.171 4.171 0 001.889 2.113c.167.083.335.172.504.26.803.424 1.63.86 2.793 1.05l.14.024c.807.141 2.157.357 3.063.05.18-.058.347-.148.495-.265.48-.386.148-2.127.218-2.15a.11.11 0 01.039-.006.14.14 0 01.128.096c.014.053.316 1.072.092 1.786a.99.99 0 01-.313.486 1.648 1.648 0 01-.372.227c.096.17.236.311.405.407l.06.037c.312.19.664.407 1.09.39.13-.006.26-.03.383-.073.388-.13.754-.395.78-.566.06-.37.272-.565.868-1.016a3.96 3.96 0 001.176-1.356c.086-.141.177-.297.289-.466.484-.744.45-2.1.247-2.494a9.501 9.501 0 00-.761-.953l-.017-.017-.007-.022c-.14-.337-.41-.923-.586-1.063a3.263 3.263 0 00-.607-.253l-.086-.03v-.09a4.573 4.573 0 00-.063-.53l-.184-.339.279-.066c.124-.013 1.324-.142 1.416.453.038.378.014.76-.07 1.13.178.237.978 1.257 1.676 1.621.204.112.402.234.594.366.656.434 1.473.977 3.277 1.197a3.684 3.684 0 001.242-.523 6.706 6.706 0 001.717-1.533 3.395 3.395 0 00-.224-.596c-.313-.7-.165-1.386.13-1.677a.534.534 0 01.083-.07c-.03-.209-.174-1.452.373-1.945a1 1 0 01.1-.08c.25-.16.576-.18.977-.063.03.01.06.024.086.042v-.022a.097.097 0 01.023.012c-.037-.14-.1-.5.082-.773a.645.645 0 01.182-.18.96.96 0 01.49-.128c.177 0 .371.113.57.304a.073.073 0 000-.022s.01.007.012.012c.435-1.71.08-2.413.076-2.419l-.06-.116.095-.056.103-.067zm.913 10.42c.83-.716 1.078-2.497.846-3.263-.339-1.119-1.788-4.535-2.543-4.535h-.01a.556.556 0 00-.46.2c-.116.174.032.74.032.953.25.282.419.643.686 1.13l.072.133.17.302c.388.648.712 1.332.967 2.044.235.716.05 1.1.042 1.119a.131.131 0 01-.177.059c-.066-.034.08-.493-.116-1.09a11.17 11.17 0 00-.949-1.995l-.17-.303-.073-.142c-.194-.356-.705-1.303-.95-1.373-.368-.108-.651-.077-.837.093-.478.432-.063 1.64-.063 1.653 0 .013 0 0 0 0 .109-.014 0 0 .115.057.645.32 1.163 1.87 1.221 2.043a.142.142 0 01-.085.17c-.07.024-.793-1.741-1.257-1.97a.309.309 0 00-.385.056c-.233.23-.325.807-.073 1.374.439.98.4 1.233-.356 2.28-.099.14-.17.24-.22.313-.14.206-.172.256-.35.257-.14 0-.455.01-1.536.487-1.08.478-2.106 1.555-2.849 2.507a15.8 15.8 0 00-1.219 1.808c-.001.095-.013.19-.033.282-.044.246-.1.55.07.707.05.052.053.135.007.19-.05.054-.498-.347-.34-.95.016-.068.026-.139.03-.21-.992.803-1.097 2.774.075 3.35 2.698 1.337 4.111.425 5.959-1.106 1.694-1.413 2.678-2.986 3.044-3.733.199-.41.402-1.006.382-1.37-.017-.305-.03-.524.101-.638.08-.07.158-.07.216-.117a8.89 8.89 0 001.016-.772zm-9.428 8.914l-1.835-.503c-.026.087.01.64.14.804.097.154.24.273.408.34.06.024.123.036.187.037.364.001 1.004-.413 1.1-.678zm-4.161 12.31c.62-1.094 1.137-3.297 1.093-5.906-.033-1.837-.188-2.89-.39-3.577 0 .014-.006.024-.01.034l-.013-.05c-.01.039-.014.06-.02.078a1.11 1.11 0 00-.053.128c-.558 1.526-3.015 3.286-4.041 3.599-.732.22-1.7.757-2.363.847a8.961 8.961 0 01-1.163.061c-.808 0-1.795-.07-2.47-.264-1.033-.297-3.164-.616-4.47-.59h-.053a5.957 5.957 0 01-3.152-1.022c-.472-.34-.838-.758-1.01-1.24h-.018v-.014l-4.748-.113c-1.051.64-2.49 2.144-3.226 3.187-.632.89-.453 1.413-.388 1.51.219.257.47.484.747.674a5.267 5.267 0 002.036.947c.426.087.83.262 1.186.513.117.07.216.167.29.282.024.155.032.313.023.47.086.09.18.175.28.25.579.436 2.094 1.173 4.401-.61l.024-.02h.032c.999-.17 2.01-.256 3.023-.258.643 0 .793-.113.83-.152a3.345 3.345 0 00-.782-.734c-.362-.25-.838-.012-.803-.414.035-.401 8.891.22 8.891.22h.01l1.493-.033s2.374-1.183 2.602-1.22a.142.142 0 01-.056.167l-2.5 1.413-1.434-.05a.119.119 0 01-.032-.008c.069.205.163.4.279.581.396.463.843.88 1.33 1.243 1.605 1.21 3.246 1.538 3.566 1.4.414-.18.47-.29 1.059-1.327v-.002zm-5.05-17.776a12.58 12.58 0 01-1.874-.206l-.14-.023c-1.205-.2-2.053-.646-2.875-1.077-.168-.087-.333-.176-.497-.26a4.574 4.574 0 01-1.118-.816c.14.507.587 1.68 1.746 2.357 1.183.696 2.782.703 4.758.026v-.001zm-13.796 7.656c.207-.488-.451-1.967-.458-1.978a.087.087 0 01-.013-.033c-.419.297-.977.47-1.44.59.151 1.26.738 1.883 1.079 2.07a.47.47 0 00.382.066c.173-.065.298-.35.45-.715zm-12.354-6.178a3.683 3.683 0 01-1.027-.923 2.802 2.802 0 01-.069-1.724c.069-.323.119-.556 0-.79a.37.37 0 00-.243-.196.778.778 0 00-.59.133c-.572.373-1.09 1.867-.591 2.685.434.71 2.086.802 2.52.815zm-1.745-3.92a2.76 2.76 0 00-.095-1.035c-.119-.297-.381-.378-.461-.348-.143.06-1.33.98-1.405 1.544-.02.142-.049.283-.078.424-.1.49-.201 1 .06 1.454.322.566.679.608.698.61a.13.13 0 01.076.037c-.162-.936.326-2.126.875-2.482a1.24 1.24 0 01.335-.153.081.081 0 01-.005-.05zm-1.225-1.271s.095-.2-.228-.608a.438.438 0 00-.373-.184.975.975 0 00-.652.368c-.162.236-.455 1.167-.444 1.978-.014.38.186.736.517.917a4.99 4.99 0 01.106-.677c.027-.141.053-.273.073-.403.06-.424.558-.946.977-1.312v-.013c0-.026.01-.05.025-.07l-.001.004z" fill="#232323"/><path d="M181.594 41.559c.016.39-1.278 1.342-2.257 1.927l-.106.067-.095.056.06.116s.359.707-.076 2.42l-.012-.013a.073.073 0 010 .022c-.198-.19-.393-.304-.57-.304a.96.96 0 00-.49.127.645.645 0 00-.182.181c-.181.273-.118.628-.082.773a.097.097 0 00-.022-.012v.022a.313.313 0 00-.087-.042c-.4-.117-.728-.096-.978.064a1 1 0 00-.099.079c-.547.493-.402 1.736-.373 1.945a.534.534 0 00-.082.07c-.296.292-.444.979-.131 1.677.093.191.168.39.225.596a6.707 6.707 0 01-1.7 1.526c-.379.25-.8.427-1.241.523-1.803-.22-2.62-.763-3.278-1.197a6.587 6.587 0 00-.594-.366c-.698-.366-1.5-1.386-1.675-1.62.083-.371.107-.753.07-1.13-.093-.59-1.292-.467-1.417-.454-.022-.023-.042-.043-.062-.067v-.88a3.867 3.867 0 00-.165-.707l.017-.022c2.15-2.633 2.987-4.778 2.487-6.38-.42-1.324-1.608-1.816-1.937-1.928a2.87 2.87 0 00-.28-1.02c-.39-.784-1.153-1.304-2.273-1.554-1.2-.263-2.191-.116-2.941.44-.18.133-.345.287-.49.459a.88.88 0 00-.204-.5c-.41-.491-1.307-.634-2.669-.425-1.001.153-1.712.566-2.111 1.24-.528.886-.364 1.952-.253 2.423a1.767 1.767 0 00-.643-.093c-.536.024-1.023.32-1.446.867-.699.903-.946 1.803-.732 2.685.434 1.766 2.562 2.826 2.877 2.98l.838 1.297c-.386-.123-.764-.113-1.257.19a3.688 3.688 0 00-.42.306c-1.116.94-.675 1.637-.671 1.647l.129.14c.084.084.175.161.27.231l-.02.007a2.286 2.286 0 00-.435.21c-.409.254-.989.738-1.676 1.674-.359.49-.747 1.05-1.156 1.64-1.107 1.603-2.361 3.417-3.535 4.497-.31.279-.645.526-1.004.737a10.793 10.793 0 01-3.406 1.272c-.039.01-.075.014-.111.023-.308.058-.62.086-.932.083a4.26 4.26 0 01-1.268-.21 41.141 41.141 0 011.869-1.785c.055-.05.085-.177.014-.191a.73.73 0 00-.445.15c-1.054.65-3.26 3.109-4.368 4.97v-.01a.141.141 0 00-.014.02c-.26-.831-.977-3.003-1.536-3.816h.027a.05.05 0 01-.01-.014 1.068 1.068 0 00.688-.127c.07-.041.137-.088.199-.141.055-.047.085-.218.02-.19-.633.274-.942.191-.956.184-.063-.027-.214.02-.235.007l-.078-.044c-.419-.236-1.07-.469-1.437-1.044-.007-.01-.152-1.197-.063-1.614.073-.333.14-.65-.023-.97a.643.643 0 00-.41-.333.798.798 0 00-.204-.024 3.02 3.02 0 00-.114-1.137c-.162-.403-.559-.594-.803-.497l-.042.022c-.056.034-.14.09-.243.167l-.017.013a1.233 1.233 0 00-.293-.618.705.705 0 00-.592-.283c-.181.01-.357.068-.51.167a1.23 1.23 0 00-.335.304l-.007.014v-.007c0-.007 0 0 0 0a.054.054 0 00-.007.013c-.208-.334-1.719-2.794-2.02-4.016-.3-1.222-.174-1.747-.227-1.797a.138.138 0 00-.14-.023.084.084 0 00-.029.023c-.039.042-.346.433-.065 1.695a.097.097 0 00-.023-.013v.023a1.96 1.96 0 00-1.004-.216c-.728.024-1.117-.733-1.21-.961.4-.565 3.2-4.49 3.891-5.85.23-.493.418-1.006.559-1.533.356-1.187 1.042-2.367 2.429-3.886 1.386-1.519 3.308-3.434 4.776-4.602.2-.146.765-.517 1.555-.994 2.162-1.312 6.025-3.391 8.562-3.765.623-.09 1.993-.405 2.696-.484 3.386-.373 7.511-.91 13.456 2.017 7.92 3.903 12.068 9.642 13.837 12.717l.046.08.092-.016c.024 0 2.405-.44 3.311-.01.1.044.104.09.104.11z" fill="#E65A3F"/><path d="M181.096 50.643c.234.766-.016 2.544-.846 3.263a8.89 8.89 0 01-1.02.78c-.06.05-.14.047-.216.117-.131.116-.118.334-.102.638.023.366-.181.96-.38 1.37-.367.748-1.351 2.323-3.045 3.734-1.848 1.536-3.261 2.443-5.96 1.106-1.17-.576-1.066-2.543-.075-3.35-.003.07-.013.141-.029.21-.158.6.29 1.004.34.95a.143.143 0 00-.008-.19c-.17-.163-.114-.467-.07-.707.021-.093.032-.188.034-.283a15.8 15.8 0 011.214-1.812c.741-.953 1.755-2.023 2.849-2.506 1.093-.484 1.406-.486 1.536-.488.177 0 .208-.05.349-.257.05-.073.121-.177.22-.314.757-1.044.795-1.3.357-2.279-.253-.565-.161-1.143.072-1.373a.31.31 0 01.386-.057c.46.228 1.182 1.994 1.257 1.97a.142.142 0 00.085-.17c-.059-.173-.577-1.724-1.222-2.043-.115-.056 0-.07-.115-.056 0 0-.419-1.221.063-1.654.189-.17.472-.2.838-.093.244.07.757 1.017.95 1.374l.072.14.17.305c.381.63.7 1.299.949 1.993.197.6.05 1.057.116 1.091a.131.131 0 00.177-.06c.01-.016.194-.402-.042-1.118a11.647 11.647 0 00-.968-2.043l-.17-.303-.073-.133c-.264-.487-.435-.847-.685-1.13 0-.21-.148-.777-.032-.952a.556.556 0 01.46-.201h.01c.77-.003 2.215 3.414 2.554 4.531z" fill="#FBC4B1"/><path d="M170.748 53.706c.153.423.31.859 1.118 1.271a15.78 15.78 0 00-2.486 3.064.835.835 0 00-.458.26 5.627 5.627 0 00-.51.706l-.106.163c-.518.773-.017 3.17.14 3.833h-.738a.097.097 0 00-.046.01c-.026-.81-.1-3.16-.14-3.532-.053-.484-.645-1.138-.669-1.166a.138.138 0 00-.188-.01c-.053.05.438.653.482 1.23.036.437.165 2.864.116 3.816-.032.65-.042 1.39-.559 2.456-.978 2.047-3.137 2.996-3.607 3.21-.393.18-1.602.794-2.306.896-.669.098-2.484.21-3.491-.08a19.247 19.247 0 00-4.548-.6c-1.334.019-3.166-.518-4.062-2.308v-.022c-.298-.617-.237-1.406-.065-1.964.027-.145.069-.287.126-.424.346-.677.923-1.383 2.918-2.902.282-.197.543-.421.78-.67h1.101l1.242-1.207a.143.143 0 000-.19c-.05-.051-1.35 1.13-1.35 1.13h-.804a2.73 2.73 0 00.095-.177c.408-.847.854-2.019.653-3.532-.107-.813-.91-1.357-.943-1.38a.129.129 0 00-.184.04c-.042.061.77.684.863 1.377.188 1.43-.09 2.58-.629 3.375-.517.763-.77.793-1.409 1.26-.936.683-2.082 1.52-2.5 2.536h-.444c-.116-.478-.64-2.685-1.224-3.98a2.67 2.67 0 00-.06-.128c-.192-.407-.39-.706-.583-.807a.101.101 0 00-.024-.01c.584-.296 1.249-.616 1.697-1.03a25.437 25.437 0 003.631-4.146c.408-.59.89-1.38 1.246-1.866.618-.848 1.13-1.293 1.495-1.536a1.805 1.805 0 00-.14.33 4.427 4.427 0 00-.217 1.17c-.043.444-.002.892.121 1.32.159.403.386.774.672 1.097.013.073.356 2.029 1.97 2.976a4.382 4.382 0 002.25.565c.923 0 2.286-.174 3.406-.81.176-.022.35-.059.519-.11 0 .007 0 .014.007.024.12.218.296.399.51.523l.06.036c.316.191.707.424 1.188.424h.05c.747-.022 1.35-.424 1.417-.87.037-.247.161-.383.764-.848a4.252 4.252 0 001.232-1.426c.085-.14.175-.292.28-.459.418-.633.5-1.714.378-2.377h.007a2.71 2.71 0 011.536.73c.198.207.342.461.42.739zm-8.733 6.336c.55-.687.78-1.231.681-1.624a.539.539 0 00-.293-.376.132.132 0 00-.166.075.134.134 0 00.064.172.298.298 0 01.14.201c.039.172-.672 1.52-.614 1.57a.13.13 0 00.186-.02l.002.002zm-.858-1.1a.143.143 0 00-.008-.169.139.139 0 00-.162-.04l-1.897 1.6a.133.133 0 00-.016.19c.026.03 2.083-1.58 2.083-1.58z" fill="#FFF"/><path d="M168.987 62.317l1.835.503c-.096.264-.737.68-1.107.68a.516.516 0 01-.187-.037.854.854 0 01-.41-.335c-.12-.171-.157-.722-.13-.811z" fill="#EAF7FC"/><path d="M168.68 40.56c.5 1.602-.336 3.747-2.487 6.38l-.017.023c.077.23.132.466.165.706v.88l.063.067-.28.066a4.142 4.142 0 00-.358-.282l-.079-.054.027-.093c.021-.082.035-.166.042-.25l-.189-.35-1.419.214.125-.238c0-.01.053-.1.14-.233h-.364c-.5 0-1.2.023-1.854.044l-.597.204-1.442 1.4.017-.34a7.36 7.36 0 01.148-1.18l-3.492 1.363.05-.333a1.07 1.07 0 00-.065-.516.586.586 0 00-.126-.171.532.532 0 00-.191-.13c-.472-.194-.885-.19-1.588.4-.87.73-.628 1.23-.517 1.403.18.176.391.315.623.41.151.05.189.141.197.2.017.177-.197.297-.419.424-.065.037-.131.08-.162.098a.707.707 0 00-.27.393l-.199-.067c.035-.115.082-.225.14-.33-.366.243-.877.693-1.496 1.535-.356.487-.838 1.272-1.246 1.867a25.437 25.437 0 01-3.63 4.146c-.449.414-1.118.733-1.697 1.03a.101.101 0 01.023.01c.192.1.39.4.583.807l-.14.07a1.207 1.207 0 00-.451-.566c-.043-.024-1.75.414-2.975.646l-.041-.224a10.793 10.793 0 003.406-1.271 6.237 6.237 0 001.004-.738c1.173-1.08 2.427-2.894 3.534-4.496.41-.591.798-1.15 1.157-1.64.688-.935 1.268-1.421 1.675-1.674.138-.085.284-.156.436-.21l.02-.008a2.394 2.394 0 01-.271-.23l-.129-.141c0-.01-.444-.707.672-1.646.132-.112.272-.215.419-.307.491-.302.87-.31 1.257-.19l-.838-1.296c-.316-.142-2.444-1.214-2.877-2.98-.214-.878.032-1.78.732-2.685.419-.55.912-.848 1.447-.868.218-.009.435.023.642.093-.112-.47-.28-1.537.253-2.423.4-.667 1.117-1.087 2.111-1.24 1.363-.21 2.26-.069 2.669.425a.88.88 0 01.204.5c.145-.172.31-.326.49-.46.749-.553 1.74-.706 2.941-.439 1.117.246 1.884.766 2.274 1.554.155.32.25.666.279 1.02.334.107 1.526.597 1.941 1.921zm-1.76 5.02c1.414-2.013 1.925-3.673 1.528-4.945-.343-1.104-1.311-1.584-1.692-1.737 0 .624-.189 1.232-.54 1.744l-.06.06c.006-.016.737-1.685.091-2.982-.356-.714-1.067-1.19-2.108-1.413-1.133-.248-2.056-.116-2.747.397-.274.204-.507.46-.686.753-.298.479-.56.98-.78 1.5v-.023c.074-.598.283-1.17.61-1.673a.804.804 0 00-.168-.64c-.243-.283-.863-.581-2.445-.34-.926.142-1.581.523-1.94 1.13-.559.94-.253 2.154-.177 2.403a2.65 2.65 0 01.737.533c-.096-.061-.892-.533-1.653-.494-.461.023-.887.283-1.268.776-.65.84-.88 1.67-.686 2.47.371 1.52 2.167 2.524 2.653 2.774.267-.777 1.816-4.443 7.231-3.403 2.503.451 3.765 2.483 4.1 3.11zm-.418.574a8.59 8.59 0 00.26-.353c-.2-.404-1.408-2.624-3.988-3.093-5.524-1.06-6.833 2.809-6.982 3.313l.264.407c.164-.424.838-1.08 2.404-1.756l-.062.066c-1.816.783-2.124 1.751-2.17 1.957l.523.813.14-.01c.26-.767 1.144-2.22 4.075-2.336 2.653-.106 4.085.638 4.748 1.156.095.076.172.141.235.206l.007.008c.053.05.096.096.13.14.08-.1.161-.198.238-.299.067-.073.123-.147.176-.217l.002-.002z" fill="#232323"/><path d="M156.549 40.344a2.65 2.65 0 00-.737-.533c-.076-.256-.389-1.47.177-2.402.359-.603 1.013-.98 1.94-1.13 1.583-.244 2.203.049 2.445.339a.804.804 0 01.167.64 3.986 3.986 0 00-.61 1.673v.024c.221-.52.482-1.022.78-1.5.178-.292.408-.547.68-.751.69-.513 1.614-.646 2.746-.397 1.042.227 1.753.706 2.109 1.413.645 1.297-.085 2.967-.092 2.983l.06-.061c.352-.512.54-1.12.54-1.744.382.153 1.348.633 1.693 1.737.398 1.272-.115 2.933-1.528 4.946-.335-.628-1.598-2.66-4.099-3.11-5.41-1.04-6.964 2.625-7.23 3.403-.488-.25-2.284-1.256-2.654-2.773-.194-.8.036-1.631.686-2.47.38-.49.807-.754 1.268-.776.76-.043 1.555.428 1.659.489z" fill="#FFF"/><path d="M168.434 51.965c.204.394.238 1.75-.247 2.494-.112.17-.201.319-.289.466a3.96 3.96 0 01-1.176 1.357c-.596.453-.81.645-.867 1.016-.027.173-.392.439-.78.565l-.14-.484c.279 0 .518-.293.518-.657 0-.363-.233-.66-.518-.66a.522.522 0 00-.458.347l-.655-.024c.223-.714-.079-1.733-.093-1.786a.14.14 0 00-.128-.096l.405-.467a2.19 2.19 0 001.21.41c.168 0 .336-.027.497-.08 1.023-.341 1.103-.947 1.152-1.308l.007-.056c.068-.47-.056-1.146-.42-1.477a8.318 8.318 0 00-.731-.542c-.078-.057-.165-.116-.253-.18a.606.606 0 00.379-.106c.29-.24.315-.527.223-1.013-.02-.096-.042-.2-.068-.31a1.825 1.825 0 00-.548-.946l.3-.047c.125.088.245.182.36.283l.184.339a4.7 4.7 0 01.062.53v.09l.087.03c.21.064.413.148.606.253.178.141.454.726.587 1.062l.007.023.016.017a9.5 9.5 0 01.771.957z" fill="#FBC4B1"/><path d="M167.754 69.225c.044 2.61-.472 4.813-1.093 5.907-.59 1.037-.645 1.147-1.062 1.33-.32.14-1.955-.192-3.565-1.401a8.162 8.162 0 01-1.33-1.244 2.643 2.643 0 01-.28-.58c.01.003.021.006.032.007l1.436.066 2.5-1.413a.142.142 0 00.055-.167c-.223.037-2.601 1.22-2.601 1.22l-1.493.034h-.01s-8.855-.623-8.892-.22c-.036.402.442.163.803.413.034.023.066.044.097.07.258.187.49.41.685.664-.036.04-.187.141-.83.152a18.362 18.362 0 00-3.023.257h-.032l-.023.02c-2.313 1.783-3.823 1.047-4.402.61a2.177 2.177 0 01-.28-.25c.01-.156.002-.314-.023-.469a.868.868 0 00-.29-.282 3.163 3.163 0 00-1.185-.513 5.267 5.267 0 01-2.036-.947 3.786 3.786 0 01-.747-.674c-.066-.103-.245-.62.388-1.51.737-1.043 2.174-2.544 3.226-3.187l4.748.113v.014h.017c.167.48.537.898 1.01 1.24a5.957 5.957 0 003.153 1.023h.053c1.307-.027 3.437.292 4.469.589.676.196 1.663.264 2.47.264.389.005.777-.015 1.163-.06.665-.097 1.632-.634 2.363-.848 1.025-.311 3.479-2.073 4.042-3.6.015-.043.032-.086.053-.127 0-.017.01-.04.02-.079l.013.051c0-.01 0-.02.01-.034.201.671.358 1.723.391 3.561z" fill="#FFF"/><path d="M166.453 51.54c.359.331.481 1.008.419 1.477l-.007.057c-.05.36-.129.966-1.152 1.307-.16.054-.329.081-.498.08a2.194 2.194 0 01-1.209-.41 2.996 2.996 0 01-.313-.25c-.215-.199-.739-.863-.76-.89a.142.142 0 01.021-.19c.06-.044.718.7.92.883.147.141.921.8 1.755.523.507-.174.881-.613.977-1.146.056-.4-.056-.99-.332-1.241-.14-.123-.41-.314-.698-.52-.747-.523-1.282-.913-1.39-1.2a1.79 1.79 0 01-.024-.96c.03-.25.135-.485.3-.673a.602.602 0 01.435-.2c.21.014.408.1.561.245.275.251.466.582.548.947.026.11.049.213.068.31.092.485.069.772-.223 1.012a.606.606 0 01-.379.106c.087.064.175.123.253.18.252.17.495.356.728.554zm-.768-1.035c.196-.163.303-.348.14-1.074-.14-.608-.675-.974-.93-.974a.354.354 0 00-.247.116 1.2 1.2 0 00-.25.848c0 .064.007.127.017.19a.353.353 0 01.124-.13.342.342 0 01.172-.047.683.683 0 01.536.386c.151.264.153.55.023.706.068.015.137.022.207.023a.391.391 0 00.206-.05l.002.006z" fill="#232323"/><path d="M164.148 44.57c1.506.516 2.066 1.543 2.187 1.8l-.237.3c-.034-.04-.078-.083-.131-.141l-.007-.007a3.39 3.39 0 00-.235-.207c-.662-.517-2.088-1.26-4.748-1.156-2.933.116-3.814 1.568-4.075 2.336l-.14.01-.523-.812c.046-.207.353-1.175 2.17-1.957l.063-.067c-1.569.677-2.235 1.334-2.405 1.757l-.264-.407c.14-.506 1.455-4.38 6.982-3.314 2.58.47 3.786 2.685 3.989 3.093-.083.116-.17.236-.261.353a2.538 2.538 0 00-.749-.792 5.66 5.66 0 00-1.616-.789z" fill="#EAF7FC"/><path d="M166.273 51.733c.279.256.388.848.332 1.24-.096.534-.47.973-.978 1.147-.838.282-1.607-.386-1.755-.523-.201-.184-.86-.927-.919-.883a.142.142 0 00-.022.19c.022.027.546.693.76.89.1.09.204.174.314.25l-.405.467a.11.11 0 00-.04.007c-.07.023.262 1.764-.217 2.15a1.564 1.564 0 01-.495.264c-.906.309-2.256.086-3.064-.05l-.14-.024c-1.16-.19-1.99-.626-2.792-1.05-.17-.087-.337-.176-.504-.26a4.17 4.17 0 01-1.894-2.11 4.052 4.052 0 01-.235-1.273 3.662 3.662 0 01.151-1.103.707.707 0 01.271-.393c.032-.02.096-.06.162-.098.223-.127.436-.247.419-.424-.007-.063-.046-.15-.197-.2a1.926 1.926 0 01-.623-.41c-.112-.172-.353-.673.517-1.403.698-.59 1.117-.594 1.588-.4.069.03.13.076.181.133l.11.172c.063.164.086.341.065.516l-.05.333 3.49-1.363a7.36 7.36 0 00-.147 1.18l-.017.34 1.443-1.4.596-.203a60.323 60.323 0 011.855-.044h.363c-.083.133-.132.223-.14.233l-.124.237 1.41-.227.189.35c-.007.085-.02.168-.042.25l-.027.094.078.053-.3.047a.908.908 0 00-.567-.257.602.602 0 00-.434.199c-.165.188-.27.423-.3.673a1.79 1.79 0 00.023.96c.107.283.643.677 1.39 1.2.311.21.588.4.72.523zm-2.323.31a.142.142 0 00.049-.184 1.66 1.66 0 00-.747-.73c.201-.19.356-.589.356-1.369 0-.92-.669-1.786-1.186-1.786-.656 0-1.034.604-1.034 1.656 0 .883.688 1.656 1.471 1.656a.56.56 0 00.207-.036c.105.103.464.323.698.743a.14.14 0 00.116.07.138.138 0 00.07-.02zm-7.541-3.344c.078-.233.225-.62-.15-.766-.248-.096-.568-.032-.814.064-.245.096-.766.552-.787.964-.04.253.043.51.225.69a.81.81 0 00.613.245.322.322 0 00.3-.157c.17-.294-.337-1.11-.4-1.077a.142.142 0 00-.05.184c.155.283.28.653.22.756 0 .007-.012.024-.069.024a.555.555 0 01-.419-.162c-.198-.214-.152-.518-.148-.624.014-.282.337-.537.492-.599.187-.073.558-.133.744-.059.23.088-.017.59.053.616a.17.17 0 00.19-.099z" fill="#FBC4B1"/><path d="M166.5 46.156c-.053.07-.109.141-.165.216-.121-.257-.681-1.286-2.187-1.8a5.66 5.66 0 011.602.792c.304.206.56.476.75.792z" fill="#232323"/><path d="M165.819 49.421c.167.727.06.913-.14 1.074a.391.391 0 01-.21.044.968.968 0 01-.208-.023c.132-.162.129-.446-.022-.706a.683.683 0 00-.536-.386c-.06 0-.12.016-.172.047a.353.353 0 00-.124.13 1.19 1.19 0 01-.017-.19 1.2 1.2 0 01.25-.848.354.354 0 01.244-.117c.262.004.795.37.935.975z" fill="#FFF"/><path d="M164.928 56.072c.279 0 .518.297.518.66 0 .363-.233.657-.518.657-.285 0-.521-.294-.521-.657a.78.78 0 01.063-.313.522.522 0 01.458-.347z" fill="#232323"/><path d="M164.928 57.39l.14.483a1.354 1.354 0 01-.383.073c-.428.017-.778-.2-1.091-.39l-.06-.037a1.084 1.084 0 01-.405-.407c.134-.059.259-.135.373-.227a.99.99 0 00.313-.486l.655.024a.78.78 0 00-.063.314c.001.358.241.652.52.652z" fill="#FBC4B1"/><path d="M163.996 51.859a.142.142 0 01-.049.183.138.138 0 01-.065.02.14.14 0 01-.116-.07c-.24-.423-.6-.64-.698-.742a.564.564 0 01-.207.036c-.784 0-1.472-.773-1.472-1.656 0-1.052.378-1.656 1.035-1.656.516 0 1.185.866 1.185 1.786 0 .78-.155 1.177-.356 1.37.319.156.58.411.743.729zm-.916-2.363a.34.34 0 01.254.123c-.046-.733-.444-1.437-.768-1.437-.698 0-.846 1.033-.846 1.45 0 .737.494 1.389 1.137 1.389a.296.296 0 00.208-.086c-.247-.013-.432-.317-.432-.72 0-.402.193-.719.447-.719z" fill="#232323"/><path d="M163.334 49.619a.34.34 0 00-.254-.123c-.254 0-.445.31-.445.72s.184.706.431.719a.293.293 0 01-.208.086c-.642 0-1.137-.65-1.137-1.39 0-.423.153-1.449.847-1.449.324-.001.72.704.766 1.437z" fill="#FFF"/><path d="M162.693 58.417c.1.392-.131.936-.681 1.623a.139.139 0 01-.105.05.13.13 0 01-.082-.03c-.059-.05.652-1.398.613-1.57a.298.298 0 00-.14-.2.135.135 0 01-.064-.173.132.132 0 01.166-.075c.15.072.258.21.293.375zm-1.513.33a.143.143 0 01-.017.191s-2.063 1.61-2.095 1.58a.134.134 0 01.017-.19l1.903-1.6a.139.139 0 01.191.02z" fill="#232323"/><path d="M159.737 57.15a12.58 12.58 0 001.874.205c-1.976.677-3.575.67-4.764-.024-1.159-.676-1.601-1.85-1.745-2.357.33.328.706.604 1.117.817.165.084.33.173.497.26.821.433 1.676.878 2.876 1.077l.145.021z" fill="#F9AD99"/><path d="M156.804 48.038l-.116-.171c.049.05.088.107.116.17zm-.55-.105c.376.142.228.533.15.766a.17.17 0 01-.19.1c-.07-.024.177-.527-.054-.616-.19-.073-.558-.014-.744.06-.155.06-.478.31-.492.599 0 .106-.05.41.149.623.11.111.263.17.418.163.06 0 .069-.017.07-.025.06-.103-.065-.473-.22-.755a.142.142 0 01.05-.184c.063-.034.57.783.4 1.077a.322.322 0 01-.3.156.808.808 0 01-.614-.245.793.793 0 01-.225-.69c.023-.413.546-.868.788-.964.241-.096.567-.16.814-.065z" fill="#232323"/><path d="M147.357 63.029c.007.014.665 1.493.458 1.978-.152.366-.28.65-.448.707a.469.469 0 01-.383-.067c-.342-.186-.929-.81-1.078-2.07.455-.117 1.015-.292 1.44-.59 0 .015.004.03.01.042z" fill="#EAF7FC"/><path d="M147.37 62.596c.083.307-1.224.566-2.014.663-2.189.283-4.965-1.62-5.52-2.016l.995-1.12c.443.15.906.23 1.373.235.324-.01.647-.051.965-.12l.114-.023c1.225-.23 2.933-.67 2.975-.645.204.137.361.334.45.565l.054.117c.357.821.539 2.077.609 2.344zm-12.94-4.686c.283.37.633.683 1.031.922-.428-.013-2.082-.106-2.52-.82-.5-.813.02-2.307.592-2.684a.778.778 0 01.59-.133.37.37 0 01.242.196c.122.233.07.467 0 .79a2.802 2.802 0 00.064 1.728z" fill="#FBC4B1"/><path d="M133.622 53.877c.097.335.13.687.095 1.035a.081.081 0 000 .043 1.24 1.24 0 00-.335.152c-.547.356-1.038 1.546-.876 2.483a.13.13 0 00-.075-.037c-.014 0-.372-.05-.698-.61-.261-.457-.16-.964-.06-1.454.029-.142.058-.283.078-.424.08-.565 1.257-1.477 1.406-1.537.084-.029.35.052.465.349z" fill="#FBC4B1"/><path d="M132.265 53.029c.322.41.227.607.227.607a.114.114 0 00-.02.07v.012c-.418.366-.92.89-.977 1.313-.02.13-.046.263-.072.403a4.99 4.99 0 00-.106.677 1.003 1.003 0 01-.517-.918c-.013-.812.28-1.743.444-1.978a.975.975 0 01.652-.367.438.438 0 01.369.18z" fill="#FBC4B1"/><path d="M168.8 60.803s5.917.372 8.389-1.978c0 0-3.187 3.747-5.322 3.469-2.135-.278-2.71-.732-3.067-1.49zm-13.698-10.425s1.873 6.46 8.24 6.29c0 0-2.58 1.763-7.767-1.647 0 0-1.921-1.47-1.359-3.208 0 0-.064-1.326.886-1.435zm-14.624 10.144s4.34 1.738 6.65.91c0 0-.28-1.518-.869-1.858 0 0-1.917.49-2.653.582-.736.092-1.888.363-2.772-.031l-.356.397z" fill="#F9AD99"/><path d="M155.895 46.171s3.835-6.802 10.742-.202l.126-.174s-1.536-4.028-7.291-3.115c0 0-2.682.322-3.676 3.336l.1.155z" fill="#231F20" opacity=".1"/><path d="M149.513 68.215a10.18 10.18 0 00-1.554.178c-.525.098-1.043.232-1.55.4a8.735 8.735 0 00-1.662.757 6.777 6.777 0 00-1.094.835 8.26 8.26 0 00-.308.315c-.19.204-.364.42-.524.649a5.05 5.05 0 00-.385.644c-.114.205-.189.407-.267.58-.078.175-.123.337-.164.47l-.12.424h-.023s.02-.158.061-.435c.022-.142.068-.303.115-.493.027-.095.062-.193.097-.297a2.2 2.2 0 01.127-.324 4.995 4.995 0 01.898-1.383c.106-.109.211-.222.33-.322a4.02 4.02 0 01.362-.3c.253-.193.52-.368.797-.524a9.37 9.37 0 012.543-.935c.268-.054.518-.1.751-.142.52-.08 1.044-.118 1.569-.117l.001.02zm2.553 1.122s-.633.123-1.559.391a19.12 19.12 0 00-3.29 1.262c-.28.151-.558.305-.824.477a7.514 7.514 0 00-.743.539c-.12.087-.222.192-.33.282-.11.09-.199.2-.294.296a3.5 3.5 0 00-.448.613 2.742 2.742 0 00-.257.59c-.023.093-.05.18-.066.262l-.03.229a2.379 2.379 0 00-.012.326v.118h-.023l-.017-.116c-.02-.11-.03-.222-.031-.334v-.241c.007-.088.028-.181.043-.283a2.58 2.58 0 01.222-.647 3.72 3.72 0 01.443-.675 4.84 4.84 0 01.641-.625c.248-.197.51-.376.782-.536.28-.166.566-.313.858-.456 1.077-.499 2.2-.89 3.351-1.169.94-.233 1.577-.332 1.577-.332l.007.029zm4.673.504c-.664.084-1.322.201-1.974.352-1.17.263-2.727.69-4.16 1.397-.356.175-.703.37-1.039.581-.322.205-.63.43-.923.676a6.63 6.63 0 00-.772.733 5.09 5.09 0 00-.573.763c-.14.23-.262.472-.362.724a2.01 2.01 0 00-.113.32l-.083.283c-.044.17-.06.308-.08.401l-.028.142h-.03v-.142a3.854 3.854 0 01.17-1.05 4.11 4.11 0 01.32-.785 5.305 5.305 0 01.93-1.234 5.02 5.02 0 01.418-.381c.31-.25.636-.476.978-.676.35-.205.71-.391 1.078-.558.369-.17.744-.322 1.117-.456.373-.135.747-.253 1.118-.36a20.523 20.523 0 012.01-.47 19.76 19.76 0 011.99-.275l.008.015zm8.724-2.086c.172.44.308.894.405 1.357a8.71 8.71 0 01.14 3.12c-.04.286-.099.57-.174.848-.036.141-.082.271-.124.404l-.157.383a5.772 5.772 0 01-.373.685l-.208.295a5.246 5.246 0 01-.616.685c-.13.115-.24.22-.342.292-.2.141-.315.227-.315.227l-.018-.022s.095-.106.265-.283c.084-.089.176-.206.29-.33.115-.125.224-.283.344-.451.059-.085.123-.173.183-.266l.177-.295c.056-.105.112-.212.172-.32.06-.107.108-.226.163-.343l.154-.362c.042-.125.095-.25.14-.38a6.6 6.6 0 00.205-.8c.1-.537.143-1.084.128-1.63a9.922 9.922 0 00-.14-1.43 8.396 8.396 0 00-.332-1.365l.033-.019zm-2.55 4.887c.023.135.023.274 0 .41-.046.301-.154.59-.317.847-.08.142-.174.276-.28.4a1.593 1.593 0 01-.595.399.978.978 0 01-.107.038l-.017-.024c.02-.033.04-.065.063-.096.038-.064.106-.142.177-.23.071-.087.164-.191.259-.297.108-.102.211-.21.308-.324.095-.116.18-.241.252-.373a2.39 2.39 0 00.155-.363 1.35 1.35 0 00.065-.383l.037-.004zm-.185-3.297a4.914 4.914 0 01.797 1.365c.075.185.132.378.17.574.013.093.018.188.015.282a1.94 1.94 0 01-.025.25c-.017.077-.035.142-.052.207a.914.914 0 01-.066.15c-.02.042-.042.083-.067.123l-.027-.009v-.294c0-.06-.01-.123-.013-.193-.003-.071-.018-.142-.024-.225l-.044-.252-.034-.268c-.015-.092-.035-.184-.056-.283a5.744 5.744 0 00-.37-.989c-.127-.261-.229-.424-.229-.424l.025-.014z" fill="#232323"/><path d="M152.055 72.792s.32-.268.83-.634a17.146 17.146 0 011.95-1.218c.182-.104.373-.192.559-.282.185-.09.375-.167.558-.246.183-.08.369-.124.544-.175.174-.051.346-.077.5-.108.156-.03.305-.03.432-.045.111-.011.223-.011.334 0 .185.009.288.02.288.02v.03s-.103.024-.28.055c-.087.018-.195.03-.316.066-.122.037-.257.065-.404.108l-.47.15c-.164.067-.341.12-.519.19-.177.07-.366.141-.558.212-.193.07-.379.153-.559.243a20.35 20.35 0 00-1.997 1.094c-.53.328-.869.565-.869.565l-.023-.025zm7.651-2.458c.162.084.318.178.468.283.068.044.14.097.216.152.077.056.151.122.23.187.166.143.317.302.452.475l.103.141.09.141c.058.098.105.202.14.311.025.106.04.215.043.324a1.759 1.759 0 01-.045.29c-.032.084-.067.16-.096.223a.924.924 0 01-.112.141c-.033.04-.068.078-.105.115l-.024-.017s.013-.058.04-.142c.01-.046.033-.097.043-.158.01-.06.014-.131.026-.203.013-.073-.008-.153-.007-.234.002-.08-.032-.166-.053-.254a2.564 2.564 0 00-.092-.27l-.06-.141-.078-.133a3.245 3.245 0 00-.377-.486 7.142 7.142 0 00-.394-.379 5.526 5.526 0 00-.419-.335l.011-.03zm-.343-.035s-.28.109-.67.31a16.81 16.81 0 00-.66.364c-.241.14-.484.298-.725.465-.116.089-.236.172-.346.265-.11.094-.222.179-.321.272-.1.093-.208.167-.3.251-.093.085-.186.157-.266.232l-.219.204c-.067.062-.117.12-.165.163-.09.092-.15.142-.15.142l-.023-.016s.03-.069.09-.188a1.95 1.95 0 01.117-.212c.051-.076.111-.162.18-.254.068-.092.155-.18.243-.283.094-.1.194-.195.3-.282.234-.181.479-.347.733-.498.259-.15.521-.296.773-.424.25-.127.491-.223.698-.306.419-.163.698-.245.698-.245l.013.04z" fill="#232323"/><path d="M151.394 61.816s-5.515 5.744 4.138 7.645c0 0-2.146-.335-3.14-.244-.992.09-4.626-.98-3.736-4.432-.002.002.128-1.317 2.738-2.969zm15.811-1.205s1.356 5.67-3.516 8.115c0 0-2.663 1.807-4.648 1.287 0 0 7.455-1.96 8.164-9.402zm-20.935-1.355s1.936-.59 5.008-4.779c3.073-4.19 2.54-3.715 3.03-3.808a2.547 2.547 0 00-.37 1.968c.255 1.14-3.65 4.098-3.65 4.098s-3.212 3.496-2.734 5.262c.001 0-.354-2.478-1.284-2.741zm22.53-5.827s2.095 1.726 1.008 3.956l2.059-2.419a4.698 4.698 0 01-1.117-1.272c-.42-.737-.382-1.35-1.955-1.47l.005 1.205z" fill="#EAF7FC"/><path fill="#818389" d="M172.375 103.418h-37.75l-4.719 28.204h47.188z"/><path d="M181.813 122.22h-56.625c-5.212 0-9.438 4.208-9.438 9.402h75.5c0-5.194-4.226-9.401-9.438-9.401z" fill="#AFB0B5"/><g transform="translate(213 82)"><path d="M30.227 7.812H4.773c-.878 0-1.591.7-1.591 1.562l1.59 39.06c0 .862.713 1.562 1.592 1.562h22.272c.879 0 1.591-.7 1.591-1.562l1.591-39.06c0-.862-.713-1.562-1.59-1.562z" fill="#E3E4E8"/><path d="M31.818 15.624H3.182c-.878 0-1.591.7-1.591 1.563l1.59 18.747c0 .863.714 1.563 1.592 1.563h25.454c.878 0 1.591-.7 1.591-1.563l1.591-18.747c0-.864-.713-1.563-1.59-1.563z" fill="#FF6C50"/><ellipse fill="#E65A40" cx="17.5" cy="26.561" rx="6.364" ry="6.25"/><path d="M33.41 6.25H1.59C.714 6.25 0 6.95 0 7.811c0 .862.713 1.562 1.59 1.562h31.82c.877 0 1.59-.7 1.59-1.562 0-.863-.713-1.563-1.59-1.563z" fill="#E65A40"/><path d="M30.227 3.125L4.773 0c-.878 0-1.591.7-1.591 1.563v4.686h28.636V4.687c0-.862-.713-1.562-1.59-1.562z" fill="#FF6C50"/></g></g></svg>