<svg width="40" height="40" fill="none" xmlns="http://www.w3.org/2000/svg"><path d="M20.018 29v-1.948c-2.104-.117-3.776-.883-5.018-2.299l1.074-1.379c1.066 1.197 2.38 1.883 3.944 2.058v-5.341a22.796 22.796 0 01-1.359-.394c-.336-.117-.73-.285-1.183-.503-.453-.234-.81-.482-1.074-.745a3.477 3.477 0 01-.679-1.007 3.524 3.524 0 01-.263-1.4c0-1.124.424-2.058 1.271-2.802.847-.745 1.943-1.153 3.287-1.226V10h1.337v2.036c1.767.175 3.206.839 4.316 1.992l-1.095 1.335c-.862-.92-1.936-1.474-3.221-1.664v4.75c.686.19 1.256.38 1.709.57.453.175.927.43 1.424.766.511.32.891.736 1.14 1.247.248.496.372 1.08.372 1.751 0 1.11-.38 2.073-1.14 2.89-.76.802-1.928 1.262-3.505 1.379V29h-1.337zm4.098-6.063c0-.657-.241-1.168-.724-1.533-.467-.364-1.146-.678-2.037-.94v4.968c.95-.102 1.643-.394 2.081-.876.453-.481.68-1.021.68-1.62zm-6.771-7.005c0 .555.226.992.679 1.313.453.307 1.117.591 1.994.854v-4.465c-.789.058-1.432.299-1.928.722a1.949 1.949 0 00-.745 1.576z" fill="#6CAD84"/><circle cx="20" cy="20" r="19" stroke="#6CAD84" stroke-width="2"/></svg>