<svg width="95" height="62" xmlns="http://www.w3.org/2000/svg"><g fill="none" fill-rule="evenodd"><path d="M64.75 13.5h-17.5v-1.25a1.25 1.25 0 00-2.5 0v1.25h-17.5c-.69 0-1.25.56-1.25 1.25v2.5c0 .69.56 1.25 1.25 1.25h17.5v22.509a1.19 1.19 0 00-.803.347l-7.591 7.591a1.2 1.2 0 101.697 1.697l6.697-6.697V48.5a1.25 1.25 0 102.5 0v-4.552l6.697 6.696a1.2 1.2 0 101.697-1.696l-7.592-7.592a1.192 1.192 0 00-.802-.348V18.5h17.5c.69 0 1.25-.56 1.25-1.25v-2.5c0-.69-.56-1.25-1.25-1.25z" fill="#666"/><path d="M27.25 18.5V41a2.5 2.5 0 002.5 2.5h32.5a2.5 2.5 0 002.5-2.5V18.5h-37.5z" fill="#CCC" fill-rule="nonzero"/><path d="M29.75 18.5v21.25c0 .69.56 1.25 1.25 1.25h30c.69 0 1.25-.56 1.25-1.25V18.5h-32.5z" fill="#FFF" fill-rule="nonzero"/><path d="M54.951 23.52a1.359 1.359 0 00-.58-.02H49.75a1.25 1.25 0 000 2.5h1.79l-4.29 4.29-2.668-2.667a1.343 1.343 0 00-1.082-.386 1.345 1.345 0 00-1.083.385l-6.044 6.044a1.355 1.355 0 101.917 1.918l5.21-5.209 2.71 2.71c.285.285.666.411 1.04.389.374.022.754-.104 1.04-.39l5.21-5.209v1.875a1.25 1.25 0 002.5 0v-5c0-.621-.455-1.133-1.049-1.23z" fill="#4192C8"/></g></svg>