<svg width="152" height="52" xmlns="http://www.w3.org/2000/svg"><path d="M120.874 5.111l12.645-2.268v48.633h-12.645V5.111zm18.468 0v46.365H152V2.843l-12.658 2.268zm-36.485 46.365h12.656v-35.57h-12.656v35.57zm-83.62-30.54c-1.6-.105-5.303-.344-5.303-3.683 0-4.029 5.331-4.029 7.33-4.029 3.517 0 8.07 1.04 11.32 2.014 0 0 1.815.64 3.358 1.297l.144.04V5.54l-.197-.058c-3.837-1.344-8.3-2.639-16.572-2.639C5.054 2.843 0 11.166 0 18.296c0 4.11 1.759 13.782 18.094 14.898 1.385.085 5.06.297 5.06 3.748 0 2.848-3.009 4.528-8.069 4.528-5.546 0-10.926-1.417-14.193-2.76v11.364C5.784 51.358 11.298 52 17.761 52c13.946 0 20.193-7.874 20.193-15.679 0-8.849-6.99-14.598-18.717-15.385zm76.49-5.551c-11.696.376-17.632 5.63-17.632 16.078v20.013h12.758v-16.32c0-6.256.818-8.938 8.229-9.193V15.57c-1.246-.266-3.356-.184-3.356-.184zm-34.327.48c-.28.71-2.307 6.441-7.207 12.383V2.843L41.136 5.43v46.047h13.057V37.242c3.781 5.681 5.649 14.234 5.649 14.234h15.64c-1.548-6.441-8.315-18.319-8.315-18.319 6.074-7.712 8.741-15.93 9.165-17.292H61.4zm47.782-3.372a6.242 6.242 0 006.239-6.245A6.244 6.244 0 00109.182 0c-3.442 0-6.234 2.798-6.234 6.248 0 3.449 2.792 6.245 6.234 6.245z" fill="#FFF" fill-rule="evenodd"/></svg>