<svg width="225" height="39" xmlns="http://www.w3.org/2000/svg"><path d="M209.486 16.896c-1.274.888-3.123 1.327-5.653 1.327h-2.509l1.924-10.391h1.845c2.1 0 3.634.338 4.691 1.024.826.538 1.805 1.603 1.805 3.624 0 2.435-1.139 3.745-2.103 4.416zM59.814 29.937H40.397l1.255-6.792h12.179l1.384-7.65H43.153l1.166-6.722h19.383l-3.888 21.164zM219.946 2.943C217.091.986 212.771 0 207.107 0h-14.834l-5.514 29.938h-19.432l1.246-6.792h11.707l1.392-7.629-11.7.021 1.253-6.763h12.056l1.604-8.774h-24.49l-5.234 28.401h-8.98L151.453.001H138.65l-5.234 28.401h-8.756L129.937.001h-12.79l-5.528 29.938h-19.57l1.233-6.792h11.76l1.385-7.585-11.742-.011 1.247-6.776h12.19l1.596-8.774H33.421l-4.343 23.725L20.426 0H7.147L0 38.717h12.681l4.325-24.377 8.397 24.377h45.452L76.38 8.774h7.112l-5.528 29.943h119.598l3.464-18.903 5.615 18.903h12.688l-5.813-15.445 1.327-.287c2.924-.626 5.213-1.975 6.801-3.996 1.591-2.04 2.399-4.659 2.399-7.805.001-3.664-1.337-6.358-4.097-8.241z" fill="#83BA3B" fill-rule="evenodd"/></svg>