<svg width="141" height="49" xmlns="http://www.w3.org/2000/svg"><path d="M137.78 16.896l-5.64-5.913h-10.476V3.38H112.8v34.639h8.864V20.275h7.25v17.743h8.866V16.896zm-28.201-5.913H95.881l-5.64 5.913v15.206l5.64 5.916h13.698v-9.293H99.103v-8.45h10.476v-9.292zm-22.561 0h-7.25V3.38h-8.865v28.723l5.64 5.916h10.475v-9.293h-7.25v-8.45h7.25v-9.292zM67.68 3.38h-8.862v4.225h8.862V3.38zm0 7.604h-8.862v27.034h8.862V10.983zm-12.085 0h-8.863v17.742H43.51V10.983h-8.864v17.742h-3.221V10.983H22.56v27.035h27.396l5.639-5.916V10.983zm-36.258 0h-7.25V3.38H3.222v28.723l5.64 5.916h10.474v-9.293h-7.25v-8.45h7.25v-9.292zM141 15.206V40.55L128.915 49h-8.057v-4.226L115.218 49h-7.25v-4.226L103.94 49H91.048l-4.03-4.226L86.211 49H74.933l-4.612-4.226L70.062 49H57.278l-.452-4.226L53.366 49H33.84l-4.03-1.69V49H19.338L7.251 41.394 0 33.794V0h15.31l7.25 7.604h33.035V0h27.394v7.604h7.252v4.223l4.03-4.223h8.055L109.58 0h15.308v7.604h8.864L141 15.206z" fill="#FFF" fill-rule="evenodd"/></svg>