<svg width="91" height="83" xmlns="http://www.w3.org/2000/svg"><g fill="none" fill-rule="evenodd"><path d="M85.064 32.031c1.215 0 3.555 5.445 4.104 7.234.381 1.218-.027 4.055-1.364 5.197a14.27 14.27 0 01-1.646 1.241c-.096.08-.218.073-.347.187-.21.183-.19.533-.164 1.016a5.35 5.35 0 01-.614 2.186 19.52 19.52 0 01-4.912 5.947c-2.98 2.444-5.259 3.891-9.615 1.763-1.905-.918-1.722-4.059-.122-5.33-.005.112-.02.224-.045.334-.256.956.465 1.6.548 1.523a.22.22 0 000-.304c-.274-.26-.182-.743-.114-1.142.033-.148.05-.298.053-.45a25.154 25.154 0 011.967-2.878c1.196-1.523 2.831-3.225 4.596-3.994 1.764-.769 2.286-.761 2.488-.761.286 0 .336-.084.564-.412.084-.118.195-.281.355-.498 1.22-1.664 1.284-2.072.575-3.629-.408-.902-.259-1.82.118-2.189a.503.503 0 01.621-.091c.744.38 1.906 3.175 2.024 3.137a.217.217 0 00.137-.27c-.095-.278-.93-2.745-1.97-3.256-.183-.091 0-.114-.183-.091 0 0-.667-1.946.103-2.635.305-.27.762-.32 1.357-.148.38.114 1.22 1.622 1.524 2.189l.118.213.274.484a17.693 17.693 0 011.525 3.175c.316.952.084 1.683.187 1.74a.213.213 0 00.286-.095c0-.027.312-.64-.065-1.782a18.458 18.458 0 00-1.56-3.255l-.273-.48-.119-.21a9.87 9.87 0 00-1.105-1.8c0-.335-.24-1.238-.05-1.523a.892.892 0 01.744-.343z" fill="#FBC4B1"/><path d="M72.606 58.652c-.156.423-1.189 1.081-1.787 1.081a.84.84 0 01-.301-.057 1.38 1.38 0 01-.656-.544 2.59 2.59 0 01-.213-1.283l2.957.803z" fill="#EAF7FC"/><path d="M58.746 51.16a.213.213 0 00.11.277.476.476 0 01.23.32c.06.274-1.083 2.421-.992 2.501a.215.215 0 00.301-.034c.888-1.093 1.258-1.96 1.098-2.585a.86.86 0 00-.473-.598.213.213 0 00-.274.118zm-15.194-9.416a9.976 9.976 0 012.413-2.445 2.854 2.854 0 00-.233.53 6.985 6.985 0 00-.35 1.865c-.07.707-.004 1.42.194 2.102a5.885 5.885 0 001.082 1.747c.02.118.576 3.233 3.178 4.74a7.143 7.143 0 003.628.895c1.49 0 3.69-.278 5.495-1.29.284-.035.565-.093.839-.176v.039c.194.348.48.636.827.833l.095.057c.56.4 1.22.637 1.906.686h.083c1.205-.035 2.18-.674 2.287-1.386.057-.38.259-.61 1.23-1.34a6.813 6.813 0 002.005-2.285c.137-.232.282-.464.458-.73.663-1.01.804-2.73.61-3.785a4.396 4.396 0 012.476 1.142 2.8 2.8 0 01.675 1.176c.259.915.925 1.66 1.806 2.018a25.202 25.202 0 00-4.013 4.897c-.284.055-.544.2-.739.415a8.967 8.967 0 00-.823 1.123l-.172.259c-.838 1.23-.026 5.048.218 6.091h-1.19a.16.16 0 00-.072 0c-.042-1.29-.16-5.033-.228-5.634-.088-.762-1.04-1.813-1.079-1.855a.217.217 0 00-.305 0c-.087.084.71 1.04.762 1.961.058.697.267 4.569.187 6.092a8.75 8.75 0 01-.838 3.918c-1.582 3.263-5.061 4.77-5.82 5.113-.632.285-2.583 1.268-3.719 1.428-1.135.16-4.009.335-5.636-.13a31.425 31.425 0 00-7.336-.955c-2.15.03-5.106-.827-6.55-3.678a.057.057 0 000-.023 4.466 4.466 0 01-.107-3.13c.044-.228.111-.452.202-.666.56-1.078 1.49-2.205 4.71-4.622a8.36 8.36 0 001.257-1.066h1.776l2-1.904a.217.217 0 000-.305c-.083-.083-2.179 1.798-2.179 1.798h-1.296c.051-.087.102-.18.153-.282a9.51 9.51 0 001.052-5.624c-.172-1.294-1.468-2.162-1.525-2.196a.21.21 0 00-.297.06c-.065.1 1.242 1.09 1.391 2.193.305 2.285-.145 4.112-1.014 5.376-.869 1.264-1.242 1.26-2.286 2.003-1.525 1.089-3.361 2.422-4.032 4.04h-.716c-.187-.762-1.033-4.268-1.975-6.343a1.979 1.979 0 00-.099-.202c-.308-.647-.628-1.142-.937-1.287h-.038c.941-.472 2.016-.982 2.736-1.641a40.686 40.686 0 005.846-6.602c.67-.986 1.452-2.242 2.027-3.015zm13.472 10.733a.217.217 0 00-.275-.332l-3.071 2.547a.213.213 0 00-.027.301c.042.05 3.369-2.516 3.369-2.516h.004z" fill="#FFF"/><path d="M67.023 63.16c.324 1.093.576 2.772.629 5.711.069 4.158-.762 7.668-1.764 9.408-.95 1.652-1.04 1.827-1.715 2.117-.515.217-3.163-.305-5.755-2.231a13.105 13.105 0 01-2.145-1.98 4.186 4.186 0 01-.446-.925.195.195 0 00.05 0l2.317.106 4.031-2.257a.213.213 0 00.092-.267c-.358.057-4.192 1.942-4.192 1.942l-2.409.053h-.019s-14.286-.99-14.344-.35c-.057.64.713.262 1.296.658l.156.11c.417.3.79.656 1.105 1.06-.057.06-.3.235-1.337.243a29.995 29.995 0 00-4.878.411h-.05l-.038.03c-3.73 2.84-6.166 1.668-7.103.975a3.498 3.498 0 01-.461-.38 3.41 3.41 0 00-.038-.762 1.39 1.39 0 00-.465-.46 5.136 5.136 0 00-1.906-.815 8.547 8.547 0 01-3.285-1.523 6.096 6.096 0 01-1.204-1.074c-.107-.164-.38-.99.625-2.406 1.19-1.66 3.51-4.055 5.206-5.075l7.663.179a.057.057 0 000 .022h.027c.33.809.899 1.497 1.631 1.973a9.701 9.701 0 005.084 1.63h.087c2.432.028 4.852.343 7.21.936 1.306.306 2.646.448 3.987.422a14.64 14.64 0 001.878-.099c1.071-.152 2.634-1.009 3.811-1.359 1.654-.495 5.614-3.3 6.52-5.734.025-.069.055-.136.088-.201 0-.027 0-.061.03-.126l.024.084s0-.023.007-.046zM48.03 31.654c-.785-.38-3.685-1.999-4.283-4.42-.313-1.276.057-2.597 1.105-3.933.613-.78 1.303-1.2 2.046-1.234 1.227-.06 2.512.69 2.668.785a3.211 3.211 0 00-.332-.301 4.284 4.284 0 00-.857-.564c-.122-.407-.625-2.341.286-3.837.579-.96 1.634-1.565 3.128-1.794 2.554-.38 3.556.08 3.948.541.235.285.333.657.27 1.02a6.309 6.309 0 00-.986 2.665v.039c.356-.829.777-1.628 1.257-2.391a4.304 4.304 0 011.11-1.192c1.112-.815 2.606-1.028 4.431-.632 1.681.38 2.828 1.123 3.404 2.258 1.04 2.067-.138 4.724-.15 4.751l.1-.099a4.859 4.859 0 00.873-2.78 4.59 4.59 0 012.728 2.769c.64 2.029-.183 4.671-2.465 7.88-.542-1-2.577-4.237-6.612-4.949-8.735-1.66-11.238 4.177-11.669 5.418z" fill="#FFF"/><path d="M65.632 32.107l-.266.343c-.195-.411-1.098-2.048-3.53-2.867.926.29 1.803.715 2.603 1.26.485.33.892.762 1.193 1.264zm-1.696 16.848a.86.86 0 11-1.676 0 1.222 1.222 0 01.103-.499.842.842 0 01.739-.552.963.963 0 01.834 1.05z" fill="#232323"/><path d="M63.098 50.002a1.078 1.078 0 000-2.098.842.842 0 00-.74.552l-1.055-.038c.358-1.142-.126-2.76-.148-2.844a.213.213 0 00-.206-.152l.651-.743a3.57 3.57 0 001.952.651c.272 0 .542-.043.8-.13 1.65-.544 1.78-1.522 1.856-2.082v-.091c.11-.762-.092-1.824-.667-2.353a13.41 13.41 0 00-1.182-.864l-.407-.286a.988.988 0 00.61-.168c.468-.38.506-.841.358-1.614a8.56 8.56 0 00-.11-.491 2.897 2.897 0 00-.885-1.523l.484-.072c.201.14.395.291.58.453l.297.54c.05.28.085.562.102.846v.144l.141.046c.34.102.668.237.98.404.286.22.731 1.142.945 1.69v.034l.027.027c.44.48.85.99 1.227 1.523.327.628.38 2.79-.381 3.975-.18.27-.324.506-.465.742a6.333 6.333 0 01-1.906 2.163c-.96.723-1.307 1.028-1.398 1.618-.042.278-.633.7-1.258.906l-.202-.765z" fill="#FBC4B1"/><path d="M62.264 37.597a1.89 1.89 0 01-.027-.3 1.902 1.902 0 01.404-1.344.576.576 0 01.38-.187c.412 0 1.274.583 1.499 1.55.27 1.142.099 1.454-.218 1.713a.64.64 0 01-.339.069 1.72 1.72 0 01-.331-.035c.22-.352.207-.803-.035-1.142a1.101 1.101 0 00-.865-.613.557.557 0 00-.278.072.564.564 0 00-.19.217z" fill="#FFF"/><path d="M62.256 48.955a.963.963 0 00.842 1.047l.236.761c-.2.067-.407.106-.617.118a3.2 3.2 0 01-1.76-.62l-.1-.057a1.74 1.74 0 01-.651-.648c.216-.1.419-.227.602-.38.239-.2.414-.464.503-.762l1.055.038c-.072.158-.11.33-.11.503z" fill="#FBC4B1"/><path d="M64.535 37.316c-.229-.971-1.086-1.55-1.498-1.55a.576.576 0 00-.381.187c-.301.38-.445.86-.404 1.344 0 .1.01.201.027.3a.564.564 0 01.198-.205.557.557 0 01.278-.072c.374.043.7.274.865.613.242.338.255.79.034 1.142.11.022.22.033.332.034a.64.64 0 00.34-.069c.304-.27.495-.567.209-1.724zm.05 2.044a.988.988 0 01-.61.168l.407.285c.41.267.804.555 1.182.865.579.529.762 1.606.667 2.353v.09c-.08.576-.206 1.524-1.856 2.084-.258.085-.529.13-.8.129a3.57 3.57 0 01-1.952-.651 4.824 4.824 0 01-.503-.38c-.347-.317-1.193-1.375-1.227-1.42a.217.217 0 01.034-.306c.096-.068 1.144 1.112 1.483 1.405.24.217 1.486 1.276 2.831.834a2.38 2.38 0 001.586-1.824c.091-.635-.092-1.572-.538-1.976-.213-.194-.659-.498-1.143-.83-1.204-.833-2.07-1.454-2.24-1.903a2.819 2.819 0 01-.039-1.523c.05-.398.218-.77.484-1.07a.976.976 0 01.701-.316c.344.026.668.172.915.411.446.404.755.936.884 1.523.042.175.08.339.11.491.13.72.092 1.177-.377 1.561z" fill="#232323"/><path d="M59.394 38.572c0 .64.297 1.142.697 1.142a.477.477 0 01-.335.137c-1.037 0-1.833-1.035-1.833-2.212 0-.662.248-2.31 1.364-2.31.526 0 1.166 1.122 1.239 2.284a.549.549 0 00-.412-.194c-.411.011-.72.502-.72 1.153z" fill="#FFF"/><path d="M58.853 51.437a.213.213 0 01.164-.38.86.86 0 01.472.597c.16.625-.21 1.493-1.097 2.585a.221.221 0 01-.168.08.214.214 0 01-.133-.045c-.096-.08 1.051-2.228.99-2.502a.476.476 0 00-.228-.335zm1.238-11.719c-.38-.019-.697-.502-.697-1.142 0-.64.309-1.142.72-1.142a.549.549 0 01.412.194c-.073-1.169-.717-2.284-1.239-2.284-1.12 0-1.364 1.644-1.364 2.31 0 1.177.796 2.213 1.833 2.213a.477.477 0 00.335-.149zm-.335.564c-1.261 0-2.374-1.23-2.374-2.639 0-1.675.61-2.638 1.669-2.638.835 0 1.905 1.378 1.905 2.844 0 1.241-.251 1.877-.575 2.181.513.243.935.644 1.204 1.143a.213.213 0 01-.08.293.217.217 0 01-.107.03.213.213 0 01-.186-.11 4.48 4.48 0 00-1.144-1.184.92.92 0 01-.312.06v.02zM57.02 52.477s-3.327 2.566-3.373 2.516a.213.213 0 01.027-.3l3.071-2.548a.217.217 0 01.275.332z" fill="#232323"/><path d="M50.057 49.91a6.385 6.385 0 01-2.816-3.754 7.378 7.378 0 001.806 1.302c.267.134.534.275.8.415a14.532 14.532 0 004.639 1.718l.232.034a20.58 20.58 0 003.022.327c-3.182 1.074-5.766 1.063-7.683-.042z" fill="#F9AD99"/><path d="M49.909 34.262l-.846-1.294c.072-.328.571-1.873 3.502-3.118l.107-.103c-2.535 1.077-3.617 2.12-3.884 2.794l-.426-.655c.236-.803 2.347-6.967 11.26-5.28 4.162.761 6.098 4.283 6.433 4.926-.133.183-.274.381-.423.564a4.064 4.064 0 00-1.193-1.253 9.862 9.862 0 00-2.583-1.26c2.427.822 3.33 2.46 3.529 2.867-.126.16-.256.316-.381.476a3.523 3.523 0 00-.21-.213 5.593 5.593 0 00-.381-.328c-1.117-.841-3.403-2.021-7.698-1.858-4.73.183-6.15 2.498-6.574 3.72l-.232.015z" fill="#EAF7FC"/><path d="M49.813 34.833a.949.949 0 01.176.275l-.176-.275zm-3.284 1.744c.034-.655.88-1.382 1.272-1.523a1.949 1.949 0 011.311-.103c.606.233.381.85.244 1.219a.274.274 0 01-.309.16c-.114-.038.286-.842-.087-.983a2.105 2.105 0 00-1.2.096 1.334 1.334 0 00-.793.951c-.064.35.023.712.24.994a.89.89 0 00.682.259c.095 0 .11-.027.114-.038.1-.164-.106-.762-.354-1.203a.217.217 0 01.084-.293c.103-.054.918 1.245.644 1.717a.518.518 0 01-.484.251c-.37.018-.73-.12-.991-.38a1.252 1.252 0 01-.373-1.124z" fill="#232323"/><path d="M60.964 37.849c0-1.466-1.078-2.844-1.905-2.844-1.06 0-1.67.96-1.67 2.638 0 1.405 1.11 2.639 2.375 2.639a.92.92 0 00.331-.057c.451.32.839.722 1.143 1.184.038.068.11.11.187.11a.217.217 0 00.107-.03.213.213 0 00.08-.294 2.672 2.672 0 00-1.204-1.142c.304-.327.556-.96.556-2.204zm-14.435-1.272c-.06.406.082.816.38 1.097.262.26.622.399.991.38a.518.518 0 00.484-.25c.275-.47-.545-1.771-.644-1.718a.217.217 0 00-.083.293c.251.45.453 1.04.354 1.203 0 0-.02.038-.114.038a.892.892 0 01-.683-.259 1.26 1.26 0 01-.24-.993c.093-.428.389-.784.793-.952.382-.148.8-.181 1.2-.095.382.14-.026.94.088.982a.274.274 0 00.309-.16c.126-.38.38-.99-.244-1.218a1.949 1.949 0 00-1.311.103c-.412.163-1.254.89-1.28 1.55zm-.412.921c-.18-.274-.572-1.07.835-2.234 1.143-.94 1.798-.945 2.56-.636a.857.857 0 01.31.205l.174.274c.104.261.14.544.107.823l-.084.533 5.636-2.174c-.13.62-.211 1.248-.24 1.88l-.026.545 2.328-2.23.96-.325c1.056-.034 2.188-.068 2.992-.068h.587c-.133.21-.21.354-.217.38l-.198.381 2.286-.38.305.56c-.01.128-.032.255-.065.38l-.042.149.126.087-.484.072a1.475 1.475 0 00-.915-.41.976.976 0 00-.7.315c-.267.3-.436.673-.485 1.07a2.819 2.819 0 00.038 1.523c.172.457 1.037 1.078 2.241 1.904.473.327.918.632 1.143.83.446.407.625 1.34.538 1.976a2.38 2.38 0 01-1.586 1.823c-1.345.442-2.591-.613-2.831-.833-.324-.294-1.387-1.478-1.483-1.405a.217.217 0 00-.034.304c.034.042.88 1.1 1.227 1.42.16.138.327.265.503.381l-.651.743a.175.175 0 00-.061 0c-.115.034.423 2.81-.35 3.426-.239.188-.509.33-.797.423-1.464.491-3.64.137-4.955-.08l-.236-.038a13.968 13.968 0 01-4.523-1.595c-.275-.141-.545-.282-.812-.415a6.673 6.673 0 01-3.049-3.366 6.384 6.384 0 01-.38-2.022 5.763 5.763 0 01.243-1.759c.07-.252.225-.472.438-.624.05-.03.157-.1.263-.156.359-.202.705-.381.679-.678 0-.103-.073-.24-.317-.32a3.114 3.114 0 01-1.006-.659h.008z" fill="#FBC4B1"/><path d="M32.406 59.874a7.431 7.431 0 002.309-.955c.003.017.01.034.019.05 0 .022 1.07 2.379.74 3.155-.248.583-.447 1.036-.725 1.143a.763.763 0 01-.617-.107c-.538-.286-1.486-1.28-1.726-3.286z" fill="#EAF7FC"/><path d="M32.973 53.478c.329.217.583.53.728.895l.088.186c.575 1.314.869 3.313.983 3.739.133.487-1.974.895-3.25 1.055-3.533.449-8.003-2.582-8.907-3.214l1.609-1.785c.713.241 1.46.37 2.214.38a8.822 8.822 0 001.555-.19l.182-.034c1.967-.373 4.73-1.074 4.798-1.032z" fill="#FBC4B1"/><path d="M59.623 26.617c-8.903-1.69-11.029 4.474-11.261 5.27l.426.647c.267-.674 1.35-1.717 3.884-2.795l-.107.103c-2.93 1.245-3.43 2.79-3.502 3.118l.846 1.295h.232c.423-1.223 1.845-3.537 6.574-3.72 4.295-.171 6.581 1.009 7.66 1.831.152.122.278.232.38.328.088.083.157.152.21.213.13-.16.26-.316.381-.476l.267-.343c.149-.186.29-.38.423-.563-.305-.625-2.252-4.162-6.413-4.908zm-3.613-8.684a1.267 1.267 0 00-.27-1.02c-.382-.461-1.392-.926-3.949-.541-1.494.232-2.55.833-3.128 1.793-.911 1.496-.408 3.426-.286 3.838.306.148.594.332.857.548.118.092.228.193.332.3-.156-.098-1.44-.848-2.668-.784-.743.035-1.433.453-2.046 1.234-1.048 1.336-1.422 2.665-1.105 3.933.598 2.418 3.498 4.02 4.283 4.42.43-1.237 2.938-7.078 11.665-5.418 4.036.724 6.074 3.96 6.612 4.95 2.286-3.21 3.106-5.852 2.465-7.881a4.59 4.59 0 00-2.728-2.768c0 .994-.304 1.964-.873 2.78l-.099.098c0-.027 1.19-2.684.149-4.751-.576-1.143-1.723-1.904-3.403-2.258-1.826-.38-3.316-.183-4.432.632a4.315 4.315 0 00-1.106 1.2c-.48.762-.9 1.562-1.257 2.39v-.038a6.31 6.31 0 01.983-2.661l.004.004zM40.927 43.784c.659-.94 1.288-1.83 1.867-2.615a10.102 10.102 0 012.706-2.665 3.71 3.71 0 01.705-.335h.03a3.848 3.848 0 01-.438-.381l-.206-.236s-.716-1.142 1.082-2.623c.211-.178.434-.341.667-.488a2.288 2.288 0 012.028-.3l-1.353-2.068c-.507-.236-3.944-1.934-4.642-4.748-.343-1.397.05-2.832 1.181-4.272.686-.875 1.471-1.344 2.337-1.382.351-.014.703.037 1.036.149-.179-.762-.446-2.448.408-3.86.644-1.063 1.791-1.733 3.407-1.973 2.199-.335 3.647-.11 4.306.674.19.224.305.503.328.796.234-.273.499-.518.789-.731 1.208-.884 2.808-1.12 4.744-.7 1.806.38 3.049 1.217 3.67 2.47.252.509.406 1.06.453 1.626.534.179 2.458.96 3.125 3.072.804 2.551-.545 5.97-4.012 10.162l-.027.034c.124.364.213.739.267 1.12v1.4l.102.107-.46.107a6.672 6.672 0 00-.588-.453l-.125-.088.042-.148c.032-.125.054-.252.064-.38l-.304-.56-2.287.38.198-.38s.088-.16.217-.381h-.586c-.805 0-1.936.034-2.992.068l-.96.324-2.329 2.231.027-.544a11.55 11.55 0 01.24-1.881l-5.632 2.143.083-.533a1.685 1.685 0 00-.106-.822.857.857 0 00-.484-.48c-.762-.308-1.43-.304-2.561.636-1.402 1.165-1.014 1.96-.835 2.235.29.28.632.501 1.006.65.244.085.305.218.317.32.026.282-.317.473-.679.678-.106.058-.21.126-.263.157a1.142 1.142 0 00-.438.624l-.32-.107c.06-.183.137-.36.233-.529a9.976 9.976 0 00-2.413 2.444c-.575.762-1.353 2.034-2.012 2.974a40.686 40.686 0 01-5.846 6.602c-.724.659-1.795 1.169-2.736 1.64h.038c.309.16.629.637.938 1.288l-.233.11a1.927 1.927 0 00-.728-.895c-.068-.038-2.824.66-4.798 1.028l-.064-.354a17.54 17.54 0 005.495-2.025c.578-.338 1.12-.732 1.62-1.177 1.89-1.69 3.913-4.565 5.7-7.135z" fill="#232323"/><path d="M13.889 50.832a5.916 5.916 0 001.657 1.47c-.693-.02-3.36-.168-4.066-1.306-.804-1.299.03-3.678.953-4.272.276-.194.617-.269.949-.21a.594.594 0 01.38.312c.195.381.115.743 0 1.257a4.409 4.409 0 00.127 2.749z" fill="#FBC4B1"/><path d="M12.2 46.354c-.884.568-1.673 2.464-1.41 3.956a.21.21 0 00-.122-.057c-.022 0-.598-.08-1.12-.975-.423-.727-.26-1.523-.099-2.318.046-.217.095-.446.126-.667.13-.89 2.039-2.352 2.286-2.448a.762.762 0 01.743.556c.157.535.209 1.095.153 1.649a.13.13 0 000 .064 2.013 2.013 0 00-.557.24z" fill="#FBC4B1"/><path d="M10.398 43.053c.518.651.38.971.38.971a.179.179 0 00-.03.11v.02c-.685.582-1.486 1.42-1.585 2.09-.03.206-.072.419-.118.64a7.814 7.814 0 00-.171 1.077 1.591 1.591 0 01-.835-1.462 7.118 7.118 0 01.716-3.152c.26-.327.638-.538 1.052-.587a.709.709 0 01.59.293z" fill="#FBC4B1"/><path d="M8.351 43.141c-.335-.533-2.774-4.45-3.258-6.396-.484-1.946-.282-2.784-.38-2.863a.217.217 0 00-.23-.035.133.133 0 00-.045.035c-.061.064-.56.692-.107 2.691l-.034-.019v.035a3.196 3.196 0 00-1.62-.343c-1.174.038-1.795-1.169-1.951-1.523.644-.891 5.164-7.154 6.276-9.32a14.88 14.88 0 00.9-2.44c.575-1.905 1.68-3.77 3.917-6.192 2.237-2.421 5.366-5.478 7.729-7.348.32-.251 1.23-.853 2.507-1.618 3.487-2.083 9.718-5.403 13.803-5.997 1.006-.144 3.216-.643 4.348-.761C45.671.453 52.33-.403 61.928 4.26c12.778 6.214 19.47 15.36 22.328 20.26l.072.129.149-.027c.038 0 3.88-.7 5.335 0 .16.072.164.149.164.179.027.62-2.062 2.136-3.64 3.073l-.17.106-.153.092.099.182s.579 1.142-.122 3.853l-.02-.019a.114.114 0 010 .035 1.449 1.449 0 00-.918-.484h-.034c-.267.001-.53.07-.762.202a1.032 1.032 0 00-.294.29 1.586 1.586 0 00-.133 1.229l-.034-.02v.035a.507.507 0 00-.141-.065 1.907 1.907 0 00-1.578.103c-.056.039-.11.08-.16.126-.884.784-.648 2.768-.602 3.099a.857.857 0 00-.133.11c-.477.465-.717 1.558-.21 2.666.157.303.284.62.381.948a10.774 10.774 0 01-2.74 2.429c-.61.397-1.288.68-2 .833-2.912-.35-4.227-1.214-5.29-1.903a11.1 11.1 0 00-.957-.583c-1.143-.582-2.42-2.208-2.705-2.581a5.58 5.58 0 00.114-1.8c-.149-.938-2.085-.743-2.287-.724l-.102-.107V34.51a6.087 6.087 0 00-.267-1.12l.027-.034c3.467-4.188 4.816-7.615 4.012-10.162-.667-2.109-2.591-2.89-3.125-3.072a4.528 4.528 0 00-.45-1.626c-.628-1.249-1.863-2.079-3.67-2.47-1.935-.42-3.536-.184-4.744.7-.29.213-.554.458-.788.73a1.393 1.393 0 00-.324-.799c-.66-.78-2.108-1.009-4.307-.674-1.615.244-2.762.91-3.407 1.972-.853 1.41-.586 3.111-.407 3.861a2.883 2.883 0 00-1.037-.148c-.865.038-1.65.506-2.336 1.382-1.143 1.439-1.524 2.87-1.181 4.271.7 2.814 4.135 4.512 4.641 4.748l1.353 2.068a2.288 2.288 0 00-2.027.3 5.949 5.949 0 00-.678.495c-1.8 1.497-1.09 2.608-1.083 2.624l.206.236c.136.137.283.265.438.38h-.03a3.71 3.71 0 00-.705.335 10.102 10.102 0 00-2.706 2.666c-.58.78-1.204 1.671-1.867 2.615-1.788 2.551-3.811 5.445-5.717 7.162a9.964 9.964 0 01-1.62 1.176 17.54 17.54 0 01-5.494 2.026l-.18.034a7.834 7.834 0 01-1.501.133 6.957 6.957 0 01-2.046-.33 65.614 65.614 0 013.014-2.845c.091-.08.137-.282.023-.305-.259 0-.51.085-.717.24-1.7 1.036-5.259 4.95-7.046 7.916l-.023.03c-.423-1.325-1.581-4.782-2.484-6.069h.042a.08.08 0 010-.023c.084.015.17.023.255.023.301-.003.597-.084.857-.236.113-.062.22-.135.32-.217.092-.072.138-.346.03-.3-1.02.437-1.523.304-1.523.293-.103-.042-.343.03-.382 0l-.125-.069c-.686-.38-1.727-.761-2.321-1.664 0 0-.248-1.903-.103-2.57a2.165 2.165 0 00-.038-1.542 1.036 1.036 0 00-.66-.533 1.304 1.304 0 00-.327-.038 4.751 4.751 0 00-.183-1.812c-.263-.64-.9-.944-1.296-.792l-.064.034a3.331 3.331 0 00-.382.267l-.026.019a1.952 1.952 0 00-.473-.986 1.144 1.144 0 00-.952-.453 1.69 1.69 0 00-.824.266 1.97 1.97 0 00-.54.484v.023l-.066.011z" fill="#E65A3F"/><path d="M32.406 59.874c.243 2.01 1.188 3 1.741 3.297a.763.763 0 00.617.107c.279-.099.477-.552.724-1.142.332-.762-.727-3.134-.739-3.157a.137.137 0 01-.034-.06c-.71.446-1.491.77-2.31.955zm38.413-.137c.598 0 1.63-.659 1.787-1.081l-2.96-.8c-.04.44.033.88.213 1.283.155.247.384.437.655.545a.84.84 0 00.305.053zM84.32 32.355c-.187.278.05 1.18.05 1.523a9.87 9.87 0 011.104 1.8l.119.21.274.48a18.458 18.458 0 011.559 3.255c.38 1.142.083 1.755.064 1.782a.213.213 0 01-.285.095c-.107-.053.13-.784-.187-1.74a17.693 17.693 0 00-1.525-3.175l-.274-.51-.118-.214c-.313-.567-1.143-2.075-1.524-2.189-.595-.171-1.052-.122-1.357.149-.762.689-.103 2.615-.103 2.634 0 .02 0 0 0 0 .175-.023 0 0 .183.092 1.04.506 1.879 2.977 1.97 3.255a.217.217 0 01-.137.27c-.114.038-1.28-2.775-2.024-3.137a.503.503 0 00-.62.091c-.382.381-.527 1.287-.119 2.19.709 1.557.644 1.964-.575 3.628-.16.217-.275.38-.355.499-.228.327-.278.407-.564.41-.217 0-.735 0-2.488.762-1.753.762-3.4 2.475-4.596 3.994a25.154 25.154 0 00-1.967 2.879c-.002.15-.02.301-.053.449-.068.38-.16.876.114 1.142a.22.22 0 010 .305c-.083.087-.8-.556-.548-1.523.025-.11.04-.222.045-.335-1.6 1.279-1.768 4.42.122 5.33 4.352 2.128 6.635.685 9.615-1.763a19.52 19.52 0 004.912-5.947 5.35 5.35 0 00.614-2.185c-.027-.484-.046-.834.164-1.017.13-.114.255-.11.347-.186a14.328 14.328 0 001.646-1.242c1.337-1.142 1.741-3.978 1.364-5.197-.549-1.781-2.885-7.234-4.104-7.234a.892.892 0 00-.743.366v.004zM47.245 46.156a6.385 6.385 0 002.816 3.754c1.906 1.105 4.497 1.12 7.687.038a20.547 20.547 0 01-3.022-.327l-.233-.034a14.532 14.532 0 01-4.641-1.71c-.271-.14-.538-.281-.8-.415a7.378 7.378 0 01-1.81-1.31l.003.004zm11.181 31.982c2.588 1.927 5.236 2.448 5.754 2.231.675-.29.763-.464 1.715-2.117 1.002-1.744 1.833-5.25 1.765-9.408-.054-2.928-.305-4.603-.63-5.71v.053l-.022-.084c0 .06-.023.099-.03.125a1.644 1.644 0 00-.088.202c-.907 2.43-4.867 5.235-6.52 5.734-1.182.35-2.74 1.207-3.811 1.36a14.64 14.64 0 01-1.88.098 16.119 16.119 0 01-3.985-.422 31.078 31.078 0 00-7.21-.937h-.088a9.701 9.701 0 01-5.107-1.588 4.277 4.277 0 01-1.63-1.972h-.039a.057.057 0 010-.023l-7.663-.179c-1.696 1.02-4.017 3.427-5.206 5.076-1.021 1.42-.732 2.242-.625 2.406.352.41.757.77 1.204 1.074a8.547 8.547 0 003.285 1.522c.684.14 1.333.417 1.906.815.19.115.349.273.465.461.041.252.054.507.038.761.142.14.297.268.46.381.934.697 3.373 1.87 7.104-.975l.038-.03h.05a29.995 29.995 0 014.878-.411c1.036 0 1.28-.18 1.337-.244a5.367 5.367 0 00-1.105-1.058l-.156-.11c-.583-.381-1.349-.02-1.296-.66.054-.639 14.344.35 14.344.35h.02l2.408-.052s3.837-1.885 4.192-1.942a.213.213 0 01-.092.266l-4.032 2.258-2.317-.106a.195.195 0 01-.05 0 4.2 4.2 0 00.447.925c.65.727 1.378 1.38 2.172 1.945v-.015zM12.433 46.735c-.922.594-1.76 2.974-.953 4.272.709 1.142 3.377 1.287 4.066 1.306a5.916 5.916 0 01-1.657-1.47 4.409 4.409 0 01-.11-2.745c.11-.514.19-.887 0-1.256a.594.594 0 00-.382-.313 1.266 1.266 0 00-.964.206zm-1.67-2.7s.153-.315-.38-.97a.709.709 0 00-.602-.293c-.415.048-.793.26-1.052.586a7.118 7.118 0 00-.717 3.152 1.59 1.59 0 00.835 1.462c.032-.362.09-.722.171-1.077.042-.22.088-.434.118-.64.1-.674.9-1.523 1.586-2.09v-.019a.179.179 0 01.042-.122v.012zm.024 6.294c-.263-1.492.53-3.388 1.41-3.956.167-.107.35-.19.54-.243a.13.13 0 010-.065 4.325 4.325 0 00-.152-1.649.762.762 0 00-.743-.555c-.232.099-2.138 1.557-2.286 2.448-.03.22-.08.449-.126.666-.16.78-.324 1.591.099 2.319.518.894 1.094.97 1.12.974a.21.21 0 01.138.05v.011zm1.063-33.57c-2.237 2.419-3.342 4.3-3.918 6.192a14.749 14.749 0 01-.9 2.44C5.92 27.558 1.4 33.821.757 34.711c.157.381.763 1.573 1.952 1.523.56-.03 1.119.089 1.62.343v-.034l.033.019c-.453-1.999.042-2.627.107-2.692a.133.133 0 01.046-.034.217.217 0 01.229.034c.087.084-.126.91.38 2.863.507 1.953 2.924 5.864 3.259 6.397v-.042a1.97 1.97 0 01.541-.484c.247-.159.53-.25.823-.266.373-.014.728.156.953.453.248.277.412.619.472.986l.027-.02c.164-.121.301-.209.381-.266l.065-.034c.381-.152 1.033.152 1.296.792.177.587.24 1.202.183 1.812.11-.001.22.012.327.038.286.076.526.27.66.533.201.492.215 1.041.038 1.542-.145.663.091 2.555.103 2.57.594.918 1.634 1.29 2.32 1.664l.126.069c.034.019.278-.054.381 0 .023 0 .519.144 1.525-.294.106-.045.057.229-.03.301-.1.082-.208.155-.321.217-.26.152-.556.233-.857.236-.086 0-.171-.008-.256-.023a.08.08 0 000 .023h-.042c.904 1.287 2.062 4.744 2.485 6.07l.023-.031c1.787-2.959 5.335-6.88 7.046-7.916a1.19 1.19 0 01.717-.24c.114.023.064.229-.023.305a65.614 65.614 0 00-3.015 2.844 6.957 6.957 0 002.047.331 7.834 7.834 0 001.501-.133l.18-.034.064.354-.183.034a8.822 8.822 0 01-1.555.19 7.212 7.212 0 01-2.214-.38l-1.608 1.785c.896.629 5.373 3.663 8.906 3.214 1.277-.16 3.384-.568 3.25-1.055-.114-.426-.407-2.425-.983-3.739l-.087-.186.232-.11c.035.064.065.133.1.201.94 2.075 1.787 5.582 1.973 6.343h.717c.674-1.618 2.523-2.95 4.032-4.04 1.029-.742 1.44-.788 2.286-2.002.846-1.215 1.319-3.1 1.014-5.376-.149-1.1-1.46-2.094-1.391-2.193a.21.21 0 01.297-.061c.054.034 1.35.902 1.525 2.197a9.51 9.51 0 01-1.052 5.623 4.493 4.493 0 01-.153.282h1.296s2.096-1.88 2.18-1.797a.217.217 0 010 .305l-2 1.903h-1.777a8.336 8.336 0 01-1.257 1.066c-3.22 2.418-4.15 3.545-4.71 4.622-.09.215-.158.438-.203.667a4.466 4.466 0 00.107 3.13.057.057 0 010 .022c1.445 2.852 4.402 3.709 6.551 3.678 2.474.029 4.937.35 7.336.956 1.627.464 4.573.285 5.636.13 1.063-.157 3.087-1.143 3.72-1.429.762-.342 4.241-1.85 5.819-5.113a8.75 8.75 0 00.891-3.91c.08-1.523-.13-5.38-.186-6.092-.069-.921-.865-1.88-.762-1.96a.217.217 0 01.304 0c.039.041.995 1.085 1.079 1.854.065.601.183 4.344.229 5.635a.16.16 0 01.072 0h1.189c-.248-1.059-1.056-4.878-.217-6.092l.171-.26c.245-.394.52-.77.823-1.122.196-.215.455-.36.74-.415a25.202 25.202 0 014.012-4.897 3.085 3.085 0 01-1.806-2.017 2.813 2.813 0 00-.674-1.177 4.396 4.396 0 00-2.477-1.142c.194 1.055.053 2.78-.61 3.784-.175.267-.32.5-.457.731a6.813 6.813 0 01-2.005 2.285c-.976.73-1.174.944-1.23 1.34-.111.716-1.083 1.352-2.287 1.386h-.084a3.74 3.74 0 01-1.906-.685l-.095-.058a2.179 2.179 0 01-.827-.833v-.038c-.274.082-.554.14-.838.175-1.807 1.012-4.005 1.29-5.496 1.29a7.143 7.143 0 01-3.627-.894c-2.607-1.523-3.16-4.622-3.179-4.74a5.885 5.885 0 01-1.082-1.748 5.592 5.592 0 01-.194-2.102 7.01 7.01 0 01.35-1.865l.32.106a5.763 5.763 0 00-.243 1.76c.016.69.145 1.372.38 2.021a6.673 6.673 0 003.05 3.366c.27.133.54.274.811.415a13.967 13.967 0 004.504 1.671l.237.038c1.303.213 3.479.571 4.954.08a2.54 2.54 0 00.796-.422c.762-.613.24-3.389.35-3.427a.175.175 0 01.062 0c.095 0 .179.061.206.152.022.088.506 1.706.148 2.844a1.576 1.576 0 01-.503.762 2.668 2.668 0 01-.602.38c.155.27.38.494.652.648l.099.057a3.2 3.2 0 001.76.62c.21-.012.418-.051.618-.118.625-.205 1.215-.628 1.257-.906.096-.59.439-.894 1.399-1.618a6.333 6.333 0 001.905-2.162c.141-.236.286-.473.465-.743.782-1.184.728-3.347.381-3.975a15.171 15.171 0 00-1.227-1.523l-.026-.026v-.035c-.214-.536-.66-1.47-.945-1.69a5.304 5.304 0 00-.98-.404l-.14-.045v-.145a7.186 7.186 0 00-.104-.845l-.297-.54.461-.107c.198-.02 2.134-.214 2.287.723a5.58 5.58 0 01-.115 1.8c.286.382 1.574 2 2.706 2.582.329.178.648.372.957.583 1.059.693 2.377 1.553 5.289 1.903a5.982 5.982 0 002-.833 10.774 10.774 0 002.74-2.43 5.365 5.365 0 00-.38-.948c-.503-1.111-.267-2.208.21-2.665a.857.857 0 01.133-.11c-.046-.331-.282-2.315.602-3.1.05-.044.104-.086.16-.125a1.907 1.907 0 011.577-.103c.05.015.098.036.141.065v-.034l.035.019a1.586 1.586 0 01.133-1.23c.077-.115.177-.214.294-.29.232-.13.495-.2.762-.201h.03c.356.042.683.214.919.483a.114.114 0 000-.034l.019.02c.7-2.723.13-3.846.122-3.854l-.1-.183.153-.091.171-.107c1.582-.88 3.67-2.402 3.632-3.034 0-.03 0-.107-.164-.179-1.463-.685-5.304 0-5.335 0l-.148.027-.073-.13c-2.854-4.9-9.546-14.045-22.324-20.259C52.34-.419 45.683.434 40.206 1.028c-1.143.126-3.342.624-4.348.761-4.097.587-10.323 3.907-13.814 5.997-1.277.761-2.188 1.367-2.508 1.618-2.351 1.889-5.476 4.969-7.686 7.356zM7.605 46.508c-.02-1.074.491-3.046.464-3.08-.122-.172-2.862-4.097-3.578-6.324a3.13 3.13 0 01-.697-.309 2.044 2.044 0 00-1.052-.14C1.05 36.698.36 34.813.333 34.75l-.038-.11.065-.092c.05-.069 5.156-7.109 6.31-9.359.362-.763.654-1.556.874-2.372.59-1.934 1.253-4.13 3.563-6.62C13.344 13.778 24.498 1.861 36.837.8 37.84.712 38.908.628 40.04.506c5.51-.601 12.488-1.545 22.186 3.172 12.77 6.213 19.687 15.477 22.606 20.45.763-.13 3.735-.583 5.172.087a.628.628 0 01.411.552c.046 1.058-2.907 2.9-3.841 3.453.16.453.606 2.12 0 4.512 1.578 2.052 3.212 6.232 3.361 6.712.408 1.333.316 3.868-1.616 5.387-1.31 1.028-1.741 1.177-1.997 1.268a.5.5 0 00-.205.11c-.037.22-.037.444 0 .663a4.242 4.242 0 01-.29 2.178c-.629 1.275-2.588 4.01-5.392 6.316-1.738 1.424-3.514 2.879-6.044 2.879h-.214c-.152.278-.629.925-2.058 1.808a2.57 2.57 0 01-1.352.427 2.287 2.287 0 01-1.761-.948c-.027-.042-1.391.095-1.391.095a9.704 9.704 0 01-.13 1.675 22.064 22.064 0 011.147 7.055c.073 4.28-.952 8.376-2.004 10.211-1.018 1.77-1.524 2.056-2.256 2.368-.732.313-3.876-.186-6.905-2.916a32.3 32.3 0 01-2.535 2.014c-.26.197-.573.31-.899.328a1.524 1.524 0 01-1.143-.743c-.05-.065-.1-.13-.145-.179-.217-.255-.252-.78-.286-1.454a5.95 5.95 0 00-.282-1.82.88.88 0 00-.457-.545.381.381 0 00-.267.027l-1.334.704-1.025-1.168a.217.217 0 01-.046-.107l-6.032-.145c1.307.659 2.191 1.755 2.351 4.276v.19l-5.777.998-.065-.149s-.35-.73-.876-.81a1.04 1.04 0 00-.884.422c-1.212 1.31-3.05 1.732-4.02 1.96 0 0-4.258.949-5.614.949a59.762 59.762 0 01-7-.568h-.047l-.038-.026a1.222 1.222 0 01-.457-1.592l.088-.167.175.057s.51.145 1.75-.206a11.03 11.03 0 001.935-.872c.9-.468 1.75-.91 2.416-.955.32-.023.576-.023.797-.02.45.061.906-.055 1.272-.323a.993.993 0 00.302-1.104c-.16-.43-.61-.628-1.273-.556a1.423 1.423 0 01-.187 0c-1.905 0-4.996-2.954-5.126-3.084l-.026-.026v-.03c-.023-.05-.576-1.227.7-3.005 1.228-1.713 3.636-4.188 5.39-5.224l.049-.03 7.568-.023a9.648 9.648 0 01-.274-1.298h-1.551a1.392 1.392 0 01-.644-.183 4.515 4.515 0 01-2.287-3.48h-.339c-3.517 0-7.442-2.54-8.59-3.339-.96 1.108-3.17 3.32-3.17 3.32l-.149-.487c-.743-2.403-3.12-6.606-3.277-6.694a1.422 1.422 0 00-.404-.156c-.244 0-3.674-.026-4.573-1.523-.126-.198-.381-.529-.469-.529h-.019c-.03 0-.811-.08-1.452-1.184a2.39 2.39 0 01-.316-1.077H8.87A1.972 1.972 0 017.6 46.51l.005-.003z" fill="#232323"/><path d="M69.344 55.442s9.527.594 13.536-3.14c0 0-5.14 5.97-8.586 5.524-3.445-.446-4.375-1.192-4.95-2.384zM47.245 38.835s3.022 10.28 13.288 10.02c0 0-4.161 2.81-12.53-2.622 0 0-3.102-2.346-2.19-5.11 0 0-.104-2.117 1.432-2.288zM23.663 54.993s7.012 2.768 10.732 1.443c0 0-.45-2.417-1.403-2.962 0 0-3.094.78-4.28.93-1.184.148-3.048.578-4.473-.05l-.576.64z" fill="#F9AD99"/><path d="M48.522 32.142s6.188-10.836 17.331-.32l.202-.274s-2.488-6.42-11.764-4.95c0 0-4.325.514-5.93 5.33l.16.214z" fill="#231F20" opacity=".1"/><path d="M38.225 67.249c-.842.03-1.68.124-2.508.282a19.5 19.5 0 00-2.5.636c-.928.309-1.822.713-2.667 1.207-.424.256-.83.54-1.216.852a6.74 6.74 0 00-.549.476c-.167.164-.339.335-.499.503a9.76 9.76 0 00-.846 1.035c-.232.327-.44.67-.621 1.028-.183.324-.305.648-.43.926-.127.278-.199.536-.264.761l-.194.666h-.038s.03-.25.099-.693c.034-.22.11-.483.183-.784.046-.148.103-.304.156-.472.054-.177.123-.349.206-.514.17-.38.367-.749.59-1.1a7.97 7.97 0 01.862-1.1c.171-.172.339-.355.53-.515.184-.17.38-.328.583-.476.41-.306.84-.585 1.288-.833a14.43 14.43 0 012.77-1.143c.461-.133.907-.255 1.334-.338.427-.084.834-.16 1.212-.217a16.695 16.695 0 012.53-.187h-.011zm4.112 1.786s-1.022.198-2.516.624a31.091 31.091 0 00-5.308 2.01c-.454.24-.907.488-1.33.762-.416.26-.816.547-1.197.856-.194.141-.358.305-.533.454-.176.148-.32.316-.473.472a5.582 5.582 0 00-.724.974c-.175.295-.314.61-.415.937-.038.148-.084.285-.107.419l-.05.38a3.743 3.743 0 000 .518v.187h-.038l-.026-.187a3.245 3.245 0 01-.05-.529v-.38c0-.142.046-.286.073-.45.071-.359.192-.706.358-1.032a5.92 5.92 0 01.712-1.077 7.767 7.767 0 011.033-.994c.4-.314.821-.599 1.262-.853.445-.266.914-.502 1.383-.727a29.48 29.48 0 015.411-1.862c1.525-.38 2.542-.529 2.542-.529l-.007.027zm7.549.807a32.18 32.18 0 00-3.186.552 30.98 30.98 0 00-6.71 2.231c-.573.279-1.13.588-1.67.925-.52.327-1.017.687-1.49 1.078a10.64 10.64 0 00-1.246 1.169 8.118 8.118 0 00-.922 1.214 7.471 7.471 0 00-.584 1.142 3.177 3.177 0 00-.182.51l-.134.442c-.068.27-.095.491-.13.64l-.045.228h-.046v-.232c0-.152 0-.38.05-.663.046-.343.12-.682.225-1.012a6.5 6.5 0 01.518-1.253c.26-.47.563-.913.907-1.325.184-.227.382-.442.594-.643.216-.216.444-.42.682-.61a12.8 12.8 0 011.57-1.073 18.634 18.634 0 011.742-.887c.595-.27 1.2-.514 1.806-.727a34.638 34.638 0 011.791-.575 38.876 38.876 0 013.244-.762c1.062-.2 2.135-.346 3.212-.438l.004.069zm14.074-3.309c.277.701.495 1.425.651 2.163a13.68 13.68 0 01.217 4.968c-.064.453-.157.9-.278 1.34-.057.218-.133.43-.202.644l-.244.613a9.158 9.158 0 01-.602 1.093l-.335.468c-.115.149-.233.286-.34.419a8.403 8.403 0 01-.655.674c-.21.182-.381.346-.553.464-.323.236-.51.362-.51.362l-.03-.038s.152-.168.426-.446c.137-.14.286-.327.469-.525s.362-.45.556-.72c.096-.137.198-.274.298-.422l.285-.472c.088-.168.18-.34.279-.51.099-.172.171-.362.262-.545l.248-.575c.069-.202.153-.38.217-.605.138-.418.248-.844.332-1.276a12.2 12.2 0 00.21-2.596c-.018-.766-.09-1.53-.218-2.285a13.236 13.236 0 00-.533-2.174l.05-.019zM59.844 74.3c.037.216.037.436 0 .651a3.47 3.47 0 01-.511 1.352c-.13.226-.28.439-.45.636a2.564 2.564 0 01-.53.422 2.156 2.156 0 01-.43.214 1.59 1.59 0 01-.175.06l-.027-.038c.032-.052.066-.103.103-.152.06-.099.171-.213.286-.38.114-.168.263-.305.419-.477.176-.161.343-.333.5-.514.151-.185.287-.384.403-.593.1-.186.184-.38.252-.58a2.08 2.08 0 00.106-.608l.054.007zm-.294-5.262a7.791 7.791 0 011.288 2.174c.12.296.21.602.27.914.021.148.03.297.024.446a3.043 3.043 0 01-.038.38 5.743 5.743 0 01-.084.328 1.446 1.446 0 01-.107.24 2.124 2.124 0 01-.107.198h-.045v-.465c0-.095 0-.198-.02-.308a3.42 3.42 0 01-.038-.358l-.053-.38-.053-.427a10.134 10.134 0 00-.092-.442 9.08 9.08 0 00-.598-1.576c-.206-.419-.381-.685-.381-.685l.034-.039z" fill="#232323"/><path d="M42.337 74.529s.518-.427 1.337-1.01a28.223 28.223 0 013.148-1.941c.293-.168.602-.308.9-.457.297-.148.605-.266.899-.38.293-.115.594-.199.876-.279.282-.08.557-.121.808-.17.252-.05.492-.05.697-.073a2.67 2.67 0 01.538 0c.297 0 .465.03.465.03v.046s-.168.038-.454.087c-.145.03-.316.05-.51.107-.195.057-.416.103-.652.171l-.762.24c-.263.107-.549.19-.839.301-.29.11-.59.213-.891.339-.301.126-.61.244-.911.38a33.02 33.02 0 00-4.627 2.65l-.022-.041zm12.335-3.899c.264.13.518.278.762.442.111.068.225.156.351.243.126.088.244.194.381.297.267.23.51.485.728.762l.168.217.145.236c.094.155.17.321.224.495.042.17.065.343.069.518a2.77 2.77 0 01-.072.46 5.83 5.83 0 01-.157.358 1.474 1.474 0 01-.179.232 2.468 2.468 0 01-.167.183l-.039-.027s.02-.09.061-.236c0-.072.054-.156.069-.25.015-.096.023-.21.042-.324.019-.115 0-.244 0-.381s-.05-.267-.088-.404a4.04 4.04 0 00-.148-.43l-.1-.22-.125-.214a5.175 5.175 0 00-.61-.762 9.963 9.963 0 00-.636-.605 7.153 7.153 0 00-.679-.533v-.057zm-.556-.061s-.442.175-1.079.495c-.316.164-.682.354-1.067.579a21.16 21.16 0 00-1.17.738c-.186.141-.38.274-.556.423-.175.148-.358.282-.518.43-.16.149-.336.267-.484.4-.149.133-.301.251-.427.38-.126.13-.248.23-.354.324-.107.095-.187.19-.267.26-.149.148-.24.228-.24.228l-.038-.027s.045-.11.144-.3c.056-.118.118-.23.187-.34.084-.121.18-.259.29-.407.11-.149.248-.29.38-.442.152-.159.314-.307.485-.445a11.42 11.42 0 011.181-.792 17.4 17.4 0 011.246-.666c.408-.195.793-.354 1.144-.488.67-.259 1.143-.38 1.143-.38v.03z" fill="#232323"/><path d="M41.262 57.057s-8.898 9.137 6.677 12.183c0 0-3.465-.533-5.065-.38-1.6.152-7.466-1.558-6.029-7.06-.004-.01.206-2.12 4.417-4.743zm25.51-1.919s2.187 9.03-5.675 12.945c0 0-4.298 2.878-7.5 2.052.004-.019 12.031-3.141 13.175-14.997zM32.996 52.98s3.125-.937 8.08-7.616c4.953-6.678 4.1-5.916 4.889-6.065a4.014 4.014 0 00-.58 3.134c.412 1.816-5.888 6.522-5.888 6.522s-5.186 5.57-4.412 8.376c-.016.008-.591-3.937-2.089-4.352zm36.348-9.29s3.38 2.752 1.627 6.308l3.323-3.853a7.514 7.514 0 01-1.806-2.018c-.675-1.176-.614-2.151-3.16-2.341l.016 1.903z" fill="#EAF7FC"/></g></svg>