<svg width="18" height="18" xmlns="http://www.w3.org/2000/svg" xmlns:xlink="http://www.w3.org/1999/xlink"><defs><path id="a" d="M0 0h18v18H0z"/></defs><g fill="none" fill-rule="evenodd"><mask id="b" fill="#fff"><use xlink:href="#a"/></mask><use fill-opacity="0" fill="#D8D8D8" xlink:href="#a"/><g mask="url(#b)" fill-rule="nonzero"><path d="M16.364 0H1.636C.734 0 0 .734 0 1.636v14.728C0 17.266.734 18 1.636 18h14.728c.902 0 1.636-.734 1.636-1.636V1.636C18 .734 17.266 0 16.364 0z" fill="#862165"/><path d="M10.227 7.364c-2.045 0-2.045-.616-2.045-.819 0-.202 0-.818 1.227-.818 1.26 0 3.524.788 3.547.795l.544.19V3.419l-.24-.109c-.078-.035-1.915-.854-4.26-.854-2.38 0-4.91 1.433-4.91 4.09 0 2.98 2.761 4.091 4.5 4.091 1.228 0 1.228.553 1.228.819 0 .474-.516.818-1.227.818-.726 0-3.125-.582-3.988-.805l-.512-.133v3.232l.221.115c.069.035 1.703.863 4.279.863 3.23 0 5.318-1.605 5.318-4.09 0-2.686-1.852-4.091-3.682-4.091z" fill="#F2F2F2"/></g></g></svg>