<svg width="114" height="19" fill="none" xmlns="http://www.w3.org/2000/svg"><path d="M8.518 5.784h-.022L7.759.835H4.497l-.739 4.95h-.024L3.063.834H.245L1.963 8.7H5.38l.739-5.094h.02L6.877 8.7h3.42L12.012.835h-2.82l-.675 4.95zm8.352-.012h2.803V3.724h-2.802v-.838h3.032V.836h-6.05v7.863h6.149V6.654H16.87v-.882zm11.108-1.667c-.803-.34-1.916-.554-2.522-.731-.333-.1-.518-.218-.518-.5 0-.24.222-.458.728-.458.409 0 .687.164.696.653h2.821c0-1.829-1.49-2.44-3.475-2.44-2.322 0-3.656.93-3.656 2.56 0 1.012.43 1.746 1.651 2.105l2.237.653c.3.087.53.24.53.533 0 .344-.296.642-.761.642-.298 0-.495-.098-.614-.248-.123-.166-.169-.382-.169-.602h-3.019c0 2.05 1.763 2.638 3.68 2.638 2.251 0 3.837-.808 3.837-2.736 0-.947-.44-1.655-1.446-2.069zM33.093 8.7h3.15V2.951h1.962V.835H31.13v2.117h1.963v5.747zm10.183-2.928h2.798V3.724h-2.798v-.838h3.029V.836h-6.052v7.863h6.154V6.654h-3.13v-.882zm11.217-1.047v-.02c1.19-.285 1.578-.97 1.578-1.872 0-1.483-1.004-1.998-2.712-1.998h-4.706V8.7h3.084V5.905h.364c.508 0 .707.149.771.541.114.676.211 1.666.4 2.253h3.083c-.362-1.187-.34-2.297-.517-2.97-.156-.6-.576-.938-1.345-1.004zm-2.49-.608h-.266V2.625h.286c.617 0 1.028.12 1.028.697 0 .585-.443.795-1.048.795zM63.948 5.6h-.024L62.243.834h-3.78V8.7h2.554V3.907h.023l1.69 4.792h3.776V.835h-2.558V5.6zm-37.742 9.75c0 .622-.3.863-.63.863s-.627-.241-.627-.862v-5.096h-3.151v5.226c0 1.9 1.376 2.845 3.779 2.845 2.4 0 3.778-.946 3.778-2.845v-5.226h-3.149v5.096zm11.162-.334h-.024l-1.683-4.76H31.88v7.865h2.557v-4.794h.025l1.683 4.794h3.78v-7.865h-2.557v4.76zm8.286-4.76h-3.15v7.865h3.15v-7.865zm6.402-.204c-2.742 0-4.108 1.684-4.108 4.133 0 2.454 1.366 4.142 4.108 4.142 2.747 0 4.112-1.688 4.112-4.142 0-2.45-1.365-4.133-4.112-4.133zm0 6.227c-.48 0-.847-.274-.847-2.094 0-1.773.344-2.09.847-2.09.51 0 .85.317.85 2.09 0 1.82-.362 2.094-.85 2.094zm11.892-1.263h-.024l-1.681-4.76h-3.78v7.865h2.554v-4.794h.023l1.69 4.794h3.776v-7.865h-2.558v4.76zM96.174.726h-1.346l-1.5 11.037h-.05L91.63.726h-7.275l-1.65 11.037h-.046L81.157.726h-6.29l3.837 17.54h7.622l1.645-11.364h.05l1.644 11.363h7.626l.38-1.753L101.12.726h-4.945zm9.832 11.369c0 1.386-.665 1.924-1.402 1.924-.737 0-1.4-.538-1.4-1.924V.725h-1.501l-3.54 16.224c1.434 1.18 3.612 1.783 6.441 1.783 5.356 0 8.434-2.117 8.434-6.347V.725h-7.032v11.37zM69.209.726l3.77 17.54h1.044L70.254.725H69.21zm2.863 0l3.769 17.54h1.044L73.116.725h-1.044z" fill="#FFDC00"/></svg>