<svg width="42" height="14" xmlns="http://www.w3.org/2000/svg"><g fill="none" fill-rule="evenodd"><path fill="#26337A" d="M14.828 13.532L16.95.327h3.39l-2.12 13.205h-3.392M30.52.651a8.36 8.36 0 00-3.038-.554c-3.353 0-5.713 1.792-5.733 4.358-.021 1.898 1.684 2.957 2.97 3.588 1.322.647 1.766 1.06 1.76 1.639-.009.884-1.054 1.29-2.03 1.29-1.357 0-2.078-.2-3.194-.693l-.436-.21-.474 2.955c.79.368 2.257.687 3.778.704 3.563 0 5.879-1.77 5.906-4.51.012-1.505-.892-2.646-2.849-3.588-1.185-.613-1.912-1.018-1.904-1.638 0-.549.615-1.136 1.943-1.136a5.931 5.931 0 012.538.507l.304.151.46-2.863m4.515 8.199c.281-.758 1.351-3.69 1.351-3.69-.02.034.28-.765.451-1.26l.229 1.139s.65 3.151.785 3.812h-2.816zM39.22.34H36.6c-.814 0-1.422.234-1.778 1.095l-5.036 12.102h3.561s.582-1.628.714-1.985l4.343.007c.102.46.413 1.978.413 1.978h3.148L39.22.341zM11.983.338l-3.32 9.003-.355-1.83C7.69 5.403 5.764 3.117 3.61 1.972l3.037 11.549 3.59-.002 5.34-13.18h-3.594"/><path d="M5.582.33H.114L.069.602c4.255 1.094 7.07 3.734 8.24 6.908l-1.19-6.067C6.916.607 6.32.359 5.583.329" fill="#ED982D"/></g></svg>