<svg width="20" height="20" xmlns="http://www.w3.org/2000/svg"><g fill="none"><path d="M7.611 4.315l.003.001a.543.543 0 01.53-.427h7.485c.01 0 .019-.004.028-.003C15.497 1.23 13.271 0 11.306 0H3.82a.547.547 0 00-.53.432L3.288.43.016 15.45l.007.001c-.007.036-.021.07-.021.108 0 .307.248.55.555.55h4.484l2.57-11.795z" fill="#1565C0"/><path d="M15.657 3.886a5.917 5.917 0 01-.127 1.6c-.712 3.331-3.284 5.065-6.464 5.065H6.67a.51.51 0 00-.489.3l-.967 4.471-.169.794h-.003l-.702 3.22h.007c-.008.036-.021.07-.021.108 0 .308.248.556.555.556h4.074l.007-.006a.547.547 0 00.525-.437l.01-.009 1.007-4.675s.07-.446.539-.446h2.32c3.18 0 5.78-1.726 6.491-5.057.802-3.756-1.877-5.47-4.197-5.484z" fill="#039BE5"/><path d="M8.144 3.889a.542.542 0 00-.53.427l-.003-.001-1.43 6.536c.062-.13.199-.3.488-.3h2.353c3.18 0 5.796-1.733 6.507-5.064a5.895 5.895 0 00.128-1.6c-.01-.002-.02.002-.028.002H8.144z" fill="#283593"/></g></svg>