<svg width="20" height="20" xmlns="http://www.w3.org/2000/svg"><path d="M9.953.014c-2.746.06-5.61 1.266-7.598 3.939C-.865 8.28-.015 14.267 4.29 17.579a9.607 9.607 0 005.896 2.01c2.172 0 4.218-.729 5.686-1.912l.02.023.64-.562-2.167-2.465-.902.827a69.21 69.21 0 00-1.385 1.285c-.724-.827-1.459-1.645-2.193-2.464a567.192 567.192 0 01-1.118-1.255l1.034-.967-2.662-3.006 1.042-.976-2.705-3.012 3.682-3.327 1.36 1.47 2.253-2 .057.019 1.289 1.412 1.205-1.103s-.319-.296-.633-.469a.266.266 0 00-.136-.033C13.204.354 11.6-.022 9.952.014zm6.076 2.22l-1.076.984.97 1.077 1.08-.971-.974-1.09zm-3.276.29L11.09 4.037 12.586 5.7l1.664-1.5-1.496-1.676zm-3.701.613L6.807 5.17l2.025 2.254 2.25-2.032-2.03-2.255zm8.461 2.58l-1.073.978.979 1.082 1.08-.981-.986-1.079zm-3.15.342l-1.662 1.507 1.497 1.67 1.666-1.507-1.5-1.67zm-3.64 1.074L8.476 9.17l2.03 2.254 2.238-2.037-2.023-2.255zm8.286 2.066l-1.078.97.979 1.083 1.08-.974-.98-1.08zm-3.15.574l-1.662 1.503 1.499 1.673 1.664-1.51-1.5-1.666zm-3.478 1.41l-2.245 2.03 2.02 2.26 2.254-2.035-2.029-2.255zm5.01 2.138l-1.655 1.51 1.5 1.66 1.667-1.503-1.512-1.667z" fill="#027BC5"/></svg>