<svg width="167" height="73" xmlns="http://www.w3.org/2000/svg"><g fill="none" fill-rule="evenodd"><path d="M23.363 54.287h7.502v-24.3c0-7.034-3.715-10.871-11.146-10.871-5.43 0-9.93 2.842-12.217 5.542V6.895H0v47.392h7.502V30.342c1.786-2.345 5.073-4.618 8.86-4.618 4.214 0 7 1.634 7 6.963v21.6zm59.515 0h7.501V29.489c0-6.963-3.572-10.373-9.93-10.373-5.145 0-9.717 3.197-11.718 6.323-1.143-3.765-4.287-6.323-9.43-6.323-5.216 0-9.789 3.41-11.218 5.542v-4.69h-7.502v34.319h7.502V30.342c1.572-2.274 4.644-4.618 7.93-4.618 4.073 0 5.716 2.487 5.716 6.181v22.382h7.502V30.27c1.5-2.203 4.644-4.547 8.002-4.547 4.001 0 5.645 2.487 5.645 6.181v22.382z" fill="#FFF"/><path d="M166.517 36.5l.195 14.623c.031 2.336-1.603 5.164-3.636 6.309l-12.671 7.13-12.477 7.469c-2.008 1.202-5.27 1.199-7.272 0l-12.476-7.47-12.67-7.13c-2.04-1.147-3.668-3.971-3.637-6.308l.195-14.623-.195-14.623c-.031-2.336 1.602-5.164 3.636-6.309l12.671-7.13L130.656.97c2.008-1.202 5.27-1.199 7.272 0l12.477 7.47 12.67 7.13c2.04 1.147 3.668 3.971 3.637 6.308l-.195 14.623z" fill="#FF6C50"/><path d="M119.87 54.368h26.568V47.79h-14.712c9.473-6.631 14.448-11.842 14.448-17.842 0-7-5.98-11.21-13.496-11.21-4.922 0-10.161 1.79-13.601 5.737l4.287 4.947c2.381-2.474 5.45-4.053 9.42-4.053 2.964 0 5.769 1.527 5.769 4.58 0 4.315-4.234 7.947-18.682 18.526v5.894z" fill="#FFF"/></g></svg>