<svg xmlns="http://www.w3.org/2000/svg" xmlns:xlink="http://www.w3.org/1999/xlink" viewBox="0 0 572.9 167.9" enable-background="new 0 0 572.9 167.9"><style>.st0{display:none}.st2{fill:#16793b}.st5{fill:#fff}.st6{display:inline}.st7{fill:#d00500}.st11{fill:#656666}</style><path fill="#070707" d="M-17.9-9.6h655.1v217.7H-17.9z" id="Слой_14"/><path class="st2" d="M45.6 49.4h46.2v88.4H45.6z" id="Слой_2"/><path d="M66.8 48.4c-9.4-1.1-17.9-6.5-20.2-13.8-1.1-3.6-1.8-10.1 1.8-13.1s9.7-.6 13 2.2c5.5 4.8 8.3 14.7 5.4 24.7z" fill="none" stroke="#fff" stroke-width="4" stroke-miterlimit="10" id="Слой_3"/><path d="M69.7 48.4c-1.1-6.8 1.2-13.6 6.3-17.5 2.5-1.9 7.3-4.4 10.3-2.9 3.1 1.5 2.6 6.4 1.1 9.5-2.5 5.4-9.5 9.8-17.7 10.9z" fill="none" stroke="#fcfcfc" stroke-width="4" stroke-miterlimit="10" id="Слой_4"/><path class="st2" d="M504.9 135.7h-36.3l16.1-33-11-3.1 16.8-29.3-10.9-4.5L504.9 36z" id="Слой_5"/><path class="st2" d="M504.6 135.7h36.3l-16.1-33 11-3.1L519 70.3l10.8-4.5L504.6 36z" id="Слой_6"/><path class="st5" d="M500 33.3l-1.9 6.7 6.7-3.5 6.3 3.7-1.7-6.5 5.9-4-7.3-1.9-3.2-7.6-3.2 7.5-8.2 1.6z" id="Слой_7"/><g id="Layer_1" class="st0"><g class="st6"><path class="st7" d="M365.1 19.9h-87.2c-4.3 0-7.8 3.5-7.8 7.8v132.6c0 4.3 3.5 7.8 7.8 7.8h87.2c4.3 0 7.8-3.5 7.8-7.8V27.7c-.1-4.3-3.6-7.8-7.8-7.8z"/><path class="st5" d="M343.8 86.3V77l5-2.2 4.1-2.7 3.1-4.2 1.1-4.5-.6-4.3-.7-4.5-1.9-3.1-2.6-2.7-4.2-1.9-4.9-1.6-6.2 1.1-3.1-3.9-7.1-2-5.4-1.1-5.2.3-5.8 2.2-4.3 1.9-3.6 2.9-4.8-.7-5.7 1.3-4.8 3.1-2.9 6.1-.9 6.5 2.4 6.9 4.9 4.8 4.8 2.1v9.5l.1 2.1.1 34.1-4.4 4.9-1.9 3 .7 5.2 2.8 3 2.8 2 .1 5 4.8 1.9 9.4 1h7.1l6.2-1 4.1-3.7 2.4-5.6 5.1 2.4 6.6.2 7.1-2.2 6.6-4.9 2.1-5.5.3-11.3-2-12-5.9-1.1-3.7-5-1.2-6-.3-4.4z"/><circle class="st7" cx="322.8" cy="109.8" r="3"/><circle class="st7" cx="303.1" cy="109.8" r="3"/><path d="M299 102.7c.9 1.3 2.4 2.2 4.1 2.2s3.2-.9 4.1-2.2c-1.2.4-2.6.7-4.1.7-1.5 0-2.9-.2-4.1-.7zm19.7 0c.9 1.3 2.4 2.2 4.1 2.2s3.2-.9 4.1-2.2c-1.2.4-2.6.7-4.1.7s-2.9-.2-4.1-.7z"/><path d="M356 104.9l-.4-1.1-1.2-.1c-5.4-.4-8.3-2.9-8.6-15.1v-1.4h-.1v-2.9h.1v-5.5c7.6-1.9 13.2-8.9 13.2-16.9 0-9.6-7.8-17.4-17.4-17.4-1.4 0-2.8.2-4.2.5-4.1-4.2-11.9-6.7-17.7-6.7-5.6 0-13.3 2.4-17.4 6.5v.1l-.2.2c-1.4-.3-2.8-.5-4.2-.5-9.6 0-17.4 7.8-17.4 17.4 0 8 5.6 15 13.2 16.9v13.7c-.8-.2-1.5-.4-2.3-.7l-1.2 3.7c1.1.4 2.2.7 3.5 1V117c-.6-.3-1.2-.7-1.7-1.1l-2.4 3c1.2 1 2.6 1.7 4.1 2.4v1.2c-4 1.9-6.5 5.9-6.5 10.7 0 4.2 2.6 7.9 6.5 9.3v3.8l.4.5c.3.3 2.6 3.3 9.1 3.3h14.2c1.3 0 6.2-.2 9.6-3.5 1.6-1.5 2.6-3.5 3.2-5.8 1.7 1.4 3.9 2.3 6.2 2.3h.7c2 0 3.8-.2 5.4-.6 6-1.1 10.4-3.8 13.2-8.1 7.3-11.3.5-28.8.3-29.5zm-19.6-3.5c1.8 6.4 5.6 10.5 10.8 11.8 1.1 3.5 4.5 15.1 0 21.5-.3.4-.6.8-1 1.1 1-2.9 1.1-6.6.5-11.1s-1.8-8.1-1.9-8.2l-.4-1.1-1.1-.2c-9.5-1.7-11.1-19.6-10.9-26.8l2.7.3c-.1 2.5-.1 7.7 1.3 12.7zM319.9 84c-8.6 0-16.6.8-22.5 2.2v-3c5.7-1.4 13.7-2.3 22.5-2.3 8.2 0 16.1.8 21.9 2.2v3c-6-1.4-13.6-2.1-21.9-2.1zm-35.7-22.3c0-7.5 6.1-13.6 13.6-13.6.7 0 1.4.1 2.1.2-1.7 3.6-2.1 7.4-1.3 11.1l3.8-.8c-.9-3.9.1-7.8 2.7-11.4 3.3-3.2 9.8-5.2 14.5-5.2 4.4 0 10.4 1.8 13.9 4.6-2.1 1.5-3.7 3.5-4.5 5.7-.9 2.6-.9 5.5.1 8.1.9 2.3 2.4 4.2 4.4 5.6l2.1-3.2c-1.4-.9-2.4-2.2-3-3.7-.7-1.7-.7-3.6 0-5.4.7-2 2.6-3.9 4.7-4.8 1.3-.4 2.7-.7 4.2-.7 7.5 0 13.6 6.1 13.6 13.6 0 6.1-4.1 11.4-9.8 13l.1-2.2c-3.9-.7-8-1.2-12.6-1.5-3.5-.2-7.2-.4-10.9-.4v3.9c3.6 0 7.2.1 10.6.4 3.2.2 6.4.5 9.3.9v3.2c-6-1.4-13.6-2.1-21.9-2.1-8.5 0-16.5.8-22.5 2.2v-3.8h-.1c5.3-.4 13.7-2.4 21.2-10.2l-2.8-2.7c-8.3 8.7-17.9 9.3-21.7 9.1l-.1 3.2c-5.6-1.7-9.7-7-9.7-13.1zm6.8 71.2c0-2.8 1.1-4.8 2.6-6.1v11.1c-1.6-1.1-2.6-3-2.6-5zm33.2 10.6c-1.1 1-2.4 1.6-3.6 2 1.3-3.4 1.2-7.8 1.2-8.9V127c-1.2.6-2.5 1.2-3.9 1.5v8.2c.1 2.9-.4 7.5-1.8 9-.3.3-.5.3-.6.3h-2.1v-16.6c-.6.1-1.3.1-2 .1-.6 0-1.3 0-1.9-.1V146H305v-17.4c-1.4-.4-2.7-.9-3.9-1.5v18.8c-2-.3-3.1-.9-3.7-1.3v-22.4c1.2.2 2.4.3 3.6.3 3.8 0 7.5-1 10.4-3 2.9 1.9 6.5 3 10.3 3 4.4 0 8.5-1.4 11.6-3.9l-2.4-3c-2.4 1.9-5.7 3-9.2 3-3.4 0-6.7-1.1-9.1-3l-1.2-1-1.2 1c-2.4 1.9-5.7 3-9.2 3-1.2 0-2.4-.1-3.6-.4V97.1c1 .2 2 .3 3.1.4-.3.5-.5 1-.5 1.6 0 1.7 1.4 3 3 3 1.7 0 3-1.4 3-3 0-.4-.1-.8-.2-1.1.5 0 1 0 1.4.1.2 0 .4.1.7.3.6.5 1 1.7 1 3.4v11.3h7.6v-3.9h-3.7v-7.3c0-2.9-.8-5-2.3-6.3-1.4-1.2-3-1.3-3.7-1.3-3.3-.2-6.5-.5-9.4-1v-3.2c5.7-1.4 13.8-2.3 22.5-2.3 3 0 5.9.1 8.7.3 0 .5 0 2.1.1 4.3-3.7 1-8.3 1.6-13.3 1.9l.2 3.9c1.6-.1 3.1-.2 4.6-.3-.2.4-.4.9-.4 1.4 0 1.7 1.4 3 3 3 1.7 0 3-1.4 3-3 0-.8-.3-1.5-.8-2.1 1.4-.2 2.7-.5 4-.8.9 8.2 3.7 20 12.6 22.5 1.3 4.3 3.1 13.6 0 17.8-.7.9-1.5 1.6-2.6 1.9 2.6-5.2.5-14.7.3-15.9l-.3-1.5h-1.5c-5.2 0-10.6 4.1-10.9 10.9v1.7c0 1.1.1 2.4.1 3.3-.2 2.8-1 5-2.5 6.4zm9.2-5.3c-1.7-.9-3-2.7-3.1-4.8v-.9c.2-4.1 2.7-6.6 5.6-7.3.7 4.1 1.1 10-.7 12.2-.5.6-1 .8-1.8.8zm19.4-6.9c2-9-2-19.9-2.2-20.4l-.4-1-1.1-.2c-4.4-.7-7.4-3.9-8.9-9.3-1.2-4.2-1.2-8.6-1.1-10.9 1 .2 2 .4 2.9.6.2 6.2 1.1 15.8 10.8 17.3 1.2 3.6 4.7 15.9 0 23.9z"/><path d="M305.1 122.3c1.5 2.7 4 4.5 6.8 4.5s5.3-1.8 6.8-4.5c-2 .9-4.3 1.4-6.8 1.4-2.4 0-4.7-.5-6.8-1.4zM33.8 75.4v9.5c0 11.7-5.7 18.1-17.2 18.1h-5.4v27.6H-.3V57.3h17c11.5 0 17.1 6.4 17.1 18.1zm-22.6-7.6v24.9h5.5c3.7 0 5.7-1.7 5.7-6.9v-11c0-5.2-2-6.9-5.7-6.9l-5.5-.1zm53.4 20.4h15.8v10.5H64.6v21.5h19.9v10.5H53V58.3h31.5v9.5H64.6v20.4zm55.9 13.2l-3.6 6.7v22.5h-11.5V57.3h11.5v32l15.1-32h11.5l-16 32.7 16 40.7h-11.8l-11.2-29.3zm79 29.3h-11.6l-2-13.3h-14.2l-2 13.3h-10.6l11.7-73.4h16.9l11.8 73.4zm-26.3-23.3h11.1l-5.6-37.1-5.5 37.1zm66.8 23.3v-20.6c0-6.8-2.3-9.3-7.5-9.3h-4v29.9H217V57.3h17.4c12 0 17.1 5.6 17.1 16.9V80c0 7.6-2.4 12.5-7.6 14.9 5.8 2.4 7.7 8 7.7 15.6v20.3l-11.6-.1zm-11.6-62.9v22.5h4.5c4.3 0 6.9-1.9 6.9-7.8v-7.2c0-5.2-1.8-7.6-5.9-7.6l-5.5.1zm180.3-11.4c11.2 0 17 6.7 17 18.5v2.3h-10.9v-3c0-5.2-2.1-7.2-5.8-7.2-3.7 0-5.8 2-5.8 7.2 0 15.1 22.5 17.9 22.5 38.9 0 11.7-5.9 18.5-17.2 18.5-11.3 0-17.2-6.7-17.2-18.5v-4.5h10.9v5.2c0 5.2 2.3 7.1 6 7.1s6-1.9 6-7.1c0-15.1-22.5-17.9-22.5-38.9 0-11.8 5.8-18.5 17-18.5zm30.3.9h35.7v10.5h-12.1v62.9h-11.5V67.8H439V57.3zm86 73.4h-11.6l-2-13.3h-14.2l-2 13.3h-10.6l11.7-73.4h16.9l11.8 73.4zm-26.3-23.3h11.1l-5.6-37.1-5.5 37.1zm56.9-51c11.2 0 17 6.7 17 18.5v2.3h-10.9v-3c0-5.2-2.1-7.2-5.8-7.2s-5.8 2-5.8 7.2c0 15.1 22.5 17.9 22.5 38.9 0 11.7-5.9 18.5-17.2 18.5s-17.2-6.7-17.2-18.5v-4.5h11v5.2c0 5.2 2.3 7.1 6 7.1s6-1.9 6-7.1c0-15.1-22.5-17.9-22.5-38.9 0-11.8 5.7-18.5 16.9-18.5z"/></g></g><g id="Слой_9"><path class="st7" d="M365.4 19.7h-87.2c-4.3 0-7.8 3.5-7.8 7.8v132.6c0 4.3 3.5 7.8 7.8 7.8h87.2c4.3 0 7.8-3.5 7.8-7.8V27.5c-.1-4.3-3.6-7.8-7.8-7.8z"/><path class="st5" d="M344.1 86.1v-9.3l5-2.2 4.1-2.7 3.1-4.2 1.1-4.5-.6-4.3-.7-4.5-1.9-3.1-2.6-2.7-4.2-1.9-4.9-1.6-6.2 1.1-3.1-3.9-7.1-2-5.4-1.1-5.2.3-5.8 2.2-4.3 1.9-3.6 2.9-4.8-.7-5.7 1.3-4.8 3.1-2.9 6.1-.9 6.5 2.4 6.9 4.9 4.8 4.8 2.1v9.5l.1 2.1.1 34.1-4.4 4.9-1.9 3 .7 5.2 2.8 3 2.8 2 .1 5 4.8 1.9 9.4 1h7.1l6.2-1 4.1-3.7 2.4-5.6 5.1 2.4 6.6.2 7.1-2.2 6.6-4.9 2.1-5.5.3-11.3-2-12-5.9-1.1-3.7-5-1.2-6-.3-4.4z"/><circle class="st7" cx="323.1" cy="109.6" r="3"/><circle class="st7" cx="303.4" cy="109.6" r="3"/><path d="M299.3 102.5c.9 1.3 2.4 2.2 4.1 2.2s3.2-.9 4.1-2.2c-1.2.4-2.6.7-4.1.7-1.5 0-2.9-.2-4.1-.7zm19.7 0c.9 1.3 2.4 2.2 4.1 2.2s3.2-.9 4.1-2.2c-1.2.4-2.6.7-4.1.7s-2.9-.2-4.1-.7z"/><path d="M356.3 104.7l-.4-1.1-1.2-.1c-5.4-.4-8.3-2.9-8.6-15.1V87h-.1v-2.9h.1v-5.5c7.6-1.9 13.2-8.9 13.2-16.9 0-9.6-7.8-17.4-17.4-17.4-1.4 0-2.8.2-4.2.5-4.1-4.2-11.9-6.7-17.7-6.7-5.6 0-13.3 2.4-17.4 6.5v.1l-.2.2c-1.4-.3-2.8-.5-4.2-.5-9.6 0-17.4 7.8-17.4 17.4 0 8 5.6 15 13.2 16.9v13.7c-.8-.2-1.5-.4-2.3-.7l-1.2 3.7c1.1.4 2.2.7 3.5 1v20.4c-.6-.3-1.2-.7-1.7-1.1l-2.4 3c1.2 1 2.6 1.7 4.1 2.4v1.2c-4 1.9-6.5 5.9-6.5 10.7 0 4.2 2.6 7.9 6.5 9.3v3.8l.4.5c.3.3 2.6 3.3 9.1 3.3h14.2c1.3 0 6.2-.2 9.6-3.5 1.6-1.5 2.6-3.5 3.2-5.8 1.7 1.4 3.9 2.3 6.2 2.3h.7c2 0 3.8-.2 5.4-.6 6-1.1 10.4-3.8 13.2-8.1 7.3-11.3.5-28.8.3-29.5zm-19.6-3.5c1.8 6.4 5.6 10.5 10.8 11.8 1.1 3.5 4.5 15.1 0 21.5-.3.4-.6.8-1 1.1 1-2.9 1.1-6.6.5-11.1-.6-4.5-1.8-8.1-1.9-8.2l-.4-1.1-1.1-.2c-9.5-1.7-11.1-19.6-10.9-26.8l2.7.3c-.1 2.5-.1 7.7 1.3 12.7zm-16.5-17.4c-8.6 0-16.6.8-22.5 2.2v-3c5.7-1.4 13.7-2.3 22.5-2.3 8.2 0 16.1.8 21.9 2.2v3c-6-1.4-13.6-2.1-21.9-2.1zm-35.7-22.3c0-7.5 6.1-13.6 13.6-13.6.7 0 1.4.1 2.1.2-1.7 3.6-2.1 7.4-1.3 11.1l3.8-.8c-.9-3.9.1-7.8 2.7-11.4 3.3-3.2 9.8-5.2 14.5-5.2 4.4 0 10.4 1.8 13.9 4.6-2.1 1.5-3.7 3.5-4.5 5.7-.9 2.6-.9 5.5.1 8.1.9 2.3 2.4 4.2 4.4 5.6l2.1-3.2c-1.4-.9-2.4-2.2-3-3.7-.7-1.7-.7-3.6 0-5.4.7-2 2.6-3.9 4.7-4.8 1.3-.4 2.7-.7 4.2-.7 7.5 0 13.6 6.1 13.6 13.6 0 6.1-4.1 11.4-9.8 13l.1-2.2c-3.9-.7-8-1.2-12.6-1.5-3.5-.2-7.2-.4-10.9-.4v3.9c3.6 0 7.2.1 10.6.4 3.2.2 6.4.5 9.3.9v3.2c-6-1.4-13.6-2.1-21.9-2.1-8.5 0-16.5.8-22.5 2.2v-3.8h-.1c5.3-.4 13.7-2.4 21.2-10.2l-2.8-2.7c-8.3 8.7-17.9 9.3-21.7 9.1l-.1 3.2c-5.6-1.7-9.7-7-9.7-13.1zm6.8 71.2c0-2.8 1.1-4.8 2.6-6.1v11.1c-1.6-1.1-2.6-3-2.6-5zm33.2 10.6c-1.1 1-2.4 1.6-3.6 2 1.3-3.4 1.2-7.8 1.2-8.9v-9.6c-1.2.6-2.5 1.2-3.9 1.5v8.2c.1 2.9-.4 7.5-1.8 9-.3.3-.5.3-.6.3h-2.1v-16.6c-.6.1-1.3.1-2 .1-.6 0-1.3 0-1.9-.1v16.6h-4.5v-17.4c-1.4-.4-2.7-.9-3.9-1.5v18.8c-2-.3-3.1-.9-3.7-1.3V122c1.2.2 2.4.3 3.6.3 3.8 0 7.5-1 10.4-3 2.9 1.9 6.5 3 10.3 3 4.4 0 8.5-1.4 11.6-3.9l-2.4-3c-2.4 1.9-5.7 3-9.2 3-3.4 0-6.7-1.1-9.1-3l-1.2-1-1.2 1c-2.4 1.9-5.7 3-9.2 3-1.2 0-2.4-.1-3.6-.4V96.9c1 .2 2 .3 3.1.4-.3.5-.5 1-.5 1.6 0 1.7 1.4 3 3 3 1.7 0 3-1.4 3-3 0-.4-.1-.8-.2-1.1.5 0 1 0 1.4.1.2 0 .4.1.7.3.6.5 1 1.7 1 3.4v11.3h7.6V109h-3.7v-7.3c0-2.9-.8-5-2.3-6.3-1.4-1.2-3-1.3-3.7-1.3-3.3-.2-6.5-.5-9.4-1v-3.2c5.7-1.4 13.8-2.3 22.5-2.3 3 0 5.9.1 8.7.3 0 .5 0 2.1.1 4.3-3.7 1-8.3 1.6-13.3 1.9l.2 3.9c1.6-.1 3.1-.2 4.6-.3-.2.4-.4.9-.4 1.4 0 1.7 1.4 3 3 3 1.7 0 3-1.4 3-3 0-.8-.3-1.5-.8-2.1 1.4-.2 2.7-.5 4-.8.9 8.2 3.7 20 12.6 22.5 1.3 4.3 3.1 13.6 0 17.8-.7.9-1.5 1.6-2.6 1.9 2.6-5.2.5-14.7.3-15.9l-.3-1.5h-1.5c-5.2 0-10.6 4.1-10.9 10.9v1.7c0 1.1.1 2.4.1 3.3-.2 2.8-1 5-2.5 6.4zm9.2-5.3c-1.7-.9-3-2.7-3.1-4.8v-.9c.2-4.1 2.7-6.6 5.6-7.3.7 4.1 1.1 10-.7 12.2-.5.6-1 .8-1.8.8zm19.4-6.9c2-9-2-19.9-2.2-20.4l-.4-1-1.1-.2c-4.4-.7-7.4-3.9-8.9-9.3-1.2-4.2-1.2-8.6-1.1-10.9 1 .2 2 .4 2.9.6.2 6.2 1.1 15.8 10.8 17.3 1.2 3.6 4.7 15.9 0 23.9z"/><path d="M305.4 122.1c1.5 2.7 4 4.5 6.8 4.5s5.3-1.8 6.8-4.5c-2 .9-4.3 1.4-6.8 1.4-2.4 0-4.7-.5-6.8-1.4z"/></g><path class="st5" d="M34.1 75.2v9.5c0 11.7-5.7 18.1-17.2 18.1h-5.4v27.6H0V57.1h17c11.5 0 17.1 6.4 17.1 18.1zm-22.6-7.6v24.9H17c3.7 0 5.7-1.7 5.7-6.9v-11c0-5.2-2-6.9-5.7-6.9l-5.5-.1zm109.3 33.6l-3.6 6.7v22.5h-11.5V57.1h11.5v32l15.1-32h11.5l-16 32.7 16 40.7H132l-11.2-29.3zm79 29.3h-11.6l-2-13.3H172l-2 13.3h-10.6l11.7-73.4H188l11.8 73.4zm-26.3-23.3h11.1L179 70.1l-5.5 37.1zm66.8 23.3v-20.6c0-6.8-2.3-9.3-7.5-9.3h-4v29.9h-11.5V57.1h17.4c12 0 17.1 5.6 17.1 16.9v5.8c0 7.6-2.4 12.5-7.6 14.9 5.8 2.4 7.7 8 7.7 15.6v20.3l-11.6-.1zm-11.6-62.9v22.5h4.5c4.3 0 6.9-1.9 6.9-7.8v-7.2c0-5.2-1.8-7.6-5.9-7.6l-5.5.1zM409 56.2c11.2 0 17 6.7 17 18.5V77h-10.9v-3c0-5.2-2.1-7.2-5.8-7.2-3.7 0-5.8 2-5.8 7.2 0 15.1 22.5 17.9 22.5 38.9 0 11.7-5.9 18.5-17.2 18.5-11.3 0-17.2-6.7-17.2-18.5v-4.5h10.9v5.2c0 5.2 2.3 7.1 6 7.1s6-1.9 6-7.1c0-15.1-22.5-17.9-22.5-38.9 0-11.8 5.8-18.5 17-18.5zm30.3.9H475v10.5h-12.1v62.9h-11.5V67.6h-12.1V57.1zm116.6-.9c11.2 0 17 6.7 17 18.5V77H562v-3c0-5.2-2.1-7.2-5.8-7.2s-5.8 2-5.8 7.2c0 15.1 22.5 17.9 22.5 38.9 0 11.7-5.9 18.5-17.2 18.5s-17.2-6.7-17.2-18.5v-4.5h11v5.2c0 5.2 2.3 7.1 6 7.1s6-1.9 6-7.1c0-15.1-22.5-17.9-22.5-38.9 0-11.8 5.7-18.5 16.9-18.5z" id="Слой_15"/><path class="st5" d="M64.6 88.2h15.8v10.5H64.6v21.5h19.9v10.5H53V58.3h31.5v9.5H64.6v20.4zM525 130.7h-11.6l-2-13.3h-14.2l-2 13.3h-10.6l11.7-73.4h16.9l11.8 73.4zm-26.3-23.3h11.1l-5.6-37.1-5.5 37.1z" id="Слой_8"/><g id="Слой_13" opacity=".45"><path d="M282.9 29.7c0 4.4-3.5 7.9-7.9 7.9-1.7 0-3.3-.6-4.6-1.5-.2-.9.2-12.9.2-12.9 1.3-.9 2.8-1.3 4.4-1.3 4.4-.1 7.9 3.5 7.9 7.8z"/><circle cx="289.1" cy="27.9" r="7.9"/><circle cx="303.1" cy="24.9" r="7.9"/><circle cx="317.1" cy="28.9" r="7.9"/><circle cx="331.1" cy="25.9" r="7.9"/><circle cx="345.1" cy="24.9" r="7.9"/><circle cx="358.1" cy="27.9" r="7.9"/><path d="M373.2 40.5s-1.4.3-2.1.3c-4.4 0-7.9-3.5-7.9-7.9s3.5-7.9 7.9-7.9c.7 0 2.1.3 2.1.3v15.2z"/><circle cx="320.1" cy="15.9" r="7.9"/><circle cx="329.3" cy="20.9" r="7.9"/><circle cx="309.3" cy="19.9" r="7.9"/><circle cx="296.3" cy="21.9" r="7.9"/><circle cx="283.3" cy="21.9" r="7.9"/><circle cx="353.3" cy="21.9" r="7.9"/><circle cx="339.3" cy="17.9" r="7.9"/><circle cx="366.3" cy="27.9" r="7.9"/></g><g id="Слой_10"><circle class="st5" cx="275.2" cy="21.1" r="7.9"/><circle class="st5" cx="289.3" cy="19.3" r="7.9"/><circle class="st5" cx="303.3" cy="16.3" r="7.9"/><circle class="st5" cx="317.3" cy="20.3" r="7.9"/><circle class="st5" cx="331.3" cy="17.3" r="7.9"/><circle class="st5" cx="345.3" cy="16.3" r="7.9"/><circle class="st5" cx="358.3" cy="19.3" r="7.9"/><circle class="st5" cx="371.3" cy="24.3" r="7.9"/><circle class="st5" cx="320.3" cy="7.3" r="7.9"/><circle class="st5" cx="329.5" cy="12.3" r="7.9"/><circle class="st5" cx="309.5" cy="11.3" r="7.9"/><circle class="st5" cx="296.5" cy="13.3" r="7.9"/><circle class="st5" cx="283.5" cy="13.3" r="7.9"/><circle class="st5" cx="353.5" cy="13.3" r="7.9"/><circle class="st5" cx="339.5" cy="9.3" r="7.9"/><circle class="st5" cx="366.5" cy="19.3" r="7.9"/></g><g id="Слой_12" class="st0"><g class="st6"><circle class="st5" cx="275" cy="21.7" r="7.9"/><circle class="st5" cx="289.1" cy="19.9" r="7.9"/><circle class="st5" cx="303.1" cy="16.9" r="7.9"/><circle class="st5" cx="317.1" cy="20.9" r="7.9"/><circle class="st5" cx="331.1" cy="17.9" r="7.9"/><circle class="st5" cx="345.1" cy="16.9" r="7.9"/><circle class="st5" cx="358.1" cy="19.9" r="7.9"/><circle class="st5" cx="371.1" cy="24.9" r="7.9"/><circle class="st5" cx="320.1" cy="7.9" r="7.9"/><circle class="st5" cx="329.3" cy="12.9" r="7.9"/><circle class="st5" cx="309.3" cy="11.9" r="7.9"/><circle class="st5" cx="296.3" cy="13.9" r="7.9"/><circle class="st5" cx="283.3" cy="13.9" r="7.9"/><circle class="st5" cx="353.3" cy="13.9" r="7.9"/><circle class="st5" cx="339.3" cy="9.9" r="7.9"/><circle class="st5" cx="366.3" cy="19.9" r="7.9"/></g><defs><filter id="Adobe_OpacityMaskFilter" filterUnits="userSpaceOnUse" x="267.1" y="0" width="111.9" height="32.8"><feColorMatrix values="-1 0 0 0 1 0 -1 0 0 1 0 0 -1 0 1 0 0 0 1 0" color-interpolation-filters="sRGB" result="source"/></filter></defs><mask maskUnits="userSpaceOnUse" x="267.1" y="0" width="111.9" height="32.8" id="SVGID_1_" class="st6"><g filter="url(#Adobe_OpacityMaskFilter)"><image width="117" height="38" xlink:href="A151BC40.jpg" transform="translate(264.182 -2.247)" overflow="visible"/></g></mask><g opacity=".75" mask="url(#SVGID_1_)"><circle class="st11" cx="275" cy="21.7" r="7.9"/><circle class="st11" cx="289.1" cy="19.9" r="7.9"/><circle class="st11" cx="303.1" cy="16.9" r="7.9"/><circle class="st11" cx="317.1" cy="20.9" r="7.9"/><circle class="st11" cx="331.1" cy="17.9" r="7.9"/><circle class="st11" cx="345.1" cy="16.9" r="7.9"/><circle class="st11" cx="358.1" cy="19.9" r="7.9"/><circle class="st11" cx="371.1" cy="24.9" r="7.9"/><circle class="st11" cx="320.1" cy="7.9" r="7.9"/><circle class="st11" cx="329.3" cy="12.9" r="7.9"/><circle class="st11" cx="309.3" cy="11.9" r="7.9"/><circle class="st11" cx="296.3" cy="13.9" r="7.9"/><circle class="st11" cx="283.3" cy="13.9" r="7.9"/><circle class="st11" cx="353.3" cy="13.9" r="7.9"/><circle class="st11" cx="339.3" cy="9.9" r="7.9"/><circle class="st11" cx="366.3" cy="19.9" r="7.9"/></g></g></svg>