<svg width="65" height="73" xmlns="http://www.w3.org/2000/svg"><g fill="none"><path d="M64.645 36.431l.195 14.623c.03 2.337-1.603 5.165-3.637 6.31l-12.67 7.13-12.477 7.468c-2.008 1.202-5.27 1.199-7.272 0l-12.476-7.469-12.671-7.13C1.597 56.215-.031 53.391 0 51.054l.195-14.623L0 21.81c-.03-2.337 1.603-5.165 3.637-6.31l12.67-7.13L28.785.9c2.008-1.202 5.27-1.198 7.272 0l12.476 7.47 12.671 7.13c2.04 1.147 3.668 3.972 3.637 6.309l-.195 14.622z" fill="#FF6C50"/><path d="M17.998 54.3h26.568v-6.58H29.853c9.473-6.63 14.448-11.841 14.448-17.841 0-7-5.98-11.21-13.495-11.21-4.922 0-10.161 1.789-13.601 5.736l4.286 4.947c2.382-2.473 5.451-4.052 9.42-4.052 2.964 0 5.77 1.526 5.77 4.579 0 4.315-4.235 7.947-18.683 18.526V54.3z" fill="#FFF"/></g></svg>