<svg width="314" height="82" xmlns="http://www.w3.org/2000/svg"><g fill="none"><path d="M200.025.437h-47.669a4.27 4.27 0 00-4.264 4.264V77.19a4.27 4.27 0 004.264 4.264h47.67a4.27 4.27 0 004.263-4.264V4.701c-.054-2.35-1.968-4.264-4.264-4.264z" fill="#D00500"/><path fill="#FFF" d="M188.381 36.736v-5.084l2.734-1.203 2.241-1.476 1.695-2.296.601-2.46-.328-2.35-.383-2.46-1.038-1.695-1.422-1.476-2.296-1.039-2.678-.874-3.39.601-1.694-2.132-3.882-1.093-2.952-.602-2.842.164-3.171 1.203-2.35 1.039-1.969 1.585-2.624-.383-3.116.711-2.624 1.695-1.585 3.334-.492 3.554 1.312 3.772 2.679 2.624 2.624 1.148v5.193l.054 1.148.055 18.641-2.405 2.679-1.039 1.64.383 2.843 1.53 1.64 1.531 1.093.055 2.733 2.624 1.039 5.138.547h3.882l3.389-.547 2.241-2.023 1.312-3.061 2.788 1.312 3.608.11 3.882-1.203 3.608-2.679 1.148-3.007.164-6.177-1.094-6.56-3.225-.601-2.023-2.734-.656-3.28-.164-2.405z"/><circle fill="#D00500" cx="176.901" cy="49.583" r="1.64"/><circle fill="#D00500" cx="166.132" cy="49.583" r="1.64"/><g fill="#000"><path d="M163.89 45.701c.493.711 1.313 1.203 2.242 1.203.93 0 1.75-.492 2.241-1.203a7.121 7.121 0 01-2.241.383c-.82 0-1.585-.11-2.241-.383zm10.77 0c.492.711 1.312 1.203 2.241 1.203.93 0 1.75-.492 2.242-1.203a7.121 7.121 0 01-2.242.383c-.82 0-1.585-.11-2.241-.383z"/><path d="M195.05 46.904l-.218-.601-.656-.055c-2.952-.219-4.537-1.585-4.701-8.255v-.765h-.055v-1.585h.055v-3.007c4.154-1.039 7.216-4.865 7.216-9.239 0-5.248-4.264-9.512-9.512-9.512-.766 0-1.531.11-2.296.274-2.242-2.296-6.506-3.663-9.676-3.663-3.062 0-7.271 1.312-9.512 3.553v.055l-.11.11c-.765-.165-1.53-.274-2.296-.274-5.248 0-9.512 4.264-9.512 9.512 0 4.373 3.062 8.2 7.216 9.239v7.489c-.437-.11-.82-.219-1.257-.383l-.656 2.023c.601.219 1.203.383 1.913.547v11.152a5.416 5.416 0 01-.929-.602l-1.312 1.64c.656.547 1.421.93 2.241 1.312v.656c-2.186 1.039-3.553 3.226-3.553 5.85a5.379 5.379 0 003.553 5.084v2.077l.219.273c.164.164 1.421 1.804 4.975 1.804h7.762c.711 0 3.39-.109 5.248-1.913.875-.82 1.422-1.913 1.75-3.17.929.765 2.132 1.257 3.389 1.257h.383c1.093 0 2.077-.11 2.952-.328 3.28-.602 5.685-2.078 7.216-4.428 3.99-6.178.273-15.744.164-16.127zm-10.714-1.913c.984 3.498 3.061 5.74 5.904 6.45.601 1.914 2.46 8.255 0 11.754-.164.218-.328.437-.547.601.547-1.585.602-3.608.274-6.068-.328-2.46-.984-4.428-1.039-4.483l-.219-.601-.601-.11c-5.193-.929-6.068-10.714-5.959-14.65l1.476.164c-.054 1.367-.054 4.21.711 6.943zm-9.02-9.512c-4.701 0-9.075.437-12.3 1.202v-1.64c3.116-.765 7.49-1.257 12.3-1.257 4.483 0 8.801.437 11.972 1.203v1.64c-3.28-.766-7.435-1.148-11.972-1.148zM155.8 23.288c0-4.1 3.335-7.435 7.435-7.435.382 0 .765.055 1.148.11-.93 1.968-1.148 4.045-.711 6.068l2.077-.438c-.492-2.132.055-4.264 1.476-6.232 1.804-1.749 5.358-2.842 7.927-2.842 2.405 0 5.685.984 7.599 2.514-1.148.82-2.023 1.914-2.46 3.116-.492 1.422-.492 3.007.054 4.428a6.65 6.65 0 002.406 3.062l1.148-1.75c-.766-.492-1.312-1.202-1.64-2.022-.383-.93-.383-1.968 0-2.952.382-1.094 1.421-2.132 2.569-2.624.71-.219 1.476-.383 2.296-.383 4.1 0 7.435 3.335 7.435 7.435 0 3.334-2.242 6.232-5.358 7.106l.055-1.202a61.091 61.091 0 00-6.888-.82c-1.913-.11-3.936-.219-5.959-.219v2.132c1.968 0 3.936.055 5.795.219 1.75.109 3.499.273 5.084.492V32.8c-3.28-.765-7.435-1.148-11.972-1.148-4.647 0-9.02.437-12.3 1.203v-2.078h-.055c2.898-.218 7.49-1.312 11.59-5.576l-1.531-1.476c-4.537 4.756-9.785 5.084-11.863 4.975l-.054 1.75c-3.062-.93-5.303-3.827-5.303-7.162zm3.717 38.923c0-1.531.602-2.624 1.422-3.335v6.068a3.342 3.342 0 01-1.422-2.733zm18.15 5.794c-.602.547-1.312.875-1.968 1.094.71-1.859.656-4.264.656-4.866v-5.248c-.656.328-1.367.656-2.132.82v4.483c.054 1.585-.219 4.1-.984 4.92-.164.164-.274.164-.328.164h-1.148v-9.075c-.328.055-.711.055-1.094.055-.328 0-.71 0-1.038-.055v9.075h-2.46V59.86a12.33 12.33 0 01-2.132-.82v10.277c-1.094-.164-1.695-.492-2.023-.71V56.36c.656.11 1.312.164 1.968.164 2.077 0 4.1-.546 5.685-1.64 1.586 1.039 3.554 1.64 5.631 1.64 2.405 0 4.647-.765 6.341-2.132l-1.312-1.64c-1.312 1.039-3.116 1.64-5.029 1.64-1.859 0-3.663-.601-4.975-1.64l-.656-.546-.656.546c-1.312 1.039-3.116 1.64-5.029 1.64a8.048 8.048 0 01-1.968-.218V42.64c.547.11 1.093.164 1.695.219-.164.273-.274.546-.274.874 0 .93.766 1.64 1.64 1.64.93 0 1.64-.765 1.64-1.64 0-.218-.054-.437-.109-.601.273 0 .547 0 .765.055.11 0 .219.054.383.164.328.273.547.929.547 1.858v6.178h4.154v-2.132h-2.022v-3.991c0-1.585-.438-2.733-1.258-3.444-.765-.656-1.64-.71-2.022-.71-1.804-.11-3.554-.274-5.139-.547v-1.75c3.116-.765 7.544-1.257 12.3-1.257 1.64 0 3.225.055 4.756.164 0 .273 0 1.148.055 2.35-2.023.547-4.538.875-7.271 1.04l.11 2.131c.874-.054 1.694-.109 2.514-.164-.11.219-.219.492-.219.766 0 .929.766 1.64 1.64 1.64.93 0 1.64-.766 1.64-1.64 0-.438-.164-.82-.437-1.148.765-.11 1.476-.274 2.187-.438.492 4.483 2.022 10.934 6.888 12.3.71 2.351 1.694 7.435 0 9.731-.383.492-.82.875-1.422 1.039 1.422-2.843.274-8.036.164-8.692l-.164-.82h-.82c-2.842 0-5.794 2.241-5.958 5.958v.93c0 .601.054 1.312.054 1.804-.109 1.53-.546 2.733-1.366 3.498zm5.029-2.897c-.93-.492-1.64-1.476-1.695-2.624v-.492c.11-2.241 1.476-3.608 3.062-3.99.382 2.24.601 5.466-.383 6.669-.273.328-.547.437-.984.437zm10.605-3.772c1.094-4.92-1.093-10.879-1.202-11.152l-.219-.547-.601-.109c-2.406-.383-4.046-2.132-4.866-5.084-.656-2.296-.656-4.701-.601-5.959.547.11 1.093.219 1.585.328.11 3.39.602 8.638 5.904 9.458.656 1.968 2.57 8.692 0 13.065z"/><path d="M167.225 56.416c.82 1.476 2.187 2.46 3.718 2.46 1.53 0 2.897-.984 3.717-2.46-1.093.492-2.35.765-3.717.765a9.419 9.419 0 01-3.718-.765z"/></g><path d="M18.915 30.777v5.194c0 6.396-3.116 9.894-9.403 9.894H6.56v15.088H.273v-40.07h9.294c6.286 0 9.348 3.498 9.348 9.894zM6.56 26.623v13.612h3.007c2.022 0 3.116-.93 3.116-3.772v-6.014c0-2.842-1.094-3.772-3.116-3.772H6.56v-.054zm29.192 11.152h8.637v5.74h-8.637v11.753h10.879v5.74H29.41V20.883h17.22v5.74H35.752v11.152zm30.559 7.216l-1.968 3.662v12.3h-6.287v-40.07h6.287v17.493l8.254-17.493h6.287l-8.747 17.876 8.747 22.249h-6.45L66.31 44.991zm43.186 16.017h-6.341l-1.093-7.27H94.3l-1.093 7.27h-5.795l6.396-40.125h9.239l6.45 40.125zM95.12 48.271h6.068l-3.061-20.282-3.007 20.282zm36.517 12.737V49.747c0-3.718-1.257-5.084-4.1-5.084h-2.186v16.345h-6.287V20.883h9.512c6.56 0 9.348 3.061 9.348 9.238v3.171c0 4.155-1.312 6.833-4.155 8.145 3.171 1.312 4.21 4.374 4.21 8.528v11.098h-6.342v-.055zm-6.341-34.385v12.3h2.46c2.35 0 3.772-1.039 3.772-4.264v-3.936c0-2.843-.984-4.155-3.225-4.155h-3.007v.055zm98.564-6.232c6.123 0 9.293 3.662 9.293 10.113v1.257h-5.958v-1.64c0-2.842-1.148-3.936-3.171-3.936-2.023 0-3.17 1.094-3.17 3.936 0 8.255 12.3 9.786 12.3 21.266 0 6.396-3.226 10.113-9.403 10.113-6.178 0-9.403-3.663-9.403-10.113v-2.46h5.959v2.842c0 2.843 1.257 3.882 3.28 3.882 2.022 0 3.28-1.039 3.28-3.882 0-8.254-12.3-9.785-12.3-21.265 0-6.45 3.17-10.113 9.293-10.113zm16.564.492h19.516v5.74h-6.615v34.385h-6.286V26.623h-6.615v-5.74zm47.013 40.125h-6.341l-1.093-7.27h-7.763l-1.093 7.27h-5.795l6.396-40.125h9.239l6.45 40.125zM273.06 48.271h6.068l-3.061-20.282-3.007 20.282zm31.105-27.88c6.123 0 9.294 3.662 9.294 10.113v1.257H307.5v-1.64c0-2.842-1.148-3.936-3.17-3.936-2.023 0-3.171 1.094-3.171 3.936 0 8.255 12.3 9.786 12.3 21.266 0 6.396-3.226 10.113-9.403 10.113-6.177 0-9.403-3.663-9.403-10.113v-2.46h6.014v2.842c0 2.843 1.257 3.882 3.28 3.882 2.022 0 3.28-1.039 3.28-3.882 0-8.254-12.3-9.785-12.3-21.265 0-6.45 3.116-10.113 9.238-10.113z" fill="#000"/></g></svg>