<svg width="230" height="60" xmlns="http://www.w3.org/2000/svg"><g fill="none"><path d="M146.36.32h-34.88c-1.72 0-3.12 1.4-3.12 3.12v53.04c0 1.72 1.4 3.12 3.12 3.12h34.88c1.72 0 3.12-1.4 3.12-3.12V3.44c-.04-1.72-1.44-3.12-3.12-3.12z" fill="#D00500"/><path fill="#FFF" d="M137.84 26.88v-3.72l2-.88 1.64-1.04 1.24-1.68.44-1.8-.24-1.76-.28-1.8-.76-1.24-1.04-1.08-1.68-.76-1.96-.6-2.48.4-1.24-1.56-2.84-.8-2.16-.44-2.08.12-2.32.88-1.72.76-1.44 1.16-1.92-.24-2.28.48-1.92 1.24-1.16 2.44-.36 2.6.96 2.76 1.96 1.92 1.92.84v3.8l.04.84.04 13.64-1.76 1.96-.76 1.24.28 2.04 1.12 1.2 1.12.8.04 2 1.92.76 3.76.4h2.84l2.48-.4 1.64-1.44.96-2.28 2.04.96 2.64.08 2.84-.88 2.64-1.96.84-2.2.12-4.52-.8-4.8-2.36-.44-1.48-2-.48-2.4-.12-1.76z"/><circle fill="#D00500" cx="129.44" cy="36.28" r="1.2"/><circle fill="#D00500" cx="121.56" cy="36.28" r="1.2"/><g fill="#000"><path d="M119.92 33.48c.36.52.96.88 1.64.88.68 0 1.28-.36 1.64-.88-.48.16-1.04.28-1.64.28-.6-.04-1.16-.12-1.64-.28zm7.88 0c.36.52.96.88 1.64.88.68 0 1.28-.36 1.64-.88-.48.16-1.04.28-1.64.28-.6 0-1.16-.12-1.64-.28z"/><path d="M142.72 34.32l-.16-.44-.48-.04c-2.16-.16-3.32-1.16-3.44-6.04v-.56h-.04v-1.16h.04v-2.2c3.04-.76 5.28-3.56 5.28-6.76 0-3.84-3.12-6.96-6.96-6.96-.56 0-1.12.08-1.68.2-1.64-1.68-4.76-2.68-7.08-2.68-2.24 0-5.32.96-6.96 2.6v.04l-.08.08a8.03 8.03 0 00-1.68-.2c-3.84 0-6.96 3.12-6.96 6.96 0 3.2 2.24 6 5.28 6.76v5.48c-.32-.08-.6-.16-.92-.28l-.48 1.48c.44.16.88.28 1.4.4v8.16c-.24-.12-.48-.28-.68-.44l-.96 1.2c.48.4 1.04.68 1.64.96v.48c-1.6.76-2.6 2.36-2.6 4.28 0 1.68 1.04 3.16 2.6 3.72v1.52l.16.2c.12.12 1.04 1.32 3.64 1.32h5.68c.52 0 2.48-.08 3.84-1.4.64-.6 1.04-1.4 1.28-2.32.68.56 1.56.92 2.48.92h.28c.8 0 1.52-.08 2.16-.24 2.4-.44 4.16-1.52 5.28-3.24 2.92-4.52.2-11.52.12-11.8zm-7.84-1.4c.72 2.56 2.24 4.2 4.32 4.72.44 1.4 1.8 6.04 0 8.6-.12.16-.24.32-.4.44.4-1.16.44-2.64.2-4.44-.24-1.8-.72-3.24-.76-3.28l-.16-.44-.44-.08c-3.8-.68-4.44-7.84-4.36-10.72l1.08.12c-.04 1-.04 3.08.52 5.08zm-6.6-6.96c-3.44 0-6.64.32-9 .88v-1.2c2.28-.56 5.48-.92 9-.92 3.28 0 6.44.32 8.76.88v1.2c-2.4-.56-5.44-.84-8.76-.84zM114 17.04c0-3 2.44-5.44 5.44-5.44.28 0 .56.04.84.08a6.862 6.862 0 00-.52 4.44l1.52-.32c-.36-1.56.04-3.12 1.08-4.56 1.32-1.28 3.92-2.08 5.8-2.08 1.76 0 4.16.72 5.56 1.84-.84.6-1.48 1.4-1.8 2.28-.36 1.04-.36 2.2.04 3.24.36.92.96 1.68 1.76 2.24l.84-1.28c-.56-.36-.96-.88-1.2-1.48-.28-.68-.28-1.44 0-2.16.28-.8 1.04-1.56 1.88-1.92.52-.16 1.08-.28 1.68-.28 3 0 5.44 2.44 5.44 5.44 0 2.44-1.64 4.56-3.92 5.2l.04-.88a44.7 44.7 0 00-5.04-.6c-1.4-.08-2.88-.16-4.36-.16v1.56c1.44 0 2.88.04 4.24.16 1.28.08 2.56.2 3.72.36V24c-2.4-.56-5.44-.84-8.76-.84-3.4 0-6.6.32-9 .88v-1.52h-.04c2.12-.16 5.48-.96 8.48-4.08l-1.12-1.08c-3.32 3.48-7.16 3.72-8.68 3.64l-.04 1.28c-2.24-.68-3.88-2.8-3.88-5.24zm2.72 28.48c0-1.12.44-1.92 1.04-2.44v4.44c-.64-.44-1.04-1.2-1.04-2zM130 49.76c-.44.4-.96.64-1.44.8.52-1.36.48-3.12.48-3.56v-3.84c-.48.24-1 .48-1.56.6v3.28c.04 1.16-.16 3-.72 3.6-.12.12-.2.12-.24.12h-.84v-6.64c-.24.04-.52.04-.8.04-.24 0-.52 0-.76-.04v6.64h-1.8V43.8c-.56-.16-1.08-.36-1.56-.6v7.52c-.8-.12-1.24-.36-1.48-.52v-8.96c.48.08.96.12 1.44.12 1.52 0 3-.4 4.16-1.2 1.16.76 2.6 1.2 4.12 1.2 1.76 0 3.4-.56 4.64-1.56l-.96-1.2c-.96.76-2.28 1.2-3.68 1.2-1.36 0-2.68-.44-3.64-1.2l-.48-.4-.48.4c-.96.76-2.28 1.2-3.68 1.2-.48 0-.96-.04-1.44-.16V31.2c.4.08.8.12 1.24.16-.12.2-.2.4-.2.64 0 .68.56 1.2 1.2 1.2a1.203 1.203 0 001.12-1.64c.2 0 .4 0 .56.04.08 0 .16.04.28.12.24.2.4.68.4 1.36v4.52h3.04v-1.56h-1.48v-2.92c0-1.16-.32-2-.92-2.52-.56-.48-1.2-.52-1.48-.52-1.32-.08-2.6-.2-3.76-.4V28.4c2.28-.56 5.52-.92 9-.92 1.2 0 2.36.04 3.48.12 0 .2 0 .84.04 1.72-1.48.4-3.32.64-5.32.76l.08 1.56c.64-.04 1.24-.08 1.84-.12-.08.16-.16.36-.16.56 0 .68.56 1.2 1.2 1.2.68 0 1.2-.56 1.2-1.2 0-.32-.12-.6-.32-.84.56-.08 1.08-.2 1.6-.32.36 3.28 1.48 8 5.04 9 .52 1.72 1.24 5.44 0 7.12-.28.36-.6.64-1.04.76 1.04-2.08.2-5.88.12-6.36l-.12-.6h-.6c-2.08 0-4.24 1.64-4.36 4.36v.68c0 .44.04.96.04 1.32-.08 1.12-.4 2-1 2.56zm3.68-2.12c-.68-.36-1.2-1.08-1.24-1.92v-.36c.08-1.64 1.08-2.64 2.24-2.92.28 1.64.44 4-.28 4.88-.2.24-.4.32-.72.32zm7.76-2.76c.8-3.6-.8-7.96-.88-8.16l-.16-.4-.44-.08c-1.76-.28-2.96-1.56-3.56-3.72-.48-1.68-.48-3.44-.44-4.36.4.08.8.16 1.16.24.08 2.48.44 6.32 4.32 6.92.48 1.48 1.88 6.36 0 9.56z"/><path d="M122.36 41.28c.6 1.08 1.6 1.8 2.72 1.8s2.12-.72 2.72-1.8c-.8.36-1.72.56-2.72.56-.96 0-1.88-.2-2.72-.56z"/></g><path d="M13.84 22.52v3.8c0 4.68-2.28 7.24-6.88 7.24H4.8V44.6H.2V15.28H7c4.6 0 6.84 2.56 6.84 7.24zM4.8 19.48v9.96H7c1.48 0 2.28-.68 2.28-2.76v-4.4c0-2.08-.8-2.76-2.28-2.76H4.8v-.04zm21.36 8.16h6.32v4.2h-6.32v8.6h7.96v4.2h-12.6V15.28h12.6v4.2h-7.96v8.16zm22.36 5.28l-1.44 2.68v9h-4.6V15.28h4.6v12.8l6.04-12.8h4.6l-6.4 13.08 6.4 16.28H53l-4.48-11.72zm31.6 11.72h-4.64l-.8-5.32H69l-.8 5.32h-4.24l4.68-29.36h6.76l4.72 29.36zM69.6 35.32h4.44L71.8 20.48l-2.2 14.84zm26.72 9.32V36.4c0-2.72-.92-3.72-3-3.72h-1.6v11.96h-4.6V15.28h6.96c4.8 0 6.84 2.24 6.84 6.76v2.32c0 3.04-.96 5-3.04 5.96 2.32.96 3.08 3.2 3.08 6.24v8.12h-4.64v-.04zm-4.64-25.16v9h1.8c1.72 0 2.76-.76 2.76-3.12v-2.88c0-2.08-.72-3.04-2.36-3.04h-2.2v.04zm72.12-4.56c4.48 0 6.8 2.68 6.8 7.4v.92h-4.36v-1.2c0-2.08-.84-2.88-2.32-2.88s-2.32.8-2.32 2.88c0 6.04 9 7.16 9 15.56 0 4.68-2.36 7.4-6.88 7.4s-6.88-2.68-6.88-7.4v-1.8h4.36v2.08c0 2.08.92 2.84 2.4 2.84s2.4-.76 2.4-2.84c0-6.04-9-7.16-9-15.56 0-4.68 2.32-7.4 6.8-7.4zm12.12.36h14.28v4.2h-4.84v25.16h-4.6V19.48h-4.84v-4.2zm34.4 29.36h-4.64l-.8-5.32h-5.68l-.8 5.32h-4.24l4.68-29.36h6.76l4.72 29.36zm-10.52-9.32h4.44L202 20.48l-2.2 14.84zm22.76-20.4c4.48 0 6.8 2.68 6.8 7.4v.92H225v-1.2c0-2.08-.84-2.88-2.32-2.88s-2.32.8-2.32 2.88c0 6.04 9 7.16 9 15.56 0 4.68-2.36 7.4-6.88 7.4s-6.88-2.68-6.88-7.4v-1.8h4.4v2.08c0 2.08.92 2.84 2.4 2.84s2.4-.76 2.4-2.84c0-6.04-9-7.16-9-15.56 0-4.68 2.28-7.4 6.76-7.4z" fill="#FFF"/></g></svg>