<svg width="34" height="34" xmlns="http://www.w3.org/2000/svg"><g fill="none" fill-rule="evenodd"><path d="M32.46 20.126a18.2 18.2 0 00.29-3.1C32.75 8.19 25.644.994 16.864.994c-1.04 0-2.079.117-3.06.292C12.417.468 10.858 0 9.183 0 4.1 0 0 4.154 0 9.303c0 1.696.462 3.334 1.27 4.68a18.2 18.2 0 00-.288 3.1c0 8.894 7.104 16.09 15.884 16.09 1.04 0 2.079-.117 3.06-.292 1.33.819 2.946 1.053 4.621 1.053 5.025 0 8.953-3.979 8.953-9.127 0-1.697-.289-3.277-1.04-4.68" fill="#00B5EB"/><path d="M17.154 28.142c-5.66 0-8.49-2.165-9.357-4.856-.866-2.692 1.04-3.452 1.618-3.51.577-.06 1.848.116 2.252 1.228.405 1.17 1.617 3.452 4.332 3.744 2.715.293 4.505-.994 5.025-2.282.52-1.345-.462-3.159-4.62-3.744-4.16-.585-8.549-2.457-8.549-6.728s4.852-5.968 9.415-5.968c4.563 0 6.873 2.633 7.393 3.628.635 1.287.404 3.393-1.097 3.744-1.56.41-2.369-.468-3.524-2.633-1.155-2.223-5.371-1.638-6.757-.41-1.387 1.288-1.04 3.102 4.851 4.213 5.834 1.17 8.029 3.276 8.029 6.67-.058 3.335-3.35 6.904-9.01 6.904" fill="#FFF"/></g></svg>