<svg width="48" height="30" xmlns="http://www.w3.org/2000/svg"><g fill="none" fill-rule="evenodd"><path d="M28.635 15.069c0 7.928-6.394 14.354-14.281 14.354C6.466 29.423.072 22.997.072 15.07.072 7.14 6.466.714 14.354.714c7.887 0 14.281 6.427 14.281 14.355" fill="#C00"/><path d="M33.528.714a14.19 14.19 0 00-9.588 3.715 14.6 14.6 0 00-1.442 1.52h2.886c.394.482.757.99 1.088 1.52H21.41c-.303.488-.578.995-.823 1.52h6.709c.23.493.43 1 .605 1.52h-7.918a14.349 14.349 0 00-.415 1.52h8.747a14.531 14.531 0 01-.414 7.6h-7.918c.173.52.375 1.028.604 1.52h6.709c-.245.524-.52 1.032-.824 1.52H21.41c.33.53.694 1.038 1.09 1.52h2.884c-.444.54-.926 1.049-1.443 1.52a14.188 14.188 0 009.588 3.714c7.887 0 14.28-6.426 14.28-14.354 0-7.928-6.393-14.355-14.28-14.355" fill="#F90"/><path d="M11.019 16.64a2.654 2.654 0 00-.346-.024c-.88 0-1.324.303-1.324.901 0 .37.217.603.556.603.632 0 1.087-.604 1.114-1.48zm1.128 2.639h-1.285l.03-.614c-.393.485-.916.716-1.626.716-.84 0-1.416-.66-1.416-1.617 0-1.442 1.002-2.283 2.722-2.283.176 0 .401.016.632.045a1.47 1.47 0 00.06-.384c0-.392-.27-.539-.994-.539a5.146 5.146 0 00-1.641.267l.215-1.332c.772-.228 1.282-.313 1.855-.313 1.332 0 2.037.6 2.036 1.736.002.305-.048.68-.126 1.174-.134.857-.423 2.696-.462 3.144zm-4.946 0h-1.55l.888-5.597-1.984 5.597H3.5l-.13-5.566-.934 5.566H.984l1.212-7.282h2.23l.134 4.076 1.36-4.076H8.4L7.201 19.28m28.242-2.64a2.641 2.641 0 00-.345-.024c-.88 0-1.323.303-1.323.901 0 .37.216.603.555.603.631 0 1.087-.604 1.113-1.48zm1.129 2.639h-1.285l.03-.614c-.393.485-.915.716-1.625.716-.841 0-1.417-.66-1.417-1.617 0-1.442 1.003-2.283 2.722-2.283.176 0 .4.016.632.045a1.46 1.46 0 00.06-.384c0-.392-.27-.539-.994-.539a5.156 5.156 0 00-1.642.267c.017-.098.217-1.332.217-1.332.771-.228 1.282-.313 1.854-.313 1.333 0 2.037.6 2.036 1.736.002.305-.048.68-.126 1.174-.134.857-.423 2.696-.462 3.144zm-17.535-.09c-.425.134-.755.192-1.114.192-.792 0-1.225-.458-1.225-1.301-.011-.262.114-.95.212-1.578.09-.553.673-4.041.673-4.041h1.54l-.18.896h.932l-.21 1.423h-.934c-.18 1.126-.435 2.53-.438 2.715 0 .306.162.439.531.439.177 0 .314-.018.418-.056l-.205 1.31m4.725-.048c-.53.163-1.04.243-1.581.241-1.726-.002-2.625-.907-2.625-2.642 0-2.024 1.144-3.514 2.698-3.514 1.27 0 2.082.834 2.082 2.142 0 .435-.056.859-.19 1.457h-3.07c-.103.86.444 1.217 1.34 1.217.552 0 1.05-.115 1.603-.372l-.257 1.472zm-.866-3.51c.009-.123.163-1.057-.718-1.057-.49 0-.841.376-.984 1.058h1.702zm-9.82-.4c0 .748.362 1.264 1.18 1.652.629.297.726.385.726.654 0 .369-.277.536-.89.536a4.35 4.35 0 01-1.39-.234l-.213 1.368c.353.077.667.148 1.614.175 1.636 0 2.391-.626 2.391-1.98 0-.813-.316-1.29-1.092-1.65-.65-.3-.725-.366-.725-.643 0-.32.258-.483.758-.483.305 0 .72.032 1.115.088l.22-1.373a10.415 10.415 0 00-1.364-.115c-1.735 0-2.335.91-2.33 2.004m18.227-1.848c.43 0 .833.113 1.385.393l.254-1.58c-.228-.09-1.027-.616-1.704-.616-1.037 0-1.915.518-2.532 1.371-.9-.3-1.27.306-1.723.91l-.403.094a3.04 3.04 0 00.05-.596h-1.425c-.194 1.833-.539 3.69-.809 5.523l-.07.399h1.55c.26-1.691.401-2.774.487-3.507l.585-.325c.087-.327.36-.437.908-.423-.072.386-.11.793-.11 1.213 0 1.938 1.04 3.144 2.709 3.144.43 0 .8-.057 1.37-.213l.273-1.66c-.515.254-.935.374-1.317.374-.901 0-1.447-.669-1.447-1.774 0-1.604.81-2.727 1.969-2.727m13.127-1.384l-.345 2.104c-.423-.56-.879-.967-1.48-.967-.782 0-1.494.597-1.96 1.475-.65-.136-1.32-.366-1.32-.366l-.001.006c.051-.491.073-.79.068-.892h-1.424c-.194 1.833-.539 3.69-.808 5.523l-.072.399h1.552c.21-1.367.37-2.503.487-3.403.53-.481.796-.9 1.33-.873a5.099 5.099 0 00-.375 1.921c0 1.48.745 2.457 1.872 2.457.569 0 1.005-.197 1.43-.654l-.073.551h1.467l1.18-7.28H44.43zm-1.94 5.914c-.527 0-.794-.394-.794-1.168 0-1.164.5-1.989 1.202-1.989.533 0 .822.408.822 1.16 0 1.174-.508 1.997-1.23 1.997z" fill="#006"/><path fill="#FFF" d="M7.647 18.847h-1.55l.888-5.597-1.983 5.597H3.945l-.13-5.565-.934 5.565H1.43l1.212-7.281h2.23l.062 4.507 1.504-4.507h2.408l-1.199 7.28m3.818-2.637a2.565 2.565 0 00-.346-.024c-.879 0-1.323.302-1.323.9 0 .369.217.604.555.604.632 0 1.087-.604 1.114-1.48zm1.128 2.638h-1.285l.03-.614c-.392.485-.915.716-1.625.716-.84 0-1.417-.66-1.417-1.618 0-1.442 1.002-2.282 2.722-2.282.176 0 .401.016.632.046.048-.196.06-.279.06-.385 0-.392-.27-.537-.993-.537a5.127 5.127 0 00-1.642.265c.017-.098.215-1.331.215-1.331.773-.228 1.282-.314 1.856-.314 1.331 0 2.036.601 2.035 1.736.003.305-.047.68-.125 1.174-.135.856-.424 2.697-.463 3.144zm20.795-7.085l-.254 1.58c-.553-.28-.954-.393-1.385-.393-1.157 0-1.97 1.125-1.97 2.728 0 1.105.546 1.773 1.448 1.773.382 0 .804-.119 1.317-.373l-.273 1.659c-.57.156-.94.213-1.37.213-1.67 0-2.709-1.206-2.709-3.143 0-2.603 1.437-4.422 3.492-4.422.677 0 1.477.288 1.704.378m2.502 4.447a2.546 2.546 0 00-.346-.024c-.878 0-1.323.302-1.323.9 0 .369.217.604.555.604.632 0 1.087-.604 1.113-1.48zm1.128 2.638h-1.285l.03-.614c-.392.485-.915.716-1.625.716-.841 0-1.416-.66-1.416-1.618 0-1.442 1-2.282 2.721-2.282.176 0 .4.016.632.046.048-.196.06-.279.06-.385 0-.392-.269-.537-.994-.537a5.13 5.13 0 00-1.64.265l.214-1.331c.773-.228 1.282-.314 1.856-.314 1.33 0 2.037.601 2.035 1.736.003.305-.047.68-.125 1.174-.135.856-.424 2.697-.463 3.144zm-17.535-.09c-.424.134-.755.192-1.114.192-.792 0-1.225-.458-1.225-1.3-.01-.263.114-.95.213-1.579.09-.553.672-4.04.672-4.04h1.541l-.18.896h.791l-.21 1.422h-.794c-.18 1.127-.435 2.53-.438 2.715 0 .307.163.439.532.439.176 0 .313-.017.418-.056l-.206 1.31m4.726-.046c-.53.163-1.041.24-1.582.24-1.726-.002-2.624-.908-2.624-2.642 0-2.025 1.144-3.515 2.696-3.515 1.272 0 2.083.834 2.083 2.144 0 .434-.056.857-.19 1.455h-3.069c-.104.86.443 1.218 1.34 1.218.55 0 1.049-.115 1.602-.373l-.256 1.473zm-.866-3.512c.008-.124.163-1.057-.718-1.057-.49 0-.842.377-.985 1.057h1.703zm-9.821-.401c0 .75.362 1.265 1.181 1.654.628.297.725.385.725.654 0 .369-.277.535-.89.535-.463 0-.893-.072-1.39-.233l-.212 1.367c.352.077.666.148 1.613.175 1.636 0 2.392-.626 2.392-1.979 0-.814-.317-1.291-1.093-1.65-.65-.3-.725-.366-.725-.643 0-.32.258-.485.76-.485.303 0 .719.034 1.113.09l.22-1.373a10.501 10.501 0 00-1.364-.116c-1.735 0-2.335.91-2.33 2.004m31.702 4.05h-1.467l.073-.551c-.425.456-.861.653-1.43.653-1.126 0-1.872-.976-1.872-2.457 0-1.97 1.156-3.63 2.523-3.63.601 0 1.057.247 1.48.808l.345-2.104h1.529l-1.181 7.28zm-2.288-1.369c.723 0 1.23-.822 1.23-1.995 0-.752-.289-1.161-.822-1.161-.703 0-1.202.825-1.202 1.99 0 .775.267 1.166.794 1.166zm-4.522-4.552c-.194 1.832-.538 3.688-.808 5.522l-.07.399h1.55c.555-3.621.688-4.328 1.558-4.24.139-.741.397-1.39.589-1.717-.65-.136-1.012.233-1.488.934.038-.304.107-.598.094-.898h-1.425m-12.762 0c-.195 1.832-.54 3.688-.81 5.522l-.07.399h1.551c.555-3.621.688-4.328 1.557-4.24.14-.741.398-1.39.59-1.717-.65-.136-1.013.233-1.487.934.037-.304.106-.598.093-.898h-1.424"/></g></svg>