<svg width="96" height="96" xmlns="http://www.w3.org/2000/svg"><g fill="none" fill-rule="evenodd"><path d="M78.591 40.699c.938 0 2.742 4.198 3.165 5.578.294.94-.02 3.126-1.052 4.007-.4.35-.824.669-1.27.957-.073.062-.167.056-.267.144-.161.14-.147.411-.126.784a4.125 4.125 0 01-.473 1.685 15.052 15.052 0 01-3.788 4.586c-2.298 1.884-4.055 3-7.414 1.359-1.469-.708-1.328-3.13-.094-4.11a1.44 1.44 0 01-.035.258c-.197.737.359 1.233.423 1.174a.17.17 0 000-.234c-.211-.2-.14-.573-.088-.881.025-.114.04-.23.041-.347.454-.773.96-1.515 1.516-2.219.923-1.174 2.184-2.487 3.544-3.08 1.36-.593 1.763-.587 1.92-.587.22 0 .258-.064.434-.317.065-.09.15-.217.273-.384.94-1.283.99-1.598.444-2.798-.314-.696-.2-1.404.091-1.688a.388.388 0 01.479-.07c.573.293 1.47 2.448 1.56 2.418a.167.167 0 00.106-.208c-.073-.214-.717-2.117-1.519-2.51-.141-.07 0-.088-.141-.07 0 0-.514-1.5.08-2.032.234-.209.587-.247 1.045-.115.294.088.94 1.25 1.176 1.688l.09.165.212.373a13.64 13.64 0 011.176 2.448c.244.734.064 1.298.144 1.342a.165.165 0 00.22-.073c0-.021.241-.494-.05-1.375a14.233 14.233 0 00-1.202-2.51l-.211-.37-.091-.161a7.611 7.611 0 00-.852-1.389c0-.258-.186-.954-.039-1.174a.688.688 0 01.573-.264z" fill="#FBC4B1"/><path d="M68.985 61.226c-.12.326-.916.833-1.378.833a.647.647 0 01-.232-.044 1.06 1.06 0 01-.505-.42 1.998 1.998 0 01-.165-.989l2.28.62z" fill="#EAF7FC"/><path d="M58.298 55.448a.164.164 0 00.085.214.367.367 0 01.177.247c.047.211-.835 1.867-.764 1.929a.164.164 0 00.103.035.17.17 0 00.129-.062c.685-.842.97-1.512.846-1.993a.664.664 0 00-.364-.46.165.165 0 00-.212.09zm-11.716-7.26a7.692 7.692 0 011.86-1.885 2.2 2.2 0 00-.179.408 5.386 5.386 0 00-.27 1.439 4.312 4.312 0 00.15 1.62c.197.495.48.951.834 1.348.015.09.444 2.492 2.451 3.655.855.474 1.82.712 2.797.69 1.15 0 2.845-.215 4.238-.995.219-.027.435-.072.646-.136v.03c.15.268.37.49.638.643l.073.044c.432.308.94.49 1.47.528h.064c.929-.026 1.681-.52 1.763-1.068.044-.294.2-.47.95-1.034a5.254 5.254 0 001.545-1.761c.106-.18.218-.358.353-.564.511-.778.62-2.105.47-2.918a3.39 3.39 0 011.91.88c.245.256.423.568.52.908.2.705.713 1.28 1.393 1.556a19.433 19.433 0 00-3.094 3.775 1.04 1.04 0 00-.57.32 6.914 6.914 0 00-.635.866l-.132.2c-.647.948-.021 3.893.167 4.697h-.917a.124.124 0 00-.056 0c-.032-.995-.123-3.881-.176-4.345-.067-.587-.802-1.397-.831-1.43a.168.168 0 00-.236 0c-.067.065.547.802.588 1.512.044.538.206 3.523.144 4.698a6.747 6.747 0 01-.646 3.02c-1.22 2.517-3.903 3.68-4.487 3.943-.488.22-1.993.978-2.868 1.101-.876.124-3.092.259-4.346-.1a24.231 24.231 0 00-5.657-.736c-1.657.023-3.938-.638-5.051-2.836a.044.044 0 000-.018 3.444 3.444 0 01-.082-2.413 2.56 2.56 0 01.155-.514c.432-.83 1.15-1.7 3.632-3.564.35-.241.675-.517.97-.822h1.37l1.542-1.468a.167.167 0 000-.235c-.065-.064-1.68 1.386-1.68 1.386h-1c.04-.067.078-.14.118-.217a7.334 7.334 0 00.81-4.337c-.132-.998-1.13-1.667-1.175-1.693a.162.162 0 00-.229.046c-.05.077.958.84 1.073 1.691.235 1.762-.112 3.171-.782 4.146-.67.974-.958.972-1.763 1.544-1.176.84-2.592 1.867-3.11 3.115h-.552c-.143-.587-.796-3.291-1.522-4.891a1.498 1.498 0 00-.076-.156c-.238-.499-.485-.88-.723-.992h-.03c.727-.364 1.555-.757 2.11-1.265a31.372 31.372 0 004.508-5.091c.517-.76 1.12-1.73 1.563-2.325zm10.388 8.276a.167.167 0 00-.212-.256l-2.368 1.964a.164.164 0 00-.02.232c.032.039 2.597-1.94 2.597-1.94h.003z" fill="#FFF"/><path d="M64.68 64.702c.25.842.444 2.137.485 4.403.053 3.206-.587 5.913-1.36 7.255-.732 1.274-.802 1.409-1.322 1.632-.397.167-2.44-.235-4.438-1.72a10.105 10.105 0 01-1.654-1.527 3.228 3.228 0 01-.344-.713.15.15 0 00.039 0l1.786.082 3.109-1.741a.164.164 0 00.07-.206c-.276.044-3.232 1.498-3.232 1.498l-1.857.04h-.015s-11.016-.763-11.06-.27c-.044.494.55.203.999.508l.12.086c.322.23.61.504.853.816-.044.047-.232.182-1.032.188-1.26.003-2.518.109-3.761.317h-.038l-.03.023c-2.876 2.19-4.754 1.286-5.477.752a2.697 2.697 0 01-.355-.294 2.59 2.59 0 00-.03-.587 1.072 1.072 0 00-.358-.355 3.96 3.96 0 00-1.47-.628 6.59 6.59 0 01-2.533-1.175 4.7 4.7 0 01-.928-.828c-.082-.126-.294-.763.482-1.855.917-1.28 2.706-3.127 4.014-3.913l5.909.138a.044.044 0 000 .017h.02a3.298 3.298 0 001.258 1.52 7.48 7.48 0 003.92 1.257h.068c1.875.023 3.74.265 5.56.723 1.006.236 2.039.345 3.073.325.484.006.968-.02 1.449-.076.825-.117 2.03-.778 2.938-1.048 1.276-.382 4.329-2.545 5.028-4.421.019-.054.042-.106.068-.156 0-.02 0-.047.023-.097l.018.065s0-.018.006-.035zM50.035 40.408c-.605-.294-2.841-1.541-3.303-3.408-.24-.984.044-2.003.852-3.033.474-.602 1.005-.925 1.578-.951.947-.047 1.937.531 2.057.605a2.476 2.476 0 00-.255-.232 3.303 3.303 0 00-.661-.435c-.094-.314-.482-1.805.22-2.96.447-.739 1.26-1.206 2.412-1.382 1.97-.293 2.742.062 3.045.417.18.22.257.507.208.787a4.865 4.865 0 00-.76 2.055v.03c.274-.64.598-1.256.969-1.844.224-.358.514-.67.855-.92.858-.628 2.01-.792 3.418-.487 1.295.294 2.18.866 2.624 1.741.802 1.594-.106 3.643-.115 3.664l.076-.076a3.747 3.747 0 00.673-2.143 3.54 3.54 0 012.104 2.134c.494 1.565-.14 3.602-1.9 6.077-.418-.772-1.987-3.268-5.1-3.817-6.734-1.28-8.665 3.221-8.997 4.178z" fill="#FFF"/><path d="M63.608 40.757l-.206.265c-.15-.317-.846-1.58-2.72-2.211a7.614 7.614 0 012.006.972c.374.255.687.587.92.974zM62.3 53.748a.663.663 0 11-1.293 0c0-.132.027-.263.08-.384a.65.65 0 01.57-.426c.398.052.683.41.643.81z" fill="#232323"/><path d="M61.654 54.556a.831.831 0 000-1.618.65.65 0 00-.57.426l-.814-.03c.276-.88-.097-2.128-.115-2.193a.165.165 0 00-.158-.117l.502-.573c.441.312.965.486 1.505.502.21 0 .418-.033.617-.1 1.272-.42 1.372-1.174 1.43-1.605v-.07c.086-.588-.07-1.407-.513-1.815a10.34 10.34 0 00-.911-.666l-.315-.22a.762.762 0 00.47-.13c.362-.293.391-.649.277-1.245a6.6 6.6 0 00-.086-.378 2.234 2.234 0 00-.681-1.175l.373-.055a5 5 0 01.446.349l.23.417c.039.215.065.433.079.652v.111l.109.035c.261.079.514.183.755.312.22.17.564.88.729 1.303v.026l.02.021c.34.37.657.763.946 1.174.253.485.294 2.152-.293 3.065-.139.209-.25.39-.359.573a4.884 4.884 0 01-1.47 1.667c-.74.558-1.007.793-1.078 1.248-.032.214-.487.54-.97.699l-.155-.59z" fill="#FBC4B1"/><path d="M61.01 44.99a1.443 1.443 0 01-.02-.231 1.47 1.47 0 01.311-1.036.444.444 0 01.294-.144c.318 0 .982.449 1.155 1.195.209.88.076 1.121-.167 1.32a.494.494 0 01-.262.054 1.373 1.373 0 01-.256-.027.792.792 0 00-.026-.88.85.85 0 00-.667-.473.43.43 0 00-.215.055.435.435 0 00-.147.168z" fill="#FFF"/><path d="M61.005 53.748c-.038.4.25.759.649.808l.182.587a1.841 1.841 0 01-.476.09 2.467 2.467 0 01-1.357-.478l-.077-.044a1.342 1.342 0 01-.502-.499c.167-.077.323-.175.464-.293.184-.154.32-.358.388-.588l.814.03a.948.948 0 00-.085.387z" fill="#FBC4B1"/><path d="M62.762 44.774c-.177-.749-.838-1.195-1.155-1.195a.444.444 0 00-.294.144 1.467 1.467 0 00-.311 1.036c0 .078.007.155.02.232a.435.435 0 01.153-.159.43.43 0 01.214-.055.85.85 0 01.668.472.792.792 0 01.026.88c.084.018.17.027.256.027.09.007.18-.011.261-.053.235-.208.382-.437.162-1.33zm.038 1.576a.762.762 0 01-.47.13l.314.22c.316.205.62.427.911.666.447.408.588 1.239.514 1.814v.07c-.061.444-.158 1.175-1.43 1.607a1.95 1.95 0 01-.618.1 2.752 2.752 0 01-1.504-.503 3.72 3.72 0 01-.388-.293c-.268-.244-.92-1.06-.946-1.095a.167.167 0 01.026-.235c.074-.053.882.857 1.143 1.083.185.167 1.146.984 2.183.643a1.835 1.835 0 001.223-1.406c.07-.49-.07-1.213-.414-1.524-.165-.15-.509-.384-.882-.64-.929-.643-1.596-1.121-1.728-1.468a2.173 2.173 0 01-.03-1.174c.039-.306.169-.594.374-.825a.753.753 0 01.54-.244c.266.02.515.133.706.317.344.312.582.722.682 1.175.032.135.061.261.085.378.1.555.07.908-.291 1.204z" fill="#232323"/><path d="M58.798 45.742c0 .494.229.881.537.881a.367.367 0 01-.258.106c-.8 0-1.414-.799-1.414-1.706 0-.51.191-1.782 1.052-1.782.406 0 .9.866.955 1.762a.423.423 0 00-.317-.15c-.317.009-.555.387-.555.89z" fill="#FFF"/><path d="M58.38 55.662a.164.164 0 01.127-.293.664.664 0 01.364.46c.124.482-.161 1.152-.846 1.994a.17.17 0 01-.13.062.165.165 0 01-.102-.035c-.074-.062.81-1.718.764-1.93a.367.367 0 00-.177-.258zm.955-9.036c-.293-.015-.537-.387-.537-.88 0-.494.238-.881.555-.881a.423.423 0 01.317.15c-.055-.902-.552-1.762-.955-1.762-.863 0-1.052 1.268-1.052 1.782 0 .907.615 1.706 1.414 1.706a.367.367 0 00.258-.115zm-.258.435c-.973 0-1.83-.949-1.83-2.035 0-1.292.47-2.034 1.286-2.034.644 0 1.47 1.062 1.47 2.193 0 .957-.194 1.447-.444 1.682.395.187.72.496.928.88a.164.164 0 01-.061.227.168.168 0 01-.083.023.165.165 0 01-.144-.085 3.454 3.454 0 00-.881-.913.709.709 0 01-.241.047v.015zm-2.11 9.403s-2.565 1.979-2.6 1.94a.164.164 0 01.02-.232l2.368-1.964a.168.168 0 01.212.256z" fill="#232323"/><path d="M51.598 54.485a4.924 4.924 0 01-2.171-2.895c.41.404.88.742 1.393 1.004.205.103.411.212.617.32a11.205 11.205 0 003.576 1.325l.18.026c.769.142 1.548.226 2.33.252-2.454.828-4.446.82-5.925-.032z" fill="#F9AD99"/><path d="M51.484 42.42l-.653-1c.056-.252.441-1.443 2.701-2.403l.082-.08c-1.954.831-2.788 1.635-2.994 2.155l-.33-.505c.183-.62 1.81-5.372 8.684-4.072 3.209.587 4.702 3.303 4.96 3.8-.103.14-.211.293-.326.434a3.134 3.134 0 00-.92-.966 7.605 7.605 0 00-1.992-.972c1.872.634 2.568 1.897 2.721 2.21-.097.124-.197.244-.294.368a2.717 2.717 0 00-.161-.165 4.313 4.313 0 00-.294-.252c-.861-.65-2.624-1.56-5.936-1.433-3.647.141-4.743 1.926-5.069 2.868l-.18.012z" fill="#EAF7FC"/><path d="M51.41 42.86a.721.721 0 01.135.211l-.135-.212zm-2.533 1.344c.027-.505.68-1.066.982-1.174a1.502 1.502 0 011.01-.08c.468.18.295.655.189.94a.212.212 0 01-.238.123c-.088-.03.22-.649-.068-.757a1.632 1.632 0 00-.925.073 1.03 1.03 0 00-.612.734c-.05.27.018.549.185.766a.69.69 0 00.526.2c.074 0 .086-.02.089-.03.076-.126-.083-.587-.274-.927a.167.167 0 01.065-.226c.08-.041.708.96.497 1.324a.4.4 0 01-.374.194 1.011 1.011 0 01-.764-.294.965.965 0 01-.288-.866z" fill="#232323"/><path d="M60.008 45.185c0-1.13-.831-2.193-1.469-2.193-.817 0-1.287.74-1.287 2.034 0 1.083.855 2.035 1.83 2.035a.709.709 0 00.256-.044c.348.247.647.556.882.913a.165.165 0 00.144.085.168.168 0 00.082-.024.164.164 0 00.062-.226 2.056 2.056 0 00-.929-.88c.235-.253.43-.74.43-1.7zm-11.13-.981a.965.965 0 00.293.846c.202.2.48.307.764.293a.4.4 0 00.373-.194c.212-.36-.42-1.365-.496-1.324a.167.167 0 00-.065.226c.194.347.35.802.273.928 0 0-.014.03-.088.03a.688.688 0 01-.526-.2.971.971 0 01-.185-.766c.071-.33.3-.604.611-.734.295-.114.617-.14.926-.074.294.109-.02.725.068.758a.213.213 0 00.238-.124c.097-.293.293-.763-.188-.94a1.503 1.503 0 00-1.011.08c-.318.126-.967.687-.988 1.195zm-.318.71c-.138-.21-.44-.824.644-1.723.881-.725 1.387-.728 1.974-.49a.67.67 0 01.238.158l.135.212c.08.201.109.419.083.634l-.065.411 4.346-1.676a8.935 8.935 0 00-.185 1.45l-.02.42 1.795-1.72.74-.25a80.442 80.442 0 012.307-.053h.453a2.27 2.27 0 00-.168.294l-.153.293 1.763-.293.235.431a1.72 1.72 0 01-.05.294l-.032.114.097.068-.373.055a1.138 1.138 0 00-.705-.317.753.753 0 00-.541.244 1.527 1.527 0 00-.373.825c-.098.387-.088.793.03 1.174.131.353.798.831 1.727 1.468.364.253.708.488.882.64.343.314.481 1.034.414 1.524a1.835 1.835 0 01-1.223 1.406c-1.037.34-1.998-.473-2.183-.643-.25-.226-1.07-1.139-1.143-1.083a.167.167 0 00-.026.235c.026.032.678.848.946 1.095.123.106.252.204.388.293l-.503.573a.135.135 0 00-.047 0c-.088.026.326 2.166-.27 2.642a1.952 1.952 0 01-.614.326c-1.129.379-2.806.106-3.82-.062l-.182-.03a10.77 10.77 0 01-3.488-1.23c-.212-.108-.42-.216-.626-.32a5.145 5.145 0 01-2.351-2.594 4.922 4.922 0 01-.294-1.56 4.452 4.452 0 01.188-1.356.88.88 0 01.338-.481c.038-.024.12-.076.203-.12.276-.156.543-.294.523-.523 0-.08-.056-.185-.244-.247a2.4 2.4 0 01-.776-.508h.006z" fill="#FBC4B1"/><path d="M37.987 62.168a5.73 5.73 0 001.781-.737.106.106 0 00.015.038c0 .018.826 1.835.57 2.434-.191.45-.344.799-.558.88a.588.588 0 01-.476-.081c-.415-.22-1.146-.987-1.332-2.534z" fill="#EAF7FC"/><path d="M38.425 57.236c.253.167.45.408.561.69l.068.144c.444 1.013.67 2.554.758 2.883.103.375-1.522.69-2.506.813-2.724.346-6.171-1.99-6.868-2.478l1.24-1.377c.55.187 1.127.286 1.708.294a6.803 6.803 0 001.199-.147l.14-.026c1.517-.288 3.647-.828 3.7-.796z" fill="#FBC4B1"/><path d="M58.974 36.524c-6.864-1.303-8.504 3.45-8.683 4.063l.329.5c.206-.52 1.04-1.325 2.994-2.156l-.082.08c-2.26.96-2.645 2.152-2.7 2.404l.652.998h.18c.325-.942 1.421-2.727 5.068-2.868 3.312-.132 5.075.778 5.906 1.412.118.094.215.18.294.253.068.064.12.117.162.164.1-.123.2-.244.294-.367l.205-.264c.115-.144.224-.294.327-.435-.236-.481-1.737-3.209-4.946-3.784zm-2.786-6.696a.977.977 0 00-.208-.787c-.294-.355-1.073-.714-3.045-.417-1.151.179-1.965.643-2.412 1.383-.702 1.153-.314 2.642-.22 2.959a3.303 3.303 0 01.916.655c-.12-.077-1.11-.655-2.057-.605-.573.026-1.104.35-1.578.951-.808 1.03-1.096 2.055-.852 3.033.462 1.864 2.698 3.1 3.303 3.408.332-.954 2.266-5.458 8.995-4.178 3.112.558 4.684 3.054 5.098 3.817 1.763-2.475 2.395-4.512 1.901-6.077a3.54 3.54 0 00-2.104-2.134c0 .766-.234 1.514-.673 2.143l-.076.076c0-.02.917-2.07.115-3.664-.444-.88-1.329-1.468-2.624-1.74-1.408-.294-2.557-.142-3.418.487-.34.251-.63.565-.852.924a13.5 13.5 0 00-.97 1.844v-.03a4.865 4.865 0 01.758-2.051l.003.003zM44.558 49.76c.508-.725.993-1.412 1.44-2.016a7.79 7.79 0 012.086-2.055 2.86 2.86 0 01.544-.259h.023a2.967 2.967 0 01-.338-.293l-.158-.182s-.553-.881.834-2.023c.163-.137.334-.263.514-.376a1.764 1.764 0 011.564-.232l-1.044-1.594c-.39-.182-3.04-1.491-3.579-3.66-.264-1.078.039-2.185.911-3.295.53-.675 1.135-1.036 1.802-1.066.27-.01.542.028.799.115-.138-.587-.344-1.888.314-2.977.497-.819 1.381-1.336 2.627-1.52 1.696-.259 2.812-.086 3.32.519.148.173.236.388.253.614.181-.21.385-.4.609-.564.931-.681 2.165-.863 3.658-.54 1.393.293 2.35.94 2.83 1.905.194.392.313.818.35 1.254.411.138 1.895.74 2.41 2.369.62 1.967-.421 4.603-3.095 7.835l-.02.027c.095.28.164.57.205.863v1.08l.08.082-.356.083a5.145 5.145 0 00-.453-.35l-.097-.067.033-.115c.025-.096.041-.194.05-.293l-.235-.432-1.764.294.153-.294s.068-.123.168-.293h-.453c-.62 0-1.493.026-2.307.052l-.74.25-1.795 1.72.02-.42c.022-.487.084-.972.185-1.45l-4.343 1.653.065-.41a1.3 1.3 0 00-.082-.635.661.661 0 00-.373-.37c-.588-.238-1.103-.235-1.975.49-1.082.899-.782 1.512-.644 1.724.224.216.487.386.776.502.188.064.235.167.244.246.02.217-.244.364-.523.523-.083.044-.162.097-.203.12a.88.88 0 00-.338.482l-.247-.083a2.2 2.2 0 01.18-.408 7.692 7.692 0 00-1.86 1.885c-.444.587-1.044 1.568-1.552 2.293a31.372 31.372 0 01-4.508 5.09c-.558.509-1.384.902-2.11 1.266h.03c.238.123.485.49.723.992l-.18.085a1.486 1.486 0 00-.56-.69c-.054-.029-2.178.508-3.7.793l-.05-.273c1.49-.28 2.922-.807 4.237-1.562.445-.26.864-.564 1.249-.907 1.457-1.303 3.018-3.52 4.396-5.502z" fill="#232323"/><path d="M23.71 55.196c.35.454.784.839 1.278 1.133-.535-.015-2.592-.13-3.136-1.007-.62-1.001.024-2.836.735-3.294a.976.976 0 01.731-.162.458.458 0 01.294.241c.15.294.088.573 0 .969a3.4 3.4 0 00.097 2.12z" fill="#FBC4B1"/><path d="M22.408 51.743c-.682.438-1.29 1.9-1.088 3.05a.162.162 0 00-.094-.044c-.017 0-.461-.061-.864-.751-.326-.56-.2-1.175-.076-1.788.035-.167.073-.344.097-.514.1-.687 1.572-1.814 1.763-1.888a.588.588 0 01.573.43c.12.411.16.843.118 1.27a.1.1 0 000 .05c-.152.04-.297.102-.43.185z" fill="#FBC4B1"/><path d="M21.018 49.198c.4.502.293.748.293.748a.138.138 0 00-.023.086v.014c-.529.45-1.146 1.095-1.222 1.612a8.894 8.894 0 01-.092.493 6.133 6.133 0 00-.132.831 1.227 1.227 0 01-.643-1.127 5.489 5.489 0 01.552-2.431c.2-.252.492-.415.811-.452.18-.004.35.08.456.226z" fill="#FBC4B1"/><path d="M19.44 49.265c-.259-.41-2.14-3.432-2.513-4.932-.373-1.5-.217-2.146-.294-2.207a.168.168 0 00-.176-.027.103.103 0 00-.035.027c-.047.05-.432.534-.082 2.075l-.027-.015v.027a2.464 2.464 0 00-1.249-.264c-.905.029-1.384-.902-1.504-1.175.496-.687 3.981-5.516 4.84-7.186.286-.606.518-1.236.693-1.882.444-1.468 1.296-2.907 3.02-4.774 1.726-1.867 4.138-4.224 5.96-5.666.247-.194.95-.658 1.933-1.248 2.69-1.606 7.494-4.166 10.644-4.624.775-.111 2.48-.496 3.352-.587 4.214-.458 9.348-1.118 16.75 2.478 9.853 4.791 15.013 11.843 17.216 15.621l.056.1.115-.02c.03 0 2.991-.54 4.114 0 .123.055.126.114.126.138.02.478-1.59 1.647-2.806 2.369l-.132.082-.118.07.076.141s.447.881-.094 2.971l-.014-.014a.088.088 0 010 .026 1.117 1.117 0 00-.708-.373h-.027a1.213 1.213 0 00-.588.156.796.796 0 00-.226.223c-.161.29-.198.631-.103.948l-.026-.014v.026a.391.391 0 00-.109-.05 1.47 1.47 0 00-1.216.08 1.17 1.17 0 00-.124.096c-.682.605-.5 2.135-.464 2.39a.661.661 0 00-.103.085c-.367.358-.552 1.2-.162 2.055.121.234.22.479.294.731a8.308 8.308 0 01-2.112 1.873 4.594 4.594 0 01-1.543.643c-2.245-.27-3.259-.936-4.079-1.468a8.23 8.23 0 00-.737-.449c-.882-.45-1.866-1.703-2.087-1.99.105-.455.135-.924.088-1.389-.114-.722-1.607-.572-1.763-.558l-.079-.082V42.61a4.694 4.694 0 00-.206-.863l.02-.027c2.675-3.229 3.715-5.871 3.095-7.835-.514-1.627-1.998-2.228-2.41-2.37a3.491 3.491 0 00-.346-1.253c-.485-.963-1.437-1.603-2.83-1.905-1.493-.323-2.727-.141-3.658.54a3.648 3.648 0 00-.609.564 1.074 1.074 0 00-.25-.617c-.508-.602-1.624-.778-3.32-.52-1.246.188-2.13.702-2.627 1.521-.658 1.086-.452 2.399-.314 2.977a2.223 2.223 0 00-.8-.114c-.667.029-1.272.39-1.8 1.065-.882 1.11-1.176 2.214-.912 3.294.54 2.17 3.188 3.48 3.58 3.661l1.042 1.594a1.764 1.764 0 00-1.563.232 4.587 4.587 0 00-.523.382c-1.387 1.154-.84 2.01-.834 2.023l.158.182c.105.106.218.204.338.293h-.023a2.86 2.86 0 00-.544.258 7.79 7.79 0 00-2.086 2.056c-.447.601-.929 1.288-1.44 2.016-1.378 1.967-2.939 4.199-4.408 5.523a7.754 7.754 0 01-1.249.907 13.525 13.525 0 01-4.237 1.562l-.138.026c-.382.071-.77.106-1.158.103a5.364 5.364 0 01-1.578-.256 50.593 50.593 0 012.325-2.193c.07-.061.105-.217.017-.235-.2 0-.393.065-.552.185-1.31.799-4.055 3.817-5.434 6.104l-.017.023c-.326-1.021-1.22-3.687-1.916-4.68h.032v-.017c.065.012.131.017.197.018.233-.003.46-.065.661-.182a1.64 1.64 0 00.247-.168c.07-.055.106-.267.024-.232-.788.338-1.176.235-1.176.227-.08-.033-.264.023-.294 0l-.097-.053c-.529-.294-1.33-.587-1.79-1.283 0 0-.19-1.468-.078-1.982a1.67 1.67 0 00-.03-1.189.8.8 0 00-.508-.41 1.006 1.006 0 00-.253-.03 3.664 3.664 0 00-.141-1.398c-.203-.493-.693-.728-.999-.61l-.05.026c-.07.041-.176.112-.294.206l-.02.014a1.505 1.505 0 00-.365-.76.882.882 0 00-.734-.35 1.303 1.303 0 00-.635.206 1.519 1.519 0 00-.417.373v.018l-.05.008z" fill="#E65A3F"/><path d="M37.987 62.168c.188 1.55.917 2.313 1.343 2.542.14.095.313.125.476.083.215-.077.368-.426.559-.881.255-.587-.562-2.416-.57-2.434a.106.106 0 01-.027-.047 5.73 5.73 0 01-1.78.737zm29.62-.106c.462 0 1.258-.508 1.378-.833l-2.283-.617c-.03.339.027.679.165.99.12.19.297.336.505.42a.647.647 0 00.235.04zm10.411-21.114c-.144.215.039.91.039 1.175.333.43.618.896.852 1.388l.09.162.212.37c.482.795.885 1.636 1.202 2.51.294.88.065 1.353.05 1.374a.165.165 0 01-.22.073c-.082-.041.1-.605-.144-1.342a13.643 13.643 0 00-1.176-2.448l-.211-.393-.091-.165c-.241-.437-.882-1.6-1.176-1.688-.458-.132-.81-.094-1.046.115-.587.53-.08 2.016-.08 2.031 0 .015 0 0 0 0 .136-.018 0 0 .142.07.802.391 1.449 2.296 1.52 2.51a.167.167 0 01-.107.21c-.088.028-.987-2.141-1.56-2.42a.388.388 0 00-.479.07c-.294.294-.405.993-.091 1.689.547 1.2.497 1.514-.444 2.797-.123.168-.211.294-.273.385-.176.252-.215.314-.435.317-.167 0-.567 0-1.919.587-1.351.587-2.62 1.908-3.544 3.08a19.396 19.396 0 00-1.516 2.22 1.74 1.74 0 01-.04.346c-.054.293-.124.675.087.88a.17.17 0 010 .235c-.064.068-.617-.428-.423-1.174a1.44 1.44 0 00.035-.258c-1.234.986-1.363 3.408.094 4.11 3.356 1.64 5.116.528 7.414-1.36a15.052 15.052 0 003.788-4.585 4.125 4.125 0 00.473-1.685c-.02-.373-.035-.643.126-.784.1-.088.197-.085.268-.144.445-.288.87-.608 1.27-.957 1.03-.88 1.342-3.068 1.051-4.008-.423-1.373-2.224-5.578-3.165-5.578a.688.688 0 00-.573.282v.003zM49.43 51.59a4.924 4.924 0 002.171 2.895c1.47.852 3.468.863 5.927.03a15.857 15.857 0 01-2.33-.253l-.18-.026a11.205 11.205 0 01-3.578-1.319c-.209-.108-.415-.217-.617-.32a5.689 5.689 0 01-1.396-1.01l.003.003zm8.621 24.661c1.996 1.486 4.038 1.888 4.437 1.72.52-.223.588-.358 1.323-1.632.773-1.345 1.413-4.048 1.36-7.254-.04-2.258-.235-3.55-.485-4.404v.041l-.017-.064c0 .047-.018.076-.024.096-.026.05-.048.103-.067.156-.7 1.873-3.753 4.037-5.028 4.421-.91.27-2.113.931-2.938 1.048-.481.057-.965.082-1.45.077a12.42 12.42 0 01-3.073-.326 23.964 23.964 0 00-5.56-.722h-.067a7.48 7.48 0 01-3.938-1.225 3.298 3.298 0 01-1.257-1.52h-.03a.044.044 0 010-.018l-5.909-.138c-1.308.787-3.097 2.642-4.014 3.914-.787 1.095-.564 1.729-.482 1.855a4.7 4.7 0 00.929.828 6.59 6.59 0 002.533 1.174 3.96 3.96 0 011.469.628c.146.089.269.21.358.356.032.194.042.39.03.587.11.108.229.206.355.293.72.538 2.6 1.442 5.478-.751l.03-.024h.037a23.129 23.129 0 013.762-.317c.799 0 .987-.138 1.031-.188a4.139 4.139 0 00-.852-.816l-.12-.085c-.45-.293-1.04-.015-1-.508.041-.493 11.06.27 11.06.27h.015l1.858-.04s2.959-1.454 3.232-1.498a.164.164 0 01-.07.205l-3.11 1.741-1.786-.082a.15.15 0 01-.038 0c.084.251.2.49.343.714.501.56 1.063 1.064 1.675 1.5v-.012zM22.587 52.037c-.711.458-1.358 2.293-.735 3.294.547.88 2.604.992 3.136 1.007a4.562 4.562 0 01-1.279-1.134 3.4 3.4 0 01-.085-2.116c.085-.397.147-.684 0-.97a.458.458 0 00-.294-.24.976.976 0 00-.743.159zM21.3 49.955s.117-.243-.294-.748a.547.547 0 00-.464-.226c-.32.037-.612.2-.811.452a5.489 5.489 0 00-.553 2.43 1.23 1.23 0 00.644 1.128c.025-.28.069-.557.132-.831.032-.17.067-.335.091-.493.076-.52.693-1.175 1.222-1.612v-.015a.138.138 0 01.033-.094v.01zm.017 4.853c-.202-1.15.409-2.613 1.088-3.05.129-.083.27-.146.417-.188a.1.1 0 010-.05 3.335 3.335 0 00-.118-1.271.588.588 0 00-.573-.429c-.179.077-1.648 1.2-1.763 1.888-.023.17-.061.346-.097.514-.123.601-.25 1.227.077 1.788.4.69.843.748.864.751.038 0 .076.013.105.038v.01zm.82-25.885c-1.725 1.865-2.577 3.315-3.02 4.774a11.372 11.372 0 01-.694 1.882c-.858 1.67-4.343 6.5-4.84 7.187.12.293.588 1.212 1.505 1.174a2.47 2.47 0 011.249.264v-.026l.026.014c-.35-1.541.032-2.025.082-2.075a.103.103 0 01.036-.027.168.168 0 01.176.027c.067.064-.097.701.294 2.207.39 1.506 2.254 4.522 2.512 4.933v-.033c.115-.149.256-.275.417-.373.19-.122.41-.193.635-.205.287-.01.562.12.735.35a1.5 1.5 0 01.364.76l.02-.015c.127-.094.233-.162.295-.206l.05-.026c.293-.117.796.117.999.61.136.453.184.928.14 1.398.086 0 .17.009.253.03a.8.8 0 01.509.41c.155.38.166.803.03 1.19-.113.51.07 1.97.078 1.981.459.708 1.261.995 1.79 1.283l.097.053c.026.015.214-.041.294 0 .017 0 .4.111 1.175-.226.082-.035.044.176-.023.232a1.64 1.64 0 01-.247.167c-.201.117-.429.18-.661.182-.066 0-.132-.006-.197-.018v.018h-.033c.697.992 1.59 3.658 1.916 4.68l.018-.024c1.378-2.28 4.114-5.305 5.433-6.103a.917.917 0 01.553-.185c.088.017.05.176-.018.235-.02.017-1.075.94-2.324 2.193.51.163 1.042.25 1.578.255.388.003.776-.031 1.157-.103l.139-.026.05.273-.142.026a6.803 6.803 0 01-1.198.147 5.561 5.561 0 01-1.708-.293l-1.24 1.376c.69.485 4.144 2.825 6.868 2.478.984-.123 2.609-.437 2.506-.813-.088-.329-.314-1.87-.758-2.883l-.068-.144.18-.085c.026.05.05.103.076.156.726 1.6 1.378 4.304 1.522 4.89h.553c.52-1.247 1.945-2.275 3.108-3.114.794-.573 1.111-.608 1.764-1.544.652-.937 1.016-2.39.781-4.146-.114-.848-1.125-1.614-1.072-1.69a.162.162 0 01.229-.048c.041.027 1.04.696 1.175 1.694a7.334 7.334 0 01-.81 4.336c-.04.079-.08.151-.118.218h.999s1.616-1.45 1.68-1.386a.167.167 0 010 .235l-1.542 1.468H46.1a6.46 6.46 0 01-.97.822c-2.482 1.864-3.2 2.733-3.631 3.564-.07.165-.122.337-.156.514a3.444 3.444 0 00.082 2.413.044.044 0 010 .017c1.114 2.2 3.394 2.86 5.052 2.836a24.25 24.25 0 015.656.737c1.255.358 3.526.22 4.346.1.82-.12 2.38-.88 2.868-1.1.588-.265 3.27-1.428 4.487-3.944.46-.938.695-1.97.688-3.015.062-1.174-.1-4.148-.144-4.697-.053-.71-.667-1.45-.588-1.512a.168.168 0 01.235 0c.03.032.767.837.832 1.43.05.464.14 3.35.176 4.345a.124.124 0 01.056 0h.917c-.191-.816-.814-3.76-.168-4.697l.133-.2c.188-.305.4-.594.634-.866.15-.165.35-.278.57-.32a19.433 19.433 0 013.095-3.776 2.379 2.379 0 01-1.393-1.555 2.17 2.17 0 00-.52-.908 3.39 3.39 0 00-1.91-.88c.15.813.04 2.143-.47 2.918-.136.205-.247.384-.353.563a5.254 5.254 0 01-1.546 1.762c-.752.564-.905.728-.949 1.033-.085.552-.834 1.043-1.763 1.069h-.065a2.884 2.884 0 01-1.469-.528l-.073-.045a1.68 1.68 0 01-.638-.642v-.03a3.882 3.882 0 01-.646.135c-1.393.781-3.089.995-4.238.995a5.508 5.508 0 01-2.797-.69c-2.01-1.174-2.436-3.563-2.45-3.654a4.538 4.538 0 01-.835-1.348 4.312 4.312 0 01-.15-1.62c.024-.49.115-.974.27-1.44l.247.083c-.133.44-.196.897-.188 1.356.013.533.112 1.059.294 1.56a5.145 5.145 0 002.35 2.595c.21.102.418.21.626.32a10.77 10.77 0 003.474 1.288l.182.03c1.005.164 2.683.44 3.82.061.222-.07.43-.181.614-.325.588-.473.185-2.613.27-2.643a.135.135 0 01.047 0c.073 0 .138.048.159.118.018.067.39 1.315.115 2.193-.069.23-.204.434-.388.587a2.026 2.026 0 01-.465.293c.12.209.294.381.503.5l.076.044c.395.29.868.457 1.358.478.162-.01.322-.04.476-.09.482-.16.937-.485.97-.7.073-.455.338-.69 1.078-1.247a4.884 4.884 0 001.47-1.668c.108-.182.22-.364.358-.572.602-.913.561-2.58.294-3.065-.29-.412-.606-.804-.947-1.175l-.02-.02v-.027c-.165-.413-.508-1.133-.729-1.303a4.09 4.09 0 00-.755-.311l-.109-.035v-.112a5.54 5.54 0 00-.08-.652l-.228-.417.355-.082c.153-.014 1.646-.164 1.763.558.046.465.017.934-.088 1.389.22.293 1.214 1.54 2.087 1.99.253.137.5.287.737.45.817.534 1.834 1.197 4.079 1.467a4.613 4.613 0 001.542-.643 8.308 8.308 0 002.113-1.873 4.137 4.137 0 00-.294-.73c-.388-.858-.205-1.704.162-2.056a.661.661 0 01.103-.085c-.035-.255-.218-1.785.464-2.39.04-.035.08-.067.123-.097a1.47 1.47 0 011.217-.079.391.391 0 01.109.05v-.026l.026.014a1.223 1.223 0 01.103-.948.796.796 0 01.226-.223c.18-.101.382-.155.588-.156h.023c.275.033.527.166.709.373a.088.088 0 000-.026l.014.014c.541-2.099.1-2.965.094-2.97l-.076-.142.118-.07.132-.082c1.22-.678 2.83-1.853 2.8-2.34 0-.023 0-.082-.126-.138-1.129-.528-4.09 0-4.114 0l-.115.02-.056-.1c-2.2-3.778-7.36-10.83-17.213-15.62-7.393-3.594-12.527-2.936-16.75-2.478-.881.097-2.577.481-3.352.587-3.16.452-7.96 3.012-10.652 4.624-.985.587-1.687 1.054-1.934 1.247-1.813 1.457-4.222 3.832-5.927 5.672zm-3.273 22.938c-.015-.828.379-2.35.358-2.375-.094-.133-2.207-3.16-2.759-4.877a2.414 2.414 0 01-.538-.238 1.576 1.576 0 00-.81-.108c-1.305.035-1.837-1.418-1.858-1.468l-.03-.085.05-.07c.039-.054 3.976-5.482 4.867-7.217.278-.588.504-1.2.673-1.829.455-1.491.966-3.185 2.747-5.105 1.725-1.864 10.326-11.053 19.84-11.872.774-.068 1.596-.133 2.47-.227 4.248-.463 9.629-1.191 17.107 2.446 9.847 4.791 15.18 11.934 17.431 15.768.588-.1 2.88-.45 3.988.068a.484.484 0 01.317.425c.035.816-2.242 2.237-2.962 2.663.123.35.467 1.635 0 3.479 1.217 1.582 2.477 4.806 2.592 5.176.314 1.027.244 2.982-1.246 4.154-1.011.792-1.343.907-1.54.977a.385.385 0 00-.159.086 1.559 1.559 0 000 .51 3.27 3.27 0 01-.223 1.68c-.485.983-1.995 3.091-4.158 4.87-1.34 1.098-2.71 2.22-4.66 2.22h-.165c-.117.214-.485.713-1.587 1.394-.31.205-.671.32-1.043.329a1.764 1.764 0 01-1.357-.731c-.021-.032-1.073.073-1.073.073.004.433-.03.865-.1 1.292a17.02 17.02 0 01.885 5.44c.055 3.3-.735 6.459-1.546 7.874-.785 1.365-1.175 1.585-1.74 1.826-.564.24-2.988-.144-5.324-2.249a24.906 24.906 0 01-1.954 1.553c-.2.152-.442.24-.694.253a1.175 1.175 0 01-.881-.573c-.038-.05-.077-.1-.112-.138-.167-.197-.194-.602-.22-1.121 0-.477-.073-.95-.218-1.404a.678.678 0 00-.352-.42.294.294 0 00-.206.021l-1.029.543-.79-.901a.167.167 0 01-.035-.082l-4.652-.112c1.008.508 1.69 1.353 1.813 3.297v.147l-4.455.769-.05-.115s-.27-.563-.675-.625a.802.802 0 00-.682.326c-.935 1.01-2.35 1.336-3.1 1.512 0 0-3.283.73-4.329.73a46.082 46.082 0 01-5.398-.437h-.035l-.03-.02a.942.942 0 01-.352-1.227l.068-.13.135.045s.394.111 1.349-.159a8.505 8.505 0 001.492-.672c.694-.361 1.35-.702 1.863-.737.247-.018.444-.018.615-.015.347.047.698-.042.981-.25a.766.766 0 00.232-.85c-.123-.332-.47-.485-.981-.43a1.097 1.097 0 01-.144 0c-1.47 0-3.853-2.277-3.953-2.377l-.02-.02v-.024c-.018-.038-.444-.946.54-2.317.947-1.32 2.804-3.229 4.156-4.028l.038-.023 5.836-.018a7.44 7.44 0 01-.212-1h-1.196a1.073 1.073 0 01-.497-.142 3.482 3.482 0 01-1.763-2.683h-.261c-2.712 0-5.739-1.958-6.623-2.575-.741.855-2.445 2.56-2.445 2.56l-.115-.375c-.573-1.853-2.407-5.094-2.527-5.162a1.097 1.097 0 00-.311-.12c-.189 0-2.833-.02-3.527-1.174-.097-.153-.294-.408-.361-.408h-.015c-.023 0-.626-.062-1.12-.913a1.842 1.842 0 01-.243-.831h-.027a1.52 1.52 0 01-.978-1.445l.003-.002z" fill="#232323"/><path d="M66.47 58.75s7.346.459 10.438-2.421c0 0-3.964 4.603-6.62 4.26-2.657-.344-3.374-.92-3.818-1.838zM49.43 45.945s2.33 7.927 10.246 7.727c0 0-3.208 2.167-9.661-2.023 0 0-2.392-1.808-1.69-3.94 0 0-.08-1.632 1.105-1.764zM31.246 58.404s5.407 2.135 8.275 1.113c0 0-.346-1.864-1.081-2.284 0 0-2.386.602-3.3.716-.914.115-2.35.447-3.45-.038l-.444.493z" fill="#F9AD99"/><path d="M50.414 40.784s4.772-8.355 13.364-.247l.156-.211s-1.919-4.95-9.07-3.817c0 0-3.336.397-4.573 4.11l.123.165z" fill="#231F20" opacity=".1"/><path d="M42.474 67.855a12.82 12.82 0 00-1.933.217c-.653.12-1.297.284-1.928.49a11 11 0 00-2.057.93 8.43 8.43 0 00-1.36 1.025c-.13.127-.262.259-.385.388a7.526 7.526 0 00-.652.798c-.18.253-.34.517-.48.793-.14.25-.235.5-.331.714-.097.214-.153.413-.203.587l-.15.513h-.03s.024-.193.077-.534c.026-.17.085-.373.141-.605.035-.114.08-.234.12-.364.042-.136.096-.268.16-.396a6.34 6.34 0 01.455-.848c.196-.302.418-.586.664-.849.132-.132.261-.273.408-.396.143-.131.293-.254.45-.367a8.59 8.59 0 01.993-.643 11.14 11.14 0 012.136-.88c.356-.104.7-.198 1.029-.262.329-.065.643-.123.934-.167a12.873 12.873 0 011.951-.144h-.009zm3.171 1.377s-.787.152-1.94.481c-1.408.39-2.778.91-4.093 1.55-.35.185-.699.376-1.025.587-.32.202-.629.422-.923.66-.15.11-.276.236-.411.35-.135.115-.247.244-.365.364-.213.23-.4.482-.558.752-.135.227-.242.47-.32.722-.03.114-.065.22-.082.323l-.039.293a2.966 2.966 0 000 .4v.144h-.03l-.02-.144a2.502 2.502 0 01-.038-.408v-.294c0-.109.035-.22.056-.346a3.09 3.09 0 01.276-.796 4.51 4.51 0 01.55-.83 5.99 5.99 0 01.796-.767c.308-.242.633-.462.973-.658.343-.205.705-.387 1.066-.56a22.732 22.732 0 014.173-1.436 22.2 22.2 0 011.96-.408l-.006.02zm5.821.622c-.825.1-1.645.243-2.456.426A23.888 23.888 0 0043.835 72c-.441.215-.87.453-1.287.713-.4.252-.784.53-1.149.831a8.204 8.204 0 00-.96.902 6.26 6.26 0 00-.712.936 5.76 5.76 0 00-.45.88 2.45 2.45 0 00-.14.394l-.104.34c-.052.21-.073.38-.1.494l-.035.176h-.035v-.179c0-.117 0-.294.038-.51.036-.266.094-.527.174-.782.099-.335.233-.658.4-.966a6.579 6.579 0 011.157-1.517c.167-.167.342-.323.526-.47a9.865 9.865 0 011.21-.828c.436-.251.884-.48 1.344-.684.458-.209.925-.396 1.392-.56a26.71 26.71 0 011.381-.444 29.977 29.977 0 012.501-.587c.82-.154 1.646-.267 2.477-.338l.003.053zm10.852-2.551c.214.54.383 1.098.503 1.667a10.56 10.56 0 01.167 3.831 8.43 8.43 0 01-.214 1.034c-.045.167-.103.332-.156.496l-.188.473c-.136.29-.29.572-.465.842l-.258.361c-.088.115-.18.22-.262.323a6.479 6.479 0 01-.505.52c-.162.14-.294.267-.426.358-.25.182-.394.279-.394.279l-.023-.03s.117-.129.329-.343c.105-.108.22-.252.361-.405.141-.153.28-.346.43-.555.073-.106.152-.211.228-.326l.22-.364c.068-.129.139-.261.215-.393.077-.132.132-.28.203-.42l.191-.443c.053-.156.118-.294.167-.467a7.9 7.9 0 00.256-.984c.125-.66.18-1.33.162-2.002a12.32 12.32 0 00-.168-1.761c-.09-.57-.227-1.13-.411-1.677l.038-.014zm-3.174 5.989c.03.166.03.336 0 .502a2.67 2.67 0 01-.393 1.042c-.1.174-.216.338-.347.49a1.977 1.977 0 01-.408.326 1.667 1.667 0 01-.333.165 1.262 1.262 0 01-.135.046l-.02-.029c.024-.04.05-.08.08-.117.046-.077.131-.165.22-.294.088-.13.202-.235.323-.367a4.86 4.86 0 00.385-.396c.117-.143.221-.296.311-.458.077-.143.142-.293.194-.446.05-.152.078-.31.082-.47l.041.006zm-.226-4.058a6.008 6.008 0 01.993 1.676c.092.228.162.464.21.705.015.114.02.23.017.344a2.347 2.347 0 01-.03.293c-.02.094-.044.18-.064.253-.022.064-.05.126-.083.185a1.638 1.638 0 01-.082.153h-.035v-.359c0-.073 0-.152-.015-.237a2.565 2.565 0 01-.03-.276l-.04-.294-.042-.329a7.814 7.814 0 00-.07-.34 7 7 0 00-.461-1.216c-.16-.323-.294-.528-.294-.528l.026-.03z" fill="#232323"/><path d="M45.645 73.468s.4-.329 1.031-.778a21.762 21.762 0 012.428-1.497c.226-.13.464-.238.693-.353.23-.114.467-.205.694-.293.226-.088.458-.153.675-.215.218-.061.43-.093.623-.132.194-.038.38-.038.538-.055.138-.014.277-.014.415 0 .229 0 .358.023.358.023v.035s-.13.03-.35.068c-.111.023-.244.038-.393.082-.15.044-.32.08-.503.132l-.588.185c-.202.082-.423.147-.646.232-.223.085-.456.164-.688.261-.232.097-.47.188-.702.294-.853.4-1.683.849-2.486 1.342-.658.402-1.081.701-1.081.701l-.018-.032zm9.512-3.006c.203.1.4.214.588.34.085.053.173.12.27.188.097.068.188.15.294.23.205.176.393.373.561.586l.13.168.111.182c.073.12.131.247.173.381.032.131.05.265.053.4-.008.12-.027.238-.056.355a4.495 4.495 0 01-.12.276c-.04.064-.086.124-.138.179-.04.049-.084.096-.13.14l-.029-.02s.015-.07.047-.182c0-.056.041-.12.053-.194.012-.073.018-.161.032-.25.015-.087 0-.187 0-.293 0-.105-.038-.205-.067-.31a3.116 3.116 0 00-.115-.333l-.076-.17-.097-.164a3.99 3.99 0 00-.47-.588 7.683 7.683 0 00-.491-.466 5.515 5.515 0 00-.523-.411v-.044zm-.429-.047s-.34.135-.832.381c-.244.127-.526.273-.822.447-.297.173-.603.367-.903.57-.144.108-.293.21-.429.325-.135.114-.276.217-.4.332-.123.114-.258.205-.372.308-.115.103-.233.194-.33.294-.096.1-.19.176-.273.25-.082.072-.144.146-.205.199a4.502 4.502 0 01-.186.176l-.029-.02s.035-.086.112-.233c.042-.09.09-.177.144-.26.064-.095.138-.2.223-.315.085-.115.191-.223.294-.34a3.88 3.88 0 01.373-.344c.29-.222.595-.426.911-.61.323-.189.646-.365.96-.514.315-.15.612-.273.882-.376.518-.2.882-.294.882-.294v.024z" fill="#232323"/><path d="M44.816 59.996s-6.86 7.045 5.149 9.394c0 0-2.671-.41-3.906-.293-1.234.117-5.756-1.201-4.648-5.443-.003-.01.158-1.636 3.405-3.658zm19.671-1.48s1.686 6.964-4.376 9.982c0 0-3.314 2.22-5.783 1.582.003-.015 9.277-2.422 10.159-11.564zm-26.044-1.665s2.41-.722 6.23-5.871c3.82-5.15 3.161-4.562 3.77-4.677a3.095 3.095 0 00-.447 2.416c.317 1.4-4.54 5.03-4.54 5.03s-4 4.294-3.403 6.458c-.012.006-.455-3.036-1.61-3.356zm28.027-7.163s2.607 2.123 1.255 4.865l2.562-2.971a5.794 5.794 0 01-1.393-1.556c-.52-.907-.473-1.659-2.436-1.806l.012 1.468z" fill="#EAF7FC"/></g></svg>