<svg xmlns="http://www.w3.org/2000/svg" version="1.0" width="200" height="200" viewBox="0 0 150 150"><path d="M84.67 16.76a4.762 14.03 70.949 00-9.972 1.898 4.762 14.03 70.949 00-.556.199 4.762 14.03 74.885 00-2.308.543 4.762 14.03 74.885 00-10.072 4.527 24.723 13.314 0 00-11.675 10.652h-.032v.347a24.723 13.314 0 00-.028.3 24.723 13.314 0 00.028.427v25.555h-2.347v9.96a11.123 7.707 66.335 01.01.01 4.687 1.604 54.801 001.31 3.51 4.687 1.604 54.801 002.836 3.113 11.123 7.707 66.335 01.698 4.787h.134a8.202 9.438 0 004.19 8.21v11.234l-3.561.05-3.86 10.897a7.07 37.847 68.343 00-9.325 3.378 7.07 37.847 68.343 00-33.457 20.43h-.005v13.132h62.363a53.314 18.258 0 004.723.081 53.314 18.258 0 004.617-.08h63.265v-13.133h-.009a37.847 7.07 21.657 00-33.457-20.43 37.847 7.07 21.657 00-8.377-3.059l-3.973-11.216-3.272-.045V90.652h-.075a8.202 9.438 0 003.809-7.954 8.202 9.438 0 00-.008-.167h.069a7.707 11.123 23.665 011.2-4.405 7.707 11.123 23.665 01.146-.305 1.604 4.687 41.623 001.99-1.996 1.604 4.687 41.623 001.596-3.901V61.208h-1.82V35.336a24.723 13.314 0 00.01-.11 24.723 13.314 0 00-.01-.153v-.551h-.037a24.723 13.314 0 00-13.303-11.098 3.396 3.396 0 01-.599-1.913 3.396 3.396 0 013.397-3.397 3.396 3.396 0 01.265.013 4.762 14.03 70.949 00-4.519-1.368zm40.293 120.018a37.847 7.07 21.657 00.034.01h-.04a53.314 18.258 0 00.006-.01z" fill-opacity=".314"/></svg>