<svg width="32" height="32" xmlns="http://www.w3.org/2000/svg"><g fill="none" fill-rule="evenodd"><path fill="#FFF" d="M-1030-542H410v4642h-1440z"/><path fill="#FFF" opacity=".9" d="M-1030-542H410v4642h-1440z"/><path d="M26.41 14.827h-.833c-.354-.836-1.064-1.47-2.21-1.651-.872-.137-3.159-.167-3.159-.167h-8.416s-2.287.03-3.158.167c-1.147.18-1.857.815-2.21 1.651H5.59a.586.586 0 00-.591.582c0 .321.264.582.59.582h.56c-.074 1.059.236 2.198.756 3.044 1.297 2.106 4.077 3 6.897.145.895-.907 1.33-1.665 1.543-2.428 0 0 .037-.18.056-.24a.64.64 0 01.592-.449h.012c.27 0 .5.195.585.435.024.065.06.24.061.243.212.765.648 1.537 1.545 2.446 2.82 2.856 5.6 1.951 6.897-.155.522-.85.795-2.027.743-3.041h.572c.327 0 .591-.26.591-.582a.586.586 0 00-.59-.582zm-9.81.176a1.82 1.82 0 00-.594-.103h-.012c-.208 0-.408.04-.593.103-.077-.31-.205-.54-.38-.83h1.959c-.176.29-.304.52-.38.83z" fill="#AEB0B5" fill-rule="nonzero"/></g></svg>