<svg width="919" height="493" xmlns="http://www.w3.org/2000/svg" xmlns:xlink="http://www.w3.org/1999/xlink"><defs><path d="M78.92 3.594L12.995.696A7.192 7.192 0 005.49 7.561L.572 119.245c-.177 3.965 2.9 7.323 6.87 7.499l65.925 2.896a7.19 7.19 0 007.503-6.863L85.792 11.09a7.19 7.19 0 00-6.872-7.497" id="a"/><path d="M24.85 8.077C.75 23.097-6.59 54.65 8.45 78.653c15.08 23.943 46.76 31.254 70.8 16.294 24.1-15 31.44-46.572 16.38-70.496C85.87 8.874 69.11.33 51.95.33c-9.28 0-18.66 2.51-27.1 7.748" id="j"/><path d="M120.729 154.691a42.555 42.555 0 01-17.709 34.535c-6.64 3.665-8.96 4.541-13.08 4.541-1.48 0-3.18-.119-5.44-.278-7.88-.478-9.26-5.658-10.24-8.048-.88-2.231-3.8-8.924-12.66-8.924-.76 0-1.58.02-2.42.14-1.78.219-3.34.378-4.72.378-3.5 0-5.82-1.016-7-4.681-1.24-3.885-2.72-6.713-6.86-9.303-4.84-3.008-5.24-11.971-3.96-18.565 2.6-10.318 9-19.7 18.78-25.816A42.745 42.745 0 0178 112.236c14.24 0 28.14 7.092 36.24 20.02 4.396 6.99 6.489 14.758 6.489 22.435zM50.6 171.318c-1.46-4.562-3.34-8.008-8.24-11.036-2.72-1.713-3.8-8.167-2.5-15.079 2.5-9.92 8.66-18.346 17.32-23.724A39.298 39.298 0 0178 115.523c13.68 0 26.2 6.912 33.44 18.485 10.92 17.37 6.42 40.358-10.2 52.41-6.46 3.565-8.14 4.063-11.3 4.063-1.28 0-2.82-.12-4.74-.24l-.48-.02c-5.24-.298-6.24-3.007-7.16-5.397l-.22-.618c-3.86-9.561-11.52-10.976-15.74-10.976-.92 0-1.86.04-2.82.16-1.5.179-3.06.358-4.32.358-2.66 0-3.26-.558-3.86-2.43z" id="k"/><path id="l" d="M57.1.845H1.165v89.92h55.937V.845z"/><path id="n" d="M29.078.845H.636v89.92h28.442V.845z"/><path id="p" d="M58.071 41.69V1.94H1.17v39.75h56.902z"/><path id="r" d="M58.071 22.871V1.941H1.17v20.93h56.902z"/><filter x="-50%" y="-50%" width="200%" height="200%" filterUnits="objectBoundingBox" id="b"><feGaussianBlur stdDeviation="13.5" in="SourceAlpha" result="shadowBlurInner1"/><feOffset in="shadowBlurInner1" result="shadowOffsetInner1"/><feComposite in="shadowOffsetInner1" in2="SourceAlpha" operator="arithmetic" k2="-1" k3="1" result="shadowInnerInner1"/><feColorMatrix values="0 0 0 0 0.533333333 0 0 0 0 0.568627451 0 0 0 0 0.568627451 0 0 0 0.07 0" in="shadowInnerInner1"/></filter><filter x="-50%" y="-50%" width="200%" height="200%" filterUnits="objectBoundingBox" id="d"><feGaussianBlur stdDeviation="14" in="SourceAlpha" result="shadowBlurInner1"/><feOffset in="shadowBlurInner1" result="shadowOffsetInner1"/><feComposite in="shadowOffsetInner1" in2="SourceAlpha" operator="arithmetic" k2="-1" k3="1" result="shadowInnerInner1"/><feColorMatrix values="0 0 0 0 0.533333333 0 0 0 0 0.568627451 0 0 0 0 0.568627451 0 0 0 0.07 0" in="shadowInnerInner1"/></filter><filter x="-50%" y="-50%" width="200%" height="200%" filterUnits="objectBoundingBox" id="f"><feGaussianBlur stdDeviation="14" in="SourceAlpha" result="shadowBlurInner1"/><feOffset in="shadowBlurInner1" result="shadowOffsetInner1"/><feComposite in="shadowOffsetInner1" in2="SourceAlpha" operator="arithmetic" k2="-1" k3="1" result="shadowInnerInner1"/><feColorMatrix values="0 0 0 0 0.533333333 0 0 0 0 0.568627451 0 0 0 0 0.568627451 0 0 0 0.07 0" in="shadowInnerInner1"/></filter><filter x="-50%" y="-50%" width="200%" height="200%" filterUnits="objectBoundingBox" id="h"><feGaussianBlur stdDeviation="14" in="SourceAlpha" result="shadowBlurInner1"/><feOffset in="shadowBlurInner1" result="shadowOffsetInner1"/><feComposite in="shadowOffsetInner1" in2="SourceAlpha" operator="arithmetic" k2="-1" k3="1" result="shadowInnerInner1"/><feColorMatrix values="0 0 0 0 0.533333333 0 0 0 0 0.568627451 0 0 0 0 0.568627451 0 0 0 0.07 0" in="shadowInnerInner1"/></filter><rect id="c" x="0" y="0" width="83" height="135" rx="8"/><rect id="e" x="0" y="0" width="83" height="135" rx="8"/><rect id="g" x="0" y="0" width="83" height="135" rx="8"/><linearGradient x1="50%" y1="0%" x2="50%" y2="100%" id="i"><stop stop-color="#FFF" offset="0%"/><stop offset="100%"/></linearGradient></defs><g transform="translate(0 1)" fill="none" fill-rule="evenodd"><path d="M162.996 322.683s10.81-34.375 25.094-61.884c6.692-12.887 17.096-19.056 21.347-16.431 6.488-5.282 14.723-7.537 20.369-3.718 4.525-4.686 14.645-5.35 20.871-.515 2.881-5.536 20.977-35.16 27.243-45.48 6.27-10.318 21.634-4.097 17.378 7.926-7.509 31.141-43.674 108.822-12.853 101.465 6.457-24.207 25.105-21.307 25.105-21.307s-2.964 33.755-8.465 38.745c-5.498 4.99-25.408 15.314-28.798 17.596-6.558 4.417-29.043 17.326-47.53 22.565a964.47 964.47 0 01-11.588 10.747l-56.114-36.269 7.94-13.44z" fill="#000" opacity=".1"/><path d="M162.996 322.683s10.81-34.375 25.094-61.884c6.692-12.887 17.096-19.056 21.347-16.431 6.488-5.282 14.723-7.537 20.369-3.718 4.525-4.686 14.645-5.35 20.871-.515 2.881-5.536 20.977-35.16 27.243-45.48 6.27-10.318 21.634-4.097 17.378 7.926-4.257 12.023-17.526 39.148-17.526 39.148s-24.84 56.746 4.673 62.317c6.457-24.207 25.105-21.307 25.105-21.307s-2.964 33.755-8.465 38.745c-5.498 4.99-25.408 15.314-28.798 17.596-6.558 4.417-29.043 17.326-47.53 22.565a964.47 964.47 0 01-11.588 10.747l-56.114-36.269 7.94-13.44z" fill="#E5AC6E"/><path d="M159.786 328.115c.88.096 1.663.173 2.293.215 29.658-9.232 61.327 13.945 69.939 30.204-3.137 1.189-6.253 2.26-9.261 3.112a973.506 973.506 0 01-11.588 10.745l-56.114-36.269 4.731-8.007z" fill="#000" opacity=".1"/><path d="M150.788 337.646c1.545-2.147 6.171-10.995 9.37-10.776 40.695-5.956 66.701 27.288 73.813 40.742 1.336 2.528 1.673 3.76.15 6.462-1.368 2.426-13.761 23.252-13.761 23.252l-73.912-52.295s2.89-5.37 4.34-7.385" fill="#DEDEDE"/><path d="M146.803 344.38c46.334-6.027 72.057 25.693 81.196 40.085-3.688 6.22-7.639 12.861-7.639 12.861l-73.912-52.295s.138-.25.355-.652" fill="#CDCDCD"/><path d="M141.48 345.152c1.637-2.857 7.121-4.706 11.707-4.613 39.808 7.046 64.941 35.623 72.914 50.449 2.89 5.366 2.172 14.205-.095 18.134-3.513 6.093-21.143 40.082-43.145 82.799H33.717c52.824-71.748 106.929-145.31 107.762-146.769" fill="#3D3D3D"/><path d="M539.232 253.663l-2.372-1.23-1.031 4.231.54.281 2.863-3.282zm-2.834-4.838l1.202.624-.427 1.8 2.85 1.476 1.227-1.383 1.214.632-5.697 6.456-2.394-1.244 2.025-8.361zm5.125-6.81c1.44-.42 2.678-.948 2.678-.948s.276 1.306.76 2.72c.483 1.41 1.176 2.93 1.176 2.93s-1.672.316-3.12.737c-1.421.411-2.62.93-2.62.93s-.267-1.282-.745-2.684a39.381 39.381 0 00-1.19-2.966s1.632-.304 3.06-.72" fill="#DB394B"/><path d="M530.269 266.412l2.248-3.73-2.55-.8-.28 4.346.582.184zm-1.385-8l1.294.404-.108 1.845 3.061.962.97-1.575 1.305.41-4.488 7.346-2.573-.808.54-8.585zm23.394-36.221c1.638-5.202 7.096-8.124 12.195-6.524 1.443.453 2.876 1.288 4.162 2.353-1.184-2.92-1.41-6.426-.536-9.202 1.638-5.202 7.19-8.096 12.397-6.46 5.209 1.636 8.104 7.18 6.466 12.381-.87 2.768-3.052 5.506-5.685 7.228 1.67-.124 3.329.024 4.784.482 5.209 1.636 8.106 7.178 6.468 12.38-1.638 5.205-7.187 8.095-12.397 6.46-2.721-.854-5.413-2.972-7.14-5.538l.516 7.64-10.79-3.387 4.887-6.075c-2.887 1.192-6.344 1.435-9.062.58-5.097-1.601-7.903-7.117-6.265-12.318m-20.75 31.043a1.973 1.973 0 111.186-3.767c.545.17 1.083.598 1.43 1.112l-.106-1.533 2.159.678-1.006 1.25c.586-.253 1.284-.326 1.841-.152 1.018.32 1.58 1.424 1.253 2.462-.328 1.041-1.421 1.627-2.439 1.307a2.524 2.524 0 01-.847-.49c.245.589.298 1.298.121 1.86a1.979 1.979 0 01-2.479 1.29 1.975 1.975 0 01-1.293-2.474c.176-.561.62-1.108 1.153-1.452a2.57 2.57 0 01-.973-.091" fill="#3D3D3D"/><path d="M542.03 213.136c.79-6.033 6.325-10.281 12.364-9.494 4.994.653 8.756 4.549 9.468 9.285 1.906-4.394 6.548-7.193 11.54-6.54 6.039.79 10.294 6.318 9.503 12.352-.227 1.744-1.583 7.234-4.62 10.626-7.464 8.333-20.737 16.51-20.737 16.51s-10.666-11.23-15.742-21.192c-2.088-4.097-2.007-9.79-1.776-11.547m-18.013 49.299c1.492-1.666 4.145-3.302 4.145-3.302s2.135 2.247 3.15 4.24c.419.818.4 1.958.356 2.309a2.205 2.205 0 01-2.474 1.897c-1.056-.136-1.796-1.01-1.87-2.031-.335.968-1.276 1.622-2.332 1.484a2.205 2.205 0 01-1.9-2.47c.045-.35.316-1.448.925-2.127m1.549 14.188l.604.079 1.567-4.065-2.652-.346.48 4.332zm-.805-7.386l.213 1.837 3.185.415.679-1.719 1.356.176-3.142 8.013-2.674-.35-.963-8.548 1.346.176z" fill="#DB394B"/><path d="M513.242 261.88c-14.763-21.82 1.46-27.367 10.78-25.218-6.828-33.325 14.75-19.643 14.75-19.643s-4.316-21.274 11.124-27.189c2.699-1.037 9.245 27.134 12.294 28.08 17.062 5.287 30.866 5.402 35.738 8.94 2.104 4.24 27.644 24.05 28.899 33.12 1.259 9.066-4.14 32.45 7.598 62.981 2.4 8.334 5.284 17.52 5.284 17.52l-46.738 33.654-27.247-26.812s-12.203-1.166-37.65-30.044c-15.572-17.673-20.76-24.681-22.939-28.272-9.89-16.305-.298-27.672 8.107-27.117" fill="#E5AC6E"/><path d="M513.242 261.88c-14.763-21.82 1.46-27.367 10.78-25.218-6.828-33.325 14.75-19.643 14.75-19.643s-4.316-21.274 11.124-27.189c2.699-1.037 9.245 27.134 12.294 28.08 17.062 5.287 30.866 5.402 35.738 8.94 2.104 4.24 27.644 24.05 28.899 33.12 1.259 9.066-4.14 32.45 7.598 62.981 2.4 8.334 5.284 17.52 5.284 17.52l-46.738 33.654-27.247-26.812s-12.203-1.166-37.65-30.044c-15.572-17.673-20.76-24.681-22.939-28.272-9.89-16.305-.298-27.672 8.107-27.117" fill="#E5AC6E"/><path d="M592.5 295.558c-.648-10.082-3.387-9.671 11.869-32.326-34.686-31.544-14.337-42.79-14.337-42.79s37.172 21.776 38.43 30.844c1.873 13.51 2.21 31.561 1.556 57.814.651 12.474 10.342 26.708 18.751 31.34 12.748 7.023-41.542 43.966-63.672 49.853-3.104-4.658-2.836-14.524-12.675-28.827-37.91-19.392-73.687-75.867-73.224-87.122 58.678 37.048 80.8 31.2 93.303 21.214" fill="#E5AC6E"/><path d="M513.895 186.377c-6.082-6.727 7.16-23.195 14.23-17.444 7.069 5.751 37.387 33.588 45.586 41.909 8.2 8.32-11.56 21.5-16.168 18.023-4.608-3.475-37.566-35.76-43.648-42.488m21.418 58.64c-4.608-3.477-28.86-26.142-34.94-32.87-6.082-6.728 5.151-25.083 12.22-19.334 7.072 5.75 29.796 26.19 37.994 34.515 8.199 8.32-10.665 21.166-15.274 17.689m-22.914 14.19c7.07 5.75 15.06 14.796 23.26 23.117 8.198 8.321-10.245 20.247-14.853 16.77-4.608-3.475-15.19-14.781-21.27-21.508-6.083-6.73 5.793-24.129 12.863-18.38m18.596 15.253c-4.608-3.477-23.618-22.73-29.698-29.456-6.082-6.73 5.452-23.208 12.52-17.457 7.072 5.75 23.832 21.82 32.032 30.143 8.199 8.321-10.246 20.247-14.854 16.77" fill="#E5AC6E"/><path d="M512.594 192.812c7.07 5.751 29.794 26.192 37.994 34.515 8.199 8.321-10.668 21.166-15.274 17.69-3.71-2.8-20.145-18.028-29.588-27.371l-1.54-23.18c2.657-2.62 5.811-3.766 8.408-1.654m-.195 66.394c7.072 5.751 15.061 14.797 23.26 23.118 4.799 4.87.468 10.97-4.87 14.5l-11.789.781c-2.309-2.017-5.356-5.03-8.512-8.289l-2.072-31.177c1.393-.217 2.761.073 3.983 1.067m1.497-72.83c-4.377-4.84 1.25-14.722 7.385-17.74l5.748-.384c.377.18.746.395 1.096.68 7.07 5.752 37.388 33.588 45.587 41.91 8.198 8.322-11.562 21.501-16.17 18.024-4.608-3.477-37.564-35.76-43.646-42.49m-.088 41.168c7.072 5.751 23.832 21.822 32.03 30.143 8.2 8.323-10.244 20.247-14.852 16.77-3.432-2.588-14.85-13.927-22.968-22.327l-1.617-24.337c2.447-1.648 5.153-2.082 7.407-.249" fill="#C3925B"/><path d="M594.71 264.526c-24.375-30.518-6.271-41.376-6.271-41.376s37.811 22.85 39.068 31.917c1.874 13.509 3.165 27.78 2.512 54.032.649 12.475 10.342 26.709 18.75 31.34 12.749 7.023-27.129 44.789-49.26 50.677-1.06-39.66-16.582-66.707-17.732-82.1-1.15-15.394 8.261-31.694 12.932-44.49" fill="#000" opacity=".2"/><path d="M513.134 275.306l14.55-110.69c.658-5.024 5.273-8.564 10.302-7.904l65.274 8.562c5.032.658 8.574 5.267 7.913 10.291l-14.55 110.69c-.661 5.026-5.273 8.564-10.303 7.904l-65.274-8.56c-5.032-.66-8.573-5.27-7.912-10.293" fill="#E2E4E8"/><path d="M515.021 275.63l14.57-110.84c.516-3.936 4.13-6.709 8.07-6.192l65.425 8.58c3.941.518 6.717 4.127 6.2 8.064l-14.57 110.841c-.518 3.935-4.132 6.707-8.071 6.191l-65.426-8.582a7.188 7.188 0 01-6.198-8.062" fill="#FBFBFB"/><path d="M592.813 185.17a2.205 2.205 0 012.473-1.899c1.056.138 1.796 1.01 1.871 2.031.335-.966 1.274-1.62 2.33-1.482a2.204 2.204 0 011.901 2.47c-.044.35-.316 1.448-.924 2.127-1.492 1.667-4.148 3.3-4.148 3.3s-2.133-2.245-3.148-4.238c-.418-.82-.402-1.958-.355-2.308m6.581-6.611l-.479-4.332-.606-.079-1.565 4.064 2.65.347zm-1.967-5.668l2.676.35.961 8.548-1.344-.174-.215-1.837-3.183-.417-.68 1.719-1.357-.176 3.142-8.013z" fill="#DB394B"/><path d="M514.944 167.539l65.77-2.892c5.069-.223 9.359 3.7 9.58 8.762l4.914 111.534c.225 5.063-3.704 9.346-8.773 9.569l-65.77 2.892c-5.068.222-9.358-3.7-9.58-8.763L506.17 177.11c-.223-5.063 3.706-9.35 8.774-9.57" fill="#E2E4E8"/><g transform="matrix(-1 0 0 1 593.87 165.857)"><use fill="#FFF" xlink:href="#a"/><use fill="#000" filter="url(#b)" xlink:href="#a"/></g><path d="M579.215 178.402l-1.224-4.182-.61.026-.836 4.275 2.67-.12zm-2.921-5.241l2.694-.12 2.433 8.252-1.352.061-.531-1.772-3.207.142-.371 1.812-1.367.061 1.701-8.436zm2.092 16.244h.028l-.018-.071-.01.07m-3.757-2.107c1.182-1.9 3.512-3.72 3.512-3.72s2.493 1.622 3.837 3.41c.548.727.704 1.375.72 1.725a2.207 2.207 0 01-2.106 2.3 2.178 2.178 0 01-1.531-.544l.572 1.294-2.26.101.453-1.328a2.19 2.19 0 01-1.467.666 2.207 2.207 0 01-2.301-2.104c-.017-.354.087-1.019.571-1.8M523.556 287.78l.61-.028.836-4.27-2.67.119 1.224 4.18zm-2.078-7.132l.531 1.77 3.208-.144.37-1.81 1.367-.06-1.7 8.434-2.697.121-2.431-8.252 1.352-.059zm10.749-51.492c5.911-9.491 17.55-18.596 17.55-18.596s12.472 8.107 19.195 17.047c2.737 3.64 3.513 6.875 3.59 8.633.272 6.077-4.44 11.225-10.525 11.494a10.991 10.991 0 01-7.621-2.616l2.822 6.37-11.296.503 2.222-6.535a10.97 10.97 0 01-7.293 3.22c-6.084.27-11.235-4.439-11.507-10.516-.079-1.77.432-5.1 2.863-9.004m-9.062 43.328c.006.024.01.046.017.068l.012-.07-.029.002zm-2.177-1.608a2.19 2.19 0 011.533.542l-.574-1.294 2.26-.099-.452 1.329c.377-.383.886-.64 1.466-.667a2.207 2.207 0 012.301 2.102c.016.355-.087 1.021-.574 1.803-1.182 1.9-3.509 3.72-3.509 3.72s-2.494-1.622-3.84-3.41c-.545-.728-.701-1.376-.717-1.726a2.203 2.203 0 012.106-2.3z" fill="#3D3D3D"/><path d="M585.13 325.258c-6.446-26.101 10.316-46.89 16.777-64.585-34.685-31.545-11.876-40.23-11.876-40.23s37.173 21.775 38.43 30.843c1.873 13.51 2.21 31.561 1.559 57.814.649 12.474 10.341 26.708 18.75 31.34 12.746 7.023-37.94 44.56-60.07 50.446-19.544-35.333-3.613-44.298-3.57-65.628" fill="#E5AC6E"/><path d="M643.458 354.564c-13.682 13.533-43.378 31.745-58.36 35.73-1.977-2.965-2.595-8.05-5.316-15.036 29.725-28.557 54.482-40.79 59.75-43.213.427.543.859 1.082 1.299 1.592l2.627 20.927z" fill="#000" opacity=".1"/><path d="M640.337 331.286c2.792-1.489 5.597-2.493 7.878.56l18.266 24.465-51.89 105.04-41.849-67.606s35.346-45.267 67.595-62.46" fill="#EEE"/><path d="M599.741 437.362l-19.05-30.777c15.194-29.313 69.021-70.897 69.021-70.897l-6.264 67.246-17.893 36.22-25.814-1.792z" fill="#000" opacity=".1"/><path d="M648.267 335.104c1.338-1.512 6.037-3.68 9.018-.206 12.33 14.378 64.568 80.247 125.091 157.023H624.888c-20.587-31.794-35.845-55.513-40.429-63.018-2.406-3.943-3.882-10.559-1.151-15.56 11.298-20.705 52.753-64.44 64.96-78.239" fill="#3D3D3D"/><g transform="translate(251)"><use fill="#FFF" xlink:href="#c"/><use fill="#000" filter="url(#d)" xlink:href="#c"/><use stroke="#E3E4E8" stroke-width="2" xlink:href="#c"/></g><path d="M327.96 125.651h-1.085c-.034.453-.196.812-.486 1.076-.29.265-.674.397-1.152.397-.474 0-.851-.129-1.133-.387a1.27 1.27 0 01-.422-.978c0-.338.078-.622.235-.85.157-.229.419-.455.787-.68.436-.258.758-.54.965-.844.207-.304.309-.666.305-1.085v-.584h-1.111v.412c0 .335-.072.609-.216.822-.144.214-.417.44-.819.676a3.019 3.019 0 00-.968.905c-.239.358-.359.786-.359 1.285a2.1 2.1 0 00.746 1.641c.498.438 1.146.657 1.946.657.893 0 1.569-.239 2.028-.717.46-.478.706-1.06.74-1.746zm-2.627-6.88a.849.849 0 00-.632.247.865.865 0 00-.244.635.87.87 0 00.244.64.849.849 0 00.632.249.86.86 0 00.634-.248.867.867 0 00.248-.641.86.86 0 00-.248-.635.86.86 0 00-.634-.247zM257.501 10.233h1.086c.034-.452.196-.811.486-1.076.29-.264.673-.396 1.152-.396.474 0 .851.129 1.133.387.281.258.422.584.422.977 0 .339-.079.623-.235.851-.157.229-.419.455-.787.68-.436.257-.758.539-.965.844-.207.304-.309.666-.305 1.085v.584h1.111v-.413c0-.334.072-.608.216-.822.144-.213.417-.439.819-.676a3.02 3.02 0 00.968-.904c.239-.358.358-.786.358-1.286 0-.656-.248-1.203-.745-1.64-.498-.439-1.146-.657-1.946-.657-.893 0-1.569.239-2.028.717a2.624 2.624 0 00-.74 1.745zm2.628 6.881a.849.849 0 00.632-.247.865.865 0 00.244-.635.874.874 0 00-.244-.641.849.849 0 00-.632-.248.86.86 0 00-.634.248.867.867 0 00-.248.64c0 .26.083.47.248.636a.86.86 0 00.634.247zM296.014 84v-6.738h-16.285V73.6c1.378-2.561 3.134-5.496 5.268-8.805 2.133-3.31 5.117-7.712 8.95-13.207h5.975v22.124h4.582v3.549h-4.582V84h-3.908zm-12.286-10.377v.09h12.286V54.958h-.068c-3.07 4.372-5.551 8.015-7.446 10.927-1.894 2.913-3.485 5.492-4.772 7.738z" fill="#3D3D3D"/><g transform="translate(367)"><use fill="#FFF" xlink:href="#e"/><use fill="#000" filter="url(#f)" xlink:href="#e"/><use stroke="#E3E4E8" stroke-width="2" xlink:href="#e"/></g><path d="M443.96 125.651h-1.085c-.034.453-.196.812-.486 1.076-.29.265-.674.397-1.152.397-.474 0-.851-.129-1.133-.387a1.27 1.27 0 01-.422-.978c0-.338.078-.622.235-.85.157-.229.419-.455.787-.68.436-.258.758-.54.965-.844.207-.304.309-.666.305-1.085v-.584h-1.111v.412c0 .335-.072.609-.216.822-.144.214-.417.44-.819.676a3.019 3.019 0 00-.968.905c-.239.358-.359.786-.359 1.285a2.1 2.1 0 00.746 1.641c.498.438 1.146.657 1.946.657.893 0 1.569-.239 2.028-.717.46-.478.706-1.06.74-1.746zm-2.627-6.88a.849.849 0 00-.632.247.865.865 0 00-.244.635.87.87 0 00.244.64.849.849 0 00.632.249.86.86 0 00.634-.248.867.867 0 00.248-.641.86.86 0 00-.248-.635.86.86 0 00-.634-.247zM373.501 10.233h1.086c.034-.452.196-.811.486-1.076.29-.264.673-.396 1.152-.396.474 0 .851.129 1.133.387.281.258.422.584.422.977 0 .339-.079.623-.235.851-.157.229-.419.455-.787.68-.436.257-.758.539-.965.844-.207.304-.309.666-.305 1.085v.584h1.111v-.413c0-.334.072-.608.216-.822.144-.213.417-.439.819-.676a3.02 3.02 0 00.968-.904c.239-.358.358-.786.358-1.286 0-.656-.248-1.203-.745-1.64-.498-.439-1.146-.657-1.946-.657-.893 0-1.569.239-2.028.717a2.624 2.624 0 00-.74 1.745zm2.628 6.881a.849.849 0 00.632-.247.865.865 0 00.244-.635.874.874 0 00-.244-.641.849.849 0 00-.632-.248.86.86 0 00-.634.248.867.867 0 00-.248.64c0 .26.083.47.248.636a.86.86 0 00.634.247zm31.819 67.426c-3.788 0-6.727-1.513-8.816-4.538-2.089-3.025-3.133-7.098-3.133-12.219 0-5.076 1.052-9.134 3.156-12.174 2.104-3.04 5.035-4.56 8.793-4.56 3.759 0 6.682 1.513 8.771 4.538 2.09 3.025 3.134 7.083 3.134 12.174 0 5.12-1.041 9.197-3.123 12.23-2.08 3.032-5.008 4.548-8.782 4.548zm0-3.527c2.53 0 4.47-1.194 5.818-3.583 1.347-2.388 2.021-5.604 2.021-9.647 0-3.983-.681-7.176-2.044-9.58-1.362-2.403-3.294-3.604-5.795-3.604-2.5 0-4.44 1.205-5.817 3.616-1.378 2.41-2.067 5.593-2.067 9.546 0 4.043.682 7.262 2.044 9.658 1.363 2.396 3.31 3.594 5.84 3.594z" fill="#DB394B"/><g transform="translate(482)"><use fill="#FFF" xlink:href="#g"/><use fill="#000" filter="url(#h)" xlink:href="#g"/><use stroke="#E3E4E8" stroke-width="2" xlink:href="#g"/></g><path d="M558.96 125.651h-1.085c-.034.453-.196.812-.486 1.076-.29.265-.674.397-1.152.397-.474 0-.851-.129-1.133-.387a1.27 1.27 0 01-.422-.978c0-.338.078-.622.235-.85.157-.229.419-.455.787-.68.436-.258.758-.54.965-.844.207-.304.309-.666.305-1.085v-.584h-1.111v.412c0 .335-.072.609-.216.822-.144.214-.417.44-.819.676a3.019 3.019 0 00-.968.905c-.239.358-.359.786-.359 1.285a2.1 2.1 0 00.746 1.641c.498.438 1.146.657 1.946.657.893 0 1.569-.239 2.028-.717.46-.478.706-1.06.74-1.746zm-2.627-6.88a.849.849 0 00-.632.247.865.865 0 00-.244.635.87.87 0 00.244.64.849.849 0 00.632.249.86.86 0 00.634-.248.867.867 0 00.248-.641.86.86 0 00-.248-.635.86.86 0 00-.634-.247zM488.501 10.233h1.086c.034-.452.196-.811.486-1.076.29-.264.673-.396 1.152-.396.474 0 .851.129 1.133.387.281.258.422.584.422.977 0 .339-.079.623-.235.851-.157.229-.419.455-.787.68-.436.257-.758.539-.965.844-.207.304-.309.666-.305 1.085v.584h1.111v-.413c0-.334.072-.608.216-.822.144-.213.417-.439.819-.676a3.02 3.02 0 00.968-.904c.239-.358.358-.786.358-1.286 0-.656-.248-1.203-.745-1.64-.498-.439-1.146-.657-1.946-.657-.893 0-1.569.239-2.028.717a2.624 2.624 0 00-.74 1.745zm2.628 6.881a.849.849 0 00.632-.247.865.865 0 00.244-.635.874.874 0 00-.244-.641.849.849 0 00-.632-.248.86.86 0 00-.634.248.867.867 0 00-.248.64c0 .26.083.47.248.636a.86.86 0 00.634.247zM527.014 84v-6.738h-16.285V73.6c1.378-2.561 3.134-5.496 5.268-8.805 2.133-3.31 5.117-7.712 8.95-13.207h5.975v22.124h4.582v3.549h-4.582V84h-3.908zm-12.286-10.377v.09h12.286V54.958h-.068c-3.07 4.372-5.551 8.015-7.446 10.927-1.894 2.913-3.485 5.492-4.772 7.738z" fill="#3D3D3D"/><path d="M25.898 187.226c-1.6-2.51-2.94-5.1-4.12-7.749L2.598 191.45c-2.58 1.573-3.36 4.96-1.76 7.49l3.46 5.497c1.6 2.57 5 3.367 7.58 1.773l19.16-11.932a60.735 60.735 0 01-5.14-7.051" fill="#FFF"/><path d="M25.898 187.226c-18-28.684-9.24-66.492 19.58-84.42 28.8-17.927 66.74-9.183 84.76 19.522 17.96 28.684 9.2 66.491-19.62 84.4-28.8 17.927-66.76 9.182-84.72-19.502" fill="#FFF"/><path d="M31.894 183.49c-15.92-25.417-8.16-58.842 17.32-74.678 25.5-15.896 59.06-8.127 74.98 17.25 15.92 25.418 8.16 58.823-17.34 74.66-25.46 15.875-59.04 8.127-74.96-17.231" fill="#CBCBCB"/><g transform="translate(25.99 103.243)"><use fill="url(#i)" xlink:href="#j"/><use fill="#6D574F" xlink:href="#j"/></g><path d="M103.006 189.212c-9 4.98-10.04 4.82-18.5 4.283-7.88-.478-9.28-5.658-10.24-8.048-.96-2.41-4.3-10.12-15.08-8.804-6.22.776-10.08.836-11.72-4.303-1.24-3.865-2.72-6.713-6.86-9.263-4.84-3.028-5.24-11.991-3.96-18.585 2.6-10.338 9-19.7 18.78-25.816 20-12.41 46.34-6.334 58.82 13.585 11.98 19.084 6.84 43.963-11.24 56.95m18.62-61.531c-15.04-23.983-46.72-31.294-70.78-16.354-24.1 15.02-31.44 46.572-16.42 70.575 15.08 23.944 46.76 31.254 70.82 16.275 24.1-14.98 31.44-46.553 16.38-70.496" fill="#CCAC79"/><use fill="#634B46" xlink:href="#k"/><path d="M55.42 118.67c-9.78 6.116-16.18 15.498-18.78 25.816-1.28 6.594-.88 15.557 3.96 18.565 4.14 2.59 5.62 5.418 6.86 9.303 1.18 3.665 3.5 4.68 7 4.68 1.38 0 2.94-.158 4.72-.378.84-.119 1.66-.139 2.42-.139 8.86 0 11.78 6.693 12.66 8.924.98 2.39 2.36 7.57 10.24 8.048 2.26.159 3.96.278 5.44.278 4.12 0 6.44-.876 13.08-4.541 18.06-13.008 23.22-37.887 11.22-56.97-8.1-12.928-22-20.02-36.24-20.02-7.72 0-15.54 2.072-22.58 6.434m-4.82 52.648c-1.46-4.562-3.34-8.008-8.24-11.036-2.72-1.713-3.8-8.167-2.5-15.079 2.5-9.92 8.66-18.346 17.32-23.724A39.298 39.298 0 0178 115.523c13.68 0 26.2 6.912 33.44 18.485 10.92 17.37 6.42 40.358-10.2 52.41-6.46 3.565-8.14 4.063-11.3 4.063-1.28 0-2.82-.12-4.74-.24l-.48-.02c-5.24-.298-6.24-3.007-7.16-5.397l-.22-.618c-3.86-9.561-11.52-10.976-15.74-10.976-.92 0-1.86.04-2.82.16-1.5.179-3.06.358-4.32.358-2.66 0-3.26-.558-3.86-2.43"/><path d="M71.756 191.467a3.505 3.505 0 01-3.52 3.506 3.505 3.505 0 110-7.012c1.94 0 3.52 1.554 3.52 3.506m4.336 7.665a2.18 2.18 0 01-4.36 0c0-1.215.98-2.171 2.18-2.171 1.2 0 2.18.956 2.18 2.17m-4.296-14.784a2.356 2.356 0 01-2.34 2.351 2.347 2.347 0 01-2.36-2.35 2.343 2.343 0 012.36-2.331c1.28 0 2.34 1.056 2.34 2.33m-2.734 15.582c0 1.334-1.1 2.43-2.44 2.43-1.32 0-2.42-1.096-2.42-2.43a2.44 2.44 0 012.42-2.43c1.34 0 2.44 1.095 2.44 2.43m-20.43-11.301a2.734 2.734 0 01-2.72 2.73 2.739 2.739 0 110-5.479c1.5 0 2.72 1.235 2.72 2.75m23.73 14.373c0 .837-.66 1.474-1.46 1.474-.84 0-1.48-.637-1.48-1.474 0-.797.64-1.454 1.48-1.454.8 0 1.46.657 1.46 1.454m22.148-2.139c0 .916-.74 1.653-1.66 1.653-.92 0-1.66-.737-1.66-1.653s.74-1.673 1.66-1.673c.92 0 1.66.757 1.66 1.673M36.698 178.22c0 .916-.74 1.654-1.66 1.654-.92 0-1.68-.738-1.68-1.654 0-.916.76-1.653 1.68-1.653.92 0 1.66.737 1.66 1.653m16.132 1.556c0 1.056-.86 1.912-1.92 1.912-1.04 0-1.88-.856-1.88-1.912s.84-1.912 1.88-1.912c1.06 0 1.92.856 1.92 1.912m33.204 15.834c0 1.056-.84 1.912-1.92 1.912-1.04 0-1.88-.856-1.88-1.912s.84-1.892 1.88-1.892c1.08 0 1.92.836 1.92 1.892m-53.652-31.57c0 1.075-.88 1.912-1.92 1.912a1.9 1.9 0 01-1.9-1.913c0-1.035.86-1.892 1.9-1.892s1.92.857 1.92 1.892m14.14 9.181c0 .917-.74 1.654-1.66 1.654a1.653 1.653 0 110-3.307c.92 0 1.66.737 1.66 1.653m-15.956-16.029c0 .916-.76 1.673-1.68 1.673a1.67 1.67 0 01-1.66-1.673c0-.916.74-1.653 1.66-1.653.92 0 1.68.737 1.68 1.653m67.5 41.843c0 .917-.74 1.654-1.66 1.654-.92 0-1.66-.737-1.66-1.654 0-.936.74-1.653 1.66-1.653.92 0 1.66.717 1.66 1.653m-46.914-12.216c0 .597-.5 1.075-1.1 1.075a1.07 1.07 0 01-1.06-1.075c0-.598.48-1.076 1.06-1.076.6 0 1.1.478 1.1 1.076m11.542 13.987c0 .578-.48 1.076-1.08 1.076-.6 0-1.06-.498-1.06-1.076 0-.597.46-1.095 1.06-1.095.6 0 1.08.498 1.08 1.095m3.204-5c0 .419-.34.737-.72.737a.725.725 0 01-.74-.737c0-.418.32-.717.74-.717.38 0 .72.299.72.717m7.656-8.306c0 .458-.36.836-.82.836a.84.84 0 01-.82-.836c0-.438.38-.817.82-.817.46 0 .82.379.82.817m-5.548-6.556c0 .438-.38.817-.82.817-.46 0-.84-.379-.84-.817 0-.458.38-.836.84-.836.44 0 .82.378.82.836m-34.022-6.36c0 .458-.38.817-.84.817a.822.822 0 01-.82-.817c0-.438.38-.817.82-.817.46 0 .84.379.84.817m15.174 9.804a1.069 1.069 0 11-2.14 0c0-.597.46-1.075 1.06-1.075.62 0 1.08.478 1.08 1.075m-6.776 1.984c0 .578-.48 1.076-1.08 1.076-.58 0-1.06-.498-1.06-1.076 0-.577.48-1.075 1.06-1.075.6 0 1.08.498 1.08 1.075m18.222 8.637c0 .578-.46 1.056-1.08 1.056-.6 0-1.06-.478-1.06-1.056 0-.597.46-1.095 1.06-1.095.62 0 1.08.498 1.08 1.095m14.552 8.735c0 .518-.42.956-.96.956a.971.971 0 01-.96-.956c0-.518.44-.956.96-.956.54 0 .96.438.96.956m18.944-6.848c0 .578-.46 1.076-1.08 1.076-.58 0-1.06-.498-1.06-1.076 0-.598.48-1.096 1.06-1.096.62 0 1.08.498 1.08 1.096m9.062-3.833c0 .578-.48 1.076-1.08 1.076-.6 0-1.08-.498-1.08-1.076 0-.577.48-1.075 1.08-1.075.6 0 1.08.498 1.08 1.075M31.718 145.81c0 .598-.46 1.077-1.08 1.077a1.07 1.07 0 01-1.06-1.076c0-.598.48-1.076 1.06-1.076.62 0 1.08.478 1.08 1.076m5.136 12.762a1.09 1.09 0 01-1.08 1.096c-.58 0-1.08-.498-1.08-1.096a1.1 1.1 0 011.08-1.075c.6 0 1.08.498 1.08 1.075m2.656 16.01c0 .578-.48 1.056-1.1 1.056-.58 0-1.06-.478-1.06-1.056 0-.598.48-1.096 1.06-1.096.62 0 1.1.498 1.1 1.096m-9.276-21.263c0 .598-.46 1.076-1.08 1.076a1.07 1.07 0 01-1.06-1.075c0-.578.48-1.076 1.06-1.076.62 0 1.08.498 1.08 1.076m33.28 38.476a1.23 1.23 0 01-1.24 1.235c-.68 0-1.24-.557-1.24-1.235 0-.677.56-1.235 1.24-1.235.7 0 1.24.558 1.24 1.235m17.638 2.899a1.23 1.23 0 01-1.24 1.235c-.68 0-1.24-.558-1.24-1.235 0-.658.56-1.235 1.24-1.235.7 0 1.24.577 1.24 1.235m6.23 7.86c0 .677-.56 1.215-1.24 1.215-.7 0-1.24-.538-1.24-1.215s.54-1.235 1.24-1.235c.68 0 1.24.558 1.24 1.235m-52.754-35.23a1.23 1.23 0 01-1.24 1.235c-.68 0-1.24-.558-1.24-1.235s.56-1.235 1.24-1.235c.7 0 1.24.558 1.24 1.235m9.198 2.044a3.995 3.995 0 01-4 4.004 3.995 3.995 0 110-7.988c2.22 0 4 1.793 4 3.984m21.7 14.764c0 3.148-2.58 5.697-5.74 5.697-3.14 0-5.72-2.55-5.72-5.697 0-3.147 2.58-5.697 5.72-5.697 3.16 0 5.74 2.55 5.74 5.697" fill="#634B46"/><path d="M906.895 142.478c0 43.658-35.213 79.049-78.612 79.049-43.398 0-78.612-35.391-78.612-79.049 0-43.657 35.214-79.066 78.612-79.066 43.399 0 78.612 35.409 78.612 79.066" fill="#FFF"/><path d="M900.703 142.478c0 40.2-32.437 72.8-72.414 72.8-39.996 0-72.415-32.6-72.415-72.8 0-40.217 32.42-72.817 72.415-72.817 39.977 0 72.414 32.6 72.414 72.817" fill="#B5C0C6"/><path d="M889.351 142.478c0 33.914-27.332 61.398-61.059 61.398-33.726 0-61.077-27.484-61.077-61.398s27.35-61.416 61.077-61.416 61.06 27.502 61.06 61.416" fill="#1A1019"/><path d="M816.396 229.154c-8.598-4.682-20.903-19.631-17.679-38.362s23.07-25.233 29.267-28.89c5.248 5.404 20.777 15.85 17.141 36.976-3.672 21.145-19.97 28.44-28.73 30.276" fill="#558F1F"/><path d="M816.396 229.154c10.012-16.605 13.129-54.698 11.588-67.251 5.248 5.403 20.777 15.849 17.141 36.975-3.672 21.145-19.97 28.44-28.73 30.276" fill="#437D1F"/><path d="M828.498 162.389c-.304-.108-.573-.216-.877-.288-5.965 3.368-22.336 9.15-27.655 24.026-.036 4.304.788 9.203 2.883 14.75 4.657 12.302 12.485 20.803 20.312 26.134 8.65-3.638 19.129-11.707 21.959-28.133 3.528-20.532-11.016-30.942-16.622-36.489" fill="#8DC74F"/><g transform="translate(802.518 44.937)"><mask id="m" fill="#fff"><use xlink:href="#l"/></mask><path d="M28.658.838C39.673 4.945 57.1 21.568 57.1 46.621S35.177 84.606 28.658 90.765C21.44 84.894 1.164 74.88 1.164 46.621c0-28.258 17.589-41.46 27.494-45.783" fill="#6CA62E" mask="url(#m)"/></g><g transform="translate(830.54 44.937)"><mask id="o" fill="#fff"><use xlink:href="#n"/></mask><path d="M.636.838c11.015 4.107 28.442 20.73 28.442 45.783S7.155 84.606.636 90.765C7.19 57.284 5.615 21.947.636.838" fill="#629C24" mask="url(#o)"/></g><path d="M815.853 143.867c-7.093 8.717-26.49 19.38-46.73 11.635-20.258-7.709-23.195-31.555-25.935-39.39 7.218-4.736 22.245-19.991 45.082-11.274s27.458 28.745 27.583 39.029" fill="#5F9921"/><path d="M815.853 143.867c-17.159-11.815-53.877-25.935-72.665-27.754 7.218-4.737 22.245-19.992 45.082-11.275s27.458 28.745 27.583 39.029" fill="#558F1F"/><path d="M815.853 143.867c-.125-10.284-4.746-30.312-27.583-39.03-12.216-4.664-22.138-2.467-29.876 1.298-1.039 11.797 1.505 26.98 11.714 41.298 3.296 4.61 6.699 8.05 10.138 10.626 15.887 1.279 29.822-7.078 35.607-14.192" fill="#8DC74F"/><g transform="translate(860.296 119.01)"><mask id="q" fill="#fff"><use xlink:href="#p"/></mask><path d="M58.073 22.871c-2.991 7.69-14.096 19.542-29.947 18.785C12.274 40.9 4.84 24.942 1.169 20.151 5.128 15.2 12.15 1.114 30.024 1.98c17.876.863 25.631 13.74 28.05 20.89" fill="#4D871F" mask="url(#q)"/></g><g transform="translate(860.296 119.01)"><mask id="s" fill="#fff"><use xlink:href="#r"/></mask><path d="M58.073 22.871c-13.487-3.17-37.685-5.511-56.904-2.72C5.128 15.2 12.15 1.114 30.024 1.98c17.876.863 25.631 13.74 28.05 20.89" fill="#437D1F" mask="url(#s)"/></g><path d="M829.199 146.277c5.015 10.698 5.874 34.85-11.571 52.735-17.445 17.866-42.11 11.653-51.065 11.454-1.074-9.257-8.58-30.708 11.123-50.88 19.684-20.171 41.446-17.182 51.513-13.31" fill="#80BA42"/><path d="M829.199 146.277c-23.5 16.804-51.602 45.44-62.636 64.19-1.074-9.258-8.58-30.709 11.123-50.88 19.684-20.172 41.446-17.183 51.513-13.31" fill="#73B03F"/><path d="M831.665 154.684c-4.567-.756-8.723-.144-11.66.324-6.251 4.485-19.04 16.264-10.389 39.083a56.701 56.701 0 004.012 8.465c1.344-1.08 2.705-2.233 4.012-3.548 13.738-14.12 16.103-32.095 14.025-44.324" fill="#8DC74F"/><path d="M906.458 202.648c-10.818 7.042-35.822 11.833-55.274-3.8-19.469-15.651-14.328-42.83-14.58-52.357 9.547-2.63 31.363-14.012 53.322 3.62 21.96 17.65 20.007 41.226 16.532 52.537" fill="#73B03F"/><path d="M906.458 202.648c-10.926-19.938-51.942-48.61-69.853-56.157 9.546-2.63 31.362-14.012 53.321 3.62 21.96 17.65 20.007 41.226 16.532 52.537" fill="#6CA62E"/><path d="M845.956 143.445c-3.761 1.153-6.95 2.396-9.35 3.044.18 7.132-2.632 24.152 4.084 38.813 14.884 1.44 27.082-4.395 31.846-9.672-.842-6.826-5.695-22.225-26.58-32.185" fill="#8DC74F"/><path d="M896.12 95.2c3.546 10.663 2.077 32.924-15.368 46.252-17.445 13.346-39.207 3.368-47.285 1.62-.126-8.663-4.908-29.59 14.776-44.648 19.703-15.039 39.118-8.519 47.877-3.224" fill="#8DC74F"/><path d="M896.12 95.2c-20.92 10.555-45.512 30.186-62.653 47.873-.126-8.664-4.908-29.592 14.776-44.649 19.703-15.039 39.118-8.519 47.877-3.224" fill="#80BA42"/><path d="M829.077 149.479c.322-.378.645-.738.985-1.117a35.417 35.417 0 00-.86-2.089c-7.576-2.918-21.762-5.313-36.718 2.27 14.365 8.14 30.306 3.35 36.593.936" fill="#8DC74F"/><path d="M779.855 72.95c-6.036 9.978-9.027 34.887 7.11 57.526 16.157 22.64 35.34 17.848 43.507 14.697 6.072-6.718 18.753-20.893.52-46.432-18.216-25.557-40.57-27.484-51.137-25.79" fill="#9AD056"/><path d="M831 98.736c18.234 25.539 5.553 39.713-.519 46.431-4.138-15.02-32.007-57.814-50.617-72.222 10.55-1.675 32.903.234 51.136 25.79" fill="#8DC74F"/><path d="M858.095 217.019c-10.156-.378-29.733-10.266-38.384-33.104-8.633-22.82 4.173-34.598 10.406-39.083 7.81-1.206 24.27-3.656 34.014 22.117 9.743 25.755.304 43.136-6.036 50.07" fill="#8DC74F"/><path d="M864.129 166.944c-9.744-25.773-26.204-23.324-34.013-22.117 8.92 10.32 26.508 51.546 27.977 72.186 6.358-6.916 15.78-24.296 6.036-50.07" fill="#80BA42"/><path d="M865.93 172.448a61.725 61.725 0 00-1.808-5.511c-9.744-25.756-26.186-23.324-34.014-22.1-.376.253-.77.559-1.164.883-.161 6.574 2.185 15.76 14.741 22.153 7.863 4.017 15.619 5.08 22.246 4.575" fill="#8DC74F"/><path d="M889.666 148.424c-3.76 6.862-17.176 16.912-35.66 15.002-18.485-1.89-22.103-14.732-22.998-20.568 1.862-5.781 5.839-17.92 26.705-15.777 20.849 2.18 29.392 14.607 31.953 21.343" fill="#A6D85D"/><path d="M857.71 127.088c-20.867-2.143-24.843 9.996-26.706 15.777 10.066-2.593 44.133-.522 58.659 5.566-2.544-6.736-11.105-19.2-31.954-21.343" fill="#9ED055"/></g></svg>