<svg width="163" height="15" xmlns="http://www.w3.org/2000/svg"><path d="M4.272 9.256c.117 0 .176-.032.176-.096.128.043.25.064.368.064.15 0 .32-.037.512-.112l.304.048.304-.192c.395-.139.688-.219.88-.24l.288-.144a2.7 2.7 0 00.992-.576c.15-.032.272-.053.368-.064l.272-.256.128-.16.544-.336.112-.224c.277-.032.437-.224.48-.576l.208-.48-.416-.272-.512.272-.848.816-.288.128-.192.192-.224.112-.24.064-.128.208a.514.514 0 01-.304.08c-.256.085-.41.16-.464.224-.213 0-.363.043-.448.128-.224 0-.41.07-.56.208-.053.01-.133.016-.24.016l-.144.064-.112-.08H4.88a.882.882 0 00-.176-.032c-.117 0-.24.053-.368.16l-.096.016-.176-.192-.368.128-.16-.144-.416-.048.016-.096-.576-.208-.016-.08-.224-.224.064-.112L2.208 7v-.224l-.144-.128-.032-.096-.128-.208.064-.336-.016-.448.064-.048v-.064l.176-.144-.096-.256.144-.256-.016-.064.144-.64.304-.464V3.48l.192-.128L2.976 3l.08-.032.384-.528.448-.4.208-.288c.096 0 .197.016.304.048l.192-.128.192.032.08-.048.304.192.08-.176.128.08h.304c.01.085.17.17.48.256l.048.032c.096.064.165.112.208.144l.08.128-.048.176v.4l.048.256v.24l.096.336.176.24.32.208c.619-.15.928-.39.928-.72V3.4c.021-.128.032-.203.032-.224l.016-.384L8 2.488l-.096-.24-.112-.336-.16-.144-.112-.224-.944-.528L6.368.84A3.504 3.504 0 015.6.568L5.408.552 5.312.52h-.176a2.98 2.98 0 00-.48.08L4.352.456 4.112.6l-.416.112-.144.128a.997.997 0 00-.448.368c-.075.075-.219.123-.432.144l-.08.288-.24.112-.064.368a3.016 3.016 0 00-.224.208l-.352.176.08.32-.064.08c-.16.203-.25.379-.272.528l-.128.336-.208.464-.208.72-.016.096-.128.064v.368l-.08.272c0 .181.021.32.064.416-.01.15-.016.288-.016.416 0 .203.05.403.152.6.101.197.195.301.28.312.107.277.213.47.32.576l-.032-.032v.064c.043.245.23.39.56.432l.08.176.4.128.208.128.48.192.16-.048.128.032.288-.08-.064.064h.128c.203.085.352.128.448.128zm8.432.32l.272-.08.24-.256c.021 0 .048.005.08.016h.08a.765.765 0 00.48-.16l.08.096a.78.78 0 00.176-.064v-.016l.304.032.256-.224.208.048.272-.032.096-.064.256.064.112-.064.16.08.416-.304.112.064a.602.602 0 00.288-.112 2.92 2.92 0 01.24-.176l.208.032.16-.128.368.032.224-.24.112-.048.288-.208.336-.064.192-.288.176-.032.064-.192.256-.224.096-.288.016-.176c0-.139-.075-.272-.224-.4a1.372 1.372 0 00-.27-.219l-.154-.101a.676.676 0 00-.192-.064.468.468 0 01-.248-.112H18a.717.717 0 00-.288-.072 3.097 3.097 0 01-.352-.04l-.128-.08c-.181 0-.33-.003-.448-.008a.693.693 0 01-.272-.056.526.526 0 01-.16.032h-.128a1.81 1.81 0 01-.336-.08.516.516 0 00-.224.064c-.043-.053-.128-.07-.256-.048-.128.021-.25.043-.368.064-.032 0-.096.005-.192.016l-.312.032-.162.016-.15.016a2.42 2.42 0 01-.176.016v-.032c.128-.043.227-.075.296-.096a3.92 3.92 0 00.192-.064c.059-.021.117-.045.176-.072.059-.027.141-.061.248-.104l.288-.032.416-.176h.176l.288-.24.112.032.24-.144c.117-.032.224-.08.32-.144a2.18 2.18 0 00.32-.272l.24-.432-.112-.448-.304-.192-.08-.208h-.336L16.4 2.84l-.288-.096a.742.742 0 01-.144-.016 1.48 1.48 0 01-.176-.048l-.176-.176h-.432a.44.44 0 00-.336-.16l-.064-.08-.352.064a1.77 1.77 0 01-.4-.064L13.92 2.2a.928.928 0 00-.4-.128l-.16.032a.586.586 0 00-.112-.024 1.327 1.327 0 00-.16-.008.93.93 0 00-.224.016l-.368-.096-.416-.16-.096.032-.08-.048c-.064 0-.13.003-.2.008s-.147.019-.232.04a2.176 2.176 0 00-.384-.04 17.07 17.07 0 00-.56-.008h-.032l-.16-.064h-.048a.495.495 0 00-.432.24c-.203.032-.304.144-.304.336 0 .224.245.475.736.752l.288-.176.144.224.256-.16.048.064.16-.096.16.096.16-.128.016.016.096.208.08.112-.032.192.08.064-.032.144.176.352.016.192-.032.112.08.224-.048.208.064.224-.112.048.096.272-.16.096c-.117.075-.213.13-.288.168-.075.037-.123.115-.144.232.043.139.224.293.544.464l.016.048.112.352-.048.32.064.192-.112.224.048.32-.08.24.032.32-.016.272c.096.245.144.395.144.448v.112l.096.08.128.144.176.144.24.128zm.384-4.48l-.048-.16.096-.24-.08-.24.016-.304-.08-.176.08-.224-.096-.272v-.352l.064-.032.272.096.096-.064.048.016.16-.032.176.16.336-.048c.224.032.39.048.496.048h.064l.128.144.096-.048.24.064.304.224.16-.112.208.048.144.08h.16l.096.112a.758.758 0 00-.2.088 1.911 1.911 0 00-.168.12h-.032l-.24.128c-.064.043-.107.064-.128.064l-.064.048a1.163 1.163 0 00-.48.16l-.08.016-.224.064a.25.25 0 01-.152.096c-.059.01-.163.037-.312.08l-.4.208-.048.112-.096-.064-.064.032a.315.315 0 01-.128.104c-.043.016-.075.03-.096.04l-.224.016zm.432 3.12l-.32-.048-.032-.224-.048-.016-.016-.08.112-.24-.032-.176-.112-.176.032-.208-.032-.096.08-.224-.08-.048v-.288c0-.16.085-.24.256-.24l.16.064.48.016.016-.096.224.16.32-.032a.292.292 0 01.152.008.395.395 0 00.12.024.52.52 0 00.184-.032.37.37 0 01.216 0l.176.016c.096.01.163.019.2.024.037.005.099.008.184.008.107.053.187.085.24.096a.458.458 0 00.24-.08c.064.01.128.048.192.112l.304-.032.128.112.272-.032.336.144h.08l.048.08.24.032.048.032-.08.08-.096.176-.32.096-.128.16a.516.516 0 01-.176.136 1.168 1.168 0 01-.24.088 4.49 4.49 0 01-.256.056c-.085.016-.16.024-.224.024l-.176.032-.192.16-.208-.016-.352.144-.416.128-.4-.016-.256.128a.245.245 0 01-.104.008.48.48 0 01-.136-.072l-.288.016-.32.112zm7.68 1.68a.731.731 0 01-.024-.328 4.404 4.404 0 01.12-.6c.021-.075.021-.112 0-.112l.24-.464.16-.112.304-.384.16-.144.064.08.16-.192.16.08.016-.208.16-.128.256-.208.304-.16.304-.192.192-.112.416-.048.224-.144.256-.128.16.032c.032 0 .05.016.056.048.005.032.045.053.12.064l.16-.016.08.064.016.032a.279.279 0 00.088.064c.027.01.05.027.072.048l.072.032c.027.01.056.01.088 0a.384.384 0 00.12-.08.938.938 0 00.168-.24l-.048-.16a1.68 1.68 0 00-.048-.528l-.288-.256-.032.048c-.021-.01-.037-.013-.048-.008a.111.111 0 01-.048.008l-.192-.176a.394.394 0 01-.176.128.84.84 0 00-.184-.048 1.4 1.4 0 01-.296-.096l-.016-.016-.208-.144h-.112l-.016-.016h-.096a.826.826 0 01-.528-.192L23.392 5l-.016-.064-.192-.08-.096-.128a.333.333 0 01-.128.016l-.128-.224c-.043-.043-.08-.064-.112-.064-.021 0-.037.021-.048.064-.021-.032-.085-.075-.192-.128l-.016-.064-.096-.064-.016-.112.08-.176.096-.128.112-.032.256-.208.352-.192a3.05 3.05 0 01.328-.184c.101-.048.2-.093.296-.136l.208.128.336-.224.16.016.208-.112h.208l.192-.112h.048c.021.01.048.016.08.016.075 0 .187-.037.336-.112l.32-.048.256.032.256-.08.288.064.032-.032.208.112.16-.096v.08h.336l.24.128.288.048.368.176.144-.352c.107-.139.16-.32.16-.544l-.144-.16a.33.33 0 00-.136-.184.951.951 0 00-.256-.12 5.324 5.324 0 00-.312-.088l-.288-.072h-.112a.123.123 0 01-.048.016h-.016l-.096.016.048.032-.288-.08-.032.032a.333.333 0 00-.128-.016.435.435 0 00-.12.016c-.037.01-.083.027-.136.048h-.544l-.416.032-.416.096-.208.144-.192-.048-.352.144-.416.016-.048.08h-.288l-.304.176-.304.032-.064.096a.879.879 0 00-.496.176l-.272-.048-.112.272-.144.112h-.24l-.176.256-.512.288v.208l-.256.432.128.432.256.208v.176l.12.04c.048.016.099.035.152.056l.032.016c.043.107.117.17.224.192a.588.588 0 00.248.16c.112.043.237.08.376.112.075.075.139.133.192.176a.323.323 0 00.208.064l.176.096h.272l.16.096.064.016c.01.021.037.043.08.064l-.32.072a.507.507 0 00-.24.104l-.032.016-.224.016-.08.112-.384.144-.224.144h-.144l-.4.384-.208.016-.048.08h-.288l-.016.336a.145.145 0 01-.104.048.496.496 0 00-.12.016l-.08.336-.016.048-.336.208-.112.272-.192.224.016.224-.048.032c-.15.544-.165.827-.048.848v.032c0 .01.016.032.048.064.021.021.08.04.176.056.096.016.208.03.336.04a9.101 9.101 0 00.72.032zm5.648-.624l.448-.112c.203-.053.336-.117.4-.192a.404.404 0 00.096-.272c0-.192-.112-.304-.336-.336l-.064-.128.016-.288-.144-.432.096-.32-.176-.528.16-.928.064-.128-.064-.24.128-.192L27.408 5l.192-.128.016-.32.24-.048a1.88 1.88 0 01-.168-.216.365.365 0 01-.056-.2V4.04c.15-.213.224-.373.224-.48 0-.139-.04-.24-.12-.304-.08-.064-.237-.096-.472-.096H26.8a1.555 1.555 0 00-.16.12.34.34 0 00-.096.152l.016.032-.032.032-.176.288-.032.704-.048.208.016.48-.08.08-.064.544-.08.16.192.304-.224.88.048.176-.16.128.224.336v.48l.208.528.496.48zm9.264 2.272c.064 0 .12-.035.168-.104.048-.07.09-.157.128-.264.037-.107.07-.227.096-.36.027-.133.04-.27.04-.408l-.208-.128.192-.192a.65.65 0 01-.128-.352.634.634 0 01.08-.296.533.533 0 00-.064-.6l.048-.272-.016-.592.096-.288-.096-.336.048-.368c-.01.01-.048.016-.112.016l.08-.4h.048l-.048-.448a.702.702 0 01.176.072.132.132 0 01.064.12l.192.224.192.176.304.128.16.288.208.032.496.336.256.16.208.288 1.056.656.224.304.4.128.16.224h.16l.336.288.192.08.208.096.112.016.048-.016c.15.16.277.235.384.224.117-.021.203-.123.256-.304.053-.181.07-.347.048-.496a1.594 1.594 0 01-.328-.256 1.676 1.676 0 01-.2-.256l-.096-.032V8.6a.123.123 0 00-.016-.048l-.032-.064c-.299-.053-.49-.187-.576-.4l-.32-.112-.128-.08a4.162 4.162 0 00-.136-.128 6.513 6.513 0 01-.216-.208l-.304-.16-.176-.176c-.128-.032-.197-.107-.208-.224l-.24-.032-.272-.272-.096-.064-.256-.032-.16-.224-.192-.048-.32-.208-.16-.064-.384-.16-.048-.064.4-.016.352-.016.224-.096.272-.032.272-.144.4-.16.288-.24.256-.064.016-.08c.085-.064.144-.112.176-.144l.32-.032c.064-.128.096-.213.096-.256v-.064a.474.474 0 00.336-.288l.192-.192.112-.288.176-.048.048-.224.112-.08-.016-.096.032-.08-.064-.032.16-.336a.658.658 0 00-.032-.496c-.075-.15-.155-.25-.24-.304-.31-.032-.49.096-.544.384l-.144.112-.192.224a.313.313 0 00-.024.064.276.276 0 01-.04.08c-.117.053-.213.165-.288.336l-.24.016-.016.16-.064.096c-.192.053-.304.155-.336.304l-.128-.016-.16.24-.224.016v.064l-.128-.016-.016.16-.224.064-.128.176-.336.096c-.245.01-.368.037-.368.08v.032a.607.607 0 00-.368.16l-.288-.032v.032l-.336.208-.208-.016c.01-.053.016-.133.016-.24v-.12a.364.364 0 00-.032-.12l.144-.416.016-.4.096-.304.128-.416-.048-.064-.016-.432.08-.752h.048v-.096c0-.245-.07-.464-.208-.656a5.618 5.618 0 00-.24-.096.866.866 0 00-.304-.048l-.48.128-.048.176h-.224v.512l.048-.096-.064.288-.032-.032.064.4-.064.224a.425.425 0 01-.024.216c-.027.07-.053.136-.08.2-.027.064-.048.12-.064.168a.172.172 0 00.008.136l-.032.416.096.016v.144l-.096.384.08.08-.048.08.032.752-.16-.016-.336-.208v-.032l-.288.032a.607.607 0 00-.368-.16v-.032c0-.043-.123-.07-.368-.08l-.336-.096-.128-.176-.224-.064-.016-.16-.128.016V4.04l-.224-.016-.16-.24-.128.016c-.032-.15-.144-.25-.336-.304l-.064-.096L32 3.24l-.24-.016c-.075-.17-.17-.283-.288-.336a.276.276 0 01-.04-.08.313.313 0 00-.024-.064l-.192-.224-.144-.112c-.053-.288-.235-.416-.544-.384-.085.053-.165.155-.24.304a.658.658 0 00-.032.496l.16.336-.064.032.032.08-.016.096.112.08.048.224.176.048.112.288.192.192c.075.16.187.256.336.288v.064c0 .043.032.128.096.256l.32.032c.032.032.09.08.176.144l.016.08.256.064.288.24.4.16.272.144.272.032.224.096.352.016.4.016-.048.064-.384.16-.16.064-.32.208-.192.048-.16.224-.256.032-.096.064-.272.272-.24.032c-.01.117-.08.192-.208.224l-.176.176-.304.16a6.513 6.513 0 01-.216.208 4.162 4.162 0 00-.136.128l-.128.08-.32.112c-.085.213-.277.347-.576.4-.032.053-.048.09-.048.112v.032l-.096.032c-.053.085-.12.17-.2.256-.08.085-.19.17-.328.256-.021.15-.005.315.048.496s.139.283.256.304c.107.01.235-.064.384-.224l.048.016.112-.016.208-.096.192-.08.336-.288h.16l.16-.224.4-.128.224-.304 1.056-.656.208-.288.256-.16.496-.336.208-.032.16-.288.304-.128.192-.176.256-.32-.032 1.072-.032.096.048.496.016.144a.526.526 0 00-.016.128v.128c0 .043.003.088.008.136.005.048.013.104.024.168l.016.128-.032.416.064.272-.128.208.16.448c0 .064-.005.136-.016.216-.01.08.027.195.112.344l.08.128a.76.76 0 00.08.24 1.43 1.43 0 00.352.448.3.3 0 00.192.08zm7.92-2l.896-.224v-.112h.016l.08-.064a.49.49 0 00.184-.072.5.5 0 01.168-.072l.112-.208.08-.016 1.152-.848.064-.128.384-.192.256-.224.192-.112.256-.256.608-.496.448-.64.256-.064.176-.256a2.825 2.825 0 00.624-.624l.176-.208.304-.224.4-.544.08.016-.048.24-.048.304-.128.144.08.576-.048.4.144.672-.048.192a.32.32 0 00-.112.256c0 .053-.003.104-.008.152a.239.239 0 00.024.136l-.144.032.144.48-.048.304.016.272-.112.192.16.224a.287.287 0 00-.048.144c.01.107.04.205.088.296.048.09.099.179.152.264h.288c.17 0 .328-.048.472-.144a.613.613 0 00.264-.432l-.128-.464.128-.224-.096-.208a.965.965 0 01.04-.072.238.238 0 00.024-.12.333.333 0 00-.016-.128l.112-.128.048-.096v-.072a.28.28 0 00-.016-.088v-.144l.048-.416-.08-.16-.08-.224.128-.384-.224-.4.144-.256-.032-.64.08-.464-.016-.384.064-.128.064-.784c.053-.075.08-.139.08-.192a.336.336 0 00-.048-.176c.01-.139-.101-.219-.336-.24l-.144.032-.128-.144a1.57 1.57 0 00-.376.256 1.295 1.295 0 00-.28.32l-.224.112-.08.208-.256.144-.624.832-.592.352-.048.096-.32.48a.685.685 0 01-.208.04c-.085.005-.139.05-.16.136l-.016.08-.384.272-.432.512-.928.848a4.61 4.61 0 00-.36.184.595.595 0 00-.264.296l-.496.24-.352.416-.112.16-.128-.496.24-.56-.112-.256.064-.048.016-.72-.144-.208v-.048l.24-.208-.144-.528.112-.432v-.768l.224-.176L45.28 3l.192-.112-.176-.16.096-.144-.8-.304-.08.144-.512.064a.292.292 0 01-.016.216.352.352 0 00-.048.168c0 .053-.027.085-.08.096a.752.752 0 00-.144.272l.048.192-.048.304.016.048c.01.437.059.693.144.768l.032.064-.096.624.176.256-.112.144.128.512-.128.16.08.448-.016.208.064.288-.208.336.24.304-.32.16.08.176-.048.048.16.592-.272.288.24.176.16.208zm13.136-.128l.2-.008a2.21 2.21 0 00.328-.04 1.272 1.272 0 01-.064-.432.45.45 0 01.032-.176l.023-.046a.47.47 0 00.009-.114l-.048-.192a.516.516 0 00.096-.288v-.064a.123.123 0 01-.016-.048c.032-.139.048-.197.048-.176 0-.043-.005-.07-.016-.08l.08-.256.048-.56-.064-.304.08-.144v-.112l.16-.224-.096-.112.096-.384-.112-.16c.075-.128.112-.373.112-.736v-.352l.016-.208-.064-.112.048-.464h.16l.032-.16.224.048c.203 0 .368-.016.496-.048a1.61 1.61 0 01.4-.064h.048l.096.032h.32c.224-.032.379-.07.464-.112l.048-.016.256.064.848-.064.176.032.24-.032h.256l.16-.048.336-.816h-.4l-.304-.032-.672.016-.288-.064-.208.064-.048-.016-.4-.08-.464.064h-.096a.849.849 0 00-.096.008 1.17 1.17 0 01-.144.008h-.16a1.016 1.016 0 00-.352-.08c-.032 0-.104.01-.216.032-.112.021-.27.048-.472.08l-.4-.096-.192.064h-.048l-.192-.24-.032-.032-.016.016-.544-.128-.128.352-.352.128-.544-.064-.688-.016-.24.08-.912-.176-.256-.016-.304.272a.446.446 0 00-.032.192c0 .075.045.195.136.36.09.165.227.328.408.488l.448-.128.704.016.528.176.048-.112c.17.032.357.048.56.048v-.048h.096l.16-.08h.192l-.016.128.064.288-.064.464.064.288v.384a1.329 1.329 0 00-.064.448l.048.128-.032-.048a.29.29 0 00.024.128.189.189 0 01.024.08c0 .064-.032.096-.096.096 0 .053.01.133.032.24-.075.17-.112.283-.112.336-.043.032-.064.09-.064.176 0 .043.016.096.048.16a.466.466 0 01-.032.112c0 .053.037.133.112.24l-.048.56a.534.534 0 00-.048.24c0 .053.01.147.032.28.021.133.032.237.032.312 0 .096-.005.16-.016.192 0 .373.117.592.352.656h.032a.604.604 0 00.192.032zm7.888.496c.128-.192.261-.288.4-.288.064 0 .112.005.144.016l.096-.144c.075-.01.17-.043.288-.096l.176.032.16-.288.304-.192.288-.048.176-.304.096-.016a.996.996 0 00.24-.416c.192-.192.288-.352.288-.48 0-.15-.101-.341-.304-.576h-.064a.78.78 0 00-.576.224c-.032.181-.155.293-.368.336l-.048.08a.523.523 0 00-.208.192l-.4.128-.08.016-.16.24-.096.032-.16.112-.32.048-.544-.032-.128-.032v-.048l-.352-.096-.112-.096c-.075-.032-.128-.112-.16-.24-.085-.053-.128-.123-.128-.208V7.72a.123.123 0 00.016-.048c.01-.064.016-.165.016-.304l.064-.048c0-.075-.016-.24-.048-.496l.096-.272.016-.192.128-.096a3.51 3.51 0 01.064-.384h.032l.288.144.384-.16h.256l.304-.192h.048c.203 0 .352-.075.448-.224.288-.15.603-.347.944-.592l.016-.256.304-.336.16-.416.144-.096-.048-.528.048-.16c0-.352-.123-.624-.368-.816v-.064l-.272-.208a2.522 2.522 0 01-.384-.24l-.112-.064-.08.016a.476.476 0 00-.24-.064c-.075 0-.256.048-.544.144l-.064.096a1.242 1.242 0 00-.16.064.697.697 0 00-.192.208 3.766 3.766 0 00-.344.2 1.22 1.22 0 00-.104.152l-.128.032-.032.08h-.128a1.989 1.989 0 00-.096.368l-.064.064c-.15.181-.267.405-.352.672a.451.451 0 00-.144.144h-.048a.416.416 0 01-.368-.192.953.953 0 00-.096.4c0 .053.019.147.056.28.037.133.056.221.056.264a.223.223 0 01-.016.096c-.16.139-.24.299-.24.48l.048.384v.08a.681.681 0 00-.08.304l.032-.032-.112.192.016.112-.08.256v.336l-.064.256-.032.576.192.704v.24l.192.128.096.272.192.096v.048c.107.245.363.4.768.464l.128.08h.272a.865.865 0 00.352.064c.085 0 .15-.005.192-.016l.224.192zm-.832-5.264l.064-.112a.903.903 0 00.224-.464l.144-.096.256-.448.176-.128.272-.352.08-.032.144-.016.16-.112h.048c.021.01.037.016.048.016a.142.142 0 00.064-.016h.064L66 2.872l.08.016c.032.096.048.16.048.192 0 .075-.01.139-.032.192l-.208.304-.032.144-.048.048-.208.048v.176h-.112l-.08.24-.176-.064h-.096l-.128.192-.224-.016-.048.144-.112.048a.73.73 0 00-.4.112zm6.592 4.576l.112-.096.224.064.288-.128.256.032.4-.256.176-.016.256-.192.208-.032.24-.192a2.385 2.385 0 001.072-1.056.72.72 0 00.272-.464l.016-.096.304-.288v-.128c0-.416-.245-.661-.736-.736l-.048.368-.096.064a.594.594 0 01-.288.4c-.043.16-.213.373-.512.64-.256.053-.443.17-.56.352-.021.053-.059.08-.112.08h-.096a.64.64 0 00-.544.256 2.257 2.257 0 00-.288.096.923.923 0 00-.352.08h-.112a.54.54 0 00-.272.064l-.208-.048-.272-.048-.016-.128-.224-.064-.08-.336-.192-.192-.016-.08.032-.448.096-.048-.048-.352.128-.288-.016-.192.256-.704.208-.224V4.6l.096-.08.016-.16c.128-.192.256-.373.384-.544.128-.17.261-.272.4-.304h.208l.144-.048.08.064.16.192v.128l.096.176.032.528c.224.139.41.347.56.624.288-.032.544-.16.768-.384l-.064-.496v-.24l-.08-.064a2.7 2.7 0 00-.016-.352l.048-.24-.128-.128a1.274 1.274 0 00-.112-.32l-.224-.288-.336-.016a.45.45 0 00-.272-.144c-.117-.139-.384-.25-.8-.336-.49.032-.757.15-.8.352-.085.021-.16.043-.224.064l-.256.304-.032.16-.096.176-.064.144-.288.256-.208.448-.128.368-.032.16-.192.208.032.064-.064.384-.064.096-.128.416.048.256-.192.304.064.128-.08.192.08.272v.112c0 .107.016.224.048.352v.208l.16.24v.048c0 .139.08.31.24.512l.256.32.464.352.32.064.112.096.304-.048.304.048zm6.208.288l.304-.048.432-.064-.048.032.256.016.064-.032.304-.176.432.128.272.096c.075 0 .144-.035.208-.104a.475.475 0 01.192-.136l.048-.16.224-.224h.176a.561.561 0 00.16-.016l.064-.096.4.112.128-.208.128-.096.16-.288.24-.288.016-.048.304-.096-.048-.112a.393.393 0 00.08-.12c.021-.048.043-.099.064-.152l.08-.096.048-.192.336.16-.032-.352.08-.128-.016-.112.144.112a.651.651 0 01.064-.352 1.33 1.33 0 00.112-.304l-.032-.144.032-.352-.112-.112-.096-.272-.176-.256L81.952 5l-.112-.336-.288-.032a1.328 1.328 0 00-.264-.208 11.49 11.49 0 01-.264-.16l-.096.016-.528-.128-.192-.016-.432-.08-.304.176-.064.032-.256-.128-.112.048-.416-.016-.448-.096-.112.256-.4-.032-.4.144-.048-.24.064-.288.096-.096.112-.208-.208-.096.016-.112-.112-.288.064-.256-.064-.064a.669.669 0 00.032-.112c0-.064-.037-.133-.112-.208.01-.075.019-.141.024-.2.005-.059.008-.11.008-.152l.016-.24-.24-.176-.032-.16-.288-.336-.56.288v.032l-.256.048.256.544-.08.176.064.16a.725.725 0 00-.048.256.52.52 0 01.112.288.426.426 0 01-.048.192l.08.112a.237.237 0 00-.112.16l.128.144-.032.112c.021.107.032.224.032.352 0 .139-.005.224-.016.256l.064.128.016.224-.08.096v.352l.048.16-.144.432.08.096-.048.224-.016.944-.064.16v.56c-.01.01-.016.032-.016.064 0 .096.016.197.048.304l-.128.192.096.16v.288l.08.128.016.112a.693.693 0 00.544.448l.288-.032.128.144zm.672-1.216h-.208l-.224-.064-.048-.048-.032-.192-.064-.4-.032-.192.224-.224-.144-.512.016-.256.032-.528.048-.48.336-.08.336.08a.428.428 0 00.136-.104c.059-.059.11-.088.152-.088h.104c.016 0 .045-.016.088-.048l.128-.008a.586.586 0 01.176.008c.128 0 .235-.01.32-.032.085-.021.144-.037.176-.048a.413.413 0 01.088.08c.027.032.05.048.072.048a.476.476 0 00.24-.064h.128l.128-.048.304.176.192.048c.043-.021.083.003.12.072.037.07.05.104.04.104l.288.112.176.24.048.032.08.416-.064.176-.16.144-.096.272-.256.192-.176.272-.208.112-.256.064-.064.224-.048.016-.224.064-.144.08-.128.128-.144-.08-.16.24-.496.032h-.448l-.352.064zm12.192.928L90 9.128l.224.064.288-.128.256.032.4-.256.176-.016.256-.192.208-.032.24-.192a2.385 2.385 0 001.072-1.056.72.72 0 00.272-.464l.016-.096.304-.288v-.128c0-.416-.245-.661-.736-.736l-.048.368-.096.064a.594.594 0 01-.288.4c-.043.16-.213.373-.512.64-.256.053-.443.17-.56.352-.021.053-.059.08-.112.08h-.096a.64.64 0 00-.544.256 2.257 2.257 0 00-.288.096.923.923 0 00-.352.08h-.112a.54.54 0 00-.272.064l-.208-.048-.272-.048-.016-.128-.224-.064-.08-.336-.192-.192-.016-.08.032-.448.096-.048-.048-.352.128-.288-.016-.192.256-.704.208-.224V4.6l.096-.08.016-.16c.128-.192.256-.373.384-.544.128-.17.261-.272.4-.304h.208l.144-.048.08.064.16.192v.128l.096.176.032.528c.224.139.41.347.56.624.288-.032.544-.16.768-.384l-.064-.496v-.24l-.08-.064a2.7 2.7 0 00-.016-.352l.048-.24-.128-.128a1.274 1.274 0 00-.112-.32l-.224-.288-.336-.016a.45.45 0 00-.272-.144c-.117-.139-.384-.25-.8-.336-.49.032-.757.15-.8.352-.085.021-.16.043-.224.064l-.256.304-.032.16-.096.176-.064.144-.288.256-.208.448-.128.368-.032.16-.192.208.032.064-.064.384-.064.096-.128.416.048.256-.192.304.064.128-.08.192.08.272v.112c0 .107.016.224.048.352v.208l.16.24v.048c0 .139.08.31.24.512l.256.32.464.352.32.064.112.096.304-.048.304.048zm11.952.192l.2-.008a2.21 2.21 0 00.328-.04 1.272 1.272 0 01-.064-.432.45.45 0 01.032-.176l.023-.046a.47.47 0 00.009-.114l-.048-.192a.516.516 0 00.096-.288v-.064a.123.123 0 01-.016-.048c.032-.139.048-.197.048-.176 0-.043-.005-.07-.016-.08l.08-.256.048-.56-.064-.304.08-.144v-.112l.16-.224-.096-.112.096-.384-.112-.16c.075-.128.112-.373.112-.736v-.352l.016-.208-.064-.112.048-.464h.16l.032-.16.224.048c.203 0 .368-.016.496-.048a1.61 1.61 0 01.4-.064h.048l.096.032h.32c.224-.032.379-.07.464-.112l.048-.016.256.064.848-.064.176.032.24-.032h.256l.16-.048.336-.816h-.4l-.304-.032-.672.016-.288-.064-.208.064-.048-.016-.4-.08-.464.064h-.096a.849.849 0 00-.096.008 1.17 1.17 0 01-.144.008h-.16a1.016 1.016 0 00-.352-.08c-.032 0-.104.01-.216.032-.112.021-.27.048-.472.08l-.4-.096-.192.064h-.048l-.192-.24-.032-.032-.016.016-.544-.128-.128.352-.352.128-.544-.064-.688-.016-.24.08-.912-.176-.256-.016-.304.272a.446.446 0 00-.032.192c0 .075.045.195.136.36.09.165.227.328.408.488l.448-.128.704.016.528.176.048-.112c.17.032.357.048.56.048v-.048h.096l.16-.08h.192l-.016.128.064.288-.064.464.064.288v.384a1.329 1.329 0 00-.064.448l.048.128-.032-.048a.29.29 0 00.024.128.189.189 0 01.024.08c0 .064-.032.096-.096.096 0 .053.01.133.032.24-.075.17-.112.283-.112.336-.043.032-.064.09-.064.176 0 .043.016.096.048.16a.466.466 0 01-.032.112c0 .053.037.133.112.24l-.048.56a.534.534 0 00-.048.24c0 .053.01.147.032.28.021.133.032.237.032.312 0 .096-.005.16-.016.192 0 .373.117.592.352.656h.032a.604.604 0 00.192.032zm6.752 4.912c.299 0 .464-.373.496-1.12l.032-.64.08-.128-.064-.224c.117-.064.176-.144.176-.24 0-.032-.01-.08-.032-.144v-.24l-.096-.048.048-.16-.064-.24.128-.16-.064-.608.048-.4c0-.117-.01-.293-.032-.528l.128-.16-.048-.304a.906.906 0 00.048-.288V8.6c.075-.01.117-.016.128-.016l.128.096.336-.032.16.144.4-.096.448.064-.064-.032.272-.016.048.032.352.16.304-.112.144-.016.24-.08.096.016a2.22 2.22 0 00.464-.336l.288-.032.032-.304.064-.032.128-.224.064-.256.064-.096-.128-.32.192-.48-.112-.032-.048-.336-.128-.288.032-.256-.16-.16v-.112a1.276 1.276 0 01-.208-.624l-.16-.032-.032-.112-.112-.112v-.32h-.192l-.096-.176-.128-.08a.582.582 0 00-.192-.256V3.64l-.304-.096-.016-.032-.384-.24-.208-.256-.304-.096-.176-.192-.352.112.016-.096a.76.76 0 00-.176-.016l-.128-.096-.112.048-.08-.144a1.03 1.03 0 00-.4-.08l-.288-.208-.144.144-.256-.416-.384-.08-.144.56-.08.032-.448-.032-.112.112-.512.208-.112.112c-.267.01-.55.101-.848.272l.016.24a.41.41 0 00-.144.32c0 .181.261.427.784.736l.08-.16.16.064.192-.256h.144l.176-.16.112-.016v.096l.576-.256.048.112-.032.16.048.176-.048.32.064.064-.064.24.08.208-.08.272.08.256-.016.064v.176l-.016.064v.064l-.096.336-.016.272.112.08-.112.304.192.176-.176.304.112.208-.096.656.064.464-.144.176.112.144-.048.208.096.16a2.085 2.085 0 00-.096.544c0 .075.005.128.016.16-.075.032-.112.064-.112.096 0 .021.03.059.088.112a.417.417 0 01.12.176l-.128.288.096.32-.112.192.144.368-.128.208.064.48-.016.352-.16.288.096.704-.048.48c.31.085.496.128.56.128zm3.203-6.531a.773.773 0 00-.115-.045l-.256-.16-.32.096-.128-.032h-.144a.476.476 0 00-.24-.064.398.398 0 00-.176.048.882.882 0 00-.176-.032h-.048a.262.262 0 01-.064.016.382.382 0 00-.256-.096.4.4 0 00-.176.032h-.336l.016-.208-.048-.224.032-.208.08-.192-.112-.144c.085-.064.128-.112.128-.144 0-.01-.005-.021-.016-.032l.064-.176a1.222 1.222 0 01-.192-.512l.08-.48-.016-.24.176-.384-.224-.208-.064-.176.032-.304-.016-.192.288.048.064.112.16-.032.128.128.16-.08h.224l.064.016.112.208.16-.032.192.256.256-.032.256.336.144.064.112.272.192.16.24.416.064.176.128.256.016.16.064.128-.064.144.096.288-.016.064.016.08-.064.112-.112.128.048.128-.08.032-.032.224-.301.301zm5.421 2.115c.128-.192.261-.288.4-.288.064 0 .112.005.144.016l.096-.144c.075-.01.17-.043.288-.096l.176.032.16-.288.304-.192.288-.048.176-.304.096-.016a.996.996 0 00.24-.416c.192-.192.288-.352.288-.48 0-.15-.101-.341-.304-.576h-.064a.78.78 0 00-.576.224c-.032.181-.155.293-.368.336l-.048.08a.523.523 0 00-.208.192l-.4.128-.08.016-.16.24-.096.032-.16.112-.32.048-.544-.032-.128-.032v-.048l-.352-.096-.112-.096c-.075-.032-.128-.112-.16-.24-.085-.053-.128-.123-.128-.208V7.72a.123.123 0 00.016-.048c.01-.064.016-.165.016-.304l.064-.048c0-.075-.016-.24-.048-.496l.096-.272.016-.192.128-.096a3.51 3.51 0 01.064-.384h.032l.288.144.384-.16h.256l.304-.192h.048c.203 0 .352-.075.448-.224.288-.15.603-.347.944-.592l.016-.256.304-.336.16-.416.144-.096-.048-.528.048-.16c0-.352-.123-.624-.368-.816v-.064l-.272-.208a2.522 2.522 0 01-.384-.24l-.112-.064-.08.016a.476.476 0 00-.24-.064c-.075 0-.256.048-.544.144l-.064.096a1.242 1.242 0 00-.16.064.697.697 0 00-.192.208 3.766 3.766 0 00-.344.2 1.22 1.22 0 00-.104.152l-.128.032-.032.08h-.128a1.989 1.989 0 00-.096.368l-.064.064c-.15.181-.267.405-.352.672a.451.451 0 00-.144.144h-.048a.416.416 0 01-.368-.192.953.953 0 00-.096.4c0 .053.019.147.056.28.037.133.056.221.056.264a.223.223 0 01-.016.096c-.16.139-.24.299-.24.48l.048.384v.08a.681.681 0 00-.08.304l.032-.032-.112.192.016.112-.08.256v.336l-.064.256-.032.576.192.704v.24l.192.128.096.272.192.096v.048c.107.245.363.4.768.464l.128.08h.272a.865.865 0 00.352.064c.085 0 .15-.005.192-.016l.224.192zm-.832-5.264l.064-.112a.903.903 0 00.224-.464l.144-.096.256-.448.176-.128.272-.352.08-.032.144-.016.16-.112h.048c.021.01.037.016.048.016a.142.142 0 00.064-.016h.064l.032-.016.08.016c.032.096.048.16.048.192 0 .075-.01.139-.032.192l-.208.304-.032.144-.048.048-.208.048v.176h-.112l-.08.24-.176-.064h-.096l-.128.192-.224-.016-.048.144-.112.048a.73.73 0 00-.4.112zm11.136 5.168c.245-.01.437-.056.576-.136a.414.414 0 00.224-.344 3.08 3.08 0 00.048-.128.62.62 0 01.032-.08l-.016-.24-.064-.128v-.064a.503.503 0 00-.008-.08 4.243 4.243 0 00-.024-.128l.016-.144.128-.688-.016-.48.144-.096a.504.504 0 01-.056-.12 1.317 1.317 0 00-.072-.168c.032-.053.061-.115.088-.184a.597.597 0 00.04-.216l-.064-.016.032-.112a.298.298 0 00.064-.192c0-.053-.027-.107-.08-.16l.128-.352c.021-.043.064-.064.128-.064.043 0 .064.005.064.016l.304-.16.32-.08.24.128.272-.192.24.016.176-.128a.398.398 0 00.176.048h.064l.544-.32-.144-.288.176-.128-.384-.048a.409.409 0 00-.208-.048 1.1 1.1 0 00-.128.008.256.256 0 00-.112.04h-.32l-.176.016-.288-.016-.576.112-.304.016v-.096l.08-.56-.032-.176.096-.24-.064-.224v-.16l-.112-.272.08-.112v-.624l-.176.048V1.88l-.432.08-.16-.096-.496-.064-.144.368c-.15.075-.224.144-.224.208v.048l-.016.016c0 .01-.003.016-.008.016l-.006.004-.002.012a.832.832 0 00-.04.088.1.1 0 01-.024.04l.064.064.032.096.256.64-.096.176.096.496-.08.192.08.224-.08.048-.208-.016-.992.144h-.08c-.021 0-.085.01-.192.032l-.064-.016-.208-.016-.24-.128-.224.144a8.903 8.903 0 00-.592.016h-.24a.882.882 0 00-.176-.032h-.12a.303.303 0 00-.12.016l-.032-.048-.4.048-.24-.032-.352.048-.128-.048v-.16l.144-.176-.128-.208c.043-.117.07-.237.08-.36a4.34 4.34 0 00.008-.608 1.092 1.092 0 00-.04-.216l.128-.384-.128-.176-.048-.288-.304-.096-.272-.192-.64.288-.112.464v.304l.096.464-.096.272.016.192-.08-.048a1.626 1.626 0 01.064.48c0 .107-.005.203-.016.288-.01.085-.027.165-.048.24l-.416.256-.048.624.384.272.016.048v.176l.08 1.04.048.128-.032.224a3.315 3.315 0 00-.064.136.37.37 0 00-.032.152l.08.16.208.24c0 .32.064.563.192.728a.585.585 0 00.48.248c.224 0 .347-.096.368-.288l-.032-.16.08-.128-.144-.256.032-.32-.064-.176.096-.576-.096-.176.112-.208-.064-.256.032-.304V5.8l.368-.032.416.144.032-.112.288.016.064-.032.032.032.368-.064.224.144.352-.128h.064c.203-.064.379-.096.528-.096a4.515 4.515 0 01.368.032l.432.064.208-.176c.021.01.053.016.096.016h.144a1.875 1.875 0 00.496-.064l.192.048.048-.032.032.048c.053.085.08.165.08.24 0 .053-.01.12-.032.2a.805.805 0 00-.032.2v.304l-.096.272.016.464-.032.512v.336l.032.208-.032.016.112.288v.464l.08.24.112.16.032.304zm6.4.096c.128-.192.261-.288.4-.288.064 0 .112.005.144.016l.096-.144c.075-.01.17-.043.288-.096l.176.032.16-.288.304-.192.288-.048.176-.304.096-.016a.996.996 0 00.24-.416c.192-.192.288-.352.288-.48 0-.15-.101-.341-.304-.576h-.064a.78.78 0 00-.576.224c-.032.181-.155.293-.368.336l-.048.08a.523.523 0 00-.208.192l-.4.128-.08.016-.16.24-.096.032-.16.112-.32.048-.544-.032-.128-.032v-.048l-.352-.096-.112-.096c-.075-.032-.128-.112-.16-.24-.085-.053-.128-.123-.128-.208V7.72a.123.123 0 00.016-.048c.01-.064.016-.165.016-.304l.064-.048c0-.075-.016-.24-.048-.496l.096-.272.016-.192.128-.096a3.51 3.51 0 01.064-.384h.032l.288.144.384-.16h.256l.304-.192h.048c.203 0 .352-.075.448-.224.288-.15.603-.347.944-.592l.016-.256.304-.336.16-.416.144-.096-.048-.528.048-.16c0-.352-.123-.624-.368-.816v-.064l-.272-.208a2.522 2.522 0 01-.384-.24l-.112-.064-.08.016a.476.476 0 00-.24-.064c-.075 0-.256.048-.544.144l-.064.096a1.242 1.242 0 00-.16.064.697.697 0 00-.192.208 3.766 3.766 0 00-.344.2 1.22 1.22 0 00-.104.152l-.128.032-.032.08h-.128a1.989 1.989 0 00-.096.368l-.064.064c-.15.181-.267.405-.352.672a.451.451 0 00-.144.144h-.048a.416.416 0 01-.368-.192.953.953 0 00-.096.4c0 .053.019.147.056.28.037.133.056.221.056.264a.223.223 0 01-.016.096c-.16.139-.24.299-.24.48l.048.384v.08a.681.681 0 00-.08.304l.032-.032-.112.192.016.112-.08.256v.336l-.064.256-.032.576.192.704v.24l.192.128.096.272.192.096v.048c.107.245.363.4.768.464l.128.08h.272a.865.865 0 00.352.064c.085 0 .15-.005.192-.016l.224.192zm-.832-5.264l.064-.112a.903.903 0 00.224-.464l.144-.096.256-.448.176-.128.272-.352.08-.032.144-.016.16-.112h.048c.021.01.037.016.048.016a.142.142 0 00.064-.016h.064l.032-.016.08.016c.032.096.048.16.048.192 0 .075-.01.139-.032.192l-.208.304-.032.144-.048.048-.208.048v.176h-.112l-.08.24-.176-.064H134l-.128.192-.224-.016-.048.144-.112.048a.73.73 0 00-.4.112zm5.728 9.68c.299 0 .464-.373.496-1.12l.032-.64.08-.128-.064-.224c.117-.064.176-.144.176-.24 0-.032-.01-.08-.032-.144v-.24l-.096-.048.048-.16-.064-.24.128-.16-.064-.608.048-.4c0-.117-.01-.293-.032-.528l.128-.16-.048-.304a.906.906 0 00.048-.288V8.6c.075-.01.117-.016.128-.016l.128.096.336-.032.16.144.4-.096.448.064-.064-.032.272-.016.048.032.352.16.304-.112.144-.016.24-.08.096.016a2.22 2.22 0 00.464-.336l.288-.032.032-.304.064-.032.128-.224.064-.256.064-.096-.128-.32.192-.48-.112-.032-.048-.336-.128-.288.032-.256-.16-.16v-.112a1.276 1.276 0 01-.208-.624l-.16-.032-.032-.112-.112-.112v-.32h-.192l-.096-.176-.128-.08a.582.582 0 00-.192-.256V3.64l-.304-.096-.016-.032-.384-.24-.208-.256-.304-.096-.176-.192-.352.112.016-.096a.76.76 0 00-.176-.016l-.128-.096-.112.048-.08-.144a1.03 1.03 0 00-.4-.08l-.288-.208-.144.144-.256-.416-.384-.08-.144.56-.08.032-.448-.032-.112.112-.512.208-.112.112c-.267.01-.55.101-.848.272l.016.24a.41.41 0 00-.144.32c0 .181.261.427.784.736l.08-.16.16.064.192-.256h.144l.176-.16.112-.016v.096l.576-.256.048.112-.032.16.048.176-.048.32.064.064-.064.24.08.208-.08.272.08.256-.016.064v.176l-.016.064v.064l-.096.336-.016.272.112.08-.112.304.192.176-.176.304.112.208-.096.656.064.464-.144.176.112.144-.048.208.096.16a2.085 2.085 0 00-.096.544c0 .075.005.128.016.16-.075.032-.112.064-.112.096 0 .021.03.059.088.112a.417.417 0 01.12.176l-.128.288.096.32-.112.192.144.368-.128.208.064.48-.016.352-.16.288.096.704-.048.48c.31.085.496.128.56.128zm3.203-6.531a.773.773 0 00-.115-.045l-.256-.16-.32.096-.128-.032h-.144a.476.476 0 00-.24-.064.398.398 0 00-.176.048.882.882 0 00-.176-.032h-.048a.262.262 0 01-.064.016.382.382 0 00-.256-.096.4.4 0 00-.176.032h-.336l.016-.208-.048-.224.032-.208.08-.192-.112-.144c.085-.064.128-.112.128-.144 0-.01-.005-.021-.016-.032l.064-.176a1.222 1.222 0 01-.192-.512l.08-.48L139.6 5l.176-.384-.224-.208-.064-.176.032-.304-.016-.192.288.048.064.112.16-.032.128.128.16-.08h.224l.064.016.112.208.16-.032.192.256.256-.032.256.336.144.064.112.272.192.16.24.416.064.176.128.256.016.16.064.128-.064.144.096.288-.016.064.016.08-.064.112-.112.128.048.128-.08.032-.032.224-.301.301zm4.493 1.843l.224-.064.208.016.208-.16.16-.048.16-.112a.701.701 0 00.368-.096c.245 0 .443-.112.592-.336l.064-.016a.91.91 0 00.512-.368l.304-.112.016-.192.192-.096.128-.272.192-.112.064-.176.128-.048.112-.4.176-.176.048-.224.08-.112V6.36l.096-.16a3.51 3.51 0 00.048-.656l.096-.288-.144-.56v-.16l-.304-.752-.336-.432-.112-.064-.032-.08a5.092 5.092 0 00-.48-.528h-.128l-.24-.128h-.128l-.176-.112-.224-.208-.416.16-.176-.016a.6.6 0 00-.272-.064.68.68 0 00-.32.096h-.208c-.043.224-.139.384-.288.48l-.4.144-.016.368-.24.272h-.064l.016.064a.873.873 0 01-.072.064l-.04.032-.336.464c0 .16-.037.315-.112.464v.064l.048.224a.824.824 0 01-.144.192v.24l-.048.224.032.112h-.08c-.128.245-.197.421-.208.528-.107.096-.16.245-.16.448 0 .064.01.17.032.32l-.08.24.08.384-.112.208.24.544-.08.256.352.368.24.368.688.048.272.112zm-.16-1.12l-.08-.032-.224-.08-.144-.208-.016-.224.064-.224v-.448l-.032-.08.176-.432-.016-.192.048-.064v-.128c.053-.117.096-.224.128-.32a.46.46 0 00.144-.336l-.08-.048.256-.24c0-.128.021-.267.064-.416l.192-.096.064-.416.16-.08.048-.176.336-.176.208-.448.32-.352c.021.043.064.064.128.064l.128.032.336.128.144.112.192.32.096.016c0 .17.048.277.144.32.01.064.085.15.224.256l.064.08-.032.304.144.304-.048.08c.01.085.053.165.128.24l.016.08-.064.064a.594.594 0 00-.096.304c0 .053.021.144.064.272l-.08.096-.064.112-.192.16v.208l-.08.176-.016.08-.256.128-.176.256-.32.224-.032.08c-.277.117-.453.235-.528.352l-.144.032-.032.048-.208.144-.128-.048-.144.048c-.01-.032-.048-.048-.112-.048h-.064l-.064.16-.416-.032-.128.064zm15.856.992c.352-.117.555-.245.608-.384-.01-.085-.075-.187-.192-.304a7.153 7.153 0 00-.336-.32.906.906 0 00-.072-.144 1.547 1.547 0 01-.072-.128v-.464l-.176-.432.048-.768-.064-.048a.479.479 0 00.096-.256c0-.053-.032-.107-.096-.16.075-.107.112-.192.112-.256 0-.053-.005-.12-.016-.2a1.134 1.134 0 00-.064-.248l-.16-.416.032-.304-.112-.224.08-.304.176-.192-.208-.16-.064-.208-.032-.016.016-.064.096-.08-.192-.24v-.224a.234.234 0 00.048-.144c0-.096-.08-.17-.24-.224l.08-.08-.144-.096-.016-.112-.192-.128-.016-.112c-.203-.085-.347-.128-.432-.128a.355.355 0 01-.112.016h-.256l-.128.352L160 2.6l.144.272.032.096a5.498 5.498 0 01-.128.184.62.62 0 00-.096.232h-.16l-.08.24-.24.336c-.288.128-.432.261-.432.4-.139.043-.32.203-.544.48v.128l-.048.08a.879.879 0 00-.336.32 2.025 2.025 0 01-.128.072.135.135 0 00-.064.056.782.782 0 01-.064.04.228.228 0 00-.048.04l-.016.032-.32.368-.336.208-.112.224h-.08l-.064-.192-.464-.72-.256-.544-.224-.112-.144-.336-.672-.576-.096-.272-.16-.128-.016-.192a.701.701 0 00-.136-.112 1.778 1.778 0 01-.104-.064l-.016-.096.016-.176-.176-.32-.144-.08v-.096l-.384-.24-.208-.016-.208.128-.112-.048-.224.16.016.112-.112.144-.112.016-.08.272.272.432v.064a.504.504 0 01-.048.192l-.064.224-.016.544v.032l-.192.16.064.416-.224.688-.16.24v.368l-.08.064-.104.256a.439.439 0 00-.04.128l.016.096-.08.272v.08a.608.608 0 00-.304.544v.224c0-.01-.005-.016-.016-.016-.064 0-.192.341-.384 1.024v.064c.01.053.03.099.056.136a.825.825 0 00.088.104c.064.139.192.208.384.208.128 0 .352-.133.672-.4l-.112-.336c.053-.085.107-.165.16-.24a.704.704 0 00.112-.24l-.032-.272.208-.304.256-.448.032-.176.128-.288.304-.848.144-.304-.08-.304.272-.416c.01-.16.016-.27.016-.328 0-.059.021-.13.064-.216l.256.448.256.272.096.16.272.304.272.48.128.16.08.256c.085.128.224.288.416.48l.112.08.064.224.016.016-.064.096.128.192-.016.144.208.272.128.272h.08c.085 0 .163-.01.232-.032a2.17 2.17 0 00.216-.08l.048-.256.176-.096.272-.448.24-.08.112-.256.336-.16.048-.144.288-.096.048-.272.464-.32.432-.464.144-.272.384-.432.384-.608.192-.192-.048.384.048.24V5c.053.192.08.357.08.496v.08c0 .043.003.088.008.136a.585.585 0 00.04.152l-.032.192.048.208-.064.176.192.304-.048.256-.032.032a1.46 1.46 0 00-.024.112.583.583 0 00-.008.096 1.732 1.732 0 00.192.784l.064.144.048.256.16.32.464.48.496.288z" fill="#FFF"/></svg>