<svg width="99" height="15" xmlns="http://www.w3.org/2000/svg"><path d="M4.56 11.832c.064 0 .12-.035.168-.104.048-.07.09-.16.128-.272.037-.112.07-.237.096-.376.027-.139.04-.277.04-.416l-.208-.144.192-.208a.65.65 0 01-.128-.352.51.51 0 01.016-.128l.002-.02.014-.1c.01-.07.024-.144.04-.224l.048-.24c.016-.08.024-.136.024-.168V9l.016-.016h.048a.227.227 0 01.168 0c.048.021.088.005.12-.048.053.043.12.05.2.024.08-.027.13-.035.152-.024l.336-.368.272-.08.128-.112.256.032.368-.432.096-.128.784-.576.096-.048c.213-.096.336-.325.368-.688l.112-.128.032-.608.128-.288-.016-.144a8.82 8.82 0 00-.16-.68 3.124 3.124 0 00-.184-.496 1.774 1.774 0 00-.256-.392 4.587 4.587 0 00-.36-.368l-.24-.096-.096-.112-.128-.304-1.024-.464-.464-.16-.112-.112c-.16 0-.261-.037-.304-.112l-.048.064.08-.784.048-.176V1.08c0-.256-.07-.48-.208-.672a1.209 1.209 0 00-.24-.104 1.476 1.476 0 00-.304-.056l-.272.144-.112.128-.16.064v.528l-.016.208-.048.08.08.448-.064.24v.08h-.016l-.432.08-.368.064a5.448 5.448 0 00-.464.064.992.992 0 00-.224.064l-.08.08a2.43 2.43 0 00-.432.256l-.192.032.016.224-.128.112-.112.176-.128.064-.496.8-.224.56-.112.08c-.021.043-.024.107-.008.192s.003.155-.04.208l-.064.208.048.24.048.064.016.224-.08.08-.032.48v.544l.144.608.08.096.048.32.176.416.352.16.272.272.016.144h.32l.24.112.544.08.08.064.384.048a.982.982 0 00.136-.008.739.739 0 01.104-.008h.08l.384-.112.016.384-.128.224.16.448c0 .064-.005.141-.016.232-.01.09.027.21.112.36l.08.144c.01.075.027.157.048.248.021.09.05.176.088.256a.99.99 0 00.12.2c.043.053.096.08.16.08zm.336-3.824V7.88l.096-.368-.096-.352.048-.4c-.01.01-.048.016-.112.016l.08-.4h.048l-.048-.56-.08-.272.016-.048h.144l-.032-.688a.41.41 0 00.032-.152v-.28a.369.369 0 00-.032-.128l.144-.416.016-.512.048-.144H5.2c.043-.021.08-.019.112.008s.059.04.08.04c.267.053.453.141.56.264.107.123.213.227.32.312l.08-.032.208.144.32.304.048.176.128.032.08.208.256.144v.144l.112.224-.064.112.096.352-.096.176.048.288-.096.064-.064.192-.192.048-.224.384-.192.16-.08-.032-.16.16-.096.064-.096-.064-.144.352A7.18 7.18 0 016 7.456a.23.23 0 00-.112.104l-.016.048h-.096a.223.223 0 00-.096.016l-.08.096-.272.128-.208.016-.224.144zm-1.184.304l-.16-.08-.128-.112-.528.128a2.308 2.308 0 01-.304-.056 1.375 1.375 0 01-.352-.152l-.128-.128-.032-.176-.176-.16-.048-.192-.048-.08-.048-.144a.52.52 0 00-.04-.216.171.171 0 01.008-.168.56.56 0 010-.416 1.36 1.36 0 00.064-.544l.08-.208.032-.384.032-.032.176-.08v-.208c.043-.053.056-.123.04-.208-.016-.085-.013-.15.008-.192l.112-.08.288-.128.048-.288.048-.08a.995.995 0 01.336-.128.858.858 0 00.304-.112l.144-.192.256-.176.176-.064.096-.032v.096l-.096.464.08.128-.048.096.032 1.008-.112.96.016 1.136-.032.096.048.528.016.224a.742.742 0 00-.016.144v.128l-.128.048-.016.032zm7.616 1.328l.224-.064.208.016.208-.16.16-.048.16-.112a.701.701 0 00.368-.096c.245 0 .443-.112.592-.336l.064-.016a.91.91 0 00.512-.368l.304-.112.016-.192.192-.096.128-.272.192-.112.064-.176.128-.048.112-.4.176-.176.048-.224.08-.112V6.36l.096-.16a3.51 3.51 0 00.048-.656l.096-.288-.144-.56v-.16l-.304-.752-.336-.432-.112-.064-.032-.08a5.092 5.092 0 00-.48-.528h-.128l-.24-.128H13.6l-.176-.112-.224-.208-.416.16-.176-.016a.6.6 0 00-.272-.064.68.68 0 00-.32.096h-.208c-.043.224-.139.384-.288.48l-.4.144-.016.368-.24.272H10.8l.016.064a.873.873 0 01-.072.064l-.04.032-.336.464c0 .16-.037.315-.112.464v.064l.048.224a.824.824 0 01-.144.192v.24l-.048.224.032.112h-.08c-.128.245-.197.421-.208.528-.107.096-.16.245-.16.448 0 .064.01.17.032.32l-.08.24.08.384-.112.208.24.544-.08.256.352.368.24.368.688.048.272.112zm-.16-1.12l-.08-.032-.224-.08-.144-.208-.016-.224.064-.224v-.448l-.032-.08.176-.432-.016-.192.048-.064v-.128c.053-.117.096-.224.128-.32a.46.46 0 00.144-.336l-.08-.048.256-.24c0-.128.021-.267.064-.416l.192-.096.064-.416.16-.08.048-.176.336-.176.208-.448.32-.352c.021.043.064.064.128.064l.128.032.336.128.144.112.192.32.096.016c0 .17.048.277.144.32.01.064.085.15.224.256l.064.08-.032.304.144.304-.048.08c.01.085.053.165.128.24l.016.08-.064.064a.594.594 0 00-.096.304c0 .053.021.144.064.272l-.08.096-.064.112-.192.16v.208l-.08.176-.016.08-.256.128-.176.256-.32.224-.032.08c-.277.117-.453.235-.528.352l-.144.032-.032.048-.208.144-.128-.048-.144.048c-.01-.032-.048-.048-.112-.048h-.064l-.064.16-.416-.032-.128.064zm6.784 5.808c.299 0 .464-.373.496-1.12l.032-.64.08-.128-.064-.224c.117-.064.176-.144.176-.24 0-.032-.01-.08-.032-.144v-.24l-.096-.048.048-.16-.064-.24.128-.16-.064-.608.048-.4c0-.117-.01-.293-.032-.528l.128-.16-.048-.304a.906.906 0 00.048-.288V8.6c.075-.01.117-.016.128-.016l.128.096.336-.032.16.144.4-.096.448.064-.064-.032.272-.016.048.032.352.16.304-.112.144-.016.24-.08.096.016a2.22 2.22 0 00.464-.336l.288-.032.032-.304.064-.032.128-.224.064-.256.064-.096-.128-.32.192-.48-.112-.032-.048-.336-.128-.288.032-.256-.16-.16v-.112a1.276 1.276 0 01-.208-.624l-.16-.032-.032-.112-.112-.112v-.32h-.192l-.096-.176-.128-.08a.582.582 0 00-.192-.256V3.64l-.304-.096-.016-.032-.384-.24-.208-.256-.304-.096-.176-.192-.352.112.016-.096a.76.76 0 00-.176-.016l-.128-.096-.112.048-.08-.144a1.03 1.03 0 00-.4-.08l-.288-.208-.144.144-.256-.416-.384-.08-.144.56-.08.032-.448-.032-.112.112-.512.208-.112.112c-.267.01-.55.101-.848.272l.016.24a.41.41 0 00-.144.32c0 .181.261.427.784.736l.08-.16.16.064.192-.256h.144l.176-.16.112-.016v.096l.576-.256.048.112-.032.16.048.176-.048.32.064.064-.064.24.08.208-.08.272.08.256-.016.064v.176l-.016.064v.064l-.096.336-.016.272.112.08-.112.304.192.176-.176.304.112.208-.096.656.064.464-.144.176.112.144-.048.208.096.16a2.085 2.085 0 00-.096.544c0 .075.005.128.016.16-.075.032-.112.064-.112.096 0 .021.03.059.088.112a.417.417 0 01.12.176l-.128.288.096.32-.112.192.144.368-.128.208.064.48-.016.352-.16.288.096.704-.048.48c.31.085.496.128.56.128zm3.203-6.531a.773.773 0 00-.115-.045l-.256-.16-.32.096-.128-.032h-.144a.476.476 0 00-.24-.064.398.398 0 00-.176.048.882.882 0 00-.176-.032h-.048a.262.262 0 01-.064.016.382.382 0 00-.256-.096.4.4 0 00-.176.032h-.336l.016-.208-.048-.224.032-.208.08-.192-.112-.144c.085-.064.128-.112.128-.144 0-.01-.005-.021-.016-.032l.064-.176a1.222 1.222 0 01-.192-.512l.08-.48-.016-.24.176-.384-.224-.208-.064-.176.032-.304-.016-.192.288.048.064.112.16-.032.128.128.16-.08h.224l.064.016.112.208.16-.032.192.256.256-.032.256.336.144.064.112.272.192.16.24.416.064.176.128.256.016.16.064.128-.064.144.096.288-.016.064.016.08-.064.112-.112.128.048.128-.08.032-.032.224-.301.301zm13.357 1.715c.352-.117.555-.245.608-.384-.01-.085-.075-.187-.192-.304a7.154 7.154 0 00-.336-.32.906.906 0 00-.072-.144 1.547 1.547 0 01-.072-.128v-.464l-.176-.432.048-.768-.064-.048a.479.479 0 00.096-.256c0-.053-.032-.107-.096-.16.075-.107.112-.192.112-.256 0-.053-.005-.12-.016-.2a1.134 1.134 0 00-.064-.248l-.16-.416.032-.304-.112-.224.08-.304.176-.192-.208-.16-.064-.208L34 3.576l.016-.064.096-.08-.192-.24v-.224a.234.234 0 00.048-.144c0-.096-.08-.17-.24-.224l.08-.08-.144-.096-.016-.112-.192-.128-.016-.112c-.203-.085-.347-.128-.432-.128a.355.355 0 01-.112.016h-.256l-.128.352-.208.288.144.272.032.096a5.498 5.498 0 01-.128.184.62.62 0 00-.096.232h-.16l-.08.24-.24.336c-.288.128-.432.261-.432.4-.139.043-.32.203-.544.48v.128l-.048.08a.879.879 0 00-.336.32 2.025 2.025 0 01-.128.072.135.135 0 00-.064.056.782.782 0 01-.064.04.228.228 0 00-.048.04l-.016.032-.32.368-.336.208-.112.224h-.08l-.064-.192-.464-.72-.256-.544-.224-.112-.144-.336-.672-.576-.096-.272-.16-.128-.016-.192a.701.701 0 00-.136-.112 1.777 1.777 0 01-.104-.064l-.016-.096.016-.176-.176-.32-.144-.08v-.096l-.384-.24L26 2.136l-.208.128-.112-.048-.224.16.016.112-.112.144-.112.016-.08.272.272.432v.064a.504.504 0 01-.048.192l-.064.224-.016.544v.032l-.192.16.064.416-.224.688-.16.24v.368l-.08.064-.104.256a.439.439 0 00-.04.128l.016.096-.08.272v.08a.608.608 0 00-.304.544v.224c0-.01-.005-.016-.016-.016-.064 0-.192.341-.384 1.024v.064c.01.053.03.099.056.136a.824.824 0 00.088.104c.064.139.192.208.384.208.128 0 .352-.133.672-.4l-.112-.336c.053-.085.107-.165.16-.24a.704.704 0 00.112-.24l-.032-.272.208-.304.256-.448.032-.176.128-.288.304-.848.144-.304-.08-.304.272-.416c.01-.16.016-.27.016-.328 0-.059.021-.13.064-.216l.256.448.256.272.096.16.272.304.272.48.128.16.08.256c.085.128.224.288.416.48l.112.08.064.224.016.016-.064.096.128.192-.016.144.208.272.128.272h.08c.085 0 .163-.01.232-.032a2.17 2.17 0 00.216-.08l.048-.256.176-.096.272-.448.24-.08.112-.256.336-.16.048-.144.288-.096.048-.272.464-.32.432-.464.144-.272.384-.432.384-.608.192-.192-.048.384.048.24V5c.053.192.08.357.08.496v.08c0 .043.003.088.008.136a.585.585 0 00.04.152l-.032.192.048.208-.064.176.192.304-.048.256-.032.032a1.46 1.46 0 00-.024.112.583.583 0 00-.008.096 1.732 1.732 0 00.192.784l.064.144.048.256.16.32.464.48.496.288zm7.216-.224l.16-.096.08.08.272-.144a1.41 1.41 0 00.32-.224l.24-.24a1.03 1.03 0 00-.112-.336l-.176.016.112-.24-.208-.32-.256-.032-.016-.048a.76.76 0 00.016-.176v-.064l.112-.368-.16-.032.016-.048.224-.368-.16-.112.096-.128-.08-.256.112-.256V5.64l.144-.128-.096-.112-.048-.224.128-.128-.048-.192.064-.176-.016-.064a.275.275 0 00.016-.112.531.531 0 00-.048-.208v-.064l.032-.048c.075-.075.112-.187.112-.336l-.032-.08.048-.08.08-.336.208-.24-.128-.384.16-.208-.24-.096-.208-.4-.576.144-.304-.064-.336-.304v.064a.47.47 0 00-.016.112c-.075-.16-.235-.24-.48-.24l-.384-.08v-.112L39.12 1.48l-.528.24-.08.032-.176.08-.08-.08a3.32 3.32 0 01-.4.56c-.181.213-.293.373-.336.48v.096a.217.217 0 00-.064.16c0 .01.005.027.016.048v.048l-.064.064.016.288a.869.869 0 00-.208.56v.064l-.192.24.08.128a.958.958 0 00-.176.32c-.128.064-.192.16-.192.288 0 .043.005.08.016.112a.223.223 0 00-.016.096c0 .064.032.123.096.176l-.112.048a1.22 1.22 0 00-.096.368c0 .064.005.107.016.128a.526.526 0 00-.032.16c0 .021.005.043.016.064v.064l-.112.528-.032.336-.096.224.096.208.016.192.016.096-.08.048c.021.437.272.773.752 1.008.139.192.341.293.608.304l.208-.16.304-.064.544-.608.512-.32.08-.208.352-.304.112-.192.4-.368.224-.352.128-.064.144-.416.272-.448.096.384-.128.672.096.944v.096c0 .181.032.379.096.592v.272l.496.576zm-4.144-1.36l-.064-.032v-.048l-.032-.304.176-.224-.112-.304.112-.16-.064-.096.144-.304-.032-.08a1.15 1.15 0 00.032-.304l.048-.08v-.224l.048-.032.032-.144.128-.144V5.16l.128-.16c0-.192.059-.39.176-.592l-.032-.064.272-.208-.16-.224.064-.144.112-.384c.075-.107.208-.24.4-.4l.048-.016.064-.08.368-.128-.048-.064h.416l.144.08.128-.048.032.032h.256l.32.048.496.4.128.032.064.112-.016.176-.144.128-.032.176-.112.176.016.064-.128.24-.816 1.088a1.64 1.64 0 00-.256.336l-.224.032.048.272h-.128l-.096.256a1.846 1.846 0 01-.272.128l-.112.272-.096.032-.944.768-.048.112-.224.032.032.128a1.89 1.89 0 00-.16.144l-.08.016zm12.8 1.584a.122.122 0 00.088-.072c.016-.037.035-.061.056-.072l.08.096c.021.032.053.037.096.016a.105.105 0 00.048-.048l.128.064h.224l.352-.048.208-.048.24.048.304.016.608-.16.16.048c.128-.032.253-.08.376-.144l.312-.16a.434.434 0 00.232-.088l.184-.152c.15-.043.285-.08.408-.112s.221-.064.296-.096l.16-.208.24-.048v-.112l.288-.128.08-.256.224-.24.08-.64-.08-.16-.048-.288-.224-.272-.336-.256h-.16l-.208-.176-.32-.032a.414.414 0 01-.104-.008.132.132 0 00-.04-.008c-.01.01-.021.016-.032.016l-.096-.08a1.81 1.81 0 01-.312-.024 3.84 3.84 0 01-.264-.056c-.064-.075-.17-.112-.32-.112h-.416l-.176.016h-.384L52 5.416l.32-.112h.272l.224-.112.56-.064.208-.16.304-.064.352-.144.128-.128a.954.954 0 00.528-.432 3.32 3.32 0 00.144-.288V3.88l.08-.32c.032-.213.021-.381-.032-.504a1.885 1.885 0 00-.224-.376l-.272-.208-.176-.256-.384-.096-.32-.112v-.096H53.6c-.053.01-.125.016-.216.016H53.2l-.304-.032-.144.048a.459.459 0 00-.208-.048h-.064l.048-.048h-.176c-.192 0-.384.027-.576.08l-.16-.016-.464.096-.192.048h-.208l.016.144-.192-.176-.224.032-.112.064h-.272c-.064.085-.096.15-.096.192h-.064a.68.68 0 00-.2.032.44.44 0 00-.184.112l-.224-.064-.096.144h-.064a.266.266 0 00-.144.04 1.83 1.83 0 00-.128.088l-.08.08-.08.288v.096c0 .064.021.133.064.208h.096l-.048.096.144.16.528.4.08-.24c.021.01.064.016.128.016.075-.117.147-.181.216-.192.07-.01.136-.016.2-.016h.08a.523.523 0 01.032-.056.314.314 0 00.032-.072c.053.021.096.037.128.048.032.01.064.016.096.016.085 0 .17-.048.256-.144l.32-.112.544-.032.112-.128.24.064.256-.064h.144a1.378 1.378 0 01.304-.032c.075 0 .203.016.384.048l.208-.032c.213.053.357.104.432.152a.724.724 0 01.176.152c.096.096.157.152.184.168.027.016.008.077-.056.184a3.45 3.45 0 00-.136.08.767.767 0 00-.088.08l-.032.032-.128.112a.79.79 0 00-.592.272l-.096-.064-.128.16-.256-.048-.128.096-.64.192-.192.144c-.096.021-.195.04-.296.056a.74.74 0 00-.296.12l-.272.176-.144.32.08.32.256.288.304.144.176-.016.112.112.336.048.08.096c.096-.01.184-.021.264-.032.08-.01.157-.027.232-.048l.064-.048c.064.085.117.133.16.144l.104-.032a2.4 2.4 0 01.136-.032c.021 0 .107.016.256.048l.064-.048.144.16.128-.032.096.144.256-.08.288.048.24.192a.962.962 0 00.16.032c.021 0 .043.01.064.032.021.053.035.11.04.168.005.059-.019.13-.072.216-.032.043-.07.096-.112.16a.468.468 0 01-.224.16l-.048.096-.24.16-.032.08h-.144a6.83 6.83 0 01-.224.152c-.075.048-.128.072-.16.072l-.088-.008a1.921 1.921 0 00-.2-.008l-.256.176h-.176l-.288.048-.032.064-.256-.16c-.053.01-.101.021-.144.032a.545.545 0 00-.144.064.498.498 0 00-.208-.064c-.043 0-.112.032-.208.096h-.272a.662.662 0 01-.248-.048.35.35 0 00-.232-.016.555.555 0 00-.32-.112l-.256.048a.622.622 0 00-.176-.048.336.336 0 00.112-.24c0-.15-.155-.288-.464-.416l-.4.064-.224.048c-.064.021-.101.053-.112.096-.01.043-.043.075-.096.096-.277.032-.416.203-.416.512 0 .245.032.416.096.512.064.096.16.176.288.24.064.107.133.16.208.16h.112c.032 0 .07-.021.112-.064l.16.08.096-.08.16.24.224-.112c.075.043.15.064.224.064.021 0 .037.013.048.04.01.027.021.035.032.024.021.01.064.016.128.016l.112-.032a.79.79 0 00.24.048zm11.952-.224l.16-.096.08.08.272-.144a1.41 1.41 0 00.32-.224l.24-.24a1.03 1.03 0 00-.112-.336l-.176.016.112-.24-.208-.32-.256-.032-.016-.048a.76.76 0 00.016-.176v-.064l.112-.368-.16-.032.016-.048.224-.368-.16-.112.096-.128-.08-.256.112-.256V5.64l.144-.128-.096-.112-.048-.224.128-.128-.048-.192.064-.176-.016-.064a.275.275 0 00.016-.112.531.531 0 00-.048-.208v-.064l.032-.048c.075-.075.112-.187.112-.336l-.032-.08.048-.08.08-.336.208-.24-.128-.384.16-.208-.24-.096-.208-.4-.576.144-.304-.064-.336-.304v.064a.47.47 0 00-.016.112c-.075-.16-.235-.24-.48-.24l-.384-.08v-.112l-1.232-.064-.528.24-.08.032-.176.08-.08-.08a3.32 3.32 0 01-.4.56c-.181.213-.293.373-.336.48v.096a.217.217 0 00-.064.16c0 .01.005.027.016.048v.048l-.064.064.016.288a.869.869 0 00-.208.56v.064l-.192.24.08.128a.958.958 0 00-.176.32c-.128.064-.192.16-.192.288 0 .043.005.08.016.112a.223.223 0 00-.016.096c0 .064.032.123.096.176l-.112.048a1.22 1.22 0 00-.096.368c0 .064.005.107.016.128a.526.526 0 00-.032.16c0 .021.005.043.016.064v.064l-.112.528-.032.336-.096.224.096.208.016.192.016.096-.08.048c.021.437.272.773.752 1.008.139.192.341.293.608.304l.208-.16.304-.064.544-.608.512-.32.08-.208.352-.304.112-.192.4-.368.224-.352.128-.064.144-.416.272-.448.096.384-.128.672.096.944v.096c0 .181.032.379.096.592v.272l.496.576zm-4.144-1.36l-.064-.032v-.048l-.032-.304.176-.224-.112-.304.112-.16-.064-.096.144-.304-.032-.08a1.15 1.15 0 00.032-.304l.048-.08v-.224l.048-.032.032-.144.128-.144V5.16l.128-.16c0-.192.059-.39.176-.592l-.032-.064.272-.208-.16-.224.064-.144.112-.384c.075-.107.208-.24.4-.4l.048-.016.064-.08.368-.128L60 2.696h.416l.144.08.128-.048.032.032h.256l.32.048.496.4.128.032.064.112-.016.176-.144.128-.032.176-.112.176.016.064-.128.24-.816 1.088a1.64 1.64 0 00-.256.336l-.224.032.048.272h-.128l-.096.256a1.846 1.846 0 01-.272.128l-.112.272-.096.032-.944.768-.048.112-.224.032.032.128a1.89 1.89 0 00-.16.144l-.08.016zm8.176 2l.352-.544.224-.352.048-.288.112-.24.016-.288.016-.176.096-.144c-.032-.16-.07-.267-.112-.32l.128-.528-.048-.128-.064-.016-.064-.4c.064.032.117.09.16.176l.296.192c.08.053.147.101.2.144l.256.16.256.24.224.16.256.272.032-.016.224.08.08.128h.128l.096.176h.448l.144.176.288.096.304.272.112-.032.064.096.336.064.208.192h.32l.224.032.048-.016.08.048.304-.048.256.032.176-.048.112.032.384-.08.416-.144.4-.208.32-.24.4-.496.144-.24-.048-.304-.144-.256-.208-.112c-.021-.021-.059-.013-.112.024-.053.037-.09.056-.112.056h-.136a.372.372 0 00-.136.048v.096l-.096.08-.24.256v.032l-.16.08a.37.37 0 00-.272.112l-.048.032H72.8l-.64.08-.336-.032-.464-.144-.368-.176-.24-.064-.24-.192-.416-.224-.352-.208-.288-.08-.032-.112-.768-.336-.608-.304.016-.08.512-.064c.181-.053.357-.104.528-.152.17-.048.33-.11.48-.184 0 .01.032.005.096-.016s.136-.05.216-.088c.08-.037.163-.08.248-.128.085-.048.155-.088.208-.12l.32-.24.288-.272.272-.096v-.08a.699.699 0 00.16-.192l.32-.064a.954.954 0 00.032-.072.954.954 0 01.032-.072.186.186 0 01.032-.048c.064-.021.133-.053.208-.096a.44.44 0 00.176-.192l.176-.208.112-.304.144-.064.08-.224.064-.064.032-.112.016-.08-.064-.032.096-.336c-.203-.267-.31-.4-.32-.4-.32 0-.496.144-.528.432h-.192l-.08.272-.08-.08a.756.756 0 00-.256.368l-.24.064-.032.16-.08.112a3.421 3.421 0 01-.208.072c-.053.016-.09.067-.112.152h-.128l-.144.24-.224.048v.048h-.128l-.032.16-.192.08-.128.192-.336.144c-.256.021-.384.059-.384.112l.016.016a.701.701 0 00-.368.176l-.24.064v.048l-.384.112-.176.032-.336.096-.096.064-.208.016.112-.608.128-.336-.096-.368.208-.272-.064-.192.096-.176-.16-.144.064-.304-.368-.368a1.726 1.726 0 00-.232-.088.761.761 0 00-.2-.024c-.043 0-.104.005-.184.016-.08.01-.179.032-.296.064-.139.203-.208.4-.208.592 0 .128.043.277.128.448l-.016.08-.032.096a.468.468 0 00-.016.16c-.096.096-.15.16-.16.192l.08.832h.032V5a.93.93 0 00.016.224l-.128.08.08.432v.352l.032.032-.128.112.096.24-.048.048c0 .139.021.235.064.288a8.822 8.822 0 00.032.416l-.032.08a.62.62 0 00-.064.24.63.63 0 00.08.224l-.064.144.128.208-.24.272.064.064a.275.275 0 00-.064.176c0 .032.013.072.04.12.027.048.045.083.056.104l-.032.08-.016.032-.064.24-.112.336c.043.256.25.384.624.384zm14.304-.64l.16-.096.08.08.272-.144a1.41 1.41 0 00.32-.224l.24-.24a1.03 1.03 0 00-.112-.336l-.176.016.112-.24-.208-.32-.256-.032-.016-.048a.76.76 0 00.016-.176v-.064l.112-.368-.16-.032.016-.048.224-.368-.16-.112.096-.128-.08-.256.112-.256V5.64l.144-.128-.096-.112-.048-.224.128-.128-.048-.192.064-.176-.016-.064a.275.275 0 00.016-.112.531.531 0 00-.048-.208v-.064l.032-.048c.075-.075.112-.187.112-.336l-.032-.08.048-.08.08-.336.208-.24-.128-.384.16-.208-.24-.096-.208-.4-.576.144-.304-.064-.336-.304v.064a.47.47 0 00-.016.112c-.075-.16-.235-.24-.48-.24l-.384-.08v-.112l-1.232-.064-.528.24-.08.032-.176.08-.08-.08a3.32 3.32 0 01-.4.56c-.181.213-.293.373-.336.48v.096a.217.217 0 00-.064.16c0 .01.005.027.016.048v.048l-.064.064.016.288a.869.869 0 00-.208.56v.064l-.192.24.08.128a.958.958 0 00-.176.32c-.128.064-.192.16-.192.288 0 .043.005.08.016.112a.223.223 0 00-.016.096c0 .064.032.123.096.176l-.112.048a1.22 1.22 0 00-.096.368c0 .064.005.107.016.128a.526.526 0 00-.032.16c0 .021.005.043.016.064v.064l-.112.528-.032.336-.096.224.096.208.016.192.016.096-.08.048c.021.437.272.773.752 1.008.139.192.341.293.608.304l.208-.16.304-.064.544-.608.512-.32.08-.208.352-.304.112-.192.4-.368.224-.352.128-.064.144-.416.272-.448.096.384-.128.672.096.944v.096c0 .181.032.379.096.592v.272l.496.576zm-4.144-1.36l-.064-.032v-.048l-.032-.304.176-.224-.112-.304.112-.16-.064-.096.144-.304-.032-.08a1.15 1.15 0 00.032-.304l.048-.08v-.224l.048-.032.032-.144.128-.144V5.16l.128-.16c0-.192.059-.39.176-.592l-.032-.064.272-.208-.16-.224.064-.144.112-.384c.075-.107.208-.24.4-.4l.048-.016.064-.08.368-.128-.048-.064h.416l.144.08.128-.048.032.032h.256l.32.048.496.4.128.032.064.112-.016.176-.144.128-.032.176-.112.176.016.064-.128.24-.816 1.088a1.64 1.64 0 00-.256.336l-.224.032.048.272h-.128l-.096.256a1.846 1.846 0 01-.272.128l-.112.272-.096.032-.944.768-.048.112-.224.032.032.128a1.89 1.89 0 00-.16.144l-.08.016zm8.72 1.584a.122.122 0 00.088-.072c.016-.037.035-.061.056-.072l.08.096c.021.032.053.037.096.016a.105.105 0 00.048-.048l.128.064h.224l.352-.048.208-.048.24.048.304.016.608-.16.16.048c.128-.032.253-.08.376-.144l.312-.16a.434.434 0 00.232-.088l.184-.152c.15-.043.285-.08.408-.112s.221-.064.296-.096l.16-.208.24-.048v-.112l.288-.128.08-.256.224-.24.08-.64-.08-.16-.048-.288-.224-.272-.336-.256h-.16l-.208-.176-.32-.032a.414.414 0 01-.104-.008.132.132 0 00-.04-.008c-.01.01-.021.016-.032.016l-.096-.08a1.81 1.81 0 01-.312-.024 3.84 3.84 0 01-.264-.056c-.064-.075-.17-.112-.32-.112h-.416l-.176.016H87.2l-.336-.112.32-.112h.272l.224-.112.56-.064.208-.16.304-.064.352-.144.128-.128a.954.954 0 00.528-.432 3.32 3.32 0 00.144-.288V3.88l.08-.32c.032-.213.021-.381-.032-.504a1.885 1.885 0 00-.224-.376l-.272-.208-.176-.256-.384-.096-.32-.112v-.096h-.112c-.053.01-.125.016-.216.016h-.184l-.304-.032-.144.048a.459.459 0 00-.208-.048h-.064l.048-.048h-.176c-.192 0-.384.027-.576.08l-.16-.016-.464.096-.192.048h-.208l.016.144-.192-.176-.224.032-.112.064h-.272c-.064.085-.096.15-.096.192h-.064a.68.68 0 00-.2.032.44.44 0 00-.184.112l-.224-.064-.096.144h-.064a.266.266 0 00-.144.04 1.83 1.83 0 00-.128.088l-.08.08-.08.288v.096c0 .064.021.133.064.208h.096l-.048.096.144.16.528.4.08-.24c.021.01.064.016.128.016.075-.117.147-.181.216-.192.07-.01.136-.016.2-.016h.08a.523.523 0 01.032-.056.314.314 0 00.032-.072c.053.021.096.037.128.048.032.01.064.016.096.016.085 0 .17-.048.256-.144l.32-.112.544-.032.112-.128.24.064.256-.064h.144a1.378 1.378 0 01.304-.032c.075 0 .203.016.384.048l.208-.032c.213.053.357.104.432.152a.724.724 0 01.176.152c.096.096.157.152.184.168.027.016.008.077-.056.184a3.45 3.45 0 00-.136.08.767.767 0 00-.088.08l-.032.032-.128.112a.79.79 0 00-.592.272l-.096-.064-.128.16-.256-.048-.128.096-.64.192-.192.144c-.096.021-.195.04-.296.056a.74.74 0 00-.296.12l-.272.176-.144.32.08.32.256.288.304.144.176-.016.112.112.336.048.08.096c.096-.01.184-.021.264-.032.08-.01.157-.027.232-.048l.064-.048c.064.085.117.133.16.144l.104-.032a2.4 2.4 0 01.136-.032c.021 0 .107.016.256.048l.064-.048.144.16.128-.032.096.144.256-.08.288.048.24.192a.962.962 0 00.16.032c.021 0 .043.01.064.032.021.053.035.11.04.168.005.059-.019.13-.072.216-.032.043-.07.096-.112.16a.468.468 0 01-.224.16l-.048.096-.24.16-.032.08h-.144a6.83 6.83 0 01-.224.152c-.075.048-.128.072-.16.072l-.088-.008a1.921 1.921 0 00-.2-.008l-.256.176h-.176l-.288.048-.032.064-.256-.16c-.053.01-.101.021-.144.032a.545.545 0 00-.144.064.498.498 0 00-.208-.064c-.043 0-.112.032-.208.096h-.272a.662.662 0 01-.248-.048.35.35 0 00-.232-.016.555.555 0 00-.32-.112l-.256.048a.622.622 0 00-.176-.048.336.336 0 00.112-.24c0-.15-.155-.288-.464-.416l-.4.064-.224.048c-.064.021-.101.053-.112.096-.01.043-.043.075-.096.096-.277.032-.416.203-.416.512 0 .245.032.416.096.512.064.096.16.176.288.24.064.107.133.16.208.16h.112c.032 0 .07-.021.112-.064l.16.08.096-.08.16.24.224-.112c.075.043.15.064.224.064.021 0 .037.013.048.04.01.027.021.035.032.024.021.01.064.016.128.016l.112-.032a.79.79 0 00.24.048zM97.2 9.288l.16-.096.08.08.272-.144a1.41 1.41 0 00.32-.224l.24-.24a1.03 1.03 0 00-.112-.336l-.176.016.112-.24-.208-.32-.256-.032-.016-.048a.76.76 0 00.016-.176v-.064l.112-.368-.16-.032.016-.048.224-.368-.16-.112.096-.128-.08-.256.112-.256V5.64l.144-.128-.096-.112-.048-.224.128-.128-.048-.192.064-.176-.016-.064a.275.275 0 00.016-.112.531.531 0 00-.048-.208v-.064l.032-.048c.075-.075.112-.187.112-.336L98 3.768l.048-.08.08-.336.208-.24-.128-.384.16-.208-.24-.096-.208-.4-.576.144-.304-.064-.336-.304v.064a.47.47 0 00-.016.112c-.075-.16-.235-.24-.48-.24l-.384-.08v-.112l-1.232-.064-.528.24-.08.032-.176.08-.08-.08a3.32 3.32 0 01-.4.56c-.181.213-.293.373-.336.48v.096a.217.217 0 00-.064.16c0 .01.005.027.016.048v.048l-.064.064.016.288a.869.869 0 00-.208.56v.064l-.192.24.08.128a.958.958 0 00-.176.32c-.128.064-.192.16-.192.288 0 .043.005.08.016.112a.223.223 0 00-.016.096c0 .064.032.123.096.176l-.112.048a1.22 1.22 0 00-.096.368c0 .064.005.107.016.128a.526.526 0 00-.032.16c0 .021.005.043.016.064v.064l-.112.528-.032.336-.096.224.096.208.016.192.016.096-.08.048c.021.437.272.773.752 1.008.139.192.341.293.608.304l.208-.16.304-.064.544-.608.512-.32.08-.208.352-.304.112-.192.4-.368L96 6.68l.128-.064.144-.416.272-.448.096.384-.128.672.096.944v.096c0 .181.032.379.096.592v.272l.496.576zm-4.144-1.36l-.064-.032v-.048l-.032-.304.176-.224-.112-.304.112-.16-.064-.096.144-.304-.032-.08a1.15 1.15 0 00.032-.304l.048-.08v-.224l.048-.032.032-.144.128-.144V5.16L93.6 5c0-.192.059-.39.176-.592l-.032-.064.272-.208-.16-.224.064-.144.112-.384c.075-.107.208-.24.4-.4l.048-.016.064-.08.368-.128-.048-.064h.416l.144.08.128-.048.032.032h.256l.32.048.496.4.128.032.064.112-.016.176-.144.128-.032.176-.112.176.016.064-.128.24-.816 1.088a1.64 1.64 0 00-.256.336l-.224.032.048.272h-.128l-.096.256a1.846 1.846 0 01-.272.128l-.112.272-.096.032-.944.768-.048.112-.224.032.032.128a1.89 1.89 0 00-.16.144l-.08.016z" fill="#AEB0B5"/></svg>