<svg width="356" height="16" xmlns="http://www.w3.org/2000/svg"><path d="M5.392 2.973c0-.031.006-.068.016-.109V2.8l.336.304.304.064.576-.144.208.4.24.096-.16.208.128.384-.208.24-.08.336-.048.08.032.08c0 .15-.037.261-.112.336l-.032.048v.064a.531.531 0 01.048.208c0 .053-.005.09-.016.112l.016.064-.064.176.048.192-.128.128.048.224.096.112-.144.128v.256l-.112.256.08.256-.096.128.16.112-.224.368-.016.048.16.032-.112.368v.064a.76.76 0 01-.016.176l.016.048.256.032.208.32-.112.24.176-.016c.064.128.101.24.112.336l-.24.24a1.35 1.35 0 01-.32.224l-.272.144-.08-.08-.16.096-.496-.576V9.44a2.07 2.07 0 01-.096-.592v-.096l-.096-.944.128-.672-.096-.384-.272.448-.144.416-.128.064-.224.352-.4.368-.112.192-.352.304-.08.208-.512.32-.544.608-.304.064-.208.16c-.267-.01-.47-.112-.608-.304-.48-.235-.73-.57-.752-1.008l.08-.048L.672 8.8l-.016-.192L.56 8.4l.096-.224.032-.336.112-.528v-.064a.142.142 0 01-.016-.064c0-.043.01-.096.032-.16A.333.333 0 01.8 6.896c0-.075.032-.197.096-.368l.112-.048c-.064-.053-.096-.112-.096-.176 0-.043.005-.075.016-.096a.355.355 0 01-.016-.112c0-.128.064-.224.192-.288a.958.958 0 01.176-.32L1.2 5.36l.192-.24v-.064c0-.203.07-.39.208-.56l-.016-.288.064-.064v-.048a.123.123 0 01-.016-.048c0-.064.021-.117.064-.16v-.096c.043-.107.155-.267.336-.48.181-.213.315-.4.4-.56l.08.08.176-.08.08-.032.528-.24 1.232.064v.112l.384.08c.245 0 .405.08.48.24v-.003zm.16 1.379l-.064-.112-.128-.032-.496-.4-.32-.048h-.256l-.032-.032-.128.048-.144-.08h-.416l.048.064-.368.128-.064.08-.048.016c-.192.16-.325.293-.4.4l-.112.384-.064.144.16.224-.272.208.032.064A1.18 1.18 0 002.304 6l-.128.16v.288l-.128.144-.032.144-.048.032v.224l-.048.08c0 .128-.01.23-.032.304l.032.08-.144.304.064.096-.112.16.112.304-.176.224.032.304v.048l.064.032.08-.016c.053-.053.107-.101.16-.144l-.032-.128.224-.032.048-.112.944-.768.096-.032.112-.272c.064-.021.155-.064.272-.128l.096-.256h.128l-.048-.272.224-.032A1.64 1.64 0 014.32 6.4l.816-1.088.128-.24-.016-.064.112-.176.032-.176.144-.128.016-.176zm5.808 4.08l.032.176-.112.24.016.08.048.016.032.224.32.048.32-.112.288-.016a.48.48 0 00.136.072.245.245 0 00.104-.008l.256-.128.4.016.416-.128.352-.144.208.016.192-.16.176-.032c.064 0 .139-.008.224-.024.085-.016.17-.035.256-.056.085-.021.165-.05.24-.088a.516.516 0 00.176-.136l.128-.16.32-.096.096-.176.08-.08-.048-.032-.24-.032-.048-.08h-.08l-.336-.144-.272.032-.128-.112-.304.032a.363.363 0 00-.192-.112.458.458 0 01-.24.08 1.088 1.088 0 01-.24-.096 1.47 1.47 0 01-.184-.008 7.598 7.598 0 00-.2-.024l-.176-.016a.37.37 0 00-.216 0 .534.534 0 01-.184.032.395.395 0 01-.12-.024.292.292 0 00-.152-.008l-.32.032-.224-.16-.016.096-.48-.016-.16-.064c-.17 0-.256.08-.256.24v.288l.08.048-.08.224.032.096-.032.208.112.176zm6.032-.368l-.256.224-.064.192-.176.032-.192.288-.336.064-.288.208-.112.048-.224.24-.368-.032-.16.128-.208-.032a2.844 2.844 0 00-.24.176.602.602 0 01-.288.112l-.112-.064-.416.304-.16-.08-.112.064-.256-.064-.096.064-.272.032-.208-.048-.256.224-.304-.032v.016a.78.78 0 01-.176.064l-.08-.096a.765.765 0 01-.48.16h-.08a.263.263 0 00-.08-.016l-.24.256-.272.08-.24-.128-.176-.144-.128-.144-.096-.08v-.112c0-.053-.048-.203-.144-.448l.016-.272-.032-.32.08-.24-.048-.32.112-.224-.064-.192.048-.32-.112-.352-.016-.048c-.32-.17-.501-.325-.544-.464.021-.117.07-.195.144-.232a3.27 3.27 0 00.288-.168l.16-.096L10.032 6l.112-.048-.064-.224.048-.208-.08-.224.032-.112-.016-.192-.176-.352.032-.144-.08-.064.032-.192-.08-.112-.096-.208-.016-.016-.16.128-.16-.096-.16.096-.048-.064-.256.16-.144-.224-.288.176c-.49-.277-.736-.528-.736-.752 0-.192.101-.304.304-.336.107-.16.25-.24.432-.24h.048l.16.064h.032c.213 0 .4.003.56.008.16.005.288.019.384.04.085-.021.163-.035.232-.04a2.61 2.61 0 01.2-.008l.08.048.096-.032.416.16.368.096a.93.93 0 01.224-.016c.064 0 .117.003.16.008s.08.013.112.024l.16-.032c.139.01.272.053.4.128l.112.064c.17.043.304.064.4.064l.352-.064.064.08a.44.44 0 01.336.16h.432l.176.176c.064.021.123.037.176.048.053.01.101.016.144.016l.288.096.128.112h.336l.08.208.304.192.112.448-.24.432a2.18 2.18 0 01-.32.272 1.089 1.089 0 01-.32.144l-.24.144-.112-.032-.288.24h-.176l-.416.176-.288.032a5.63 5.63 0 00-.248.104c-.059.027-.117.05-.176.072a4.043 4.043 0 01-.192.064c-.07.021-.168.053-.296.096v.032c.021 0 .08-.005.176-.016l.312-.032c.112-.01.216-.021.312-.032.096-.01.16-.016.192-.016.117-.021.24-.043.368-.064.128-.021.213-.005.256.048a.516.516 0 01.224-.064c.181.053.293.08.336.08h.128c.043 0 .096-.01.16-.032.064.032.155.05.272.056.117.005.267.008.448.008l.128.08c.128.021.245.035.352.04a.72.72 0 01.288.072h.24c.053.053.136.09.248.112.112.021.2.059.264.112l.136.088c.059.037.13.099.216.184.15.128.224.261.224.4l-.016.176-.096.288zm-3.088-3.392h-.16L14 4.592l-.208-.048-.16.112-.304-.224-.24-.064-.096.048-.128-.144H12.8c-.107 0-.272-.016-.496-.048l-.336.048-.176-.16-.16.032-.048-.016-.096.064-.272-.096-.064.032v.352l.096.272-.08.224.08.176-.016.304.08.24-.096.24.048.16.224-.016c.021-.01.053-.024.096-.04a.315.315 0 00.128-.104l.064-.032.096.064.048-.112.4-.208c.15-.043.253-.07.312-.08a.25.25 0 00.152-.096l.224-.064.08-.016c.139-.085.299-.139.48-.16l.064-.048c.021 0 .064-.021.128-.064l.24-.128h.032c.053-.043.11-.083.168-.12a.758.758 0 01.2-.088l-.096-.112zm12.8-1.232l-.336.816-.16.048h-.256l-.24.032-.176-.032-.848.064-.256-.064-.048.016c-.085.043-.24.08-.464.112H24l-.096-.032h-.048c-.107 0-.24.021-.4.064a2.103 2.103 0 01-.496.048l-.224-.048-.032.16h-.16l-.048.464.064.112-.016.208v.352c0 .363-.037.608-.112.736l.112.16-.096.384.096.112-.16.224v.112l-.08.144.064.304-.048.56-.08.256c.01.01.016.037.016.08 0-.021-.016.037-.048.176 0 .01.005.027.016.048v.064a.516.516 0 01-.096.288l.048.192c0 .075-.005.117-.016.128l-.016.032a.45.45 0 00-.032.176c0 .17.021.315.064.432a2.205 2.205 0 01-.328.04 6.925 6.925 0 01-.2.008.604.604 0 01-.192-.032h-.032c-.235-.064-.352-.283-.352-.656a.733.733 0 00.016-.192c0-.075-.01-.179-.032-.312a2.085 2.085 0 01-.032-.28c0-.096.016-.176.048-.24l.048-.56c-.075-.107-.112-.187-.112-.24 0 .01.01-.027.032-.112a.377.377 0 01-.048-.16c0-.085.021-.144.064-.176 0-.053.037-.165.112-.336a1.348 1.348 0 01-.032-.24c.064 0 .096-.032.096-.096a.189.189 0 00-.024-.08.288.288 0 01-.024-.128l.032.048-.048-.128c0-.181.021-.33.064-.448v-.384l-.064-.288.064-.464-.064-.288.016-.128h-.192l-.16.08h-.096v.048c-.203 0-.39-.016-.56-.048l-.048.112-.528-.176-.704-.016-.448.128a1.854 1.854 0 01-.408-.488c-.09-.165-.136-.285-.136-.36 0-.085.01-.15.032-.192l.304-.272.256.016.912.176.24-.08.688.016.544.064.352-.128.128-.352.544.128.016-.016.032.032.192.24h.048l.192-.064.4.096c.203-.032.36-.059.472-.08.112-.021.184-.032.216-.032.096 0 .213.027.352.08h.16c.053 0 .101-.003.144-.008a.849.849 0 01.096-.008h.096l.464-.064.4.08.048.016.208-.064.288.064.672-.016.304.032h.4zm5.68 2.816l-.096.288c0 .277-.016.496-.048.656l-.096.16v.176l-.08.112-.048.224-.176.176-.112.4-.128.048-.064.176-.192.112-.128.272-.192.096-.016.192-.304.112a.91.91 0 01-.512.368l-.064.016c-.15.224-.347.336-.592.336a.701.701 0 01-.368.096l-.16.112-.16.048-.208.16-.208-.016-.224.064-.272-.112-.688-.048-.24-.368-.352-.368.08-.256-.24-.544.112-.208-.08-.384.08-.24a2.598 2.598 0 01-.032-.32c0-.203.053-.352.16-.448.01-.107.08-.283.208-.528h.08l-.032-.112.048-.224v-.24a.824.824 0 00.144-.192l-.048-.224V5.76c.075-.15.112-.304.112-.464l.336-.464.04-.032a.873.873 0 00.072-.064l-.016-.064h.064l.24-.272.016-.368.4-.144c.15-.096.245-.256.288-.48h.208a.68.68 0 01.32-.096.6.6 0 01.272.064l.176.016.416-.16.224.208.176.112h.128l.24.128h.128c.139.128.299.304.48.528l.032.08.112.064.336.432.304.752v.16l.144.56zm-1.056.384l-.016-.08a.411.411 0 01-.128-.24l.048-.08-.144-.304.032-.304-.064-.08c-.139-.107-.213-.192-.224-.256-.096-.043-.144-.15-.144-.32l-.096-.016-.192-.32-.144-.112-.336-.128-.128-.032c-.064 0-.107-.021-.128-.064l-.32.352-.208.448-.336.176-.048.176-.16.08-.064.416-.192.096a1.52 1.52 0 00-.064.416l-.256.24.08.048a.46.46 0 01-.144.336 3.322 3.322 0 01-.128.32v.128l-.048.064.016.192-.176.432.032.08v.448l-.064.224L28 9.2l.144.208.224.08.08.032.128-.064.416.032.064-.16h.064c.064 0 .101.016.112.048l.144-.048.128.048.208-.144.032-.048.144-.032c.075-.117.25-.235.528-.352l.032-.08.32-.224.176-.256.256-.128.016-.08.08-.176v-.208l.192-.16.064-.112.08-.096a1.018 1.018 0 01-.064-.272c0-.096.032-.197.096-.304l.064-.064zm8.448.992l-.192.48.128.32-.064.096-.064.256-.128.224-.064.032-.032.304-.288.032a2.22 2.22 0 01-.464.336l-.096-.016-.24.08-.144.016-.304.112-.352-.16-.048-.032-.272.016.064.032-.448-.064-.4.096-.16-.144-.336.032-.128-.096c-.01 0-.053.005-.128.016v.096a.906.906 0 01-.048.288l.048.304-.128.16c.021.235.032.41.032.528l-.048.4.064.608-.128.16.064.24-.048.16.096.048v.24a.508.508 0 01.032.144c0 .096-.059.176-.176.24l.064.224-.08.128-.032.64c-.032.747-.197 1.12-.496 1.12-.064 0-.25-.043-.56-.128l.048-.48-.096-.704.16-.288.016-.352-.064-.48.128-.208-.144-.368.112-.192-.096-.32.128-.288a.417.417 0 00-.12-.176c-.059-.053-.088-.09-.088-.112 0-.032.037-.064.112-.096a.561.561 0 01-.016-.16c0-.139.032-.32.096-.544l-.096-.16.048-.208-.112-.144.144-.176-.064-.464.096-.656-.112-.208.176-.304-.192-.176.112-.304-.112-.08.016-.272.096-.336V6.88l.016-.064V6.64l.016-.064-.08-.256.08-.272-.08-.208.064-.24-.064-.064.048-.32-.048-.176.032-.16-.048-.112-.576.256v-.096l-.112.016-.176.16h-.144l-.192.256-.16-.064-.08.16c-.523-.31-.784-.555-.784-.736a.41.41 0 01.144-.32l-.016-.24c.299-.17.581-.261.848-.272l.112-.112.512-.208.112-.112.448.032.08-.032.144-.56.384.08.256.416.144-.144.288.208c.139 0 .272.027.4.08l.08.144.112-.048.128.096a.76.76 0 01.176.016l-.016.096.352-.112.176.192.304.096.208.256.384.24.016.032.304.096v.096c.085.064.15.15.192.256l.128.08.096.176h.192v.32l.112.112.032.112.16.032c.021.245.09.453.208.624v.112l.16.16-.032.256.128.288.048.336.112.032zm-1.2.24l-.016-.08.016-.064-.096-.288.064-.144-.064-.128-.016-.16-.128-.256-.064-.176-.24-.416L38.24 6l-.112-.272-.144-.064-.256-.336-.256.032-.192-.256-.16.032-.112-.208-.064-.016h-.224l-.16.08-.128-.128-.16.032-.064-.112-.288-.048.016.192-.032.304.064.176.224.208-.176.384.016.24-.08.48c.032.203.096.373.192.512l-.064.176c.01.01.016.021.016.032 0 .032-.043.08-.128.144l.112.144-.08.192-.032.208.048.224L36 8.56h.336a.4.4 0 01.176-.032c.096 0 .181.032.256.096.01 0 .032-.005.064-.016h.048c.032 0 .09.01.176.032a.398.398 0 01.176-.048c.085 0 .165.021.24.064h.144l.128.032.32-.096.256.16c.096.032.133.048.112.048l.304-.304.032-.224.08-.032-.048-.128.112-.128.064-.112zm4.16.592l.128.496.112-.16.352-.416.496-.24a.595.595 0 01.264-.296c.123-.07.243-.13.36-.184l.928-.848.432-.512.384-.272.016-.08c.021-.085.075-.13.16-.136a.685.685 0 00.208-.04l.32-.48.048-.096.592-.352.624-.832.256-.144.08-.208.224-.112a1.29 1.29 0 01.28-.32 1.57 1.57 0 01.376-.256l.128.144.144-.032c.235.021.347.101.336.24a.336.336 0 01.048.176c0 .053-.027.117-.08.192l-.064.784-.064.128.016.384-.08.464.032.64-.144.256.224.4-.128.384.08.224.08.16-.048.416v.144a.28.28 0 01.016.088v.072l-.048.096-.112.128c.01.021.016.064.016.128a.238.238 0 01-.024.12c-.016.027-.03.05-.04.072l.096.208-.128.224.128.464a.613.613 0 01-.264.432.834.834 0 01-.472.144h-.288a4.249 4.249 0 01-.152-.264.795.795 0 01-.088-.296c0-.043.016-.09.048-.144l-.16-.224.112-.192-.016-.272.048-.304-.144-.48.144-.032a.239.239 0 01-.024-.136 1.47 1.47 0 00.008-.152.32.32 0 01.112-.256l.048-.192-.144-.672.048-.4-.08-.576.128-.144.048-.304.048-.24-.08-.016-.4.544-.304.224-.176.208a2.825 2.825 0 01-.624.624l-.176.256-.256.064-.448.64-.608.496-.256.256-.192.112-.256.224-.384.192-.064.128-1.152.848-.08.016-.112.208a.5.5 0 00-.168.072.49.49 0 01-.184.072l-.08.064h-.016v.112l-.896.224-.16-.208-.24-.176.272-.288-.16-.592.048-.048-.08-.176.32-.16-.24-.304.208-.336-.064-.288.016-.208-.08-.448.128-.16-.128-.512.112-.144-.176-.256.096-.624-.032-.064c-.085-.075-.133-.33-.144-.768l-.016-.048.048-.304-.048-.192a.752.752 0 01.144-.272c.053-.01.08-.043.08-.096a.35.35 0 01.048-.168.292.292 0 00.016-.216l.512-.064.08-.144.8.304-.096.144.176.16-.192.112.176.512-.224.176v.768l-.112.432.144.528-.24.208v.048l.144.208-.016.72-.064.048.112.256-.24.56zm15.776-1.216l.224.272.048.288.08.16-.08.64-.224.24-.08.256-.288.128v.112l-.24.048-.16.208a2.156 2.156 0 01-.296.096c-.123.032-.259.07-.408.112l-.184.152a.434.434 0 01-.232.088c-.085.043-.19.096-.312.16a1.705 1.705 0 01-.376.144l-.16-.048-.608.16-.304-.016-.24-.048-.208.048-.352.048h-.224l-.128-.064a.105.105 0 01-.048.048c-.043.021-.075.016-.096-.016l-.08-.096c-.021.01-.04.035-.056.072a.122.122 0 01-.088.072.79.79 0 01-.24-.048l-.112.032a.333.333 0 01-.128-.016c-.01.01-.021.003-.032-.024-.01-.027-.027-.04-.048-.04a.448.448 0 01-.224-.064l-.224.112-.16-.24-.096.08-.16-.08c-.043.043-.08.064-.112.064h-.112c-.075 0-.144-.053-.208-.16a.725.725 0 01-.288-.24c-.064-.096-.096-.267-.096-.512 0-.31.139-.48.416-.512.053-.021.085-.053.096-.096.01-.043.048-.075.112-.096l.224-.048.4-.064c.31.128.464.267.464.416a.336.336 0 01-.112.24c.032 0 .09.016.176.048l.256-.048c.107 0 .213.037.32.112a.35.35 0 01.232.016c.08.032.163.048.248.048h.272c.096-.064.165-.096.208-.096.053 0 .123.021.208.064a.545.545 0 01.144-.064l.144-.032.256.16.032-.064.288-.048h.176l.256-.176a1.921 1.921 0 01.288.016c.032 0 .085-.024.16-.072a5.2 5.2 0 00.224-.152h.144l.032-.08.24-.16.048-.096a.468.468 0 00.224-.16c.043-.064.08-.117.112-.16.053-.085.077-.157.072-.216a.595.595 0 00-.04-.168c-.021-.021-.043-.032-.064-.032a.962.962 0 01-.16-.032l-.24-.192-.288-.048-.256.08-.096-.144-.128.032-.144-.16-.064.048a2.464 2.464 0 00-.256-.048 1.764 1.764 0 00-.24.064c-.043-.01-.096-.059-.16-.144l-.064.048a1.625 1.625 0 01-.232.048l-.264.032-.08-.096-.336-.048-.112-.112-.176.016-.304-.144-.256-.288-.08-.32.144-.32.272-.176a.74.74 0 01.296-.12c.101-.016.2-.035.296-.056l.192-.144.64-.192.128-.096.256.048.128-.16.096.064a.79.79 0 01.592-.272l.128-.112.032-.032a.767.767 0 01.088-.08 3.45 3.45 0 01.136-.08c.064-.107.083-.168.056-.184a1.513 1.513 0 01-.184-.168.724.724 0 00-.176-.152c-.075-.048-.219-.099-.432-.152l-.208.032a2.577 2.577 0 00-.384-.048 1.378 1.378 0 00-.304.032h-.144l-.256.064-.24-.064-.112.128-.544.032-.32.112c-.085.096-.17.144-.256.144a.302.302 0 01-.096-.016 2.453 2.453 0 01-.128-.048.314.314 0 01-.032.072.523.523 0 00-.032.056h-.08c-.064 0-.13.005-.2.016-.07.01-.141.075-.216.192a.333.333 0 01-.128-.016l-.08.24-.528-.4-.144-.16.048-.096h-.096a.424.424 0 01-.064-.208v-.096l.08-.288.08-.08a1.83 1.83 0 01.128-.088.266.266 0 01.144-.04h.064l.096-.144.224.064a.44.44 0 01.184-.112.68.68 0 01.2-.032h.064c0-.043.032-.107.096-.192h.272l.112-.064.224-.032.192.176-.016-.144h.208l.192-.048.464-.096.16.016c.192-.053.384-.08.576-.08h.176l-.048.048h.064c.075 0 .144.016.208.048l.144-.048.304.032h.184c.09 0 .163-.005.216-.016h.112v.096l.32.112.384.096.176.256.272.208c.096.128.17.253.224.376.053.123.064.29.032.504l-.08.32v.032c-.021.053-.07.15-.144.288a.954.954 0 01-.528.432l-.128.128-.352.144-.304.064-.208.16-.56.064-.224.112h-.272l-.32.112.336.112h.384l.176-.016h.416c.15 0 .256.037.32.112.085.021.173.04.264.056.09.016.195.024.312.024l.096.08c.01 0 .021-.005.032-.016a.427.427 0 00.144.016l.32.032.208.176h.16l.336.256zm3.296 1.216l.128.496.112-.16.352-.416.496-.24a.595.595 0 01.264-.296c.123-.07.243-.13.36-.184l.928-.848.432-.512.384-.272.016-.08c.021-.085.075-.13.16-.136a.685.685 0 00.208-.04l.32-.48.048-.096.592-.352.624-.832.256-.144.08-.208.224-.112a1.29 1.29 0 01.28-.32 1.57 1.57 0 01.376-.256l.128.144.144-.032c.235.021.347.101.336.24a.336.336 0 01.048.176c0 .053-.027.117-.08.192l-.064.784-.064.128.016.384-.08.464.032.64-.144.256.224.4-.128.384.08.224.08.16-.048.416v.144a.28.28 0 01.016.088v.072l-.048.096-.112.128c.01.021.016.064.016.128a.238.238 0 01-.024.12c-.016.027-.03.05-.04.072l.096.208-.128.224.128.464a.613.613 0 01-.264.432.834.834 0 01-.472.144h-.288a4.249 4.249 0 01-.152-.264.795.795 0 01-.088-.296c0-.043.016-.09.048-.144l-.16-.224.112-.192-.016-.272L68 8.56l-.144-.48.144-.032a.239.239 0 01-.024-.136 1.47 1.47 0 00.008-.152.32.32 0 01.112-.256l.048-.192L68 6.64l.048-.4-.08-.576.128-.144.048-.304.048-.24-.08-.016-.4.544-.304.224-.176.208a2.825 2.825 0 01-.624.624l-.176.256-.256.064-.448.64-.608.496-.256.256-.192.112-.256.224-.384.192-.064.128-1.152.848-.08.016-.112.208a.5.5 0 00-.168.072.49.49 0 01-.184.072l-.08.064h-.016v.112l-.896.224-.16-.208-.24-.176.272-.288-.16-.592.048-.048-.08-.176.32-.16-.24-.304.208-.336-.064-.288.016-.208-.08-.448.128-.16-.128-.512.112-.144-.176-.256.096-.624-.032-.064c-.085-.075-.133-.33-.144-.768l-.016-.048.048-.304-.048-.192a.752.752 0 01.144-.272c.053-.01.08-.043.08-.096a.35.35 0 01.048-.168.292.292 0 00.016-.216l.512-.064.08-.144.8.304-.096.144.176.16-.192.112.176.512-.224.176v.768l-.112.432.144.528-.24.208v.048l.144.208-.016.72-.064.048.112.256-.24.56zm15.312-.832l-.192.48.128.32-.064.096-.064.256-.128.224-.064.032-.032.304-.288.032a2.22 2.22 0 01-.464.336l-.096-.016-.24.08-.144.016-.304.112-.352-.16-.048-.032-.272.016.064.032-.448-.064-.4.096-.16-.144-.336.032-.128-.096c-.01 0-.053.005-.128.016v.096a.906.906 0 01-.048.288l.048.304-.128.16c.021.235.032.41.032.528l-.048.4.064.608-.128.16.064.24-.048.16.096.048v.24a.508.508 0 01.032.144c0 .096-.059.176-.176.24l.064.224-.08.128-.032.64c-.032.747-.197 1.12-.496 1.12-.064 0-.25-.043-.56-.128l.048-.48-.096-.704.16-.288.016-.352-.064-.48.128-.208-.144-.368.112-.192-.096-.32.128-.288a.417.417 0 00-.12-.176c-.059-.053-.088-.09-.088-.112 0-.032.037-.064.112-.096a.561.561 0 01-.016-.16c0-.139.032-.32.096-.544l-.096-.16.048-.208-.112-.144.144-.176-.064-.464.096-.656-.112-.208.176-.304-.192-.176.112-.304-.112-.08.016-.272.096-.336V6.88l.016-.064V6.64l.016-.064-.08-.256.08-.272-.08-.208.064-.24-.064-.064.048-.32-.048-.176.032-.16-.048-.112-.576.256v-.096l-.112.016-.176.16h-.144l-.192.256-.16-.064-.08.16c-.523-.31-.784-.555-.784-.736a.41.41 0 01.144-.32l-.016-.24c.299-.17.581-.261.848-.272l.112-.112.512-.208.112-.112.448.032.08-.032.144-.56.384.08.256.416.144-.144.288.208c.139 0 .272.027.4.08l.08.144.112-.048.128.096a.76.76 0 01.176.016l-.016.096.352-.112.176.192.304.096.208.256.384.24.016.032.304.096v.096c.085.064.15.15.192.256l.128.08.096.176h.192v.32l.112.112.032.112.16.032c.021.245.09.453.208.624v.112l.16.16-.032.256.128.288.048.336.112.032zm-1.2.24l-.016-.08.016-.064-.096-.288.064-.144-.064-.128-.016-.16-.128-.256-.064-.176-.24-.416-.192-.16-.112-.272-.144-.064-.256-.336-.256.032-.192-.256-.16.032-.112-.208-.064-.016h-.224l-.16.08-.128-.128-.16.032-.064-.112-.288-.048.016.192-.032.304.064.176.224.208L73.36 6l.016.24-.08.48c.032.203.096.373.192.512l-.064.176c.01.01.016.021.016.032 0 .032-.043.08-.128.144l.112.144-.08.192-.032.208.048.224-.016.208h.336a.4.4 0 01.176-.032c.096 0 .181.032.256.096.01 0 .032-.005.064-.016h.048c.032 0 .09.01.176.032a.398.398 0 01.176-.048c.085 0 .165.021.24.064h.144l.128.032.32-.096.256.16c.096.032.133.048.112.048l.304-.304.032-.224.08-.032-.048-.128.112-.128.064-.112zM86.8 2.736l-.096.272.144.304-.176.144-.064.336-.112.112-.08.352h-.048a.524.524 0 01-.272.352l-.144.512-.144.224a1 1 0 01.016.208l-.256.224-.368.848-.432.496v.16c0 .15-.085.277-.256.384l-.032.288-.112.064-.192.256-.048.176-.144.08c0 .021.003.048.008.08s.013.075.024.128l-.176.144-.288.176-.096.16-.32.336c-.245.405-.485.667-.72.784l-.384.56-.304.128-.112.176h-.08l-.112.096-.064.208-.272.112-.08.144-.352.16h-.064c-.224.277-.352.421-.384.432a.496.496 0 01-.096.032 2.08 2.08 0 01-.192.032.282.282 0 01-.208.144l-.016.032-.304.288-.176-.016-.096.128-.272.064-.368.176-.624.016-.544-.208.032-.24c.01-.139.096-.224.256-.256.053-.021.123-.056.208-.104.085-.048.187-.11.304-.184l.224.016.128-.192c.053 0 .096.027.128.08.117-.181.256-.272.416-.272h.048a.85.85 0 01.384-.24c.085-.107.224-.192.416-.256l.032-.016.08.096.032-.304.32-.208.176-.192c.075-.107.133-.16.176-.16.021.021.032.037.032.048l.096-.176.368-.368a.455.455 0 01.08-.096l-.624-.72-.032-.192-.096-.064-.016-.384-.176-.176v-.4l-.416-.928.032-.16-.128-.224-.032-.176-.08-.112-.112-.288-.288-.224-.128-.528-.224-.192-.032-.24c-.256-.075-.384-.293-.384-.656 0-.31.23-.55.688-.72.587.395.933.79 1.04 1.184l.048.368a.528.528 0 01.088-.032 2.4 2.4 0 01.136-.032v.144l.256.192-.096.256.032.192.144.384.08.08.016.144.128.064v.272l.176.624.032.24.256.512.208.624.24.256h.032c.043 0 .08-.043.112-.128l.128-.048-.048-.128c.032-.064.07-.096.112-.096.021 0 .053-.024.096-.072.043-.048.075-.061.096-.04l.016-.256c.021 0 .059-.032.112-.096a.862.862 0 01.208-.176l.208-.304.128-.32.16-.128.096-.208.064-.048-.032-.208.176-.08.032-.08c0-.032.027-.09.08-.176l.112-.288.08.096.064-.032V6.24a.44.44 0 01.176-.352v-.032l.112-.208.08-.352.112-.032.208-.496.144-.192a.574.574 0 01.224-.368l.144-.448.112-.144V3.28h.08a.689.689 0 00.176-.176 3.794 3.794 0 00.256-.408.567.567 0 01.08-.12l.08-.048.448-.272.352.48zm2.256 5.728l.128.496.112-.16.352-.416.496-.24a.595.595 0 01.264-.296c.123-.07.243-.13.36-.184l.928-.848.432-.512.384-.272.016-.08c.021-.085.075-.13.16-.136a.685.685 0 00.208-.04l.32-.48.048-.096.592-.352.624-.832.256-.144.08-.208.224-.112a1.29 1.29 0 01.28-.32 1.57 1.57 0 01.376-.256l.128.144.144-.032c.235.021.347.101.336.24a.336.336 0 01.048.176c0 .053-.027.117-.08.192l-.064.784-.064.128.016.384-.08.464.032.64-.144.256.224.4-.128.384.08.224.08.16-.048.416v.144a.28.28 0 01.016.088v.072l-.048.096-.112.128c.01.021.016.064.016.128a.238.238 0 01-.024.12c-.016.027-.03.05-.04.072l.096.208-.128.224.128.464a.613.613 0 01-.264.432.834.834 0 01-.472.144h-.288a4.249 4.249 0 01-.152-.264.795.795 0 01-.088-.296c0-.043.016-.09.048-.144l-.16-.224.112-.192-.016-.272.048-.304-.144-.48.144-.032a.239.239 0 01-.024-.136 1.47 1.47 0 00.008-.152.32.32 0 01.112-.256l.048-.192-.144-.672.048-.4-.08-.576.128-.144.048-.304.048-.24-.08-.016-.4.544-.304.224-.176.208a2.825 2.825 0 01-.624.624l-.176.256-.256.064-.448.64-.608.496-.256.256-.192.112-.256.224-.384.192-.064.128-1.152.848-.08.016-.112.208a.5.5 0 00-.168.072.49.49 0 01-.184.072l-.08.064h-.016v.112l-.896.224-.16-.208-.24-.176.272-.288-.16-.592.048-.048-.08-.176.32-.16-.24-.304.208-.336-.064-.288.016-.208-.08-.448.128-.16-.128-.512.112-.144-.176-.256.096-.624-.032-.064c-.085-.075-.133-.33-.144-.768l-.016-.048.048-.304-.048-.192a.752.752 0 01.144-.272c.053-.01.08-.043.08-.096a.35.35 0 01.048-.168.292.292 0 00.016-.216l.512-.064.08-.144.8.304-.096.144.176.16-.192.112.176.512-.224.176v.768l-.112.432.144.528-.24.208v.048l.144.208-.016.72-.064.048.112.256-.24.56zm5.472-7.36l-.096.368-.144.08-.112.224c-.096.267-.293.448-.592.544l-.112.048-.464.288h-.432l-.144-.048a1.793 1.793 0 01-.528.096.797.797 0 01-.464-.144 1.308 1.308 0 01-.64-.448c-.107-.075-.187-.283-.24-.624l.112-.112a4.964 4.964 0 01-.208-.384l.128-.16.144-.112a.547.547 0 01.416-.192c.181 0 .341.056.48.168.139.112.208.232.208.36 0 .096-.01.192-.032.288l-.112.096h.048l.128.128-.032.16.032.048a2.1 2.1 0 00.24.032h.224a.54.54 0 01.272-.064h.096l.16-.224h.048l.016-.032.352-.096-.032-.032a3.203 3.203 0 00-.064-.176c.064-.373.277-.56.64-.56a.68.68 0 01.416.16l.288.32zm9.584 6.4l-.304.288-.016.096a.72.72 0 01-.272.464c-.256.48-.613.832-1.072 1.056l-.24.192-.208.032-.256.192-.176.016-.4.256-.256-.032-.288.128-.224-.064-.112.096-.304-.048-.304.048-.112-.096-.32-.064-.464-.352-.256-.32c-.16-.203-.24-.373-.24-.512v-.048l-.16-.24v-.208a1.46 1.46 0 01-.048-.352V7.92L98 7.648l.08-.192-.064-.128.192-.304-.048-.256.128-.416.064-.096.064-.384-.032-.064.192-.208.032-.16.128-.368.208-.448.288-.256.064-.144.096-.176.032-.16.256-.304c.064-.021.139-.043.224-.064.043-.203.31-.32.8-.352.416.085.683.197.8.336a.45.45 0 01.272.144l.336.016.224.288c.053.107.09.213.112.32l.128.128-.048.24c.01.075.016.192.016.352l.08.064v.24l.064.496c-.224.224-.48.352-.768.384a1.606 1.606 0 00-.56-.624l-.032-.528-.096-.176V4.72l-.16-.192-.08-.064-.144.048h-.208c-.139.032-.272.133-.4.304-.128.17-.256.352-.384.544l-.016.16-.096.08v.288l-.208.224-.256.704.016.192-.128.288.048.352-.096.048-.032.448.016.08.192.192.08.336.224.064.016.128.272.048.208.048a.54.54 0 01.272-.064h.112a.923.923 0 01.352-.08c.075-.032.17-.064.288-.096a.64.64 0 01.544-.256h.096c.053 0 .09-.027.112-.08.117-.181.304-.299.56-.352.299-.267.47-.48.512-.64a.594.594 0 00.288-.4l.096-.064.048-.368c.49.075.736.32.736.736v.128zm1.776 3.392a8.52 8.52 0 01-.72-.032 4.185 4.185 0 01-.336-.04c-.096-.016-.155-.035-.176-.056-.032-.032-.048-.053-.048-.064v-.032c-.117-.021-.101-.304.048-.848l.048-.032-.016-.224.192-.224.112-.272.336-.208.016-.048.08-.336a.496.496 0 01.12-.016.145.145 0 00.104-.048l.016-.336h.288L106 8l.208-.016.4-.384h.144l.224-.144.384-.144.08-.112.224-.016.032-.016a.507.507 0 01.24-.104l.32-.072c-.043-.021-.07-.043-.08-.064l-.064-.016-.16-.096h-.272l-.176-.096a.323.323 0 01-.208-.064 2.438 2.438 0 01-.192-.176 2.875 2.875 0 01-.376-.112.588.588 0 01-.248-.16.292.292 0 01-.224-.192L106.224 6a2.765 2.765 0 00-.152-.056l-.12-.04v-.176l-.256-.208-.128-.432.256-.432v-.208l.512-.288.176-.256h.24l.144-.112.112-.272.272.048a.879.879 0 01.496-.176l.064-.096.304-.032.304-.176h.288l.048-.08.416-.016.352-.144.192.048.208-.144.416-.096.416-.032h.544c.053-.021.099-.037.136-.048a.435.435 0 01.12-.016c.064 0 .107.005.128.016l.032-.032.288.08-.048-.032.096-.016h.016c.01 0 .027-.005.048-.016h.112l.288.072c.107.027.21.056.312.088a.951.951 0 01.256.12.33.33 0 01.136.184l.144.16c0 .224-.053.405-.16.544l-.144.352-.368-.176-.288-.048-.24-.128h-.336v-.08l-.16.096-.208-.112-.032.032-.288-.064-.256.08-.256-.032-.32.048c-.15.075-.261.112-.336.112a.178.178 0 01-.08-.016h-.048l-.192.112h-.208l-.208.112-.16-.016-.336.224-.208-.128a13.5 13.5 0 00-.296.136 3.05 3.05 0 00-.328.184l-.352.192-.256.208-.112.032-.096.128-.08.176.016.112.096.064.016.064c.107.053.17.096.192.128.01-.043.027-.064.048-.064.032 0 .07.021.112.064l.128.224a.333.333 0 00.128-.016l.096.128.192.08.016.064.144-.016c.16.128.336.192.528.192h.096l.016.016h.112l.208.144.016.016a1.4 1.4 0 00.296.096c.07.01.13.027.184.048a.394.394 0 00.176-.128l.192.176a.111.111 0 00.048-.008c.01-.005.027-.003.048.008l.032-.048.288.256c.043.16.059.336.048.528l.048.16a.938.938 0 01-.168.24.384.384 0 01-.12.08.125.125 0 01-.088 0 .954.954 0 01-.072-.032.213.213 0 00-.072-.048.279.279 0 01-.088-.064l-.016-.032-.08-.064-.16.016c-.075-.01-.115-.032-.12-.064-.005-.032-.024-.048-.056-.048l-.16-.032-.256.128-.224.144-.416.048-.192.112-.304.192-.304.16-.256.208-.16.128-.016.208-.16-.08-.16.192-.064-.08-.16.144-.304.384-.16.112-.24.464c.021 0 .021.037 0 .112a3.896 3.896 0 00-.12.6.731.731 0 00.024.328zm6.16-2.704l-.096.32.144.432-.016.288.064.128c.224.032.336.144.336.336a.404.404 0 01-.096.272c-.064.075-.197.139-.4.192l-.448.112-.496-.48-.208-.528v-.48l-.224-.336.16-.128-.048-.176.224-.88-.192-.304.08-.16.064-.544.08-.08-.016-.48.048-.208.032-.704.176-.288.032-.032-.016-.032a.34.34 0 01.096-.152 1.7 1.7 0 01.16-.12h.464c.235 0 .392.032.472.096.08.064.12.165.12.304 0 .107-.075.267-.224.48v.048c0 .075.019.141.056.2.037.059.093.13.168.216l-.24.048-.016.32-.192.128.064.176-.128.192.064.24-.064.128-.16.928.176.528zm12-3.088h.112a1.21 1.21 0 00.072-.08.295.295 0 01.12-.08v-.16l.24-.192.128-.272.128-.224.048-.208.176-.272.032-.192.544-.08.464.24.112.128c.17.117.325.24.464.368l-.304.256.016.208a.545.545 0 01-.288.416l-.112.208v.256l.048.256.016.432-.144.096c.053.053.099.101.136.144.037.043.056.144.056.304a.468.468 0 01-.016.16l-.128.016.048.16-.048.32.128 1.008-.096.288.128.432-.08.4.08.256.128.176c-.085.203-.128.352-.128.448v.16a.76.76 0 01.016.176v.096l-.112.144c.01.01.016.059.016.144a.828.828 0 01-.016.208l.096.208-.08.24.176.496c-.01.427-.181.64-.512.64h-.288a1.925 1.925 0 01-.336-.608c0-.053.016-.107.048-.16l-.208-.24.112-.192-.064-.32v-.32l-.192-.512.144-.032a.712.712 0 01-.064-.32.54.54 0 01.064-.272l.048-.224-.24-.72.144-.416-.128-.64v-.448l.08-.416-.128-.464.128-.384-.064-.368-.096.096-.24.256a.91.91 0 01-.096.288c-.053.107-.117.16-.192.16l-.448.256-.176.336-.736.576-.4.176-.352.256-.224.064-.784.32-.32.144-.528-.016-.384-.24-.224-.144v-.288l-.272-.064-.112-.224-.048-.128-.064-.208.096-.304-.048-.192.048-.24-.064-.384-.08-.128c.01-.17.07-.299.176-.384l-.048-.064.064-.336-.112-.208v-.336l.112-.368.048-.304-.064-.304.16-.176a.322.322 0 01.304-.176l.208-.096.384.112a.436.436 0 01.24.272c.043.021.072.067.088.136.016.07.045.163.088.28l-.128.368a.536.536 0 01-.12.272c-.059.064-.088.16-.088.288v.112l.144.192-.064.192-.032.32.096.288-.24.208c.17.384.256.661.256.832l.448.048a.366.366 0 01.112-.096.953.953 0 00.128-.096l.24-.016.192-.064c.053-.053.101-.083.144-.088a.592.592 0 00.144-.04l.16-.192.416-.096-.016-.16.368-.064.288-.32.064.064.08-.208.128.064.16-.128.128-.32.336-.224.032-.224zm12.64-1.664l-.336.816-.16.048h-.256l-.24.032-.176-.032-.848.064-.256-.064-.048.016c-.085.043-.24.08-.464.112h-.32l-.096-.032h-.048c-.107 0-.24.021-.4.064a2.103 2.103 0 01-.496.048l-.224-.048-.032.16h-.16l-.048.464.064.112-.016.208v.352c0 .363-.037.608-.112.736l.112.16-.096.384.096.112-.16.224v.112l-.08.144.064.304-.048.56-.08.256c.01.01.016.037.016.08 0-.021-.016.037-.048.176 0 .01.005.027.016.048v.064a.516.516 0 01-.096.288l.048.192c0 .075-.005.117-.016.128l-.016.032a.45.45 0 00-.032.176c0 .17.021.315.064.432a2.205 2.205 0 01-.328.04 6.925 6.925 0 01-.2.008.604.604 0 01-.192-.032h-.032c-.235-.064-.352-.283-.352-.656a.733.733 0 00.016-.192c0-.075-.01-.179-.032-.312a2.085 2.085 0 01-.032-.28c0-.096.016-.176.048-.24l.048-.56c-.075-.107-.112-.187-.112-.24 0 .01.01-.027.032-.112a.377.377 0 01-.048-.16c0-.085.021-.144.064-.176 0-.053.037-.165.112-.336a1.348 1.348 0 01-.032-.24c.064 0 .096-.032.096-.096a.189.189 0 00-.024-.08.288.288 0 01-.024-.128l.032.048-.048-.128c0-.181.021-.33.064-.448v-.384l-.064-.288.064-.464-.064-.288.016-.128h-.192l-.16.08h-.096v.048c-.203 0-.39-.016-.56-.048l-.048.112-.528-.176-.704-.016-.448.128a1.854 1.854 0 01-.408-.488c-.09-.165-.136-.285-.136-.36 0-.085.01-.15.032-.192l.304-.272.256.016.912.176.24-.08.688.016.544.064.352-.128.128-.352.544.128.016-.016.032.032.192.24h.048l.192-.064.4.096c.203-.032.36-.059.472-.08.112-.021.184-.032.216-.032.096 0 .213.027.352.08h.16c.053 0 .101-.003.144-.008a.849.849 0 01.096-.008h.096l.464-.064.4.08.048.016.208-.064.288.064.672-.016.304.032h.4zm5.68 2.816l-.096.288c0 .277-.016.496-.048.656l-.096.16v.176l-.08.112-.048.224-.176.176-.112.4-.128.048-.064.176-.192.112-.128.272-.192.096-.016.192-.304.112a.91.91 0 01-.512.368l-.064.016c-.15.224-.347.336-.592.336a.701.701 0 01-.368.096l-.16.112-.16.048-.208.16-.208-.016-.224.064-.272-.112-.688-.048-.24-.368-.352-.368.08-.256-.24-.544.112-.208-.08-.384.08-.24a2.598 2.598 0 01-.032-.32c0-.203.053-.352.16-.448.01-.107.08-.283.208-.528h.08l-.032-.112.048-.224v-.24a.824.824 0 00.144-.192l-.048-.224V5.76c.075-.15.112-.304.112-.464l.336-.464.04-.032a.873.873 0 00.072-.064l-.016-.064h.064l.24-.272.016-.368.4-.144c.15-.096.245-.256.288-.48h.208a.68.68 0 01.32-.096.6.6 0 01.272.064l.176.016.416-.16.224.208.176.112h.128l.24.128h.128c.139.128.299.304.48.528l.032.08.112.064.336.432.304.752v.16l.144.56zm-1.056.384l-.016-.08a.411.411 0 01-.128-.24l.048-.08-.144-.304.032-.304-.064-.08c-.139-.107-.213-.192-.224-.256-.096-.043-.144-.15-.144-.32l-.096-.016-.192-.32-.144-.112-.336-.128-.128-.032c-.064 0-.107-.021-.128-.064l-.32.352-.208.448-.336.176-.048.176-.16.08-.064.416-.192.096a1.52 1.52 0 00-.064.416l-.256.24.08.048a.46.46 0 01-.144.336 3.322 3.322 0 01-.128.32v.128l-.048.064.016.192-.176.432.032.08v.448l-.064.224.016.224.144.208.224.08.08.032.128-.064.416.032.064-.16h.064c.064 0 .101.016.112.048l.144-.048.128.048.208-.144.032-.048.144-.032c.075-.117.25-.235.528-.352l.032-.08.32-.224.176-.256.256-.128.016-.08.08-.176v-.208l.192-.16.064-.112.08-.096a1.018 1.018 0 01-.064-.272c0-.096.032-.197.096-.304l.064-.064zm3.632.72l-.032.288-.128.24a.587.587 0 01.112.48l.4.4a.677.677 0 01.016.32l-.032.032.656.032c.064.01.13.005.2-.016a.387.387 0 00.184-.128l.352.16.304-.048.144-.048.464-.32.144.032.176-.144.208-.064.016-.16.368-.24.208-.256.112-.032-.048-.112.224-.48v-.16l.096-.496.032-.032-.032-.112a.35.35 0 01-.128-.136.776.776 0 01-.072-.184 1.4 1.4 0 01-.032-.16c-.005-.043-.013-.064-.024-.064-.032.01-.072-.01-.12-.064a10.745 10.745 0 01-.168-.192 2.064 2.064 0 00-.216-.216.774.774 0 00-.264-.152 25.295 25.295 0 01-.528-.096l-.096.032-.272-.016-.208.16-.144-.032-.16.112-.432.288a.573.573 0 00-.128.16.34.34 0 01-.208.16c-.064.085-.13.181-.2.288-.07.107-.141.15-.216.128l-.208.352-.096.24-.224.256zm3.344-5.808l-.16.016-.192.144-.208.112a.337.337 0 01-.144.096c-.043.01-.107.064-.192.16-.277.139-.453.325-.528.56l-.416.224-.032.32-.288-.016-.384.624a.851.851 0 00-.128.16l-.064.128-.368.672-.08.096-.096.448-.128.128-.016.24-.096.288-.016.208.176-.192.32-.288.16-.272.336-.176.144-.288.384-.24.432-.304.528-.096.096-.08.432.064.656-.096.784.448.416.528.064.016a.308.308 0 01.144.152 1 1 0 01.072.232l.048.256c.016.085.04.155.072.208l-.032.144.208.32c.021.085.03.227.024.424a1.439 1.439 0 01-.056.424 1.777 1.777 0 00-.064.104 7.607 7.607 0 01-.08.136l-.032.272-.256.352-.064.224-.192.176-.16.352-.256.144-.192.208-.224.064-.144.208h-.192a.699.699 0 01-.192.16c-.075.043-.144.08-.208.112a.353.353 0 01-.12.04c-.07.016-.152.045-.248.088l-.352.208-.192-.064a.65.65 0 01-.56.128l-.048.096-.544-.096-.032.016a.815.815 0 01-.12.064 1.17 1.17 0 00-.168.096l-.256-.176-.48-.16-.048.048-.304-.032-.272-.432-.352-.528-.112-.672-.16-.496.032-.24-.144-.24.144-.192-.048-.112.032-.192-.064-.272a.283.283 0 01.08-.128c.043-.043.064-.075.064-.096-.075-.139-.08-.299-.016-.48l.032-.32.08-.112.048-.208v-.176l.096-.144.128-.608.24-.384.016-.064a.647.647 0 01.12-.208c.048-.053.104-.107.168-.16l.08-.08.016-.208a.69.69 0 00.352-.384v-.08c0-.032.01-.075.032-.128h.16l.288-.352.128-.352.096.048.224-.096.176-.256.224-.048.08-.224.16-.032-.016-.144.224-.128.064.032.032-.096.224-.064a.782.782 0 01.232-.104.896.896 0 00.2-.072l.208-.112.224-.208.304.032.144-.16.8-.192.304.064c.117.032.197.075.24.128.16.192.165.368.016.528a.482.482 0 01-.2.104.924.924 0 01-.28.008l-.176.128-.24.032-.112.048-.368.144-.096.128zm12.144 6.64c.021.053.043.112.064.176a.604.604 0 01.032.192l.112.24-.08.224-.032.24c.043.064.07.17.08.32l-.032.032.128.256-.24.176-.032.096a.569.569 0 01-.416.176 4.575 4.575 0 01-.592-.112l-.096-.704.048-.128-.048-.32.016-.336.064-.08-.048-.528c.021-.16.035-.275.04-.344.005-.07.008-.13.008-.184l-.144-.192.144-.176.048-.288-.032-.208.096-.176-.096-.224.144-.176.016-.112V5.6l.048-.064-.016-.48.048-.528-.064-.096-.016-.352.048-.304-.048-.112.096-.736a7.196 7.196 0 01.592-.096c.16 0 .299.064.416.192l.032.112.24.176-.128.24.032.048c-.01.139-.037.235-.08.288l.032.24.08.224-.112.256a.812.812 0 01-.08.368.37.37 0 01-.008.072l-.04.2.144.112-.064.144.032.096a.516.516 0 01-.064.224l.032.064-.096.416v.24l-.112.24.064.224-.064.528.048.032-.08.288-.064.336zm-7.52.208l.032.192.064.4.032.192.048.048.224.064h.208l.352-.064h.448l.496-.032.16-.24.144.08.128-.128.144-.08.224-.064.048-.016.064-.224.256-.064.208-.112.176-.272.256-.192.096-.272.16-.144.064-.176-.08-.416-.048-.032-.176-.24-.288-.112c.01 0-.003-.035-.04-.104-.037-.07-.077-.093-.12-.072L156 6.272l-.304-.176-.128.048h-.128a.476.476 0 01-.24.064c-.021 0-.045-.016-.072-.048a.413.413 0 00-.088-.08c-.032.01-.09.027-.176.048a1.346 1.346 0 01-.32.032.586.586 0 00-.176-.008 3.54 3.54 0 01-.128.008c-.043.032-.072.048-.088.048h-.104c-.043 0-.093.03-.152.088a.428.428 0 01-.136.104l-.336-.08-.336.08-.048.48-.032.528-.016.256.144.512-.224.224zm-.976-3.072a1.15 1.15 0 00.016-.256c0-.128-.01-.245-.032-.352l.032-.112-.128-.144a.237.237 0 01.112-.16l-.08-.112a.426.426 0 00.048-.192.52.52 0 00-.112-.288c0-.085.016-.17.048-.256l-.064-.16.08-.176-.256-.544.256-.048v-.032l.56-.288.288.336.032.16.24.176-.016.24c0 .043-.003.093-.008.152a3.976 3.976 0 01-.024.2c.075.075.112.144.112.208 0 .01-.01.048-.032.112l.064.064-.064.256.112.288-.016.112.208.096-.112.208-.096.096-.064.288.048.24.4-.144.4.032.112-.256.448.096.416.016.112-.048.256.128.064-.032.304-.176.432.08.192.016.528.128.096-.016c.085.053.173.107.264.16.09.053.179.123.264.208l.288.032.112.336.064.032.176.256.096.272.112.112-.032.352.032.144a1.33 1.33 0 01-.112.304.651.651 0 00-.064.352l-.144-.112.016.112-.08.128.032.352-.336-.16-.048.192-.08.096a4.379 4.379 0 01-.064.152.393.393 0 01-.08.12l.048.112-.304.096-.016.048-.24.288-.16.288-.128.096-.128.208-.4-.112-.064.096a.561.561 0 01-.16.016h-.176l-.224.224-.048.16a.475.475 0 00-.192.136c-.064.07-.133.104-.208.104l-.272-.096-.432-.128-.304.176-.064.032-.256-.016.048-.032-.432.064-.304.048-.128-.144-.288.032a.693.693 0 01-.544-.448l-.016-.112-.08-.128v-.288l-.096-.16.128-.192a1.059 1.059 0 01-.048-.304c0-.032.005-.053.016-.064v-.56l.064-.16.016-.944.048-.224-.08-.096.144-.432-.048-.16v-.352l.08-.096-.016-.224-.064-.128zm21.264 1.92l.224.272.048.288.08.16-.08.64-.224.24-.08.256-.288.128v.112l-.24.048-.16.208a2.156 2.156 0 01-.296.096c-.123.032-.259.07-.408.112l-.184.152a.434.434 0 01-.232.088c-.085.043-.19.096-.312.16a1.705 1.705 0 01-.376.144l-.16-.048-.608.16-.304-.016-.24-.048-.208.048-.352.048h-.224l-.128-.064a.105.105 0 01-.048.048c-.043.021-.075.016-.096-.016l-.08-.096c-.021.01-.04.035-.056.072a.122.122 0 01-.088.072.79.79 0 01-.24-.048l-.112.032a.333.333 0 01-.128-.016c-.01.01-.021.003-.032-.024-.01-.027-.027-.04-.048-.04a.448.448 0 01-.224-.064l-.224.112-.16-.24-.096.08-.16-.08c-.043.043-.08.064-.112.064h-.112c-.075 0-.144-.053-.208-.16a.725.725 0 01-.288-.24c-.064-.096-.096-.267-.096-.512 0-.31.139-.48.416-.512.053-.021.085-.053.096-.096.01-.043.048-.075.112-.096l.224-.048.4-.064c.31.128.464.267.464.416a.336.336 0 01-.112.24c.032 0 .09.016.176.048l.256-.048c.107 0 .213.037.32.112a.35.35 0 01.232.016c.08.032.163.048.248.048h.272c.096-.064.165-.096.208-.096.053 0 .123.021.208.064a.545.545 0 01.144-.064l.144-.032.256.16.032-.064.288-.048h.176l.256-.176a1.921 1.921 0 01.288.016c.032 0 .085-.024.16-.072a5.2 5.2 0 00.224-.152h.144l.032-.08.24-.16.048-.096a.468.468 0 00.224-.16c.043-.064.08-.117.112-.16.053-.085.077-.157.072-.216a.595.595 0 00-.04-.168c-.021-.021-.043-.032-.064-.032a.962.962 0 01-.16-.032l-.24-.192-.288-.048-.256.08-.096-.144-.128.032-.144-.16-.064.048a2.464 2.464 0 00-.256-.048 1.764 1.764 0 00-.24.064c-.043-.01-.096-.059-.16-.144L170 7.36a1.625 1.625 0 01-.232.048l-.264.032-.08-.096-.336-.048-.112-.112-.176.016-.304-.144-.256-.288-.08-.32.144-.32.272-.176a.74.74 0 01.296-.12c.101-.016.2-.035.296-.056l.192-.144.64-.192.128-.096.256.048.128-.16.096.064a.79.79 0 01.592-.272l.128-.112.032-.032a.767.767 0 01.088-.08 3.45 3.45 0 01.136-.08c.064-.107.083-.168.056-.184a1.513 1.513 0 01-.184-.168.724.724 0 00-.176-.152c-.075-.048-.219-.099-.432-.152l-.208.032a2.577 2.577 0 00-.384-.048 1.378 1.378 0 00-.304.032h-.144l-.256.064-.24-.064-.112.128-.544.032-.32.112c-.085.096-.17.144-.256.144a.302.302 0 01-.096-.016 2.453 2.453 0 01-.128-.048.314.314 0 01-.032.072.523.523 0 00-.032.056h-.08c-.064 0-.13.005-.2.016-.07.01-.141.075-.216.192a.333.333 0 01-.128-.016l-.08.24-.528-.4-.144-.16.048-.096h-.096a.424.424 0 01-.064-.208v-.096l.08-.288.08-.08a1.83 1.83 0 01.128-.088.266.266 0 01.144-.04h.064l.096-.144.224.064a.44.44 0 01.184-.112.68.68 0 01.2-.032h.064c0-.043.032-.107.096-.192h.272l.112-.064.224-.032.192.176-.016-.144h.208l.192-.048.464-.096.16.016c.192-.053.384-.08.576-.08h.176l-.048.048h.064c.075 0 .144.016.208.048l.144-.048.304.032h.184c.09 0 .163-.005.216-.016h.112v.096l.32.112.384.096.176.256.272.208c.096.128.17.253.224.376.053.123.064.29.032.504l-.08.32v.032c-.021.053-.07.15-.144.288a.954.954 0 01-.528.432l-.128.128-.352.144-.304.064-.208.16-.56.064-.224.112h-.272l-.32.112.336.112h.384l.176-.016h.416c.15 0 .256.037.32.112.085.021.173.04.264.056.09.016.195.024.312.024l.096.08c.01 0 .021-.005.032-.016a.427.427 0 00.144.016l.32.032.208.176h.16l.336.256zm6.32-4.275c0-.031.006-.068.016-.109V2.8l.336.304.304.064.576-.144.208.4.24.096-.16.208.128.384-.208.24-.08.336-.048.08.032.08c0 .15-.037.261-.112.336l-.032.048v.064a.531.531 0 01.048.208c0 .053-.005.09-.016.112l.016.064-.064.176.048.192-.128.128.048.224.096.112-.144.128v.256l-.112.256.08.256-.096.128.16.112-.224.368-.016.048.16.032-.112.368v.064a.76.76 0 01-.016.176l.016.048.256.032.208.32-.112.24.176-.016c.064.128.101.24.112.336l-.24.24a1.35 1.35 0 01-.32.224l-.272.144-.08-.08-.16.096-.496-.576V9.44a2.07 2.07 0 01-.096-.592v-.096l-.096-.944.128-.672-.096-.384-.272.448-.144.416-.128.064-.224.352-.4.368-.112.192-.352.304-.08.208-.512.32-.544.608-.304.064-.208.16c-.267-.01-.47-.112-.608-.304-.48-.235-.73-.57-.752-1.008l.08-.048-.016-.096-.016-.192-.096-.208.096-.224.032-.336.112-.528v-.064a.142.142 0 01-.016-.064c0-.043.01-.096.032-.16a.333.333 0 01-.016-.128c0-.075.032-.197.096-.368l.112-.048c-.064-.053-.096-.112-.096-.176 0-.043.005-.075.016-.096a.355.355 0 01-.016-.112c0-.128.064-.224.192-.288a.958.958 0 01.176-.32l-.08-.128.192-.24v-.064c0-.203.07-.39.208-.56l-.016-.288.064-.064v-.048a.123.123 0 01-.016-.048c0-.064.021-.117.064-.16v-.096c.043-.107.155-.267.336-.48.181-.213.315-.4.4-.56l.08.08.176-.08.08-.032.528-.24 1.232.064v.112l.384.08c.245 0 .405.08.48.24v-.003zm.16 1.379l-.064-.112-.128-.032-.496-.4-.32-.048h-.256l-.032-.032-.128.048-.144-.08h-.416l.048.064-.368.128-.064.08-.048.016c-.192.16-.325.293-.4.4l-.112.384-.064.144.16.224-.272.208.032.064a1.18 1.18 0 00-.176.592l-.128.16v.288l-.128.144-.032.144-.048.032v.224l-.048.08c0 .128-.01.23-.032.304l.032.08-.144.304.064.096-.112.16.112.304-.176.224.032.304v.048l.064.032.08-.016c.053-.053.107-.101.16-.144l-.032-.128.224-.032.048-.112.944-.768.096-.032.112-.272c.064-.021.155-.064.272-.128l.096-.256h.128l-.048-.272.224-.032a1.64 1.64 0 01.256-.336l.816-1.088.128-.24-.016-.064.112-.176.032-.176.144-.128.016-.176zm4.064-.304l.112-.56a.798.798 0 01.208-.224c.096-.075.235-.112.416-.112l.256.192.432-.08.336.112a.47.47 0 01.272.016.72.72 0 00.256.048c.139 0 .224.005.256.016l.048-.208.416.08c.096.01.176.019.24.024.064.005.117.008.16.008.16 0 .352-.037.576-.112h.064l.368-.16.256.176.4-.08.048.032.064-.032.32.016.032-.128.448.176.352-.032.016-.048.448.08.192.112.24-.064c.139-.01.248.021.328.096.08.075.12.15.12.224l-.048.576-.08.096.128.24v.144l.08.192-.128.208.048.16-.08.528v.08l-.08.24-.096.144.112.128c-.01.01-.016.032-.016.064a.688.688 0 01-.016.128c-.01.053-.005.085.016.096l-.128.384c.043.053.064.101.064.144a.398.398 0 01-.048.176l-.048.08.064.032a.53.53 0 01-.128.336 1.1 1.1 0 01.128.272l-.144.08.016.416-.144.592-.016.112.024.12a.37.37 0 01.008.072v.064l.064.112.016.208a.954.954 0 00-.032.072c-.01.027-.027.061-.048.104-.021.267-.283.4-.784.4l-.032-.24-.128-.144-.096-.224v-.384l-.112-.256.048-.016-.048-.176v-.288l.048-.448-.032-.416.096-.224v-.256a.89.89 0 01.04-.224.902.902 0 00.04-.224l-.096-.208.032-.304-.032-.208.16-.128a.377.377 0 01-.048-.16v-.032l-.08-.224.08-.16-.112-.48.112-.192.128-.48-.656.048-.272-.032-.432.048-.128-.048a.644.644 0 01-.176.016c-.021 0-.085-.01-.192-.032l-.032-.016h-.24l-.248.016a6.86 6.86 0 01-.472.016l-.256.16-.24-.144-.24-.016-.08-.016a1.405 1.405 0 01-.208.032h-.08l-.688.08-.352-.128.016.128.032.192c.01.064.016.128.016.192 0 .235-.037.448-.112.64l.144.224-.16.16v.144l.048.096a.55.55 0 01-.128.352c.064.107.107.192.128.256l-.16.176v.528l-.048.256.08.224-.128.176.112.16-.112.496.064.16-.032.272-.016.176-.064.112.032.128c-.021.16-.155.24-.4.24-.437 0-.656-.277-.656-.832l-.064-.16-.08-.128c0-.085.032-.17.096-.256l.032-.192-.048-.128-.08-.896v-.24l-.032-.032.064-.24.032-.32-.016-.32a1.29 1.29 0 00.08-.464c0-.17-.027-.32-.08-.448l.096.032-.016-.16.096-.24-.096-.416v-.304zm15.392 2.208l-.096.288c0 .277-.016.496-.048.656l-.096.16v.176l-.08.112-.048.224-.176.176-.112.4-.128.048-.064.176-.192.112-.128.272-.192.096-.016.192-.304.112a.91.91 0 01-.512.368l-.064.016c-.15.224-.347.336-.592.336a.701.701 0 01-.368.096l-.16.112-.16.048-.208.16-.208-.016-.224.064-.272-.112-.688-.048-.24-.368-.352-.368.08-.256-.24-.544.112-.208-.08-.384.08-.24a2.598 2.598 0 01-.032-.32c0-.203.053-.352.16-.448.01-.107.08-.283.208-.528h.08l-.032-.112.048-.224v-.24a.824.824 0 00.144-.192l-.048-.224V5.76c.075-.15.112-.304.112-.464l.336-.464.04-.032a.873.873 0 00.072-.064l-.016-.064h.064l.24-.272.016-.368.4-.144c.15-.096.245-.256.288-.48h.208a.68.68 0 01.32-.096.6.6 0 01.272.064l.176.016.416-.16.224.208.176.112h.128l.24.128h.128c.139.128.299.304.48.528l.032.08.112.064.336.432.304.752v.16l.144.56zm-1.056.384l-.016-.08a.411.411 0 01-.128-.24l.048-.08-.144-.304.032-.304-.064-.08c-.139-.107-.213-.192-.224-.256-.096-.043-.144-.15-.144-.32l-.096-.016-.192-.32-.144-.112-.336-.128-.128-.032c-.064 0-.107-.021-.128-.064l-.32.352-.208.448-.336.176-.048.176-.16.08-.064.416-.192.096a1.52 1.52 0 00-.064.416l-.256.24.08.048a.46.46 0 01-.144.336 3.322 3.322 0 01-.128.32v.128l-.048.064.016.192-.176.432.032.08v.448l-.064.224.016.224.144.208.224.08.08.032.128-.064.416.032.064-.16h.064c.064 0 .101.016.112.048l.144-.048.128.048.208-.144.032-.048.144-.032c.075-.117.25-.235.528-.352l.032-.08.32-.224.176-.256.256-.128.016-.08.08-.176v-.208l.192-.16.064-.112.08-.096a1.018 1.018 0 01-.064-.272c0-.096.032-.197.096-.304l.064-.064zm9.392.496l.256.368.176.112.016.176.08.08.032.176c.053.096.099.17.136.224.037.053.067.101.088.144l.144.288.032.176.144.176.048.08-.016.048.032.064-.064.048.08.144a1.39 1.39 0 01-.096.336l-.096.176-.176.176-.272.032-.384-.08-.224-.144a1.472 1.472 0 01-.152-.408 1.996 1.996 0 01-.04-.392.439.439 0 01-.144-.256l-.224-.368-.016-.128-.224-.336-.048-.208-.24-.304-.336-.576-.32-.544-.352-.192c-.032-.021-.061-.067-.088-.136l-.088-.232-.16-.016-.064-.144-.352-.384a.83.83 0 01-.24-.32l-.176.112-.176.208c-.043.053-.09.115-.144.184a2.93 2.93 0 00-.176.264l-.096.08v.048l-.16.064-.016.08-.16.16-.176.192-.096.208-.144.192-.16.256-.384.384c-.032.01-.075.128-.128.352l-.064.08-.048.128-.16.112.032.192-.096.128v.192l-.144.144-.08.176c0 .01-.005.021-.016.032a.125.125 0 00-.024.032.228.228 0 01-.04.048l-.064.368-.112.192v.192a.631.631 0 01-.272.224l-.32.144-.224-.016c-.192 0-.336-.07-.432-.208-.096-.043-.144-.128-.144-.256V9.6c0-.053-.005-.085-.016-.096l.048-.368.16-.16.112-.288.16-.16.16-.272c.043-.043.064-.112.064-.208l.064-.128a.654.654 0 01.256-.352.824.824 0 01.384-.56l.096-.144.336-.352.192-.4.272-.32.16-.288.128-.128-.032-.176.496-.576.384-.384.016-.192.016-.112.128-.16-.064-.448.112-.272a.823.823 0 01.336-.152 1.53 1.53 0 01.32-.056c.107 0 .187.021.24.064.043.032.203.288.48.768l.128.288.176.192.256.304.176.272v.112l.352.384.048.128.16.032.24.4.192.192.16.224c.01.032.032.067.064.104a.7.7 0 00.112.104v.064h.032c.096.085.187.219.272.4l.096.176.08.08zm12.784-1.728l-.176.128.144.288-.544.32h-.064a.398.398 0 01-.176-.048l-.176.128-.24-.016-.272.192-.24-.128-.32.08-.304.16c0-.01-.021-.016-.064-.016-.064 0-.107.021-.128.064l-.128.352c.053.053.08.107.08.16a.298.298 0 01-.064.192l-.032.112.064.016a.597.597 0 01-.04.216c-.027.07-.056.13-.088.184.032.064.056.12.072.168a.504.504 0 00.056.12l-.144.096.016.48-.128.688-.016.144.024.128a.503.503 0 01.008.08v.064l.064.128.016.24a.62.62 0 00-.032.08c-.01.032-.027.075-.048.128a.414.414 0 01-.224.344c-.139.08-.33.125-.576.136l-.032-.304-.112-.16-.08-.24v-.464l-.112-.288.032-.016-.032-.208V8.8l.032-.512-.016-.464.096-.272v-.304c0-.053.01-.12.032-.2a.805.805 0 00.032-.2.458.458 0 00-.08-.24l-.032-.048-.048.032-.192-.048a1.875 1.875 0 01-.496.064h-.144a.223.223 0 01-.096-.016l-.208.176-.432-.064a5.554 5.554 0 00-.224-.024 1.899 1.899 0 00-.144-.008c-.15 0-.325.032-.528.096h-.064l-.352.128-.224-.144-.368.064-.032-.032-.064.032-.288-.016-.032.112-.416-.144-.368.032v.512l-.032.304.064.256-.112.208.096.176-.096.576.064.176-.032.32.144.256-.08.128.032.16c-.021.192-.144.288-.368.288a.585.585 0 01-.48-.248c-.128-.165-.192-.408-.192-.728l-.208-.24-.08-.16a.37.37 0 01.032-.152c.021-.048.043-.093.064-.136l.032-.224-.048-.128-.08-1.04v-.176l-.016-.048-.384-.272.048-.624.416-.256c.021-.075.037-.155.048-.24a2.339 2.339 0 000-.544 2.92 2.92 0 00-.048-.224l.08.048-.016-.192.096-.272-.096-.464v-.304l.112-.464.64-.288.272.192.304.096.048.288.128.176-.128.384a1.1 1.1 0 01.04.216 4.34 4.34 0 01-.008.608c-.01.123-.037.243-.08.36l.128.208-.144.176v.16l.128.048.352-.048.24.032.4-.048.032.048a.303.303 0 01.12-.016h.12c.032 0 .09.01.176.032h.24l.192-.008c.117-.005.25-.008.4-.008l.224-.144.24.128.208.016.064.016c.107-.021.17-.032.192-.032h.08l.992-.144.208.016.08-.048-.08-.224.08-.192-.096-.496.096-.176-.256-.64-.032-.096-.064-.064a.1.1 0 00.024-.04.832.832 0 01.04-.088c0-.01.003-.016.008-.016s.008-.005.008-.016l.016-.016v-.048c0-.064.075-.133.224-.208l.144-.368.496.064.16.096.432-.08v.192l.176-.048v.624l-.08.112.112.272v.16l.064.224-.096.24.032.176-.08.56v.096l.304-.016.576-.112.288.016.176-.016h.32a.256.256 0 01.112-.04 1.1 1.1 0 01.128-.008.409.409 0 01.208.048l.384.048zm2 3.056l.128.496.112-.16.352-.416.496-.24a.595.595 0 01.264-.296c.123-.07.243-.13.36-.184l.928-.848.432-.512.384-.272.016-.08c.021-.085.075-.13.16-.136a.685.685 0 00.208-.04l.32-.48.048-.096.592-.352.624-.832.256-.144.08-.208.224-.112a1.29 1.29 0 01.28-.32 1.57 1.57 0 01.376-.256l.128.144.144-.032c.235.021.347.101.336.24a.336.336 0 01.048.176c0 .053-.027.117-.08.192l-.064.784-.064.128.016.384-.08.464.032.64-.144.256.224.4-.128.384.08.224.08.16-.048.416v.144a.28.28 0 01.016.088v.072l-.048.096-.112.128c.01.021.016.064.016.128a.238.238 0 01-.024.12c-.016.027-.03.05-.04.072l.096.208-.128.224.128.464a.613.613 0 01-.264.432.834.834 0 01-.472.144h-.288a4.248 4.248 0 01-.152-.264.795.795 0 01-.088-.296c0-.043.016-.09.048-.144l-.16-.224.112-.192-.016-.272.048-.304-.144-.48.144-.032a.239.239 0 01-.024-.136 1.47 1.47 0 00.008-.152.32.32 0 01.112-.256l.048-.192-.144-.672.048-.4-.08-.576.128-.144.048-.304.048-.24-.08-.016-.4.544-.304.224-.176.208a2.825 2.825 0 01-.624.624l-.176.256-.256.064-.448.64-.608.496-.256.256-.192.112-.256.224-.384.192-.064.128-1.152.848-.08.016-.112.208a.5.5 0 00-.168.072.49.49 0 01-.184.072l-.08.064h-.016v.112l-.896.224-.16-.208-.24-.176.272-.288-.16-.592.048-.048-.08-.176.32-.16-.24-.304.208-.336-.064-.288.016-.208-.08-.448.128-.16-.128-.512.112-.144-.176-.256.096-.624-.032-.064c-.085-.075-.133-.33-.144-.768l-.016-.048.048-.304-.048-.192a.752.752 0 01.144-.272c.053-.01.08-.043.08-.096a.35.35 0 01.048-.168.292.292 0 00.016-.216l.512-.064.08-.144.8.304-.096.144.176.16-.192.112.176.512-.224.176v.768l-.112.432.144.528-.24.208v.048l.144.208-.016.72-.064.048.112.256-.24.56zM239.92 3.44l-.336.816-.16.048h-.256l-.24.032-.176-.032-.848.064-.256-.064-.048.016c-.085.043-.24.08-.464.112h-.32l-.096-.032h-.048c-.107 0-.24.021-.4.064a2.103 2.103 0 01-.496.048l-.224-.048-.032.16h-.16l-.048.464.064.112-.016.208v.352c0 .363-.037.608-.112.736l.112.16-.096.384.096.112-.16.224v.112l-.08.144.064.304-.048.56-.08.256c.01.01.016.037.016.08 0-.021-.016.037-.048.176 0 .01.005.027.016.048v.064a.516.516 0 01-.096.288l.048.192c0 .075-.005.117-.016.128l-.016.032a.45.45 0 00-.032.176c0 .17.021.315.064.432a2.205 2.205 0 01-.328.04 6.925 6.925 0 01-.2.008.604.604 0 01-.192-.032h-.032c-.235-.064-.352-.283-.352-.656a.733.733 0 00.016-.192c0-.075-.01-.179-.032-.312a2.085 2.085 0 01-.032-.28c0-.096.016-.176.048-.24l.048-.56c-.075-.107-.112-.187-.112-.24 0 .01.01-.027.032-.112a.377.377 0 01-.048-.16c0-.085.021-.144.064-.176 0-.053.037-.165.112-.336a1.348 1.348 0 01-.032-.24c.064 0 .096-.032.096-.096a.189.189 0 00-.024-.08.288.288 0 01-.024-.128l.032.048-.048-.128c0-.181.021-.33.064-.448v-.384l-.064-.288.064-.464-.064-.288.016-.128h-.192l-.16.08h-.096v.048c-.203 0-.39-.016-.56-.048l-.048.112-.528-.176-.704-.016-.448.128a1.854 1.854 0 01-.408-.488c-.09-.165-.136-.285-.136-.36 0-.085.01-.15.032-.192l.304-.272.256.016.912.176.24-.08.688.016.544.064.352-.128.128-.352.544.128.016-.016.032.032.192.24h.048l.192-.064.4.096c.203-.032.36-.059.472-.08.112-.021.184-.032.216-.032.096 0 .213.027.352.08h.16c.053 0 .101-.003.144-.008a.849.849 0 01.096-.008h.096l.464-.064.4.08.048.016.208-.064.288.064.672-.016.304.032h.4zm1.536 4.96l.032.192.064.4.032.192.048.048.224.064h.208l.352-.064h.448l.496-.032.16-.24.144.08.128-.128.144-.08.224-.064.048-.016.064-.224.256-.064.208-.112.176-.272.256-.192.096-.272.16-.144.064-.176-.08-.416-.048-.032-.176-.24-.288-.112c.01 0-.003-.035-.04-.104-.037-.07-.077-.093-.12-.072l-.192-.048-.304-.176-.128.048h-.128a.476.476 0 01-.24.064c-.021 0-.045-.016-.072-.048a.413.413 0 00-.088-.08c-.032.01-.09.027-.176.048a1.346 1.346 0 01-.32.032.586.586 0 00-.176-.008 3.54 3.54 0 01-.128.008c-.043.032-.072.048-.088.048h-.104c-.043 0-.093.03-.152.088a.428.428 0 01-.136.104l-.336-.08-.336.08-.048.48-.032.528-.016.256.144.512-.224.224zm-.976-3.072a1.15 1.15 0 00.016-.256c0-.128-.01-.245-.032-.352l.032-.112-.128-.144a.237.237 0 01.112-.16l-.08-.112a.426.426 0 00.048-.192.52.52 0 00-.112-.288c0-.085.016-.17.048-.256l-.064-.16.08-.176-.256-.544.256-.048v-.032l.56-.288.288.336.032.16.24.176-.016.24c0 .043-.003.093-.008.152a3.976 3.976 0 01-.024.2c.075.075.112.144.112.208 0 .01-.01.048-.032.112l.064.064-.064.256.112.288-.016.112.208.096-.112.208-.096.096-.064.288.048.24.4-.144.4.032.112-.256.448.096.416.016.112-.048.256.128.064-.032.304-.176.432.08.192.016.528.128.096-.016c.085.053.173.107.264.16.09.053.179.123.264.208l.288.032.112.336.064.032.176.256.096.272.112.112-.032.352.032.144a1.33 1.33 0 01-.112.304.651.651 0 00-.064.352l-.144-.112.016.112-.08.128.032.352-.336-.16-.048.192-.08.096a4.379 4.379 0 01-.064.152.393.393 0 01-.08.12l.048.112-.304.096-.016.048-.24.288-.16.288-.128.096-.128.208-.4-.112-.064.096a.561.561 0 01-.16.016h-.176l-.224.224-.048.16a.475.475 0 00-.192.136c-.064.07-.133.104-.208.104l-.272-.096-.432-.128-.304.176-.064.032-.256-.016.048-.032-.432.064-.304.048-.128-.144-.288.032a.693.693 0 01-.544-.448l-.016-.112-.08-.128v-.288l-.096-.16.128-.192a1.059 1.059 0 01-.048-.304c0-.032.005-.053.016-.064v-.56l.064-.16.016-.944.048-.224-.08-.096.144-.432-.048-.16v-.352l.08-.096-.016-.224-.064-.128zm19.632 1.184l-.128.288-.032.608-.112.128c-.032.363-.155.592-.368.688l-.096.048-.784.576-.096.128-.368.432-.256-.032-.128.112-.272.08-.336.368c-.021-.01-.072-.003-.152.024s-.147.019-.2-.024c-.032.053-.072.07-.12.048a.227.227 0 00-.168 0h-.048l-.016.016v.08c0 .032-.008.088-.024.168l-.048.24a5.107 5.107 0 00-.056.344.526.526 0 00-.016.128.65.65 0 00.128.352l-.192.208.208.144c0 .139-.013.277-.04.416a2.962 2.962 0 01-.096.376 1.08 1.08 0 01-.128.272c-.048.07-.104.104-.168.104a.197.197 0 01-.16-.08.99.99 0 01-.12-.2 1.317 1.317 0 01-.088-.256 2.856 2.856 0 01-.048-.248l-.08-.144c-.085-.15-.123-.27-.112-.36.01-.09.016-.168.016-.232l-.16-.448.128-.224-.016-.384-.384.112h-.08a.739.739 0 00-.104.008.982.982 0 01-.136.008l-.384-.048-.08-.064-.544-.08-.24-.112h-.32l-.016-.144-.272-.272-.352-.16-.176-.416-.048-.32-.08-.096-.144-.608V7.52l.032-.48.08-.08-.016-.224-.048-.064-.048-.24.064-.208c.043-.053.056-.123.04-.208-.016-.085-.013-.15.008-.192l.112-.08.224-.56.496-.8.128-.064.112-.176.128-.112-.016-.224.192-.032a2.43 2.43 0 01.432-.256l.08-.08a.992.992 0 01.224-.064c.107-.021.261-.043.464-.064l.368-.064.432-.08h.016v-.08l.064-.24-.08-.448.048-.08.016-.208v-.528l.16-.064.112-.128.272-.144a1.226 1.226 0 01.544.16c.139.192.208.416.208.672v.096l-.048.176-.08.784.048-.064c.043.075.144.112.304.112l.112.112.464.16 1.024.464.128.304.096.112.24.096c.139.128.259.25.36.368.101.117.187.248.256.392.07.144.13.31.184.496.053.187.107.413.16.68l.016.144zm-1.136.096l-.096-.352.064-.112-.112-.224v-.144l-.256-.144-.08-.208-.128-.032-.048-.176-.32-.304-.208-.144-.08.032a2.491 2.491 0 01-.32-.312c-.107-.123-.293-.21-.56-.264-.021 0-.048-.013-.08-.04-.032-.027-.07-.03-.112-.008h-.032l-.048.144-.016.512-.144.416a.369.369 0 01.032.128v.28a.41.41 0 01-.032.152l.032.688h-.144l-.016.048.08.272.048.56h-.048l-.08.4c.064 0 .101-.005.112-.016l-.048.4.096.352-.096.368v.128l.224-.144.208-.016.272-.128.08-.096a.223.223 0 01.096-.016h.096l.016-.048a.23.23 0 01.112-.104 7.18 7.18 0 00.144-.056l.144-.352.096.064.096-.064.16-.16.08.032.192-.16.224-.384.192-.048.064-.192.096-.064-.048-.288.096-.176zm-3.568-2.288v-.096l-.096.032-.176.064-.256.176-.144.192a.858.858 0 01-.304.112.995.995 0 00-.336.128l-.048.08-.048.288-.288.128-.112.08c-.021.043-.024.107-.008.192s.003.155-.04.208v.208l-.176.08-.032.032-.032.384-.08.208c.01.224-.01.405-.064.544a.56.56 0 000 .416.171.171 0 00-.008.168.52.52 0 01.04.216l.048.144.048.08.048.192.176.16.032.176.128.128c.128.075.245.125.352.152.107.027.208.045.304.056l.528-.128.128.112.16.08.016-.032.128-.048v-.128c0-.043.005-.09.016-.144l-.016-.224-.048-.528.032-.096-.016-1.136.112-.96-.032-1.008.048-.096-.08-.128.096-.464zm11.536 1.936l-.096.288c0 .277-.016.496-.048.656l-.096.16v.176l-.08.112-.048.224-.176.176-.112.4-.128.048-.064.176-.192.112-.128.272-.192.096-.016.192-.304.112a.91.91 0 01-.512.368l-.064.016c-.15.224-.347.336-.592.336a.701.701 0 01-.368.096l-.16.112-.16.048-.208.16-.208-.016-.224.064-.272-.112-.688-.048-.24-.368-.352-.368.08-.256-.24-.544.112-.208-.08-.384.08-.24a2.598 2.598 0 01-.032-.32c0-.203.053-.352.16-.448.01-.107.08-.283.208-.528h.08l-.032-.112.048-.224v-.24a.824.824 0 00.144-.192l-.048-.224V5.76c.075-.15.112-.304.112-.464l.336-.464.04-.032a.873.873 0 00.072-.064l-.016-.064h.064l.24-.272.016-.368.4-.144c.15-.096.245-.256.288-.48h.208a.68.68 0 01.32-.096.6.6 0 01.272.064l.176.016.416-.16.224.208.176.112h.128l.24.128h.128c.139.128.299.304.48.528l.032.08.112.064.336.432.304.752v.16l.144.56zm-1.056.384l-.016-.08a.411.411 0 01-.128-.24l.048-.08-.144-.304.032-.304-.064-.08c-.139-.107-.213-.192-.224-.256-.096-.043-.144-.15-.144-.32l-.096-.016-.192-.32-.144-.112-.336-.128-.128-.032c-.064 0-.107-.021-.128-.064l-.32.352-.208.448-.336.176-.048.176-.16.08-.064.416-.192.096a1.52 1.52 0 00-.064.416l-.256.24.08.048a.46.46 0 01-.144.336 3.322 3.322 0 01-.128.32v.128l-.048.064.016.192-.176.432.032.08v.448l-.064.224.016.224.144.208.224.08.08.032.128-.064.416.032.064-.16h.064c.064 0 .101.016.112.048l.144-.048.128.048.208-.144.032-.048.144-.032c.075-.117.25-.235.528-.352l.032-.08.32-.224.176-.256.256-.128.016-.08.08-.176v-.208l.192-.16.064-.112.08-.096a1.018 1.018 0 01-.064-.272c0-.096.032-.197.096-.304l.064-.064zm8.448.992l-.192.48.128.32-.064.096-.064.256-.128.224-.064.032-.032.304-.288.032a2.22 2.22 0 01-.464.336l-.096-.016-.24.08-.144.016-.304.112-.352-.16-.048-.032-.272.016.064.032-.448-.064-.4.096-.16-.144-.336.032-.128-.096c-.01 0-.053.005-.128.016v.096a.906.906 0 01-.048.288l.048.304-.128.16c.021.235.032.41.032.528l-.048.4.064.608-.128.16.064.24-.048.16.096.048v.24a.508.508 0 01.032.144c0 .096-.059.176-.176.24l.064.224-.08.128-.032.64c-.032.747-.197 1.12-.496 1.12-.064 0-.25-.043-.56-.128l.048-.48-.096-.704.16-.288.016-.352-.064-.48.128-.208-.144-.368.112-.192-.096-.32.128-.288a.417.417 0 00-.12-.176c-.059-.053-.088-.09-.088-.112 0-.032.037-.064.112-.096a.561.561 0 01-.016-.16c0-.139.032-.32.096-.544l-.096-.16.048-.208-.112-.144.144-.176-.064-.464.096-.656-.112-.208.176-.304-.192-.176.112-.304-.112-.08.016-.272.096-.336V6.88l.016-.064V6.64l.016-.064-.08-.256.08-.272-.08-.208.064-.24-.064-.064.048-.32-.048-.176.032-.16-.048-.112-.576.256v-.096l-.112.016-.176.16h-.144l-.192.256-.16-.064-.08.16c-.523-.31-.784-.555-.784-.736a.41.41 0 01.144-.32l-.016-.24c.299-.17.581-.261.848-.272l.112-.112.512-.208.112-.112.448.032.08-.032.144-.56.384.08.256.416.144-.144.288.208c.139 0 .272.027.4.08l.08.144.112-.048.128.096a.76.76 0 01.176.016l-.016.096.352-.112.176.192.304.096.208.256.384.24.016.032.304.096v.096c.085.064.15.15.192.256l.128.08.096.176h.192v.32l.112.112.032.112.16.032c.021.245.09.453.208.624v.112l.16.16-.032.256.128.288.048.336.112.032zm-1.2.24l-.016-.08.016-.064-.096-.288.064-.144-.064-.128-.016-.16-.128-.256-.064-.176-.24-.416L272.4 6l-.112-.272-.144-.064-.256-.336-.256.032-.192-.256-.16.032-.112-.208-.064-.016h-.224l-.16.08-.128-.128-.16.032-.064-.112-.288-.048.016.192-.032.304.064.176.224.208-.176.384.016.24-.08.48c.032.203.096.373.192.512l-.064.176c.01.01.016.021.016.032 0 .032-.043.08-.128.144l.112.144-.08.192-.032.208.048.224-.016.208h.336a.4.4 0 01.176-.032c.096 0 .181.032.256.096.01 0 .032-.005.064-.016h.048c.032 0 .09.01.176.032a.398.398 0 01.176-.048c.085 0 .165.021.24.064h.144l.128.032.32-.096.256.16c.096.032.133.048.112.048l.304-.304.032-.224.08-.032-.048-.128.112-.128.064-.112zm8.08-.896l.32-.368.016-.032a.228.228 0 01.048-.04.781.781 0 00.064-.04.135.135 0 01.064-.056c.032-.016.075-.04.128-.072a.879.879 0 01.336-.32l.048-.08V5.84c.224-.277.405-.437.544-.48 0-.139.144-.272.432-.4l.24-.336.08-.24h.16a.62.62 0 01.096-.232c.043-.059.085-.12.128-.184l-.032-.096-.144-.272.208-.288.128-.352h.256c.043 0 .08-.005.112-.016.085 0 .23.043.432.128l.016.112.192.128.016.112.144.096-.08.08c.16.053.24.128.24.224a.234.234 0 01-.048.144v.224l.192.24-.096.08-.016.064.032.016.064.208.208.16-.176.192-.08.304.112.224-.032.304.16.416c.032.085.053.168.064.248.01.08.016.147.016.2 0 .064-.037.15-.112.256.064.053.096.107.096.16 0 .075-.032.16-.096.256l.064.048-.048.768.176.432v.464c.021.043.045.085.072.128a.92.92 0 01.072.144 7.153 7.153 0 01.336.32c.117.117.181.219.192.304-.053.139-.256.267-.608.384l-.496-.288-.464-.48-.16-.32-.048-.256-.064-.144a1.732 1.732 0 01-.192-.784c0-.032.003-.064.008-.096a1.46 1.46 0 01.024-.112l.032-.032.048-.256-.192-.304.064-.176-.048-.208.032-.192a.585.585 0 01-.04-.152 1.234 1.234 0 01-.008-.136v-.08a1.91 1.91 0 00-.08-.496v-.384l-.048-.24.048-.384-.192.192-.384.608-.384.432-.144.272-.432.464-.464.32-.048.272-.288.096-.048.144-.336.16-.112.256-.24.08-.272.448-.176.096-.048.256a2.17 2.17 0 01-.216.08.787.787 0 01-.232.032h-.08l-.128-.272-.208-.272.016-.144-.128-.192.064-.096-.016-.016-.064-.224-.112-.08a3.416 3.416 0 01-.416-.48l-.08-.256-.128-.16-.272-.48-.272-.304-.096-.16-.256-.272-.256-.448a.506.506 0 00-.064.216c0 .059-.005.168-.016.328l-.272.416.08.304-.144.304-.304.848-.128.288-.032.176-.256.448-.208.304.032.272a.704.704 0 01-.112.24 4.686 4.686 0 00-.16.24l.112.336c-.32.267-.544.4-.672.4-.192 0-.32-.07-.384-.208a.825.825 0 01-.088-.104.348.348 0 01-.056-.136v-.064c.192-.683.32-1.024.384-1.024.01 0 .016.005.016.016V8.72c0-.235.101-.416.304-.544v-.08l.08-.272-.016-.096c0-.021.013-.064.04-.128l.104-.256.08-.064v-.368l.16-.24.224-.688-.064-.416.192-.16v-.032l.016-.544.064-.224a.504.504 0 00.048-.192v-.064l-.272-.432.08-.272.112-.016.112-.144-.016-.112.224-.16.112.048.208-.128.208.016.384.24v.096l.144.08.176.32-.016.176.016.096c.032.021.067.043.104.064a.701.701 0 01.136.112l.016.192.16.128.096.272.672.576.144.336.224.112.256.544.464.72.064.192h.08l.112-.224.336-.208zm14.736-4.24l-.096.272.144.304-.176.144-.064.336-.112.112-.08.352h-.048a.524.524 0 01-.272.352l-.144.512-.144.224a1 1 0 01.016.208l-.256.224-.368.848-.432.496v.16c0 .15-.085.277-.256.384l-.032.288-.112.064-.192.256-.048.176-.144.08c0 .021.003.048.008.08s.013.075.024.128l-.176.144-.288.176-.096.16-.32.336c-.245.405-.485.667-.72.784l-.384.56-.304.128-.112.176h-.08l-.112.096-.064.208-.272.112-.08.144-.352.16h-.064c-.224.277-.352.421-.384.432a.496.496 0 01-.096.032 2.08 2.08 0 01-.192.032.282.282 0 01-.208.144l-.016.032-.304.288-.176-.016-.096.128-.272.064-.368.176-.624.016-.544-.208.032-.24c.01-.139.096-.224.256-.256.053-.021.123-.056.208-.104.085-.048.187-.11.304-.184l.224.016.128-.192c.053 0 .096.027.128.08.117-.181.256-.272.416-.272h.048a.85.85 0 01.384-.24c.085-.107.224-.192.416-.256l.032-.016.08.096.032-.304.32-.208.176-.192c.075-.107.133-.16.176-.16.021.021.032.037.032.048l.096-.176.368-.368a.455.455 0 01.08-.096l-.624-.72-.032-.192-.096-.064-.016-.384-.176-.176v-.4l-.416-.928.032-.16-.128-.224-.032-.176-.08-.112-.112-.288-.288-.224-.128-.528-.224-.192-.032-.24c-.256-.075-.384-.293-.384-.656 0-.31.23-.55.688-.72.587.395.933.79 1.04 1.184l.048.368a.528.528 0 01.088-.032 2.4 2.4 0 01.136-.032v.144l.256.192-.096.256.032.192.144.384.08.08.016.144.128.064v.272l.176.624.032.24.256.512.208.624.24.256h.032c.043 0 .08-.043.112-.128l.128-.048-.048-.128c.032-.064.07-.096.112-.096.021 0 .053-.024.096-.072.043-.048.075-.061.096-.04l.016-.256c.021 0 .059-.032.112-.096a.862.862 0 01.208-.176l.208-.304.128-.32.16-.128.096-.208.064-.048-.032-.208.176-.08.032-.08c0-.032.027-.09.08-.176l.112-.288.08.096.064-.032V6.24a.44.44 0 01.176-.352v-.032l.112-.208.08-.352.112-.032.208-.496.144-.192a.574.574 0 01.224-.368l.144-.448.112-.144V3.28h.08a.689.689 0 00.176-.176 3.794 3.794 0 00.256-.408.567.567 0 01.08-.12l.08-.048.448-.272.352.48zm11.328 4.512l.224.272.048.288.08.16-.08.64-.224.24-.08.256-.288.128v.112l-.24.048-.16.208a2.156 2.156 0 01-.296.096c-.123.032-.259.07-.408.112l-.184.152a.434.434 0 01-.232.088c-.085.043-.19.096-.312.16a1.705 1.705 0 01-.376.144l-.16-.048-.608.16-.304-.016-.24-.048-.208.048-.352.048h-.224l-.128-.064a.105.105 0 01-.048.048c-.043.021-.075.016-.096-.016l-.08-.096c-.021.01-.04.035-.056.072a.122.122 0 01-.088.072.79.79 0 01-.24-.048l-.112.032a.333.333 0 01-.128-.016c-.01.01-.021.003-.032-.024-.01-.027-.027-.04-.048-.04a.448.448 0 01-.224-.064l-.224.112-.16-.24-.096.08-.16-.08c-.043.043-.08.064-.112.064h-.112c-.075 0-.144-.053-.208-.16a.725.725 0 01-.288-.24c-.064-.096-.096-.267-.096-.512 0-.31.139-.48.416-.512.053-.021.085-.053.096-.096.01-.043.048-.075.112-.096l.224-.048.4-.064c.31.128.464.267.464.416a.336.336 0 01-.112.24c.032 0 .09.016.176.048l.256-.048c.107 0 .213.037.32.112a.35.35 0 01.232.016c.08.032.163.048.248.048h.272c.096-.064.165-.096.208-.096.053 0 .123.021.208.064a.545.545 0 01.144-.064l.144-.032.256.16.032-.064.288-.048h.176l.256-.176a1.921 1.921 0 01.288.016c.032 0 .085-.024.16-.072a5.2 5.2 0 00.224-.152h.144l.032-.08.24-.16.048-.096a.468.468 0 00.224-.16c.043-.064.08-.117.112-.16.053-.085.077-.157.072-.216a.595.595 0 00-.04-.168c-.021-.021-.043-.032-.064-.032a.962.962 0 01-.16-.032l-.24-.192-.288-.048-.256.08-.096-.144-.128.032-.144-.16-.064.048a2.464 2.464 0 00-.256-.048 1.764 1.764 0 00-.24.064c-.043-.01-.096-.059-.16-.144l-.064.048a1.625 1.625 0 01-.232.048l-.264.032-.08-.096-.336-.048-.112-.112-.176.016-.304-.144-.256-.288-.08-.32.144-.32.272-.176a.74.74 0 01.296-.12c.101-.016.2-.035.296-.056l.192-.144.64-.192.128-.096.256.048.128-.16.096.064a.79.79 0 01.592-.272l.128-.112.032-.032a.767.767 0 01.088-.08 3.45 3.45 0 01.136-.08c.064-.107.083-.168.056-.184a1.513 1.513 0 01-.184-.168.724.724 0 00-.176-.152c-.075-.048-.219-.099-.432-.152l-.208.032a2.577 2.577 0 00-.384-.048 1.378 1.378 0 00-.304.032h-.144l-.256.064-.24-.064-.112.128-.544.032-.32.112c-.085.096-.17.144-.256.144a.302.302 0 01-.096-.016 2.453 2.453 0 01-.128-.048.314.314 0 01-.032.072.523.523 0 00-.032.056h-.08c-.064 0-.13.005-.2.016-.07.01-.141.075-.216.192a.333.333 0 01-.128-.016l-.08.24-.528-.4-.144-.16.048-.096h-.096a.424.424 0 01-.064-.208v-.096l.08-.288.08-.08a1.83 1.83 0 01.128-.088.266.266 0 01.144-.04h.064l.096-.144.224.064a.44.44 0 01.184-.112.68.68 0 01.2-.032h.064c0-.043.032-.107.096-.192h.272l.112-.064.224-.032.192.176-.016-.144h.208l.192-.048.464-.096.16.016c.192-.053.384-.08.576-.08h.176l-.048.048h.064c.075 0 .144.016.208.048l.144-.048.304.032h.184c.09 0 .163-.005.216-.016h.112v.096l.32.112.384.096.176.256.272.208c.096.128.17.253.224.376.053.123.064.29.032.504l-.08.32v.032c-.021.053-.07.15-.144.288a.954.954 0 01-.528.432l-.128.128-.352.144-.304.064-.208.16-.56.064-.224.112h-.272l-.32.112.336.112h.384l.176-.016h.416c.15 0 .256.037.32.112.085.021.173.04.264.056.09.016.195.024.312.024l.096.08c.01 0 .021-.005.032-.016a.427.427 0 00.144.016l.32.032.208.176h.16l.336.256zm6.32-4.275c0-.031.006-.068.016-.109V2.8l.336.304.304.064.576-.144.208.4.24.096-.16.208.128.384-.208.24-.08.336-.048.08.032.08c0 .15-.037.261-.112.336l-.032.048v.064a.531.531 0 01.048.208c0 .053-.005.09-.016.112l.016.064-.064.176.048.192-.128.128.048.224.096.112-.144.128v.256l-.112.256.08.256-.096.128.16.112-.224.368-.016.048.16.032-.112.368v.064a.76.76 0 01-.016.176l.016.048.256.032.208.32-.112.24.176-.016c.064.128.101.24.112.336l-.24.24a1.35 1.35 0 01-.32.224l-.272.144-.08-.08-.16.096-.496-.576V9.44a2.07 2.07 0 01-.096-.592v-.096l-.096-.944.128-.672-.096-.384-.272.448-.144.416-.128.064-.224.352-.4.368-.112.192-.352.304-.08.208-.512.32-.544.608-.304.064-.208.16c-.267-.01-.47-.112-.608-.304-.48-.235-.73-.57-.752-1.008l.08-.048-.016-.096-.016-.192-.096-.208.096-.224.032-.336.112-.528v-.064a.142.142 0 01-.016-.064c0-.043.01-.096.032-.16a.333.333 0 01-.016-.128c0-.075.032-.197.096-.368l.112-.048c-.064-.053-.096-.112-.096-.176 0-.043.005-.075.016-.096a.355.355 0 01-.016-.112c0-.128.064-.224.192-.288a.958.958 0 01.176-.32l-.08-.128.192-.24v-.064c0-.203.07-.39.208-.56l-.016-.288.064-.064v-.048a.123.123 0 01-.016-.048c0-.064.021-.117.064-.16v-.096c.043-.107.155-.267.336-.48.181-.213.315-.4.4-.56l.08.08.176-.08.08-.032.528-.24 1.232.064v.112l.384.08c.245 0 .405.08.48.24v-.003zm.16 1.379l-.064-.112-.128-.032-.496-.4-.32-.048h-.256l-.032-.032-.128.048-.144-.08h-.416l.048.064-.368.128-.064.08-.048.016c-.192.16-.325.293-.4.4l-.112.384-.064.144.16.224-.272.208.032.064a1.18 1.18 0 00-.176.592l-.128.16v.288l-.128.144-.032.144-.048.032v.224l-.048.08c0 .128-.01.23-.032.304l.032.08-.144.304.064.096-.112.16.112.304-.176.224.032.304v.048l.064.032.08-.016c.053-.053.107-.101.16-.144l-.032-.128.224-.032.048-.112.944-.768.096-.032.112-.272c.064-.021.155-.064.272-.128l.096-.256h.128l-.048-.272.224-.032a1.64 1.64 0 01.256-.336l.816-1.088.128-.24-.016-.064.112-.176.032-.176.144-.128.016-.176zm4.208 6.544a8.52 8.52 0 01-.72-.032 4.185 4.185 0 01-.336-.04c-.096-.016-.155-.035-.176-.056-.032-.032-.048-.053-.048-.064v-.032c-.117-.021-.101-.304.048-.848l.048-.032-.016-.224.192-.224.112-.272.336-.208.016-.048.08-.336a.496.496 0 01.12-.016.145.145 0 00.104-.048l.016-.336h.288l.048-.08.208-.016.4-.384h.144l.224-.144.384-.144.08-.112.224-.016.032-.016a.507.507 0 01.24-.104l.32-.072c-.043-.021-.07-.043-.08-.064l-.064-.016-.16-.096h-.272l-.176-.096a.323.323 0 01-.208-.064 2.438 2.438 0 01-.192-.176 2.875 2.875 0 01-.376-.112.588.588 0 01-.248-.16.292.292 0 01-.224-.192L318.304 6a2.765 2.765 0 00-.152-.056l-.12-.04v-.176l-.256-.208-.128-.432.256-.432v-.208l.512-.288.176-.256h.24l.144-.112.112-.272.272.048a.879.879 0 01.496-.176l.064-.096.304-.032.304-.176h.288l.048-.08.416-.016.352-.144.192.048.208-.144.416-.096.416-.032h.544c.053-.021.099-.037.136-.048a.435.435 0 01.12-.016c.064 0 .107.005.128.016l.032-.032.288.08-.048-.032.096-.016h.016c.01 0 .027-.005.048-.016h.112l.288.072c.107.027.21.056.312.088a.951.951 0 01.256.12.33.33 0 01.136.184l.144.16c0 .224-.053.405-.16.544l-.144.352-.368-.176-.288-.048-.24-.128h-.336v-.08l-.16.096-.208-.112-.032.032-.288-.064-.256.08-.256-.032-.32.048c-.15.075-.261.112-.336.112a.178.178 0 01-.08-.016h-.048l-.192.112h-.208l-.208.112-.16-.016-.336.224-.208-.128a13.5 13.5 0 00-.296.136 3.05 3.05 0 00-.328.184l-.352.192-.256.208-.112.032-.096.128-.08.176.016.112.096.064.016.064c.107.053.17.096.192.128.01-.043.027-.064.048-.064.032 0 .07.021.112.064l.128.224a.333.333 0 00.128-.016l.096.128.192.08.016.064.144-.016c.16.128.336.192.528.192h.096l.016.016h.112l.208.144.016.016a1.4 1.4 0 00.296.096c.07.01.13.027.184.048a.394.394 0 00.176-.128l.192.176a.111.111 0 00.048-.008c.01-.005.027-.003.048.008l.032-.048.288.256c.043.16.059.336.048.528l.048.16a.938.938 0 01-.168.24.384.384 0 01-.12.08.125.125 0 01-.088 0 .954.954 0 01-.072-.032.213.213 0 00-.072-.048.279.279 0 01-.088-.064l-.016-.032-.08-.064-.16.016c-.075-.01-.115-.032-.12-.064-.005-.032-.024-.048-.056-.048l-.16-.032-.256.128-.224.144-.416.048-.192.112-.304.192-.304.16-.256.208-.16.128-.016.208-.16-.08-.16.192-.064-.08-.16.144-.304.384-.16.112-.24.464c.021 0 .021.037 0 .112a3.896 3.896 0 00-.12.6.731.731 0 00.024.328zm6.16-2.704l-.096.32.144.432-.016.288.064.128c.224.032.336.144.336.336a.404.404 0 01-.096.272c-.064.075-.197.139-.4.192l-.448.112-.496-.48-.208-.528v-.48l-.224-.336.16-.128-.048-.176.224-.88-.192-.304.08-.16.064-.544.08-.08-.016-.48.048-.208.032-.704.176-.288.032-.032-.016-.032a.34.34 0 01.096-.152 1.7 1.7 0 01.16-.12h.464c.235 0 .392.032.472.096.08.064.12.165.12.304 0 .107-.075.267-.224.48v.048c0 .075.019.141.056.2.037.059.093.13.168.216l-.24.048-.016.32-.192.128.064.176-.128.192.064.24-.064.128-.16.928.176.528zm5.024.24l.032.176-.112.24.016.08.048.016.032.224.32.048.32-.112.288-.016a.48.48 0 00.136.072.245.245 0 00.104-.008l.256-.128.4.016.416-.128.352-.144.208.016.192-.16.176-.032c.064 0 .139-.008.224-.024.085-.016.17-.035.256-.056.085-.021.165-.05.24-.088a.516.516 0 00.176-.136l.128-.16.32-.096.096-.176.08-.08-.048-.032-.24-.032-.048-.08h-.08l-.336-.144-.272.032-.128-.112-.304.032a.363.363 0 00-.192-.112.458.458 0 01-.24.08 1.088 1.088 0 01-.24-.096 1.47 1.47 0 01-.184-.008 7.599 7.599 0 00-.2-.024l-.176-.016a.37.37 0 00-.216 0 .534.534 0 01-.184.032.395.395 0 01-.12-.024.292.292 0 00-.152-.008l-.32.032-.224-.16-.016.096-.48-.016-.16-.064c-.17 0-.256.08-.256.24v.288l.08.048-.08.224.032.096-.032.208.112.176zm6.032-.368l-.256.224-.064.192-.176.032-.192.288-.336.064-.288.208-.112.048-.224.24-.368-.032-.16.128-.208-.032a2.844 2.844 0 00-.24.176.602.602 0 01-.288.112l-.112-.064-.416.304-.16-.08-.112.064-.256-.064-.096.064-.272.032-.208-.048-.256.224-.304-.032v.016a.78.78 0 01-.176.064l-.08-.096a.765.765 0 01-.48.16h-.08a.263.263 0 00-.08-.016l-.24.256-.272.08-.24-.128-.176-.144-.128-.144-.096-.08v-.112c0-.053-.048-.203-.144-.448l.016-.272-.032-.32.08-.24-.048-.32.112-.224-.064-.192.048-.32-.112-.352-.016-.048c-.32-.17-.501-.325-.544-.464.021-.117.07-.195.144-.232a3.27 3.27 0 00.288-.168l.16-.096-.096-.272.112-.048-.064-.224.048-.208-.08-.224.032-.112-.016-.192-.176-.352.032-.144-.08-.064.032-.192-.08-.112-.096-.208-.016-.016-.16.128-.16-.096-.16.096-.048-.064-.256.16-.144-.224-.288.176c-.49-.277-.736-.528-.736-.752 0-.192.101-.304.304-.336.107-.16.25-.24.432-.24h.048l.16.064h.032c.213 0 .4.003.56.008.16.005.288.019.384.04.085-.021.163-.035.232-.04a2.61 2.61 0 01.2-.008l.08.048.096-.032.416.16.368.096a.93.93 0 01.224-.016c.064 0 .117.003.16.008s.08.013.112.024l.16-.032c.139.01.272.053.4.128l.112.064c.17.043.304.064.4.064l.352-.064.064.08a.44.44 0 01.336.16h.432l.176.176c.064.021.123.037.176.048.053.01.101.016.144.016l.288.096.128.112h.336l.08.208.304.192.112.448-.24.432a2.18 2.18 0 01-.32.272 1.089 1.089 0 01-.32.144l-.24.144-.112-.032-.288.24h-.176l-.416.176-.288.032a5.63 5.63 0 00-.248.104c-.059.027-.117.05-.176.072a4.043 4.043 0 01-.192.064c-.07.021-.168.053-.296.096v.032c.021 0 .08-.005.176-.016l.312-.032c.112-.01.216-.021.312-.032.096-.01.16-.016.192-.016.117-.021.24-.043.368-.064.128-.021.213-.005.256.048a.516.516 0 01.224-.064c.181.053.293.08.336.08h.128c.043 0 .096-.01.16-.032.064.032.155.05.272.056.117.005.267.008.448.008l.128.08c.128.021.245.035.352.04a.72.72 0 01.288.072h.24c.053.053.136.09.248.112.112.021.2.059.264.112l.136.088c.059.037.13.099.216.184.15.128.224.261.224.4l-.016.176-.096.288zm-3.088-3.392h-.16l-.144-.08-.208-.048-.16.112-.304-.224-.24-.064-.096.048-.128-.144h-.064c-.107 0-.272-.016-.496-.048l-.336.048-.176-.16-.16.032-.048-.016-.096.064-.272-.096-.064.032v.352l.096.272-.08.224.08.176-.016.304.08.24-.096.24.048.16.224-.016c.021-.01.053-.024.096-.04a.315.315 0 00.128-.104l.064-.032.096.064.048-.112.4-.208c.15-.043.253-.07.312-.08a.25.25 0 00.152-.096l.224-.064.08-.016c.139-.085.299-.139.48-.16l.064-.048c.021 0 .064-.021.128-.064l.24-.128h.032c.053-.043.11-.083.168-.12a.758.758 0 01.2-.088l-.096-.112zm11.632-.96l.064.032-.016.08-.032.112-.064.064-.08.224-.144.064-.112.304-.176.208a.44.44 0 01-.176.192 1.173 1.173 0 01-.208.096.186.186 0 00-.032.048.954.954 0 00-.032.072.954.954 0 01-.032.072l-.32.064a.699.699 0 01-.16.192v.08l-.272.096-.288.272-.32.24a8.904 8.904 0 01-.208.12 3.69 3.69 0 01-.248.128c-.08.037-.152.067-.216.088-.064.021-.096.027-.096.016-.15.075-.31.136-.48.184l-.528.152-.512.064-.016.08.608.304.768.336.032.112.288.08.352.208.416.224.24.192.24.064.368.176.464.144.336.032.64-.08h.256l.048-.032a.37.37 0 01.272-.112l.16-.08v-.032l.24-.256.096-.08V8.16a.372.372 0 01.136-.048h.136c.021 0 .059-.019.112-.056.053-.037.09-.045.112-.024l.208.112.144.256.048.304-.144.24-.4.496-.32.24-.4.208-.416.144-.384.08-.112-.032-.176.048-.256-.032-.304.048-.08-.048-.048.016-.224-.032h-.32l-.208-.192-.336-.064-.064-.096-.112.032-.304-.272-.288-.096-.144-.176h-.448l-.096-.176h-.128l-.08-.128-.224-.08-.032.016-.256-.272-.224-.16-.256-.24-.256-.16a2.904 2.904 0 00-.2-.144l-.296-.192a.373.373 0 00-.16-.176l.064.4.064.016.048.128-.128.528c.043.053.08.16.112.32l-.096.144-.016.176-.016.288-.112.24-.048.288-.224.352-.352.544c-.373 0-.581-.128-.624-.384l.112-.336.064-.24.016-.032.032-.08a3.094 3.094 0 00-.056-.104.262.262 0 01-.04-.12c0-.064.021-.123.064-.176l-.064-.064.24-.272-.128-.208.064-.144a.623.623 0 01-.08-.224.62.62 0 01.064-.24l.032-.08c-.01-.107-.019-.195-.024-.264a2.218 2.218 0 01-.008-.152c-.043-.053-.064-.15-.064-.288l.048-.048-.096-.24.128-.112-.032-.032v-.352l-.08-.432.128-.08a.93.93 0 01-.016-.224v-.224h-.032l-.08-.832c.01-.032.064-.096.16-.192a.46.46 0 01.016-.16l.032-.096.016-.08a1.031 1.031 0 01-.128-.448c0-.192.07-.39.208-.592.117-.032.216-.053.296-.064.08-.01.141-.016.184-.016.075 0 .141.008.2.024.059.016.136.045.232.088l.368.368-.064.304.16.144-.096.176.064.192-.208.272.096.368-.128.336-.112.608.208-.016.096-.064.336-.096.176-.032.384-.112v-.048l.24-.064a.701.701 0 01.368-.176L340 5.552c0-.053.128-.09.384-.112l.336-.144.128-.192.192-.08.032-.16h.128v-.048l.224-.048.144-.24h.128c.021-.085.059-.136.112-.152.053-.016.123-.04.208-.072l.08-.112.032-.16.24-.064a.756.756 0 01.256-.368l.08.08.08-.272h.192c.032-.288.208-.432.528-.432.01 0 .117.133.32.4l-.096.336zm4.384 4.752l.128.496.112-.16.352-.416.496-.24a.595.595 0 01.264-.296c.123-.07.243-.13.36-.184l.928-.848.432-.512.384-.272.016-.08c.021-.085.075-.13.16-.136a.685.685 0 00.208-.04l.32-.48.048-.096.592-.352.624-.832.256-.144.08-.208.224-.112a1.29 1.29 0 01.28-.32 1.57 1.57 0 01.376-.256l.128.144.144-.032c.235.021.347.101.336.24a.336.336 0 01.048.176c0 .053-.027.117-.08.192l-.064.784-.064.128.016.384-.08.464.032.64-.144.256.224.4-.128.384.08.224.08.16-.048.416v.144a.28.28 0 01.016.088v.072l-.048.096-.112.128c.01.021.016.064.016.128a.238.238 0 01-.024.12c-.016.027-.03.05-.04.072l.096.208-.128.224.128.464a.613.613 0 01-.264.432.834.834 0 01-.472.144h-.288a4.248 4.248 0 01-.152-.264.795.795 0 01-.088-.296c0-.043.016-.09.048-.144l-.16-.224.112-.192-.016-.272.048-.304-.144-.48.144-.032a.239.239 0 01-.024-.136 1.47 1.47 0 00.008-.152.32.32 0 01.112-.256l.048-.192-.144-.672.048-.4-.08-.576.128-.144.048-.304.048-.24-.08-.016-.4.544-.304.224-.176.208a2.825 2.825 0 01-.624.624l-.176.256-.256.064-.448.64-.608.496-.256.256-.192.112-.256.224-.384.192-.064.128-1.152.848-.08.016-.112.208a.5.5 0 00-.168.072.49.49 0 01-.184.072l-.08.064h-.016v.112l-.896.224-.16-.208-.24-.176.272-.288-.16-.592.048-.048-.08-.176.32-.16-.24-.304.208-.336-.064-.288.016-.208-.08-.448.128-.16-.128-.512.112-.144-.176-.256.096-.624-.032-.064c-.085-.075-.133-.33-.144-.768l-.016-.048.048-.304-.048-.192a.752.752 0 01.144-.272c.053-.01.08-.043.08-.096a.35.35 0 01.048-.168.292.292 0 00.016-.216l.512-.064.08-.144.8.304-.096.144.176.16-.192.112.176.512-.224.176v.768l-.112.432.144.528-.24.208v.048l.144.208-.016.72-.064.048.112.256-.24.56z" fill="#FFF"/></svg>