<svg width="235" height="16" xmlns="http://www.w3.org/2000/svg"><path d="M11.656 7.36l-.064.192-.064.32-.288.24-.064.208-.192.048-.208.304-.368.08-.32.224-.464.048-.24.256-.416-.032-.176.144-.224-.032c-.213.15-.464.25-.752.304L7.704 9.6l-.464.336-.176-.096-.112.08-.288-.064-.112.064-.288.032-.224-.048-.288.24L5.416 10v.016a.546.546 0 01-.176.08l-.096-.112a.83.83 0 01-.528.176h-.08a.438.438 0 00-.096-.016l-.256.272-.304.096-.256-.144-.064-.288-.352.112c.021-.021.032-.037.032-.048v-.048a.142.142 0 01-.016-.064c0-.032.021-.053.064-.064l-.256-.512.016-.288-.032-.352.08-.256-.048-.352.112-.256-.064-.208.048-.352c-.032-.117-.07-.245-.112-.384l-.016-.224c-.352-.181-.55-.352-.592-.512.053-.256.208-.459.464-.608.01-.01.07-.048.176-.112L2.952 5.2l.128-.048-.064-.24.048-.064-.096-.24.048-.128L3 4.112l-.192-.384.032-.16-.096-.064.032-.368-.08-.128-.112-.384-.016-.016-.176.144-.16-.112-.176.112-.064-.08-.272.176-.16-.24-.32.192c-.533-.31-.8-.581-.8-.816 0-.213.112-.341.336-.384a.515.515 0 01.464-.256h.064l.176.08.032-.016c.47 0 .81.021 1.024.064.181-.043.341-.064.48-.064l.08.064.112-.032.448.16.928.112c.053-.01.133-.016.24-.016.139 0 .24.01.304.032l.176-.032c.181.021.325.07.432.144l.128.064c.213.043.357.064.432.064l.384-.064.08.096c.139 0 .261.053.368.16l.464.016.192.176c.139.053.256.08.352.08l.32.096.128.128h.368l.096.224.336.208.112.496-.256.464c-.235.267-.47.421-.704.464l-.256.144-.128-.032-.336.224a1.388 1.388 0 00-.192-.016l-.336.112-.032-.016-.208.272-.304.048a1.846 1.846 0 01-.832.208l-.32.176h-.336l-.272.16-.208.032.56.176.32-.048.528.064.608-.096.032.064a2.42 2.42 0 01.32-.016c.256 0 .421.053.496.16a.43.43 0 01.256-.08c.181.064.304.096.368.096a.853.853 0 00.304-.08c.139.075.4.112.784.112l.144.08c.288.043.523.107.704.192h.256a.597.597 0 00.432.192c.064.064.24.187.528.368.16.107.24.224.24.352zM7.96 3.712v-.128l-.048-.016L7.8 3.44h-.176l-.16-.08a3.074 3.074 0 01-.224-.064l-.176.128-.32-.24-.272-.08-.112.064-.304-.16h-.08a4.65 4.65 0 01-.528-.048l-.368.048-.192-.176-.176.032-.064-.016-.096.08-.304-.112-.064.032v.384l.112.304-.096.24.096.368-.032.336.096.256-.08.272v.032l.256-.016c.053-.021.133-.043.24-.064l-.016.048.192-.144.032-.128.4-.016c.33-.085.544-.187.64-.304l.192.016.08-.064c.17-.17.352-.256.544-.256h.064c.053 0 .101-.027.144-.08l.432-.128h.048a.943.943 0 01.432-.192zm2.288 3.84L10.2 7.52l-.256-.032-.064-.08H9.8l-.368-.16-.304.032-.144-.128-.32.032a.566.566 0 00-.208-.112.563.563 0 01-.272.08.767.767 0 01-.256-.096 4.01 4.01 0 01-.592-.048l-.544-.016a1.772 1.772 0 00-.496-.08c-.064 0-.144.01-.24.032l-.352.08-.24-.16-.016.096-.704-.064a1.534 1.534 0 01-.176-.128c-.181 0-.272.09-.272.272v.096l-.016.144.096.224-.08.24.032.112-.032.224.112.192.032.304-.112.256.016.08.048.032.032.24.448-.016.272-.096.464.016.112.048a.37.37 0 01.16-.08l.272-.128.448.016.448-.144.384-.16.224.016.384-.176.544-.032c.267-.01.464-.101.592-.272l.224.016.176-.08.128-.176.352-.096.112-.192.08-.096zm11.424.64c.021.053.043.112.064.176a.604.604 0 01.032.192l.112.24-.08.224-.032.24c.043.064.07.17.08.32l-.032.032.128.256-.24.176-.032.096a.569.569 0 01-.416.176 4.575 4.575 0 01-.592-.112l-.096-.704.048-.128-.048-.32.016-.336.064-.08-.048-.528c.021-.16.035-.275.04-.344.005-.07.008-.13.008-.184l-.144-.192.144-.176.048-.288-.032-.208.096-.176-.096-.224.144-.176.016-.112V5.6l.048-.064-.016-.48.048-.528-.064-.096-.016-.352.048-.304-.048-.112.096-.736a7.196 7.196 0 01.592-.096c.16 0 .299.064.416.192l.032.112.24.176-.128.24.032.048c-.01.139-.037.235-.08.288l.032.24.08.224-.112.256a.812.812 0 01-.08.368.37.37 0 01-.008.072l-.04.2.144.112-.064.144.032.096a.516.516 0 01-.064.224l.032.064-.096.416v.24l-.112.24.064.224-.064.528.048.032-.08.288-.064.336zm-7.52.208l.032.192.064.4.032.192.048.048.224.064h.208l.352-.064h.448l.496-.032.16-.24.144.08.128-.128.144-.08.224-.064.048-.016.064-.224.256-.064.208-.112.176-.272.256-.192.096-.272.16-.144.064-.176-.08-.416-.048-.032-.176-.24-.288-.112c.01 0-.003-.035-.04-.104-.037-.07-.077-.093-.12-.072l-.192-.048-.304-.176-.128.048h-.128a.476.476 0 01-.24.064c-.021 0-.045-.016-.072-.048a.413.413 0 00-.088-.08c-.032.01-.09.027-.176.048a1.346 1.346 0 01-.32.032.586.586 0 00-.176-.008 3.54 3.54 0 01-.128.008c-.043.032-.072.048-.088.048h-.104c-.043 0-.093.03-.152.088A.428.428 0 0115 6.4l-.336-.08-.336.08-.048.48-.032.528-.016.256.144.512-.224.224zm-.976-3.072a1.15 1.15 0 00.016-.256c0-.128-.01-.245-.032-.352l.032-.112-.128-.144a.237.237 0 01.112-.16l-.08-.112A.426.426 0 0013.144 4a.52.52 0 00-.112-.288c0-.085.016-.17.048-.256l-.064-.16.08-.176-.256-.544.256-.048v-.032l.56-.288.288.336.032.16.24.176-.016.24c0 .043-.003.093-.008.152a3.977 3.977 0 01-.024.2c.075.075.112.144.112.208 0 .01-.01.048-.032.112l.064.064-.064.256.112.288-.016.112.208.096-.112.208-.096.096-.064.288.048.24.4-.144.4.032.112-.256.448.096.416.016.112-.048.256.128.064-.032.304-.176.432.08.192.016.528.128.096-.016c.085.053.173.107.264.16.09.053.179.123.264.208l.288.032.112.336.064.032.176.256.096.272.112.112-.032.352.032.144a1.33 1.33 0 01-.112.304.651.651 0 00-.064.352l-.144-.112.016.112-.08.128.032.352-.336-.16-.048.192-.08.096a4.379 4.379 0 01-.064.152.393.393 0 01-.08.12l.048.112-.304.096-.016.048-.24.288-.16.288-.128.096-.128.208-.4-.112-.064.096a.561.561 0 01-.16.016h-.176l-.224.224-.048.16a.475.475 0 00-.192.136c-.064.07-.133.104-.208.104l-.272-.096-.432-.128-.304.176-.064.032-.256-.016.048-.032-.432.064-.304.048-.128-.144-.288.032a.693.693 0 01-.544-.448l-.016-.112-.08-.128v-.288l-.096-.16.128-.192a1.058 1.058 0 01-.048-.304c0-.032.005-.053.016-.064v-.56l.064-.16.016-.944.048-.224-.08-.096.144-.432-.048-.16v-.352l.08-.096-.016-.224-.064-.128zM25.08 7.36l-.032.288-.128.24a.587.587 0 01.112.48l.4.4a.677.677 0 01.016.32l-.032.032.656.032c.064.01.13.005.2-.016a.387.387 0 00.184-.128l.352.16.304-.048.144-.048.464-.32.144.032.176-.144.208-.064.016-.16.368-.24.208-.256.112-.032-.048-.112.224-.48v-.16l.096-.496.032-.032-.032-.112a.35.35 0 01-.128-.136.776.776 0 01-.072-.184 1.4 1.4 0 01-.032-.16c-.005-.043-.013-.064-.024-.064-.032.01-.072-.01-.12-.064a10.745 10.745 0 01-.168-.192 2.064 2.064 0 00-.216-.216.774.774 0 00-.264-.152 25.293 25.293 0 01-.528-.096l-.096.032-.272-.016-.208.16-.144-.032-.16.112-.432.288a.573.573 0 00-.128.16.34.34 0 01-.208.16c-.064.085-.13.181-.2.288-.07.107-.141.15-.216.128l-.208.352-.096.24-.224.256zm3.344-5.808l-.16.016-.192.144-.208.112a.337.337 0 01-.144.096c-.043.01-.107.064-.192.16-.277.139-.453.325-.528.56l-.416.224-.032.32-.288-.016-.384.624a.851.851 0 00-.128.16l-.064.128-.368.672-.08.096-.096.448-.128.128-.016.24-.096.288-.016.208.176-.192.32-.288.16-.272.336-.176.144-.288.384-.24.432-.304.528-.096.096-.08.432.064.656-.096.784.448.416.528.064.016a.308.308 0 01.144.152 1 1 0 01.072.232l.048.256c.016.085.04.155.072.208l-.032.144.208.32c.021.085.03.227.024.424a1.439 1.439 0 01-.056.424 1.777 1.777 0 00-.064.104 7.608 7.608 0 01-.08.136l-.032.272-.256.352-.064.224-.192.176-.16.352-.256.144-.192.208-.224.064-.144.208h-.192a.699.699 0 01-.192.16c-.075.043-.144.08-.208.112a.353.353 0 01-.12.04c-.07.016-.152.045-.248.088l-.352.208-.192-.064a.65.65 0 01-.56.128l-.048.096-.544-.096-.032.016a.815.815 0 01-.12.064 1.17 1.17 0 00-.168.096l-.256-.176-.48-.16-.048.048-.304-.032-.272-.432-.352-.528-.112-.672-.16-.496.032-.24-.144-.24.144-.192-.048-.112.032-.192-.064-.272a.283.283 0 01.08-.128c.043-.043.064-.075.064-.096-.075-.139-.08-.299-.016-.48l.032-.32.08-.112.048-.208v-.176l.096-.144.128-.608.24-.384.016-.064a.647.647 0 01.12-.208c.048-.053.104-.107.168-.16l.08-.08.016-.208a.69.69 0 00.352-.384v-.08c0-.032.01-.075.032-.128h.16l.288-.352.128-.352.096.048.224-.096.176-.256.224-.048.08-.224.16-.032-.016-.144.224-.128.064.032L27 1.12l.224-.064a.782.782 0 01.232-.104.896.896 0 00.2-.072l.208-.112.224-.208.304.032.144-.16.8-.192.304.064c.117.032.197.075.24.128.16.192.165.368.016.528a.482.482 0 01-.2.104.924.924 0 01-.28.008l-.176.128-.24.032-.112.048-.368.144-.096.128zM36.6 8.688c0 .128-.096.288-.288.48a.996.996 0 01-.24.416l-.096.016-.176.304-.288.048-.304.192-.16.288-.176-.032a1.123 1.123 0 01-.288.096l-.096.144a.485.485 0 00-.144-.016c-.139 0-.272.096-.4.288l-.224-.192a.853.853 0 01-.192.016.865.865 0 01-.352-.064h-.272l-.128-.08c-.405-.064-.661-.219-.768-.464v-.048l-.192-.096-.096-.272-.192-.128v-.24l-.192-.704.032-.576.064-.256v-.336l.08-.256-.016-.112.112-.192-.032.032c0-.096.027-.197.08-.304v-.08l-.048-.384c0-.181.08-.341.24-.48a.223.223 0 00.016-.096c0-.043-.019-.13-.056-.264a1.238 1.238 0 01-.056-.28c0-.128.032-.261.096-.4a.416.416 0 00.368.192h.048a.451.451 0 01.144-.144 2.01 2.01 0 01.352-.672l.064-.064c0-.043.032-.165.096-.368h.128l.032-.08.128-.032a1.22 1.22 0 01.104-.152c.016-.016.13-.083.344-.2a.697.697 0 01.192-.208c.043-.021.096-.043.16-.064l.064-.096c.288-.096.47-.144.544-.144.085 0 .165.021.24.064l.08-.016.112.064c.128.096.256.176.384.24l.272.208v.064c.245.192.368.464.368.816l-.048.16.048.528-.144.096-.16.416-.304.336-.016.256a7.787 7.787 0 01-.944.592c-.096.15-.245.224-.448.224h-.048l-.304.192h-.256l-.384.16-.288-.144h-.032a3.51 3.51 0 00-.064.384l-.128.096-.016.192-.096.272c.032.256.048.421.048.496l-.064.048c0 .139-.005.24-.016.304 0 .01-.005.027-.016.048v.048c0 .085.043.155.128.208.032.128.085.208.16.24l.112.096.352.096v.048l.128.032.544.032.32-.048.16-.112.096-.032.16-.24.08-.016.4-.128a.523.523 0 01.208-.192l.048-.08c.213-.043.336-.155.368-.336a.78.78 0 01.576-.224h.064c.203.235.304.427.304.576zM35.016 4.08a.786.786 0 00-.048-.192l-.08-.016-.032.016h-.064a.142.142 0 01-.064.016.123.123 0 01-.048-.016h-.048l-.16.112-.144.016-.08.032-.272.352-.176.128-.256.448-.144.096a.903.903 0 01-.224.464l-.064.112a.729.729 0 01.4-.112l.112-.048.048-.144.224.016.128-.192h.096l.176.064.08-.24h.112v-.176l.208-.048.048-.048.032-.144.208-.304a.517.517 0 00.032-.192zm8.768 3.552l-.192.48.128.32-.064.096-.064.256-.128.224-.064.032-.032.304-.288.032a2.22 2.22 0 01-.464.336l-.096-.016-.24.08-.144.016-.304.112-.352-.16-.048-.032-.272.016.064.032-.448-.064-.4.096-.16-.144-.336.032-.128-.096c-.01 0-.053.005-.128.016v.096a.906.906 0 01-.048.288l.048.304-.128.16c.021.235.032.41.032.528l-.048.4.064.608-.128.16.064.24-.048.16.096.048v.24a.508.508 0 01.032.144c0 .096-.059.176-.176.24l.064.224-.08.128-.032.64c-.032.747-.197 1.12-.496 1.12-.064 0-.25-.043-.56-.128l.048-.48-.096-.704.16-.288.016-.352-.064-.48.128-.208-.144-.368.112-.192-.096-.32.128-.288a.417.417 0 00-.12-.176c-.059-.053-.088-.09-.088-.112 0-.032.037-.064.112-.096a.561.561 0 01-.016-.16c0-.139.032-.32.096-.544l-.096-.16.048-.208-.112-.144.144-.176-.064-.464.096-.656-.112-.208.176-.304-.192-.176.112-.304-.112-.08.016-.272.096-.336V6.88l.016-.064V6.64l.016-.064-.08-.256.08-.272-.08-.208.064-.24-.064-.064.048-.32-.048-.176.032-.16-.048-.112-.576.256v-.096l-.112.016-.176.16h-.144l-.192.256-.16-.064-.08.16c-.523-.31-.784-.555-.784-.736a.41.41 0 01.144-.32l-.016-.24c.299-.17.581-.261.848-.272l.112-.112.512-.208.112-.112.448.032.08-.032.144-.56.384.08.256.416.144-.144.288.208c.139 0 .272.027.4.08l.08.144.112-.048.128.096a.76.76 0 01.176.016l-.016.096.352-.112.176.192.304.096.208.256.384.24.016.032.304.096v.096c.085.064.15.15.192.256l.128.08.096.176h.192v.32l.112.112.032.112.16.032c.021.245.09.453.208.624v.112l.16.16-.032.256.128.288.048.336.112.032zm-1.2.24l-.016-.08.016-.064-.096-.288.064-.144-.064-.128-.016-.16-.128-.256-.064-.176-.24-.416-.192-.16-.112-.272-.144-.064-.256-.336-.256.032-.192-.256-.16.032-.112-.208-.064-.016h-.224l-.16.08-.128-.128-.16.032-.064-.112-.288-.048.016.192-.032.304.064.176.224.208-.176.384.016.24-.08.48c.032.203.096.373.192.512l-.064.176c.01.01.016.021.016.032 0 .032-.043.08-.128.144l.112.144-.08.192-.032.208.048.224-.016.208h.336a.4.4 0 01.176-.032c.096 0 .181.032.256.096.01 0 .032-.005.064-.016h.048c.032 0 .09.01.176.032a.398.398 0 01.176-.048c.085 0 .165.021.24.064h.144l.128.032.32-.096.256.16c.096.032.133.048.112.048l.304-.304.032-.224.08-.032-.048-.128.112-.128.064-.112zm4.16.592l.128.496.112-.16.352-.416.496-.24a.595.595 0 01.264-.296c.123-.07.243-.13.36-.184l.928-.848.432-.512.384-.272.016-.08c.021-.085.075-.13.16-.136a.685.685 0 00.208-.04l.32-.48.048-.096.592-.352.624-.832.256-.144.08-.208.224-.112a1.29 1.29 0 01.28-.32 1.57 1.57 0 01.376-.256l.128.144.144-.032c.235.021.347.101.336.24a.336.336 0 01.048.176c0 .053-.027.117-.08.192l-.064.784-.064.128.016.384-.08.464.032.64-.144.256.224.4-.128.384.08.224.08.16-.048.416v.144a.28.28 0 01.016.088v.072l-.048.096-.112.128c.01.021.016.064.016.128a.238.238 0 01-.024.12c-.016.027-.03.05-.04.072l.096.208-.128.224.128.464a.613.613 0 01-.264.432.834.834 0 01-.472.144h-.288a4.249 4.249 0 01-.152-.264.795.795 0 01-.088-.296c0-.043.016-.09.048-.144l-.16-.224.112-.192-.016-.272.048-.304-.144-.48.144-.032a.239.239 0 01-.024-.136 1.47 1.47 0 00.008-.152.32.32 0 01.112-.256l.048-.192-.144-.672.048-.4-.08-.576.128-.144.048-.304.048-.24-.08-.016-.4.544-.304.224-.176.208a2.825 2.825 0 01-.624.624l-.176.256-.256.064-.448.64-.608.496-.256.256-.192.112-.256.224-.384.192-.064.128-1.152.848-.08.016-.112.208a.5.5 0 00-.168.072.49.49 0 01-.184.072l-.08.064h-.016v.112l-.896.224-.16-.208-.24-.176.272-.288-.16-.592.048-.048-.08-.176.32-.16-.24-.304.208-.336-.064-.288.016-.208-.08-.448.128-.16-.128-.512.112-.144-.176-.256.096-.624-.032-.064c-.085-.075-.133-.33-.144-.768l-.016-.048.048-.304-.048-.192a.752.752 0 01.144-.272c.053-.01.08-.043.08-.096a.35.35 0 01.048-.168.292.292 0 00.016-.216l.512-.064.08-.144.8.304-.096.144.176.16-.192.112.176.512-.224.176v.768l-.112.432.144.528-.24.208v.048l.144.208-.016.72-.064.048.112.256-.24.56zM68.488 3.44l-.336.816-.16.048h-.256l-.24.032-.176-.032-.848.064-.256-.064-.048.016c-.085.043-.24.08-.464.112h-.32l-.096-.032h-.048c-.107 0-.24.021-.4.064a2.103 2.103 0 01-.496.048l-.224-.048-.032.16h-.16l-.048.464.064.112-.016.208v.352c0 .363-.037.608-.112.736l.112.16-.096.384.096.112-.16.224v.112l-.08.144.064.304-.048.56-.08.256c.01.01.016.037.016.08 0-.021-.016.037-.048.176 0 .01.005.027.016.048v.064a.516.516 0 01-.096.288l.048.192c0 .075-.005.117-.016.128l-.016.032a.45.45 0 00-.032.176c0 .17.021.315.064.432a2.205 2.205 0 01-.328.04 6.925 6.925 0 01-.2.008.604.604 0 01-.192-.032h-.032c-.235-.064-.352-.283-.352-.656a.733.733 0 00.016-.192c0-.075-.01-.179-.032-.312a2.085 2.085 0 01-.032-.28c0-.096.016-.176.048-.24l.048-.56c-.075-.107-.112-.187-.112-.24 0 .01.01-.027.032-.112a.377.377 0 01-.048-.16c0-.085.021-.144.064-.176 0-.053.037-.165.112-.336a1.348 1.348 0 01-.032-.24c.064 0 .096-.032.096-.096a.189.189 0 00-.024-.08.288.288 0 01-.024-.128l.032.048-.048-.128c0-.181.021-.33.064-.448v-.384l-.064-.288.064-.464-.064-.288.016-.128h-.192l-.16.08h-.096v.048c-.203 0-.39-.016-.56-.048l-.048.112-.528-.176-.704-.016-.448.128a1.854 1.854 0 01-.408-.488c-.09-.165-.136-.285-.136-.36 0-.085.01-.15.032-.192l.304-.272.256.016.912.176.24-.08.688.016.544.064.352-.128.128-.352.544.128.016-.016.032.032.192.24h.048l.192-.064.4.096c.203-.032.36-.059.472-.08.112-.021.184-.032.216-.032.096 0 .213.027.352.08h.16c.053 0 .101-.003.144-.008a.849.849 0 01.096-.008h.096l.464-.064.4.08.048.016.208-.064.288.064.672-.016.304.032h.4zm5.68 2.816l-.096.288c0 .277-.016.496-.048.656l-.096.16v.176l-.08.112-.048.224-.176.176-.112.4-.128.048-.064.176-.192.112-.128.272-.192.096-.016.192-.304.112a.91.91 0 01-.512.368l-.064.016c-.15.224-.347.336-.592.336a.701.701 0 01-.368.096l-.16.112-.16.048-.208.16-.208-.016-.224.064-.272-.112-.688-.048-.24-.368-.352-.368.08-.256-.24-.544.112-.208-.08-.384.08-.24a2.598 2.598 0 01-.032-.32c0-.203.053-.352.16-.448.01-.107.08-.283.208-.528h.08l-.032-.112.048-.224v-.24a.824.824 0 00.144-.192l-.048-.224V5.76c.075-.15.112-.304.112-.464l.336-.464.04-.032a.873.873 0 00.072-.064l-.016-.064h.064l.24-.272.016-.368.4-.144c.15-.096.245-.256.288-.48h.208a.68.68 0 01.32-.096.6.6 0 01.272.064l.176.016.416-.16.224.208.176.112h.128l.24.128h.128c.139.128.299.304.48.528l.032.08.112.064.336.432.304.752v.16l.144.56zm-1.056.384l-.016-.08a.411.411 0 01-.128-.24l.048-.08-.144-.304.032-.304-.064-.08c-.139-.107-.213-.192-.224-.256-.096-.043-.144-.15-.144-.32l-.096-.016-.192-.32-.144-.112-.336-.128-.128-.032c-.064 0-.107-.021-.128-.064l-.32.352-.208.448-.336.176-.048.176-.16.08-.064.416-.192.096a1.52 1.52 0 00-.064.416l-.256.24.08.048a.46.46 0 01-.144.336 3.322 3.322 0 01-.128.32v.128l-.048.064.016.192-.176.432.032.08v.448l-.064.224.016.224.144.208.224.08.08.032.128-.064.416.032.064-.16h.064c.064 0 .101.016.112.048l.144-.048.128.048.208-.144.032-.048.144-.032c.075-.117.25-.235.528-.352l.032-.08.32-.224.176-.256.256-.128.016-.08.08-.176v-.208l.192-.16.064-.112.08-.096a1.018 1.018 0 01-.064-.272c0-.096.032-.197.096-.304l.064-.064zm4.672 2.688l-.24.368-.224.112-.096.128-.24.208-.096.128-.288.176-.544.544-.288.128c-.075.15-.176.272-.304.368l-.064.048-.112.208-.224.208c-.181.053-.315.08-.4.08a2.1 2.1 0 01-.24-.032.853.853 0 01-.016-.192c0-.096.021-.213.064-.352l.048-.16.048-.064c.032-.17.139-.299.32-.384l.016-.048.16-.224.064-.224.08-.112.176-.08.032-.064c.01-.064.053-.117.128-.16l.096-.064v-.16l.144-.032c0-.117.032-.24.096-.368l.16-.128c0-.032.01-.08.032-.144 0-.021.005-.048.016-.08v-.08l.096-.128a.713.713 0 01.592-.288c.17 0 .368.048.592.144l.048.064.304.08.064.576zM89 5.104h.112a1.21 1.21 0 00.072-.08.295.295 0 01.12-.08v-.16l.24-.192.128-.272.128-.224.048-.208.176-.272.032-.192.544-.08.464.24.112.128c.17.117.325.24.464.368l-.304.256.016.208a.545.545 0 01-.288.416l-.112.208v.256L91 5.68l.016.432-.144.096c.053.053.099.101.136.144.037.043.056.144.056.304a.468.468 0 01-.016.16l-.128.016.048.16-.048.32.128 1.008-.096.288.128.432-.08.4.08.256.128.176c-.085.203-.128.352-.128.448v.16a.76.76 0 01.016.176v.096l-.112.144c.01.01.016.059.016.144a.828.828 0 01-.016.208l.096.208-.08.24.176.496c-.01.427-.181.64-.512.64h-.288a1.925 1.925 0 01-.336-.608c0-.053.016-.107.048-.16l-.208-.24.112-.192-.064-.32v-.32l-.192-.512.144-.032a.712.712 0 01-.064-.32.54.54 0 01.064-.272l.048-.224-.24-.72.144-.416-.128-.64v-.448l.08-.416-.128-.464.128-.384-.064-.368-.096.096-.24.256a.91.91 0 01-.096.288c-.053.107-.117.16-.192.16l-.448.256-.176.336-.736.576-.4.176-.352.256-.224.064-.784.32-.32.144-.528-.016-.384-.24-.224-.144v-.288l-.272-.064-.112-.224-.048-.128-.064-.208.096-.304-.048-.192.048-.24-.064-.384-.08-.128c.01-.17.07-.299.176-.384l-.048-.064.064-.336-.112-.208v-.336l.112-.368.048-.304-.064-.304.16-.176a.322.322 0 01.304-.176l.208-.096.384.112a.436.436 0 01.24.272c.043.021.072.067.088.136.016.07.045.163.088.28l-.128.368a.536.536 0 01-.12.272c-.059.064-.088.16-.088.288v.112l.144.192-.064.192-.032.32.096.288-.24.208c.17.384.256.661.256.832l.448.048a.366.366 0 01.112-.096.953.953 0 00.128-.096l.24-.016.192-.064c.053-.053.101-.083.144-.088a.592.592 0 00.144-.04l.16-.192.416-.096-.016-.16.368-.064.288-.32.064.064.08-.208.128.064.16-.128.128-.32.336-.224.032-.224zm12.64-1.664l-.336.816-.16.048h-.256l-.24.032-.176-.032-.848.064-.256-.064-.048.016c-.085.043-.24.08-.464.112h-.32L98.44 4.4h-.048c-.107 0-.24.021-.4.064a2.103 2.103 0 01-.496.048l-.224-.048-.032.16h-.16l-.048.464.064.112-.016.208v.352c0 .363-.037.608-.112.736l.112.16-.096.384.096.112-.16.224v.112l-.08.144.064.304-.048.56-.08.256c.01.01.016.037.016.08 0-.021-.016.037-.048.176 0 .01.005.027.016.048v.064a.516.516 0 01-.096.288l.048.192c0 .075-.005.117-.016.128l-.016.032a.45.45 0 00-.032.176c0 .17.021.315.064.432a2.205 2.205 0 01-.328.04 6.925 6.925 0 01-.2.008.604.604 0 01-.192-.032h-.032c-.235-.064-.352-.283-.352-.656a.733.733 0 00.016-.192c0-.075-.01-.179-.032-.312a2.085 2.085 0 01-.032-.28c0-.096.016-.176.048-.24l.048-.56c-.075-.107-.112-.187-.112-.24 0 .01.01-.027.032-.112a.377.377 0 01-.048-.16c0-.085.021-.144.064-.176 0-.053.037-.165.112-.336a1.348 1.348 0 01-.032-.24c.064 0 .096-.032.096-.096a.189.189 0 00-.024-.08.288.288 0 01-.024-.128l.032.048-.048-.128c0-.181.021-.33.064-.448v-.384l-.064-.288.064-.464-.064-.288.016-.128h-.192l-.16.08h-.096v.048c-.203 0-.39-.016-.56-.048l-.048.112-.528-.176-.704-.016-.448.128a1.854 1.854 0 01-.408-.488c-.09-.165-.136-.285-.136-.36 0-.085.01-.15.032-.192l.304-.272.256.016.912.176.24-.08.688.016.544.064.352-.128.128-.352.544.128.016-.016.032.032.192.24h.048l.192-.064.4.096c.203-.032.36-.059.472-.08.112-.021.184-.032.216-.032.096 0 .213.027.352.08h.16c.053 0 .101-.003.144-.008a.849.849 0 01.096-.008h.096l.464-.064.4.08.048.016.208-.064.288.064.672-.016.304.032h.4zm5.68 2.816l-.096.288c0 .277-.016.496-.048.656l-.096.16v.176l-.08.112-.048.224-.176.176-.112.4-.128.048-.064.176-.192.112-.128.272-.192.096-.016.192-.304.112a.91.91 0 01-.512.368l-.064.016c-.15.224-.347.336-.592.336a.701.701 0 01-.368.096l-.16.112-.16.048-.208.16-.208-.016-.224.064-.272-.112-.688-.048-.24-.368-.352-.368.08-.256-.24-.544.112-.208-.08-.384.08-.24a2.598 2.598 0 01-.032-.32c0-.203.053-.352.16-.448.01-.107.08-.283.208-.528h.08l-.032-.112.048-.224v-.24a.824.824 0 00.144-.192l-.048-.224V5.76c.075-.15.112-.304.112-.464l.336-.464.04-.032a.873.873 0 00.072-.064l-.016-.064h.064l.24-.272.016-.368.4-.144c.15-.096.245-.256.288-.48h.208a.68.68 0 01.32-.096.6.6 0 01.272.064l.176.016.416-.16.224.208.176.112h.128l.24.128h.128c.139.128.299.304.48.528l.032.08.112.064.336.432.304.752v.16l.144.56zm-1.056.384l-.016-.08a.411.411 0 01-.128-.24l.048-.08-.144-.304.032-.304-.064-.08c-.139-.107-.213-.192-.224-.256-.096-.043-.144-.15-.144-.32l-.096-.016-.192-.32-.144-.112-.336-.128-.128-.032c-.064 0-.107-.021-.128-.064l-.32.352-.208.448-.336.176-.048.176-.16.08-.064.416-.192.096a1.52 1.52 0 00-.064.416l-.256.24.08.048a.46.46 0 01-.144.336 3.322 3.322 0 01-.128.32v.128l-.048.064.016.192-.176.432.032.08v.448l-.064.224.016.224.144.208.224.08.08.032.128-.064.416.032.064-.16h.064c.064 0 .101.016.112.048l.144-.048.128.048.208-.144.032-.048.144-.032c.075-.117.25-.235.528-.352l.032-.08.32-.224.176-.256.256-.128.016-.08.08-.176v-.208l.192-.16.064-.112.08-.096a1.018 1.018 0 01-.064-.272c0-.096.032-.197.096-.304l.064-.064zm14.88-3.2l-.336.816-.16.048h-.256l-.24.032-.176-.032-.848.064-.256-.064-.048.016c-.085.043-.24.08-.464.112h-.32l-.096-.032h-.048c-.107 0-.24.021-.4.064a2.103 2.103 0 01-.496.048l-.224-.048-.032.16h-.16l-.048.464.064.112-.016.208v.352c0 .363-.037.608-.112.736l.112.16-.096.384.096.112-.16.224v.112l-.08.144.064.304-.048.56-.08.256c.01.01.016.037.016.08 0-.021-.016.037-.048.176 0 .01.005.027.016.048v.064a.516.516 0 01-.096.288l.048.192c0 .075-.005.117-.016.128l-.016.032a.45.45 0 00-.032.176c0 .17.021.315.064.432a2.205 2.205 0 01-.328.04 6.925 6.925 0 01-.2.008.604.604 0 01-.192-.032h-.032c-.235-.064-.352-.283-.352-.656a.733.733 0 00.016-.192c0-.075-.01-.179-.032-.312a2.085 2.085 0 01-.032-.28c0-.096.016-.176.048-.24l.048-.56c-.075-.107-.112-.187-.112-.24 0 .01.01-.027.032-.112a.377.377 0 01-.048-.16c0-.085.021-.144.064-.176 0-.053.037-.165.112-.336a1.348 1.348 0 01-.032-.24c.064 0 .096-.032.096-.096a.189.189 0 00-.024-.08.288.288 0 01-.024-.128l.032.048-.048-.128c0-.181.021-.33.064-.448v-.384l-.064-.288.064-.464-.064-.288.016-.128h-.192l-.16.08h-.096v.048c-.203 0-.39-.016-.56-.048l-.048.112-.528-.176-.704-.016-.448.128a1.854 1.854 0 01-.408-.488c-.09-.165-.136-.285-.136-.36 0-.085.01-.15.032-.192l.304-.272.256.016.912.176.24-.08.688.016.544.064.352-.128.128-.352.544.128.016-.016.032.032.192.24h.048l.192-.064.4.096c.203-.032.36-.059.472-.08.112-.021.184-.032.216-.032.096 0 .213.027.352.08h.16c.053 0 .101-.003.144-.008a.849.849 0 01.096-.008h.096l.464-.064.4.08.048.016.208-.064.288.064.672-.016.304.032h.4zm5.088 5.248c0 .128-.096.288-.288.48a.996.996 0 01-.24.416l-.096.016-.176.304-.288.048-.304.192-.16.288-.176-.032a1.123 1.123 0 01-.288.096l-.096.144a.485.485 0 00-.144-.016c-.139 0-.272.096-.4.288l-.224-.192a.853.853 0 01-.192.016.865.865 0 01-.352-.064h-.272l-.128-.08c-.405-.064-.661-.219-.768-.464v-.048l-.192-.096-.096-.272-.192-.128v-.24l-.192-.704.032-.576.064-.256v-.336l.08-.256-.016-.112.112-.192-.032.032c0-.096.027-.197.08-.304v-.08l-.048-.384c0-.181.08-.341.24-.48a.223.223 0 00.016-.096c0-.043-.019-.13-.056-.264a1.238 1.238 0 01-.056-.28c0-.128.032-.261.096-.4a.416.416 0 00.368.192h.048a.451.451 0 01.144-.144 2.01 2.01 0 01.352-.672l.064-.064c0-.043.032-.165.096-.368h.128l.032-.08.128-.032a1.22 1.22 0 01.104-.152c.016-.016.13-.083.344-.2a.697.697 0 01.192-.208c.043-.021.096-.043.16-.064l.064-.096c.288-.096.47-.144.544-.144.085 0 .165.021.24.064l.08-.016.112.064c.128.096.256.176.384.24l.272.208v.064c.245.192.368.464.368.816l-.048.16.048.528-.144.096-.16.416-.304.336-.016.256a7.787 7.787 0 01-.944.592c-.096.15-.245.224-.448.224h-.048l-.304.192h-.256l-.384.16-.288-.144h-.032a3.51 3.51 0 00-.064.384l-.128.096-.016.192-.096.272c.032.256.048.421.048.496l-.064.048c0 .139-.005.24-.016.304 0 .01-.005.027-.016.048v.048c0 .085.043.155.128.208.032.128.085.208.16.24l.112.096.352.096v.048l.128.032.544.032.32-.048.16-.112.096-.032.16-.24.08-.016.4-.128a.523.523 0 01.208-.192l.048-.08c.213-.043.336-.155.368-.336a.78.78 0 01.576-.224h.064c.203.235.304.427.304.576zm-1.584-4.608a.786.786 0 00-.048-.192l-.08-.016-.032.016h-.064a.142.142 0 01-.064.016.123.123 0 01-.048-.016h-.048l-.16.112-.144.016-.08.032-.272.352-.176.128-.256.448-.144.096a.903.903 0 01-.224.464l-.064.112a.729.729 0 01.4-.112l.112-.048.048-.144.224.016.128-.192h.096l.176.064.08-.24h.112v-.176l.208-.048.048-.048.032-.144.208-.304a.517.517 0 00.032-.192zm3.952 3.28l-.032.288-.128.24a.587.587 0 01.112.48l.4.4a.677.677 0 01.016.32l-.032.032.656.032c.064.01.13.005.2-.016a.387.387 0 00.184-.128l.352.16.304-.048.144-.048.464-.32.144.032.176-.144.208-.064.016-.16.368-.24.208-.256.112-.032-.048-.112.224-.48v-.16l.096-.496.032-.032-.032-.112a.35.35 0 01-.128-.136.776.776 0 01-.072-.184 1.4 1.4 0 01-.032-.16c-.005-.043-.013-.064-.024-.064-.032.01-.072-.01-.12-.064a10.745 10.745 0 01-.168-.192 2.064 2.064 0 00-.216-.216.774.774 0 00-.264-.152 25.295 25.295 0 01-.528-.096l-.096.032-.272-.016-.208.16-.144-.032-.16.112-.432.288a.573.573 0 00-.128.16.34.34 0 01-.208.16c-.064.085-.13.181-.2.288-.07.107-.141.15-.216.128l-.208.352-.096.24-.224.256zm3.344-5.808l-.16.016-.192.144-.208.112a.337.337 0 01-.144.096c-.043.01-.107.064-.192.16-.277.139-.453.325-.528.56l-.416.224-.032.32-.288-.016-.384.624a.851.851 0 00-.128.16l-.064.128-.368.672-.08.096-.096.448-.128.128-.016.24-.096.288-.016.208.176-.192.32-.288.16-.272.336-.176.144-.288.384-.24.432-.304.528-.096.096-.08.432.064.656-.096.784.448.416.528.064.016a.308.308 0 01.144.152 1 1 0 01.072.232l.048.256c.016.085.04.155.072.208l-.032.144.208.32c.021.085.03.227.024.424a1.439 1.439 0 01-.056.424 1.777 1.777 0 00-.064.104 7.607 7.607 0 01-.08.136l-.032.272-.256.352-.064.224-.192.176-.16.352-.256.144-.192.208-.224.064-.144.208h-.192a.699.699 0 01-.192.16c-.075.043-.144.08-.208.112a.353.353 0 01-.12.04c-.07.016-.152.045-.248.088l-.352.208-.192-.064a.65.65 0 01-.56.128l-.048.096-.544-.096-.032.016a.815.815 0 01-.12.064 1.17 1.17 0 00-.168.096l-.256-.176-.48-.16-.048.048-.304-.032-.272-.432-.352-.528-.112-.672-.16-.496.032-.24-.144-.24.144-.192-.048-.112.032-.192-.064-.272a.283.283 0 01.08-.128c.043-.043.064-.075.064-.096-.075-.139-.08-.299-.016-.48l.032-.32.08-.112.048-.208v-.176l.096-.144.128-.608.24-.384.016-.064a.647.647 0 01.12-.208c.048-.053.104-.107.168-.16l.08-.08.016-.208a.69.69 0 00.352-.384v-.08c0-.032.01-.075.032-.128h.16l.288-.352.128-.352.096.048.224-.096.176-.256.224-.048.08-.224.16-.032-.016-.144.224-.128.064.032.032-.096.224-.064a.782.782 0 01.232-.104.896.896 0 00.2-.072l.208-.112.224-.208.304.032.144-.16.8-.192.304.064c.117.032.197.075.24.128.16.192.165.368.016.528a.482.482 0 01-.2.104.924.924 0 01-.28.008l-.176.128-.24.032-.112.048-.368.144-.096.128zm8.176 7.136c0 .128-.096.288-.288.48a.996.996 0 01-.24.416l-.096.016-.176.304-.288.048-.304.192-.16.288-.176-.032a1.123 1.123 0 01-.288.096l-.096.144a.485.485 0 00-.144-.016c-.139 0-.272.096-.4.288l-.224-.192a.853.853 0 01-.192.016.865.865 0 01-.352-.064h-.272l-.128-.08c-.405-.064-.661-.219-.768-.464v-.048l-.192-.096-.096-.272-.192-.128v-.24l-.192-.704.032-.576.064-.256v-.336l.08-.256-.016-.112.112-.192-.032.032c0-.096.027-.197.08-.304v-.08l-.048-.384c0-.181.08-.341.24-.48a.223.223 0 00.016-.096c0-.043-.019-.13-.056-.264a1.238 1.238 0 01-.056-.28c0-.128.032-.261.096-.4a.416.416 0 00.368.192h.048a.451.451 0 01.144-.144 2.01 2.01 0 01.352-.672l.064-.064c0-.043.032-.165.096-.368h.128l.032-.08.128-.032a1.22 1.22 0 01.104-.152c.016-.016.13-.083.344-.2a.697.697 0 01.192-.208c.043-.021.096-.043.16-.064l.064-.096c.288-.096.47-.144.544-.144.085 0 .165.021.24.064l.08-.016.112.064c.128.096.256.176.384.24l.272.208v.064c.245.192.368.464.368.816l-.048.16.048.528-.144.096-.16.416-.304.336-.016.256a7.787 7.787 0 01-.944.592c-.096.15-.245.224-.448.224h-.048l-.304.192h-.256l-.384.16-.288-.144h-.032a3.51 3.51 0 00-.064.384l-.128.096-.016.192-.096.272c.032.256.048.421.048.496l-.064.048c0 .139-.005.24-.016.304 0 .01-.005.027-.016.048v.048c0 .085.043.155.128.208.032.128.085.208.16.24l.112.096.352.096v.048l.128.032.544.032.32-.048.16-.112.096-.032.16-.24.08-.016.4-.128a.523.523 0 01.208-.192l.048-.08c.213-.043.336-.155.368-.336a.78.78 0 01.576-.224h.064c.203.235.304.427.304.576zm-1.584-4.608a.786.786 0 00-.048-.192l-.08-.016-.032.016h-.064a.142.142 0 01-.064.016.123.123 0 01-.048-.016h-.048l-.16.112-.144.016-.08.032-.272.352-.176.128-.256.448-.144.096a.903.903 0 01-.224.464l-.064.112a.729.729 0 01.4-.112l.112-.048.048-.144.224.016.128-.192h.096l.176.064.08-.24h.112v-.176l.208-.048.048-.048.032-.144.208-.304a.517.517 0 00.032-.192zm16.992 1.328l-.176.128.144.288-.544.32h-.064a.398.398 0 01-.176-.048l-.176.128-.24-.016-.272.192-.24-.128-.32.08-.304.16c0-.01-.021-.016-.064-.016-.064 0-.107.021-.128.064l-.128.352c.053.053.08.107.08.16a.298.298 0 01-.064.192l-.032.112.064.016a.597.597 0 01-.04.216c-.027.07-.056.13-.088.184.032.064.056.12.072.168a.504.504 0 00.056.12l-.144.096.016.48-.128.688-.016.144.024.128a.503.503 0 01.008.08v.064l.064.128.016.24a.62.62 0 00-.032.08c-.01.032-.027.075-.048.128a.414.414 0 01-.224.344c-.139.08-.33.125-.576.136l-.032-.304-.112-.16-.08-.24v-.464l-.112-.288.032-.016-.032-.208V8.8l.032-.512-.016-.464.096-.272v-.304c0-.053.01-.12.032-.2a.805.805 0 00.032-.2.458.458 0 00-.08-.24l-.032-.048-.048.032-.192-.048a1.875 1.875 0 01-.496.064h-.144a.223.223 0 01-.096-.016l-.208.176-.432-.064a5.554 5.554 0 00-.224-.024 1.899 1.899 0 00-.144-.008c-.15 0-.325.032-.528.096H149l-.352.128-.224-.144-.368.064-.032-.032-.064.032-.288-.016-.032.112-.416-.144-.368.032v.512l-.032.304.064.256-.112.208.096.176-.096.576.064.176-.032.32.144.256-.08.128.032.16c-.021.192-.144.288-.368.288a.585.585 0 01-.48-.248c-.128-.165-.192-.408-.192-.728l-.208-.24-.08-.16a.37.37 0 01.032-.152c.021-.048.043-.093.064-.136l.032-.224-.048-.128-.08-1.04v-.176l-.016-.048-.384-.272.048-.624.416-.256c.021-.075.037-.155.048-.24a2.339 2.339 0 000-.544 2.92 2.92 0 00-.048-.224l.08.048-.016-.192.096-.272-.096-.464v-.304l.112-.464.64-.288.272.192.304.096.048.288.128.176-.128.384a1.1 1.1 0 01.04.216 4.34 4.34 0 01-.008.608c-.01.123-.037.243-.08.36l.128.208-.144.176v.16l.128.048.352-.048.24.032.4-.048.032.048a.303.303 0 01.12-.016h.12c.032 0 .09.01.176.032h.24l.192-.008c.117-.005.25-.008.4-.008l.224-.144.24.128.208.016.064.016c.107-.021.17-.032.192-.032h.08l.992-.144.208.016.08-.048-.08-.224.08-.192-.096-.496.096-.176-.256-.64-.032-.096-.064-.064a.1.1 0 00.024-.04.832.832 0 01.04-.088c0-.01.003-.016.008-.016s.008-.005.008-.016l.016-.016v-.048c0-.064.075-.133.224-.208l.144-.368.496.064.16.096.432-.08v.192l.176-.048v.624l-.08.112.112.272v.16l.064.224-.096.24.032.176-.08.56v.096l.304-.016.576-.112.288.016.176-.016h.32a.256.256 0 01.112-.04 1.1 1.1 0 01.128-.008.409.409 0 01.208.048l.384.048zm5.376 3.28c0 .128-.096.288-.288.48a.996.996 0 01-.24.416l-.096.016-.176.304-.288.048-.304.192-.16.288-.176-.032a1.123 1.123 0 01-.288.096l-.096.144a.485.485 0 00-.144-.016c-.139 0-.272.096-.4.288l-.224-.192a.853.853 0 01-.192.016.865.865 0 01-.352-.064h-.272l-.128-.08c-.405-.064-.661-.219-.768-.464v-.048l-.192-.096-.096-.272-.192-.128v-.24l-.192-.704.032-.576.064-.256v-.336l.08-.256-.016-.112.112-.192-.032.032c0-.096.027-.197.08-.304v-.08l-.048-.384c0-.181.08-.341.24-.48a.223.223 0 00.016-.096c0-.043-.019-.13-.056-.264a1.238 1.238 0 01-.056-.28c0-.128.032-.261.096-.4a.416.416 0 00.368.192h.048a.451.451 0 01.144-.144 2.01 2.01 0 01.352-.672l.064-.064c0-.043.032-.165.096-.368h.128l.032-.08.128-.032a1.22 1.22 0 01.104-.152c.016-.016.13-.083.344-.2a.697.697 0 01.192-.208c.043-.021.096-.043.16-.064l.064-.096c.288-.096.47-.144.544-.144.085 0 .165.021.24.064l.08-.016.112.064c.128.096.256.176.384.24l.272.208v.064c.245.192.368.464.368.816l-.048.16.048.528-.144.096-.16.416-.304.336-.016.256a7.787 7.787 0 01-.944.592c-.096.15-.245.224-.448.224h-.048l-.304.192h-.256l-.384.16-.288-.144h-.032a3.51 3.51 0 00-.064.384l-.128.096-.016.192-.096.272c.032.256.048.421.048.496l-.064.048c0 .139-.005.24-.016.304 0 .01-.005.027-.016.048v.048c0 .085.043.155.128.208.032.128.085.208.16.24l.112.096.352.096v.048l.128.032.544.032.32-.048.16-.112.096-.032.16-.24.08-.016.4-.128a.523.523 0 01.208-.192l.048-.08c.213-.043.336-.155.368-.336a.78.78 0 01.576-.224h.064c.203.235.304.427.304.576zM159.32 4.08a.786.786 0 00-.048-.192l-.08-.016-.032.016h-.064a.142.142 0 01-.064.016.123.123 0 01-.048-.016h-.048l-.16.112-.144.016-.08.032-.272.352-.176.128-.256.448-.144.096a.903.903 0 01-.224.464l-.064.112a.729.729 0 01.4-.112l.112-.048.048-.144.224.016.128-.192h.096l.176.064.08-.24h.112v-.176l.208-.048.048-.048.032-.144.208-.304a.517.517 0 00.032-.192zm8.208 2.176l-.096.288c0 .277-.016.496-.048.656l-.096.16v.176l-.08.112-.048.224-.176.176-.112.4-.128.048-.064.176-.192.112-.128.272-.192.096-.016.192-.304.112a.91.91 0 01-.512.368l-.064.016c-.15.224-.347.336-.592.336a.701.701 0 01-.368.096l-.16.112-.16.048-.208.16-.208-.016-.224.064-.272-.112-.688-.048-.24-.368-.352-.368.08-.256-.24-.544.112-.208-.08-.384.08-.24a2.598 2.598 0 01-.032-.32c0-.203.053-.352.16-.448.01-.107.08-.283.208-.528h.08l-.032-.112.048-.224v-.24a.824.824 0 00.144-.192l-.048-.224V5.76c.075-.15.112-.304.112-.464l.336-.464.04-.032a.873.873 0 00.072-.064l-.016-.064h.064l.24-.272.016-.368.4-.144c.15-.096.245-.256.288-.48h.208a.68.68 0 01.32-.096.6.6 0 01.272.064l.176.016.416-.16.224.208.176.112h.128l.24.128h.128c.139.128.299.304.48.528l.032.08.112.064.336.432.304.752v.16l.144.56zm-1.056.384l-.016-.08a.411.411 0 01-.128-.24l.048-.08-.144-.304.032-.304-.064-.08c-.139-.107-.213-.192-.224-.256-.096-.043-.144-.15-.144-.32l-.096-.016-.192-.32-.144-.112-.336-.128-.128-.032c-.064 0-.107-.021-.128-.064l-.32.352-.208.448-.336.176-.048.176-.16.08-.064.416-.192.096a1.52 1.52 0 00-.064.416l-.256.24.08.048a.46.46 0 01-.144.336 3.322 3.322 0 01-.128.32v.128l-.048.064.016.192-.176.432.032.08v.448l-.064.224.016.224.144.208.224.08.08.032.128-.064.416.032.064-.16h.064c.064 0 .101.016.112.048l.144-.048.128.048.208-.144.032-.048.144-.032c.075-.117.25-.235.528-.352l.032-.08.32-.224.176-.256.256-.128.016-.08.08-.176v-.208l.192-.16.064-.112.08-.096a1.018 1.018 0 01-.064-.272c0-.096.032-.197.096-.304l.064-.064zm3.632.72l-.032.288-.128.24a.587.587 0 01.112.48l.4.4a.677.677 0 01.016.32l-.032.032.656.032c.064.01.13.005.2-.016a.387.387 0 00.184-.128l.352.16.304-.048.144-.048.464-.32.144.032.176-.144.208-.064.016-.16.368-.24.208-.256.112-.032-.048-.112.224-.48v-.16l.096-.496.032-.032-.032-.112a.35.35 0 01-.128-.136.776.776 0 01-.072-.184 1.4 1.4 0 01-.032-.16c-.005-.043-.013-.064-.024-.064-.032.01-.072-.01-.12-.064a10.745 10.745 0 01-.168-.192 2.064 2.064 0 00-.216-.216.774.774 0 00-.264-.152 25.295 25.295 0 01-.528-.096l-.096.032-.272-.016-.208.16-.144-.032-.16.112-.432.288a.573.573 0 00-.128.16.34.34 0 01-.208.16c-.064.085-.13.181-.2.288-.07.107-.141.15-.216.128l-.208.352-.096.24-.224.256zm3.344-5.808l-.16.016-.192.144-.208.112a.337.337 0 01-.144.096c-.043.01-.107.064-.192.16-.277.139-.453.325-.528.56l-.416.224-.032.32-.288-.016-.384.624a.851.851 0 00-.128.16l-.064.128-.368.672-.08.096-.096.448-.128.128-.016.24-.096.288-.016.208.176-.192.32-.288.16-.272.336-.176.144-.288.384-.24.432-.304.528-.096.096-.08.432.064.656-.096.784.448.416.528.064.016a.308.308 0 01.144.152 1 1 0 01.072.232l.048.256c.016.085.04.155.072.208l-.032.144.208.32c.021.085.03.227.024.424a1.439 1.439 0 01-.056.424 1.777 1.777 0 00-.064.104 7.607 7.607 0 01-.08.136l-.032.272-.256.352-.064.224-.192.176-.16.352-.256.144-.192.208-.224.064-.144.208h-.192a.699.699 0 01-.192.16c-.075.043-.144.08-.208.112a.353.353 0 01-.12.04c-.07.016-.152.045-.248.088l-.352.208-.192-.064a.65.65 0 01-.56.128l-.048.096-.544-.096-.032.016a.815.815 0 01-.12.064 1.17 1.17 0 00-.168.096l-.256-.176-.48-.16-.048.048-.304-.032-.272-.432-.352-.528-.112-.672-.16-.496.032-.24-.144-.24.144-.192-.048-.112.032-.192-.064-.272a.283.283 0 01.08-.128c.043-.043.064-.075.064-.096-.075-.139-.08-.299-.016-.48l.032-.32.08-.112.048-.208v-.176l.096-.144.128-.608.24-.384.016-.064a.647.647 0 01.12-.208c.048-.053.104-.107.168-.16l.08-.08.016-.208a.69.69 0 00.352-.384v-.08c0-.032.01-.075.032-.128h.16l.288-.352.128-.352.096.048.224-.096.176-.256.224-.048.08-.224.16-.032-.016-.144.224-.128.064.032.032-.096.224-.064a.782.782 0 01.232-.104.896.896 0 00.2-.072l.208-.112.224-.208.304.032.144-.16.8-.192.304.064c.117.032.197.075.24.128.16.192.165.368.016.528a.482.482 0 01-.2.104.924.924 0 01-.28.008l-.176.128-.24.032-.112.048-.368.144-.096.128zm10.112 8.224c-.256.299-.485.448-.688.448h-.032l-.256.128-.288-.144-.24-.064-.384-.288-.384-.064-.48-.416-.48-.624-.496-.496-.016-.096a3.785 3.785 0 01-.416-.576l-.048-.112-.16-.144a.561.561 0 00-.08-.208l-.08.08h-.128l-.176.272-.048.128-.24.16-.08.336-.272.208a.802.802 0 01-.176.384l-.192.08-.016.144-.208.288-.336.272v.048l-.512.528-.4.56-.176.272-.16.112-.608.528-.352-.352.096-.368.16-.16.032-.176.176-.144.112-.304c.01.01.03.016.056.016a.25.25 0 01.104.032l.192-.416.128-.064.176-.336.08-.368.224-.08a.64.64 0 01.192-.272v-.032c0-.15.08-.277.24-.384.117 0 .181-.107.192-.32l.112-.064.048-.128.08-.032a.666.666 0 01.272-.272l.144-.336.096-.064v-.224l.176-.064.176-.128.064-.224a.465.465 0 01.16-.176l-.112-.144-.032-.112-.064-.032-.304-.576-.272-.464-.192-.4-.336-.368.096-.208-.096-.432.592-.128.512.096.064.288.32.336-.032.144.144.32.24.32.032.32.128.304.128-.128v-.128c.064-.021.107-.037.128-.048l.064-.016a.73.73 0 00.16-.224v-.064l.176-.08-.016-.048c.053-.053.144-.128.272-.224v-.16l.208-.016.192-.128.048-.192.24-.096v-.048l.064.016.048.128c.128-.267.261-.432.4-.496l.128-.144.272-.048.528-.144.224.368.144.128c0 .32-.144.528-.432.624l-.048.016-1.008.832-.144.24-.24.096-.192.208-.224.256-.32.128-.064.176h-.096l.208.304.064.256.064.096.16.08c.043.085.096.213.16.384l.016.08.384.24.096.4.24.192.16.24.256.16.048.112.128.08.064.08.176.048.208.32.176-.032.272.144.88.096.032.368zm6.352-3.52l-.096.288c0 .277-.016.496-.048.656l-.096.16v.176l-.08.112-.048.224-.176.176-.112.4-.128.048-.064.176-.192.112-.128.272-.192.096-.016.192-.304.112a.91.91 0 01-.512.368l-.064.016c-.15.224-.347.336-.592.336a.701.701 0 01-.368.096l-.16.112-.16.048-.208.16-.208-.016-.224.064-.272-.112-.688-.048-.24-.368-.352-.368.08-.256-.24-.544.112-.208-.08-.384.08-.24a2.598 2.598 0 01-.032-.32c0-.203.053-.352.16-.448.01-.107.08-.283.208-.528h.08l-.032-.112.048-.224v-.24a.824.824 0 00.144-.192l-.048-.224V5.76c.075-.15.112-.304.112-.464l.336-.464.04-.032a.873.873 0 00.072-.064l-.016-.064h.064l.24-.272.016-.368.4-.144c.15-.096.245-.256.288-.48h.208a.68.68 0 01.32-.096.6.6 0 01.272.064l.176.016.416-.16.224.208.176.112h.128l.24.128h.128c.139.128.299.304.48.528l.032.08.112.064.336.432.304.752v.16l.144.56zm-1.056.384l-.016-.08a.411.411 0 01-.128-.24l.048-.08-.144-.304.032-.304-.064-.08c-.139-.107-.213-.192-.224-.256-.096-.043-.144-.15-.144-.32l-.096-.016-.192-.32-.144-.112-.336-.128-.128-.032c-.064 0-.107-.021-.128-.064l-.32.352-.208.448-.336.176-.048.176-.16.08-.064.416-.192.096a1.52 1.52 0 00-.064.416l-.256.24.08.048a.46.46 0 01-.144.336 3.322 3.322 0 01-.128.32v.128l-.048.064.016.192-.176.432.032.08v.448l-.064.224.016.224.144.208.224.08.08.032.128-.064.416.032.064-.16h.064c.064 0 .101.016.112.048l.144-.048.128.048.208-.144.032-.048.144-.032c.075-.117.25-.235.528-.352l.032-.08.32-.224.176-.256.256-.128.016-.08.08-.176v-.208l.192-.16.064-.112.08-.096a1.018 1.018 0 01-.064-.272c0-.096.032-.197.096-.304l.064-.064zm10.688 2.16l.144-.08.304.112.112-.128.352.144.016.064-.048.24.032.032.08.32-.144.128.112.144.016.032c.01.277-.037.48-.144.608l.032.336v.24l-.176.304.016.24-.064.24-.272.592-.24.048-.144-.496-.096-.288a.227.227 0 01-.048-.184c.01-.07.027-.152.048-.248l-.048-.064.032-.08-.096-.192.128-.192-.08-.096.08-.144c-.01-.192-.04-.33-.088-.416-.048-.085-.179-.117-.392-.096h-.032l.048-.064a1.46 1.46 0 01-.112.024.69.69 0 01-.112.008h-.624a.504.504 0 01-.192-.048.37.37 0 01-.072-.008 2.342 2.342 0 01-.104-.024l-.096.112-.528-.096-.112.064h-.288l-.448-.048-.704.08-.368-.096-.816.096c-.075 0-.203.003-.384.008s-.341.008-.48.008a.227.227 0 00-.128.032c-.032.021-.059.021-.08 0l-.192-.016-.448.064.032.032a.951.951 0 01-.144-.008.503.503 0 00-.08-.008.938.938 0 01-.192-.024c-.075-.016-.123-.003-.144.04l-.272.08-.128-.064c0 .107-.043.245-.128.416l.08.144-.08.08.112.208-.064.176.032.112-.048.048c0 .096-.003.179-.008.248a.328.328 0 01-.072.184l-.096.288-.256.48-.288-.048-.16-.624-.032-.256.032-.24-.176-.288.048-.24.048-.336c-.096-.139-.139-.347-.128-.624l.016-.016a.45.45 0 01-.032-.176c0-.17.04-.312.12-.424.08-.112.227-.195.44-.248h.208l.48-.048.08-.144a.183.183 0 00.088-.176c-.005-.075.013-.133.056-.176l.16-.064-.032-.176.208-.08a.669.669 0 00.032-.112V7.92l.048-.112.144-.112.08-.208v-.16h.16l.016-.224.096-.08.032-.08c.16-.107.24-.176.24-.208l.144-.272.112-.224.16-.224.112-.192.128-.144.128-.24.208-.224.064-.048v-.176l.032-.016.032-.096a1.03 1.03 0 00.184-.32l.104-.272.016-.208.08-.192.064-.016V3.68h.032l.096-.176-.064-.416.112-.24a1.16 1.16 0 01.296-.128c.112-.032.195-.048.248-.048.096 0 .181.021.256.064.032.021.08.11.144.264.064.155.17.339.32.552l.112.288.144.176.24.304.224.288.016.096.336.368V5.2l.176.048.096.368.192.192.128.192c.01.043.03.083.056.12a.825.825 0 00.088.104v.032h.048a.633.633 0 01.128.184c.032.07.064.141.096.216l.08.16.08.096.144.368.112.096v.16l.064.096.144.24.128.256.192.288.08.144.096.144.112.096zm-5.872-.736l-.08.048a.16.16 0 00-.04.096.16.16 0 01-.04.096l-.192.256-.08.288.416-.016.272.048h.256l.256-.032h.512c.085 0 .163-.01.232-.032a.805.805 0 01.12-.032h.096c.021.01.083-.008.184-.056.101-.048.157-.072.168-.072l.4.128.224-.112.416.112.544.032a.2.2 0 01.088-.016h.104c.096 0 .187.016.272.048l.16.016c0-.053-.005-.12-.016-.2a.604.604 0 00-.048-.184.408.408 0 01-.096-.24l-.224-.32-.016-.112-.144-.288-.032-.16-.176-.256-.24-.464-.256-.448-.256-.32a.196.196 0 01-.072-.112 15.513 15.513 0 01-.056-.192l-.144-.032-.032-.144-.272-.192a.71.71 0 01-.064-.128.354.354 0 00-.112-.144l-.048-.064-.096.048-.032.16-.224.304-.288.416-.144.288-.176.224-.144.304-.24.256-.192.352-.064.128c-.021.096-.053.16-.096.192a.498.498 0 00-.128.176l-.16.352zm9.712.4l.128.496.112-.16.352-.416.496-.24a.595.595 0 01.264-.296c.123-.07.243-.13.36-.184l.928-.848.432-.512.384-.272.016-.08c.021-.085.075-.13.16-.136a.685.685 0 00.208-.04l.32-.48.048-.096.592-.352.624-.832.256-.144.08-.208.224-.112a1.29 1.29 0 01.28-.32 1.57 1.57 0 01.376-.256l.128.144.144-.032c.235.021.347.101.336.24a.336.336 0 01.048.176c0 .053-.027.117-.08.192l-.064.784-.064.128.016.384-.08.464.032.64-.144.256.224.4-.128.384.08.224.08.16-.048.416v.144a.28.28 0 01.016.088v.072l-.048.096-.112.128c.01.021.016.064.016.128a.238.238 0 01-.024.12c-.016.027-.03.05-.04.072l.096.208-.128.224.128.464a.613.613 0 01-.264.432.834.834 0 01-.472.144h-.288a4.248 4.248 0 01-.152-.264.795.795 0 01-.088-.296c0-.043.016-.09.048-.144l-.16-.224.112-.192-.016-.272.048-.304-.144-.48.144-.032a.239.239 0 01-.024-.136 1.47 1.47 0 00.008-.152.32.32 0 01.112-.256l.048-.192-.144-.672.048-.4-.08-.576.128-.144.048-.304.048-.24-.08-.016-.4.544-.304.224-.176.208a2.825 2.825 0 01-.624.624l-.176.256-.256.064-.448.64-.608.496-.256.256-.192.112-.256.224-.384.192-.064.128-1.152.848-.08.016-.112.208a.5.5 0 00-.168.072.49.49 0 01-.184.072l-.08.064h-.016v.112l-.896.224-.16-.208-.24-.176.272-.288-.16-.592.048-.048-.08-.176.32-.16-.24-.304.208-.336-.064-.288.016-.208-.08-.448.128-.16-.128-.512.112-.144-.176-.256.096-.624-.032-.064c-.085-.075-.133-.33-.144-.768l-.016-.048.048-.304-.048-.192a.752.752 0 01.144-.272c.053-.01.08-.043.08-.096a.35.35 0 01.048-.168.292.292 0 00.016-.216l.512-.064.08-.144.8.304-.096.144.176.16-.192.112.176.512-.224.176v.768l-.112.432.144.528-.24.208v.048l.144.208-.016.72-.064.048.112.256-.24.56zm14.704-1.488l.32-.368.016-.032a.228.228 0 01.048-.04.781.781 0 00.064-.04.135.135 0 01.064-.056c.032-.016.075-.04.128-.072a.879.879 0 01.336-.32l.048-.08V5.84c.224-.277.405-.437.544-.48 0-.139.144-.272.432-.4l.24-.336.08-.24h.16a.62.62 0 01.096-.232c.043-.059.085-.12.128-.184l-.032-.096-.144-.272.208-.288.128-.352h.256c.043 0 .08-.005.112-.016.085 0 .23.043.432.128l.016.112.192.128.016.112.144.096-.08.08c.16.053.24.128.24.224a.234.234 0 01-.048.144v.224l.192.24-.096.08-.016.064.032.016.064.208.208.16-.176.192-.08.304.112.224-.032.304.16.416c.032.085.053.168.064.248.01.08.016.147.016.2 0 .064-.037.15-.112.256.064.053.096.107.096.16 0 .075-.032.16-.096.256l.064.048-.048.768.176.432v.464c.021.043.045.085.072.128a.92.92 0 01.072.144 7.153 7.153 0 01.336.32c.117.117.181.219.192.304-.053.139-.256.267-.608.384l-.496-.288-.464-.48-.16-.32-.048-.256-.064-.144a1.732 1.732 0 01-.192-.784c0-.032.003-.064.008-.096a1.46 1.46 0 01.024-.112l.032-.032.048-.256-.192-.304.064-.176-.048-.208.032-.192a.585.585 0 01-.04-.152 1.234 1.234 0 01-.008-.136v-.08a1.91 1.91 0 00-.08-.496v-.384l-.048-.24.048-.384-.192.192-.384.608-.384.432-.144.272-.432.464-.464.32-.048.272-.288.096-.048.144-.336.16-.112.256-.24.08-.272.448-.176.096-.048.256a2.17 2.17 0 01-.216.08.787.787 0 01-.232.032h-.08l-.128-.272-.208-.272.016-.144-.128-.192.064-.096-.016-.016-.064-.224-.112-.08a3.416 3.416 0 01-.416-.48l-.08-.256-.128-.16-.272-.48-.272-.304-.096-.16-.256-.272-.256-.448a.506.506 0 00-.064.216c0 .059-.005.168-.016.328l-.272.416.08.304-.144.304-.304.848-.128.288-.032.176-.256.448-.208.304.032.272a.704.704 0 01-.112.24 4.686 4.686 0 00-.16.24l.112.336c-.32.267-.544.4-.672.4-.192 0-.32-.07-.384-.208a.825.825 0 01-.088-.104.348.348 0 01-.056-.136v-.064c.192-.683.32-1.024.384-1.024.01 0 .016.005.016.016V8.72c0-.235.101-.416.304-.544v-.08l.08-.272-.016-.096c0-.021.013-.064.04-.128l.104-.256.08-.064v-.368l.16-.24.224-.688-.064-.416.192-.16v-.032l.016-.544.064-.224a.504.504 0 00.048-.192v-.064l-.272-.432.08-.272.112-.016.112-.144-.016-.112.224-.16.112.048.208-.128.208.016.384.24v.096l.144.08.176.32-.016.176.016.096c.032.021.067.043.104.064a.701.701 0 01.136.112l.016.192.16.128.096.272.672.576.144.336.224.112.256.544.464.72.064.192h.08l.112-.224.336-.208zm12.384-.72l-.096.288c0 .277-.016.496-.048.656l-.096.16v.176l-.08.112-.048.224-.176.176-.112.4-.128.048-.064.176-.192.112-.128.272-.192.096-.016.192-.304.112a.91.91 0 01-.512.368l-.064.016c-.15.224-.347.336-.592.336a.701.701 0 01-.368.096l-.16.112-.16.048-.208.16-.208-.016-.224.064-.272-.112-.688-.048-.24-.368-.352-.368.08-.256-.24-.544.112-.208-.08-.384.08-.24a2.598 2.598 0 01-.032-.32c0-.203.053-.352.16-.448.01-.107.08-.283.208-.528h.08l-.032-.112.048-.224v-.24a.824.824 0 00.144-.192l-.048-.224V5.76c.075-.15.112-.304.112-.464l.336-.464.04-.032a.873.873 0 00.072-.064l-.016-.064h.064l.24-.272.016-.368.4-.144c.15-.096.245-.256.288-.48h.208a.68.68 0 01.32-.096.6.6 0 01.272.064l.176.016.416-.16.224.208.176.112h.128l.24.128h.128c.139.128.299.304.48.528l.032.08.112.064.336.432.304.752v.16l.144.56zm-1.056.384l-.016-.08a.411.411 0 01-.128-.24l.048-.08-.144-.304.032-.304-.064-.08c-.139-.107-.213-.192-.224-.256-.096-.043-.144-.15-.144-.32l-.096-.016-.192-.32-.144-.112-.336-.128-.128-.032c-.064 0-.107-.021-.128-.064l-.32.352-.208.448-.336.176-.048.176-.16.08-.064.416-.192.096a1.52 1.52 0 00-.064.416l-.256.24.08.048a.46.46 0 01-.144.336 3.322 3.322 0 01-.128.32v.128l-.048.064.016.192-.176.432.032.08v.448l-.064.224.016.224.144.208.224.08.08.032.128-.064.416.032.064-.16h.064c.064 0 .101.016.112.048l.144-.048.128.048.208-.144.032-.048.144-.032c.075-.117.25-.235.528-.352l.032-.08.32-.224.176-.256.256-.128.016-.08.08-.176v-.208l.192-.16.064-.112.08-.096a1.018 1.018 0 01-.064-.272c0-.096.032-.197.096-.304l.064-.064zm4.72-4.032l-.048.048-.048.272h-.08l-.048.176h.048c.021.128.043.224.064.288l-.064.144c.021.107.032.181.032.224 0 .032-.01.096-.032.192l-.032.144-.048 1.28.096.16-.096.4.096.336-.08.16c.032.107.048.213.048.32l.08.272-.096.048v.08c0 .096-.01.165-.032.208v.112c-.064.288-.219.432-.464.432-.32 0-.48-.208-.48-.624v-.304l-.032-.352-.096-.32.08-.176-.08-.16.08-.416-.16-.064.096-.368-.032-.144v-.288l-.032-.08.032-.176c0-.053.021-.133.064-.24l-.032-.048v-.096l-.144-.16.176-.24-.064-.176.048-.16v-.224a1.846 1.846 0 01-.016-.16c0-.043.005-.09.016-.144v-.112a.524.524 0 01-.032-.128l-.048-.064c0-.043.021-.075.064-.096l-.048-.064v-.192l-.16-.144.064-.752.464.064.256-.048.592.176.08.224c.01.064.016.155.016.272a.485.485 0 01-.016.144l-.048.096-.032.048.128.4zm.32 6.768l-.048.224a1.16 1.16 0 00-.032.192l-.416.304-.272-.08-.24.112-.224-.128h-.336l-.192-.608.128-.4.24-.224.064-.016.16-.16c.16.021.277.048.352.08.17 0 .293.027.368.08a1.12 1.12 0 01-.16.08l.352.048.112.208.144.288z" fill="#5AA5D8" fill-rule="evenodd"/></svg>