<svg width="137" height="16" xmlns="http://www.w3.org/2000/svg"><path d="M10.4 5.536l-.16.336-.064.528-.16.144c-.064.427-.23.699-.496.816l-.112.048-.96.672-.288.16-.464.512-.288-.048-.176.128-.32.112-.8.416a1.1 1.1 0 01-.256-.144.536.536 0 01-.352.208H5.44l-.32.256-.064-.032h-.304l-.144.112L4 9.744l-.8.128h-.096c-.075 0-.165.01-.272.032l-.448-.064-.08-.08-.64-.096-.272-.128h-.384V9.36l-.304-.32-.4-.176-.176-.496L.112 8l-.096-.112L0 7.168l.208-.64-.032-.384.08-.08V5.76l.224-.224v-.16L.576 5.2v-.16l.064-.08-.08-.176.256-.176.304-.64.656-.944.16-.08a2.59 2.59 0 01.144-.208l.16-.128v-.256l.24-.048a1.7 1.7 0 01.528-.288l.08-.096c.096-.043.373-.096.832-.16l.432-.064.512.064.304-.016H5.6l.096.016.048.016h.08l.096-.032.512.016-.032.096.24.064c.064-.021.096-.064.096-.128.053.096.17.144.352.144l.128.128h.48l1.072.464.128.352.096.144.288.112.432.704.256.32c.288.672.432 1.072.432 1.2v.176zm-1.2.096l-.08-.448.08-.128-.112-.272a.223.223 0 00.016-.096.109.109 0 00-.032-.08l-.288-.192-.096-.256-.128-.048-.048-.224-.4-.368-.24-.192-.096.048c-.245-.224-.699-.41-1.36-.56a.468.468 0 01-.16-.016l-.08.048-.288-.08-.16.08a1.535 1.535 0 00-.288-.08c-.01 0-.05.01-.12.032a.636.636 0 01-.184.032.416.416 0 01-.128-.016c-.075.139-.25.261-.528.368l-.208-.032-.224.112-.288-.032a8.04 8.04 0 01-.672.464l-.08.112-.08.352-.368.16-.064.08a1.35 1.35 0 01-.256.352v.272l-.224.096-.048.032-.144.48-.224.128c-.032.544-.123.923-.272 1.136-.085.117-.133.277-.144.48l-.064.176.048.112.048.24.192.208.032.208.16.16c.299.17.565.261.8.272l.672-.176.144.144h.192l.032-.032.48-.08.512.08a.415.415 0 01.304-.128c.245-.15.453-.224.624-.224l.336-.192.256-.016.208-.16.496-.016a.595.595 0 01.144-.016l.032-.048a.525.525 0 01.336-.208l.192-.448.128.08.128-.064.224-.208.08.032.272-.192.48-.48.208-.064.096-.24.128-.08-.032-.144.128-.24zm3.712 1.488l-.032.288-.128.24a.587.587 0 01.112.48l.4.4a.677.677 0 01.016.32l-.032.032.656.032c.064.01.13.005.2-.016a.387.387 0 00.184-.128l.352.16.304-.048.144-.048.464-.32.144.032.176-.144.208-.064.016-.16.368-.24.208-.256.112-.032-.048-.112.224-.48v-.16l.096-.496.032-.032-.032-.112a.35.35 0 01-.128-.136.776.776 0 01-.072-.184 1.4 1.4 0 01-.032-.16c-.005-.043-.013-.064-.024-.064-.032.01-.072-.01-.12-.064a10.745 10.745 0 01-.168-.192 2.064 2.064 0 00-.216-.216.774.774 0 00-.264-.152 25.293 25.293 0 01-.528-.096l-.096.032-.272-.016-.208.16-.144-.032-.16.112-.432.288a.573.573 0 00-.128.16.34.34 0 01-.208.16c-.064.085-.13.181-.2.288-.07.107-.141.15-.216.128l-.208.352-.096.24-.224.256zm3.344-5.808l-.16.016-.192.144-.208.112a.337.337 0 01-.144.096c-.043.01-.107.064-.192.16-.277.139-.453.325-.528.56l-.416.224-.032.32-.288-.016-.384.624a.851.851 0 00-.128.16l-.064.128-.368.672-.08.096-.096.448-.128.128-.016.24-.096.288-.016.208.176-.192.32-.288.16-.272.336-.176.144-.288.384-.24.432-.304.528-.096.096-.08.432.064.656-.096.784.448.416.528.064.016a.308.308 0 01.144.152 1 1 0 01.072.232l.048.256c.016.085.04.155.072.208l-.032.144.208.32c.021.085.03.227.024.424a1.439 1.439 0 01-.056.424 1.777 1.777 0 00-.064.104 7.608 7.608 0 01-.08.136l-.032.272-.256.352-.064.224-.192.176-.16.352-.256.144-.192.208-.224.064-.144.208h-.192a.699.699 0 01-.192.16c-.075.043-.144.08-.208.112a.353.353 0 01-.12.04c-.07.016-.152.045-.248.088l-.352.208-.192-.064a.65.65 0 01-.56.128l-.048.096-.544-.096-.032.016a.815.815 0 01-.12.064 1.17 1.17 0 00-.168.096l-.256-.176-.48-.16-.048.048-.304-.032-.272-.432-.352-.528-.112-.672-.16-.496.032-.24-.144-.24.144-.192-.048-.112.032-.192-.064-.272a.283.283 0 01.08-.128c.043-.043.064-.075.064-.096-.075-.139-.08-.299-.016-.48l.032-.32.08-.112.048-.208v-.176l.096-.144.128-.608.24-.384.016-.064a.647.647 0 01.12-.208c.048-.053.104-.107.168-.16l.08-.08.016-.208a.69.69 0 00.352-.384v-.08c0-.032.01-.075.032-.128h.16l.288-.352.128-.352.096.048.224-.096.176-.256.224-.048.08-.224.16-.032-.016-.144.224-.128.064.032.032-.096.224-.064a.782.782 0 01.232-.104.896.896 0 00.2-.072l.208-.112.224-.208.304.032.144-.16.8-.192.304.064c.117.032.197.075.24.128.16.192.165.368.016.528a.482.482 0 01-.2.104.924.924 0 01-.28.008l-.176.128-.24.032-.112.048-.368.144-.096.128zm9.328 6.08l-.192.48.128.32-.064.096-.064.256-.128.224-.064.032-.032.304-.288.032a2.22 2.22 0 01-.464.336l-.096-.016-.24.08-.144.016-.304.112-.352-.16-.048-.032-.272.016.064.032-.448-.064-.4.096-.16-.144-.336.032-.128-.096c-.01 0-.053.005-.128.016v.096a.906.906 0 01-.048.288l.048.304-.128.16c.021.235.032.41.032.528l-.048.4.064.608-.128.16.064.24-.048.16.096.048v.24a.508.508 0 01.032.144c0 .096-.059.176-.176.24l.064.224-.08.128-.032.64c-.032.747-.197 1.12-.496 1.12-.064 0-.25-.043-.56-.128l.048-.48-.096-.704.16-.288.016-.352-.064-.48.128-.208-.144-.368.112-.192-.096-.32.128-.288a.417.417 0 00-.12-.176c-.059-.053-.088-.09-.088-.112 0-.032.037-.064.112-.096a.561.561 0 01-.016-.16c0-.139.032-.32.096-.544l-.096-.16.048-.208-.112-.144.144-.176-.064-.464.096-.656-.112-.208.176-.304-.192-.176.112-.304-.112-.08.016-.272.096-.336V6.64l.016-.064V6.4l.016-.064-.08-.256.08-.272-.08-.208.064-.24-.064-.064.048-.32-.048-.176.032-.16-.048-.112-.576.256v-.096l-.112.016-.176.16h-.144l-.192.256-.16-.064-.08.16c-.523-.31-.784-.555-.784-.736a.41.41 0 01.144-.32l-.016-.24c.299-.17.581-.261.848-.272l.112-.112.512-.208.112-.112.448.032.08-.032.144-.56.384.08.256.416.144-.144.288.208c.139 0 .272.027.4.08l.08.144.112-.048.128.096a.76.76 0 01.176.016l-.016.096.352-.112.176.192.304.096.208.256.384.24.016.032.304.096v.096c.085.064.15.15.192.256l.128.08.096.176h.192v.32l.112.112.032.112.16.032c.021.245.09.453.208.624v.112l.16.16-.032.256.128.288.048.336.112.032zm-1.2.24l-.016-.08.016-.064-.096-.288.064-.144-.064-.128-.016-.16-.128-.256-.064-.176-.24-.416-.192-.16-.112-.272-.144-.064-.256-.336-.256.032-.192-.256-.16.032-.112-.208-.064-.016h-.224l-.16.08-.128-.128-.16.032-.064-.112-.288-.048.016.192-.032.304.064.176.224.208-.176.384.016.24-.08.48c.032.203.096.373.192.512l-.064.176c.01.01.016.021.016.032 0 .032-.043.08-.128.144l.112.144-.08.192-.032.208.048.224-.016.208h.336a.4.4 0 01.176-.032c.096 0 .181.032.256.096.01 0 .032-.005.064-.016h.048c.032 0 .09.01.176.032a.398.398 0 01.176-.048c.085 0 .165.021.24.064h.144l.128.032.32-.096.256.16c.096.032.133.048.112.048l.304-.304.032-.224.08-.032-.048-.128.112-.128.064-.112zm8.864-4.352l-.16.208.128.384-.208.24-.08.336-.048.08.032.08c0 .15-.037.261-.112.336l-.032.048v.064a.531.531 0 01.048.208c0 .053-.005.09-.016.112l.016.064-.064.176.048.192-.128.128.048.224.096.112-.144.128v.256l-.112.256.08.256-.096.128.16.112-.224.368-.016.048.16.032-.112.368v.064a.76.76 0 01-.016.176l.016.048.256.032.208.32-.112.24.176-.016c.064.128.101.24.112.336l-.24.24a1.35 1.35 0 01-.32.224l-.272.144-.08-.08-.16.096-.496-.576V9.2a2.07 2.07 0 01-.096-.592v-.096l-.096-.944.128-.672-.096-.384-.272.448-.144.416-.128.064-.224.352-.4.368-.112.192-.352.304-.08.208-.512.32-.544.608-.304.064-.208.16c-.267-.01-.47-.112-.608-.304-.48-.235-.73-.57-.752-1.008l.08-.048-.016-.096-.016-.192-.096-.208.096-.224.032-.336.112-.528v-.064a.142.142 0 01-.016-.064c0-.043.01-.096.032-.16a.333.333 0 01-.016-.128c0-.075.032-.197.096-.368l.112-.048c-.064-.053-.096-.112-.096-.176 0-.043.005-.075.016-.096a.355.355 0 01-.016-.112c0-.128.064-.224.192-.288a.958.958 0 01.176-.32l-.08-.128.192-.24v-.064c0-.203.07-.39.208-.56l-.016-.288.064-.064v-.048a.123.123 0 01-.016-.048c0-.064.021-.117.064-.16v-.096c.043-.107.155-.267.336-.48.181-.213.315-.4.4-.56l.08.08.176-.08.08-.032.528-.24 1.232.064v.112l.384.08c.245 0 .405.08.48.24a.47.47 0 01.016-.112V2.56l.336.304.304.064.576-.144.208.4.24.096zm-1.52.832L31.664 4l-.128-.032-.496-.4-.32-.048h-.256l-.032-.032-.128.048-.144-.08h-.416l.048.064-.368.128-.064.08-.048.016c-.192.16-.325.293-.4.4l-.112.384-.064.144.16.224-.272.208.032.064a1.18 1.18 0 00-.176.592l-.128.16v.288l-.128.144-.032.144-.048.032v.224l-.048.08c0 .128-.01.23-.032.304l.032.08-.144.304.064.096-.112.16.112.304-.176.224.032.304v.048l.064.032.08-.016c.053-.053.107-.101.16-.144l-.032-.128.224-.032.048-.112.944-.768.096-.032.112-.272c.064-.021.155-.064.272-.128l.096-.256h.128l-.048-.272.224-.032a1.64 1.64 0 01.256-.336l.816-1.088.128-.24-.016-.064.112-.176.032-.176.144-.128.016-.176zM43.664 3.2l-.336.816-.16.048h-.256l-.24.032-.176-.032-.848.064-.256-.064-.048.016c-.085.043-.24.08-.464.112h-.32l-.096-.032h-.048c-.107 0-.24.021-.4.064a2.103 2.103 0 01-.496.048l-.224-.048-.032.16h-.16l-.048.464.064.112-.016.208v.352c0 .363-.037.608-.112.736l.112.16-.096.384.096.112-.16.224v.112l-.08.144.064.304-.048.56-.08.256c.01.01.016.037.016.08 0-.021-.016.037-.048.176 0 .01.005.027.016.048v.064a.516.516 0 01-.096.288l.048.192c0 .075-.005.117-.016.128l-.016.032a.45.45 0 00-.032.176c0 .17.021.315.064.432a2.205 2.205 0 01-.328.04 6.925 6.925 0 01-.2.008.604.604 0 01-.192-.032h-.032c-.235-.064-.352-.283-.352-.656a.733.733 0 00.016-.192c0-.075-.01-.179-.032-.312a2.085 2.085 0 01-.032-.28c0-.096.016-.176.048-.24l.048-.56c-.075-.107-.112-.187-.112-.24 0 .01.01-.027.032-.112a.377.377 0 01-.048-.16c0-.085.021-.144.064-.176 0-.053.037-.165.112-.336a1.348 1.348 0 01-.032-.24c.064 0 .096-.032.096-.096a.189.189 0 00-.024-.08.288.288 0 01-.024-.128l.032.048-.048-.128c0-.181.021-.33.064-.448v-.384l-.064-.288.064-.464-.064-.288.016-.128h-.192l-.16.08h-.096v.048c-.203 0-.39-.016-.56-.048l-.048.112-.528-.176-.704-.016-.448.128a1.854 1.854 0 01-.408-.488c-.09-.165-.136-.285-.136-.36 0-.085.01-.15.032-.192l.304-.272.256.016.912.176.24-.08.688.016.544.064.352-.128.128-.352.544.128.016-.016.032.032.192.24h.048l.192-.064.4.096c.203-.032.36-.059.472-.08.112-.021.184-.032.216-.032.096 0 .213.027.352.08h.16c.053 0 .101-.003.144-.008a.849.849 0 01.096-.008h.096l.464-.064.4.08.048.016L42 3.12l.288.064.672-.016.304.032h.4zm1.712 5.024l.128.496.112-.16.352-.416.496-.24a.595.595 0 01.264-.296c.123-.07.243-.13.36-.184l.928-.848.432-.512.384-.272.016-.08c.021-.085.075-.13.16-.136a.685.685 0 00.208-.04l.32-.48.048-.096.592-.352.624-.832.256-.144.08-.208.224-.112a1.29 1.29 0 01.28-.32 1.57 1.57 0 01.376-.256l.128.144.144-.032c.235.021.347.101.336.24a.336.336 0 01.048.176c0 .053-.027.117-.08.192l-.064.784-.064.128.016.384-.08.464.032.64-.144.256.224.4-.128.384.08.224.08.16-.048.416v.144a.28.28 0 01.016.088V8l-.048.096-.112.128c.01.021.016.064.016.128a.238.238 0 01-.024.12c-.016.027-.03.05-.04.072l.096.208-.128.224.128.464a.613.613 0 01-.264.432.834.834 0 01-.472.144h-.288a4.248 4.248 0 01-.152-.264.795.795 0 01-.088-.296c0-.043.016-.09.048-.144l-.16-.224.112-.192-.016-.272.048-.304-.144-.48.144-.032a.239.239 0 01-.024-.136 1.47 1.47 0 00.008-.152.32.32 0 01.112-.256l.048-.192-.144-.672.048-.4-.08-.576.128-.144.048-.304.048-.24-.08-.016-.4.544-.304.224-.176.208a2.825 2.825 0 01-.624.624l-.176.256-.256.064-.448.64-.608.496-.256.256-.192.112-.256.224-.384.192-.064.128-1.152.848-.08.016-.112.208a.5.5 0 00-.168.072.49.49 0 01-.184.072l-.08.064h-.016v.112l-.896.224-.16-.208-.24-.176.272-.288-.16-.592.048-.048-.08-.176.32-.16-.24-.304.208-.336-.064-.288.016-.208-.08-.448.128-.16-.128-.512.112-.144L44.224 6l.096-.624-.032-.064c-.085-.075-.133-.33-.144-.768l-.016-.048.048-.304L44.128 4a.752.752 0 01.144-.272c.053-.01.08-.043.08-.096a.35.35 0 01.048-.168.292.292 0 00.016-.216l.512-.064.08-.144.8.304-.096.144.176.16-.192.112.176.512-.224.176v.768l-.112.432.144.528-.24.208v.048l.144.208-.016.72-.064.048.112.256-.24.56zm15.616-.032l.032.176-.112.24.016.08.048.016.032.224.32.048.32-.112.288-.016a.48.48 0 00.136.072.245.245 0 00.104-.008l.256-.128.4.016.416-.128.352-.144.208.016.192-.16.176-.032c.064 0 .139-.008.224-.024.085-.016.17-.035.256-.056.085-.021.165-.05.24-.088a.516.516 0 00.176-.136l.128-.16.32-.096.096-.176.08-.08-.048-.032-.24-.032-.048-.08h-.08l-.336-.144-.272.032-.128-.112-.304.032a.363.363 0 00-.192-.112.458.458 0 01-.24.08 1.088 1.088 0 01-.24-.096 1.47 1.47 0 01-.184-.008 7.598 7.598 0 00-.2-.024l-.176-.016a.37.37 0 00-.216 0 .534.534 0 01-.184.032.395.395 0 01-.12-.024.292.292 0 00-.152-.008l-.32.032-.224-.16-.016.096-.48-.016-.16-.064c-.17 0-.256.08-.256.24v.288l.08.048-.08.224.032.096-.032.208.112.176zm6.032-.368l-.256.224-.064.192-.176.032-.192.288-.336.064-.288.208-.112.048-.224.24-.368-.032-.16.128-.208-.032a2.844 2.844 0 00-.24.176.602.602 0 01-.288.112L64 9.408l-.416.304-.16-.08-.112.064-.256-.064-.096.064-.272.032-.208-.048-.256.224-.304-.032v.016a.78.78 0 01-.176.064l-.08-.096a.765.765 0 01-.48.16h-.08a.263.263 0 00-.08-.016l-.24.256-.272.08-.24-.128-.176-.144-.128-.144-.096-.08v-.112c0-.053-.048-.203-.144-.448l.016-.272-.032-.32.08-.24-.048-.32.112-.224-.064-.192.048-.32-.112-.352-.016-.048c-.32-.17-.501-.325-.544-.464.021-.117.07-.195.144-.232a3.27 3.27 0 00.288-.168l.16-.096-.096-.272.112-.048-.064-.224.048-.208-.08-.224.032-.112-.016-.192-.176-.352.032-.144-.08-.064.032-.192-.08-.112-.096-.208-.016-.016-.16.128-.16-.096-.16.096-.048-.064-.256.16-.144-.224-.288.176c-.49-.277-.736-.528-.736-.752 0-.192.101-.304.304-.336.107-.16.25-.24.432-.24h.048l.16.064h.032c.213 0 .4.003.56.008.16.005.288.019.384.04.085-.021.163-.035.232-.04a2.61 2.61 0 01.2-.008l.08.048.096-.032.416.16.368.096a.93.93 0 01.224-.016c.064 0 .117.003.16.008s.08.013.112.024l.16-.032c.139.01.272.053.4.128l.112.064c.17.043.304.064.4.064l.352-.064.064.08a.44.44 0 01.336.16h.432l.176.176c.064.021.123.037.176.048.053.01.101.016.144.016l.288.096.128.112h.336l.08.208.304.192.112.448-.24.432a2.18 2.18 0 01-.32.272 1.089 1.089 0 01-.32.144l-.24.144-.112-.032-.288.24h-.176l-.416.176-.288.032a5.63 5.63 0 00-.248.104c-.059.027-.117.05-.176.072a4.043 4.043 0 01-.192.064c-.07.021-.168.053-.296.096v.032c.021 0 .08-.005.176-.016l.312-.032c.112-.01.216-.021.312-.032.096-.01.16-.016.192-.016.117-.021.24-.043.368-.064.128-.021.213-.005.256.048a.516.516 0 01.224-.064c.181.053.293.08.336.08h.128c.043 0 .096-.01.16-.032.064.032.155.05.272.056.117.005.267.008.448.008l.128.08c.128.021.245.035.352.04a.72.72 0 01.288.072h.24c.053.053.136.09.248.112.112.021.2.059.264.112l.136.088c.059.037.13.099.216.184.15.128.224.261.224.4l-.016.176-.096.288zm-3.088-3.392h-.16l-.144-.08-.208-.048-.16.112-.304-.224-.24-.064-.096.048-.128-.144h-.064c-.107 0-.272-.016-.496-.048l-.336.048-.176-.16-.16.032-.048-.016-.096.064-.272-.096-.064.032v.352l.096.272-.08.224.08.176-.016.304.08.24-.096.24.048.16.224-.016c.021-.01.053-.024.096-.04a.315.315 0 00.128-.104l.064-.032.096.064.048-.112.4-.208c.15-.043.253-.07.312-.08a.25.25 0 00.152-.096l.224-.064.08-.016c.139-.085.299-.139.48-.16l.064-.048c.021 0 .064-.021.128-.064l.24-.128h.032c.053-.043.11-.083.168-.12a.758.758 0 01.2-.088l-.096-.112zm14.592.736l-.176.128.144.288-.544.32h-.064a.398.398 0 01-.176-.048l-.176.128-.24-.016-.272.192-.24-.128-.32.08-.304.16c0-.01-.021-.016-.064-.016-.064 0-.107.021-.128.064l-.128.352c.053.053.08.107.08.16a.298.298 0 01-.064.192l-.032.112.064.016a.597.597 0 01-.04.216c-.027.07-.056.13-.088.184.032.064.056.12.072.168a.504.504 0 00.056.12l-.144.096.016.48-.128.688-.016.144.024.128a.503.503 0 01.008.08v.064l.064.128.016.24a.62.62 0 00-.032.08c-.01.032-.027.075-.048.128a.414.414 0 01-.224.344c-.139.08-.33.125-.576.136l-.032-.304-.112-.16-.08-.24v-.464l-.112-.288.032-.016-.032-.208V8.56l.032-.512-.016-.464.096-.272v-.304c0-.053.01-.12.032-.2a.805.805 0 00.032-.2.458.458 0 00-.08-.24l-.032-.048-.048.032-.192-.048a1.875 1.875 0 01-.496.064h-.144a.223.223 0 01-.096-.016l-.208.176-.432-.064a5.554 5.554 0 00-.224-.024 1.899 1.899 0 00-.144-.008c-.15 0-.325.032-.528.096H72l-.352.128-.224-.144-.368.064-.032-.032-.064.032-.288-.016-.032.112-.416-.144-.368.032v.512l-.032.304.064.256-.112.208.096.176-.096.576.064.176-.032.32.144.256-.08.128.032.16c-.021.192-.144.288-.368.288a.585.585 0 01-.48-.248c-.128-.165-.192-.408-.192-.728l-.208-.24-.08-.16a.37.37 0 01.032-.152c.021-.048.043-.093.064-.136l.032-.224-.048-.128-.08-1.04v-.176l-.016-.048-.384-.272.048-.624.416-.256c.021-.075.037-.155.048-.24a2.339 2.339 0 000-.544 2.92 2.92 0 00-.048-.224l.08.048-.016-.192.096-.272-.096-.464v-.304l.112-.464.64-.288.272.192.304.096.048.288.128.176-.128.384a1.1 1.1 0 01.04.216 4.34 4.34 0 01-.008.608c-.01.123-.037.243-.08.36l.128.208-.144.176v.16l.128.048.352-.048.24.032.4-.048.032.048a.303.303 0 01.12-.016h.12c.032 0 .09.01.176.032h.24l.192-.008c.117-.005.25-.008.4-.008l.224-.144.24.128.208.016.064.016c.107-.021.17-.032.192-.032h.08l.992-.144.208.016.08-.048-.08-.224.08-.192-.096-.496.096-.176-.256-.64-.032-.096-.064-.064a.1.1 0 00.024-.04.832.832 0 01.04-.088c0-.01.003-.016.008-.016s.008-.005.008-.016l.016-.016v-.048c0-.064.075-.133.224-.208l.144-.368.496.064.16.096.432-.08v.192l.176-.048v.624L76 3.52l.112.272v.16l.064.224-.096.24.032.176-.08.56v.096l.304-.016.576-.112.288.016.176-.016h.32a.256.256 0 01.112-.04 1.1 1.1 0 01.128-.008.409.409 0 01.208.048l.384.048zm2 3.056l.128.496.112-.16.352-.416.496-.24a.595.595 0 01.264-.296c.123-.07.243-.13.36-.184l.928-.848.432-.512.384-.272.016-.08c.021-.085.075-.13.16-.136a.685.685 0 00.208-.04l.32-.48.048-.096.592-.352.624-.832.256-.144.08-.208.224-.112a1.29 1.29 0 01.28-.32 1.57 1.57 0 01.376-.256l.128.144.144-.032c.235.021.347.101.336.24a.336.336 0 01.048.176c0 .053-.027.117-.08.192l-.064.784-.064.128.016.384-.08.464.032.64-.144.256.224.4-.128.384.08.224.08.16-.048.416v.144a.28.28 0 01.016.088V8l-.048.096-.112.128c.01.021.016.064.016.128a.238.238 0 01-.024.12c-.016.027-.03.05-.04.072l.096.208-.128.224.128.464a.613.613 0 01-.264.432.834.834 0 01-.472.144h-.288a4.248 4.248 0 01-.152-.264.795.795 0 01-.088-.296c0-.043.016-.09.048-.144l-.16-.224.112-.192-.016-.272.048-.304-.144-.48.144-.032a.239.239 0 01-.024-.136 1.47 1.47 0 00.008-.152.32.32 0 01.112-.256l.048-.192-.144-.672.048-.4-.08-.576.128-.144.048-.304.048-.24-.08-.016-.4.544-.304.224-.176.208a2.825 2.825 0 01-.624.624l-.176.256-.256.064-.448.64-.608.496-.256.256-.192.112-.256.224-.384.192-.064.128-1.152.848-.08.016-.112.208a.5.5 0 00-.168.072.49.49 0 01-.184.072l-.08.064h-.016v.112l-.896.224-.16-.208-.24-.176.272-.288-.16-.592.048-.048-.08-.176.32-.16-.24-.304.208-.336-.064-.288.016-.208-.08-.448.128-.16-.128-.512.112-.144L79.376 6l.096-.624-.032-.064c-.085-.075-.133-.33-.144-.768l-.016-.048.048-.304L79.28 4a.752.752 0 01.144-.272c.053-.01.08-.043.08-.096a.35.35 0 01.048-.168.292.292 0 00.016-.216l.512-.064.08-.144.8.304-.096.144.176.16-.192.112.176.512-.224.176v.768l-.112.432.144.528-.24.208v.048l.144.208-.016.72-.064.048.112.256-.24.56zm14.704-1.488l.32-.368.016-.032a.228.228 0 01.048-.04.782.782 0 00.064-.04.135.135 0 01.064-.056c.032-.016.075-.04.128-.072a.879.879 0 01.336-.32l.048-.08V5.6c.224-.277.405-.437.544-.48 0-.139.144-.272.432-.4l.24-.336.08-.24h.16a.62.62 0 01.096-.232c.043-.059.085-.12.128-.184l-.032-.096-.144-.272.208-.288.128-.352h.256c.043 0 .08-.005.112-.016.085 0 .23.043.432.128l.016.112.192.128.016.112.144.096-.08.08c.16.053.24.128.24.224a.234.234 0 01-.048.144v.224l.192.24-.096.08-.016.064.032.016.064.208.208.16-.176.192-.08.304.112.224-.032.304.16.416c.032.085.053.168.064.248.01.08.016.147.016.2 0 .064-.037.15-.112.256.064.053.096.107.096.16 0 .075-.032.16-.096.256l.064.048-.048.768.176.432v.464c.021.043.045.085.072.128a.92.92 0 01.072.144 7.153 7.153 0 01.336.32c.117.117.181.219.192.304-.053.139-.256.267-.608.384l-.496-.288-.464-.48-.16-.32-.048-.256-.064-.144A1.732 1.732 0 0198.544 8c0-.032.003-.064.008-.096a1.46 1.46 0 01.024-.112l.032-.032.048-.256-.192-.304.064-.176-.048-.208.032-.192a.585.585 0 01-.04-.152 1.234 1.234 0 01-.008-.136v-.08a1.91 1.91 0 00-.08-.496v-.384l-.048-.24.048-.384-.192.192-.384.608-.384.432-.144.272-.432.464-.464.32-.048.272-.288.096-.048.144-.336.16-.112.256-.24.08-.272.448-.176.096-.048.256a2.17 2.17 0 01-.216.08.787.787 0 01-.232.032h-.08l-.128-.272-.208-.272.016-.144-.128-.192.064-.096-.016-.016-.064-.224-.112-.08a3.416 3.416 0 01-.416-.48l-.08-.256-.128-.16-.272-.48-.272-.304-.096-.16-.256-.272-.256-.448a.506.506 0 00-.064.216c0 .059-.005.168-.016.328l-.272.416.08.304-.144.304-.304.848-.128.288-.032.176-.256.448-.208.304.032.272a.704.704 0 01-.112.24 4.686 4.686 0 00-.16.24l.112.336c-.32.267-.544.4-.672.4-.192 0-.32-.07-.384-.208a.824.824 0 01-.088-.104.348.348 0 01-.056-.136v-.064c.192-.683.32-1.024.384-1.024.01 0 .016.005.016.016V8.48c0-.235.101-.416.304-.544v-.08l.08-.272-.016-.096c0-.021.013-.064.04-.128l.104-.256.08-.064v-.368l.16-.24.224-.688-.064-.416.192-.16v-.032l.016-.544.064-.224a.504.504 0 00.048-.192v-.064l-.272-.432.08-.272.112-.016.112-.144-.016-.112.224-.16.112.048.208-.128.208.016.384.24v.096l.144.08.176.32-.016.176.016.096c.032.021.067.043.104.064a.701.701 0 01.136.112l.016.192.16.128.096.272.672.576.144.336.224.112.256.544.464.72.064.192h.08l.112-.224.336-.208zm13.12-3.456l-.16.208.128.384-.208.24-.08.336-.048.08.032.08c0 .15-.037.261-.112.336l-.032.048v.064a.531.531 0 01.048.208c0 .053-.005.09-.016.112l.016.064-.064.176.048.192-.128.128.048.224.096.112-.144.128v.256l-.112.256.08.256-.096.128.16.112-.224.368-.016.048.16.032-.112.368v.064a.76.76 0 01-.016.176l.016.048.256.032.208.32-.112.24.176-.016c.064.128.101.24.112.336l-.24.24a1.35 1.35 0 01-.32.224l-.272.144-.08-.08-.16.096-.496-.576V9.2a2.07 2.07 0 01-.096-.592v-.096l-.096-.944.128-.672-.096-.384-.272.448-.144.416-.128.064-.224.352-.4.368-.112.192-.352.304-.08.208-.512.32-.544.608-.304.064-.208.16c-.267-.01-.47-.112-.608-.304-.48-.235-.73-.57-.752-1.008l.08-.048-.016-.096-.016-.192-.096-.208.096-.224.032-.336.112-.528v-.064a.142.142 0 01-.016-.064c0-.043.01-.096.032-.16a.333.333 0 01-.016-.128c0-.075.032-.197.096-.368l.112-.048c-.064-.053-.096-.112-.096-.176 0-.043.005-.075.016-.096a.355.355 0 01-.016-.112c0-.128.064-.224.192-.288a.958.958 0 01.176-.32l-.08-.128.192-.24v-.064c0-.203.07-.39.208-.56l-.016-.288.064-.064v-.048a.123.123 0 01-.016-.048c0-.064.021-.117.064-.16v-.096c.043-.107.155-.267.336-.48.181-.213.315-.4.4-.56l.08.08.176-.08.08-.032.528-.24 1.232.064v.112l.384.08c.245 0 .405.08.48.24a.47.47 0 01.016-.112V2.56l.336.304.304.064.576-.144.208.4.24.096zm-1.52.832L106.768 4l-.128-.032-.496-.4-.32-.048h-.256l-.032-.032-.128.048-.144-.08h-.416l.048.064-.368.128-.064.08-.048.016c-.192.16-.325.293-.4.4l-.112.384-.064.144.16.224-.272.208.032.064a1.18 1.18 0 00-.176.592l-.128.16v.288l-.128.144-.032.144-.048.032v.224l-.048.08c0 .128-.01.23-.032.304l.032.08-.144.304.064.096-.112.16.112.304-.176.224.032.304v.048l.064.032.08-.016c.053-.053.107-.101.16-.144l-.032-.128.224-.032.048-.112.944-.768.096-.032.112-.272c.064-.021.155-.064.272-.128l.096-.256h.128l-.048-.272.224-.032a1.64 1.64 0 01.256-.336l.816-1.088.128-.24-.016-.064.112-.176.032-.176.144-.128.016-.176zm13.728 1.056l-.176.128.144.288-.544.32h-.064a.398.398 0 01-.176-.048l-.176.128-.24-.016-.272.192-.24-.128-.32.08-.304.16c0-.01-.021-.016-.064-.016-.064 0-.107.021-.128.064l-.128.352c.053.053.08.107.08.16a.298.298 0 01-.064.192l-.032.112.064.016a.597.597 0 01-.04.216c-.027.07-.056.13-.088.184.032.064.056.12.072.168a.504.504 0 00.056.12l-.144.096.016.48-.128.688-.016.144.024.128a.503.503 0 01.008.08v.064l.064.128.016.24a.62.62 0 00-.032.08c-.01.032-.027.075-.048.128a.414.414 0 01-.224.344c-.139.08-.33.125-.576.136l-.032-.304-.112-.16-.08-.24v-.464l-.112-.288.032-.016-.032-.208V8.56l.032-.512-.016-.464.096-.272v-.304c0-.053.01-.12.032-.2a.805.805 0 00.032-.2.458.458 0 00-.08-.24l-.032-.048-.048.032-.192-.048a1.875 1.875 0 01-.496.064h-.144a.223.223 0 01-.096-.016l-.208.176-.432-.064a5.554 5.554 0 00-.224-.024 1.899 1.899 0 00-.144-.008c-.15 0-.325.032-.528.096h-.064l-.352.128-.224-.144-.368.064-.032-.032-.064.032-.288-.016-.032.112-.416-.144-.368.032v.512l-.032.304.064.256-.112.208.096.176-.096.576.064.176-.032.32.144.256-.08.128.032.16c-.021.192-.144.288-.368.288a.585.585 0 01-.48-.248c-.128-.165-.192-.408-.192-.728l-.208-.24-.08-.16a.37.37 0 01.032-.152c.021-.048.043-.093.064-.136l.032-.224-.048-.128-.08-1.04v-.176l-.016-.048-.384-.272.048-.624.416-.256c.021-.075.037-.155.048-.24a2.339 2.339 0 000-.544 2.92 2.92 0 00-.048-.224l.08.048-.016-.192.096-.272-.096-.464v-.304l.112-.464.64-.288.272.192.304.096.048.288.128.176-.128.384a1.1 1.1 0 01.04.216 4.34 4.34 0 01-.008.608c-.01.123-.037.243-.08.36l.128.208-.144.176v.16l.128.048.352-.048.24.032.4-.048.032.048a.303.303 0 01.12-.016h.12c.032 0 .09.01.176.032h.24l.192-.008c.117-.005.25-.008.4-.008l.224-.144.24.128.208.016.064.016c.107-.021.17-.032.192-.032h.08l.992-.144.208.016.08-.048-.08-.224.08-.192-.096-.496.096-.176-.256-.64-.032-.096-.064-.064a.1.1 0 00.024-.04.832.832 0 01.04-.088c0-.01.003-.016.008-.016s.008-.005.008-.016l.016-.016v-.048c0-.064.075-.133.224-.208l.144-.368.496.064.16.096.432-.08v.192l.176-.048v.624l-.08.112.112.272v.16l.064.224-.096.24.032.176-.08.56v.096l.304-.016.576-.112.288.016.176-.016h.32a.256.256 0 01.112-.04 1.1 1.1 0 01.128-.008.409.409 0 01.208.048l.384.048zm2 3.056l.128.496.112-.16.352-.416.496-.24a.595.595 0 01.264-.296c.123-.07.243-.13.36-.184l.928-.848.432-.512.384-.272.016-.08c.021-.085.075-.13.16-.136a.685.685 0 00.208-.04l.32-.48.048-.096.592-.352.624-.832.256-.144.08-.208.224-.112a1.29 1.29 0 01.28-.32 1.57 1.57 0 01.376-.256l.128.144.144-.032c.235.021.347.101.336.24a.336.336 0 01.048.176c0 .053-.027.117-.08.192l-.064.784-.064.128.016.384-.08.464.032.64-.144.256.224.4-.128.384.08.224.08.16-.048.416v.144a.28.28 0 01.016.088V8l-.048.096-.112.128c.01.021.016.064.016.128a.238.238 0 01-.024.12c-.016.027-.03.05-.04.072l.096.208-.128.224.128.464a.613.613 0 01-.264.432.834.834 0 01-.472.144h-.288a4.248 4.248 0 01-.152-.264.795.795 0 01-.088-.296c0-.043.016-.09.048-.144l-.16-.224.112-.192-.016-.272.048-.304-.144-.48.144-.032a.239.239 0 01-.024-.136 1.47 1.47 0 00.008-.152.32.32 0 01.112-.256l.048-.192-.144-.672.048-.4-.08-.576.128-.144.048-.304.048-.24-.08-.016-.4.544-.304.224-.176.208a2.825 2.825 0 01-.624.624l-.176.256-.256.064-.448.64-.608.496-.256.256-.192.112-.256.224-.384.192-.064.128-1.152.848-.08.016-.112.208a.5.5 0 00-.168.072.49.49 0 01-.184.072l-.08.064h-.016v.112l-.896.224-.16-.208-.24-.176.272-.288-.16-.592.048-.048-.08-.176.32-.16-.24-.304.208-.336-.064-.288.016-.208-.08-.448.128-.16-.128-.512.112-.144-.176-.256.096-.624-.032-.064c-.085-.075-.133-.33-.144-.768l-.016-.048.048-.304-.048-.192a.752.752 0 01.144-.272c.053-.01.08-.043.08-.096a.35.35 0 01.048-.168.292.292 0 00.016-.216l.512-.064.08-.144.8.304-.096.144.176.16-.192.112.176.512-.224.176v.768l-.112.432.144.528-.24.208v.048l.144.208-.016.72-.064.048.112.256-.24.56zm14.16.224c0 .128-.096.288-.288.48a.996.996 0 01-.24.416l-.096.016-.176.304-.288.048-.304.192-.16.288-.176-.032a1.123 1.123 0 01-.288.096l-.096.144a.485.485 0 00-.144-.016c-.139 0-.272.096-.4.288l-.224-.192a.853.853 0 01-.192.016.865.865 0 01-.352-.064h-.272l-.128-.08c-.405-.064-.661-.219-.768-.464V9.84l-.192-.096-.096-.272-.192-.128v-.24l-.192-.704.032-.576.064-.256v-.336l.08-.256-.016-.112.112-.192-.032.032c0-.096.027-.197.08-.304v-.08l-.048-.384c0-.181.08-.341.24-.48a.223.223 0 00.016-.096c0-.043-.019-.13-.056-.264a1.238 1.238 0 01-.056-.28c0-.128.032-.261.096-.4a.416.416 0 00.368.192h.048a.451.451 0 01.144-.144 2.01 2.01 0 01.352-.672l.064-.064c0-.043.032-.165.096-.368h.128l.032-.08.128-.032a1.22 1.22 0 01.104-.152c.016-.016.13-.083.344-.2a.697.697 0 01.192-.208c.043-.021.096-.043.16-.064l.064-.096c.288-.096.47-.144.544-.144.085 0 .165.021.24.064l.08-.016.112.064c.128.096.256.176.384.24l.272.208v.064c.245.192.368.464.368.816l-.048.16.048.528-.144.096-.16.416-.304.336-.016.256a7.787 7.787 0 01-.944.592c-.096.15-.245.224-.448.224h-.048l-.304.192h-.256l-.384.16-.288-.144h-.032a3.51 3.51 0 00-.064.384l-.128.096-.016.192-.096.272c.032.256.048.421.048.496l-.064.048c0 .139-.005.24-.016.304 0 .01-.005.027-.016.048v.048c0 .085.043.155.128.208.032.128.085.208.16.24l.112.096.352.096v.048l.128.032.544.032.32-.048.16-.112.096-.032.16-.24.08-.016.4-.128a.523.523 0 01.208-.192l.048-.08c.213-.043.336-.155.368-.336a.78.78 0 01.576-.224h.064c.203.235.304.427.304.576zm-1.584-4.608a.786.786 0 00-.048-.192l-.08-.016-.032.016h-.064a.142.142 0 01-.064.016.123.123 0 01-.048-.016h-.048l-.16.112-.144.016-.08.032-.272.352-.176.128-.256.448-.144.096a.903.903 0 01-.224.464l-.064.112a.729.729 0 01.4-.112l.112-.048.048-.144.224.016.128-.192h.096l.176.064.08-.24h.112v-.176l.208-.048.048-.048.032-.144.208-.304a.517.517 0 00.032-.192z" fill="#5AA5D8"/></svg>